<?xml version="1.0" encoding="utf-8"?>
<!-- Generator: Adobe Illustrator 23.0.3, SVG Export Plug-In . SVG Version: 6.00 Build 0)  -->
<svg version="1.1" id="Layer_1" xmlns="http://www.w3.org/2000/svg" xmlns:xlink="http://www.w3.org/1999/xlink" x="0px" y="0px"
	 viewBox="0 0 291.9 226" style="enable-background:new 0 0 291.9 226;" xml:space="preserve">
<style type="text/css">
	.st0{fill:#D1D1D1;}
	.st1{fill:none;}
	.st2{fill:#926AAD;}
	.st3{fill:#FFFFFF;}
	.st4{fill:#DDDDDD;}
	.st5{fill:#0D8F99;}
	.st6{fill:#69366E;}
</style>
<title>to-product</title>
<path class="st0" d="M31,110.2L31,110.2l15,3.5l-3.4,13.5l-0.2,0.1c-11.5,10.3-15.7,26.5-10.7,41.1c3.3,9.6,10.3,17.4,19.5,21.8
	c6.8,3.3,9,3.4,16.8,3.9l-10.3,9.3l6.7,11.7c-7.7-0.6-15.3-2.6-22.3-5.9c-14.2-6.8-25-18.9-30.2-33.7C4,153,12.7,126.1,31,110.2
	L31,110.2z"/>
<path class="st0" d="M71.3,193.9c1.9-0.4,7.2-1.4,9-2.1c15.1-5.3,24.4-16.4,35.3-29.3l34.1-38.8l2.8,13.2l13.8-0.3l-34.6,39.4
	c-11.8,14-23.9,28.4-44.4,35.6c-6.7,2.4-13.7,3.5-20.8,3.4l-6.7-11.2L71.3,193.9L71.3,193.9z"/>
<polygon class="st1" points="147,127.1 146.3,127.9 146.3,128 "/>
<path class="st0" d="M108.5,60c4.1-16.9,19.2-28.9,36.6-29.1c10.3-0.1,19,3.9,27,10.2c1,0.6,2.4,1.7,2.4,1.7l13-0.1l5.9-9
	c-3.5-4.2-1.3-1.9-6.3-6.8C163.8,4,126.3,4.3,103.4,27.6c-6.2,6.3-11,14-13.8,22.4l13.5-3.3L108.5,60L108.5,60z"/>
<path class="st0" d="M175.5,44.9c1.4,4,8.2,19.6,8.2,24.1c0,6.8-1.8,13.5-5.3,19.3l-9,11.1h26.9l0.3-0.5c5.3-9.1,8.1-19.4,8.1-29.9
	c0-8.1-6-26.8-10.2-33.8l-6.1,9.8L175.5,44.9z"/>
<path class="st2" d="M166.8,99.4h-23.1l7.5,8.8l-5.6,12.2h63c7.4-0.1,14.8,0.3,22.2,1.2l11.4-8.3l-5.6-12.1
	c-9.3-1.3-18.6-1.9-28-1.8L166.8,99.4z"/>
<polygon class="st0" points="151.2,122 154.5,134.9 167.7,134.9 179.5,120.4 152.4,120.4 "/>
<path class="st0" d="M140.4,120.4h3.1l5.5-11.9l-7.8-9.1h-19C123.4,105.4,137.9,118.3,140.4,120.4L140.4,120.4z"/>
<path class="st0" d="M111.4,120.4l12,13l2.1-13.2l15.9,1.4l-1-1.2c-2.5-2.2-18.3-21-18.2-21h-0.1l-1.4-1.7c-1.1-1.3-2.2-2.5-3.4-3.8
	c-1.7-1.7-3.2-3.5-4.6-5.5c-4.5-7.6-6.3-16.6-4.9-25.4l-6-13.7l-13.1,3.1c-4.5,15.4-2.5,32,5.5,45.9L111.4,120.4L111.4,120.4z"/>
<path class="st2" d="M219.8,193.9c-1.9-0.4-7.2-1.4-9-2.1c-15.1-5.3-24.4-16.4-35.3-29.3L160,144l-14.2,16.1l13.6,16
	c11.8,14,23.9,28.4,44.4,35.6c6.7,2.4,13.7,3.5,20.8,3.4l-12.5-9.1L219.8,193.9L219.8,193.9z M142.5,123.4l-15.7-1.3l-1.8,13.2
	l7.2,8.5l14-16L142.5,123.4z"/>
<path class="st2" d="M262.7,111.6c-5.7-5.2-14.3-8.2-23.5-10l5.9,12l-11.6,8.4c9.8,1.6,13.6,3.9,15,5.1l0.1,0.1
	c11.5,10.3,15.7,26.6,10.6,41.2c-3.3,9.6-10.3,17.4-19.5,21.8c-6.8,3.3-10,4.7-17.3,3.8l-7.6,11.7l13,9.2c32.6-2.5,57-31,54.5-63.6
	C281.2,136,274.2,121.8,262.7,111.6L262.7,111.6z"/>
<path class="st3" d="M174.6,106.1h2.2c0.5,0,1,0.1,1.5,0.2c0.4,0.1,0.8,0.3,1.1,0.6c0.9,0.9,1.4,2.1,1.3,3.3c0,0.5,0,0.9-0.1,1.4
	c-0.1,0.8-0.5,1.5-1.1,2c-0.4,0.4-1,0.6-1.6,0.7c-0.3,0-0.7,0.1-1,0.1h-2.2c-0.2,0-0.5,0-0.7-0.1c-0.1-0.1-0.3-0.2-0.3-0.4
	c0-0.2-0.1-0.4-0.1-0.6v-6c0-0.3,0.1-0.6,0.3-0.8C174.1,106.2,174.4,106.1,174.6,106.1L174.6,106.1z M175.2,107.5v5.6h1.3h0.6
	l0.5-0.1c0.2-0.1,0.3-0.1,0.4-0.3c0.6-0.6,0.9-1.5,0.8-2.4c0-0.6-0.1-1.3-0.4-1.8c-0.2-0.4-0.5-0.6-0.9-0.8
	c-0.4-0.1-0.9-0.2-1.3-0.2L175.2,107.5z M186.2,111.7h-3c0,0.3,0.1,0.6,0.2,0.9c0.1,0.2,0.3,0.5,0.5,0.6c0.2,0.1,0.5,0.2,0.8,0.2
	c0.2,0,0.3,0,0.5-0.1c0.2,0,0.3-0.1,0.4-0.2l0.4-0.3l0.5-0.4c0.1-0.1,0.2-0.1,0.3-0.1c0.1,0,0.3,0,0.4,0.1c0.1,0.1,0.2,0.2,0.1,0.4
	c0,0.2-0.1,0.3-0.2,0.5c-0.1,0.2-0.3,0.4-0.5,0.5c-0.2,0.2-0.5,0.3-0.8,0.4c-0.4,0.1-0.8,0.2-1.1,0.2c-0.8,0.1-1.7-0.2-2.3-0.8
	c-0.6-0.6-0.9-1.4-0.8-2.3c0-0.8,0.3-1.6,0.8-2.3c0.3-0.3,0.6-0.5,1-0.6c0.9-0.3,1.9-0.3,2.8,0.1c0.8,0.5,1.3,1.3,1.3,2.2
	c0,0.3-0.1,0.6-0.3,0.8C186.9,111.7,186.6,111.8,186.2,111.7L186.2,111.7z M183.2,110.9h2.8c0-0.4-0.2-0.8-0.4-1.2
	c-0.3-0.3-0.6-0.4-1-0.4c-0.4,0-0.7,0.1-0.9,0.4C183.4,110,183.2,110.4,183.2,110.9L183.2,110.9z M190,109.1v0.2
	c0.2-0.3,0.6-0.6,0.9-0.8c0.3-0.2,0.7-0.2,1-0.3c0.5,0,0.9,0.1,1.3,0.4c0.4,0.3,0.7,0.6,0.9,1.1c0.6,1.3,0.4,2.8-0.4,3.9
	c-0.4,0.5-1.1,0.9-1.8,0.8c-0.4,0-0.8-0.1-1.1-0.3c-0.3-0.2-0.6-0.5-0.9-0.8v2.3c0,0.7-0.3,1-0.7,1c-0.3,0-0.5-0.1-0.6-0.3
	c-0.1-0.2-0.2-0.5-0.1-0.8v-6.6c0-0.2,0.1-0.5,0.2-0.6c0.1-0.1,0.3-0.2,0.5-0.2c0.2,0,0.4,0.1,0.5,0.2
	C189.9,108.7,190,108.9,190,109.1L190,109.1z M193,111.3c0-0.3-0.1-0.7-0.2-1c-0.1-0.3-0.3-0.5-0.5-0.7c-0.2-0.2-0.5-0.2-0.7-0.2
	c-0.4,0-0.8,0.2-1.1,0.5c-0.3,0.4-0.5,0.9-0.4,1.5c0,0.5,0.1,1,0.4,1.4c0.4,0.5,1.2,0.7,1.8,0.3c0.2-0.2,0.4-0.4,0.5-0.7
	C192.9,112.1,193,111.8,193,111.3L193,111.3z M195.8,113.5v-6.6c0-0.2,0.1-0.5,0.2-0.7c0.1-0.1,0.3-0.2,0.5-0.2
	c0.2,0,0.4,0.1,0.6,0.2c0.2,0.2,0.2,0.4,0.2,0.7v6.6c0,0.2-0.1,0.5-0.2,0.7c-0.1,0.2-0.3,0.2-0.6,0.2c-0.2,0-0.4-0.1-0.5-0.3
	C195.8,114,195.8,113.8,195.8,113.5L195.8,113.5z M204.6,111.4c0,0.8-0.3,1.6-0.8,2.3c-0.3,0.3-0.6,0.5-1,0.6
	c-0.8,0.3-1.7,0.3-2.5,0c-0.4-0.1-0.7-0.4-1-0.6c-0.6-0.6-0.9-1.4-0.8-2.2c0-0.8,0.2-1.6,0.8-2.3c0.3-0.3,0.6-0.5,1-0.6
	c0.8-0.3,1.7-0.3,2.5,0c0.4,0.1,0.7,0.3,1,0.6c0.3,0.3,0.5,0.6,0.6,1C204.5,110.5,204.6,110.9,204.6,111.4L204.6,111.4z
	 M203.1,111.4c0-0.5-0.1-1-0.4-1.5c-0.3-0.3-0.7-0.5-1.1-0.5c-0.3,0-0.6,0.1-0.8,0.2c-0.2,0.2-0.4,0.4-0.5,0.7
	c-0.1,0.3-0.2,0.7-0.2,1.1c0,0.3,0.1,0.7,0.2,1c0.1,0.3,0.3,0.5,0.5,0.7c0.2,0.2,0.5,0.2,0.8,0.2c0.4,0,0.8-0.2,1.1-0.5
	C202.9,112.3,203.1,111.8,203.1,111.4L203.1,111.4z M207.1,114.7l0.1-0.3l-1.9-4.7c-0.1-0.2-0.2-0.4-0.2-0.6c0-0.1,0-0.2,0.1-0.4
	c0.1-0.1,0.2-0.2,0.3-0.3c0.1-0.1,0.2-0.1,0.4-0.1c0.2,0,0.4,0.1,0.5,0.2c0.1,0.2,0.2,0.4,0.3,0.6l1.3,3.8l1.2-3.5l0.3-0.7
	c0.1-0.1,0.1-0.2,0.3-0.3c0.1-0.1,0.2-0.1,0.4-0.1c0.1,0,0.2,0,0.3,0.1c0.1,0.1,0.2,0.1,0.3,0.3c0.1,0.1,0.1,0.2,0.1,0.3l-0.1,0.3
	l-0.1,0.4l-2,5.2c-0.1,0.4-0.3,0.7-0.5,1.1c-0.2,0.3-0.4,0.5-0.6,0.6c-0.3,0.2-0.7,0.2-1.1,0.2c-0.3,0-0.7,0-1-0.1
	c-0.2-0.1-0.4-0.3-0.3-0.5c0-0.2,0.1-0.3,0.2-0.4c0.1-0.1,0.3-0.2,0.5-0.1h0.3h0.3c0.1,0,0.3,0,0.4-0.1c0.1-0.1,0.2-0.2,0.3-0.3
	C206.9,114.9,207,114.7,207.1,114.7L207.1,114.7z M274.2,142.9c0.2,0.7,0.2,1.5,0.1,2.3c-0.2,0.7-0.5,1.3-1.1,1.7
	c-1.1,0.9-2.4,1.3-3.8,1.3c-0.5,0-1-0.2-1.5-0.4c-0.5-0.2-0.9-0.6-1.2-1c-0.3-0.5-0.6-1-0.7-1.6c-0.2-0.6-0.2-1.2-0.1-1.8
	c0.1-1.1,0.7-2,1.6-2.6c0.5-0.3,1-0.6,1.6-0.7c0.6-0.2,1.2-0.2,1.8-0.2c1.1,0.1,2,0.6,2.6,1.4C273.8,141.8,274,142.4,274.2,142.9
	L274.2,142.9z M270.7,146.3c0.5-0.1,1-0.3,1.4-0.7c0.4-0.3,0.6-0.6,0.8-1.1c0.1-0.4,0.1-0.9,0-1.3c-0.1-0.6-0.6-1.1-1.1-1.4
	c-0.3-0.1-0.7-0.2-1-0.2c-0.9,0-1.7,0.2-2.4,0.6c-0.6,0.3-1,0.9-1.1,1.6c-0.1,0.3,0,0.6,0.1,0.9c0.2,0.9,0.9,1.5,1.7,1.7
	C269.6,146.5,270.2,146.5,270.7,146.3L270.7,146.3z M272.6,150.8h-0.2c0.3,0.2,0.6,0.5,0.9,0.8c0.7,1.1,0.4,2.6-0.7,3.4
	c0,0,0,0-0.1,0c-0.5,0.3-1,0.5-1.6,0.5c-0.4,0.1-0.9,0.1-1.3,0c-0.4-0.1-0.7-0.2-1-0.4c-0.9-0.6-1.3-1.8-0.9-2.9
	c0.2-0.3,0.4-0.7,0.7-0.9l-2.3,0.3c-0.7,0.1-1-0.1-1.1-0.6c-0.1-0.2,0-0.5,0.2-0.6c0.2-0.1,0.5-0.2,0.7-0.2l6.5-0.8
	c0.2-0.1,0.5,0,0.7,0.1c0.2,0.1,0.3,0.3,0.3,0.5c0,0.2,0,0.4-0.2,0.5C273.1,150.7,272.9,150.8,272.6,150.8L272.6,150.8z M270.7,154
	c0.4,0,0.7-0.1,1-0.3c0.3-0.1,0.5-0.3,0.6-0.6c0.1-0.2,0.2-0.5,0.1-0.8c0-0.4-0.3-0.8-0.6-1c-0.5-0.3-1-0.4-1.5-0.3
	c-0.5,0-1,0.2-1.4,0.6c-0.3,0.3-0.4,0.7-0.4,1.1c0,0.2,0.1,0.5,0.3,0.7c0.2,0.2,0.4,0.4,0.7,0.4C270,154,270.4,154.1,270.7,154
	L270.7,154z M270.5,161.2v-3c-0.3,0-0.6,0.1-0.9,0.2c-0.3,0.1-0.5,0.3-0.6,0.5c-0.1,0.2-0.2,0.5-0.2,0.8c0,0.3,0.1,0.7,0.3,0.9
	l0.3,0.4l0.4,0.5c0.1,0.1,0.1,0.2,0.1,0.3c0,0.1,0,0.3-0.1,0.4c-0.1,0.1-0.2,0.2-0.4,0.1c-0.2,0-0.3-0.1-0.5-0.2
	c-0.2-0.1-0.4-0.3-0.5-0.5c-0.4-0.6-0.6-1.3-0.6-2c0-0.8,0.3-1.7,0.9-2.3c0.6-0.6,1.5-0.8,2.3-0.8c0.4,0,0.9,0.1,1.3,0.2
	c0.4,0.1,0.7,0.3,1,0.6c0.3,0.3,0.5,0.6,0.6,1c0.3,0.9,0.3,1.9-0.2,2.8c-0.2,0.4-0.6,0.7-1,0.9c-0.4,0.2-0.8,0.3-1.2,0.3
	c-0.3,0-0.6-0.1-0.8-0.3C270.5,161.8,270.4,161.5,270.5,161.2L270.5,161.2z M271.4,158.2v2.8c0.4,0,0.9-0.1,1.2-0.4
	c0.3-0.3,0.4-0.6,0.4-1c0-0.4-0.1-0.7-0.4-0.9C272.3,158.3,271.9,158.1,271.4,158.2L271.4,158.2z M269.6,165.2l-1.3-0.2
	c-0.3,0-0.5-0.1-0.7-0.3c-0.1-0.2-0.2-0.4-0.2-0.6c0-0.2,0.1-0.4,0.3-0.5c0.2-0.1,0.5-0.2,0.7-0.1l4.2,0.6c0.7,0.1,1,0.4,0.9,0.9
	c0,0.2-0.1,0.4-0.3,0.5c-0.2,0.1-0.5,0.1-0.7,0.1c0.2,0.2,0.5,0.4,0.6,0.6c0.1,0.2,0.2,0.5,0.1,0.8c0,0.3-0.2,0.6-0.4,0.9
	c-0.1,0.2-0.4,0.4-0.7,0.4c-0.3,0-0.6-0.3-0.6-0.7c0-0.1,0.1-0.3,0.1-0.4c0.1-0.2,0.1-0.4,0.2-0.5c0-0.2,0-0.4-0.1-0.6
	c-0.1-0.2-0.3-0.3-0.5-0.4C270.9,165.4,270.3,165.2,269.6,165.2L269.6,165.2z M266.9,171.8c-0.2-0.4-0.3-0.8-0.4-1.2
	c-0.1-0.4,0-0.8,0.1-1.2c0.1-0.3,0.2-0.7,0.5-0.9c0.2-0.2,0.5-0.4,0.8-0.5c0.3-0.1,0.6-0.1,0.9,0c0.4,0.1,0.7,0.3,0.9,0.6
	c0.2,0.4,0.3,0.8,0.3,1.2v0.7v1v0.9c0.3,0.1,0.6,0.1,0.9,0c0.3-0.2,0.4-0.5,0.5-0.8c0.1-0.3,0.1-0.6,0.1-0.9
	c-0.1-0.2-0.2-0.4-0.4-0.6c-0.1-0.1-0.2-0.3-0.3-0.4c-0.1-0.1-0.1-0.2,0-0.4c0-0.2,0.1-0.3,0.3-0.4c0.1-0.1,0.3-0.1,0.5-0.1
	c0.3,0.1,0.5,0.2,0.7,0.5c0.2,0.3,0.4,0.6,0.4,1c0.1,0.5,0,1-0.1,1.5c-0.1,0.5-0.3,1-0.6,1.5c-0.2,0.3-0.6,0.5-0.9,0.6
	c-0.5,0.1-0.9,0-1.4-0.1l-0.9-0.2l-0.8-0.2c-0.3-0.1-0.6-0.1-0.9-0.1c-0.2,0-0.4,0-0.6,0c-0.2,0-0.3-0.2-0.4-0.3
	c-0.1-0.2-0.1-0.4-0.1-0.5c0.1-0.2,0.2-0.3,0.3-0.4L266.9,171.8L266.9,171.8z M269.1,172.2v-1v-0.9c0-0.2,0-0.4-0.1-0.5
	c-0.1-0.2-0.3-0.3-0.5-0.3c-0.2-0.1-0.5,0-0.6,0.1c-0.2,0.1-0.4,0.4-0.4,0.6c-0.1,0.5,0,1.1,0.4,1.5c0.3,0.2,0.7,0.4,1.1,0.5
	L269.1,172.2L269.1,172.2z M271.1,176.1l-0.1,0.2l0.9,0.3l0.5,0.2c0.1,0,0.2,0.1,0.3,0.2c0.1,0.1,0.1,0.2,0.1,0.3c0,0.1,0,0.3,0,0.4
	c-0.1,0.2-0.2,0.3-0.4,0.4c-0.1,0.1-0.3,0.1-0.4,0.1l-0.6-0.2l-1-0.4l-0.2,0.5c-0.1,0.2-0.2,0.3-0.3,0.4c-0.1,0.1-0.3,0.1-0.4,0
	c-0.2,0-0.3-0.2-0.3-0.4c0-0.2,0-0.5,0.1-0.7l0.1-0.3l-2.6-1l-0.5-0.2c-0.1,0-0.2,0-0.3,0c-0.1,0.1-0.2,0.2-0.2,0.3l-0.1,0.4
	c0,0.1,0,0.2-0.1,0.4c0,0.1-0.1,0.2-0.3,0.3c-0.1,0.1-0.3,0.1-0.4,0c-0.2-0.1-0.4-0.3-0.4-0.6c0-0.4,0.1-0.8,0.2-1.1
	c0.1-0.4,0.3-0.7,0.6-0.9c0.2-0.2,0.5-0.3,0.8-0.2c0.4,0,0.7,0.1,1.1,0.3l2.8,1l0.1-0.2c0-0.2,0.2-0.3,0.3-0.4
	c0.1-0.1,0.3-0.1,0.4,0c0.1,0.1,0.3,0.2,0.3,0.3c0.1,0.1,0.1,0.3,0,0.5L271.1,176.1z M264.7,182.5l1.3-2.7c-0.3-0.1-0.6-0.2-0.9-0.2
	c-0.3,0-0.5,0.1-0.8,0.2c-0.2,0.1-0.4,0.3-0.5,0.6c-0.1,0.1-0.1,0.3-0.2,0.5c0,0.2,0,0.3,0,0.5l0.1,0.5l0.2,0.6c0,0.1,0,0.2-0.1,0.4
	c-0.1,0.1-0.2,0.2-0.3,0.3c-0.1,0.1-0.3,0.1-0.4,0c-0.1-0.1-0.3-0.2-0.4-0.4c-0.1-0.2-0.2-0.4-0.3-0.7c-0.1-0.3-0.1-0.6,0-0.9
	c0.1-0.4,0.2-0.8,0.4-1.1c0.6-1.5,2.2-2.2,3.7-1.6c0.2,0.1,0.3,0.1,0.5,0.2c0.4,0.2,0.7,0.4,1,0.7c0.6,0.5,0.8,1.3,0.8,2.1
	c0,0.4-0.2,0.8-0.4,1.2c-0.2,0.5-0.6,0.9-1,1.2c-0.4,0.3-0.9,0.5-1.4,0.5c-0.4,0-0.8-0.1-1.2-0.3c-0.4-0.2-0.5-0.4-0.5-0.6
	C264.3,183.2,264.4,182.9,264.7,182.5L264.7,182.5z M266.8,180.2l-1.2,2.5c0.4,0.2,0.8,0.2,1.2,0.1c0.7-0.2,1.1-1,0.8-1.7
	C267.4,180.8,267.1,180.5,266.8,180.2z M157.3,162.3l2.9-4.5l-4.2,3.9c-0.2,0.2-0.4,0.3-0.7,0.3c-0.2,0-0.4-0.1-0.6-0.3
	c-0.1-0.1-0.2-0.4-0.2-0.6c0.1-0.3,0.2-0.5,0.4-0.7l4.8-4.4c0.2-0.2,0.5-0.3,0.7-0.3c0.3,0.1,0.5,0.2,0.6,0.4l0.4,0.4
	c0.2,0.2,0.3,0.3,0.4,0.5c0.1,0.1,0.1,0.3,0,0.4l-0.4,0.6l-2.5,4l4.1-2.2c0.2-0.1,0.4-0.2,0.7-0.3c0.1-0.1,0.3-0.1,0.4,0
	c0.2,0.1,0.4,0.3,0.5,0.4l0.4,0.4c0.2,0.2,0.3,0.4,0.4,0.7c0,0.3-0.1,0.5-0.3,0.7l-4.7,4.4c-0.2,0.2-0.4,0.3-0.7,0.3
	c-0.4,0-0.8-0.3-0.8-0.8c0,0,0,0,0,0c0-0.3,0.2-0.5,0.4-0.6l4.1-3.9l-4.7,2.6l-0.7,0.4c-0.2,0.1-0.3,0.1-0.5,0.1
	c-0.2,0-0.4-0.1-0.6-0.3c-0.1-0.1-0.2-0.3-0.3-0.4c0-0.2,0-0.3,0-0.5c0-0.1,0.1-0.3,0.2-0.4L157.3,162.3L157.3,162.3z M167,170.1
	c-0.3,0.3-0.7,0.5-1.1,0.7c-0.7,0.3-1.5,0.3-2.3,0c-0.4-0.2-0.7-0.4-1-0.8c-0.3-0.3-0.5-0.7-0.7-1.1c-0.1-0.4-0.2-0.8-0.2-1.1
	c0-0.4,0.1-0.8,0.3-1.1c0.4-0.8,1-1.4,1.8-1.7c0.7-0.3,1.5-0.3,2.3,0c0.8,0.4,1.4,1,1.7,1.8c0.1,0.4,0.2,0.8,0.2,1.1
	c0,0.4-0.1,0.8-0.3,1.1C167.6,169.4,167.4,169.8,167,170.1L167,170.1z M166,169c0.4-0.3,0.7-0.8,0.8-1.3c0.1-0.8-0.4-1.5-1.2-1.6
	c-0.3,0-0.5,0-0.7,0.1c-0.3,0.1-0.6,0.3-0.9,0.6c-0.3,0.2-0.5,0.5-0.6,0.9c-0.1,0.3-0.2,0.6-0.1,0.9c0,0.3,0.2,0.5,0.4,0.8
	c0.3,0.3,0.7,0.5,1.1,0.4C165.2,169.6,165.7,169.3,166,169L166,169z M170.5,170.4l-0.1,0.1c0.8-0.1,1.6,0.1,2.1,0.7
	c0.3,0.3,0.4,0.6,0.5,1c0.1,0.3,0.1,0.7-0.1,1c-0.1,0.2-0.2,0.4-0.3,0.6l-0.6,0.6l-2.1,1.9c-0.2,0.2-0.4,0.3-0.6,0.3
	c-0.2,0-0.4-0.1-0.5-0.2c-0.1-0.1-0.2-0.4-0.2-0.6c0-0.2,0.2-0.5,0.4-0.6l1.9-1.8c0.3-0.3,0.5-0.6,0.7-0.9c0.1-0.3,0-0.7-0.3-0.9
	c-0.2-0.2-0.4-0.3-0.7-0.4c-0.3,0-0.6,0-0.8,0.1c-0.4,0.2-0.7,0.5-1,0.8l-1.4,1.3c-0.2,0.2-0.4,0.3-0.6,0.3c-0.2,0-0.4-0.1-0.5-0.3
	c-0.1-0.2-0.2-0.4-0.2-0.6c0-0.2,0.2-0.5,0.4-0.6l3.2-3c0.2-0.2,0.4-0.3,0.6-0.3c0.2,0,0.4,0.1,0.5,0.2c0.1,0.1,0.1,0.2,0.2,0.3
	c0,0.1,0,0.3,0,0.4C170.7,170.2,170.6,170.3,170.5,170.4L170.5,170.4z M175.3,175.6l-3.2,3c-0.2,0.2-0.4,0.3-0.6,0.3
	c-0.2,0-0.4-0.1-0.5-0.3c-0.1-0.1-0.2-0.4-0.2-0.6c0-0.2,0.2-0.5,0.4-0.6l3.2-3c0.2-0.2,0.4-0.3,0.6-0.3c0.2,0,0.4,0.1,0.5,0.3
	c0.1,0.1,0.2,0.4,0.2,0.6C175.6,175.2,175.5,175.4,175.3,175.6L175.3,175.6z M176,173.9c-0.3-0.3-0.3-0.7,0-1c0,0,0,0,0,0
	c0.1-0.1,0.3-0.2,0.5-0.2c0.2,0,0.4,0.1,0.5,0.3c0.1,0.1,0.2,0.3,0.2,0.5c0,0.2-0.1,0.4-0.3,0.5c-0.1,0.2-0.4,0.2-0.6,0.2
	C176.2,174.2,176.1,174.1,176,173.9L176,173.9z M177,176.3l0.1,0.1l0.7-0.6l0.4-0.4c0.1-0.1,0.2-0.1,0.3-0.2c0.1,0,0.2,0,0.4,0
	c0.1,0,0.2,0.1,0.3,0.2c0.1,0.1,0.2,0.3,0.2,0.5c0,0.1,0,0.3-0.1,0.4c-0.1,0.2-0.2,0.3-0.4,0.4l-0.8,0.7l0.4,0.4
	c0.1,0.1,0.2,0.3,0.2,0.5c0,0.2-0.1,0.3-0.2,0.4c-0.1,0.1-0.3,0.2-0.5,0.1c-0.2-0.1-0.4-0.2-0.6-0.4l-0.2-0.2l-2,1.9l-0.4,0.4
	c-0.1,0.1-0.1,0.2-0.1,0.3c0,0.1,0.1,0.2,0.1,0.3c0.1,0.1,0.2,0.2,0.3,0.2l0.3,0.2c0.1,0.1,0.1,0.2,0.1,0.4c0,0.1-0.1,0.3-0.2,0.4
	c-0.2,0.2-0.5,0.2-0.7,0.1c-0.4-0.2-0.7-0.4-0.9-0.7c-0.3-0.3-0.5-0.6-0.6-1c0-0.3,0-0.6,0.1-0.8c0.2-0.3,0.5-0.6,0.8-0.9l2.1-2
	l-0.1-0.1c-0.1-0.1-0.2-0.3-0.2-0.5c0-0.2,0.1-0.3,0.2-0.4c0.1-0.1,0.3-0.2,0.4-0.1C176.8,176,176.9,176.1,177,176.3L177,176.3z
	 M181.4,185.4c-0.3,0.3-0.7,0.5-1.1,0.7c-0.7,0.3-1.5,0.3-2.3,0c-0.4-0.2-0.7-0.4-1-0.8c-0.3-0.3-0.5-0.7-0.7-1.1
	c-0.1-0.4-0.2-0.8-0.2-1.1c0-0.4,0.1-0.8,0.3-1.1c0.4-0.8,1-1.4,1.8-1.7c0.7-0.3,1.5-0.3,2.3,0c0.8,0.4,1.4,1,1.7,1.8
	c0.1,0.4,0.2,0.8,0.2,1.1C182.5,184,182.1,184.8,181.4,185.4L181.4,185.4z M180.4,184.3c0.4-0.3,0.7-0.8,0.8-1.3
	c0.1-0.8-0.4-1.5-1.2-1.6c-0.2,0-0.5,0-0.7,0.1c-0.3,0.1-0.6,0.3-0.9,0.6c-0.3,0.2-0.5,0.5-0.6,0.9c-0.3,0.5-0.2,1.2,0.2,1.6
	c0.3,0.3,0.7,0.5,1.1,0.4C179.6,184.9,180.1,184.6,180.4,184.3L180.4,184.3z M182.7,188l-0.9,0.9c-0.2,0.2-0.4,0.3-0.7,0.3
	c-0.2,0-0.4-0.1-0.5-0.3c-0.1-0.2-0.2-0.4-0.2-0.6c0-0.2,0.2-0.5,0.4-0.6l3.1-2.9c0.5-0.5,0.9-0.5,1.3-0.2c0.2,0.1,0.2,0.4,0.2,0.6
	c-0.1,0.2-0.2,0.5-0.4,0.6c0.3-0.1,0.6-0.1,0.9-0.1c0.3,0,0.5,0.2,0.7,0.4c0.2,0.2,0.4,0.5,0.5,0.9c0.1,0.3,0,0.6-0.1,0.8
	c-0.3,0.2-0.6,0.2-0.9,0l-0.2-0.4c-0.1-0.2-0.2-0.3-0.3-0.5c-0.1-0.2-0.3-0.3-0.5-0.3c-0.2,0-0.4,0-0.6,0.1
	c-0.3,0.1-0.5,0.3-0.7,0.4L182.7,188L182.7,188z M113.4,186.2l-1.7,1.8c-0.2,0.2-0.4,0.4-0.7,0.4c-0.3,0-0.5-0.2-0.7-0.4l-4.5-4.2
	c-0.2-0.2-0.4-0.4-0.4-0.7c0-0.3,0.1-0.5,0.4-0.7l1.8-2c0.2-0.3,0.5-0.5,0.8-0.7c0.2-0.2,0.5-0.3,0.7-0.4c0.7-0.2,1.4,0,1.9,0.4
	c0.6,0.5,0.8,1.4,0.5,2.1c0.8-0.6,1.9-0.5,2.6,0.2c0.6,0.6,0.9,1.5,0.6,2.4c-0.1,0.3-0.2,0.5-0.4,0.8
	C113.9,185.6,113.6,185.9,113.4,186.2L113.4,186.2z M107,182.9l1.6,1.4l1-1.1c0.2-0.2,0.4-0.5,0.6-0.8c0.1-0.2,0.1-0.5,0-0.7
	c0-0.2-0.1-0.3-0.3-0.5c-0.2-0.3-0.6-0.4-0.9-0.2c-0.4,0.2-0.8,0.5-1.1,0.9L107,182.9L107,182.9z M110.6,183.9l-1.2,1.3l1.8,1.6
	l1.2-1.3c0.8-0.8,0.9-1.5,0.3-2.1c-0.3-0.3-0.6-0.4-1-0.3C111.2,183.2,110.9,183.5,110.6,183.9L110.6,183.9z M118.6,179.4l-0.1-0.1
	c0,0.3,0,0.5,0,0.8c0,0.5-0.3,1-0.7,1.4c-0.2,0.3-0.5,0.4-0.8,0.6c-0.3,0.1-0.6,0.1-0.9,0.1c-0.5-0.1-0.9-0.4-1.2-0.8l-2.2-2.1
	c-0.2-0.1-0.3-0.4-0.4-0.6c0-0.2,0.1-0.4,0.2-0.6c0.1-0.2,0.3-0.2,0.5-0.3c0.2,0,0.5,0.1,0.6,0.3l1.8,1.7c0.2,0.2,0.5,0.4,0.7,0.5
	c0.2,0.1,0.4,0.2,0.6,0.1c0.2,0,0.4-0.1,0.6-0.3c0.4-0.4,0.5-1,0.2-1.5c-0.3-0.4-0.6-0.8-1-1.1l-1.3-1.3c-0.2-0.2-0.3-0.4-0.4-0.6
	c0-0.2,0.1-0.4,0.2-0.6c0.1-0.2,0.3-0.3,0.5-0.3c0.2,0,0.5,0.1,0.6,0.3l3.3,3c0.2,0.1,0.3,0.4,0.4,0.6c0,0.2,0,0.4-0.2,0.5
	c-0.1,0.1-0.3,0.2-0.5,0.2C119,179.7,118.8,179.6,118.6,179.4L118.6,179.4z M116.7,172.6c-0.1,0.2-0.3,0.2-0.5,0.3
	c-0.4,0-0.8-0.3-0.8-0.7c0,0,0,0,0,0c0-0.2,0.1-0.4,0.2-0.5c0.3-0.3,0.8-0.3,1.1-0.1C117,171.8,117,172.2,116.7,172.6L116.7,172.6
	L116.7,172.6z M118.4,173.1l3.2,3c0.2,0.1,0.3,0.4,0.4,0.6c0,0.2-0.1,0.4-0.2,0.6c-0.1,0.2-0.3,0.2-0.5,0.2c-0.2,0-0.5-0.1-0.6-0.3
	l-3.2-3c-0.2-0.2-0.3-0.4-0.4-0.6c0-0.2,0.1-0.4,0.2-0.6c0.1-0.2,0.3-0.3,0.5-0.3C118,172.8,118.2,172.9,118.4,173.1L118.4,173.1z
	 M122.7,174.9l-4.9-4.5c-0.2-0.2-0.3-0.4-0.4-0.6c0-0.2,0.1-0.4,0.2-0.6c0.1-0.2,0.3-0.2,0.5-0.3c0.2,0,0.5,0.1,0.6,0.3l4.9,4.5
	c0.2,0.2,0.3,0.4,0.4,0.6c0,0.2-0.1,0.4-0.2,0.6c-0.1,0.2-0.3,0.2-0.5,0.2C123.1,175.2,122.9,175.1,122.7,174.9L122.7,174.9z
	 M127.7,169.6l-0.1-0.1c0,0.3,0,0.6,0,0.8c0,0.2-0.1,0.5-0.2,0.7c-0.1,0.2-0.3,0.5-0.4,0.6c-0.5,0.5-1.2,0.8-1.9,0.7
	c-0.4,0-0.8-0.1-1.1-0.3c-0.4-0.2-0.7-0.4-1-0.7c-0.6-0.5-1-1.2-1.2-2c-0.1-0.7,0.2-1.4,0.7-1.9c0.5-0.6,1.2-0.9,2-0.8l-1.6-1.5
	c-0.2-0.2-0.3-0.4-0.4-0.6c0-0.2,0-0.4,0.2-0.6c0.1-0.2,0.3-0.2,0.5-0.3c0.2,0,0.4,0.1,0.6,0.3l4.9,4.6c0.2,0.1,0.3,0.4,0.3,0.6
	c0,0.2-0.1,0.4-0.2,0.5c-0.1,0.1-0.3,0.2-0.5,0.2C128.1,169.9,127.9,169.8,127.7,169.6L127.7,169.6z M124,170.3
	c0.3,0.3,0.6,0.5,0.9,0.6c0.3,0.1,0.6,0.1,0.8,0.1c0.3-0.1,0.5-0.2,0.7-0.4c0.4-0.4,0.5-1,0.3-1.5c-0.2-0.3-0.4-0.6-0.7-0.9
	c-0.3-0.2-0.6-0.4-0.9-0.6c-0.3-0.1-0.6-0.1-0.9-0.1c-0.3,0.1-0.5,0.2-0.7,0.4c-0.2,0.2-0.3,0.4-0.3,0.7c0,0.3,0,0.6,0.1,0.8
	C123.5,169.8,123.7,170.1,124,170.3L124,170.3z M21.7,173.5l1.1,1.5l4.8-3.5c0.2-0.2,0.5-0.3,0.8-0.3c0.2,0,0.4,0.1,0.5,0.3
	c0.1,0.2,0.2,0.4,0.2,0.6c-0.1,0.3-0.2,0.5-0.5,0.6l-4.8,3.5l1.1,1.5c0.2,0.2,0.2,0.4,0.2,0.6c0,0.2-0.1,0.4-0.3,0.5
	c-0.2,0.1-0.3,0.2-0.5,0.1c-0.2-0.1-0.4-0.2-0.5-0.4l-3.1-4.3c-0.1-0.2-0.2-0.4-0.2-0.6c0-0.2,0.1-0.4,0.3-0.5
	c0.1-0.1,0.3-0.2,0.5-0.1C21.4,173.2,21.6,173.3,21.7,173.5z M22.8,166.1l1.2,2.7c0.3-0.1,0.5-0.3,0.8-0.6c0.2-0.2,0.3-0.5,0.3-0.8
	c0-0.6-0.2-1.2-0.8-1.5l-0.4-0.2l-0.6-0.3c-0.2-0.1-0.3-0.4-0.3-0.7c0-0.1,0.1-0.2,0.3-0.3c0.2-0.1,0.3-0.1,0.5,0
	c0.2,0,0.5,0.1,0.7,0.2c0.3,0.1,0.5,0.3,0.7,0.6c0.3,0.3,0.5,0.6,0.6,1c0.4,0.8,0.5,1.6,0.2,2.4c-0.4,0.7-1,1.3-1.8,1.6
	c-0.4,0.2-0.8,0.3-1.2,0.3c-0.8,0.1-1.6-0.2-2.1-0.7c-0.3-0.3-0.5-0.6-0.7-1c-0.2-0.5-0.3-1-0.3-1.6c0-0.5,0.2-0.9,0.5-1.3
	c0.3-0.3,0.6-0.6,1-0.8c0.4-0.2,0.6-0.2,0.8,0C22.5,165.6,22.7,165.9,22.8,166.1z M23.2,169.2l-1.2-2.5c-0.4,0.2-0.7,0.5-0.9,0.9
	c-0.1,0.3-0.1,0.7,0,1c0.1,0.3,0.4,0.6,0.8,0.7C22.4,169.4,22.8,169.4,23.2,169.2L23.2,169.2z M21.8,158.6c0.4-0.1,0.8,0,1.1,0.1
	c0.3,0.2,0.6,0.4,0.8,0.8c0.5,0.9,0.6,1.9,0.5,2.8c-0.1,0.4-0.2,0.7-0.5,1c-0.2,0.2-0.4,0.4-0.7,0.4c-0.2,0-0.3,0-0.5-0.1
	c-0.1-0.1-0.2-0.2-0.3-0.4c0-0.1,0-0.3,0.1-0.4l0.3-0.3c0.2-0.2,0.4-0.4,0.5-0.7c0.1-0.3,0.1-0.6,0-0.9c0-0.3-0.2-0.5-0.3-0.7
	c-0.2-0.2-0.6-0.2-0.9,0c-0.1,0.1-0.1,0.1-0.1,0.2c-0.1,0.3-0.2,0.7-0.2,1c0,0.4-0.1,0.9-0.2,1.3c-0.1,0.3-0.2,0.6-0.4,0.9
	c-0.2,0.2-0.5,0.4-0.8,0.4c-0.3,0.1-0.6,0-0.9-0.1c-0.3-0.1-0.6-0.4-0.8-0.7c-0.2-0.4-0.4-0.8-0.5-1.2c-0.1-0.4-0.1-0.7-0.1-1.1
	c0-0.3,0.1-0.6,0.2-0.8c0.1-0.2,0.2-0.4,0.4-0.6c0.1-0.1,0.3-0.2,0.5-0.3c0.2,0,0.3,0,0.5,0.1c0.1,0.1,0.2,0.3,0.3,0.5
	c0,0.1,0,0.3-0.1,0.4c-0.1,0.2-0.2,0.3-0.3,0.4c-0.1,0.1-0.2,0.3-0.3,0.5c-0.1,0.2-0.1,0.4,0,0.6c0,0.2,0.1,0.5,0.3,0.6
	c0.1,0.2,0.3,0.2,0.5,0.2c0.2,0,0.3-0.1,0.3-0.3c0.1-0.2,0.1-0.4,0.2-0.6l0.1-1c0-0.4,0.1-0.8,0.2-1.2c0.1-0.3,0.2-0.6,0.4-0.8
	C21.4,158.7,21.6,158.6,21.8,158.6L21.8,158.6z M17.8,157.1v-0.2h-0.9h-0.6c-0.1,0-0.2-0.1-0.3-0.1c-0.1-0.1-0.2-0.2-0.3-0.3
	c-0.2-0.3-0.1-0.7,0.2-0.9c0.1-0.1,0.2-0.2,0.3-0.2h0.6h1v-0.6c0-0.2,0-0.3,0.2-0.5c0.1-0.1,0.3-0.2,0.4-0.1c0.2,0,0.3,0.1,0.4,0.3
	c0.1,0.2,0.1,0.5,0.1,0.7v0.3l2.8,0.1h0.5c0.1,0,0.2,0,0.3-0.1c0.1-0.1,0.1-0.2,0.1-0.4c0-0.1,0-0.3,0-0.4v-0.4
	c0-0.1,0.1-0.2,0.2-0.3c0.1-0.1,0.2-0.1,0.4-0.1c0.3,0,0.5,0.2,0.6,0.4c0.1,0.3,0.1,0.7,0.1,1.1c0,0.4-0.1,0.8-0.3,1.1
	c-0.2,0.2-0.4,0.4-0.7,0.5c-0.4,0.1-0.8,0.1-1.1,0.1l-2.9-0.1v0.2c0,0.2,0,0.4-0.2,0.5c-0.1,0.1-0.2,0.2-0.4,0.2
	c-0.2,0-0.3-0.1-0.4-0.2L17.8,157.1L17.8,157.1z M119.6,112.2l0.4,0.4l1.8-1.9c0.2-0.2,0.4-0.4,0.7-0.4c0.2,0,0.4,0.1,0.6,0.2
	c0.2,0.2,0.3,0.4,0.3,0.6c0,0.3-0.1,0.5-0.4,0.7l-4.3,4.7c-0.2,0.2-0.4,0.4-0.7,0.4c-0.3,0-0.5-0.1-0.7-0.4l-2-1.8
	c-0.2-0.2-0.5-0.4-0.7-0.7c-0.2-0.2-0.3-0.4-0.4-0.6c-0.1-0.3-0.2-0.5-0.2-0.8c0-0.6,0.2-1.1,0.6-1.5c0.3-0.4,0.8-0.7,1.4-0.7
	c0.6,0,1.2,0.2,1.7,0.5c-0.1-0.3-0.2-0.7-0.2-1.1c0-0.4,0-0.8,0.1-1.2c0.1-0.3,0.2-0.7,0.3-1c0.1-0.2,0.1-0.4,0.3-0.5
	c0.1-0.1,0.2-0.1,0.3-0.2c0.1,0,0.2,0,0.4,0c0.1,0,0.3,0.1,0.4,0.2c0.1,0.1,0.2,0.3,0.3,0.4c0,0.2,0,0.3,0,0.5l-0.1,0.7l-0.3,1.3
	c-0.1,0.4-0.1,0.7-0.1,1.1c0,0.2,0,0.5,0.1,0.7C119.2,111.9,119.4,112.1,119.6,112.2L119.6,112.2z M116.6,114.1l1.1,1l1.5-1.7
	l-1.1-1c-0.2-0.2-0.5-0.4-0.8-0.6c-0.2-0.1-0.5-0.2-0.7-0.2c-0.2,0-0.5,0.2-0.6,0.4c-0.1,0.2-0.2,0.3-0.3,0.6c0,0.2,0,0.4,0.1,0.6
	C116.1,113.4,116.3,113.7,116.6,114.1L116.6,114.1z M113.2,104.4l2,2.2c0.2-0.2,0.4-0.5,0.5-0.8c0.2-0.5,0.1-1.1-0.3-1.5
	c-0.1-0.1-0.3-0.2-0.4-0.3c-0.3-0.2-0.6-0.3-0.9-0.3l-0.6-0.1c-0.1,0-0.2-0.1-0.3-0.2c-0.1-0.1-0.2-0.2-0.2-0.4
	c0-0.1,0.1-0.3,0.2-0.4c0.1-0.1,0.3-0.2,0.5-0.2c0.2,0,0.5,0,0.7,0c0.3,0.1,0.6,0.2,0.9,0.3c0.3,0.2,0.6,0.4,0.9,0.7
	c0.6,0.6,0.9,1.4,0.9,2.3c-0.1,0.8-0.5,1.6-1.1,2.2c-0.3,0.3-0.7,0.5-1.1,0.7c-0.3,0.2-0.7,0.2-1.1,0.2c-0.4,0-0.8-0.1-1.1-0.3
	c-0.9-0.4-1.5-1.2-1.8-2.2c-0.2-0.9,0.1-1.8,0.8-2.4c0.3-0.3,0.5-0.4,0.8-0.3C112.8,104,113,104.2,113.2,104.4L113.2,104.4z
	 M114.6,107.2l-1.9-2c-0.3,0.3-0.5,0.7-0.6,1.1c0,0.4,0.1,0.7,0.4,1c0.2,0.3,0.6,0.4,0.9,0.4C113.9,107.7,114.3,107.6,114.6,107.2
	L114.6,107.2z M109.1,98.1c0.6-0.5,1.5-0.6,2.1-0.1c0.4,0.3,0.8,0.6,1.1,1c0.3,0.4,0.5,0.8,0.6,1.3c0.1,0.3,0.1,0.7,0,1.1
	c-0.1,0.3-0.2,0.5-0.4,0.7c-0.1,0.1-0.3,0.1-0.5,0.1c-0.2,0-0.3-0.1-0.4-0.3c-0.1-0.1-0.1-0.2-0.1-0.4c0-0.1,0.1-0.3,0.1-0.4
	c0.1-0.3,0.2-0.5,0.1-0.8c0-0.3-0.2-0.6-0.4-0.8c-0.2-0.2-0.4-0.4-0.6-0.5c-0.2-0.1-0.4-0.1-0.5,0c-0.2,0.1-0.3,0.4-0.3,0.6
	c0.1,0.3,0.2,0.7,0.3,1c0.2,0.4,0.3,0.8,0.5,1.3c0.1,0.3,0.1,0.7,0,1c-0.1,0.3-0.2,0.6-0.5,0.8c-0.2,0.2-0.5,0.3-0.9,0.3
	c-0.4,0-0.7-0.1-1-0.3c-0.7-0.4-1.2-1.1-1.5-1.8c-0.1-0.3-0.2-0.5-0.2-0.8c0-0.2,0-0.5,0.1-0.7c0.1-0.2,0.2-0.3,0.3-0.4
	c0.1-0.1,0.3-0.1,0.5-0.1c0.2,0,0.3,0.1,0.4,0.3c0.1,0.1,0.2,0.3,0.1,0.4c0,0.2,0,0.4-0.1,0.5c0,0.2,0,0.4,0,0.5
	c0,0.2,0.1,0.4,0.3,0.6c0.1,0.2,0.3,0.4,0.6,0.4c0.2,0.1,0.4,0.1,0.5,0c0.1-0.1,0.2-0.2,0.2-0.4c0-0.2,0-0.4-0.1-0.6l-0.4-0.9
	c-0.2-0.4-0.3-0.8-0.4-1.2c-0.1-0.3-0.1-0.6,0-0.9C108.7,98.5,108.9,98.2,109.1,98.1L109.1,98.1z M105.5,93.8l1.6,2.6
	c0.3-0.2,0.5-0.4,0.7-0.6c0.1-0.2,0.2-0.5,0.2-0.8c0-0.3-0.1-0.5-0.2-0.8l-0.3-0.4l-0.4-0.3c-0.1-0.1-0.3-0.1-0.5-0.2l-0.6-0.2
	c-0.1,0-0.2-0.1-0.3-0.2c-0.1-0.1-0.1-0.3-0.1-0.4c0-0.1,0.1-0.2,0.2-0.3c0.2-0.1,0.3-0.1,0.5-0.1c0.2,0,0.5,0.1,0.7,0.1
	c0.7,0.3,1.2,0.8,1.5,1.4c0.9,1.3,0.7,3-0.6,4c-0.1,0.1-0.3,0.2-0.4,0.3c-0.4,0.2-0.8,0.4-1.2,0.5c-0.4,0.1-0.8,0.1-1.1,0
	c-0.4-0.1-0.7-0.2-1-0.5c-0.3-0.3-0.6-0.6-0.8-1c-0.3-0.4-0.5-1-0.5-1.5c0-0.9,0.4-1.8,1.2-2.3c0.2-0.2,0.5-0.2,0.8-0.1
	C105.2,93.2,105.5,93.4,105.5,93.8L105.5,93.8z M106.3,96.8l-1.4-2.4c-0.4,0.2-0.6,0.6-0.8,1c-0.1,0.3,0,0.7,0.2,1
	c0.2,0.3,0.5,0.5,0.8,0.6C105.5,97.1,106,97,106.3,96.8L106.3,96.8z M104.4,87.2c0.4,0.2,0.7,0.4,1,0.7c0.3,0.3,0.5,0.6,0.7,1
	c0.2,0.3,0.2,0.7,0.2,1c0,0.3-0.1,0.6-0.3,0.9c-0.2,0.2-0.4,0.4-0.7,0.6c-0.4,0.2-0.8,0.2-1.1,0.1c-0.4-0.1-0.8-0.4-1-0.8l-0.4-0.6
	l-0.6-0.8c-0.2-0.3-0.4-0.5-0.6-0.7c-0.3,0.1-0.5,0.3-0.7,0.6c-0.1,0.3-0.1,0.6,0.1,0.9c0.1,0.3,0.3,0.5,0.5,0.7
	c0.2,0.1,0.4,0.2,0.6,0.3l0.5,0.1c0.1,0,0.2,0.1,0.3,0.3c0.1,0.2,0.1,0.3,0,0.5c0,0.2-0.2,0.3-0.3,0.3c-0.3,0.1-0.6,0.1-0.8,0.1
	c-0.4-0.1-0.7-0.3-0.9-0.6c-0.3-0.4-0.6-0.8-0.8-1.3c-0.2-0.5-0.4-1-0.4-1.5c0-0.4,0.1-0.7,0.4-1c0.3-0.3,0.7-0.6,1.1-0.8l0.8-0.4
	l0.8-0.3c0.3-0.1,0.5-0.3,0.8-0.5l0.5-0.4c0.2-0.1,0.3-0.1,0.5,0c0.2,0.1,0.3,0.2,0.4,0.4c0.1,0.2,0.1,0.4,0,0.5
	C104.6,86.8,104.5,87,104.4,87.2L104.4,87.2z M102.4,88.2c0.2,0.2,0.4,0.5,0.6,0.8c0.2,0.3,0.4,0.5,0.5,0.7c0.1,0.1,0.3,0.3,0.4,0.3
	c0.2,0.1,0.4,0.1,0.6,0c0.2-0.1,0.4-0.3,0.4-0.5c0.1-0.2,0.1-0.5-0.1-0.7c-0.1-0.3-0.3-0.5-0.5-0.7c-0.2-0.2-0.4-0.3-0.7-0.3
	c-0.4,0-0.8,0.1-1.1,0.3L102.4,88.2L102.4,88.2z M101.7,83.5l1.2-0.4c0.2-0.1,0.5-0.1,0.7,0c0.2,0.1,0.3,0.3,0.4,0.5
	c0.1,0.2,0,0.4-0.1,0.6c-0.1,0.2-0.4,0.3-0.6,0.4l-4.1,1.2c-0.7,0.2-1.1,0-1.2-0.4c-0.1-0.2,0-0.4,0.1-0.6c0.2-0.2,0.4-0.3,0.6-0.4
	c-0.3-0.1-0.6-0.2-0.8-0.3c-0.2-0.2-0.4-0.4-0.4-0.7c-0.1-0.3-0.1-0.7,0-1c0-0.3,0.2-0.5,0.5-0.6c0.2-0.1,0.4,0,0.5,0.1
	c0.1,0.1,0.2,0.2,0.3,0.4v0.4c0,0.2,0,0.4,0.1,0.6c0,0.2,0.2,0.4,0.3,0.5c0.2,0.1,0.4,0.2,0.6,0.2c0.3,0,0.6,0,0.8-0.1L101.7,83.5
	L101.7,83.5z M100.4,75c0.2,0,0.4,0,0.6,0.1c0.3,0.1,0.5,0.2,0.7,0.4c0.2,0.2,0.4,0.5,0.6,0.8c0.2,0.4,0.3,0.8,0.3,1.2
	c0.2,0.8,0,1.6-0.5,2.3c-0.5,0.6-1.3,1-2.1,1.1c-0.6,0.1-1.1,0-1.7-0.1c-0.5-0.2-0.9-0.5-1.3-0.9c-0.3-0.5-0.6-1-0.6-1.6
	c-0.1-0.4-0.1-0.7,0-1.1c0.1-0.3,0.2-0.6,0.3-0.9c0.1-0.2,0.3-0.4,0.5-0.6c0.2-0.1,0.3-0.2,0.5-0.3c0.2,0,0.4,0,0.5,0.1
	c0.1,0.1,0.2,0.3,0.3,0.5c0,0.1,0,0.2-0.1,0.3l-0.3,0.3c-0.2,0.2-0.4,0.4-0.5,0.7c-0.1,0.2-0.1,0.5-0.1,0.8c0,0.4,0.3,0.8,0.7,1
	c0.5,0.2,1,0.3,1.5,0.2c0.3,0,0.5-0.1,0.8-0.2c0.2-0.1,0.4-0.2,0.6-0.4c0.3-0.3,0.4-0.8,0.4-1.2c0-0.3-0.1-0.5-0.3-0.8
	c-0.2-0.2-0.5-0.4-0.7-0.5c-0.2,0-0.3-0.1-0.4-0.3c-0.1-0.1-0.2-0.2-0.2-0.4c0-0.2,0-0.4,0.1-0.5C100,75.1,100.2,75,100.4,75
	L100.4,75z M94.7,72.2l2.3,0.1c-0.2-0.2-0.4-0.4-0.5-0.6c-0.3-0.4-0.4-0.9-0.3-1.4c0-0.4,0.1-0.7,0.3-1c0.2-0.3,0.4-0.5,0.8-0.7
	c0.2-0.1,0.4-0.2,0.6-0.2c0.3,0,0.5,0,0.8,0l2.9,0.1c0.3,0,0.5,0.1,0.7,0.3c0.2,0.1,0.2,0.4,0.2,0.6c0,0.5-0.4,0.8-1,0.7L98.9,70
	c-0.4,0-0.8,0-1.1,0.2c-0.3,0.2-0.5,0.5-0.4,0.8c0,0.3,0.1,0.5,0.2,0.8c0.1,0.2,0.4,0.4,0.6,0.5c0.4,0.1,0.8,0.2,1.2,0.2l2,0.1
	c0.2,0,0.5,0.1,0.7,0.2c0.2,0.2,0.2,0.4,0.2,0.6c0,0.5-0.4,0.8-1,0.7l-6.6-0.3c-0.3,0-0.5-0.1-0.7-0.2c-0.1-0.2-0.2-0.4-0.2-0.6
	c0-0.2,0.2-0.4,0.4-0.5C94.2,72.3,94.5,72.2,94.7,72.2L94.7,72.2z M115.3,27.8l1.5,1.8l2.8-2.2l-1.5-1.8c-0.2-0.2-0.3-0.5-0.3-0.7
	c0-0.2,0.1-0.4,0.3-0.6c0.2-0.1,0.4-0.2,0.6-0.2c0.3,0.1,0.5,0.2,0.6,0.5l4,5.1c0.2,0.2,0.3,0.5,0.3,0.8c0,0.2-0.1,0.4-0.3,0.6
	c-0.2,0.1-0.4,0.2-0.6,0.2c-0.3-0.1-0.5-0.2-0.6-0.5l-1.7-2.2l-2.8,2.2l1.7,2.2c0.2,0.2,0.3,0.5,0.3,0.8c0,0.2-0.1,0.4-0.3,0.6
	c-0.2,0.1-0.4,0.2-0.6,0.2c-0.3-0.1-0.5-0.2-0.6-0.5l-4-5.1c-0.2-0.2-0.3-0.5-0.3-0.7c0-0.2,0.1-0.4,0.3-0.6
	c0.2-0.1,0.4-0.2,0.6-0.2C115,27.4,115.2,27.6,115.3,27.8L115.3,27.8z M126.5,29.3v-0.4l-3.9-3.3c-0.2-0.1-0.3-0.3-0.4-0.4
	c-0.1-0.1-0.1-0.2-0.1-0.4c0-0.1,0-0.3,0.1-0.4c0.1-0.1,0.2-0.2,0.3-0.3c0.2-0.1,0.4-0.1,0.5,0c0.2,0.1,0.4,0.2,0.5,0.4l2.9,2.7
	l-0.6-3.7l-0.1-0.7c0-0.1,0-0.3,0.1-0.4c0.1-0.1,0.2-0.2,0.3-0.3c0.1-0.1,0.2-0.1,0.3-0.1c0.1,0,0.2,0,0.3,0.1
	c0.1,0.1,0.2,0.1,0.2,0.3l0.1,0.3l0.1,0.4l0.7,5.5c0.1,0.4,0.1,0.8,0.1,1.2c0,0.3-0.1,0.6-0.3,0.8c-0.2,0.3-0.5,0.5-0.9,0.7
	c-0.3,0.2-0.6,0.3-1,0.4c-0.2,0-0.4-0.1-0.5-0.3c-0.1-0.1-0.1-0.3,0-0.4c0.1-0.2,0.2-0.3,0.4-0.4l0.2-0.1l0.2-0.1
	c0.1-0.1,0.2-0.2,0.3-0.3c0.1-0.1,0.1-0.2,0.1-0.4L126.5,29.3L126.5,29.3z M130,21.5l0.1,0.2c0.1-0.4,0.3-0.7,0.6-1
	c1-0.9,2.5-0.9,3.5,0.1c0.4,0.4,0.7,0.9,0.9,1.5c0.1,0.4,0.2,0.9,0.2,1.3c0,0.7-0.3,1.4-0.8,1.9c-0.3,0.2-0.6,0.4-0.9,0.5
	c-0.4,0.1-0.8,0.2-1.1,0.1c-0.4-0.1-0.7-0.2-1-0.5l0.7,2.2c0.2,0.7,0.1,1.1-0.4,1.2c-0.2,0.1-0.4,0.1-0.6-0.1
	c-0.2-0.2-0.3-0.4-0.4-0.7l-2.1-6.3c-0.1-0.2-0.1-0.5,0-0.7c0.1-0.2,0.2-0.3,0.4-0.4c0.2-0.1,0.4-0.1,0.6,0
	C129.9,21.1,130,21.3,130,21.5L130,21.5z M133.6,22.7c-0.1-0.3-0.3-0.7-0.5-0.9c-0.2-0.2-0.4-0.4-0.7-0.5c-0.3-0.1-0.5-0.1-0.8,0
	c-0.4,0.1-0.7,0.4-0.9,0.8c-0.2,0.5-0.1,1,0.1,1.5c0.1,0.5,0.4,0.9,0.9,1.2c0.3,0.2,0.8,0.3,1.2,0.1c0.2-0.1,0.4-0.2,0.6-0.4
	c0.2-0.2,0.3-0.5,0.3-0.8C133.7,23.4,133.7,23,133.6,22.7L133.6,22.7z M142.1,21.2c0.1,0.4,0.1,0.8,0,1.3c-0.1,0.4-0.2,0.7-0.5,1.1
	c-0.2,0.3-0.5,0.6-0.9,0.8c-0.8,0.4-1.6,0.5-2.5,0.3c-0.4-0.1-0.7-0.3-1-0.5c-0.3-0.2-0.6-0.5-0.8-0.9c-0.4-0.8-0.5-1.7-0.3-2.5
	c0.1-0.4,0.2-0.7,0.5-1.1c0.2-0.3,0.5-0.6,0.9-0.8c0.8-0.4,1.6-0.5,2.5-0.4c0.8,0.2,1.4,0.7,1.8,1.4C142,20.3,142.1,20.7,142.1,21.2
	L142.1,21.2z M140.6,21.4c0-0.5-0.3-1-0.6-1.4c-0.3-0.3-0.7-0.4-1.2-0.4c-0.3,0-0.5,0.1-0.8,0.3c-0.2,0.2-0.4,0.5-0.4,0.8
	c-0.1,0.3-0.1,0.7,0,1.1c0.1,0.3,0.2,0.7,0.3,1c0.1,0.3,0.3,0.5,0.6,0.6c0.7,0.3,1.4,0.1,1.8-0.5C140.6,22.4,140.7,21.8,140.6,21.4
	L140.6,21.4z M143.6,18.2h0.2v-0.9v-0.6c0-0.1,0-0.2,0.1-0.4c0.1-0.2,0.4-0.4,0.6-0.4c0.2,0,0.4,0.1,0.5,0.2
	c0.1,0.1,0.2,0.2,0.2,0.4v0.6v1h0.6c0.2,0,0.4,0.1,0.5,0.2c0.1,0.1,0.2,0.2,0.2,0.4c0,0.2-0.1,0.3-0.3,0.4c-0.2,0.1-0.5,0.1-0.7,0.1
	h-0.3v2.8v0.5c0,0.1,0.1,0.2,0.1,0.3c0.1,0.1,0.2,0.1,0.4,0.1h0.4h0.4c0.1,0,0.2,0.1,0.3,0.1c0.1,0.1,0.2,0.2,0.1,0.4
	c0,0.3-0.2,0.5-0.4,0.6c-0.4,0.1-0.8,0.2-1.2,0.2c-0.4,0-0.8-0.1-1.1-0.3c-0.2-0.2-0.4-0.4-0.5-0.7c-0.1-0.4-0.1-0.8-0.1-1.1v-2.9
	h-0.2c-0.2,0-0.4,0-0.5-0.2c-0.1-0.1-0.2-0.2-0.2-0.4c0-0.2,0.1-0.3,0.2-0.4C143.1,18.3,143.3,18.2,143.6,18.2L143.6,18.2z
	 M149.8,17.1l-0.3,2.3c0.2-0.2,0.4-0.3,0.6-0.4c0.2-0.1,0.4-0.2,0.6-0.2c0.2,0,0.5,0,0.7,0c0.4,0,0.7,0.2,1,0.4
	c0.3,0.2,0.5,0.5,0.6,0.8c0.1,0.2,0.1,0.4,0.1,0.6l-0.1,0.8l-0.4,2.9c0,0.2-0.1,0.5-0.3,0.6c-0.2,0.1-0.4,0.2-0.6,0.1
	c-0.5-0.1-0.7-0.4-0.6-1l0.4-2.5c0.1-0.4,0.1-0.8,0-1.1c-0.1-0.3-0.4-0.5-0.8-0.5c-0.3,0-0.5,0-0.8,0.1c-0.2,0.1-0.4,0.3-0.6,0.6
	c-0.2,0.4-0.2,0.8-0.3,1.2l-0.3,2c0,0.2-0.1,0.5-0.3,0.6c-0.2,0.1-0.4,0.2-0.6,0.1c-0.5-0.1-0.7-0.4-0.6-1l1-6.6
	c0-0.2,0.1-0.5,0.3-0.7c0.4-0.3,0.8-0.2,1.1,0.2c0.1,0.2,0.2,0.5,0.1,0.7L149.8,17.1z M158.6,24.1l-2.9-0.9
	c-0.1,0.3-0.1,0.6-0.1,0.9c0.1,0.5,0.5,1,1,1.1c0.2,0.1,0.3,0.1,0.5,0.1c0.2,0,0.3,0,0.5-0.1l0.5-0.2l0.6-0.3c0.1,0,0.2,0,0.4,0
	c0.1,0,0.2,0.1,0.3,0.2c0.1,0.1,0.1,0.3,0,0.4c-0.1,0.2-0.2,0.3-0.3,0.4c-0.2,0.2-0.4,0.3-0.6,0.4c-0.3,0.1-0.6,0.2-0.9,0.2
	c-0.4,0-0.8-0.1-1.1-0.2c-1.5-0.4-2.5-1.9-2.1-3.4c0-0.2,0.1-0.3,0.1-0.5c0.1-0.4,0.3-0.8,0.6-1.1c0.5-0.6,1.2-1.1,2-1.1
	c0.4,0,0.9,0,1.3,0.2c0.5,0.2,1,0.4,1.4,0.8c0.6,0.7,0.8,1.6,0.6,2.5c0,0.3-0.3,0.5-0.5,0.6C159.3,24.2,159,24.2,158.6,24.1
	L158.6,24.1z M156,22.4l2.6,0.8c0.1-0.4,0.1-0.9-0.1-1.3c-0.2-0.3-0.5-0.6-0.8-0.7c-0.3-0.1-0.7-0.1-1,0.1
	C156.5,21.7,156.2,22,156,22.4z M165.3,27.8c-0.1,0.4-0.4,0.6-0.7,0.9c-0.3,0.2-0.7,0.3-1.1,0.3c-0.5-0.1-1-0.2-1.4-0.4
	c-0.4-0.2-0.8-0.5-1.2-0.8c-0.3-0.3-0.4-0.6-0.5-0.9c-0.1-0.3,0-0.6,0.1-0.8c0.1-0.1,0.2-0.3,0.3-0.3c0.2-0.1,0.3-0.1,0.5,0
	c0.1,0,0.2,0.1,0.3,0.3c0.1,0.1,0.1,0.3,0.1,0.4c0,0.6,0.4,1.2,1,1.4c0.2,0.1,0.5,0.2,0.8,0.1c0.2,0,0.4-0.1,0.5-0.3
	c0.1-0.2,0.1-0.5,0-0.7c-0.2-0.3-0.5-0.5-0.8-0.7c-0.4-0.3-0.7-0.6-1-0.9c-0.2-0.2-0.4-0.5-0.5-0.9c-0.1-0.3,0-0.6,0.1-0.9
	c0.1-0.3,0.3-0.5,0.6-0.7c0.3-0.2,0.7-0.3,1-0.3c0.4,0,0.9,0.1,1.3,0.3c0.3,0.1,0.6,0.3,0.9,0.6c0.2,0.2,0.4,0.4,0.6,0.6
	c0.1,0.2,0.2,0.4,0.3,0.6c0,0.2,0,0.4-0.1,0.5c-0.1,0.2-0.2,0.3-0.3,0.3c-0.2,0.1-0.4,0-0.5-0.1c-0.1-0.1-0.2-0.2-0.3-0.3
	c-0.1-0.2-0.1-0.3-0.2-0.5c-0.1-0.4-0.4-0.7-0.8-0.9c-0.2-0.1-0.5-0.2-0.7-0.1c-0.2,0-0.4,0.1-0.4,0.3c-0.1,0.1-0.1,0.3,0,0.4
	c0.1,0.2,0.2,0.3,0.4,0.5c0.6,0.5,1.1,1,1.6,1.5c0.2,0.2,0.3,0.5,0.4,0.8C165.5,27.2,165.5,27.5,165.3,27.8L165.3,27.8z M169.3,26.2
	l-2.1,3.9c-0.1,0.2-0.3,0.4-0.5,0.5c-0.2,0.1-0.4,0-0.6-0.1c-0.2-0.1-0.3-0.3-0.4-0.5c0-0.2,0-0.5,0.1-0.7l2.1-3.8
	c0.1-0.2,0.3-0.4,0.5-0.5c0.2-0.1,0.4,0,0.6,0.1c0.2,0.1,0.3,0.3,0.4,0.5C169.5,25.8,169.5,26,169.3,26.2L169.3,26.2z M169.4,24.5
	c-0.2-0.1-0.3-0.2-0.4-0.4c-0.1-0.2,0-0.4,0.1-0.6c0.1-0.2,0.3-0.3,0.5-0.4c0.2,0,0.4,0,0.6,0.1c0.2,0.1,0.3,0.2,0.4,0.4
	c0.1,0.2,0,0.4-0.1,0.6c-0.1,0.2-0.3,0.3-0.5,0.4C169.8,24.6,169.6,24.6,169.4,24.5L169.4,24.5z M173.2,32.6
	c-0.2,0.3-0.5,0.6-0.9,0.8c-0.4,0.1-0.8,0.2-1.1,0.1c-0.5-0.1-0.9-0.3-1.4-0.6c-0.4-0.3-0.7-0.6-1-1c-0.2-0.3-0.3-0.6-0.4-1
	c0-0.3,0-0.6,0.2-0.8c0.1-0.1,0.2-0.2,0.4-0.3c0.2,0,0.3,0,0.5,0.1c0.1,0.1,0.2,0.2,0.3,0.3c0,0.1,0,0.3,0,0.4c0,0.3,0,0.6,0.1,0.8
	c0.1,0.3,0.4,0.5,0.6,0.6c0.2,0.2,0.5,0.2,0.8,0.2c0.2,0,0.4-0.1,0.5-0.2c0.1-0.2,0.2-0.5,0.1-0.7c-0.2-0.3-0.4-0.6-0.6-0.8
	c-0.3-0.3-0.6-0.6-0.9-1c-0.2-0.3-0.3-0.6-0.4-0.9c0-0.3,0-0.6,0.2-0.9c0.2-0.3,0.4-0.5,0.7-0.6c0.3-0.1,0.7-0.2,1-0.1
	c0.8,0.2,1.5,0.6,2,1.2c0.2,0.2,0.4,0.4,0.5,0.7c0.1,0.2,0.1,0.4,0.1,0.6c0,0.2,0,0.3-0.1,0.5c-0.1,0.1-0.2,0.2-0.4,0.3
	c-0.2,0-0.4,0-0.5-0.1c-0.1-0.1-0.2-0.2-0.3-0.3c-0.1-0.2-0.1-0.4-0.1-0.5c0-0.2-0.1-0.4-0.1-0.5c-0.1-0.2-0.3-0.4-0.5-0.5
	c-0.2-0.1-0.4-0.2-0.7-0.2c-0.2,0-0.4,0.1-0.5,0.2c-0.1,0.1-0.1,0.3,0,0.4c0.1,0.2,0.2,0.4,0.3,0.5l0.6,0.7c0.3,0.3,0.5,0.6,0.8,1
	c0.2,0.3,0.2,0.5,0.3,0.9C173.4,32.2,173.4,32.4,173.2,32.6L173.2,32.6z M190.7,49.7l-0.5-1.4l-2.2,0.8c-0.3,0.1-0.5,0.1-0.8,0
	c-0.4-0.2-0.6-0.6-0.5-1c0,0,0,0,0-0.1c0.1-0.2,0.4-0.4,0.6-0.5l5.9-2.3c0.3-0.1,0.6-0.1,0.8,0c0.2,0.1,0.4,0.4,0.5,0.7l0.8,2
	c0.2,0.5,0.3,0.9,0.4,1.4c0.1,0.7-0.2,1.3-0.7,1.8c-0.3,0.2-0.6,0.4-0.9,0.6c-0.6,0.3-1.4,0.3-2,0C191.5,51.2,191,50.5,190.7,49.7
	L190.7,49.7z M194,47.9l-0.4-1l-2.3,0.9l0.4,1c0.1,0.3,0.3,0.6,0.5,0.9c0.1,0.2,0.4,0.3,0.6,0.4c0.2,0.1,0.5,0,0.8-0.1
	c0.3-0.1,0.6-0.3,0.7-0.6C194.4,48.9,194.3,48.4,194,47.9L194,47.9z M191.4,55.6l-1.2,0.3c-0.2,0.1-0.5,0.1-0.7,0
	c-0.2-0.1-0.3-0.3-0.4-0.5c-0.1-0.2,0-0.4,0.1-0.6c0.2-0.2,0.4-0.3,0.6-0.4l4.1-1.1c0.7-0.2,1.1,0,1.2,0.5c0.1,0.2,0,0.4-0.1,0.6
	c-0.2,0.2-0.4,0.3-0.6,0.4c0.3,0.1,0.6,0.2,0.8,0.4c0.2,0.2,0.4,0.4,0.4,0.7c0.1,0.3,0.1,0.7,0,1c0,0.3-0.2,0.5-0.5,0.6
	c-0.2,0-0.3,0-0.5-0.1c-0.1-0.1-0.2-0.2-0.3-0.4v-0.4c0-0.2,0-0.4,0-0.6c0-0.2-0.2-0.4-0.3-0.5c-0.2-0.1-0.4-0.2-0.6-0.2
	c-0.3,0-0.6,0-0.8,0L191.4,55.6L191.4,55.6z M193.9,64.2c-0.4,0.1-0.8,0.1-1.3,0c-0.8-0.2-1.4-0.6-1.8-1.3c-0.2-0.4-0.3-0.8-0.4-1.2
	c-0.1-0.4-0.1-0.9,0-1.3c0.1-0.4,0.3-0.7,0.5-1c0.2-0.3,0.5-0.6,0.9-0.8c0.8-0.4,1.6-0.5,2.5-0.4c0.8,0.2,1.4,0.6,1.8,1.3
	c0.2,0.4,0.4,0.8,0.4,1.2c0.1,0.4,0.1,0.9,0,1.3c-0.1,0.4-0.2,0.7-0.5,1c-0.2,0.3-0.5,0.6-0.9,0.8C194.7,64,194.3,64.1,193.9,64.2
	L193.9,64.2z M193.7,62.6c0.5,0,1-0.3,1.4-0.6c0.5-0.5,0.5-1.4,0-1.9c-0.2-0.2-0.5-0.4-0.8-0.4c-0.4-0.1-0.7-0.1-1.1,0
	c-0.4,0-0.7,0.2-1,0.3c-0.5,0.3-0.8,0.9-0.7,1.5c0.1,0.4,0.3,0.8,0.7,1C192.6,62.7,193.2,62.7,193.7,62.6L193.7,62.6z M196.9,65.4
	v0.2h0.9h0.6c0.1,0,0.3,0,0.4,0.1c0.1,0.1,0.2,0.2,0.3,0.3c0.1,0.1,0.1,0.2,0.1,0.4c0,0.2-0.1,0.4-0.2,0.5c-0.1,0.1-0.2,0.2-0.4,0.2
	c-0.2,0-0.4,0.1-0.6,0.1h-1v0.6c0,0.2,0,0.3-0.1,0.5c-0.1,0.1-0.2,0.2-0.4,0.2c-0.2,0-0.4-0.1-0.4-0.2c-0.1-0.2-0.2-0.5-0.1-0.7
	v-0.3l-2.8,0.1h-0.5c-0.1,0-0.2,0.1-0.3,0.1c-0.1,0.1-0.1,0.2-0.1,0.4l0.1,0.4l0.1,0.4c0,0.1,0,0.2-0.1,0.3
	c-0.1,0.1-0.2,0.2-0.4,0.2c-0.3,0-0.5-0.1-0.6-0.4c-0.2-0.4-0.3-0.8-0.3-1.1c0-0.4,0-0.8,0.2-1.1c0.1-0.2,0.4-0.4,0.6-0.5
	c0.4-0.1,0.7-0.2,1.1-0.2l2.9-0.1v-0.1c0-0.2,0-0.4,0.1-0.5c0.1-0.1,0.2-0.2,0.4-0.2c0.2,0,0.3,0,0.4,0.2
	C196.9,65.1,197,65.3,196.9,65.4L196.9,65.4z M193.7,75.3c-0.8,0-1.6-0.4-2.2-1c-0.3-0.3-0.5-0.6-0.6-1c-0.3-0.8-0.2-1.7,0.1-2.5
	c0.3-0.7,1-1.2,1.7-1.5c0.4-0.1,0.8-0.2,1.3-0.1c0.4,0,0.9,0.1,1.3,0.3c0.4,0.2,0.7,0.4,0.9,0.7c0.2,0.3,0.4,0.6,0.6,1
	c0.3,0.8,0.2,1.7-0.2,2.5c-0.2,0.4-0.4,0.7-0.7,0.9c-0.3,0.3-0.6,0.4-1,0.5C194.6,75.3,194.2,75.4,193.7,75.3L193.7,75.3z
	 M193.8,73.8c0.5,0.1,1,0,1.5-0.3c0.4-0.2,0.6-0.6,0.6-1.1c0-0.3,0-0.6-0.2-0.8c-0.2-0.2-0.4-0.4-0.6-0.6c-0.3-0.1-0.7-0.2-1-0.3
	c-0.4,0-0.7,0-1.1,0.1c-0.7,0.2-1.2,1-0.9,1.8c0.1,0.2,0.2,0.5,0.4,0.6C192.9,73.7,193.4,73.8,193.8,73.8L193.8,73.8z M196.4,77.2
	v0.2l0.9,0.2l0.6,0.1c0.1,0,0.2,0.1,0.3,0.2c0.2,0.2,0.3,0.4,0.3,0.7c0,0.2-0.2,0.4-0.3,0.5c-0.1,0.1-0.2,0.1-0.4,0.1l-0.6-0.1
	l-1-0.2l-0.1,0.5c0,0.2-0.1,0.3-0.2,0.5c-0.1,0.1-0.3,0.1-0.4,0.1c-0.2,0-0.3-0.1-0.4-0.3c-0.1-0.2-0.1-0.5,0-0.7v-0.3l-2.8-0.5
	l-0.5-0.1c-0.1,0-0.2,0-0.3,0.1c-0.1,0.1-0.2,0.2-0.2,0.3V79v0.4c0,0.1-0.1,0.2-0.2,0.3c-0.1,0.1-0.3,0.1-0.4,0.1
	c-0.2-0.1-0.4-0.2-0.5-0.5c-0.1-0.4-0.1-0.8,0-1.2c0-0.4,0.2-0.7,0.4-1c0.2-0.2,0.4-0.3,0.7-0.4c0.4,0,0.8,0,1.1,0.1l2.9,0.5v-0.2
	c0-0.2,0.1-0.4,0.3-0.5c0.1-0.1,0.3-0.2,0.5-0.2c0.2,0,0.3,0.1,0.4,0.3C196.5,76.8,196.5,77,196.4,77.2L196.4,77.2z"/>
<path class="st3" d="M189.2,81.2l0.3,0.2l5.1-0.5c0.2,0,0.4,0,0.6,0c0.1,0,0.2,0.1,0.3,0.2c0.1,0.1,0.1,0.2,0.2,0.3
	c0,0.1,0,0.2,0,0.4c0,0.2-0.2,0.3-0.3,0.4c-0.2,0.1-0.4,0.1-0.7,0.1l-4,0.2l3,2.1c0.2,0.1,0.4,0.3,0.6,0.4c0.1,0.1,0.2,0.2,0.3,0.3
	c0,0.1,0,0.2,0,0.4c0,0.1-0.1,0.2-0.2,0.3c-0.1,0.1-0.2,0.1-0.3,0.2c-0.1,0-0.2,0-0.3,0l-0.3-0.1l-0.4-0.2l-4.5-3.4
	c-0.3-0.2-0.6-0.5-0.9-0.8c-0.2-0.2-0.3-0.5-0.4-0.8c0-0.4,0-0.7,0.1-1.1c0.1-0.3,0.2-0.7,0.4-0.9c0.1-0.2,0.4-0.3,0.6-0.2
	c0.2,0,0.3,0.1,0.4,0.3c0.1,0.2,0.1,0.3,0,0.5l-0.1,0.2l-0.1,0.2c0,0.1,0,0.3,0,0.4c0,0.1,0.1,0.2,0.2,0.3L189.2,81.2L189.2,81.2z
	 M192.4,89l-0.2-0.1c0.2,0.3,0.3,0.7,0.4,1.1c0.1,1.3-1,2.5-2.3,2.5c0,0,0,0-0.1,0c-0.6,0-1.1-0.1-1.6-0.4c-0.8-0.3-1.4-0.9-1.8-1.6
	c-0.3-0.6-0.3-1.4,0-2c0.1-0.4,0.4-0.7,0.7-0.9c0.3-0.2,0.6-0.4,1-0.5l-2.1-0.9c-0.6-0.3-0.8-0.6-0.6-1.1c0.1-0.3,0.3-0.4,0.5-0.4
	c0.3,0,0.5,0.1,0.8,0.2l6,2.6c0.2,0.1,0.4,0.2,0.5,0.4c0.1,0.2,0.1,0.4,0,0.6c-0.1,0.2-0.2,0.3-0.4,0.4
	C192.8,89.2,192.6,89.2,192.4,89L192.4,89z M189.2,90.8c0.3,0.2,0.7,0.2,1,0.3c0.3,0,0.6-0.1,0.8-0.2c0.2-0.1,0.4-0.3,0.5-0.6
	c0.2-0.4,0.2-0.8,0-1.2c-0.3-0.5-0.7-0.8-1.2-1c-0.5-0.2-1-0.3-1.5-0.2c-0.4,0.1-0.7,0.4-0.9,0.8c-0.1,0.2-0.1,0.5-0.1,0.7
	c0.1,0.3,0.2,0.5,0.4,0.8C188.5,90.5,188.9,90.7,189.2,90.8L189.2,90.8z M185.4,96.8l1.5-2.6c-0.3-0.2-0.6-0.3-0.9-0.3
	c-0.3,0-0.5,0-0.8,0.1c-0.5,0.3-0.8,0.9-0.8,1.5v0.5l0.1,0.6c0,0.1,0,0.2-0.1,0.3c-0.1,0.1-0.2,0.2-0.3,0.3c-0.1,0-0.3,0-0.4-0.1
	c-0.1-0.1-0.3-0.2-0.3-0.4c-0.2-0.5-0.3-1.1-0.1-1.6c0.1-0.4,0.2-0.7,0.4-1.1c0.4-0.8,1.1-1.3,1.9-1.5c0.8-0.2,1.7,0,2.4,0.5
	c0.4,0.2,0.7,0.5,1,0.8c0.5,0.6,0.7,1.4,0.6,2.2c-0.2,0.9-0.7,1.8-1.6,2.3c-0.8,0.4-1.8,0.4-2.5,0c-0.3-0.2-0.5-0.4-0.5-0.7
	C185.1,97.5,185.2,97.2,185.4,96.8L185.4,96.8z M187.7,94.7l-1.4,2.4c0.4,0.2,0.8,0.3,1.2,0.3c0.4-0.1,0.7-0.3,0.8-0.6
	c0.2-0.3,0.2-0.7,0.1-1C188.3,95.3,188,95,187.7,94.7L187.7,94.7z"/>
<path class="st4" d="M67.7,151.8c0,1.4-0.2,2.7-0.6,4c-0.7,2.1-2.4,3.6-4.5,4.2c-1.3,0.3-2.6,0.5-3.9,0.5h-4c-0.3,0-0.5-0.1-0.7-0.3
	c-0.2-0.2-0.3-0.5-0.3-0.8v-14.7c0-0.3,0.1-0.6,0.3-0.8c0.2-0.2,0.5-0.3,0.7-0.3H59c1.3,0,2.6,0.1,3.8,0.5c1,0.3,1.9,0.9,2.6,1.6
	c0.7,0.7,1.3,1.6,1.6,2.6C67.5,149.3,67.7,150.5,67.7,151.8z M64.1,151.9c0-0.8-0.1-1.5-0.3-2.2c-0.3-1.3-1.2-2.4-2.5-3
	c-0.8-0.3-1.7-0.5-2.5-0.4H57v11.5h1.8c0.8,0,1.6-0.1,2.4-0.4c0.6-0.2,1.2-0.6,1.6-1.1c0.5-0.5,0.8-1.2,1-1.8
	C64,153.6,64.1,152.7,64.1,151.9L64.1,151.9z M81,153.9c0,0.3-0.1,0.6-0.3,0.9c-0.2,0.2-0.5,0.3-0.7,0.3h-7.1c0,0.5,0.1,0.9,0.2,1.4
	c0.1,0.4,0.3,0.7,0.6,1c0.3,0.3,0.6,0.5,1,0.6c0.5,0.2,1,0.2,1.5,0.2c0.9,0,1.8-0.1,2.6-0.4l0.8-0.3c0.2-0.1,0.3-0.1,0.5-0.1h0.2
	c0.1,0,0.1,0.1,0.1,0.2c0,0.1,0.1,0.2,0.1,0.3v0.5v0.5v0.4l-0.1,0.3l-0.1,0.2c-0.1,0.1-0.3,0.2-0.5,0.3c-0.7,0.3-1.5,0.5-2.3,0.6
	c-1.4,0.2-2.9,0.1-4.3-0.3c-1.5-0.5-2.7-1.7-3.1-3.2c-0.3-0.9-0.4-1.9-0.4-2.8c0-0.9,0.1-1.9,0.4-2.8c0.2-0.8,0.6-1.5,1.2-2.1
	c0.5-0.6,1.2-1,1.9-1.3c0.8-0.3,1.6-0.5,2.5-0.5c0.9,0,1.7,0.1,2.5,0.4c0.6,0.3,1.2,0.7,1.7,1.2c0.5,0.5,0.8,1.1,1,1.8
	c0.2,0.8,0.3,1.5,0.2,2.3L81,153.9L81,153.9z M77.8,152.9c0.1-0.8-0.1-1.5-0.6-2.2c-0.4-0.5-1.1-0.8-1.8-0.8c-0.7,0-1.4,0.3-1.9,0.9
	c-0.2,0.3-0.4,0.6-0.5,0.9c-0.1,0.4-0.2,0.8-0.2,1.1L77.8,152.9L77.8,152.9L77.8,152.9z M94.3,148.4v0.2v0.2l-0.1,0.3l-0.1,0.3
	l-3.5,10.5c0,0.1-0.1,0.3-0.2,0.4c-0.1,0.1-0.2,0.2-0.4,0.2c-0.2,0.1-0.5,0.1-0.7,0.1h-1.1c-0.6,0-1.2-0.1-1.8-0.1
	c-0.1,0-0.3-0.1-0.4-0.2c-0.1-0.1-0.1-0.2-0.2-0.4l-3.5-10.5l-0.1-0.5l-0.1-0.3v-0.2c0-0.1,0-0.2,0.1-0.2c0.1-0.1,0.2-0.1,0.3-0.2
	c0.2-0.1,0.3-0.1,0.5-0.1h0.8h0.9l0.5,0.1c0.1,0,0.2,0.1,0.3,0.2c0.1,0.1,0.1,0.2,0.1,0.3l2.6,8.5l0.1,0.3l0.1-0.3l2.6-8.5
	c0-0.1,0.1-0.2,0.1-0.3c0.1-0.1,0.2-0.1,0.3-0.2c0.8-0.1,1.7-0.1,2.5,0c0.1,0,0.2,0.1,0.2,0.2C94.3,148.2,94.3,148.3,94.3,148.4
	L94.3,148.4z M213.3,151.9c0,1.3-0.2,2.5-0.5,3.8c-0.3,1-0.8,2-1.5,2.8c-0.7,0.8-1.6,1.4-2.5,1.8c-1.1,0.4-2.3,0.6-3.5,0.6
	c-1.2,0-2.3-0.1-3.4-0.5c-0.9-0.3-1.8-0.9-2.4-1.6c-0.7-0.8-1.2-1.7-1.5-2.7c-0.3-1.3-0.5-2.6-0.5-3.9c0-1.2,0.2-2.5,0.5-3.7
	c0.3-1,0.8-2,1.5-2.8c0.7-0.8,1.6-1.4,2.5-1.8c1.1-0.4,2.3-0.6,3.5-0.6c1.1,0,2.3,0.1,3.4,0.5c2,0.6,3.4,2.2,3.9,4.2
	C213.2,149.3,213.3,150.6,213.3,151.9L213.3,151.9z M209.7,152c0-0.8-0.1-1.6-0.2-2.4c-0.1-0.7-0.4-1.3-0.7-1.9
	c-0.3-0.5-0.8-0.9-1.3-1.2c-0.7-0.3-1.4-0.5-2.1-0.4c-0.7,0-1.5,0.1-2.1,0.5c-0.6,0.3-1,0.7-1.4,1.3c-0.4,0.6-0.6,1.2-0.7,1.9
	c-0.3,1.6-0.3,3.2,0,4.7c0.1,0.7,0.4,1.3,0.7,1.9c0.3,0.5,0.8,0.9,1.3,1.2c0.7,0.3,1.4,0.4,2.1,0.4c0.7,0,1.5-0.1,2.1-0.5
	c0.6-0.3,1-0.7,1.4-1.3c0.4-0.6,0.6-1.2,0.7-1.9C209.7,153.6,209.7,152.8,209.7,152L209.7,152z M227.7,154c0,0.9-0.1,1.9-0.3,2.8
	c-0.2,0.8-0.5,1.5-1,2.1c-0.4,0.6-1,1-1.6,1.3c-1,0.5-2.1,0.6-3.1,0.4c-0.6-0.1-1.1-0.4-1.6-0.8c-0.3-0.2-0.6-0.5-0.8-0.7v5.5
	c0,0.1,0,0.2-0.1,0.2c-0.1,0.1-0.2,0.1-0.3,0.2c-0.7,0.1-1.4,0.2-2.1,0.1c-0.2,0-0.3-0.1-0.5-0.1c-0.1,0-0.2-0.1-0.3-0.2
	c-0.1-0.1-0.1-0.1-0.1-0.2v-16.3c0-0.1,0-0.2,0.1-0.2c0.1-0.1,0.1-0.1,0.2-0.2c0.1-0.1,0.3-0.1,0.4-0.1c0.4-0.1,0.9-0.1,1.3,0
	c0.1,0,0.3,0.1,0.4,0.1c0.1,0,0.2,0.1,0.2,0.2c0,0.1,0.1,0.1,0.1,0.2v1.4c0.6-0.6,1.3-1.1,2-1.6c0.3-0.2,0.7-0.3,1-0.4
	c1.1-0.2,2.3-0.1,3.3,0.4c0.6,0.3,1.1,0.8,1.5,1.4c0.4,0.6,0.7,1.3,0.8,2C227.6,152.3,227.7,153.1,227.7,154L227.7,154z
	 M224.3,154.3c0-0.5,0-0.9-0.1-1.4c-0.1-0.4-0.2-0.8-0.4-1.2c-0.2-0.3-0.4-0.6-0.7-0.9c-0.3-0.2-0.7-0.3-1.1-0.3
	c-0.5,0-0.9,0.2-1.3,0.4c-0.3,0.2-0.5,0.4-0.7,0.6c-0.3,0.3-0.5,0.6-0.8,0.9v3.8c0.4,0.5,0.8,1,1.3,1.4c0.4,0.3,0.8,0.5,1.3,0.5
	c0.4,0,0.8-0.1,1.1-0.3c0.3-0.2,0.6-0.5,0.7-0.9c0.2-0.4,0.3-0.8,0.4-1.2C224.2,155.1,224.3,154.7,224.3,154.3L224.3,154.3z
	 M238.4,156.7c0,0.6-0.1,1.2-0.4,1.8c-0.2,0.5-0.6,0.9-1,1.3c-0.5,0.3-1,0.6-1.6,0.8c-1.7,0.4-3.5,0.3-5.1-0.4
	c-0.2-0.1-0.3-0.2-0.5-0.3c-0.1-0.1-0.2-0.3-0.2-0.4c-0.1-0.3-0.1-0.6-0.1-0.9v-0.6c0-0.1,0-0.3,0.1-0.4l0.1-0.2h0.2
	c0.2,0,0.3,0.1,0.4,0.2c0.5,0.3,1.1,0.5,1.7,0.7c0.7,0.2,1.3,0.2,2,0.1c0.2-0.1,0.4-0.1,0.6-0.3c0.2-0.1,0.3-0.3,0.4-0.4
	c0.1-0.2,0.1-0.4,0.1-0.6c0-0.2-0.1-0.5-0.3-0.7c-0.2-0.2-0.4-0.4-0.6-0.5c-0.3-0.2-0.6-0.3-0.9-0.4l-1-0.4c-0.3-0.1-0.7-0.3-1-0.5
	c-0.7-0.4-1.2-1-1.5-1.7c-0.2-0.5-0.3-0.9-0.3-1.4c0-0.5,0.1-1,0.3-1.5c0.2-0.5,0.5-0.9,0.9-1.2c0.4-0.3,1-0.6,1.5-0.8
	c1-0.3,2-0.4,3-0.2l0.9,0.2l0.7,0.3l0.4,0.2c0.1,0,0.1,0.1,0.2,0.2l0.1,0.2v0.3v0.5v0.6l-0.1,0.4c0,0.1-0.1,0.1-0.1,0.2h-0.2
	c-0.1,0-0.3-0.1-0.4-0.1c-0.5-0.2-1-0.4-1.5-0.6c-0.6-0.2-1.2-0.2-1.9-0.1c-0.2,0.1-0.4,0.1-0.5,0.3c-0.1,0.1-0.2,0.2-0.3,0.4
	c-0.1,0.2-0.1,0.3-0.1,0.5c0,0.3,0.1,0.5,0.3,0.7c0.2,0.2,0.4,0.4,0.6,0.5c0.3,0.2,0.6,0.3,0.9,0.4l1,0.4c0.3,0.1,0.7,0.3,1,0.5
	c0.3,0.2,0.7,0.4,0.9,0.7c0.3,0.3,0.5,0.6,0.6,1c0.2,0.4,0.3,0.9,0.3,1.4L238.4,156.7z"/>
<path class="st0" d="M124.3,99.4H94.8l7.8,9.7l9,11.3H82.4c-22.8,0-32,4.9-37.6,5.6l3.5-13.5l-15.7-3.5c4.6-2.2,17.1-9.7,49.8-9.7
	H124.3z"/>
<path class="st3" d="M57.1,112.4l-0.6,0.1l0.3,2.6c0.1,0.3,0,0.6-0.1,0.8c-0.1,0.2-0.3,0.3-0.6,0.3c-0.2,0-0.5,0-0.7-0.2
	c-0.2-0.2-0.3-0.5-0.3-0.7l-0.6-6.3c-0.1-0.3,0-0.6,0.2-0.8c0.2-0.2,0.5-0.3,0.8-0.3l2.7-0.3c0.3,0,0.7,0,1,0c0.2,0,0.5,0,0.7,0.1
	c0.8,0.3,1.4,1,1.5,1.9c0.1,0.5-0.1,1.1-0.4,1.5c-0.4,0.4-0.9,0.8-1.5,0.9c0.3,0.2,0.6,0.4,0.9,0.6c0.5,0.5,1,1.1,1.4,1.8
	c0.1,0.2,0.2,0.4,0.2,0.6l-0.1,0.3c-0.1,0.1-0.1,0.2-0.3,0.3c-0.1,0.1-0.3,0.1-0.4,0.1c-0.2,0-0.3,0-0.5-0.1
	c-0.1-0.1-0.3-0.2-0.4-0.3l-0.4-0.6l-0.8-1c-0.2-0.3-0.5-0.6-0.7-0.9c-0.2-0.2-0.4-0.3-0.6-0.4c-0.3-0.1-0.5-0.1-0.8-0.1L57.1,112.4
	z M57.8,108.8l-1.5,0.1l0.2,2.3l1.5-0.1c0.3,0,0.7-0.1,1-0.2c0.2-0.1,0.4-0.2,0.6-0.4c0.1-0.2,0.2-0.5,0.1-0.7
	c0-0.2-0.1-0.4-0.2-0.6c-0.1-0.2-0.3-0.3-0.5-0.3C58.5,108.8,58.1,108.8,57.8,108.8L57.8,108.8z M67.1,112.4l-3,0.3
	c0,0.3,0.1,0.6,0.3,0.9c0.1,0.2,0.3,0.4,0.6,0.5c0.2,0.1,0.5,0.2,0.8,0.1l0.5-0.1c0.2-0.1,0.3-0.1,0.4-0.3l0.4-0.3l0.4-0.5
	c0.1-0.1,0.2-0.1,0.3-0.1c0.1,0,0.3,0,0.4,0.1c0.1,0.1,0.2,0.2,0.2,0.4c0,0.2,0,0.4-0.1,0.5c-0.1,0.2-0.3,0.4-0.4,0.6
	c-0.2,0.2-0.5,0.4-0.8,0.5c-0.4,0.2-0.7,0.2-1.1,0.3c-0.8,0.1-1.7-0.1-2.4-0.6c-0.6-0.6-1-1.4-1-2.2c0-0.4,0-0.9,0.1-1.3
	c0.1-0.4,0.3-0.7,0.5-1c0.2-0.3,0.5-0.6,0.9-0.7c0.4-0.2,0.8-0.3,1.2-0.3c1-0.1,2,0.3,2.6,1.1c0.2,0.3,0.4,0.8,0.4,1.2
	c0.1,0.3,0,0.6-0.3,0.8C67.7,112.3,67.4,112.4,67.1,112.4L67.1,112.4z M64,111.8l2.8-0.3c0-0.4-0.2-0.8-0.5-1.1
	c-0.3-0.2-0.6-0.3-1-0.3c-0.4,0-0.7,0.2-0.9,0.5C64.1,111,64,111.4,64,111.8z M69.8,114l-0.6-6.6c0-0.2,0-0.5,0.1-0.7
	c0.1-0.2,0.3-0.3,0.5-0.3c0.2,0,0.4,0,0.6,0.2c0.2,0.2,0.3,0.4,0.3,0.7l0.6,6.6c0,0.2,0,0.5-0.1,0.7c-0.1,0.2-0.3,0.3-0.5,0.3
	c-0.2,0-0.4,0-0.6-0.2C69.8,114.5,69.7,114.2,69.8,114L69.8,114z M76.9,111.5l-3,0.3c0,0.3,0.1,0.6,0.3,0.9c0.3,0.5,0.8,0.7,1.4,0.7
	c0.3,0,0.7-0.1,0.9-0.3l0.4-0.3l0.4-0.5c0.1-0.1,0.2-0.1,0.3-0.1c0.1,0,0.3,0,0.4,0.1c0.1,0.1,0.2,0.2,0.2,0.4c0,0.2,0,0.4-0.1,0.5
	c-0.1,0.2-0.3,0.4-0.4,0.6c-0.5,0.4-1.2,0.7-1.9,0.8c-0.8,0.1-1.7-0.1-2.4-0.6c-0.6-0.6-1-1.4-1-2.2c0-0.4,0-0.9,0.1-1.3
	c0.2-0.8,0.7-1.4,1.4-1.8c0.4-0.2,0.8-0.3,1.2-0.3c0.5-0.1,1.1,0,1.6,0.3c0.8,0.4,1.4,1.2,1.5,2.1c0.1,0.3,0,0.6-0.3,0.8
	C77.6,111.5,77.3,111.5,76.9,111.5L76.9,111.5z M73.9,110.9l2.8-0.2c0-0.4-0.2-0.8-0.5-1.1c-0.3-0.2-0.6-0.3-1-0.3
	c-0.4,0-0.7,0.2-0.9,0.5C74,110.1,73.9,110.5,73.9,110.9L73.9,110.9z M83.5,112.9c-0.3,0.3-0.6,0.5-1,0.7c-0.7,0.3-1.5,0.4-2.2,0.1
	c-0.3-0.1-0.5-0.3-0.7-0.6c-0.2-0.3-0.3-0.5-0.3-0.9c0-0.4,0.1-0.8,0.3-1.1c0.3-0.3,0.6-0.5,1-0.7l0.7-0.2l1-0.3l0.9-0.3
	c0-0.3-0.1-0.6-0.3-0.9c-0.1-0.2-0.5-0.3-0.9-0.2c-0.3,0-0.6,0.1-0.9,0.2c-0.2,0.1-0.4,0.3-0.5,0.5l-0.3,0.4
	c-0.1,0.1-0.2,0.1-0.4,0.1c-0.2,0-0.3,0-0.5-0.1c-0.1-0.1-0.2-0.3-0.2-0.4c0-0.3,0.1-0.6,0.2-0.8c0.2-0.3,0.5-0.5,0.9-0.7
	c0.5-0.2,1-0.3,1.5-0.3c0.5-0.1,1.1,0,1.6,0.1c0.4,0.1,0.7,0.4,0.9,0.7c0.2,0.4,0.3,0.9,0.3,1.4l0.1,0.9v0.8c0,0.3,0.1,0.6,0.2,0.9
	l0.2,0.6c0,0.2-0.1,0.3-0.2,0.4c-0.1,0.1-0.3,0.2-0.5,0.2c-0.2,0-0.3-0.1-0.5-0.2C83.8,113.4,83.6,113.2,83.5,112.9L83.5,112.9z
	 M83.3,110.7c-0.6,0.2-1.2,0.4-1.8,0.6c-0.2,0.1-0.3,0.2-0.5,0.3c-0.2,0.1-0.2,0.3-0.2,0.5c0,0.2,0.1,0.4,0.3,0.6
	c0.2,0.2,0.5,0.2,0.7,0.2c0.3,0,0.6-0.1,0.8-0.3c0.2-0.1,0.4-0.3,0.5-0.5c0.1-0.4,0.2-0.8,0.1-1.1L83.3,110.7L83.3,110.7z
	 M91.3,111.5c0.1,0.8-0.4,1.5-1.2,1.8c-0.5,0.2-1,0.3-1.5,0.3c-0.5,0-1,0-1.4-0.2c-0.3-0.1-0.6-0.3-0.9-0.6
	c-0.2-0.2-0.3-0.5-0.3-0.8c0-0.2,0.1-0.3,0.2-0.4c0.1-0.1,0.3-0.2,0.5-0.2c0.1,0,0.3,0,0.4,0.1c0.1,0.1,0.2,0.2,0.3,0.3
	c0.3,0.5,0.9,0.9,1.5,0.8c0.3,0,0.5-0.1,0.8-0.2c0.2-0.1,0.3-0.3,0.3-0.5c0-0.2-0.1-0.5-0.3-0.6c-0.3-0.2-0.7-0.3-1-0.3
	c-0.4-0.1-0.9-0.2-1.3-0.4c-0.3-0.1-0.6-0.3-0.8-0.5c-0.2-0.2-0.3-0.5-0.3-0.9c0-0.3,0.1-0.6,0.3-0.9c0.2-0.3,0.5-0.5,0.8-0.7
	c0.4-0.2,0.8-0.3,1.3-0.3c0.6,0,1.3,0.1,1.9,0.4c0.2,0.1,0.4,0.3,0.5,0.4c0.1,0.1,0.2,0.3,0.2,0.5c0,0.2-0.1,0.3-0.2,0.4
	c-0.1,0.1-0.3,0.2-0.5,0.2c-0.1,0-0.3,0-0.4-0.1c-0.1-0.1-0.3-0.3-0.4-0.4c-0.1-0.1-0.3-0.3-0.4-0.4c-0.2-0.1-0.4-0.1-0.6-0.1
	c-0.2,0-0.5,0.1-0.7,0.2c-0.2,0.1-0.3,0.3-0.3,0.4c0,0.2,0.1,0.3,0.2,0.4c0.2,0.1,0.3,0.2,0.5,0.3l0.9,0.2c0.4,0.1,0.8,0.2,1.2,0.4
	c0.3,0.1,0.5,0.3,0.7,0.6C91.2,111,91.3,111.2,91.3,111.5L91.3,111.5z M96.8,110.9l-3-0.1c0,0.3,0.1,0.6,0.2,0.9
	c0.2,0.5,0.7,0.8,1.3,0.8c0.3,0,0.7-0.1,0.9-0.3l0.4-0.3l0.5-0.4c0.1-0.1,0.2-0.1,0.3-0.1c0.1,0,0.3,0,0.4,0.1
	c0.1,0.1,0.2,0.2,0.1,0.4c0,0.2-0.1,0.3-0.2,0.5c-0.1,0.2-0.3,0.4-0.5,0.5c-0.3,0.2-0.5,0.3-0.8,0.4c-0.4,0.1-0.8,0.2-1.1,0.1
	c-0.9,0-1.7-0.3-2.3-0.9c-0.6-0.6-0.8-1.5-0.8-2.3c0-0.4,0.1-0.9,0.2-1.3c0.1-0.4,0.3-0.7,0.6-1c0.3-0.3,0.6-0.5,1-0.6
	c0.4-0.1,0.8-0.2,1.3-0.2c0.5,0,1.1,0.1,1.5,0.4c0.8,0.5,1.2,1.3,1.2,2.2c0,0.3-0.1,0.6-0.4,0.7C97.5,110.8,97.2,110.9,96.8,110.9
	L96.8,110.9z M93.8,109.9l2.8,0.1c0-0.4-0.1-0.8-0.4-1.2c-0.5-0.5-1.4-0.5-1.9,0C94,109.1,93.9,109.5,93.8,109.9L93.8,109.9z"/>
<path class="st5" d="M144.7,56.2c0-0.1,0-0.2-0.1-0.3c-0.1-0.1-0.2-0.2-0.4-0.3c-1.3-0.3-2.6-0.3-3.9,0c-0.2,0-0.3,0.1-0.4,0.3
	c-0.1,0.1-0.1,0.2-0.1,0.3v14.6c0,0.8-0.1,1.6-0.4,2.3c-0.2,0.6-0.6,1.2-1,1.7c-0.4,0.5-1,0.8-1.6,1c-1.3,0.5-2.8,0.5-4.2,0
	c-0.6-0.2-1.1-0.6-1.6-1c-0.5-0.5-0.8-1.1-1-1.8c-0.2-0.8-0.4-1.7-0.4-2.5V56.1c0-0.1,0-0.2-0.1-0.3c-0.1-0.1-0.2-0.2-0.4-0.3
	c-1.3-0.3-2.6-0.3-3.9,0c-0.2,0-0.3,0.1-0.4,0.3c-0.1,0.1-0.1,0.2-0.1,0.3v14.8c0,1.4,0.2,2.8,0.7,4.1c0.4,1.1,1.1,2.1,1.9,2.9
	c0.9,0.8,1.9,1.4,3.1,1.7c1.3,0.4,2.7,0.6,4.1,0.6c1.5,0,2.9-0.2,4.3-0.6c2.4-0.7,4.3-2.5,5.1-4.9c0.5-1.3,0.7-2.6,0.7-4L144.7,56.2
	L144.7,56.2L144.7,56.2z M161,67.3l5.4-9.9c0.2-0.3,0.3-0.7,0.4-1.1c0.1-0.2,0-0.4-0.1-0.6c-0.2-0.2-0.5-0.2-0.7-0.2
	c-0.9-0.1-1.9-0.1-2.8,0c-0.3,0-0.5,0.1-0.8,0.1c-0.2,0-0.3,0.1-0.4,0.2c-0.1,0.1-0.2,0.2-0.2,0.4l-4.2,8l-4.3-8l-0.2-0.4
	c-0.1-0.1-0.3-0.2-0.4-0.2c-0.3-0.1-0.5-0.1-0.8-0.1c-1-0.1-2-0.1-3,0c-0.3,0-0.6,0.1-0.8,0.3c-0.1,0.2-0.2,0.4-0.1,0.6
	c0.1,0.4,0.3,0.7,0.5,1.1l5.4,10L148,78c-0.2,0.3-0.4,0.7-0.5,1.1c-0.1,0.2-0.1,0.4,0.1,0.6c0.2,0.2,0.5,0.3,0.7,0.3
	c1,0.1,1.9,0.1,2.9,0c0.3,0,0.5,0,0.8-0.1c0.2,0,0.3-0.1,0.4-0.2l0.3-0.4l4.6-8.8l4.6,8.8c0.1,0.1,0.1,0.3,0.2,0.4
	c0.1,0.1,0.3,0.2,0.4,0.2c0.3,0.1,0.5,0.1,0.8,0.1c1,0.1,2,0.1,3,0c0.3,0,0.6-0.1,0.8-0.3c0.1-0.2,0.2-0.4,0.1-0.6
	c-0.1-0.4-0.2-0.7-0.4-1.1L161,67.3z"/>
<path class="st6" d="M142.7,192.6c-1.1-1-2.4-1.8-3.8-2.3c-1.8-0.5-3.7-0.8-5.5-0.8h-6.2c-0.4,0-0.7,0.1-1,0.4
	c-0.3,0.3-0.5,0.8-0.4,1.2v21.2c-0.1,0.8,0.4,1.4,1.2,1.6c0.1,0,0.2,0,0.3,0h5.8c1.9,0,3.8-0.2,5.6-0.7c1.5-0.4,2.9-1.2,4-2.2
	c1.1-1.1,2-2.4,2.5-3.9c0.6-1.8,0.9-3.8,0.9-5.7c0-1.7-0.2-3.5-0.8-5.1C144.6,194.9,143.8,193.6,142.7,192.6L142.7,192.6z
	 M140.3,205.3c-0.3,1-0.7,1.9-1.4,2.6c-0.6,0.7-1.4,1.3-2.3,1.6c-1.1,0.4-2.3,0.6-3.4,0.5h-2.6v-16.6h2.5c1.3,0,2.5,0.2,3.7,0.6
	c0.9,0.4,1.7,1,2.3,1.7c0.6,0.8,1.1,1.6,1.3,2.6c0.3,1,0.4,2.1,0.4,3.2C140.8,202.8,140.6,204,140.3,205.3L140.3,205.3z
	 M166.4,213.1c-0.1-0.4-0.3-0.7-0.4-1.1l-5.8-10.7l5.4-9.9c0.2-0.3,0.3-0.7,0.4-1.1c0.1-0.2,0-0.4-0.1-0.6c-0.2-0.2-0.5-0.3-0.8-0.3
	c-0.9-0.1-1.9-0.1-2.8,0c-0.3,0-0.5,0-0.8,0.1c-0.2,0-0.3,0.1-0.4,0.2c-0.1,0.1-0.2,0.2-0.2,0.4l-4.2,8l-4.3-8l-0.2-0.4
	c-0.1-0.1-0.3-0.2-0.4-0.2c-0.3-0.1-0.5-0.1-0.8-0.1c-1-0.1-2-0.1-3,0c-0.3,0-0.6,0.1-0.8,0.3c-0.1,0.2-0.2,0.4-0.1,0.6
	c0.1,0.4,0.3,0.7,0.5,1.1l5.4,10l-5.8,10.6c-0.2,0.3-0.4,0.7-0.5,1.1c-0.1,0.2-0.1,0.4,0.1,0.6c0.2,0.2,0.5,0.3,0.7,0.3
	c1,0.1,1.9,0.1,2.9,0c0.3,0,0.5,0,0.8-0.1c0.2,0,0.3-0.1,0.4-0.2l0.3-0.4l4.6-8.8l4.6,8.8c0.1,0.1,0.1,0.3,0.2,0.4
	c0.1,0.1,0.3,0.2,0.4,0.2c0.3,0.1,0.5,0.1,0.8,0.1c1,0.1,2,0.1,3,0c0.3,0,0.6-0.1,0.8-0.3C166.4,213.6,166.5,213.3,166.4,213.1
	L166.4,213.1z"/>
</svg>
