<?xml version="1.0" encoding="utf-8"?>
<!-- Generator: Adobe Illustrator 22.1.0, SVG Export Plug-In . SVG Version: 6.00 Build 0)  -->
<svg version="1.1" id="Layer_1" xmlns="http://www.w3.org/2000/svg" xmlns:xlink="http://www.w3.org/1999/xlink" x="0px" y="0px"
	 viewBox="0 0 238.1 48.8" style="enable-background:new 0 0 238.1 48.8;" xml:space="preserve">
<style type="text/css">
	.st0{fill:#121111;}
	.st1{fill:#F8C01D;}
</style>
<g>
	<g id="logotext" transform="translate(214.000000, 45.000000)">
		<path id="Fill-1" class="st0" d="M-65.9-25C-65.9-25-65.9-25-65.9-25c0,0.8,0,1.7,0,2.5c0,0.2,0.1,0.2,0.3,0.2c1.2,0,2.5,0,3.7,0
			c0.5,0,1.1,0,1.6-0.1c1-0.1,2-1.1,2.1-2.1c0.2-1.7-1-3.1-2.6-3.1c-1.6-0.1-3.3,0-4.9,0c-0.1,0-0.2,0.1-0.2,0.2
			C-65.9-26.7-65.9-25.8-65.9-25z M-63-13.4C-63-13.4-63-13.4-63-13.4c1,0,2.1,0,3.1-0.2c1.7-0.3,2.3-1.8,1.8-3.3
			c-0.3-1.1-1.3-1.7-2.3-1.7c-1.8-0.1-3.5,0-5.3-0.1c0,0-0.2,0.1-0.2,0.2c0,1.6,0,3.2,0,4.9c0,0.2,0,0.2,0.2,0.2
			C-64.8-13.4-63.9-13.4-63-13.4z M-56.6-20.5c1.2,0.5,2,1.3,2.6,2.3c0.4,0.6,0.6,1.4,0.6,2.1c0.2,2.1-0.4,3.9-2.1,5.2
			c-0.6,0.5-1.3,0.8-2.1,1c-1.4,0.4-2.7,0.5-4.2,0.5c-2.7,0-5.4,0-8.1,0c-0.4,0-0.6-0.2-0.6-0.6c0-0.1,0-0.3,0-0.4
			c0-6.8,0-13.5,0-20.3c0-0.1,0-0.3,0-0.4c0-0.4,0.1-0.6,0.6-0.6c1.7,0,3.4,0,5.1,0c1.1,0,2.2,0,3.3,0c1.5,0,3.1,0.1,4.4,0.8
			c1.6,0.8,2.8,2,3.2,3.8c0.3,1.2,0.3,2.3,0,3.5c-0.3,1-0.9,1.9-1.8,2.5C-56-20.9-56.3-20.7-56.6-20.5z"/>
		<path id="Fill-3" class="st0" d="M-5.6-21.7c-1.6,0-2.6,0.4-3.3,1.4c-0.8,1.1-1,2.3-0.8,3.6c0.3,1.7,1.3,2.7,3,3
			c1.2,0.2,2.2,0,3.2-0.8c0.8-0.6,1.2-1.5,1.4-2.5c0.1-0.7,0.1-1.3-0.1-2C-2.8-20.6-4.2-21.7-5.6-21.7z M-1.8-23.6
			c0-0.2,0-0.3,0-0.4c0-1,0-1.1,1-1.1c0.9,0,1.8,0,2.7,0c0.5,0,0.5,0,0.5,0.5c0,5.1,0,10.2,0,15.3c0,1.9-0.7,3.6-2,5
			c-0.9,0.9-2,1.6-3.3,1.9c-0.5,0.1-1,0.2-1.5,0.3C-5.2-1.8-6.1-1.9-7-2c-0.8,0-1.6-0.3-2.4-0.6c-1.3-0.4-2.4-1.2-3.3-2.3
			c-0.6-0.8-1-1.6-1.2-2.6c-0.1-0.3-0.1-0.6-0.2-1c0-0.3,0.1-0.5,0.5-0.5c1.2,0,2.3,0,3.5,0c0.3,0,0.4,0.2,0.5,0.4
			C-9.4-8.1-9.3-7.6-9-7.2c0.5,0.7,1.2,1,2,1.2c1,0.2,2,0.2,3-0.2C-2.7-6.7-2-7.8-2-9.3c0-0.6,0-1.2,0.1-1.8c0-0.1,0-0.2,0-0.3
			c-0.1,0-0.1,0-0.2,0.1c-0.7,0.8-1.6,1.2-2.6,1.4c-0.7,0.2-1.4,0.3-2.1,0.3c-2,0-3.8-0.6-5.2-2c-1-0.9-1.6-2.1-1.9-3.4
			s-0.4-2.6-0.2-3.9c0.3-2.1,1.2-3.9,2.9-5.2c0.9-0.7,1.8-1.1,2.9-1.3c1-0.2,2-0.2,3.1-0.1c1.1,0.2,2.2,0.6,3,1.3
			C-2.1-24.1-2-23.9-1.8-23.6z"/>
		<path id="Fill-4" class="st0" d="M-28.8-17.3c0.1,0.5,0.1,0.9,0.2,1.4c0.3,1,0.8,1.9,1.8,2.4c0.9,0.5,1.8,0.6,2.9,0.4
			c1.1-0.2,1.9-0.8,2.5-1.8c0.8-1.3,0.8-2.8,0.3-4.2c-0.3-0.9-0.9-1.6-1.8-2.1c-0.7-0.4-1.5-0.4-2.2-0.4c-1,0-1.9,0.4-2.6,1.3
			C-28.5-19.4-28.8-18.4-28.8-17.3z M-20.8-24c0-0.1,0-0.2,0-0.3c0-2.7,0-5.3,0-8c0-0.2,0-0.4,0-0.7c0-0.2,0.2-0.4,0.4-0.3
			c1.2,0,2.3,0,3.5,0c0.3,0,0.5,0.1,0.5,0.5c0,0.2,0,0.3,0,0.5c0,7.3,0,14.6,0,21.9c0,0.1,0,0.3,0,0.4c0,0.3-0.2,0.5-0.5,0.5
			c-1,0-2,0-3,0c-0.2,0-0.4-0.1-0.4-0.4c0-0.4-0.1-0.8-0.1-1.2c0,0-0.1,0-0.1,0c-0.5,0.7-1.2,1.1-2,1.4C-23.7-9-25-8.8-26.3-8.9
			c-2.3-0.2-4.2-1.2-5.5-3.1c-0.7-1-1.1-2.1-1.3-3.4c-0.2-1.3-0.2-2.6,0-3.9c0.4-2.1,1.5-3.9,3.4-5.1c1.1-0.7,2.3-1,3.7-1.1
			c1.2-0.1,2.4,0.1,3.5,0.5c0.6,0.2,1.1,0.5,1.6,1C-20.9-24.1-20.9-24.1-20.8-24z"/>
		<path id="Fill-5" class="st0" d="M-154.9-28.3c0,0.3,0,0.5,0,0.8c0,2.9,0,5.9,0,8.8c0,1.9,0,3.9,0,5.8c0,0.1,0.1,0.2,0.2,0.2
			c1.1,0,2.2,0,3.3,0c0.7,0,1.4-0.1,2.1-0.2c1.6-0.3,3-1,4-2.2c0.8-0.9,1.4-2,1.6-3.2c0.2-1,0.3-1.9,0.2-2.9c-0.1-1-0.3-2-0.7-2.9
			c-0.5-1-1.1-1.9-2-2.7c-0.9-0.7-1.9-1.2-3.1-1.4c-0.8-0.1-1.7-0.1-2.6-0.2C-152.8-28.4-153.9-28.3-154.9-28.3z M-158.7-20.6
			c0-3.5,0-7.1,0-10.6c0-0.3,0.3-0.5,0.6-0.5c0.7,0,1.4,0,2.1,0c1.7,0,3.3,0,4.9,0c1.7,0,3.4,0.3,5,1c2.5,1.1,4.3,2.9,5.4,5.4
			c0.6,1.3,0.8,2.6,0.9,4c0.1,1,0,2-0.1,3c-0.5,2.6-1.7,4.9-3.8,6.5c-1,0.8-2.1,1.4-3.3,1.8c-1.4,0.4-2.7,0.6-4.1,0.6
			c-2.3,0-4.6,0-6.9,0c-0.4,0-0.7-0.2-0.7-0.7C-158.7-13.6-158.7-17.1-158.7-20.6L-158.7-20.6z"/>
		<path id="Fill-6" class="st0" d="M-123.5-12.9c2.3,0.1,4.1-1.7,4.4-3.7c0.1-1,0.1-1.9-0.2-2.8c-0.4-1-1.1-1.9-2.1-2.4
			c-0.8-0.4-1.7-0.5-2.6-0.4c-2.1,0.2-3.4,1.8-3.7,3.5c-0.1,0.7,0,1.4,0,2c0,0.9,0.4,1.7,1,2.3C-125.9-13.4-124.9-12.9-123.5-12.9z
			 M-118.7-23.2c0-0.5,0.1-1,0.1-1.4c0-0.3,0.1-0.4,0.4-0.4c0.8,0,1.6,0,2.4,0c0.2,0,0.3,0.1,0.4,0.3c0,0.2,0,0.3,0,0.5
			c0,4.8,0,9.6,0,14.4c0,1.5-0.3,2.9-1.2,4.2c-0.9,1.4-2.2,2.3-3.8,2.8c-1.3,0.4-2.5,0.5-3.8,0.4c-2.2-0.2-4.1-0.9-5.5-2.6
			c-0.7-0.8-1.1-1.8-1.3-2.9c0-0.1-0.1-0.3-0.1-0.5c-0.1-0.3,0.1-0.5,0.4-0.5c0.9,0,1.7,0,2.6,0c0.3,0,0.4,0.1,0.5,0.4
			c0.3,1.6,1.4,2.5,2.9,2.9c1.3,0.3,2.6,0.2,3.8-0.4c1-0.5,1.7-1.4,1.8-2.5c0.1-0.7,0.1-1.5,0.1-2.2c0-0.3,0-0.6,0-0.9
			c0-0.1,0-0.2,0-0.3c-0.4,0.3-0.7,0.6-1.1,0.9c-0.6,0.4-1.4,0.7-2.1,0.9c-0.7,0.1-1.4,0.2-2.1,0.2c-2.7-0.1-4.9-1.2-6.2-3.6
			c-0.6-1.1-0.9-2.4-1-3.6c0-1.1,0-2.2,0.4-3.3c0.4-1.4,1.2-2.6,2.4-3.5c1.1-0.9,2.5-1.4,3.9-1.5c2-0.2,3.9,0.2,5.4,1.6
			c0.1,0.1,0.2,0.3,0.3,0.4C-118.8-23.3-118.8-23.3-118.7-23.2z"/>
		<path id="Fill-7" class="st0" d="M15.9-19c-0.3-1.8-1.5-2.8-3.4-2.8s-3.2,1-3.5,2.8C11.3-19,13.6-19,15.9-19z M14.5-15.9
			c-1.6,0-3.2,0-4.8,0c-0.2,0-0.4,0-0.6,0c-0.2,0-0.3,0-0.2,0.2c0.3,1.5,1.2,2.5,2.6,2.9c1.2,0.3,2.4,0.2,3.5-0.5
			c0.3-0.2,0.6-0.6,0.9-0.9c0.2-0.3,0.4-0.6,0.9-0.5c1,0,2.1,0,3.1,0c0.4,0,0.6,0.3,0.5,0.7c-0.7,2.2-2.1,3.6-4.3,4.5
			C14.7-9,13.2-8.8,11.7-9c-2.5-0.2-4.5-1.4-5.9-3.5c-0.6-0.9-1-1.9-1.1-3c-0.1-0.7-0.2-1.5-0.2-2.2c0.1-2.8,1.1-5.2,3.6-6.7
			c1.2-0.8,2.6-1.2,4.1-1.2c1.1,0,2.2,0,3.3,0.4c1.5,0.5,2.8,1.4,3.7,2.7c0.6,0.9,1.1,1.9,1.2,3.1c0.1,0.8,0.1,1.7,0.1,2.5
			c0,0.2,0,0.5-0.1,0.7c-0.1,0.2-0.3,0.3-0.6,0.3C18-15.9,16.3-15.9,14.5-15.9C14.5-15.9,14.5-15.9,14.5-15.9z"/>
		<path id="Fill-9" class="st0" d="M-88.7-12c0.1,0,0.2,0,0.3,0c1.8,0,3.5-1.4,4-3.1c0.4-1.4,0.4-2.8-0.1-4.2
			c-0.4-0.9-1-1.7-1.8-2.1c-0.9-0.5-1.9-0.6-2.9-0.5c-1.9,0.1-3.2,1.4-3.7,3c-0.4,1.2-0.4,2.5,0,3.8C-92.5-13.3-90.8-12-88.7-12z
			 M-83.7-23.1c0-0.4,0.1-0.7,0.1-1c0-0.7,0.1-0.8,0.8-0.8c0.6,0,1.2,0,1.8,0c0.4,0,0.5,0.1,0.5,0.5c0,0.1,0,0.3,0,0.4
			c0,4.6,0,9.1,0,13.7c0,0.1,0,0.2,0,0.2c0,0.6-0.1,0.7-0.7,0.7c-0.7,0-1.3,0-2,0c-0.6,0-0.7-0.1-0.7-0.7c0-0.4,0-0.8,0-1.3
			c-0.2,0.2-0.4,0.4-0.6,0.6c-1.1,0.9-2.3,1.5-3.7,1.6c-0.4,0-0.9,0.1-1.4,0.1c-1.2,0-2.4-0.3-3.5-0.9c-1.5-0.8-2.5-2-3.1-3.5
			c-0.4-1.1-0.6-2.1-0.7-3.3c0-1.2,0-2.3,0.4-3.5c0.7-2.3,2.1-4,4.4-4.9c1.6-0.6,3.1-0.6,4.7-0.3c1.3,0.3,2.4,0.9,3.3,1.9
			C-83.9-23.2-83.8-23.1-83.7-23.1z"/>
		<path id="Fill-10" class="st0" d="M-47.2-23.8c0.1-0.1,0.2-0.1,0.3-0.2c0.4-0.6,1.1-0.9,1.8-1.1c1-0.3,1.9-0.2,2.9-0.1
			c0.3,0,0.4,0.2,0.4,0.5c0,0.9,0,1.8,0,2.7c0,0.5-0.2,0.6-0.7,0.6c-1.5-0.1-2.8,0.1-3.8,1.4c-0.4,0.5-0.6,1.2-0.6,1.8
			c0,2.7,0,5.3,0,8c0,0.5-0.1,0.6-0.5,0.6c-1.1,0-2.2,0-3.3,0c-0.5,0-0.6-0.2-0.6-0.6c0-1.6,0-3.2,0-4.9c0-3.2,0-6.4,0-9.6
			c0-0.4,0.1-0.5,0.5-0.5c1,0,2.1,0,3.1,0c0.3,0,0.5,0.1,0.5,0.4C-47.3-24.4-47.3-24.2-47.2-23.8"/>
		<path id="Fill-11" class="st0" d="M-104-25.1c0-1.1,0-2.2,0-3.3c0-0.5,0.2-0.6,0.7-0.6c0.7,0,1.5,0,2.2,0c0.5,0,0.6,0.1,0.6,0.6
			c0,0.5,0,1,0,1.5c0,0.5,0,1.1,0,1.7c0,0.2,0,0.3,0.3,0.2c0.8,0,1.5,0,2.3,0c0.3,0,0.4,0.2,0.4,0.5c0,0.7,0,1.4,0,2
			c0,0.3-0.1,0.4-0.4,0.4c-0.8,0-1.6,0-2.3,0c-0.2,0-0.3,0-0.2,0.3c0,0.1,0,0.2,0,0.4c0,3.8,0,7.6,0,11.4c0,0.4-0.1,0.5-0.5,0.5
			c-0.8,0-1.6,0-2.4,0c-0.5,0-0.6-0.2-0.6-0.6c0-1.3,0-2.6,0-3.9c0-2.4,0-4.8,0-7.2c0-0.1,0-0.2,0-0.3c0-0.4,0-0.4-0.4-0.4
			c-0.7,0-1.3,0-2,0c-0.3,0-0.4-0.1-0.4-0.4c0-0.7,0-1.4,0-2c0-0.3,0.2-0.5,0.5-0.5c0.7,0,1.5,0,2.2,0
			C-104.1-25-104.1-25.1-104-25.1"/>
		<path id="Fill-12" class="st0" d="M-77.6-21.2c0-3.8,0-7.6,0-11.3c0-0.5,0.1-0.6,0.6-0.6c0.8,0,1.5,0,2.3,0c0.4,0,0.5,0.1,0.5,0.5
			c0,0.2,0,0.4,0,0.6c0,7.2,0,14.4,0,21.7c0,0.2,0,0.4,0,0.5c0,0.3-0.2,0.5-0.5,0.5c-0.9,0-1.7,0-2.6,0c-0.2,0-0.4-0.2-0.4-0.5
			C-77.6-13.6-77.6-17.4-77.6-21.2L-77.6-21.2"/>
		<path id="Fill-13" class="st0" d="M-35.4-17.2c0,2.5,0,4.9,0,7.4c0,0.4-0.2,0.5-0.5,0.5c-1.1,0-2.2,0-3.3,0
			c-0.4,0-0.6-0.2-0.6-0.6c0-0.1,0-0.2,0-0.3c0-4.8,0-9.5,0-14.3c0-0.4,0.1-0.5,0.5-0.5c1.2,0,2.3,0,3.5,0c0.4,0,0.5,0.1,0.5,0.5
			C-35.4-22.1-35.4-19.7-35.4-17.2L-35.4-17.2"/>
		<path id="Fill-14" class="st0" d="M-108.9-17.1c0,2.4,0,4.8,0,7.2c0,0.2-0.1,0.4-0.3,0.5c-0.1,0-0.2,0-0.3,0c-0.7,0-1.5,0-2.2,0
			c-0.4,0-0.6-0.2-0.6-0.6c0-1.1,0-2.1,0-3.2c0-3.7,0-7.5,0-11.2c0-0.4,0.1-0.5,0.5-0.5c0.8,0,1.6,0,2.4,0c0.3,0,0.5,0.2,0.5,0.5
			C-108.9-21.9-108.9-19.5-108.9-17.1L-108.9-17.1"/>
		<path id="Fill-15" class="st0" d="M-137.5-17.1c0-2.4,0-4.8,0-7.2c0-0.4,0.1-0.5,0.5-0.5c0.8,0,1.6,0,2.4,0c0.3,0,0.5,0.2,0.5,0.5
			c0,4.2,0,8.4,0,12.6c0,0.7,0,1.3,0,2c0,0.2-0.1,0.4-0.3,0.4c-0.1,0-0.3,0-0.5,0c-0.6,0-1.3,0-1.9,0c-0.5,0-0.8-0.2-0.8-0.8
			c0-2.1,0-4.2,0-6.3C-137.4-16.6-137.4-16.8-137.5-17.1C-137.4-17.1-137.5-17.1-137.5-17.1"/>
		<path id="Fill-16" class="st0" d="M-34.9-31.6c0.7,1.6-0.1,3.5-1.9,3.9c-0.7,0.2-1.5,0.1-2.1-0.1c-1.1-0.5-1.6-1.3-1.7-2.5
			c0-1.2,0.7-2.3,1.8-2.7c0.4-0.1,0.8-0.1,1-0.2C-36.4-33.2-35.4-32.7-34.9-31.6z"/>
		<path id="Fill-17" class="st0" d="M-138.2-30.4c0-1.3,1.1-2.3,2.5-2.3c1.5,0,2.4,1,2.5,2.2c0,1.3-1,2.5-2.5,2.4
			C-137.1-28-138.2-29.1-138.2-30.4"/>
		<path id="Fill-18" class="st0" d="M-110.6-32.7c1.5,0,2.5,1.1,2.5,2.3s-1,2.4-2.5,2.4c-1.4,0-2.5-1.1-2.4-2.4
			C-113.1-31.7-112-32.7-110.6-32.7z"/>
	</g>
	<path id="logobg" class="st1" d="M4.6,2.2h39.2c1.1,0,2,0.9,2,2v39.2c0,1.1-0.9,2-2,2H4.6c-1.1,0-2-0.9-2-2V4.1
		C2.6,3.1,3.5,2.2,4.6,2.2z"/>
	<g id="sails">
		<path class="st0" d="M26.8,15.3c1,3,3,5.1,5.9,6c0.2,0.1,0.2,0.3,0,0.4c-0.2,0.1-0.4,0.1-0.6,0.2c-3.5,1.2-7.6-0.6-8.9-4.5
			c-1.1-3.3,0.4-6.5,3.3-8.2c0.2-0.1,0.4,0,0.3,0.2C26.3,11.4,26.1,13.3,26.8,15.3z"/>
		<path class="st0" d="M22.3,22c-2.1-1.6-3.3-3.7-4.2-5.9c-0.1-0.2-0.4-0.2-0.5,0c-1.7,3.8-1,8.1,2.5,10.7c4,3,9.6,1.9,12.3-1.7
			c0.2-0.2,0.3-0.4,0.5-0.6c0.1-0.2,0-0.5-0.3-0.4C28.9,25.1,25.4,24.3,22.3,22"/>
		<path class="st0" d="M21.5,30.4c-3.3-0.4-6-1.9-8.4-3.8c-0.2-0.2-0.6,0-0.6,0.3c0.6,5.2,4.2,9.5,9.7,10.1c6.4,0.7,11.8-4,12.4-9.7
			c0-0.4,0.1-0.7,0.1-1c0-0.3-0.4-0.5-0.6-0.3C30.8,29.6,26.4,31,21.5,30.4"/>
	</g>
</g>
</svg>
