<?xml version="1.0" encoding="utf-8"?>
<!-- Generator: Adobe Illustrator 22.1.0, SVG Export Plug-In . SVG Version: 6.00 Build 0)  -->
<svg version="1.1" id="Layer_1" xmlns="http://www.w3.org/2000/svg" xmlns:xlink="http://www.w3.org/1999/xlink" x="0px" y="0px"
	 viewBox="0 0 1000 500" enable-background="new 0 0 1000 500" xml:space="preserve">
<g>
	<path d="M250.8,210.3c2.4-2.1,5.6-3.4,9.7-3.8v-4.4h-31.8v4.4c3.1,0.3,5.5,1,7,2.2c1.5,1.2,2.3,2.9,2.3,5.2c0,1.4-0.1,2.8-0.3,4.2
		c-0.2,1.4-0.6,2.6-1,3.7l-14.9,39.9l-24.2-63.3l-22,63.3L159,220.4c-0.6-1.4-1.1-2.7-1.3-3.8c-0.3-1.2-0.4-2.3-0.4-3.2
		c0-2.1,0.7-3.7,2.2-4.9c1.5-1.2,3.6-1.8,6.4-1.9l0.1-4.4h-62.1v4.4h0.3c3.3,0,6.2,1.1,8.7,3.4c2.5,2.3,5.1,6.4,7.9,12.2l43,92.1
		l21.2-60.5l23.2,60.5l35.7-92.2C246.1,216.4,248.4,212.5,250.8,210.3z"/>
	<path d="M300.4,241.1c-6-6.1-14-9.2-24-9.2c-5.7,0-11.4,1.4-17,4.2c-5.6,2.8-10,6.4-13.3,10.9c-3,4-5.3,8.3-6.8,12.8
		c-1.5,4.5-2.2,9.4-2.2,14.6c0,5.1,0.8,9.8,2.3,14.2c1.5,4.4,3.8,8.4,6.8,12c3.7,4.4,8.1,7.8,13.2,10.2c5.1,2.4,10.6,3.5,16.4,3.5
		c6.4,0,12.4-1.4,18.1-4.1c5.6-2.7,10.6-6.7,15-12v-7.2c-2,2.2-4.2,3.9-6.7,5c-2.5,1.1-5.2,1.7-8.2,1.7c-8,0-14.8-3-20.4-9.1
		c-5.6-6.1-8.6-13.6-8.9-22.8h44.6C309.4,255.4,306.4,247.2,300.4,241.1z M284.6,258.4c-1.6,1.2-5.9,1.8-12.9,1.8h-7.1
		c0-7.8,1-13.5,3-17c2-3.6,5.1-5.4,9.4-5.4c3.3,0,5.8,1.1,7.5,3.4c1.6,2.3,2.5,5.7,2.5,10.3C287,254.9,286.2,257.2,284.6,258.4z"/>
	<path d="M363,293v-83.7c5.8,1,10.9,3.4,15.1,7.2c4.2,3.8,7.8,9.3,10.8,16.3l3.5-1.2l-6.3-32.2c-1.4,0.9-3.3,1.6-5.6,2.1
		c-2.3,0.5-5,0.7-8.1,0.7h-53.2c-3.2,0-5.9-0.2-8.2-0.7c-2.3-0.5-4.2-1.2-5.6-2.1l-6.2,32.2l3.5,1.2c2.9-6.9,6.4-12.3,10.7-16.2
		c4.2-3.8,9.3-6.3,15.2-7.3V293c0,5-0.9,8.4-2.6,10.3c-1.7,1.9-5,3-9.9,3.3v4.4h59.3v-4.4c-4.8-0.3-8-1.4-9.7-3.2
		C363.8,301.4,363,298,363,293z"/>
	<path d="M445.8,235.3c-2.3-2.3-5.4-3.4-9.2-3.4c-3.4,0-6.7,1.1-9.7,3.2c-3,2.2-5.8,5.4-8.4,9.7v-13.5c-9.5,5-17.6,9-24.2,12
		c-6.6,3.1-12.4,5.5-17.4,7.2l9.6,6.8c1.7,1.1,2.8,2.3,3.5,3.5c0.6,1.2,0.9,3,0.9,5.5v29c0,4.1-0.7,6.9-2.2,8.7
		c-1.5,1.7-3.9,2.6-7.3,2.6h-0.5v4.4h50.4v-4.4h-0.5c-3.7,0-6.4-0.9-8-2.6c-1.6-1.7-2.4-4.6-2.4-8.6v-31.8c0-5.8,0.4-9.8,1.1-12.1
		c0.7-2.3,1.9-3.4,3.6-3.4c0.7,0,2.4,1.2,5,3.5c2.6,2.3,5.4,3.5,8.3,3.5c3.2,0,5.7-1,7.7-2.9c1.9-1.9,2.9-4.5,2.9-7.8
		C449.2,240.5,448.1,237.6,445.8,235.3z"/>
	<path d="M527.7,301.4c-2.1,0-3.6-1.3-4.6-3.8c-1-2.6-1.4-6.9-1.4-13v-21.9c0-6.2-0.5-10.9-1.5-13.9c-1-3.1-2.8-5.8-5.2-8.1
		c-3-2.8-6.9-5-11.7-6.5c-4.7-1.5-10-2.2-15.9-2.2c-10.4,0-18.9,2.3-25.6,6.9c-6.6,4.6-9.9,10.4-9.9,17.4c0,3.2,0.9,5.8,2.8,7.8
		c1.9,2,4.4,3,7.5,3c3.4,0,6.2-1.1,8.3-3.4c2.1-2.3,3.1-5.3,3.1-9c0-0.5-0.1-1.6-0.2-3.3c-0.1-1.7-0.2-3.2-0.2-4.5
		c0-2.4,0.9-4.4,2.7-6c1.8-1.6,4.1-2.4,6.8-2.4c3.3,0,5.7,1.2,7.2,3.7c1.5,2.5,2.2,6.6,2.2,12.4v5.5c-18.5,7.1-30.7,13.1-36.7,18
		c-6,4.9-9,10.7-9,17.3c0,5.6,2,10.2,5.9,13.7c3.9,3.6,9,5.3,15.4,5.3c4.8,0,9.3-1.1,13.6-3.3c4.3-2.2,8.4-5.5,12.3-10
		c1.4,4.1,3.7,7.2,6.7,9.3c3.1,2.1,6.8,3.2,11.4,3.2c4,0,7.6-0.7,10.8-2.2c3.3-1.4,5.9-3.5,8-6.1v-5c-0.5,0.4-1,0.7-1.5,0.9
		C528.7,301.3,528.2,301.4,527.7,301.4z M492.3,280.2c0,8.6-0.5,14-1.5,16.2c-1,2.2-2.9,3.2-5.6,3.2c-2.1,0-3.8-1-5.1-2.9
		c-1.3-2-2-4.6-2-7.9c0-5.7,1.2-10.6,3.6-14.6c2.4-4,5.9-6.9,10.5-8.7V280.2z"/>
	<path d="M621.5,303.9c-1.5-1.7-2.2-4.6-2.2-8.7v-37.2c0-8.8-2.1-15.3-6.2-19.6c-4.1-4.3-10.4-6.4-18.8-6.4c-5.1,0-9.7,1-13.9,3.1
		c-4.1,2.1-7.7,5.1-10.8,9.2v-13.1c-7.3,4.2-14.4,7.8-21.2,11c-6.8,3.2-13.4,5.9-19.7,8.2l9.6,6.8c1.7,1.1,2.8,2.3,3.5,3.5
		c0.6,1.2,0.9,3,0.9,5.5v29c0,4.1-0.7,6.9-2.2,8.7c-1.5,1.7-3.9,2.6-7.3,2.6h-0.5v4.4h48.7v-4.4c-3.3-0.1-5.6-1-7-2.7
		c-1.4-1.7-2.1-4.6-2.1-8.5v-36.4c0-5.4,0.6-9.2,1.9-11.4c1.3-2.2,3.4-3.3,6.5-3.3c3.2,0,5.5,1.1,6.9,3.2c1.4,2.2,2,6,2,11.5v52
		h39.6v-4.4h-0.5C625.4,306.5,623,305.7,621.5,303.9z"/>
	<path d="M674.4,260.8c-0.5-0.2-1.2-0.5-2.1-0.8c-11.3-4.6-17-9-17-13.4c0-2.6,1.1-4.8,3.2-6.4c2.1-1.7,4.8-2.5,8.2-2.5
		c4.5,0,8.5,1.5,12,4.5c3.5,3,7,8,10.5,15.1h3.8v-21c-4.4-1.3-8.7-2.3-12.9-3c-4.2-0.7-8.3-1-12.3-1c-10.6,0-19,2.5-25.2,7.4
		c-6.2,4.9-9.3,11.5-9.3,19.7c0,5.5,1.6,10.1,4.8,13.6c3.2,3.5,9.6,7.2,19.4,11.2l1,0.4c11.1,4.5,16.6,9.6,16.6,15.2
		c0,2.9-1,5.1-2.8,6.7c-1.9,1.6-4.6,2.4-8,2.4c-6.4,0-12-2.3-16.8-6.8c-4.8-4.5-8.3-11-10.6-19.4h-4v25.2c5.4,2.2,10.8,3.8,16,4.8
		c5.2,1.1,10.4,1.6,15.4,1.6c10.3,0,18.7-2.6,25.1-7.8c6.4-5.2,9.7-12,9.7-20.4c0-5.7-1.5-10.3-4.5-13.7
		C691.4,268.8,684.7,265,674.4,260.8z"/>
	<path d="M736.9,225.9c-3-3.6-4.5-6.6-4.5-8.8c0-2.1,0.6-3.8,1.8-5c1.2-1.3,2.9-1.9,5.1-1.9c1.8,0,3.4,0.5,4.8,1.5
		c1.3,1,3,3.2,4.8,6.5c1.8,3.4,3.6,5.7,5.3,6.9c1.7,1.2,3.8,1.7,6.3,1.7c3.2,0,5.8-0.9,7.8-2.8c1.9-1.9,2.9-4.3,2.9-7.4
		c0-4.6-2-8.4-5.9-11.4c-3.9-3-9-4.5-15.2-4.5c-5.8,0-11.4,1.5-16.7,4.6c-5.3,3.1-9.9,7.3-13.7,12.8c-1.1,1.6-2.7,4-4.6,7.1
		c-3.6,6-6.7,9.9-9.1,11.8v4.3h7.5v54c0,4.1-0.7,6.9-2.2,8.7c-1.5,1.7-3.9,2.6-7.3,2.6h-0.5v4.4H754v-4.4h-1.1
		c-3.5,0-6.1-0.8-7.5-2.5c-1.5-1.7-2.2-4.6-2.2-8.7v-54h14v-5.8h-14.5C741.8,232.7,739.9,229.5,736.9,225.9z"/>
	<path d="M820.7,241.1c-6-6.1-14-9.2-24-9.2c-5.7,0-11.4,1.4-17,4.2c-5.6,2.8-10,6.4-13.3,10.9c-3,4-5.3,8.3-6.8,12.8
		c-1.5,4.5-2.2,9.4-2.2,14.6c0,5.1,0.8,9.8,2.3,14.2c1.5,4.4,3.8,8.4,6.8,12c3.7,4.4,8.1,7.8,13.2,10.2c5.1,2.4,10.6,3.5,16.4,3.5
		c6.4,0,12.4-1.4,18.1-4.1c5.6-2.7,10.6-6.7,15-12v-7.2c-2,2.2-4.2,3.9-6.7,5c-2.5,1.1-5.2,1.7-8.2,1.7c-8,0-14.8-3-20.4-9.1
		c-5.6-6.1-8.6-13.6-8.9-22.8h44.6C829.7,255.4,826.7,247.2,820.7,241.1z M804.9,258.4c-1.6,1.2-5.9,1.8-12.9,1.8H785
		c0-7.8,1-13.5,3-17c2-3.6,5.1-5.4,9.4-5.4c3.3,0,5.8,1.1,7.5,3.4c1.6,2.3,2.5,5.7,2.5,10.3C807.3,254.9,806.5,257.2,804.9,258.4z"
		/>
	<path d="M900.4,235.3c-2.3-2.3-5.4-3.4-9.2-3.4c-3.4,0-6.7,1.1-9.7,3.2c-3,2.2-5.8,5.4-8.4,9.7v-13.5c-9.5,5-17.6,9-24.2,12
		c-6.6,3.1-12.4,5.5-17.4,7.2l9.6,6.8c1.7,1.1,2.8,2.3,3.5,3.5c0.6,1.2,0.9,3,0.9,5.5v29c0,4.1-0.7,6.9-2.2,8.7
		c-1.5,1.7-3.9,2.6-7.3,2.6h-0.5v4.4h50.4v-4.4h-0.5c-3.7,0-6.4-0.9-8-2.6c-1.6-1.7-2.4-4.6-2.4-8.6v-31.8c0-5.8,0.4-9.8,1.1-12.1
		c0.7-2.3,1.9-3.4,3.6-3.4c0.7,0,2.4,1.2,5,3.5c2.6,2.3,5.4,3.5,8.3,3.5c3.2,0,5.7-1,7.7-2.9c1.9-1.9,2.9-4.5,2.9-7.8
		C903.8,240.5,902.7,237.6,900.4,235.3z"/>
</g>
</svg>
