<?xml version="1.0" encoding="utf-8"?>
<!-- Generator: Adobe Illustrator 21.1.0, SVG Export Plug-In . SVG Version: 6.00 Build 0)  -->
<svg version="1.1" xmlns="http://www.w3.org/2000/svg" xmlns:xlink="http://www.w3.org/1999/xlink" x="0px" y="0px"
	 viewBox="0 0 1128 1028" enable-background="new 0 0 1128 1028" xml:space="preserve">
<g id="Shapes">
</g>
<g id="Text" display="none">
	<rect x="749.141" y="709.494" display="inline" fill="none" width="201.587" height="115.7"/>
	<text transform="matrix(1 0 0 1 759.1313 744.8937)" display="inline"><tspan x="0" y="0" fill="#FFFFFF" font-family="'Lato-Regular'" font-size="48px">Personal </tspan><tspan x="17.293" y="57.6" fill="#FFFFFF" font-family="'Lato-Regular'" font-size="48px">Abililty</tspan></text>
	<rect x="412.248" y="253.897" display="inline" fill="none" width="295.349" height="115.7"/>
	
		<text transform="matrix(1 0 0 1 443.1518 289.296)" display="inline" fill="#FFFFFF" font-family="'Lato-Regular'" font-size="48px">Motivation</text>
	<rect x="119.997" y="709.494" display="inline" fill="none" width="317.252" height="115.7"/>
	<text transform="matrix(1 0 0 1 143.0132 744.8937)" display="inline"><tspan x="0" y="0" fill="#FFFFFF" font-family="'Lato-Regular'" font-size="48px">Organisation </tspan><tspan x="62.1" y="57.6" fill="#FFFFFF" font-family="'Lato-Regular'" font-size="48px">Abililty</tspan></text>
	<rect x="412.411" y="731.04" display="inline" fill="none" width="301.587" height="188.093"/>
	<text transform="matrix(1 0 0 1 505.7697 753.1646)" display="inline"><tspan x="0" y="0" fill="#FFFFFF" font-family="'Lato-Regular'" font-size="30px">Business </tspan><tspan x="5.43" y="36" fill="#FFFFFF" font-family="'Lato-Regular'" font-size="30px">as usual</tspan></text>
	<rect x="248.367" y="441.19" display="inline" fill="none" width="248.876" height="43.078"/>
	
		<text transform="matrix(1 0 0 1 306.1384 463.3147)" display="inline" fill="#FFFFFF" font-family="'Lato-Regular'" font-size="30px">Top down</text>
	<rect x="624.703" y="441.19" display="inline" fill="none" width="248.876" height="43.078"/>
	
		<text transform="matrix(1 0 0 1 676.5716 463.3147)" display="inline" fill="#FFFFFF" font-family="'Lato-Regular'" font-size="30px">Bottom Up</text>
</g>
<g id="Description" display="none">
	<rect x="231.006" y="381.27" display="inline" fill="none" width="301.587" height="188.093"/>
	<text transform="matrix(1 0 0 1 293.3528 403.3947)" display="inline"><tspan x="0" y="0" fill="#FFFFFF" font-family="'Lato-Regular'" font-size="30px">A bad system </tspan><tspan x="4.455" y="36" fill="#FFFFFF" font-family="'Lato-Regular'" font-size="30px">beats a good </tspan><tspan x="43.29" y="72" fill="#FFFFFF" font-family="'Lato-Regular'" font-size="30px">person</tspan><tspan x="51.674" y="108" fill="#FFFFFF" font-family="'Lato-Regular'" font-size="30px">every</tspan><tspan x="58.949" y="144" fill="#FFFFFF" font-family="'Lato-Regular'" font-size="30px">time</tspan></text>
	<rect x="594.781" y="403.954" display="inline" fill="none" width="301.587" height="188.093"/>
	<text transform="matrix(1 0 0 1 696.7509 426.0784)" display="inline"><tspan x="0" y="0" fill="#FFFFFF" font-family="'Lato-Regular'" font-size="30px">Agile in </tspan><tspan x="12.742" y="36" fill="#FFFFFF" font-family="'Lato-Regular'" font-size="30px">name </tspan><tspan x="20.677" y="72" fill="#FFFFFF" font-family="'Lato-Regular'" font-size="30px">only</tspan></text>
</g>
<g id="Layer_4">
	<g>
		<g id="Layer_1_1_">
			<path fill="#40C1C4" d="M132.222,505.366C135.045,503.013,132.222,505.366,132.222,505.366l56.299,13.095l-12.859,50.888
				l-0.549,0.47c-43.251,38.918-59.03,99.932-40.068,154.938c12.531,35.979,38.928,65.454,73.314,81.86
				c25.483,12.232,33.952,12.781,63.277,14.506l-38.97,34.893l25.326,44.067c-29.043-2.362-57.443-9.82-83.899-22.033
				C120.75,852.592,79.81,806.852,60.398,751.025C30.759,666.734,63.534,565.271,132.222,505.366L132.222,505.366z"/>
			<path fill="#40C1C4" d="M284.102,820.496c7.057-1.333,27.13-5.41,33.952-7.841c56.691-19.916,91.975-61.787,132.827-110.323
				l128.201-145.921l10.507,49.634l51.986-1.019L511.492,753.299c-44.302,52.613-90.093,107.03-167.17,134.081
				c-25.137,8.891-51.674,13.168-78.332,12.624l-25.248-42.263L284.102,820.496L284.102,820.496z"/>
			<path fill="none" d="M568.888,568.956l-2.901,3.372l0.157,0.078L568.888,568.956z"/>
			<path fill="#4C9FD8" d="M423.829,316.476c15.527-63.554,72.037-108.587,137.453-109.539
				c38.813-0.47,71.353,14.506,101.776,38.421c3.842,2.431,9.174,6.508,9.174,6.508l48.849-0.235l22.347-34.03
				c-13.016-15.682-4.861-7.214-23.68-25.719c-87.763-86.342-228.904-85.19-315.246,2.573
				c-23.494,23.881-41.304,52.75-52.105,84.462l50.653-12.232L423.829,316.476L423.829,316.476z"/>
			<path fill="#4C9FD8" d="M676.075,259.863c5.41,15.212,30.815,73.941,30.815,90.564c0.027,25.559-6.796,50.658-19.759,72.686
				l-33.795,41.636h101.149l1.176-1.96c19.942-34.087,30.443-72.87,30.423-112.362c0-30.502-22.661-100.914-38.421-127.26
				l-22.974,36.696H676.075L676.075,259.863z"/>
			<path fill="#926AAD" d="M643.456,464.828h-87.114l28.306,33.246l-21.092,45.948h237.269c35.363,0,62.65,1.803,83.585,4.548
				l43.047-31.129l-21.249-45.713c-34.897-5.014-70.13-7.32-105.383-6.9L643.456,464.828L643.456,464.828z"/>
			<path fill="#4C9FD8" d="M584.492,549.824l12.624,48.771h49.712l44.302-54.573H589.196L584.492,549.824z"/>
			<path fill="#40C1C4" d="M544.11,544.022h11.762l20.543-44.772l-29.325-34.422h-71.51
				C480.206,487.253,534.623,535.71,544.11,544.022z"/>
			<path fill="#4C9FD8" d="M434.807,544.022l45.086,49.006l7.998-49.712l59.984,5.332l-3.764-4.626
				c-9.488-8.311-68.844-79.194-68.531-79.194h-0.314l-5.332-6.273c-4.121-4.829-8.383-9.536-12.781-14.114
				c-6.743-7.214-13.722-14.663-17.25-20.622c-17.101-28.765-23.593-62.609-18.348-95.66l-22.739-51.437l-49.398,11.605
				c-16.887,57.989-9.441,120.354,20.622,172.738L434.807,544.022L434.807,544.022z"/>
			<path fill="#926AAD" d="M842.618,820.496c-7.057-1.333-27.13-5.41-33.952-7.841c-56.691-19.916-91.975-61.787-132.827-110.323
				l-58.259-69.785l-53.319,60.768l51.045,60.062c44.302,52.613,90.093,107.03,167.17,134.081
				c25.137,8.891,51.674,13.168,78.332,12.624l-46.889-34.108L842.618,820.496L842.618,820.496z M551.795,555.47l-58.886-4.705
				l-6.743,49.79l27.051,31.991l52.77-60.219L551.795,555.47z"/>
			<path fill="#926AAD" d="M1004.378,510.854c-21.484-19.603-53.633-30.972-88.525-37.48l22.268,45.086l-43.518,31.521
				c37.01,5.881,51.202,14.584,56.377,19.367l0.549,0.47c43.251,38.918,59.029,99.932,40.068,154.938
				c-12.531,35.979-38.928,65.454-73.314,81.86c-25.483,12.232-37.794,17.799-65.237,14.192l-28.776,44.067l48.85,34.579
				c88.051-6.963,163.74-65.135,193.124-148.43C1095.643,665.805,1071.29,571.265,1004.378,510.854L1004.378,510.854z"/>
			<path fill="#FFFFFF" d="M672.625,490.233h8.155c2.117,0,3.921,0.235,5.489,0.627c1.537,0.398,2.96,1.15,4.156,2.195
				c3.215,2.744,4.783,6.9,4.783,12.546c0,1.882-0.157,3.528-0.47,5.097c-0.537,2.852-1.965,5.46-4.077,7.449
				c-1.644,1.478-3.692,2.434-5.881,2.744c-1.098,0.157-2.431,0.235-3.842,0.235h-8.155c-1.176,0-1.96-0.157-2.588-0.549
				c-0.627-0.392-0.941-0.862-1.098-1.49c-0.176-0.798-0.255-1.614-0.235-2.431v-22.661c0-1.333,0.314-2.352,0.941-2.901
				C670.272,490.468,671.292,490.233,672.625,490.233L672.625,490.233z M675.055,495.172v20.936h4.705l2.431-0.078l1.803-0.392
				c0.627-0.235,1.176-0.549,1.647-0.941c2.117-1.803,3.136-4.783,3.136-9.174c0-3.058-0.47-5.332-1.411-6.822
				c-0.941-1.49-2.039-2.509-3.372-2.901c-1.333-0.392-2.98-0.627-4.861-0.627H675.055L675.055,495.172z M716.299,511.325h-11.213
				c0,1.333,0.314,2.431,0.784,3.45c0.549,1.019,1.176,1.725,2.039,2.274s1.803,0.784,2.823,0.784c0.706,0,1.333-0.078,1.882-0.235
				c0.549-0.157,1.098-0.392,1.647-0.784l1.49-1.098l1.725-1.568c0.314-0.235,0.706-0.392,1.255-0.392
				c0.627,0,1.098,0.157,1.411,0.47c0.392,0.314,0.549,0.784,0.549,1.333s-0.235,1.098-0.627,1.803
				c-0.392,0.706-1.019,1.333-1.803,2.039c-0.923,0.692-1.957,1.222-3.058,1.568c-1.255,0.392-2.666,0.627-4.313,0.627
				c-3.685,0-6.586-1.019-8.625-3.136c-2.039-2.117-3.058-4.94-3.058-8.547c-0.056-3.089,1.001-6.095,2.98-8.468
				c0.941-1.019,2.195-1.803,3.607-2.352c3.42-1.324,7.243-1.124,10.507,0.549c2.968,1.714,4.793,4.884,4.783,8.311
				c0,1.411-0.392,2.352-1.255,2.823C718.965,511.09,717.789,511.325,716.299,511.325L716.299,511.325z M705.086,508.032h10.429
				c-0.028-1.596-0.579-3.138-1.568-4.391c-0.947-0.971-2.251-1.509-3.607-1.49c-1.411,0-2.588,0.47-3.528,1.49
				C705.733,504.853,705.121,506.409,705.086,508.032z M730.648,501.445v0.706c1.098-1.333,2.195-2.274,3.372-2.901
				c1.176-0.627,2.509-0.941,3.92-0.941c1.803,0,3.372,0.47,4.861,1.333c1.49,0.941,2.666,2.274,3.528,3.999
				c0.862,1.725,1.333,3.842,1.333,6.194c0.065,3.112-0.931,6.153-2.823,8.625c-0.836,0.997-1.88,1.8-3.058,2.352
				c-1.176,0.549-2.431,0.784-3.842,0.784c-1.647,0-3.058-0.314-4.156-1.019c-1.098-0.627-2.195-1.647-3.215-2.901v8.625
				c0,2.509-0.941,3.764-2.744,3.764c-1.098,0-1.803-0.314-2.117-0.941c-0.314-0.627-0.549-1.568-0.549-2.823v-24.778
				c0-1.098,0.235-1.882,0.706-2.431s1.098-0.784,1.96-0.784c0.784,0,1.49,0.314,1.96,0.863
				C730.335,499.642,730.648,500.426,730.648,501.445L730.648,501.445z M741.861,509.835c0-1.49-0.235-2.823-0.706-3.921
				c-0.383-1.016-1.066-1.892-1.96-2.509c-0.802-0.567-1.762-0.869-2.744-0.863c-1.568,0-2.901,0.627-3.999,1.882
				c-1.098,1.255-1.647,3.058-1.647,5.489c0,2.274,0.549,4.077,1.647,5.332c0.977,1.203,2.449,1.895,3.999,1.882
				c0.941,0,1.803-0.314,2.666-0.862s1.49-1.411,1.96-2.509C741.626,512.736,741.861,511.403,741.861,509.835z M752.289,518.068
				v-24.934c0-1.176,0.235-2.039,0.784-2.588s1.176-0.863,2.039-0.863s1.568,0.314,2.117,0.863c0.549,0.549,0.784,1.49,0.784,2.588
				v24.934c0,1.176-0.235,2.039-0.784,2.588s-1.255,0.862-2.117,0.862s-1.49-0.314-2.039-0.941
				C752.525,520.107,752.289,519.244,752.289,518.068z M785.457,509.913c0.123,3.128-1.006,6.175-3.136,8.468
				c-1.002,1.055-2.238,1.86-3.607,2.352c-3.024,1.189-6.385,1.189-9.409,0c-1.376-0.517-2.611-1.35-3.607-2.431
				c-2.149-2.25-3.283-5.282-3.136-8.39c-0.153-3.118,0.948-6.167,3.058-8.468c1.019-1.019,2.195-1.803,3.607-2.352
				c3.024-1.189,6.385-1.189,9.409,0c1.411,0.549,2.666,1.333,3.607,2.431c1.034,1.035,1.813,2.297,2.274,3.685
				C785.222,506.62,785.457,508.188,785.457,509.913L785.457,509.913z M779.733,509.913c0-2.352-0.549-4.156-1.568-5.489
				c-0.979-1.297-2.532-2.03-4.156-1.96c-1.055-0.005-2.09,0.294-2.98,0.863c-0.914,0.63-1.601,1.537-1.96,2.588
				c-0.47,1.176-0.706,2.431-0.706,3.999c0,1.49,0.235,2.823,0.706,3.921c0.47,1.098,1.098,1.96,1.96,2.588
				c0.862,0.627,1.882,0.862,2.98,0.862c1.725,0,3.136-0.627,4.156-1.96C779.184,514.069,779.733,512.187,779.733,509.913
				L779.733,509.913z M794.709,522.302l0.549-1.255l-7.057-17.799c-0.351-0.684-0.564-1.43-0.627-2.195
				c0-0.47,0.157-0.941,0.392-1.333c0.235-0.392,0.627-0.784,1.019-1.019c0.433-0.24,0.917-0.375,1.411-0.392
				c0.862,0,1.49,0.235,1.882,0.784c0.392,0.549,0.784,1.255,1.098,2.274l4.861,14.114l4.626-13.173l1.019-2.509
				c0.314-0.627,0.627-1.019,0.941-1.255c0.314-0.235,0.784-0.314,1.411-0.314c0.439-0.015,0.874,0.094,1.255,0.314
				c0.392,0.235,0.706,0.549,0.941,0.941c0.235,0.392,0.314,0.784,0.314,1.255l-0.235,1.176l-0.47,1.49l-7.527,19.603
				c-0.627,1.725-1.255,3.058-1.882,4.077c-0.584,0.968-1.426,1.755-2.431,2.274c-1.019,0.549-2.352,0.784-4.156,0.784
				c-1.647,0-2.98-0.157-3.764-0.549c-0.784-0.392-1.255-1.019-1.255-2.039c0-0.627,0.235-1.176,0.627-1.49
				c0.392-0.392,1.019-0.549,1.803-0.549l0.941,0.157l0.941,0.157c0.541,0.033,1.081-0.075,1.568-0.314
				c0.414-0.256,0.763-0.605,1.019-1.019C794.004,523.949,794.317,523.243,794.709,522.302L794.709,522.302z M1047.268,628.627
				c0.854,2.748,0.935,5.677,0.235,8.468c-0.627,2.588-1.96,4.705-3.999,6.508c-4.011,3.223-9.05,4.893-14.192,4.705
				c-2.039-0.078-3.921-0.627-5.646-1.49c-1.75-0.875-3.259-2.168-4.391-3.764c-1.3-1.785-2.233-3.811-2.744-5.959
				c-0.627-2.352-0.784-4.548-0.549-6.586c0.467-3.977,2.717-7.526,6.116-9.644c1.725-1.176,3.764-2.039,5.959-2.588
				c2.274-0.627,4.469-0.862,6.586-0.706c3.952,0.192,7.608,2.149,9.958,5.332C1045.7,624.392,1046.641,626.353,1047.268,628.627
				L1047.268,628.627z M1034.252,641.329c1.977-0.44,3.827-1.325,5.41-2.588c1.344-0.998,2.333-2.399,2.823-3.999
				c0.47-1.49,0.47-3.136,0-4.861c-0.547-2.3-2.103-4.23-4.234-5.253c-1.098-0.47-2.352-0.784-3.764-0.862
				c-3.202-0.079-6.359,0.765-9.096,2.431c-2.21,1.277-3.756,3.452-4.234,5.959c-0.191,1.179-0.111,2.386,0.235,3.528
				c0.773,3.189,3.415,5.583,6.665,6.038C1029.783,642.113,1031.822,641.956,1034.252,641.329z M1041.388,658.344l-0.706,0.078
				c1.411,0.941,2.588,1.96,3.293,2.98c0.706,1.019,1.255,2.352,1.411,3.842c0.454,3.611-1.268,7.148-4.391,9.017
				c-1.831,1.131-3.896,1.828-6.037,2.039c-1.725,0.235-3.372,0.157-4.94-0.157c-1.49-0.314-2.823-0.862-3.92-1.647
				c-3.476-2.367-4.898-6.794-3.45-10.742c0.549-1.176,1.333-2.352,2.509-3.529l-8.547,1.019c-2.509,0.314-3.842-0.47-4.077-2.274
				c-0.157-1.098,0.157-1.803,0.706-2.274c0.846-0.473,1.78-0.766,2.744-0.862l24.621-2.823c1.098-0.157,1.96,0,2.509,0.392
				c0.627,0.392,0.941,1.019,1.019,1.882c0.078,0.784-0.078,1.49-0.627,2.039C1043.191,657.873,1042.407,658.266,1041.388,658.344
				L1041.388,658.344z M1034.331,670.498c1.49-0.157,2.744-0.549,3.764-1.176c0.954-0.497,1.744-1.259,2.274-2.195
				c0.47-0.862,0.706-1.803,0.549-2.823c-0.157-1.568-0.941-2.823-2.352-3.764c-1.333-0.941-3.293-1.255-5.646-1.019
				c-1.91,0.086-3.722,0.867-5.097,2.195c-1.141,1.092-1.669,2.676-1.411,4.234c0.078,0.941,0.47,1.803,1.098,2.509
				c0.627,0.706,1.568,1.333,2.666,1.647C1031.43,670.576,1032.763,670.733,1034.331,670.498L1034.331,670.498z M1033.39,697.392
				l0.157-11.213c-1.333,0-2.431,0.235-3.45,0.706c-1.019,0.47-1.803,1.176-2.274,2.039s-0.784,1.803-0.784,2.823
				c-0.009,1.239,0.316,2.458,0.941,3.528l1.098,1.49l1.568,1.803c0.235,0.314,0.392,0.706,0.392,1.255
				c0,0.627-0.157,1.098-0.47,1.411c-0.314,0.392-0.784,0.549-1.411,0.549c-0.549,0-1.098-0.235-1.803-0.627
				c-0.783-0.477-1.452-1.119-1.96-1.882c-1.494-2.188-2.237-4.802-2.117-7.449c0.078-3.685,1.176-6.508,3.293-8.547
				c2.117-2.039,5.018-2.98,8.625-2.98c1.725,0,3.293,0.314,4.705,0.862c1.411,0.549,2.666,1.255,3.685,2.274
				c1.019,1.019,1.803,2.195,2.352,3.607c1.252,3.419,0.995,7.209-0.706,10.429c-0.941,1.568-2.196,2.744-3.764,3.528
				c-1.49,0.784-3.058,1.176-4.626,1.098c-1.411,0-2.352-0.47-2.823-1.255C1033.547,700.058,1033.39,698.882,1033.39,697.392
				L1033.39,697.392z M1036.84,686.18l-0.157,10.429c1.96-0.078,3.45-0.627,4.469-1.49c1.004-0.924,1.549-2.244,1.49-3.607
				c0-1.411-0.47-2.588-1.411-3.528C1040,686.924,1038.46,686.291,1036.84,686.18z M1030.018,712.604l-4.783-0.627
				c-1.176-0.157-1.96-0.549-2.509-1.176c-0.47-0.627-0.706-1.333-0.627-2.195c0.053-0.784,0.494-1.491,1.176-1.882
				c0.627-0.47,1.568-0.627,2.666-0.47l15.839,2.117c2.588,0.314,3.685,1.411,3.45,3.293c-0.157,0.941-0.549,1.568-1.176,1.96
				c-0.627,0.314-1.568,0.47-2.744,0.314c1.098,0.862,1.882,1.647,2.352,2.431s0.706,1.803,0.549,2.98
				c-0.175,1.213-0.631,2.367-1.333,3.372c-0.784,1.019-1.646,1.49-2.588,1.411c-0.706-0.078-1.255-0.392-1.647-0.941
				s-0.549-1.098-0.47-1.647c0-0.235,0.235-0.706,0.549-1.49c0.392-0.784,0.549-1.49,0.627-2.039c0.078-0.862,0-1.568-0.392-2.117
				c-0.455-0.651-1.079-1.165-1.803-1.49C1034.864,713.497,1032.465,712.891,1030.018,712.604z M1019.903,737.538
				c-0.706-1.647-1.176-3.136-1.411-4.469c-0.229-1.49-0.149-3.012,0.235-4.469c0.392-1.411,0.941-2.588,1.803-3.529
				c0.787-0.887,1.785-1.561,2.901-1.96c1.098-0.314,2.196-0.392,3.372-0.078c1.49,0.392,2.744,1.176,3.528,2.431
				c0.888,1.342,1.302,2.943,1.176,4.548l-0.078,2.744l-0.078,3.764l0.078,3.45c1.49,0.314,2.666,0.235,3.45-0.078
				c0.784-0.392,1.411-1.333,1.882-2.98c0.392-1.411,0.392-2.509,0.235-3.372c-0.235-0.784-0.627-1.568-1.333-2.274
				c-0.627-0.706-1.098-1.176-1.255-1.49c-0.235-0.235-0.235-0.784-0.078-1.49c0.157-0.627,0.47-1.098,1.019-1.49
				c0.549-0.392,1.098-0.47,1.725-0.314c1.033,0.265,1.946,0.873,2.588,1.725c0.784,0.941,1.255,2.195,1.49,3.842
				c0.235,1.647,0.078,3.528-0.47,5.724c-0.441,1.97-1.21,3.852-2.274,5.567c-0.828,1.196-2.098,2.013-3.528,2.274
				c-1.411,0.235-3.136,0.157-5.175-0.392l-3.293-0.862l-3.058-0.784c-1.103-0.267-2.239-0.372-3.372-0.314
				c-0.782,0.084-1.57,0.084-2.352,0c-0.549-0.157-1.019-0.549-1.333-1.176c-0.314-0.627-0.392-1.333-0.235-2.039
				c0.157-0.549,0.549-1.098,1.255-1.49L1019.903,737.538L1019.903,737.538z M1028.058,739.185l-0.078-3.764l0.078-3.45
				c-0.013-0.68-0.174-1.348-0.47-1.96c-0.342-0.67-0.983-1.136-1.725-1.255c-0.829-0.226-1.715-0.083-2.431,0.392
				c-0.784,0.47-1.255,1.255-1.49,2.274c-0.518,2.011-0.021,4.149,1.333,5.724c1.155,0.936,2.533,1.557,3.999,1.803
				L1028.058,739.185z M1035.429,753.691l-0.235,0.627l3.215,1.176l2.039,0.784c0.47,0.235,0.863,0.47,1.098,0.862
				c0.314,0.314,0.47,0.784,0.549,1.255c0.078,0.47,0.078,0.941-0.157,1.49c-0.235,0.706-0.706,1.176-1.411,1.568
				c-0.47,0.235-1.019,0.314-1.49,0.235l-2.196-0.627l-3.685-1.333l-0.706,1.96c-0.214,0.635-0.627,1.185-1.176,1.568
				c-0.47,0.235-1.019,0.314-1.647,0.078c-0.706-0.235-1.098-0.706-1.176-1.411c-0.078-0.706,0.078-1.568,0.47-2.588l0.392-1.019
				l-9.958-3.607l-1.96-0.627c-0.47-0.078-0.941-0.078-1.255,0.078c-0.392,0.157-0.706,0.549-0.862,1.098l-0.314,1.333
				c-0.039,0.457-0.145,0.906-0.314,1.333c-0.157,0.47-0.47,0.784-0.941,1.019s-0.941,0.235-1.49,0.078
				c-0.862-0.314-1.333-1.019-1.49-2.117c-0.157-1.098,0.157-2.588,0.784-4.313s1.333-2.901,2.274-3.528
				c0.862-0.627,1.882-0.941,2.98-0.862c1.098,0.078,2.509,0.47,4.156,1.019l10.35,3.764l0.235-0.706
				c0.314-0.784,0.706-1.333,1.176-1.568c0.549-0.235,1.098-0.314,1.647-0.078s0.941,0.627,1.176,1.176
				C1035.821,752.122,1035.742,752.828,1035.429,753.691z M1011.278,777.998l4.94-10.115c-1.065-0.55-2.252-0.82-3.45-0.784
				c-1.098,0-2.117,0.314-2.901,0.863c-0.846,0.533-1.526,1.294-1.96,2.195c-0.313,0.56-0.525,1.17-0.627,1.803
				c-0.078,0.549-0.157,1.176-0.078,1.803l0.314,1.803l0.627,2.274c0.078,0.392,0,0.784-0.235,1.333
				c-0.235,0.549-0.627,0.862-1.098,1.098c-0.47,0.157-0.941,0.157-1.49-0.078c-0.47-0.235-0.941-0.706-1.333-1.333
				c-0.47-0.706-0.784-1.49-0.941-2.509c-0.235-1.019-0.235-2.195-0.078-3.45c0.157-1.333,0.627-2.666,1.333-4.156
				c1.647-3.293,3.842-5.41,6.665-6.351s5.802-0.549,9.017,1.019c1.49,0.784,2.823,1.647,3.921,2.744
				c2.118,2.03,3.188,4.921,2.901,7.841c-0.16,1.61-0.612,3.178-1.333,4.626c-0.844,1.837-2.172,3.409-3.842,4.548
				c-1.568,1.019-3.215,1.568-4.861,1.647c-1.725,0.078-3.215-0.235-4.626-0.941c-1.333-0.627-1.96-1.411-1.96-2.352
				C1010.181,780.585,1010.573,779.331,1011.278,777.998L1011.278,777.998z M1019.198,769.373l-4.626,9.331
				c1.803,0.706,3.372,0.941,4.626,0.549c1.295-0.404,2.352-1.347,2.901-2.588c0.623-1.189,0.708-2.586,0.235-3.842
				C1021.704,771.354,1020.6,770.139,1019.198,769.373z M607.544,701.391l10.977-17.093l-15.525,14.584
				c-0.862,0.784-1.647,1.255-2.509,1.255c-0.784,0-1.49-0.314-2.117-0.941c-0.553-0.561-0.839-1.332-0.784-2.117
				c0.078-0.784,0.549-1.568,1.411-2.431l17.877-16.623c1.019-0.941,1.882-1.255,2.744-1.098c0.955,0.255,1.805,0.803,2.431,1.568
				l1.333,1.411c0.784,0.862,1.333,1.568,1.49,2.039c0.235,0.549,0.235,1.098,0,1.647l-1.333,2.431l-9.252,14.82l15.368-8.311
				c1.098-0.627,1.96-1.019,2.509-1.176c0.54-0.173,1.125-0.146,1.647,0.078c0.549,0.235,1.176,0.784,1.96,1.647l1.333,1.411
				c0.784,0.862,1.333,1.725,1.411,2.588c0.157,0.862-0.314,1.725-1.255,2.666l-17.799,16.701c-0.862,0.784-1.647,1.255-2.509,1.255
				c-1.602,0.002-2.903-1.295-2.905-2.897c0-0.054,0.001-0.107,0.004-0.161c0.078-0.784,0.549-1.568,1.411-2.431l15.525-14.584
				l-17.721,9.88l-2.588,1.333c-0.616,0.271-1.291,0.379-1.96,0.314c-0.706-0.078-1.411-0.47-2.117-1.176
				c-0.47-0.549-0.784-1.098-0.941-1.647c-0.078-0.549-0.078-1.176,0.078-1.725s0.392-1.098,0.706-1.568L607.544,701.391
				L607.544,701.391z M644.24,730.952c-1.173,1.108-2.525,2.01-3.999,2.666c-2.738,1.182-5.853,1.124-8.547-0.157
				c-1.333-0.627-2.666-1.568-3.842-2.901c-1.111-1.154-1.99-2.512-2.588-3.999c-0.544-1.37-0.785-2.841-0.706-4.313
				c0.078-1.49,0.47-2.901,1.098-4.234c1.511-2.878,3.939-5.168,6.9-6.508c2.712-1.178,5.802-1.121,8.468,0.157
				c2.88,1.471,5.174,3.876,6.508,6.822c0.549,1.411,0.784,2.823,0.784,4.313c-0.078,1.411-0.47,2.823-1.098,4.234
				C646.439,728.487,645.434,729.81,644.24,730.952L644.24,730.952z M640.32,726.718c1.725-1.568,2.666-3.215,2.901-4.861
				c0.235-1.647-0.235-3.136-1.411-4.391c-0.72-0.768-1.645-1.312-2.666-1.568c-1.077-0.247-2.206-0.137-3.215,0.314
				c-1.176,0.47-2.274,1.176-3.372,2.195c-0.998,0.916-1.821,2.005-2.431,3.215c-0.478,1-0.668,2.113-0.549,3.215
				c0.157,1.019,0.627,1.96,1.411,2.823c1.077,1.228,2.691,1.844,4.313,1.647C636.948,729.148,638.595,728.286,640.32,726.718
				L640.32,726.718z M657.1,732.206l-0.47,0.47c1.647-0.157,3.136-0.078,4.391,0.392c1.255,0.47,2.431,1.255,3.529,2.352
				c1.019,1.098,1.725,2.352,2.039,3.607c0.314,1.333,0.235,2.588-0.235,3.842c-0.235,0.784-0.627,1.49-1.176,2.117l-2.117,2.274
				l-7.763,7.292c-0.862,0.784-1.647,1.176-2.431,1.176s-1.49-0.314-2.039-0.862c-0.553-0.561-0.839-1.332-0.784-2.117
				c0.078-0.784,0.549-1.568,1.333-2.352l6.979-6.586c1.411-1.333,2.274-2.509,2.666-3.529c0.392-1.098,0-2.195-1.098-3.293
				c-0.706-0.784-1.568-1.255-2.588-1.411c-1.019-0.157-2.039-0.078-3.136,0.392c-0.784,0.392-2.117,1.411-3.764,2.98l-5.253,4.94
				c-0.862,0.784-1.647,1.176-2.431,1.176c-0.784,0-1.49-0.314-2.039-0.941c-0.549-0.627-0.784-1.333-0.706-2.117
				c0.078-0.784,0.549-1.568,1.333-2.352l12.075-11.369c0.784-0.784,1.568-1.098,2.274-1.176c0.706,0,1.333,0.235,1.96,0.862
				c0.314,0.392,0.549,0.784,0.706,1.255c0.078,0.47,0.078,0.941-0.078,1.411C658.119,731.108,657.649,731.736,657.1,732.206
				L657.1,732.206z M675.212,751.652l-12.075,11.37c-0.862,0.784-1.647,1.176-2.431,1.176c-0.784,0-1.49-0.314-2.039-0.941
				c-0.553-0.561-0.839-1.332-0.784-2.117c0.078-0.784,0.549-1.568,1.333-2.352l11.997-11.291c0.862-0.784,1.647-1.176,2.431-1.176
				c0.784,0,1.49,0.314,2.039,0.941c0.549,0.627,0.862,1.333,0.784,2.117C676.388,750.162,675.996,750.946,675.212,751.652
				L675.212,751.652z M677.643,745.458c-1.106-1.036-1.164-2.773-0.128-3.879c0.065-0.07,0.134-0.136,0.206-0.198
				c0.627-0.549,1.255-0.784,2.039-0.706c0.784,0.078,1.411,0.392,1.96,0.941c0.47,0.549,0.784,1.176,0.862,1.96
				c0.078,0.784-0.235,1.411-0.941,2.039c-0.627,0.627-1.333,0.862-2.117,0.784C678.819,746.398,678.192,746.085,677.643,745.458
				L677.643,745.458z M681.563,754.318l0.47,0.47l2.509-2.352l1.647-1.411c0.365-0.301,0.794-0.516,1.255-0.627
				c0.47-0.078,0.863-0.078,1.333,0.078c0.475,0.158,0.905,0.426,1.255,0.784c0.47,0.549,0.784,1.176,0.784,2.039
				c0,0.549-0.157,1.019-0.47,1.49c-0.314,0.47-0.784,1.019-1.49,1.647l-2.823,2.666l1.411,1.568
				c0.549,0.627,0.863,1.176,0.863,1.725s-0.235,1.098-0.627,1.49c-0.549,0.549-1.176,0.706-1.803,0.47
				c-0.627-0.235-1.333-0.784-2.117-1.568l-0.706-0.784l-7.684,7.214l-1.411,1.49c-0.314,0.392-0.47,0.784-0.549,1.176
				c0,0.392,0.157,0.862,0.549,1.255c0.235,0.235,0.549,0.549,1.098,0.862l1.019,0.862c0.314,0.314,0.47,0.784,0.47,1.333
				s-0.235,0.941-0.627,1.333c-0.706,0.627-1.568,0.784-2.588,0.314c-1.019-0.47-2.195-1.255-3.528-2.666
				c-1.255-1.333-1.96-2.509-2.117-3.607c-0.157-1.098,0-2.117,0.549-3.058c0.549-0.941,1.49-2.039,2.823-3.215l8.076-7.527
				l-0.549-0.549c-0.549-0.627-0.862-1.176-0.862-1.803c0-0.549,0.235-1.098,0.627-1.49c0.47-0.392,0.941-0.549,1.568-0.549
				C680.544,753.377,680.936,753.691,681.563,754.318L681.563,754.318z M698.343,788.505c-1.173,1.108-2.525,2.01-3.999,2.666
				c-2.738,1.182-5.853,1.124-8.547-0.157c-1.333-0.627-2.666-1.568-3.842-2.901c-1.112-1.154-1.99-2.512-2.588-3.999
				c-0.544-1.37-0.785-2.841-0.706-4.313c0.078-1.49,0.47-2.901,1.098-4.234c1.511-2.878,3.939-5.168,6.9-6.508
				c2.712-1.178,5.802-1.121,8.468,0.157c2.88,1.471,5.174,3.876,6.508,6.822c0.549,1.411,0.784,2.823,0.784,4.313
				C702.179,783.497,700.716,786.424,698.343,788.505L698.343,788.505z M694.423,784.349c1.725-1.568,2.666-3.215,2.901-4.861
				c0.235-1.647-0.235-3.136-1.411-4.391c-0.72-0.767-1.645-1.312-2.666-1.568c-1.077-0.247-2.206-0.137-3.215,0.314
				c-1.176,0.47-2.274,1.176-3.372,2.195c-1.098,1.019-1.882,2.117-2.431,3.215s-0.706,2.195-0.549,3.215
				c0.157,1.019,0.627,1.96,1.411,2.823c1.077,1.228,2.691,1.844,4.313,1.647C691.051,786.78,692.698,785.917,694.423,784.349
				L694.423,784.349z M702.891,798.306l-3.528,3.293c-0.862,0.784-1.647,1.176-2.509,1.176c-0.784,0-1.49-0.314-2.039-0.941
				c-0.515-0.584-0.795-1.339-0.784-2.117c0.078-0.784,0.549-1.568,1.333-2.352l11.683-10.977c1.882-1.803,3.45-1.96,4.705-0.627
				c0.627,0.706,0.941,1.411,0.784,2.117c-0.157,0.706-0.627,1.49-1.49,2.352c1.333-0.314,2.431-0.392,3.372-0.314
				s1.803,0.627,2.666,1.49s1.411,1.96,1.725,3.215c0.314,1.255,0.157,2.195-0.549,2.901c-0.549,0.47-1.098,0.706-1.803,0.627
				c-0.627-0.078-1.176-0.235-1.568-0.706l-0.784-1.411c-0.392-0.784-0.784-1.411-1.176-1.803c-0.469-0.574-1.145-0.94-1.882-1.019
				c-0.706-0.078-1.411,0.078-2.274,0.47s-1.725,0.941-2.666,1.647L702.891,798.306L702.891,798.306z M442.099,791.72l-6.43,6.9
				c-0.941,1.019-1.803,1.49-2.666,1.49c-0.863,0-1.725-0.47-2.744-1.333l-17.015-15.76c-1.019-0.941-1.49-1.803-1.568-2.666
				c0-0.862,0.392-1.725,1.333-2.744l6.822-7.371c1.019-1.098,1.96-1.96,2.823-2.588c0.799-0.667,1.737-1.149,2.744-1.411
				c0.784-0.235,1.647-0.314,2.509-0.314c1.75,0.08,3.416,0.774,4.705,1.96c2.274,2.117,2.901,4.783,1.803,7.998
				c3.685-2.117,6.9-1.882,9.644,0.627c2.436,2.248,3.352,5.701,2.352,8.86c-0.314,0.941-0.862,1.96-1.568,2.98
				C444.137,789.367,443.196,790.465,442.099,791.72L442.099,791.72z M418.184,779.017l5.881,5.41l3.921-4.234
				c1.098-1.176,1.803-2.117,2.117-2.98c0.392-0.862,0.392-1.647,0.078-2.588c-0.157-0.627-0.549-1.255-1.098-1.725
				c-1.176-1.098-2.274-1.333-3.372-0.863c-1.098,0.47-2.431,1.568-3.999,3.215L418.184,779.017z M431.749,782.703l-4.391,4.783
				l6.586,6.116l4.548-4.94c2.901-3.136,3.215-5.724,0.941-7.763c-1.176-1.098-2.352-1.411-3.607-1.098
				C434.23,780.383,432.821,781.385,431.749,782.703L431.749,782.703z M462.093,766.08l-0.549-0.47
				c0.157,1.098,0.235,2.117,0.157,3.058c-0.157,2.024-1.05,3.921-2.509,5.332c-0.941,1.019-2.039,1.725-3.136,2.117
				c-1.098,0.392-2.352,0.47-3.45,0.235c-1.411-0.314-2.901-1.255-4.626-2.823l-8.39-7.763c-0.863-0.784-1.333-1.568-1.333-2.352
				c0-0.784,0.157-1.49,0.784-2.117c0.627-0.627,1.255-0.941,2.039-0.941c0.784,0,1.568,0.392,2.431,1.176l6.743,6.273
				c0.941,0.941,1.882,1.568,2.666,2.039c0.707,0.426,1.53,0.618,2.352,0.549c0.784-0.078,1.49-0.47,2.195-1.176
				c1.366-1.489,1.706-3.652,0.862-5.489c-0.392-0.784-1.568-2.117-3.607-3.999l-5.097-4.783c-0.862-0.784-1.255-1.568-1.333-2.352
				c-0.078-0.784,0.235-1.49,0.784-2.117c0.549-0.627,1.255-0.941,2.039-0.941c0.784,0,1.568,0.392,2.431,1.176l12.232,11.291
				c0.784,0.706,1.255,1.49,1.333,2.195c0.083,0.728-0.178,1.452-0.706,1.96c-0.549,0.549-1.176,0.862-1.96,0.862
				C463.583,767.177,462.877,766.785,462.093,766.08L462.093,766.08z M454.88,740.283c-0.508,0.566-1.205,0.929-1.96,1.019
				c-0.784,0.078-1.411-0.157-2.117-0.784c-0.578-0.516-0.895-1.264-0.862-2.039c0.009-0.752,0.287-1.475,0.784-2.039
				c0.47-0.549,1.098-0.862,1.882-0.941c0.706-0.078,1.411,0.157,2.117,0.784c1.145,0.993,1.268,2.727,0.275,3.871
				C454.96,740.199,454.92,740.241,454.88,740.283L454.88,740.283z M461.152,742.243l12.154,11.291
				c0.862,0.784,1.333,1.568,1.333,2.352c0.078,0.784-0.157,1.49-0.784,2.117c-0.493,0.609-1.258,0.933-2.039,0.862
				c-0.784,0-1.647-0.392-2.431-1.176l-12.075-11.213c-0.862-0.784-1.255-1.568-1.333-2.352c-0.078-0.784,0.157-1.49,0.784-2.117
				c0.549-0.627,1.255-0.941,2.039-0.941C459.663,741.224,460.447,741.537,461.152,742.243z M477.383,749.221l-18.27-16.937
				c-0.862-0.784-1.333-1.568-1.411-2.352c-0.078-0.784,0.157-1.49,0.784-2.117s1.255-0.941,2.039-0.941
				c0.784,0,1.647,0.392,2.431,1.176l18.27,16.937c0.863,0.784,1.333,1.568,1.411,2.352c0.078,0.784-0.235,1.49-0.784,2.117
				c-0.493,0.609-1.258,0.933-2.039,0.862C479.03,750.319,478.246,749.927,477.383,749.221L477.383,749.221z M496.202,729.227
				l-0.392-0.392c0.157,1.176,0.157,2.195,0,3.136c-0.076,0.923-0.315,1.826-0.706,2.666c-0.392,0.862-0.941,1.647-1.647,2.431
				c-1.828,1.966-4.461,2.979-7.135,2.744c-1.411-0.078-2.744-0.47-4.156-1.176c-1.333-0.706-2.666-1.568-3.921-2.744
				c-2.338-1.919-3.898-4.622-4.391-7.606c-0.307-2.638,0.619-5.27,2.509-7.135c1.098-1.176,2.274-2.039,3.45-2.509
				c1.176-0.47,2.588-0.706,4.156-0.627l-6.194-5.802c-0.862-0.784-1.333-1.568-1.49-2.352c-0.157-0.784,0.078-1.49,0.706-2.117
				c0.627-0.627,1.255-0.941,1.96-0.941s1.49,0.392,2.274,1.176l18.583,17.25c0.784,0.706,1.255,1.49,1.255,2.195
				c0,0.706-0.157,1.411-0.706,1.96c-0.549,0.549-1.176,0.862-1.96,0.862C497.77,730.324,496.986,729.932,496.202,729.227
				L496.202,729.227z M482.323,731.736c0.975,0.976,2.153,1.725,3.45,2.195c1,0.383,2.09,0.464,3.136,0.235
				c0.941-0.235,1.803-0.706,2.509-1.49c1.475-1.526,1.85-3.806,0.941-5.724c-0.47-1.098-1.255-2.195-2.509-3.293
				c-1.098-1.019-2.274-1.725-3.372-2.117c-1.098-0.392-2.195-0.47-3.215-0.235c-1.019,0.235-1.882,0.706-2.509,1.49
				c-0.706,0.784-1.098,1.647-1.255,2.666c-0.157,1.019,0.078,2.039,0.549,3.136C480.524,729.824,481.307,730.904,482.323,731.736
				L482.323,731.736z M97.408,743.811l4.077,5.489l18.034-13.251c1.019-0.784,1.96-1.098,2.823-1.019
				c0.863,0.078,1.568,0.47,2.039,1.255c0.549,0.784,0.706,1.568,0.549,2.352c-0.157,0.862-0.784,1.647-1.803,2.431l-18.034,13.251
				l4.077,5.489c0.627,0.862,0.941,1.647,0.863,2.352c-0.066,0.698-0.439,1.331-1.019,1.725c-0.627,0.47-1.333,0.627-2.039,0.47
				c-0.706-0.157-1.333-0.627-1.96-1.49l-11.762-15.996c-0.627-0.862-0.941-1.647-0.863-2.352c0.066-0.698,0.439-1.331,1.019-1.725
				c0.627-0.47,1.255-0.627,1.96-0.47C96.075,742.478,96.78,742.948,97.408,743.811L97.408,743.811z M101.407,716.054l4.626,10.272
				c1.176-0.549,2.117-1.255,2.823-2.117c0.706-0.863,1.098-1.803,1.176-2.823c0.142-1.655-0.396-3.297-1.49-4.548
				c-0.386-0.453-0.835-0.849-1.333-1.176l-1.647-0.862l-2.195-0.941c-0.314-0.157-0.627-0.47-0.863-1.019s-0.314-1.019-0.157-1.49
				c0.157-0.47,0.47-0.784,1.019-1.098c0.47-0.235,1.098-0.314,1.882-0.157c0.784,0.078,1.647,0.392,2.588,0.862
				c0.941,0.47,1.803,1.176,2.744,2.195c0.863,0.941,1.647,2.195,2.352,3.607c1.49,3.372,1.725,6.43,0.706,9.174
				c-1.252,2.889-3.589,5.17-6.508,6.351c-1.568,0.706-3.058,1.098-4.626,1.255c-2.944,0.341-5.884-0.667-7.998-2.744
				c-1.098-1.098-1.96-2.352-2.666-3.921c-0.941-2.039-1.255-3.999-1.098-5.881c0.157-1.882,0.784-3.45,1.882-4.783
				c1.019-1.333,2.274-2.352,3.685-2.98c1.333-0.627,2.352-0.627,3.058,0C100.074,713.858,100.779,714.642,101.407,716.054
				L101.407,716.054z M103.053,727.58l-4.313-9.488c-1.461,0.689-2.648,1.849-3.372,3.293c-0.549,1.255-0.47,2.509,0.157,3.921
				c0.495,1.249,1.535,2.202,2.823,2.588C99.906,728.332,101.567,728.221,103.053,727.58z M97.643,687.669
				c1.568-0.235,2.98-0.157,4.234,0.47c1.255,0.549,2.274,1.568,3.136,2.901c0.863,1.411,1.411,3.136,1.803,5.254
				c0.314,2.039,0.314,3.842,0,5.41c-0.392,1.568-0.941,2.744-1.803,3.607c-0.694,0.784-1.634,1.309-2.666,1.49
				c-0.604,0.099-1.223-0.042-1.725-0.392c-0.535-0.353-0.881-0.93-0.941-1.568c-0.078-0.627,0-1.098,0.235-1.411l1.098-1.098
				c0.941-0.784,1.568-1.568,1.882-2.509c0.392-0.862,0.392-2.039,0.157-3.45c-0.159-0.989-0.594-1.913-1.255-2.666
				c-0.627-0.627-1.255-0.862-1.96-0.784c-1.019,0.157-1.647,0.706-1.96,1.49c-0.314,0.784-0.549,2.117-0.627,3.921
				c-0.157,2.039-0.392,3.685-0.706,5.018c-0.314,1.333-0.863,2.431-1.568,3.293c-0.782,0.907-1.871,1.493-3.058,1.647
				c-1.098,0.235-2.274,0.078-3.372-0.47c-1.098-0.47-2.117-1.333-2.901-2.588c-0.784-1.255-1.411-2.744-1.725-4.626
				c-0.235-1.49-0.314-2.823-0.235-3.999c0.078-1.255,0.314-2.274,0.706-3.136c0.338-0.785,0.817-1.503,1.411-2.117
				c0.549-0.549,1.098-0.862,1.725-0.941c0.627-0.078,1.255,0,1.725,0.392c0.47,0.392,0.784,0.941,0.941,1.725
				c0.078,0.549,0,1.098-0.235,1.568c-0.235,0.47-0.706,1.019-1.255,1.647c-0.47,0.549-0.863,1.098-1.098,1.725
				c-0.235,0.627-0.235,1.49-0.078,2.431c0.124,0.899,0.505,1.743,1.098,2.431c0.549,0.627,1.176,0.862,1.803,0.706
				c0.627-0.078,1.019-0.47,1.333-1.019c0.314-0.549,0.47-1.255,0.627-2.195l0.314-3.607c0.157-1.803,0.392-3.372,0.784-4.548
				c0.303-1.087,0.869-2.083,1.647-2.901C95.683,688.297,96.545,687.826,97.643,687.669z M82.51,681.945v-0.627l-3.45-0.157
				l-2.195-0.157c-0.549-0.078-0.941-0.235-1.333-0.47c-0.409-0.237-0.737-0.593-0.941-1.019c-0.568-1.124-0.346-2.486,0.549-3.372
				c0.392-0.392,0.863-0.627,1.333-0.706l2.274-0.078l3.921,0.157l0.078-2.117c0-0.784,0.235-1.411,0.627-1.803
				c0.392-0.392,0.941-0.627,1.49-0.549c0.784,0,1.333,0.392,1.568,1.019c0.314,0.627,0.392,1.49,0.392,2.666l-0.078,1.098
				l10.585,0.392h2.039c0.47,0,0.863-0.235,1.176-0.47c0.314-0.235,0.47-0.706,0.47-1.333c0-0.314,0-0.784-0.157-1.411l-0.157-1.333
				c0-0.47,0.235-0.862,0.627-1.255c0.361-0.384,0.892-0.561,1.411-0.47c0.941,0,1.647,0.549,2.039,1.568
				c0.47,1.019,0.627,2.509,0.549,4.391c-0.078,1.803-0.392,3.136-1.098,4.077c-0.588,0.907-1.524,1.531-2.588,1.725
				c-1.098,0.235-2.509,0.314-4.313,0.235l-11.056-0.47v0.784c0,0.862-0.235,1.49-0.627,1.882c-0.392,0.392-0.941,0.627-1.49,0.627
				c-0.627,0-1.098-0.235-1.49-0.706L82.51,681.945L82.51,681.945z M465.7,512.893l1.647,1.49l6.665-7.292
				c0.862-0.941,1.725-1.49,2.588-1.568s1.568,0.235,2.274,0.862c0.706,0.706,1.098,1.411,1.098,2.274
				c0,0.862-0.47,1.725-1.333,2.666l-15.996,17.564c-0.941,1.019-1.803,1.49-2.666,1.568c-0.863,0.078-1.803-0.392-2.744-1.333
				l-7.527-6.822c-0.898-0.801-1.736-1.666-2.509-2.588c-0.627-0.784-1.176-1.568-1.49-2.352c-0.472-0.95-0.714-1.997-0.706-3.058
				c-0.007-2.153,0.806-4.228,2.274-5.802c1.568-1.725,3.293-2.588,5.175-2.744c1.882-0.157,3.999,0.47,6.351,1.803
				c-0.392-1.176-0.627-2.509-0.627-4.077s0.157-3.058,0.47-4.548c0.254-1.302,0.594-2.586,1.019-3.842
				c0.392-1.098,0.706-1.725,0.941-2.039c0.314-0.314,0.627-0.549,1.098-0.627c0.47-0.157,0.941-0.078,1.411,0
				c0.47,0.078,0.941,0.392,1.411,0.784c0.549,0.47,0.862,1.019,0.941,1.568c0.157,0.549,0.157,1.176,0.078,1.725l-0.47,2.588
				l-0.941,4.783c-0.392,1.725-0.549,3.136-0.549,4.234s0.157,1.96,0.47,2.666C464.367,511.403,464.916,512.187,465.7,512.893
				L465.7,512.893z M454.331,520.107l4.234,3.92l5.724-6.273l-4.156-3.764c-0.91-0.895-1.939-1.66-3.058-2.274
				c-0.812-0.456-1.736-0.674-2.666-0.627c-0.784,0.078-1.568,0.549-2.352,1.333c-0.549,0.627-0.941,1.333-1.019,2.117
				c-0.157,0.784,0,1.568,0.314,2.274C451.822,517.519,452.763,518.617,454.331,520.107L454.331,520.107z M441.707,483.881
				l7.606,8.311c0.892-0.799,1.59-1.791,2.039-2.901c0.392-1.019,0.47-2.039,0.314-3.058c-0.22-0.961-0.679-1.85-1.333-2.588
				c-0.47-0.47-0.941-0.941-1.49-1.255c-0.47-0.314-1.098-0.549-1.647-0.706c-0.627-0.157-1.255-0.314-1.803-0.314l-2.352-0.235
				c-0.451-0.065-0.852-0.322-1.098-0.706c-0.392-0.47-0.627-0.863-0.627-1.411c0-0.47,0.235-0.941,0.627-1.333
				c0.392-0.314,0.941-0.627,1.725-0.784c0.784-0.157,1.725-0.157,2.744,0s2.117,0.549,3.293,1.176
				c1.176,0.627,2.274,1.568,3.372,2.744c2.509,2.744,3.685,5.567,3.45,8.468c-0.268,3.152-1.794,6.063-4.234,8.076
				c-1.173,1.108-2.525,2.01-3.999,2.666c-1.411,0.627-2.823,0.941-4.234,0.863c-1.411-0.078-2.823-0.392-4.156-1.019
				c-3.235-1.683-5.622-4.638-6.586-8.155c-0.756-3.342,0.319-6.835,2.823-9.174c1.098-0.941,2.039-1.333,2.901-1.019
				C439.746,482.078,440.687,482.784,441.707,483.881L441.707,483.881z M446.882,494.388l-7.057-7.684
				c-1.333,1.411-2.117,2.823-2.195,4.156c-0.078,1.333,0.392,2.588,1.411,3.685c0.941,1.019,2.117,1.568,3.45,1.568
				S445.314,495.564,446.882,494.388z M426.26,460.045c1.124-0.898,2.488-1.444,3.921-1.568c1.333-0.078,2.744,0.314,4.156,1.176
				s2.744,2.117,3.999,3.842c1.255,1.647,2.039,3.215,2.431,4.783c0.392,1.568,0.392,2.901,0.078,3.999
				c-0.26,1.015-0.837,1.922-1.647,2.588c-0.47,0.392-1.098,0.549-1.725,0.47c-0.627-0.078-1.176-0.392-1.568-0.941
				c-0.392-0.47-0.549-0.941-0.47-1.411c0.078-0.47,0.157-0.941,0.392-1.49c0.47-1.098,0.627-2.117,0.549-3.058
				c-0.078-0.941-0.549-2.039-1.411-3.136c-0.585-0.824-1.404-1.453-2.352-1.803c-0.862-0.314-1.568-0.235-2.039,0.157
				c-0.784,0.627-1.176,1.333-1.098,2.274c0.078,0.863,0.47,2.195,1.255,3.842c0.784,1.882,1.411,3.45,1.725,4.783
				s0.392,2.509,0.078,3.685c-0.257,1.162-0.926,2.192-1.882,2.901c-0.927,0.711-2.048,1.121-3.215,1.176
				c-1.255,0.078-2.509-0.235-3.764-0.941c-2.557-1.605-4.556-3.96-5.724-6.743c-0.47-1.098-0.706-2.195-0.784-3.136
				c-0.078-0.941,0-1.803,0.314-2.509c0.235-0.706,0.627-1.255,1.098-1.647c0.491-0.378,1.11-0.547,1.725-0.47
				c0.627,0.078,1.176,0.47,1.647,1.098c0.392,0.47,0.549,0.941,0.549,1.49s-0.157,1.255-0.314,2.039
				c-0.157,0.706-0.235,1.333-0.157,2.039s0.47,1.411,1.019,2.195c0.504,0.768,1.249,1.347,2.117,1.647
				c0.784,0.314,1.411,0.235,1.96-0.157c0.47-0.392,0.706-0.863,0.706-1.49c0-0.627-0.157-1.333-0.47-2.195l-1.411-3.372
				c-0.706-1.647-1.176-3.136-1.411-4.391c-0.235-1.255-0.157-2.352,0.157-3.372C424.849,461.534,425.397,460.75,426.26,460.045
				L426.26,460.045z M412.773,443.814l5.881,9.644c1.017-0.6,1.877-1.433,2.509-2.431c0.536-0.875,0.833-1.875,0.862-2.901
				c0-1.019-0.314-1.882-0.784-2.823l-1.176-1.49l-1.49-1.019c-0.549-0.314-1.176-0.47-1.725-0.706l-2.274-0.627
				c-0.392-0.157-0.706-0.392-1.019-0.863c-0.314-0.47-0.392-1.019-0.314-1.49c0.078-0.47,0.392-0.863,0.863-1.176
				c0.47-0.235,1.098-0.392,1.882-0.392s1.725,0.157,2.666,0.549c2.46,0.993,4.488,2.827,5.724,5.175
				c1.8,2.636,2.451,5.891,1.803,9.017c-0.886,3.024-2.948,5.566-5.724,7.057c-1.379,0.846-2.889,1.456-4.469,1.803
				c-1.49,0.314-2.98,0.314-4.313,0.078c-1.333-0.235-2.666-0.863-3.921-1.803c-1.262-0.996-2.326-2.219-3.136-3.607
				c-1.115-1.677-1.739-3.633-1.803-5.646c-0.083-3.427,1.645-6.645,4.548-8.468c1.255-0.784,2.274-0.863,3.058-0.392
				C411.205,441.697,411.989,442.559,412.773,443.814L412.773,443.814z M415.831,455.105l-5.41-8.939
				c-1.568,1.176-2.588,2.352-2.98,3.685c-0.392,1.255-0.157,2.588,0.627,3.842c0.67,1.173,1.813,2.002,3.136,2.274
				C412.538,456.281,414.106,455.967,415.831,455.105z M408.539,419.036c1.568,0.863,2.823,1.725,3.842,2.744
				c1.019,0.941,1.882,2.195,2.509,3.685c0.627,1.333,0.862,2.666,0.784,3.921c-0.078,1.255-0.47,2.352-1.098,3.293
				c-0.706,0.941-1.568,1.647-2.588,2.117c-1.411,0.627-2.901,0.706-4.313,0.235c-1.498-0.524-2.789-1.513-3.685-2.823l-1.647-2.274
				l-2.274-3.058c-0.698-0.941-1.43-1.857-2.195-2.744c-1.333,0.706-2.274,1.411-2.666,2.195c-0.392,0.784-0.314,1.96,0.392,3.528
				c0.412,1.045,1.056,1.983,1.882,2.744c0.706,0.47,1.49,0.863,2.431,1.019l1.96,0.392c0.314,0.078,0.627,0.47,0.941,1.098
				c0.235,0.627,0.314,1.176,0.078,1.803c-0.157,0.627-0.549,1.019-1.176,1.255c-0.941,0.392-1.96,0.47-3.136,0.235
				c-1.36-0.34-2.589-1.077-3.528-2.117c-1.319-1.397-2.381-3.016-3.136-4.783c-1.019-2.274-1.568-4.234-1.568-5.802
				c-0.085-1.431,0.394-2.838,1.333-3.921c1.203-1.277,2.677-2.268,4.313-2.901l3.136-1.411l2.901-1.255
				c1.019-0.47,1.96-1.019,2.901-1.882l1.882-1.411c0.549-0.235,1.176-0.235,1.803,0.078c0.706,0.314,1.176,0.784,1.411,1.411
				c0.235,0.549,0.235,1.176-0.078,1.96C409.715,417.154,409.245,418.017,408.539,419.036L408.539,419.036z M401.09,422.8
				c0.627,0.627,1.411,1.647,2.352,2.98c0.648,0.938,1.328,1.853,2.039,2.744c0.392,0.47,0.941,0.941,1.568,1.255
				c0.627,0.314,1.333,0.314,2.117,0c0.784-0.314,1.333-0.941,1.647-1.803c0.314-0.863,0.235-1.725-0.235-2.744
				c-0.443-1.003-1.115-1.889-1.96-2.588c-0.723-0.645-1.626-1.055-2.588-1.176c-1.019-0.157-2.431,0.235-4.234,1.019L401.09,422.8
				L401.09,422.8z M398.346,405.236l4.626-1.333c1.098-0.314,2.039-0.314,2.744,0.078c0.706,0.392,1.176,0.941,1.411,1.725
				c0.235,0.784,0.157,1.568-0.314,2.195c-0.392,0.706-1.176,1.176-2.274,1.49l-15.368,4.469c-2.509,0.706-3.999,0.157-4.469-1.647
				c-0.235-0.941-0.157-1.647,0.314-2.195c0.652-0.662,1.461-1.148,2.352-1.411c-1.333-0.314-2.352-0.784-3.136-1.255
				c-0.784-0.549-1.333-1.333-1.647-2.509c-0.314-1.176-0.392-2.352-0.078-3.607c0.235-1.255,0.863-2.039,1.803-2.274
				c0.706-0.157,1.333-0.157,1.882,0.235c0.522,0.289,0.914,0.766,1.098,1.333l0.078,1.568c0,0.863,0.078,1.568,0.235,2.195
				c0.235,0.784,0.627,1.411,1.176,1.803c0.676,0.438,1.47,0.657,2.274,0.627c0.941,0.078,1.96-0.078,3.136-0.314L398.346,405.236
				L398.346,405.236z M393.406,372.931c0.706-0.078,1.49,0,2.352,0.314s1.725,0.863,2.588,1.647
				c0.863,0.784,1.568,1.803,2.195,3.058c0.627,1.255,1.019,2.744,1.255,4.391c0.47,3.528-0.157,6.43-1.96,8.704
				c-1.963,2.354-4.787,3.823-7.841,4.077c-2.352,0.314-4.469,0.157-6.351-0.47c-1.882-0.627-3.45-1.803-4.705-3.372
				c-1.255-1.568-1.96-3.528-2.352-5.959c-0.235-1.49-0.157-2.823,0.078-4.156c0.235-1.255,0.706-2.431,1.255-3.372
				c0.478-0.87,1.116-1.642,1.882-2.274c0.706-0.549,1.411-0.862,2.039-0.941c0.706-0.078,1.255,0.078,1.803,0.549
				c0.549,0.47,0.863,1.019,0.941,1.725c0.078,0.47,0,0.863-0.235,1.255l-1.019,1.255c-0.941,0.863-1.647,1.647-2.039,2.509
				c-0.392,0.863-0.549,1.803-0.392,2.98c0.235,1.647,1.098,2.98,2.509,3.764c1.411,0.784,3.293,1.098,5.567,0.784
				c1.098-0.157,2.039-0.392,2.901-0.784c0.863-0.392,1.568-0.863,2.117-1.49c1.107-1.206,1.598-2.854,1.333-4.469
				c-0.099-1.038-0.509-2.022-1.176-2.823c-0.627-0.706-1.568-1.333-2.744-1.803c-0.706-0.235-1.255-0.549-1.647-0.941
				c-0.42-0.363-0.697-0.863-0.784-1.411c-0.078-0.706,0.078-1.333,0.549-1.803C392.308,373.323,392.779,373.088,393.406,372.931
				L393.406,372.931z M372.235,362.581l8.547,0.392c-0.697-0.669-1.327-1.404-1.882-2.195c-0.985-1.507-1.428-3.305-1.255-5.097
				c0.078-1.49,0.47-2.744,1.098-3.842c0.661-1.106,1.646-1.983,2.823-2.509c0.706-0.392,1.49-0.627,2.352-0.706
				c0.863-0.078,1.803-0.157,2.98-0.078l10.977,0.47c1.176,0.078,2.039,0.392,2.588,0.941c0.549,0.549,0.863,1.255,0.784,2.117
				c-0.078,1.882-1.333,2.823-3.607,2.666l-9.723-0.47c-1.803-0.078-3.293,0.157-4.313,0.627c-1.019,0.47-1.568,1.49-1.647,3.058
				c-0.078,1.019,0.235,1.96,0.784,2.823c0.561,0.852,1.348,1.531,2.274,1.96c0.863,0.314,2.352,0.549,4.548,0.706l7.606,0.314
				c1.098,0.078,1.96,0.314,2.588,0.863c0.549,0.549,0.863,1.255,0.784,2.195c-0.078,1.882-1.333,2.823-3.607,2.666L372,368.305
				c-1.176-0.078-2.039-0.314-2.588-0.863s-0.784-1.255-0.784-2.117c0.078-0.941,0.392-1.647,1.019-2.117
				C370.197,362.738,371.138,362.502,372.235,362.581L372.235,362.581z M449.626,195.41l5.489,6.9l10.585-8.39l-5.489-6.9
				c-0.784-1.019-1.176-1.882-1.098-2.744c0.078-0.863,0.47-1.568,1.176-2.117c0.706-0.549,1.49-0.784,2.352-0.706
				c0.862,0.157,1.647,0.706,2.431,1.725l15.055,19.054c0.784,1.019,1.176,1.96,1.098,2.823c-0.078,0.863-0.47,1.568-1.176,2.117
				c-0.706,0.549-1.49,0.784-2.352,0.627c-0.862-0.157-1.647-0.706-2.431-1.725l-6.43-8.155l-10.585,8.39l6.43,8.155
				c0.784,1.019,1.176,1.96,1.098,2.823s-0.47,1.568-1.176,2.117c-0.706,0.549-1.49,0.784-2.352,0.627
				c-0.862-0.157-1.647-0.706-2.431-1.725l-15.055-19.054c-0.784-1.019-1.176-1.882-1.098-2.744c0.078-0.863,0.47-1.568,1.176-2.117
				c0.706-0.549,1.568-0.784,2.352-0.706C448.058,193.842,448.842,194.391,449.626,195.41z M491.968,200.977l-0.157-1.411
				l-14.663-12.389c-0.628-0.464-1.183-1.019-1.647-1.647c-0.235-0.47-0.314-0.863-0.314-1.411s0.157-0.941,0.47-1.411
				c0.314-0.47,0.627-0.784,1.019-1.019c0.706-0.392,1.411-0.47,2.039-0.157c0.627,0.235,1.333,0.784,2.039,1.49l10.977,10.193
				l-2.117-13.8l-0.314-2.666c0-0.706,0.078-1.176,0.235-1.49s0.549-0.627,1.098-0.941c0.392-0.235,0.784-0.314,1.255-0.314
				c0.47,0,0.862,0.157,1.255,0.392c0.392,0.235,0.706,0.549,0.863,0.941l0.314,1.098l0.314,1.568l2.588,20.857
				c0.235,1.803,0.314,3.293,0.235,4.469c-0.077,1.125-0.457,2.209-1.098,3.136c-0.627,0.941-1.725,1.803-3.293,2.666
				c-1.49,0.784-2.666,1.255-3.607,1.333c-0.941,0.078-1.568-0.314-2.039-1.176c-0.314-0.549-0.392-1.098-0.157-1.647
				c0.157-0.47,0.627-0.941,1.333-1.333l0.862-0.314l0.862-0.314c0.549-0.314,1.019-0.627,1.255-1.019
				c0.235-0.314,0.392-0.784,0.392-1.411L491.968,200.977L491.968,200.977z M505.141,171.809l0.235,0.627
				c0.627-1.568,1.333-2.901,2.274-3.842c3.744-3.501,9.6-3.361,13.173,0.314c1.411,1.411,2.431,3.215,3.215,5.489
				c0.549,1.647,0.862,3.293,0.862,4.861c0.07,2.74-1.01,5.385-2.98,7.292c-0.941,0.863-2.039,1.568-3.372,1.96
				c-1.568,0.549-2.98,0.627-4.234,0.392c-1.255-0.235-2.587-0.863-3.921-1.725l2.744,8.155c0.784,2.431,0.314,3.921-1.411,4.469
				c-1.019,0.314-1.803,0.235-2.352-0.235c-0.677-0.702-1.162-1.566-1.411-2.509l-7.841-23.523
				c-0.314-1.019-0.392-1.882-0.078-2.588s0.784-1.098,1.568-1.411c0.784-0.235,1.49-0.235,2.117,0.157
				C504.356,170.162,504.827,170.868,505.141,171.809z M518.47,176.2c-0.47-1.411-1.098-2.588-1.882-3.45
				c-0.784-0.863-1.647-1.49-2.588-1.803s-1.882-0.314-2.901,0c-1.49,0.47-2.588,1.49-3.215,3.058
				c-0.627,1.568-0.549,3.45,0.235,5.724c0.479,1.858,1.623,3.476,3.215,4.548c1.308,0.831,2.919,1.032,4.391,0.549
				c0.908-0.305,1.701-0.879,2.274-1.647c0.627-0.784,0.941-1.803,1.098-2.98C519.176,179.023,518.941,177.69,518.47,176.2z
				 M550.54,170.476c0.235,1.725,0.157,3.293-0.157,4.783s-0.941,2.823-1.803,3.999c-0.867,1.181-1.994,2.146-3.293,2.823
				c-2.859,1.525-6.171,1.971-9.331,1.255c-1.49-0.392-2.744-1.019-3.92-1.882c-1.182-0.898-2.147-2.05-2.823-3.372
				c-1.498-2.896-1.942-6.222-1.255-9.409c0.314-1.49,0.941-2.823,1.803-3.999c0.862-1.176,1.96-2.117,3.293-2.823
				c2.849-1.552,6.161-2.025,9.331-1.333c1.49,0.392,2.823,1.019,3.92,1.882c1.176,0.863,2.039,2.039,2.823,3.372
				C549.834,167.261,550.305,168.829,550.54,170.476L550.54,170.476z M544.816,171.26c-0.314-2.352-1.098-4.077-2.274-5.253
				c-1.176-1.176-2.666-1.647-4.391-1.411c-1.098,0.157-2.039,0.549-2.823,1.255s-1.333,1.647-1.647,2.823
				c-0.314,1.176-0.392,2.509-0.157,3.999c0.235,1.49,0.627,2.744,1.176,3.842c0.525,0.96,1.314,1.749,2.274,2.274
				c0.941,0.47,1.96,0.627,3.058,0.47c1.606-0.18,3.032-1.111,3.842-2.509C544.895,175.416,545.13,173.612,544.816,171.26
				L544.816,171.26z M556.029,159.498h0.627v-3.45l0.078-2.195c0.078-0.549,0.157-0.941,0.392-1.333
				c0.484-0.838,1.384-1.349,2.352-1.333c0.706,0,1.411,0.314,1.96,0.863c0.392,0.392,0.627,0.784,0.706,1.333l0.157,2.274v3.921
				h2.117c0.784,0,1.411,0.235,1.882,0.627c0.471,0.392,0.627,0.863,0.627,1.49c0,0.784-0.314,1.333-0.941,1.647
				c-0.627,0.314-1.49,0.47-2.588,0.47h-1.098l-0.078,10.585l0.078,2.039c0.078,0.47,0.235,0.863,0.47,1.176
				c0.235,0.314,0.706,0.47,1.333,0.47l1.333-0.157l1.333-0.157c0.47,0,0.862,0.157,1.255,0.549
				c0.392,0.392,0.549,0.863,0.549,1.411c0,0.941-0.549,1.647-1.568,2.117s-2.431,0.706-4.391,0.706
				c-1.803,0-3.136-0.314-4.077-0.941c-0.88-0.595-1.52-1.485-1.803-2.509c-0.32-1.414-0.452-2.864-0.392-4.313l0.078-11.056h-0.784
				c-0.863,0-1.49-0.235-1.882-0.627c-0.47-0.392-0.627-0.863-0.627-1.49c0-0.627,0.235-1.098,0.706-1.49
				C554.539,159.655,555.166,159.498,556.029,159.498z M579.473,155.186l-1.255,8.468c0.747-0.637,1.562-1.189,2.431-1.647
				c0.784-0.392,1.568-0.627,2.431-0.784c0.862-0.157,1.803-0.078,2.744,0c1.411,0.235,2.666,0.706,3.685,1.49
				c1.019,0.784,1.803,1.803,2.274,3.058c0.314,0.706,0.47,1.568,0.47,2.431l-0.235,2.901l-1.568,10.899
				c-0.157,1.176-0.549,1.96-1.176,2.431c-0.627,0.47-1.333,0.706-2.195,0.549c-1.882-0.314-2.666-1.568-2.274-3.842l1.411-9.566
				c0.283-1.43,0.229-2.907-0.157-4.313c-0.392-1.098-1.333-1.725-2.901-1.96c-0.992-0.157-2.009,0.008-2.901,0.47
				c-0.912,0.491-1.672,1.223-2.195,2.117c-0.392,0.784-0.784,2.274-1.098,4.469l-1.098,7.527c-0.157,1.098-0.549,1.96-1.176,2.431
				c-0.627,0.549-1.333,0.706-2.274,0.549c-1.882-0.314-2.666-1.568-2.274-3.842l3.607-24.699c0.157-1.176,0.549-1.96,1.098-2.509
				c0.549-0.47,1.333-0.706,2.195-0.549c0.941,0.157,1.568,0.549,1.96,1.176C579.473,153.147,579.63,154.01,579.473,155.186
				L579.473,155.186z M612.563,181.453l-10.742-3.372c-0.392,1.255-0.47,2.431-0.235,3.528c0.235,1.098,0.627,2.039,1.255,2.744
				c0.627,0.706,1.49,1.255,2.431,1.568c0.627,0.235,1.255,0.314,1.882,0.314c0.609,0,1.215-0.079,1.803-0.235l1.725-0.627
				l2.117-1.019c0.392-0.157,0.784-0.157,1.333,0c0.549,0.157,0.941,0.47,1.255,0.863c0.314,0.392,0.314,0.941,0.078,1.49
				c-0.157,0.47-0.549,1.019-1.098,1.568c-0.627,0.549-1.411,1.019-2.352,1.333c-0.941,0.392-2.117,0.549-3.45,0.627
				c-1.333,0-2.744-0.157-4.313-0.706c-3.092-0.775-5.729-2.789-7.292-5.567c-1.364-2.852-1.506-6.137-0.392-9.096
				c0.47-1.647,1.176-3.058,2.117-4.313c0.851-1.186,1.948-2.176,3.215-2.901c1.255-0.706,2.588-1.098,4.156-1.255
				c1.49-0.078,3.136,0.078,4.783,0.627c2.117,0.706,3.842,1.725,5.097,3.058c2.323,2.476,3.133,6.012,2.117,9.252
				c-0.392,1.411-1.098,2.117-2.039,2.352C615.228,182.081,614.052,181.924,612.563,181.453L612.563,181.453z M602.84,175.024
				l9.958,3.136c0.47-1.882,0.392-3.45-0.235-4.705c-0.627-1.176-1.568-2.039-3.058-2.509c-1.278-0.425-2.677-0.283-3.842,0.392
				C604.357,172.239,603.369,173.528,602.84,175.024z M637.575,195.097c-0.627,1.411-1.568,2.509-2.744,3.215
				c-1.261,0.72-2.708,1.048-4.156,0.941c-1.647-0.078-3.372-0.627-5.332-1.49c-1.674-0.72-3.192-1.758-4.469-3.058
				c-0.972-0.968-1.652-2.191-1.96-3.528c-0.235-1.176-0.157-2.195,0.235-3.058c0.255-0.536,0.703-0.956,1.255-1.176
				c0.588-0.215,1.237-0.187,1.803,0.078c0.549,0.235,0.941,0.549,1.098,1.019c0.157,0.392,0.314,0.941,0.314,1.49
				c0.078,1.176,0.47,2.195,0.941,2.98c0.549,0.784,1.411,1.49,2.744,2.117c1.019,0.47,2.039,0.627,2.901,0.47
				c0.862-0.157,1.49-0.549,1.725-1.176c0.392-0.941,0.392-1.725-0.157-2.509c-0.47-0.706-1.49-1.647-2.901-2.744
				c-1.338-1.055-2.596-2.209-3.764-3.45c-0.864-0.902-1.484-2.008-1.803-3.215c-0.314-1.098-0.157-2.274,0.314-3.45
				c0.492-1.044,1.283-1.917,2.274-2.509c1.019-0.627,2.352-0.941,3.764-0.941s3.058,0.392,4.783,1.176
				c1.333,0.627,2.509,1.333,3.45,2.117s1.647,1.568,2.195,2.352c0.549,0.784,0.784,1.568,0.941,2.352
				c0.078,0.784,0.078,1.411-0.235,1.96c-0.235,0.627-0.706,1.019-1.255,1.176s-1.255,0.157-1.96-0.235
				c-0.509-0.216-0.925-0.605-1.176-1.098c-0.235-0.47-0.47-1.098-0.627-1.96c-0.157-0.706-0.47-1.333-0.862-1.882
				c-0.522-0.649-1.195-1.161-1.96-1.49c-0.941-0.47-1.803-0.627-2.666-0.47c-0.863,0.157-1.333,0.47-1.647,1.098
				c-0.235,0.549-0.235,1.098,0.078,1.647c0.4,0.652,0.903,1.235,1.49,1.725c2.142,1.739,4.184,3.598,6.116,5.567
				c0.676,0.882,1.157,1.898,1.411,2.98C638.075,193.092,638.018,194.163,637.575,195.097L637.575,195.097z M652.865,189.294
				l-8.076,14.506c-0.396,0.85-1.095,1.521-1.96,1.882c-0.784,0.235-1.49,0.157-2.274-0.235c-0.695-0.367-1.186-1.031-1.333-1.803
				c-0.141-0.926,0.053-1.871,0.549-2.666l7.998-14.349c0.549-1.019,1.176-1.647,1.96-1.882c0.706-0.235,1.49-0.157,2.195,0.235
				c0.706,0.392,1.176,1.019,1.411,1.803C653.493,187.569,653.336,188.432,652.865,189.294z M653.257,182.708
				c-0.706-0.392-1.176-0.941-1.411-1.647c-0.235-0.706-0.157-1.49,0.235-2.274c0.392-0.706,0.941-1.176,1.725-1.333
				c0.784-0.157,1.49-0.078,2.195,0.314c0.627,0.392,1.098,0.863,1.411,1.568c0.235,0.706,0.157,1.411-0.235,2.274
				c-0.392,0.784-1.019,1.255-1.725,1.411C654.747,183.178,653.963,183.1,653.257,182.708z M667.45,213.288
				c-0.862,1.333-1.96,2.274-3.215,2.823c-1.255,0.549-2.666,0.627-4.234,0.314c-1.568-0.314-3.293-1.098-5.097-2.274
				c-1.725-1.098-3.058-2.352-3.92-3.685c-0.818-1.096-1.307-2.401-1.411-3.764c-0.078-1.176,0.157-2.195,0.706-2.98
				c0.323-0.508,0.828-0.873,1.411-1.019c0.627-0.157,1.255,0,1.803,0.392c0.47,0.314,0.784,0.706,0.941,1.098
				c0.078,0.392,0.157,0.941,0.078,1.568c-0.078,1.176,0.078,2.195,0.549,3.058c0.47,0.863,1.176,1.725,2.431,2.431
				c0.941,0.627,1.882,0.941,2.823,0.863c0.862,0,1.49-0.314,1.882-0.863c0.549-0.863,0.627-1.647,0.235-2.509
				c-0.392-0.784-1.176-1.882-2.431-3.136c-1.163-1.229-2.237-2.54-3.215-3.921c-0.784-1.098-1.176-2.274-1.333-3.45
				c-0.157-1.176,0.157-2.274,0.862-3.372c0.641-0.989,1.572-1.756,2.666-2.195c1.243-0.5,2.603-0.636,3.921-0.392
				c2.957,0.673,5.637,2.232,7.684,4.469c0.862,0.941,1.411,1.803,1.803,2.666c0.392,0.863,0.549,1.647,0.549,2.431
				c0,0.784-0.157,1.411-0.47,1.882c-0.392,0.549-0.862,0.863-1.411,1.019c-0.687,0.063-1.376-0.102-1.96-0.47
				c-0.47-0.314-0.784-0.706-1.019-1.255c-0.206-0.663-0.337-1.347-0.392-2.039c-0.078-0.706-0.235-1.333-0.549-1.96
				c-0.407-0.721-1.004-1.318-1.725-1.725c-0.862-0.549-1.725-0.863-2.509-0.863s-1.411,0.235-1.803,0.784
				c-0.314,0.47-0.392,1.098-0.157,1.647c0.277,0.692,0.675,1.329,1.176,1.882l2.431,2.744c1.255,1.333,2.195,2.588,2.823,3.685
				c0.627,1.098,0.941,2.195,1.019,3.215C668.292,211.411,667.971,212.401,667.45,213.288L667.45,213.288z M733.314,277.584
				l-2.039-5.332l-8.155,3.136c-1.176,0.47-2.195,0.549-2.98,0.157c-0.784-0.314-1.411-0.863-1.725-1.725
				c-0.314-0.863-0.314-1.725,0.078-2.431c0.392-0.784,1.176-1.333,2.352-1.803l22.19-8.547c1.255-0.47,2.352-0.549,3.058-0.157
				c0.784,0.392,1.411,1.176,1.882,2.509l2.901,7.527c0.862,2.195,1.333,3.999,1.49,5.332c0.157,1.333,0,2.509-0.47,3.685
				c-0.392,1.176-1.098,2.195-2.039,3.058c-0.941,0.863-2.117,1.568-3.45,2.117c-2.901,1.098-5.489,1.098-7.684-0.157
				C736.118,283.203,734.204,280.596,733.314,277.584L733.314,277.584z M745.938,271.154l-1.49-3.921l-8.782,3.372l1.49,3.921
				c0.549,1.411,1.098,2.509,1.725,3.293c0.627,0.784,1.411,1.333,2.195,1.568c0.862,0.235,1.803,0.157,2.823-0.235
				c1.176-0.382,2.141-1.233,2.666-2.352C747.193,275.624,746.958,273.742,745.938,271.154z M736.059,300.166l-4.626,1.176
				c-1.098,0.314-2.039,0.235-2.744-0.157c-0.695-0.367-1.186-1.031-1.333-1.803c-0.235-0.784-0.078-1.568,0.314-2.195
				c0.589-0.738,1.424-1.24,2.352-1.411l15.525-3.999c2.509-0.627,3.999-0.078,4.469,1.725c0.235,0.941,0.078,1.647-0.392,2.195
				c-0.47,0.549-1.255,1.019-2.431,1.333c1.333,0.392,2.352,0.862,3.136,1.411c0.848,0.618,1.413,1.55,1.568,2.588
				c0.312,1.182,0.312,2.425,0,3.607c-0.314,1.255-0.941,2.039-1.882,2.274c-0.706,0.157-1.333,0.078-1.882-0.235
				c-0.549-0.392-0.941-0.784-1.019-1.333v-1.568c0.078-0.863,0-1.568-0.157-2.195c-0.235-0.784-0.627-1.411-1.176-1.803
				s-1.333-0.627-2.195-0.706c-0.941-0.078-1.96,0-3.136,0.157L736.059,300.166L736.059,300.166z M745.389,332.236
				c-1.725,0.235-3.293,0.235-4.783-0.078c-2.909-0.565-5.427-2.369-6.9-4.94c-0.784-1.333-1.255-2.823-1.49-4.548
				c-0.235-1.725-0.235-3.293,0.157-4.783c0.314-1.49,0.941-2.744,1.882-3.921c0.862-1.176,1.96-2.117,3.293-2.823
				c2.885-1.527,6.204-2.025,9.409-1.411c2.909,0.565,5.427,2.369,6.9,4.94c0.784,1.333,1.255,2.823,1.49,4.548
				c0.235,1.725,0.235,3.293-0.157,4.783c-0.314,1.49-0.941,2.823-1.803,3.921c-0.862,1.176-1.96,2.117-3.293,2.823
				C748.761,331.452,747.114,331.922,745.389,332.236L745.389,332.236z M744.527,326.512c2.352-0.314,4.077-1.098,5.175-2.352
				c1.098-1.255,1.568-2.666,1.333-4.391c-0.148-1.054-0.613-2.039-1.333-2.823c-0.762-0.794-1.746-1.34-2.823-1.568
				c-1.176-0.314-2.509-0.314-4.077-0.078c-1.325,0.168-2.603,0.594-3.764,1.255c-0.963,0.557-1.75,1.371-2.274,2.352
				c-0.47,0.941-0.627,1.96-0.47,3.136c0.184,1.626,1.15,3.06,2.588,3.842C740.371,326.59,742.253,326.826,744.527,326.512
				L744.527,326.512z M756.759,336.941v0.627l3.45-0.157h2.195c0.549,0,1.019,0.157,1.411,0.314
				c0.392,0.235,0.706,0.549,1.019,0.941c0.235,0.392,0.392,0.863,0.47,1.411c0,0.706-0.235,1.411-0.706,2.039
				c-0.314,0.392-0.784,0.706-1.333,0.784c-0.549,0.157-1.255,0.235-2.195,0.235l-3.921,0.157l0.078,2.117
				c0,0.784-0.157,1.411-0.47,1.882c-0.392,0.47-0.862,0.706-1.49,0.706c-0.784,0-1.333-0.235-1.647-0.863
				c-0.314-0.627-0.549-1.49-0.549-2.588l-0.078-1.098l-10.664,0.549l-2.039,0.157c-0.47,0.078-0.862,0.235-1.176,0.549
				c-0.314,0.314-0.392,0.706-0.392,1.333l0.235,1.333l0.235,1.333c0,0.47-0.157,0.863-0.47,1.255
				c-0.392,0.392-0.784,0.627-1.333,0.627c-0.941,0.078-1.647-0.392-2.195-1.411c-0.549-1.019-0.862-2.431-0.941-4.313
				c-0.078-1.803,0.157-3.136,0.706-4.156c0.549-0.941,1.333-1.568,2.431-1.96c1.019-0.314,2.431-0.549,4.234-0.627l11.056-0.47
				v-0.784c0-0.863,0.157-1.49,0.47-1.882c0.392-0.47,0.863-0.706,1.49-0.706c0.627,0,1.098,0.157,1.49,0.627
				C756.445,335.451,756.68,336.078,756.759,336.941L756.759,336.941z M744.84,374.264c-3.137-0.061-6.124-1.357-8.311-3.607
				c-0.941-1.098-1.725-2.352-2.195-3.764c-0.969-3.099-0.774-6.444,0.549-9.409c1.304-2.678,3.661-4.694,6.508-5.567
				c1.49-0.47,3.058-0.627,4.783-0.47c1.725,0.078,3.293,0.47,4.705,1.098c1.411,0.627,2.588,1.49,3.529,2.509
				c0.941,1.098,1.647,2.352,2.117,3.764c0.959,3.106,0.736,6.458-0.627,9.409c-0.627,1.411-1.49,2.509-2.588,3.45
				c-1.098,0.941-2.352,1.647-3.842,2.039C748.212,374.264,746.565,374.421,744.84,374.264z M745.233,368.54
				c2.352,0.157,4.156-0.235,5.567-1.176c1.411-0.941,2.117-2.274,2.195-3.999c0.078-1.098-0.157-2.117-0.706-3.058
				c-0.549-0.863-1.333-1.568-2.431-2.117c-1.098-0.549-2.431-0.863-3.921-0.941c-1.49-0.078-2.823,0.078-3.999,0.47
				c-2.118,0.622-3.622,2.501-3.764,4.705c-0.078,1.725,0.47,3.136,1.725,4.313C741.155,367.756,742.88,368.383,745.233,368.54
				L745.233,368.54z M754.877,381.399l-0.078,0.627l3.372,0.627l2.117,0.47c0.47,0.157,0.941,0.314,1.255,0.627
				c0.314,0.314,0.627,0.627,0.784,1.098c0.157,0.47,0.235,0.941,0.157,1.49c-0.157,0.706-0.549,1.333-1.176,1.803
				c-0.407,0.305-0.902,0.47-1.411,0.47l-2.274-0.235l-3.842-0.706l-0.392,2.039c-0.157,0.784-0.47,1.411-0.862,1.725
				c-0.47,0.392-0.941,0.47-1.568,0.392c-0.784-0.157-1.255-0.549-1.411-1.176c-0.235-0.627-0.235-1.568,0-2.666l0.157-1.019
				l-10.429-1.803l-2.039-0.235c-0.47,0-0.941,0.078-1.255,0.314c-0.314,0.235-0.549,0.627-0.706,1.255l-0.078,1.411l-0.078,1.333
				c-0.078,0.47-0.314,0.863-0.784,1.176c-0.47,0.314-0.941,0.392-1.49,0.314c-0.941-0.157-1.49-0.784-1.803-1.882
				c-0.314-1.098-0.314-2.588,0-4.391c0.314-1.803,0.862-3.058,1.568-3.842c0.706-0.784,1.647-1.255,2.744-1.333
				c1.098-0.078,2.509,0,4.313,0.314l10.899,1.882l0.157-0.784c0.105-0.689,0.436-1.324,0.941-1.803
				c0.47-0.392,1.019-0.47,1.568-0.392c0.627,0.078,1.019,0.392,1.333,0.941C754.956,379.831,755.034,380.537,754.877,381.399
				L754.877,381.399z"/>
			<path fill="#FFFFFF" d="M727.669,396.219l1.098,0.863l19.054-1.882c1.098-0.157,1.882-0.157,2.352,0
				c0.47,0.157,0.862,0.392,1.176,0.706c0.314,0.392,0.549,0.784,0.706,1.255c0.157,0.47,0.078,0.941,0,1.411
				c-0.235,0.784-0.627,1.333-1.255,1.568c-0.627,0.235-1.411,0.392-2.509,0.47l-14.976,0.784l11.369,8.076
				c0.941,0.627,1.647,1.176,2.117,1.647s0.784,0.863,0.941,1.255c0.078,0.392,0.078,0.863-0.078,1.411
				c-0.127,0.425-0.372,0.806-0.706,1.098c-0.314,0.314-0.706,0.549-1.176,0.627c-0.47,0.078-0.862,0.078-1.255,0
				c-0.329-0.202-0.669-0.385-1.019-0.549l-1.333-0.863l-16.78-12.624c-1.214-0.857-2.344-1.828-3.372-2.901
				c-0.756-0.841-1.271-1.87-1.49-2.98c-0.235-1.098-0.078-2.509,0.392-4.156c0.47-1.647,1.019-2.823,1.568-3.528
				s1.333-0.941,2.274-0.627c0.627,0.157,1.098,0.549,1.333,1.019s0.235,1.098,0,1.882l-0.392,0.863l-0.392,0.863
				c-0.157,0.627-0.235,1.176-0.157,1.568c0.078,0.392,0.314,0.863,0.706,1.255L727.669,396.219L727.669,396.219z M739.822,425.623
				l-0.627-0.314c0.728,1.306,1.182,2.747,1.333,4.234c0.165,3.143-1.321,6.145-3.921,7.919c-1.411,1.019-3.136,1.568-5.097,1.647
				c-1.96,0.078-3.999-0.314-6.194-1.333c-2.853-1.213-5.224-3.336-6.743-6.038c-1.095-2.411-1.124-5.172-0.078-7.606
				c0.504-1.358,1.406-2.533,2.588-3.372c1.019-0.784,2.352-1.333,3.921-1.725l-7.919-3.45c-2.352-1.019-3.136-2.352-2.352-4.077
				c0.47-1.019,1.019-1.49,1.725-1.568c0.706-0.078,1.647,0.157,2.823,0.627l22.739,9.958c1.019,0.47,1.647,1.019,1.96,1.647
				c0.314,0.627,0.314,1.333-0.078,2.117c-0.314,0.784-0.862,1.255-1.568,1.49C741.626,426.171,740.763,426.093,739.822,425.623
				L739.822,425.623z M727.669,432.601c1.2,0.582,2.509,0.903,3.842,0.941c1.176,0,2.195-0.235,3.058-0.784s1.49-1.255,1.882-2.117
				c0.627-1.49,0.627-2.901-0.078-4.391s-2.195-2.744-4.391-3.685c-2.117-0.941-3.921-1.098-5.567-0.627
				c-1.568,0.47-2.744,1.49-3.372,2.901c-0.377,0.863-0.486,1.819-0.314,2.744c0.157,0.941,0.706,1.882,1.49,2.823
				C725.081,431.268,726.257,431.974,727.669,432.601L727.669,432.601z M713.32,455.34l5.802-9.644
				c-1.098-0.627-2.274-1.019-3.372-1.098c-1.098-0.078-2.117,0.157-2.98,0.549c-1.936,1.19-3.121,3.295-3.136,5.567l0.157,1.803
				l0.47,2.352c0.078,0.392-0.078,0.784-0.314,1.255c-0.314,0.47-0.706,0.863-1.176,0.941c-0.47,0.157-0.941,0.078-1.49-0.235
				c-0.47-0.235-0.862-0.784-1.255-1.49c-0.887-1.885-1.082-4.023-0.549-6.038c0.314-1.255,0.862-2.588,1.647-3.999
				c1.882-3.136,4.313-5.097,7.135-5.724c2.901-0.706,5.802-0.078,8.939,1.803c1.49,0.863,2.666,1.882,3.685,3.058
				c1.943,2.239,2.778,5.233,2.274,8.155c-0.687,3.605-2.847,6.759-5.959,8.704c-2.992,1.644-6.63,1.585-9.566-0.157
				c-1.255-0.784-1.803-1.568-1.803-2.509C712.065,457.771,712.535,456.673,713.32,455.34L713.32,455.34z M721.866,447.421
				l-5.41,8.939c1.403,0.796,3.023,1.126,4.626,0.941c1.333-0.314,2.352-1.098,3.136-2.352c0.705-1.121,0.904-2.488,0.549-3.764
				C724.237,449.647,723.218,448.325,721.866,447.421L721.866,447.421z"/>
			<path fill="#DDDDDD" d="M270.224,661.872c0,5.802-0.784,10.821-2.274,14.898c-2.671,7.732-8.975,13.655-16.858,15.839
				c-4.751,1.3-9.659,1.933-14.584,1.882h-15.133c-1.098,0-1.96-0.314-2.744-0.941s-1.098-1.647-1.098-3.136v-55.279
				c0-1.411,0.392-2.509,1.098-3.136s1.647-0.941,2.744-0.941h16.309c5.646,0,10.429,0.627,14.349,1.96
				c3.921,1.333,7.292,3.293,9.958,5.881c2.666,2.588,4.783,5.802,6.116,9.644C269.589,652.827,270.305,657.339,270.224,661.872z
				 M256.894,662.343c0-2.98-0.314-5.802-1.019-8.39c-1.184-4.992-4.637-9.142-9.331-11.213c-2.431-1.098-5.646-1.568-9.566-1.568
				h-6.665v43.126h6.743c3.528,0,6.508-0.47,8.939-1.411s4.469-2.274,6.038-4.156c1.647-1.882,2.823-4.156,3.607-6.9
				C256.423,669.165,256.894,665.95,256.894,662.343L256.894,662.343z M320.406,669.713c0,1.49-0.314,2.588-1.019,3.372
				c-0.706,0.706-1.568,1.098-2.744,1.098h-26.581c0,1.882,0.235,3.528,0.627,5.097c0.392,1.568,1.176,2.823,2.117,3.842
				c0.941,1.098,2.195,1.882,3.764,2.431c1.49,0.549,3.372,0.862,5.489,0.862c3.379,0.056,6.743-0.448,9.958-1.49l2.98-1.019
				c0.594-0.267,1.232-0.427,1.882-0.47l0.706,0.157c0.235,0.078,0.392,0.314,0.47,0.627c0.157,0.314,0.235,0.706,0.235,1.255
				l0.078,2.039l-0.078,1.803l-0.157,1.333l-0.314,0.941l-0.549,0.706c-0.235,0.235-0.784,0.549-1.725,0.941
				c-2.762,1.122-5.663,1.86-8.625,2.195c-5.451,0.833-11.019,0.459-16.309-1.098c-2.751-0.889-5.251-2.421-7.292-4.469
				c-2.044-2.122-3.55-4.703-4.391-7.527c-0.999-3.465-1.474-7.059-1.411-10.664c0-3.921,0.47-7.371,1.49-10.507
				c1.019-3.136,2.509-5.802,4.391-7.919c1.919-2.192,4.34-3.887,7.057-4.94c2.961-1.203,6.136-1.79,9.331-1.725
				c3.685,0,6.822,0.549,9.409,1.647c2.588,1.098,4.705,2.588,6.43,4.469c1.725,1.882,2.901,4.156,3.685,6.822
				c0.784,2.588,1.176,5.489,1.176,8.547v1.647H320.406z M308.488,666.185c0.078-3.45-0.627-6.194-2.117-8.155
				c-1.49-1.96-3.764-2.98-6.9-2.98c-1.568,0-2.901,0.314-4.077,0.862c-1.176,0.627-2.117,1.411-2.901,2.352
				c-0.784,1.073-1.393,2.264-1.803,3.528c-0.392,1.333-0.627,2.823-0.706,4.313h18.505V666.185z M370.275,649.092v0.627
				l-0.078,0.784l-0.235,0.941l-0.314,1.255l-13.095,39.44c-0.157,0.549-0.392,1.019-0.627,1.333
				c-0.314,0.314-0.706,0.627-1.411,0.784c-0.706,0.157-1.49,0.314-2.588,0.392l-4.313,0.078c-2.283-0.049-4.561-0.232-6.822-0.549
				c-0.627-0.235-1.098-0.47-1.333-0.784c-0.314-0.314-0.47-0.784-0.627-1.333l-13.173-39.519l-0.47-1.803l-0.235-1.098v-0.627
				c0-0.314,0.078-0.627,0.235-0.862c0.157-0.235,0.47-0.47,0.941-0.627c0.47-0.157,1.098-0.314,1.882-0.314l2.98-0.078l3.215,0.157
				l1.96,0.314c0.47,0.157,0.784,0.392,1.019,0.627c0.235,0.314,0.392,0.627,0.47,1.019l9.958,32.07l0.314,1.255l0.314-1.255
				l9.801-32.07c0.078-0.392,0.235-0.706,0.47-1.019c0.235-0.314,0.549-0.47,1.019-0.627c3.164-0.541,6.394-0.568,9.566-0.078
				c0.392,0.157,0.706,0.392,0.863,0.627C370.197,648.464,370.275,648.778,370.275,649.092L370.275,649.092z M818.389,662.108
				c0,5.253-0.627,9.958-1.96,14.114c-1.164,3.899-3.142,7.507-5.802,10.585c-2.626,2.918-5.903,5.175-9.566,6.586
				c-4.212,1.569-8.679,2.34-13.173,2.274c-4.94,0-9.252-0.627-12.938-1.96c-3.685-1.333-6.743-3.293-9.174-5.881
				c-2.431-2.588-4.313-6.038-5.489-10.115c-1.31-4.72-1.918-9.608-1.803-14.506c0-5.097,0.627-9.723,1.96-13.879
				c1.333-4.077,3.215-7.606,5.802-10.429c2.588-2.901,5.802-5.097,9.566-6.586c3.842-1.568,8.233-2.274,13.251-2.274
				c4.783,0,9.017,0.627,12.702,1.882c7.363,2.382,12.969,8.404,14.82,15.917C817.859,652.485,818.466,657.289,818.389,662.108
				L818.389,662.108z M804.824,662.735c0.039-3.05-0.224-6.097-0.784-9.096c-0.549-2.744-1.411-5.097-2.666-6.979
				c-1.233-1.94-2.967-3.511-5.018-4.548c-2.117-1.098-4.705-1.568-7.841-1.568c-3.136,0-5.802,0.627-7.919,1.803
				c-2.077,1.165-3.85,2.804-5.175,4.783c-1.366,2.122-2.299,4.494-2.744,6.979c-1.104,5.882-1.104,11.917,0,17.799
				c0.442,2.498,1.346,4.891,2.666,7.057c1.255,1.96,2.901,3.45,5.018,4.469c2.117,1.019,4.705,1.568,7.919,1.568
				c3.136,0,5.802-0.627,7.919-1.803c2.117-1.176,3.842-2.744,5.175-4.783c1.333-2.039,2.195-4.391,2.744-7.057
				C804.667,668.694,804.824,665.793,804.824,662.735L804.824,662.735z M872.492,670.341c0,3.921-0.392,7.371-1.255,10.507
				c-0.714,2.874-1.964,5.588-3.685,7.998c-1.568,2.195-3.607,3.842-5.959,5.018c-3.627,1.764-7.741,2.26-11.683,1.411
				c-2.205-0.544-4.264-1.561-6.038-2.98c-1.019-0.784-1.96-1.647-3.058-2.666v20.543c0,0.314-0.078,0.627-0.314,0.862
				c-0.235,0.235-0.549,0.47-1.019,0.627c-2.585,0.476-5.221,0.608-7.841,0.392c-0.64-0.06-1.271-0.192-1.882-0.392
				c-0.47-0.157-0.784-0.392-1.019-0.627c-0.235-0.235-0.314-0.549-0.314-0.862v-61.082c0-0.314,0.078-0.627,0.235-0.862
				c0.157-0.235,0.47-0.47,0.862-0.627c0.529-0.204,1.083-0.336,1.647-0.392c1.667-0.197,3.351-0.197,5.018,0
				c0.706,0.078,1.176,0.235,1.647,0.392c0.392,0.157,0.706,0.392,0.862,0.627s0.235,0.549,0.235,0.862v5.175
				c2.244-2.3,4.774-4.302,7.527-5.959c1.23-0.679,2.55-1.181,3.92-1.49c4.196-0.944,8.588-0.447,12.467,1.411
				c2.274,1.255,4.077,2.98,5.489,5.175c1.478,2.363,2.539,4.962,3.136,7.684C872.179,663.989,872.492,667.047,872.492,670.341
				L872.492,670.341z M859.633,671.203c0-1.882-0.157-3.685-0.392-5.332c-0.314-1.725-0.784-3.215-1.411-4.548
				c-0.706-1.333-1.568-2.431-2.666-3.215c-1.197-0.821-2.627-1.233-4.077-1.176c-1.74,0.029-3.432,0.575-4.861,1.568
				c-0.862,0.549-1.725,1.255-2.588,2.195s-1.803,1.96-2.823,3.293v14.427c1.725,2.195,3.372,3.842,4.94,5.097
				c1.568,1.176,3.215,1.803,4.94,1.803c1.568,0,2.98-0.392,4.077-1.255c1.098-0.784,2.039-1.882,2.744-3.215
				c0.706-1.333,1.255-2.823,1.568-4.469S859.633,672.928,859.633,671.203L859.633,671.203z M912.638,680.534
				c0,2.509-0.47,4.705-1.411,6.586c-0.946,1.859-2.283,3.491-3.921,4.783c-1.831,1.306-3.873,2.288-6.038,2.901
				c-6.396,1.676-13.171,1.122-19.211-1.568c-0.784-0.392-1.333-0.784-1.725-1.098c-0.392-0.314-0.627-0.862-0.862-1.647
				c-0.235-0.784-0.314-1.803-0.314-3.293l0.078-2.274c0.05-0.481,0.155-0.955,0.314-1.411l0.47-0.706l0.706-0.157
				c0.392,0,0.862,0.235,1.568,0.627c2.004,1.102,4.103,2.02,6.273,2.744c2.506,0.674,5.131,0.781,7.684,0.314
				c0.862-0.235,1.647-0.549,2.274-1.019c0.627-0.392,1.098-0.941,1.411-1.647c0.314-0.627,0.47-1.411,0.47-2.274
				c0-1.019-0.314-1.803-0.941-2.509c-0.675-0.765-1.503-1.379-2.431-1.803c-1.019-0.549-2.117-1.019-3.372-1.49l-3.842-1.49
				c-1.333-0.549-2.588-1.176-3.842-1.882c-2.581-1.456-4.618-3.713-5.802-6.43c-0.627-1.49-0.941-3.215-0.941-5.332
				c0-2.117,0.392-3.999,1.255-5.724c0.784-1.725,1.96-3.215,3.529-4.469c1.568-1.255,3.372-2.195,5.646-2.901
				c3.708-1.127,7.629-1.369,11.448-0.706l3.529,0.706l2.666,0.941l1.568,0.862c0.314,0.235,0.549,0.47,0.627,0.706l0.314,0.862
				l0.157,1.255l0.078,1.882l-0.078,2.195l-0.235,1.333c-0.078,0.314-0.235,0.549-0.47,0.627l-0.706,0.157
				c-0.314,0-0.784-0.157-1.411-0.549c-1.792-0.884-3.654-1.619-5.567-2.195c-2.306-0.598-4.716-0.678-7.057-0.235
				c-0.743,0.193-1.438,0.541-2.039,1.019c-0.549,0.392-0.941,0.941-1.176,1.49c-0.248,0.569-0.382,1.182-0.392,1.803
				c0,1.019,0.314,1.882,0.941,2.588c0.627,0.706,1.411,1.255,2.431,1.803c1.019,0.549,2.195,1.019,3.45,1.49l3.92,1.49
				c1.333,0.549,2.666,1.176,3.921,1.882c1.255,0.706,2.431,1.568,3.45,2.666c1.019,1.019,1.803,2.274,2.431,3.764
				C912.325,676.77,912.638,678.495,912.638,680.534L912.638,680.534z"/>
			<path fill="#40C1C4" d="M483.264,464.828H372.235l29.325,36.618l34.03,42.577h103.972H325.816
				c-85.859,0-120.595,18.583-141.53,21.249l13.33-50.967l-59.043-13.095c17.172-8.311,64.453-36.382,187.243-36.382H483.264
				L483.264,464.828z"/>
			<path fill="#FFFFFF" d="M230.548,513.677l-2.195,0.235l0.941,9.88c0.157,1.333-0.078,2.274-0.549,2.98
				c-0.549,0.706-1.255,1.019-2.117,1.098c-0.873,0.117-1.756-0.139-2.431-0.706c-0.627-0.627-0.941-1.49-1.098-2.744l-2.274-23.68
				c-0.157-1.333,0.078-2.352,0.627-2.98c0.549-0.627,1.49-1.019,2.823-1.176l10.115-0.941c1.411-0.157,2.588-0.157,3.607-0.157
				c1.019,0,1.882,0.157,2.744,0.47c3.18,0.959,5.41,3.818,5.567,7.135c0.235,2.274-0.235,4.156-1.411,5.646
				c-1.468,1.682-3.408,2.884-5.567,3.45c1.176,0.47,2.274,1.255,3.45,2.274c2.046,1.972,3.814,4.214,5.253,6.665
				c0.42,0.644,0.712,1.363,0.863,2.117l-0.235,1.255c-0.235,0.392-0.549,0.784-0.941,1.019c-0.392,0.235-0.941,0.47-1.49,0.47
				c-0.706,0.078-1.333-0.078-1.803-0.314c-0.47-0.314-0.941-0.627-1.333-1.098l-1.568-2.117l-2.901-3.92
				c-0.805-1.161-1.724-2.238-2.744-3.215c-0.784-0.706-1.568-1.176-2.274-1.411C232.587,513.599,231.646,513.599,230.548,513.677
				L230.548,513.677z M232.9,500.426l-5.724,0.549l0.784,8.468l5.567-0.549c1.49-0.157,2.744-0.392,3.764-0.784
				c0.881-0.274,1.65-0.824,2.195-1.568c0.47-0.706,0.627-1.568,0.549-2.666c-0.078-0.863-0.392-1.568-0.863-2.195
				c-0.501-0.619-1.188-1.059-1.96-1.255C236.429,500.269,235.017,500.191,232.9,500.426L232.9,500.426z M267.95,513.677
				l-11.213,1.019c0.157,1.333,0.47,2.431,1.098,3.372c0.536,0.893,1.328,1.603,2.274,2.039c0.863,0.392,1.882,0.627,2.901,0.47
				l1.882-0.392c0.549-0.235,1.098-0.549,1.568-0.941l1.333-1.255l1.568-1.725c0.235-0.314,0.706-0.47,1.255-0.47
				c0.549-0.078,1.098,0.078,1.49,0.392c0.392,0.314,0.627,0.706,0.706,1.333c0.078,0.549-0.078,1.176-0.47,1.882
				c-0.314,0.706-0.863,1.411-1.647,2.195c-0.784,0.706-1.725,1.333-2.98,1.882c-1.176,0.549-2.588,0.863-4.234,1.019
				c-3.685,0.314-6.665-0.47-8.86-2.352c-2.195-1.882-3.528-4.705-3.842-8.233c-0.157-1.725,0-3.293,0.314-4.783
				c0.392-1.49,1.019-2.823,1.882-3.921c0.863-1.098,1.96-2.039,3.372-2.666c1.333-0.706,2.901-1.098,4.626-1.255
				c3.82-0.532,7.613,1.137,9.801,4.313c0.941,1.411,1.49,2.901,1.568,4.469c0.157,1.411-0.235,2.431-1.019,2.901
				C270.537,513.285,269.44,513.599,267.95,513.677L267.95,513.677z M256.423,511.482l10.35-0.941
				c-0.314-1.96-0.941-3.372-1.96-4.234c-1.04-0.887-2.41-1.286-3.764-1.098c-1.411,0.157-2.588,0.706-3.372,1.803
				C256.894,508.11,256.423,509.521,256.423,511.482L256.423,511.482z M278.065,519.636l-2.117-24.856
				c-0.078-1.176,0.078-2.039,0.549-2.666c0.443-0.645,1.178-1.027,1.96-1.019c0.863-0.078,1.568,0.157,2.195,0.706
				c0.627,0.689,0.988,1.578,1.019,2.509l2.117,24.856c0.078,1.176-0.078,2.039-0.549,2.666c-0.47,0.627-1.176,0.941-2.039,1.019
				s-1.568-0.157-2.117-0.706C278.457,521.597,278.143,520.734,278.065,519.636L278.065,519.636z M305.116,510.541l-11.213,0.941
				c0.157,1.333,0.47,2.431,1.098,3.372c1.067,1.763,3.044,2.766,5.097,2.588c1.245-0.087,2.44-0.522,3.45-1.255l1.411-1.255
				l1.647-1.725c0.235-0.314,0.706-0.47,1.255-0.47c0.549-0.078,1.098,0.078,1.49,0.392c0.392,0.314,0.627,0.706,0.627,1.333
				c0.078,0.549-0.078,1.176-0.47,1.882c-0.423,0.795-0.98,1.511-1.647,2.117c-2.06,1.656-4.577,2.641-7.214,2.823
				c-3.685,0.314-6.665-0.47-8.86-2.431c-2.195-1.96-3.45-4.705-3.764-8.311c-0.157-1.725,0-3.293,0.392-4.783
				c0.616-2.901,2.562-5.341,5.254-6.586c1.333-0.706,2.901-1.098,4.626-1.255c2.274-0.157,4.234,0.157,5.881,0.941
				c3.078,1.47,5.161,4.445,5.489,7.841c0.157,1.411-0.235,2.431-1.019,2.901C307.567,510.208,306.353,510.532,305.116,510.541
				L305.116,510.541z M293.668,508.267l10.35-0.862c-0.314-1.96-0.941-3.372-1.96-4.234c-1.05-0.873-2.403-1.296-3.764-1.176
				c-1.411,0.157-2.588,0.706-3.372,1.803C294.024,505.108,293.583,506.68,293.668,508.267L293.668,508.267z M329.659,515.873
				c-1.159,1.052-2.451,1.949-3.842,2.666c-2.568,1.263-5.538,1.433-8.233,0.47c-1.087-0.486-2.032-1.242-2.744-2.195
				c-0.641-0.957-1.019-2.066-1.098-3.215c-0.078-1.568,0.314-2.901,1.255-4.077c0.941-1.176,2.274-1.96,3.921-2.509
				c0.894-0.213,1.783-0.448,2.666-0.706l3.685-1.019l3.293-1.098c-0.061-1.177-0.44-2.315-1.098-3.293
				c-0.549-0.706-1.725-0.941-3.45-0.863c-1.49,0.078-2.509,0.392-3.215,0.784c-0.753,0.495-1.372,1.169-1.803,1.96l-1.019,1.647
				c-0.235,0.235-0.627,0.392-1.411,0.47c-0.627,0.078-1.176-0.157-1.725-0.549c-0.47-0.392-0.784-0.863-0.784-1.568
				c-0.058-1.062,0.246-2.112,0.863-2.98c0.8-1.154,1.916-2.053,3.215-2.588c1.49-0.706,3.372-1.098,5.567-1.255
				c2.509-0.157,4.548,0,6.038,0.549c1.49,0.47,2.588,1.411,3.215,2.666c0.706,1.255,1.098,2.98,1.176,5.097l0.235,3.45l0.157,3.136
				c0.081,1.158,0.346,2.296,0.784,3.372l0.706,2.195c0,0.627-0.235,1.176-0.706,1.647c-0.549,0.549-1.098,0.784-1.803,0.862
				c-0.627,0-1.176-0.235-1.803-0.706C330.941,517.51,330.259,516.722,329.659,515.873L329.659,515.873z M328.718,507.561
				c-2.27,0.801-4.572,1.508-6.9,2.117c-0.627,0.235-1.176,0.549-1.725,1.019c-0.549,0.47-0.784,1.176-0.706,2.039
				c0.078,0.862,0.392,1.568,1.098,2.117s1.568,0.784,2.666,0.784c1.098-0.078,2.195-0.392,3.058-0.941
				c0.941-0.549,1.568-1.255,1.96-2.039c0.47-0.863,0.627-2.352,0.47-4.313L328.718,507.561z M358.906,510.462
				c0.078,1.568-0.314,2.98-1.019,4.077c-0.811,1.225-1.993,2.159-3.372,2.666c-1.49,0.627-3.293,0.941-5.489,1.019
				c-2.039,0.078-3.842-0.235-5.332-0.784c-1.279-0.454-2.416-1.238-3.293-2.274c-0.667-0.794-1.053-1.786-1.098-2.823
				c0-0.627,0.157-1.176,0.627-1.647c0.453-0.463,1.077-0.718,1.725-0.706c0.5-0.023,0.995,0.115,1.411,0.392
				c0.314,0.314,0.627,0.706,0.941,1.255c0.544,0.919,1.296,1.698,2.195,2.274c0.863,0.47,1.96,0.706,3.372,0.706
				c1.176,0,2.117-0.314,2.823-0.862c0.706-0.549,1.098-1.098,1.019-1.803c0-1.019-0.392-1.725-1.176-2.195
				c-0.784-0.47-2.039-0.862-3.842-1.255c-1.96-0.47-3.607-0.941-4.861-1.411c-1.255-0.47-2.274-1.176-3.058-2.039
				c-0.782-0.886-1.202-2.034-1.176-3.215c0-1.176,0.314-2.274,0.941-3.293s1.647-1.882,2.98-2.509
				c1.333-0.627,2.901-1.019,4.861-1.019c2.428-0.148,4.847,0.396,6.978,1.568c0.784,0.47,1.411,1.019,1.882,1.647
				c0.392,0.627,0.627,1.255,0.706,1.803c0,0.627-0.157,1.176-0.627,1.647c-0.392,0.47-1.019,0.627-1.882,0.706
				c-0.627,0-1.098-0.157-1.49-0.47c-0.392-0.314-0.941-0.784-1.49-1.49c-0.427-0.546-0.96-1-1.568-1.333
				c-0.627-0.314-1.411-0.47-2.431-0.47s-1.882,0.235-2.588,0.706s-1.019,1.019-1.019,1.647s0.314,1.098,0.784,1.49
				c0.549,0.392,1.176,0.706,2.039,0.941l3.528,0.862c1.803,0.392,3.293,0.862,4.391,1.411c1.176,0.549,2.039,1.255,2.588,2.039
				C358.568,508.467,358.933,509.45,358.906,510.462L358.906,510.462z M379.919,508.032l-11.213-0.235
				c0,1.333,0.235,2.431,0.706,3.45c0.843,1.881,2.722,3.082,4.783,3.058c1.239,0.009,2.458-0.316,3.528-0.941l1.49-1.098
				l1.803-1.568c0.354-0.28,0.811-0.394,1.255-0.314c0.627,0,1.098,0.157,1.411,0.549c0.392,0.314,0.549,0.784,0.549,1.411
				c0,0.549-0.235,1.098-0.627,1.803c-0.477,0.783-1.119,1.452-1.882,1.96c-0.863,0.627-1.882,1.098-3.136,1.49
				c-1.255,0.392-2.666,0.549-4.313,0.549c-3.685-0.078-6.508-1.176-8.547-3.372c-2.109-2.355-3.158-5.474-2.901-8.625
				c0-1.725,0.314-3.293,0.863-4.705s1.333-2.666,2.274-3.685c1.019-1.019,2.195-1.803,3.607-2.274
				c1.411-0.47,2.98-0.784,4.705-0.706c2.274,0.078,4.156,0.549,5.724,1.568c2.932,1.767,4.697,4.967,4.626,8.39
				c0,1.411-0.47,2.352-1.333,2.744C382.585,507.875,381.409,508.11,379.919,508.032L379.919,508.032z M368.707,504.503
				l10.429,0.235c0.018-1.615-0.507-3.188-1.49-4.469c-0.928-1.007-2.237-1.577-3.607-1.568c-1.411,0-2.588,0.47-3.528,1.411
				C369.47,501.354,368.84,502.888,368.707,504.503L368.707,504.503z"/>
		</g>
		<g id="Layer_2">
			<path fill="#0D8F99" d="M560.263,302.127c-0.009-0.447-0.145-0.882-0.392-1.255c-0.314-0.392-0.784-0.706-1.49-0.941
				c-4.806-1.042-9.779-1.042-14.584,0c-0.706,0.235-1.176,0.549-1.49,0.941s-0.392,0.784-0.392,1.255v55.122
				c0,3.215-0.47,6.038-1.333,8.625c-0.78,2.347-2.034,4.509-3.685,6.351c-1.568,1.725-3.528,3.058-5.881,3.921
				c-2.352,0.863-4.94,1.333-7.841,1.333s-5.489-0.47-7.841-1.333c-2.277-0.846-4.339-2.184-6.038-3.921
				c-1.647-1.725-2.98-3.921-3.842-6.586c-0.938-3.073-1.387-6.275-1.333-9.488v-54.103c0-0.47-0.157-0.863-0.47-1.255
				c-0.314-0.392-0.784-0.706-1.49-0.941c-4.858-1.05-9.883-1.05-14.741,0c-0.706,0.235-1.255,0.549-1.49,0.941
				c-0.314,0.392-0.392,0.784-0.392,1.255v55.671c0,5.881,0.862,10.977,2.509,15.29c1.509,4.172,4.012,7.913,7.292,10.899
				c3.136,2.901,7.057,5.097,11.605,6.508c5.035,1.509,10.269,2.249,15.525,2.195c6.116,0,11.526-0.784,16.309-2.431
				c8.948-2.683,16.082-9.468,19.211-18.27c1.721-4.83,2.571-9.927,2.509-15.055v-54.73L560.263,302.127z M621.658,343.919
				l20.387-37.402c0.629-1.289,1.154-2.626,1.568-3.999c0.235-1.019,0.157-1.725-0.392-2.274s-1.49-0.863-2.823-0.941
				c-3.526-0.197-7.06-0.197-10.585,0c-1.176,0.078-2.117,0.235-2.823,0.47s-1.176,0.47-1.49,0.863s-0.627,0.863-0.862,1.411
				l-15.682,30.266l-16.074-30.266l-0.862-1.411c-0.314-0.392-0.862-0.706-1.568-0.863c-0.784-0.235-1.803-0.392-3.058-0.47
				c-3.812-0.251-7.636-0.251-11.448,0c-1.49,0.157-2.431,0.392-2.98,0.941c-0.549,0.47-0.627,1.255-0.392,2.274
				c0.314,1.019,0.863,2.352,1.725,4.077l20.387,37.558l-21.955,39.989c-0.713,1.28-1.316,2.618-1.803,3.999
				c-0.314,1.019-0.157,1.725,0.314,2.274c0.47,0.549,1.411,0.863,2.744,1.019c3.594,0.401,7.221,0.428,10.821,0.078
				c1.333-0.078,2.274-0.235,3.058-0.47c0.706-0.235,1.255-0.47,1.568-0.863l0.941-1.411l17.172-33.089l17.172,33.089
				c0.235,0.549,0.549,1.019,0.862,1.411c0.314,0.392,0.862,0.706,1.568,0.863c0.706,0.235,1.725,0.392,2.98,0.47
				c3.813,0.231,7.638,0.205,11.448-0.078c1.49-0.157,2.509-0.47,3.058-1.019c0.549-0.549,0.706-1.255,0.47-2.274
				c-0.4-1.39-0.952-2.731-1.647-3.999L621.658,343.919L621.658,343.919z"/>
			<path id="_xA9_" fill="#69366E" d="M552.736,815.635c-3.921-3.764-8.704-6.586-14.349-8.468
				c-6.73-2.058-13.743-3.037-20.779-2.901h-23.523c-1.568,0-2.901,0.47-3.921,1.411c-1.098,0.941-1.568,2.431-1.568,4.469v79.822
				c0,2.039,0.549,3.607,1.568,4.469c1.098,0.941,2.352,1.411,3.921,1.411h21.876c7.098,0.15,14.179-0.748,21.014-2.666
				c5.556-1.603,10.676-4.445,14.976-8.311c4.281-4.034,7.534-9.035,9.488-14.584c2.349-6.94,3.463-14.238,3.293-21.563
				c0-7.292-1.019-13.643-3.058-19.211C559.557,824.025,556.656,819.398,552.736,815.635L552.736,815.635z M543.64,863.23
				c-0.994,3.667-2.788,7.068-5.253,9.958c-2.352,2.666-5.253,4.626-8.782,5.959c-4.134,1.421-8.49,2.085-12.859,1.96h-9.644V818.85
				h9.409c4.731-0.16,9.446,0.613,13.879,2.274c3.528,1.568,6.43,3.685,8.625,6.43c2.274,2.744,3.842,5.959,4.861,9.723
				c1.019,3.764,1.49,7.763,1.49,12.075C545.451,854.036,544.87,858.709,543.64,863.23L543.64,863.23z M641.966,892.79
				c-0.4-1.39-0.952-2.731-1.647-3.999l-21.72-40.224l20.387-37.402c0.629-1.289,1.154-2.626,1.568-3.999
				c0.235-1.019,0.157-1.725-0.392-2.274c-0.549-0.549-1.49-0.862-2.823-0.941c-3.526-0.197-7.06-0.197-10.585,0
				c-1.176,0.078-2.117,0.235-2.823,0.47c-0.706,0.235-1.176,0.47-1.49,0.862s-0.627,0.862-0.862,1.411l-15.682,30.266
				l-16.074-30.266l-0.862-1.411c-0.314-0.392-0.862-0.706-1.568-0.862c-0.784-0.235-1.803-0.392-3.058-0.47
				c-3.812-0.251-7.636-0.251-11.448,0c-1.49,0.157-2.431,0.392-2.98,0.941c-0.549,0.47-0.627,1.255-0.392,2.274
				c0.314,1.019,0.863,2.352,1.725,4.077l20.387,37.559l-21.955,39.989c-0.713,1.28-1.316,2.618-1.803,3.999
				c-0.314,1.019-0.157,1.725,0.314,2.274c0.47,0.549,1.411,0.862,2.744,1.019c3.594,0.401,7.221,0.428,10.821,0.078
				c1.333-0.078,2.274-0.235,3.058-0.47c0.706-0.235,1.255-0.47,1.568-0.863l0.941-1.411l17.172-33.089l17.172,33.089
				c0.235,0.549,0.549,1.019,0.862,1.411c0.314,0.392,0.862,0.706,1.568,0.863c0.706,0.235,1.725,0.392,2.98,0.47
				c3.813,0.231,7.638,0.205,11.448-0.078c1.49-0.157,2.509-0.47,3.058-1.019S642.202,893.81,641.966,892.79L641.966,892.79z"/>
		</g>
	</g>
</g>
</svg>
