<?xml version="1.0" encoding="utf-8"?>
<!-- Generator: Adobe Illustrator 21.1.0, SVG Export Plug-In . SVG Version: 6.00 Build 0)  -->
<svg version="1.1" id="Layer_1" xmlns="http://www.w3.org/2000/svg" xmlns:xlink="http://www.w3.org/1999/xlink" x="0px" y="0px"
	 viewBox="0 0 510.24 510.24" enable-background="new 0 0 510.24 510.24" xml:space="preserve">
<path fill="#3DBFC3" d="M86.324,420.994c123.518,104.353,364.962,56.87,412.778-72.966
	c41.093-111.58-60.488-284.884-210.559-310.626C178.573,18.539,43.873,79.138,11.274,193.758
	C-13.378,280.434,27.866,371.606,86.324,420.994z"/>
<path fill="#FFFFFF" d="M376.892,168.382c-0.83-1.134-2.108-1.886-3.503-2.06l-49.101-6.158c-2.025-0.255-4.006,0.716-5.047,2.467
	c-1.043,1.753-0.951,3.958,0.239,5.615l11.323,15.789l-52.06,30.9l-28.764-50.233c-0.989-1.727-2.683-2.9-4.649-3.216
	c-1.966-0.316-3.943,0.263-5.424,1.592l-50.932,45.676c-1.461,1.311-1.583,3.554-0.274,5.015c1.309,1.459,3.553,1.581,5.015,0.272
	l50.433-45.229l29.759,51.968c0.599,1.049,1.574,1.796,2.743,2.103c1.167,0.309,2.382,0.139,3.423-0.479l56.696-33.652
	c1.108-0.657,1.894-1.755,2.156-3.014c0.264-1.259-0.013-2.582-0.764-3.627l-10.284-14.341l42.557,5.337l-7.878,42.692
	l-10.327-14.554c-1.389-1.957-4-2.521-6.071-1.311L327.694,210.7c-0.649,0.227-1.283,0.512-1.894,0.865l-7.527,4.346
	c-0.695,0.401-1.33,0.871-1.901,1.393l-6.796,3.963c-0.49,0.074-0.98,0.183-1.466,0.333c-0.277,0.083-0.542,0.202-0.79,0.35
	l-38.704,23.161l-26.56-42.044c-1.903-3.011-5.79-3.943-8.853-2.119l-34.64,20.646c-0.007,0.004-0.015,0.004-0.022,0.007
	c-0.276,0.083-0.54,0.202-0.788,0.35l-38.642,23.124l24.633-22.092c1.461-1.309,1.583-3.554,0.274-5.014
	c-1.309-1.461-3.554-1.583-5.015-0.272l-41.893,37.569c-1.875,1.681-2.164,4.479-0.671,6.506c0.951,1.293,2.417,1.988,3.913,1.988
	c0.853,0,1.714-0.224,2.498-0.692l2.106-1.256c1.189,1.727,2.817,3.136,4.771,4.078c3.405,1.644,7.309,1.633,10.706-0.03l15.9-7.776
	l-8.272,40.406c-0.124,0.616-0.459,1.178-0.936,1.587c-1.494,1.27-1.675,3.512-0.405,5.004c0.703,0.827,1.701,1.25,2.706,1.25
	c0.814,0,1.631-0.277,2.299-0.845c1.685-1.431,2.854-3.412,3.294-5.568l2.049-9.931c2.007,3.253,4.74,6.092,8.096,8.268l-3.07,7.573
	c-0.451,0.914-1.47,1.54-3.205,2.552c-0.222,0.131-0.449,0.263-0.677,0.398l-20.208,11.577l-1.857-1.531l4.518-3.869
	c1.489-1.276,1.663-3.517,0.387-5.006c-1.274-1.491-3.516-1.664-5.006-0.388l-6.301,5.396c-1.156,0.984-1.812,2.421-1.798,3.939
	c0.011,1.518,0.692,2.942,1.859,3.902l4.525,3.736c1.004,0.825,2.256,1.248,3.514,1.248c0.943,0,1.892-0.239,2.744-0.721
	l21.177-12.132c0.015-0.009,0.03-0.018,0.044-0.028c0.222-0.131,0.442-0.259,0.658-0.385c2.204-1.289,4.705-2.746,6.101-5.77
	c0.024-0.052,0.046-0.104,0.067-0.155l2.726-6.722l7.765,4.462c1.572,0.902,2.482,2.654,2.319,4.461l-1.367,15.022
	c-0.105,1.161,0.285,2.321,1.071,3.183c0.788,0.86,1.907,1.354,3.072,1.354h8.512c1.944,0,3.61-1.322,4.05-3.21l5.263-22.46
	c0.899-2.787,0.542-5.803-0.989-8.307c-0.043-0.068-0.087-0.135-0.133-0.202l-17.371-24.509l9.528-25.735
	c0.006-0.017,0.011-0.031,0.017-0.048c0.775-2.186,1.184-4.435,1.245-6.674c0.523,0.076,1.049,0.118,1.572,0.118
	c1.897,0,3.769-0.497,5.455-1.472l7.527-4.346c5.226-3.018,7.024-9.726,4.006-14.952l-1.72-2.979
	c-0.773-1.339-1.805-2.471-3.016-3.357l8.183-4.877l26.168,41.421l-8.226,4.923c-1.311,0.784-1.973,2.319-1.644,3.811
	c0.816,3.693,3.238,6.754,6.645,8.396c3.405,1.644,7.309,1.633,10.706-0.03l31.39-15.353c1.761-0.862,2.491-2.989,1.629-4.749
	c-0.862-1.762-2.988-2.491-4.751-1.629l-31.388,15.353c-1.43,0.699-3.07,0.703-4.503,0.011c-0.675-0.325-1.259-0.784-1.724-1.343
	l8.649-5.176l42.298-24.668c0.734,0.126,1.413,0.509,1.901,1.123l0.15,0.187c0.178,0.423,0.379,0.84,0.614,1.246l1.72,2.979
	c0.002,0.004,0.004,0.007,0.007,0.011c1.08,3.07,1.11,6.449-0.013,9.631l-9.2,24.853l-13.591-1.572l-1.744-0.203l0.089-0.444
	c0.385-1.923-0.862-3.795-2.785-4.179c-1.923-0.381-3.795,0.862-4.179,2.785l-6.939,33.754c-0.129,0.625-0.462,1.193-0.949,1.605
	l-17.371,14.872c-1.154,0.986-1.809,2.421-1.796,3.941c0.013,1.516,0.692,2.94,1.859,3.9l4.516,3.726
	c1.004,0.83,2.258,1.258,3.521,1.258c0.943,0,1.892-0.239,2.748-0.723l21.175-12.132c0.015-0.009,0.03-0.017,0.044-0.026
	c0.222-0.131,0.44-0.259,0.657-0.385c2.206-1.289,4.707-2.746,6.103-5.772c0.024-0.05,0.046-0.102,0.067-0.154l2.726-6.722
	l7.765,4.461c1.572,0.904,2.482,2.656,2.317,4.462l-1.365,15.022c-0.105,1.161,0.285,2.321,1.071,3.181
	c0.786,0.862,1.907,1.356,3.072,1.356h8.512c1.94,0,3.606-1.32,4.05-3.21l5.265-22.46c0.897-2.787,0.54-5.803-0.991-8.309
	c-0.043-0.067-0.087-0.135-0.133-0.2l-17.371-24.509l9.528-25.735c0.006-0.017,0.011-0.031,0.017-0.048
	c0.775-2.186,1.185-4.437,1.245-6.674c0.523,0.076,1.049,0.118,1.572,0.118c1.897,0,3.769-0.497,5.455-1.472l7.527-4.346
	c5.226-3.018,7.024-9.726,4.006-14.952l-1.72-2.979c-0.638-1.104-1.455-2.062-2.4-2.866l9.408-5.485l11.702,16.49
	c1.195,1.687,3.273,2.485,5.291,2.042c2.018-0.446,3.565-2.045,3.941-4.08l9.102-49.329
	C378.051,170.962,377.722,169.518,376.892,168.382z M215.272,302.556c-0.039,0.113-0.072,0.227-0.098,0.346l-4.769,20.344h-2.959
	l1.074-11.813c0.414-4.559-1.883-8.98-5.853-11.26l-12.727-7.314c-6.883-3.956-10.554-11.566-9.47-19.307l2.709,0.313l14.417,1.67
	l17.456,24.626C215.466,300.889,215.548,301.757,215.272,302.556z M206.416,243.485l-9.202,24.851l-14.227-1.644l-1.108-0.129
	l2.484-12.405l7.462-3.651c1.761-0.862,2.491-2.988,1.629-4.749c-0.862-1.762-2.988-2.491-4.751-1.629l-9.006,4.405
	c-0.02,0.009-0.039,0.018-0.057,0.028l-22.325,10.92c-1.428,0.699-3.068,0.703-4.501,0.011c-0.675-0.326-1.258-0.782-1.722-1.337
	l50.128-29.878c1.032-0.102,2.053,0.314,2.719,1.15l0.148,0.187c0.178,0.422,0.379,0.84,0.614,1.246l1.72,2.981
	c0.004,0.004,0.006,0.007,0.007,0.011C207.509,236.923,207.536,240.302,206.416,243.485z M225.349,227.353l-7.527,4.346
	c-0.89,0.514-1.925,0.651-2.916,0.383c-0.853-0.227-1.583-0.73-2.097-1.431c-0.614-1.531-1.402-3.007-2.373-4.392
	c-0.372-1.603,0.324-3.332,1.822-4.196l7.527-4.346c0.594-0.342,1.25-0.518,1.916-0.518c0.335,0,0.669,0.044,1.002,0.133
	c0.991,0.266,1.82,0.902,2.334,1.79l1.72,2.979C227.816,223.937,227.184,226.294,225.349,227.353z M291.664,305.827
	c-0.453,0.915-1.47,1.54-3.207,2.554c-0.222,0.129-0.448,0.261-0.675,0.396l-20.208,11.577l-1.857-1.531l15.577-13.337
	c1.674-1.424,2.844-3.401,3.294-5.568l2.047-9.929c2.007,3.253,4.742,6.09,8.098,8.266L291.664,305.827z M324.841,302.556
	c-0.039,0.113-0.072,0.227-0.1,0.346l-4.769,20.344h-2.959l1.074-11.813c0.414-4.559-1.883-8.98-5.851-11.26l-12.727-7.314
	c-6.883-3.956-10.556-11.566-9.472-19.307l3.414,0.394l13.713,1.589l17.456,24.626C325.033,300.889,325.114,301.757,324.841,302.556
	z M331.267,217.199c0.335,0,0.671,0.044,1.002,0.133c0.991,0.266,1.82,0.902,2.334,1.79l1.72,2.979
	c1.06,1.836,0.429,4.192-1.407,5.252l-7.527,4.346c-0.888,0.514-1.925,0.651-2.916,0.383c-0.853-0.227-1.583-0.73-2.097-1.431
	c-0.614-1.531-1.402-3.007-2.371-4.39c-0.27-1.163,0.024-2.387,0.773-3.305l9.724-5.67
	C330.753,217.234,331.01,217.199,331.267,217.199z"/>
</svg>
