<svg xmlns="http://www.w3.org/2000/svg" viewBox="0 0 600 291.76"><title>tidal-logo</title><g id="Layer_2" data-name="Layer 2"><g id="TIDAL"><rect x="281.16" y="7.8" width="37.68" height="37.68" transform="translate(69.03 219.94) rotate(-45)"/><rect x="281.16" y="61.09" width="37.68" height="37.68" transform="translate(31.35 235.55) rotate(-45)"/><rect x="227.87" y="7.8" width="37.68" height="37.68" transform="translate(53.42 182.26) rotate(-45)"/><rect x="334.45" y="7.8" width="37.68" height="37.68" transform="translate(84.64 257.63) rotate(-45)"/><path d="M50.82,291.76H28.66v-78.6H0v-19H79.48v19H50.82Z"/><path d="M168.08,291.76H145.79v-97.6h22.29Z"/><path d="M561.45,272.5H600v19.26H539.16v-97.6h22.29Z"/><path d="M242.29,194.16H278.4c26.64,0,53.15,14.11,53.15,48.54,0,32.44-26,49.06-51.83,49.06H242.29Zm21.63,78.47h13.82c18.6,0,31-11.6,31-30.07,0-17.54-12.54-29.4-30.47-29.4H263.92Z"/><path d="M455.26,291.76h24.5l-40.2-97.6h-23L376,291.76h23.84L407,272.5h41.15ZM413,255.16,427.65,217l14.57,38.17Z"/></g></g></svg>