<svg id="Layer_1" xmlns="http://www.w3.org/2000/svg" viewBox="0 0 4780 1800"><style>.st2{fill:#43c1e9}.st4{fill:#fff}.st5{fill:#414042}.st6{font-family:&apos;Oswald&apos;}.st8{fill:#d1d3d4}.st12{opacity:.7;fill:#fff}.st13{font-size:52.6025px}.st14{font-size:41.1842px}.st15{fill:#f5d6c5}.st16{fill:#ff9335}.st17{fill:#feac5a}.st18{fill:#a0bf40}.st19{fill:#c0d36a}.st22{fill:#00a16e}</style><path fill="#ff7a73" d="M0 0h4780v1799.99H0z"/><ellipse transform="rotate(-45.001 2390 924.725)" cx="2390" cy="924.69" rx="782.85" ry="782.85" fill="#f0736c"/><path class="st2" d="M2864.41 378.81v915h-932.52V365.06c-161.83 132.63-265.12 334.06-265.12 559.63 0 399.43 323.8 723.23 723.23 723.23s723.23-323.8 723.23-723.23c-.01-217.9-96.38-413.28-248.82-545.88z"/><path d="M2864.41 1293.81v-915c-127-110.46-292.89-177.34-474.41-177.34-173.86 0-333.37 61.37-458.11 163.59v928.75h932.52z" fill="#3eb4d9"/><path class="st4" d="M1972.37 155.32h835.24v1069.75h-835.24z"/><path class="st5" d="M2732.2 376.97c0 5.46-4.42 9.89-9.88 9.89h-667.93c-5.46 0-9.88-4.42-9.88-9.89 0-5.46 4.42-9.87 9.88-9.87h667.93c5.45 0 9.88 4.42 9.88 9.87z"/><text transform="translate(2252.988 316.699)" class="st6" font-size="86.875">INVOICE</text><path class="st8" d="M2025.07 430.66h620.5v25.69h-620.5zM2025.07 485.99h725.24v25.7h-725.24zM2025.07 881.22h725.24v25.69h-725.24zM2025.07 940.5h725.24v25.69h-725.24zM2025.07 999.79h725.24v25.69h-725.24zM2025.07 1118.35h183.12v25.69h-183.12z"/><path fill="#65ebc2" d="M2025.07 548.57h725.24v44.13h-725.24z"/><path class="st8" d="M2025.07 592.7h725.24v249h-725.24z"/><g><path d="M2902.65 1361.42c0 15.71-12.74 28.46-28.45 28.46h-524.07c-15.72 0-28.46-12.75-28.46-28.46v-272.7c0-15.71 12.74-28.45 28.46-28.45h524.07c15.71 0 28.45 12.74 28.45 28.45v272.7z" fill="#004a58"/><path class="st2" d="M2428.03 1117.62c0 18.79-15.23 34.02-34.01 34.02-18.79 0-34.01-15.23-34.01-34.02 0-18.78 15.22-34.01 34.01-34.01 18.78 0 34.01 15.23 34.01 34.01z"/><path d="M2470.28 1117.62c0 18.79-15.23 34.02-34.02 34.02-18.78 0-34.01-15.23-34.01-34.02 0-18.78 15.23-34.01 34.01-34.01 18.79 0 34.02 15.23 34.02 34.01z" fill="#e86f6b"/><text transform="translate(2727.18 1132.595)" class="st12 st6 st13">#Bank</text><text transform="translate(2372.706 1225.066)" class="st12 st6 st13">0000 0000 0000 0000</text><text transform="translate(2416.708 1293.81)" class="st12 st6 st14">00/00</text><text transform="translate(2372.706 1357.986)" class="st12 st6 st14">User Name</text></g><g><path class="st15" d="M2406.12 1530.61c3.81 0 6.9-3.08 6.9-6.89v-93.92a40.27 40.27 0 0 0-6.06 5.7l-7.47 8.78-.25-.29v79.73a6.869 6.869 0 0 0 6.88 6.89zM2331.03 1540.95c3.81 0 6.89-3.08 6.89-6.89V1429.8a40.618 40.618 0 0 0-6.04 5.7l-7.49 8.78-.25-.3v90.08c0 3.81 3.08 6.89 6.89 6.89zM2258.41 1547.84c3.81 0 6.89-3.09 6.89-6.9v-113.01l-13.79 8.38v104.63c0 3.81 3.09 6.9 6.9 6.9z"/></g><g><path class="st16" d="M2759.52 671.34c-26.33 65.87 5.73 140.62 71.6 166.95 65.87 26.33 140.62-5.73 166.94-71.61 26.33-65.87-5.73-140.62-71.6-166.95-65.87-26.33-140.62 5.73-166.94 71.61zm213.91 85.49c-20.9 52.27-80.2 77.7-132.47 56.81-52.26-20.88-77.7-80.19-56.81-132.45 20.89-52.27 80.2-77.71 132.47-56.81 52.26 20.88 77.7 80.19 56.81 132.45z"/><path class="st17" d="M2784.15 681.19c-20.89 52.26 4.55 111.57 56.81 132.45 52.27 20.89 111.57-4.54 132.47-56.81 20.89-52.26-4.55-111.57-56.81-132.45-52.27-20.9-111.58 4.54-132.47 56.81z"/><g><path class="st4" d="M2806.93 693.12l-8.53-3.41 3.96-9.93 9.38 3.75 1.97-2.9c10.9-14.44 25.9-18.88 45.22-12.78l-2.97 21.84c-9.41-3.22-17.65-3.55-24.21.04l-1.78 1.09 43.9 17.54 11.88-6.76c12.19-7.09 28.72-11.55 46.33-4.51 19.24 7.69 25.49 24.22 20.36 42.68l8.76 3.5-3.97 9.93-8.76-3.5c-10.57 21.68-31.75 26.09-54.76 18.41l2.97-21.84c13.37 4.8 25.77 5.71 33.83-1.86l1.28-1.38-43.04-17.21-23.83 13.5c-10.23 5.8-23.59 7.93-38.4 2.01-20.63-8.24-27.93-27.34-19.59-48.21zm49.05 25.36l5.94-3.38-38.7-15.47c-3.85 9.62-.14 17.22 9.17 20.94 8.61 3.44 17.04 1.68 23.59-2.09zm47.21-.2l-2.18.93 34.9 13.95c1.16-7.18-2.31-12.44-10.45-15.7-8.69-3.46-15.54-2.06-22.27.82z"/></g></g><g><path class="st16" d="M2864.41 659.79c-70.94 0-128.45 57.51-128.45 128.45s57.51 128.45 128.45 128.45 128.45-57.5 128.45-128.45c-.01-70.94-57.52-128.45-128.45-128.45zm0 230.37c-56.29 0-101.91-45.63-101.91-101.92s45.62-101.92 101.91-101.92 101.92 45.63 101.92 101.92c-.01 56.29-45.64 101.92-101.92 101.92z"/><path class="st17" d="M2864.41 686.32c-56.29 0-101.91 45.63-101.91 101.92s45.62 101.92 101.91 101.92 101.92-45.63 101.92-101.92c-.01-56.29-45.64-101.92-101.92-101.92z"/><g><path class="st4" d="M2861.78 711.9v-9.18h10.69v10.1l3.43.75c17.46 4.76 27.15 17.04 28.64 37.25l-21.38 5.34c-.51-9.94-3.26-17.7-9.02-22.47l-1.67-1.25v47.27l10.69 8.52c11.11 8.69 21.38 22.39 21.38 41.34 0 20.72-13.03 32.66-32.07 34.75v9.44h-10.69v-9.44c-24.06-1.75-36-19.8-37.42-44.01l21.39-5.35c.5 14.2 4.26 26.05 14.28 30.73l1.75.67v-46.35l-21.38-17.12c-9.19-7.35-16.12-18.96-16.12-34.91-.01-22.22 15.03-36.08 37.5-36.08zm-5.35 54.96l5.35 4.26v-41.68c-10.36 0-16.04 6.27-16.04 16.29 0 9.27 4.76 16.45 10.69 21.13zm17.71 43.77l-1.67-1.68v37.59c7.1-1.59 10.69-6.76 10.69-15.53 0-9.36-3.85-15.21-9.02-20.38z"/></g></g><g><path class="st18" d="M1925.48 522.49l-196.87 352.3 191.48 107 196.88-352.3-191.49-107zM1914 960.28l-163.88-91.58L1931.57 544l163.88 91.58L1914 960.28z"/><path class="st18" d="M1881.42 826.17c-32.3-18.05-48.19-54.1-42.17-88.6l-70.3 125.8 139.73 78.08 70.3-125.8c-26.24 23.21-65.26 28.56-97.56 10.52zm-34.02 60.87c-10.32-5.77-14.01-18.82-8.24-29.13 5.77-10.32 18.81-14.02 29.13-8.25s14.01 18.82 8.24 29.13c-5.76 10.32-18.81 14.02-29.13 8.25zM1964.15 678.11c32.3 18.05 48.19 54.1 42.17 88.59l70.3-125.8-139.73-78.08-70.3 125.8c26.24-23.21 65.26-28.56 97.56-10.51zm34.02-60.87c10.32 5.77 14.01 18.81 8.24 29.13s-18.81 14.01-29.13 8.24-14.01-18.81-8.24-29.13c5.76-10.32 18.81-14.01 29.13-8.24z"/><path class="st19" d="M1977.28 654.62c10.32 5.77 23.36 2.08 29.13-8.24s2.08-23.37-8.24-29.13c-10.32-5.77-23.37-2.08-29.13 8.24-5.77 10.32-2.08 23.36 8.24 29.13zM1868.29 849.65c-10.32-5.77-23.37-2.07-29.13 8.25-5.77 10.32-2.07 23.36 8.24 29.13 10.32 5.77 23.37 2.07 29.13-8.25 5.77-10.31 2.08-23.35-8.24-29.13z"/><path class="st19" d="M1931.57 544l-181.45 324.7L1914 960.28l181.45-324.71L1931.57 544zm-22.9 397.46l-139.73-78.08 70.3-125.8c-6.02 34.5 9.87 70.54 42.17 88.6 32.31 18.05 71.32 12.69 97.55-10.51l-70.29 125.79zm97.65-174.76c6.02-34.5-9.87-70.54-42.17-88.59-32.3-18.05-71.33-12.7-97.56 10.51l70.3-125.8 139.73 78.08-70.3 125.8z"/><g><path class="st18" d="M1943.69 660.11l-196.88 352.3 191.48 107 196.87-352.31-191.47-106.99zm-11.49 437.79l-163.88-91.58 181.46-324.71 163.88 91.58-181.46 324.71z"/><path class="st18" d="M1899.62 963.79c-32.3-18.06-48.19-54.1-42.18-88.6l-70.3 125.8 139.73 78.08 70.3-125.8c-26.22 23.21-65.25 28.57-97.55 10.52zm-34.02 60.87c-10.32-5.77-14.01-18.81-8.24-29.13 5.77-10.33 18.81-14.02 29.13-8.25s14.01 18.82 8.24 29.13c-5.77 10.32-18.81 14.02-29.13 8.25zM1982.35 815.74c32.3 18.05 48.18 54.09 42.17 88.59l70.3-125.8-139.73-78.08-70.3 125.8c26.24-23.21 65.26-28.57 97.56-10.51zm34.02-60.87c10.32 5.77 14.02 18.81 8.25 29.13-5.77 10.33-18.82 14.02-29.13 8.25-10.32-5.77-14.02-18.81-8.25-29.13 5.77-10.33 18.81-14.02 29.13-8.25z"/><path class="st19" d="M1995.48 792.24c10.32 5.77 23.37 2.08 29.13-8.25 5.77-10.32 2.07-23.36-8.25-29.13s-23.36-2.08-29.13 8.25c-5.76 10.32-2.07 23.37 8.25 29.13zM1886.49 987.28c-10.33-5.77-23.37-2.08-29.13 8.25-5.77 10.32-2.08 23.36 8.24 29.13s23.36 2.08 29.13-8.24 2.08-23.38-8.24-29.14z"/><path class="st19" d="M1949.78 681.62l-181.46 324.71 163.88 91.58 181.45-324.7-163.87-91.59zm-22.91 397.46L1787.14 1001l70.3-125.8c-6.01 34.5 9.87 70.54 42.18 88.6 32.3 18.05 71.33 12.69 97.55-10.51l-70.3 125.79zm97.66-174.75c6.01-34.5-9.87-70.54-42.17-88.59-32.3-18.05-71.33-12.7-97.56 10.51l70.3-125.8 139.73 78.08-70.3 125.8z"/></g></g><g><path fill="#00b07a" d="M1910.37 957.26h305.37v354.57h-305.37z"/><path class="st5" d="M2215.75 921.63c0-11.2-9.16-20.36-20.36-20.36h-264.66c-11.2 0-20.36 9.16-20.36 20.36v35.63h305.37v-35.63zM1910.37 1369.51c0 11.19 9.16 20.36 20.36 20.36h264.66c11.2 0 20.36-9.17 20.36-20.36v-57.68h-305.37v57.68z"/><path fill="#2d2c2e" d="M2029.13 1334.31h67.86v33.08h-67.86z"/><path class="st22" d="M2003.05 1081.28c0-3.84-3.12-6.97-6.97-6.97h-57.24c-3.84 0-6.96 3.12-6.96 6.97v25.15c0 3.84 3.12 6.96 6.96 6.96h57.24c3.85 0 6.97-3.12 6.97-6.96v-25.15zM2098.64 1081.28c0-3.84-3.12-6.97-6.96-6.97h-57.24c-3.84 0-6.96 3.12-6.96 6.97v25.15c0 3.84 3.12 6.96 6.96 6.96h57.24c3.84 0 6.96-3.12 6.96-6.96v-25.15zM2194.23 1081.28c0-3.84-3.12-6.97-6.96-6.97h-57.24c-3.84 0-6.96 3.12-6.96 6.97v25.15c0 3.84 3.12 6.96 6.96 6.96h57.24c3.84 0 6.96-3.12 6.96-6.96v-25.15zM2003.05 1141.97c0-3.84-3.12-6.97-6.97-6.97h-57.24c-3.84 0-6.96 3.13-6.96 6.97v25.14c0 3.84 3.12 6.96 6.96 6.96h57.24c3.85 0 6.97-3.12 6.97-6.96v-25.14zM2098.64 1141.97c0-3.84-3.12-6.97-6.96-6.97h-57.24c-3.84 0-6.96 3.13-6.96 6.97v25.14c0 3.84 3.12 6.96 6.96 6.96h57.24c3.84 0 6.96-3.12 6.96-6.96v-25.14zM2194.23 1141.97c0-3.84-3.12-6.97-6.96-6.97h-57.24c-3.84 0-6.96 3.13-6.96 6.97v25.14c0 3.84 3.12 6.96 6.96 6.96h57.24c3.84 0 6.96-3.12 6.96-6.96v-25.14zM2003.05 1202.66c0-3.83-3.12-6.96-6.97-6.96h-57.24c-3.84 0-6.96 3.13-6.96 6.96v25.14c0 3.85 3.12 6.96 6.96 6.96h57.24c3.85 0 6.97-3.12 6.97-6.96v-25.14zM2098.64 1202.66c0-3.83-3.12-6.96-6.96-6.96h-57.24c-3.84 0-6.96 3.13-6.96 6.96v25.14c0 3.85 3.12 6.96 6.96 6.96h57.24c3.84 0 6.96-3.12 6.96-6.96v-25.14zM2194.23 1202.66c0-3.83-3.12-6.96-6.96-6.96h-57.24c-3.84 0-6.96 3.13-6.96 6.96v25.14c0 3.85 3.12 6.96 6.96 6.96h57.24c3.84 0 6.96-3.12 6.96-6.96v-25.14zM2003.05 1263.34c0-3.84-3.12-6.96-6.97-6.96h-57.24c-3.84 0-6.96 3.12-6.96 6.96v25.14c0 3.85 3.12 6.96 6.96 6.96h57.24c3.85 0 6.97-3.12 6.97-6.96v-25.14zM2098.64 1263.34c0-3.84-3.12-6.96-6.96-6.96h-57.24c-3.84 0-6.96 3.12-6.96 6.96v25.14c0 3.85 3.12 6.96 6.96 6.96h57.24c3.84 0 6.96-3.12 6.96-6.96v-25.14zM2194.23 1263.34c0-3.84-3.12-6.96-6.96-6.96h-57.24c-3.84 0-6.96 3.12-6.96 6.96v25.14c0 3.85 3.12 6.96 6.96 6.96h57.24c3.84 0 6.96-3.12 6.96-6.96v-25.14zM2194.23 1013.88c0 18.97-15.38 34.35-34.35 34.35h-193.64c-18.97 0-34.36-15.38-34.36-34.35s15.39-34.35 34.36-34.35h193.64c18.97 0 34.35 15.38 34.35 34.35z"/><text transform="translate(2030.915 1034.245)" class="st4 st6" font-size="43.101">$250.00</text></g><g><path class="st15" d="M2184.77 1256.02c-7.7 7.21-12.54 17.43-12.54 28.76l-.01 271.77 12.55 5.77v-306.3zM2214.94 1700l-185.52-172.12c-.05 12.17 4.57 24.34 13.85 33.6l142.72 145.74 41.34 88.55c.07.2.27.36.35.54.44.37.91.63 1.42.53h30.02l-17.47-50.06c-9.66-27.02-26.71-46.78-26.71-46.78z"/><path d="M2464.97 1433.25c-7.46-7.49-17.37-11.62-27.92-11.62a39.42 39.42 0 0 0-24.02 8.17v93.92c0 3.81-3.09 6.89-6.9 6.89-3.81 0-6.89-3.08-6.89-6.89v-79.73l-7.27-8.49c-.66-.76-1.35-1.54-2.08-2.25-7.49-7.49-17.42-11.62-27.95-11.62-8.75 0-17.16 2.92-24.01 8.17v104.26c0 3.81-3.08 6.89-6.89 6.89s-6.89-3.08-6.89-6.89v-90.08l-7.25-8.48c-.67-.76-1.37-1.54-2.13-2.25-7.44-7.49-17.4-11.62-27.89-11.62-7.34 0-14.41 1.98-20.59 5.71l-.98.59v113.01c0 3.81-3.08 6.9-6.89 6.9-3.81 0-6.9-3.09-6.9-6.9v-104.63l-.27.17v-151.69c.07-10.53-4.07-20.47-11.53-27.88-7.49-7.53-17.42-11.63-27.96-11.63-10.43.01-19.9 4.12-26.97 10.75v306.31l-12.55-5.77-62.03-62.02c-8.94-8.92-20.84-13.89-33.47-13.89-12.66 0-24.51 4.97-33.46 13.89-9.19 9.21-13.82 21.27-13.85 33.34L2214.94 1700s17.04 19.76 26.7 46.77l17.47 50.06h177.93c.91 0 1.71-.57 1.92-1.45l37.52-159.9c.06-.14.06-.32.06-.32V1461.2c.01-10.59-4.09-20.46-11.57-27.95z" fill="#ffdfcd"/></g></svg>