<?xml version="1.0" encoding="UTF-8"?>
<svg width="1016px" height="410px" viewBox="0 0 1016 410" version="1.1" xmlns="http://www.w3.org/2000/svg" xmlns:xlink="http://www.w3.org/1999/xlink">
    <!-- Generator: sketchtool 53 (72520) - https://sketchapp.com -->
    <title>1BF1F1D5-C4E3-4DCF-B4DF-85ACD36D8864@3x</title>
    <desc>Created with sketchtool.</desc>
    <defs>
        <polygon id="path-1" points="0 0.103953397 26.1623174 0.103953397 26.1623174 63.353974 0 63.353974"></polygon>
        <polygon id="path-3" points="0.456720063 0.389965044 22.3138436 0.389965044 22.3138436 22.3686828 0.456720063 22.3686828"></polygon>
    </defs>
    <g id="Page-1" stroke="none" stroke-width="1" fill="none" fill-rule="evenodd">
        <g id="brand-guidelines-page-03-part1" transform="translate(-108.000000, -4664.000000)">
            <g id="primary-logo-default" transform="translate(108.000000, 4664.000000)">
                <rect id="Rectangle" stroke="#979797" opacity="0.300000012" x="0.5" y="0.5" width="1015" height="409"></rect>
                <path d="M26.24,36.568 L26.032,36.424 C25.856,36.28 25.824,36.008 26,35.832 L27.12,34.6 L25.488,34.264 C25.248,34.216 25.104,33.976 25.168,33.752 L25.248,33.512 C25.328,33.288 25.584,33.176 25.792,33.288 L27.328,33.976 L27.136,32.312 C27.104,32.072 27.28,31.864 27.52,31.864 L27.776,31.864 C28.016,31.864 28.192,32.072 28.16,32.312 L27.968,33.976 L29.504,33.288 C29.712,33.176 29.968,33.288 30.048,33.512 L30.128,33.752 C30.192,33.976 30.048,34.216 29.808,34.264 L28.16,34.6 L29.296,35.832 C29.472,36.008 29.44,36.28 29.264,36.424 L29.056,36.568 C28.864,36.712 28.592,36.648 28.464,36.424 L27.648,34.984 L26.832,36.424 C26.704,36.648 26.432,36.712 26.24,36.568 Z M36.224,42.424 L36.224,32.568 C36.224,32.184 36.416,31.992 36.8,31.992 L39.616,31.992 C43.408,31.992 45.376,34.28 45.376,37.496 C45.376,40.712 43.408,43 39.616,43 L36.8,43 C36.416,43 36.224,42.808 36.224,42.424 Z M37.696,41.72 L39.616,41.72 C42.704,41.72 43.84,39.736 43.84,37.496 C43.84,35.256 42.704,33.272 39.616,33.272 L37.696,33.272 L37.696,41.72 Z M46.72,39.096 C46.72,36.664 48.32,35 50.432,35 C52.48,35 53.888,36.376 53.888,38.712 C53.888,39.096 53.696,39.288 53.312,39.288 L48.192,39.288 C48.256,40.92 49.136,41.976 50.496,41.976 C51.392,41.976 51.936,41.608 52.24,41.096 C52.432,40.76 52.576,40.632 52.864,40.632 L53.232,40.632 C53.728,40.632 53.744,41.032 53.632,41.272 C53.136,42.44 51.952,43.192 50.496,43.192 C48.064,43.192 46.72,41.592 46.72,39.096 Z M48.272,38.232 L52.448,38.232 C52.32,36.824 51.6,36.216 50.432,36.216 C49.376,36.216 48.528,36.968 48.272,38.232 Z M56,42.424 L56,36.344 L54.992,36.344 C54.672,36.344 54.528,36.2 54.528,35.88 L54.528,35.656 C54.528,35.336 54.672,35.192 54.992,35.192 L56,35.192 L56,33.912 C56,32.184 56.896,31.288 58.624,31.288 L59.088,31.288 C59.424,31.288 59.584,31.448 59.584,31.784 L59.584,32.008 C59.584,32.344 59.424,32.504 59.088,32.504 L58.752,32.504 C57.728,32.504 57.408,33.016 57.408,33.976 L57.408,35.192 L58.864,35.192 C59.184,35.192 59.328,35.336 59.328,35.656 L59.328,35.88 C59.328,36.2 59.184,36.344 58.864,36.344 L57.408,36.344 L57.408,42.424 C57.408,42.808 57.216,43 56.832,43 L56.576,43 C56.192,43 56,42.808 56,42.424 Z M60.16,41.016 C60.16,39.72 60.896,38.936 62.72,38.616 L64.256,38.36 C65.088,38.216 65.28,38.12 65.28,37.752 C65.28,36.744 64.72,36.152 63.616,36.152 C62.448,36.152 62.176,36.68 61.888,37.176 C61.776,37.384 61.648,37.624 61.216,37.624 L60.992,37.624 C60.56,37.624 60.496,37.272 60.592,36.952 C60.944,35.8 62.064,35 63.616,35 C65.664,35 66.688,36.024 66.688,37.752 L66.688,42.456 C66.688,42.824 66.512,43 66.144,43 L65.888,43 C65.52,43 65.344,42.824 65.344,42.456 L65.344,41.96 L65.28,41.96 C64.832,42.776 63.92,43.192 62.784,43.192 C61.12,43.192 60.16,42.328 60.16,41.016 Z M61.568,40.888 C61.568,41.56 62.048,42.04 63.04,42.04 C64.256,42.04 65.28,41.272 65.28,39.736 L65.28,38.984 C65.12,39.176 64.832,39.288 64.448,39.352 L62.976,39.608 C61.952,39.784 61.568,40.216 61.568,40.888 Z M68.864,39.928 L68.864,35.768 C68.864,35.384 69.056,35.192 69.44,35.192 L69.696,35.192 C70.08,35.192 70.272,35.384 70.272,35.768 L70.272,39.736 C70.272,41.4 70.976,41.976 72.064,41.976 C73.248,41.976 74.112,40.936 74.112,39.24 L74.112,35.768 C74.112,35.384 74.304,35.192 74.688,35.192 L74.944,35.192 C75.328,35.192 75.52,35.384 75.52,35.768 L75.52,42.456 C75.52,42.824 75.344,43 74.976,43 L74.72,43 C74.352,43 74.176,42.824 74.176,42.456 L74.176,41.848 L74.112,41.848 C73.664,42.744 72.896,43.192 71.744,43.192 C70.208,43.192 68.864,42.36 68.864,39.928 Z M77.952,42.424 L77.952,31.864 C77.952,31.48 78.144,31.288 78.528,31.288 L78.784,31.288 C79.168,31.288 79.36,31.48 79.36,31.864 L79.36,42.424 C79.36,42.808 79.168,43 78.784,43 L78.528,43 C78.144,43 77.952,42.808 77.952,42.424 Z M81.984,40.696 L81.984,36.344 L80.976,36.344 C80.656,36.344 80.512,36.2 80.512,35.88 L80.512,35.656 C80.512,35.336 80.656,35.192 80.976,35.192 L81.984,35.192 L81.984,33.4 C81.984,33.016 82.176,32.824 82.56,32.824 L82.816,32.824 C83.2,32.824 83.392,33.016 83.392,33.4 L83.392,35.192 L84.976,35.192 C85.296,35.192 85.44,35.336 85.44,35.656 L85.44,35.88 C85.44,36.2 85.296,36.344 84.976,36.344 L83.392,36.344 L83.392,40.632 C83.392,41.464 83.712,41.784 84.48,41.784 L84.944,41.784 C85.28,41.784 85.44,41.944 85.44,42.28 L85.44,42.504 C85.44,42.84 85.28,43 84.944,43 L84.288,43 C82.752,43 81.984,42.232 81.984,40.696 Z M90.56,42.424 L90.56,31.864 C90.56,31.48 90.752,31.288 91.136,31.288 L91.392,31.288 C91.776,31.288 91.968,31.48 91.968,31.864 L91.968,42.424 C91.968,42.808 91.776,43 91.392,43 L91.136,43 C90.752,43 90.56,42.808 90.56,42.424 Z M93.824,39.096 C93.824,36.6 95.424,35 97.664,35 C100.032,35 101.504,36.6 101.504,39.096 C101.504,41.592 99.904,43.192 97.664,43.192 C95.296,43.192 93.824,41.592 93.824,39.096 Z M95.296,39.096 C95.296,40.824 96.256,41.976 97.664,41.976 C99.072,41.976 100.032,40.824 100.032,39.096 C100.032,37.304 99.072,36.216 97.664,36.216 C96.256,36.216 95.296,37.368 95.296,39.096 Z M103.456,43.96 L103.776,43.96 C104.064,43.96 104.224,44.024 104.368,44.328 C104.736,45.096 105.248,45.496 106.432,45.496 C107.808,45.496 108.928,44.808 108.928,42.616 L108.928,41.784 L108.864,41.784 C108.352,42.808 107.328,43.192 106.24,43.192 C104.256,43.192 102.784,41.72 102.784,39.16 C102.784,36.6 104.384,35 106.368,35 C107.456,35 108.352,35.384 108.864,36.408 L108.928,36.408 L108.928,35.736 C108.928,35.368 109.104,35.192 109.472,35.192 L109.728,35.192 C110.096,35.192 110.272,35.368 110.272,35.736 L110.272,42.616 C110.272,45.576 108.512,46.648 106.432,46.648 C104.736,46.648 103.472,45.976 103.056,44.616 C102.96,44.296 103.088,43.96 103.456,43.96 Z M104.256,39.16 C104.256,41.016 105.28,41.976 106.56,41.976 C107.84,41.976 108.864,40.952 108.864,39.096 C108.864,37.24 107.84,36.216 106.56,36.216 C105.28,36.216 104.256,37.304 104.256,39.16 Z M112.128,39.096 C112.128,36.6 113.728,35 115.968,35 C118.336,35 119.808,36.6 119.808,39.096 C119.808,41.592 118.208,43.192 115.968,43.192 C113.6,43.192 112.128,41.592 112.128,39.096 Z M113.6,39.096 C113.6,40.824 114.56,41.976 115.968,41.976 C117.376,41.976 118.336,40.824 118.336,39.096 C118.336,37.304 117.376,36.216 115.968,36.216 C114.56,36.216 113.6,37.368 113.6,39.096 Z" id="*Defaultlogo" fill="#494E6A" fill-rule="nonzero"></path>
                <g id="02-Logo/Horizontal/teamwork-horizontal-white" transform="translate(273.000000, 166.000000)">
                    <g id="Group-21">
                        <g id="Group-3" transform="translate(0.000000, 0.520078)">
                            <mask id="mask-2" fill="white">
                                <use xlink:href="#path-1"></use>
                            </mask>
                            <g id="Clip-2"></g>
                            <path d="M20.4933277,23.7124975 C24.0965407,23.7124975 26.1623168,21.7378179 26.1623168,18.294245 C26.1623168,15.0532352 23.9408196,12.8766138 20.6342182,12.8766138 L12.460097,12.8766138 L12.460097,6.79040012 C12.460097,2.40049713 9.32590113,0.103953397 6.2300176,0.103953397 C3.13413407,0.103953397 -6.1794085e-05,2.40049713 -6.1794085e-05,6.79040012 L-6.1794085e-05,48.7669446 C-6.1794085e-05,58.8553331 3.99863328,63.353974 12.9643367,63.353974 C17.8232054,63.353974 20.6008494,62.0988283 22.6647718,60.8778574 C24.2436106,59.9955273 24.8059367,58.123372 24.8059367,56.6662846 C24.8059367,53.9671 23.0108186,50.9603427 20.4346233,50.9603427 C20.0774535,50.9603427 19.717194,51.0206145 19.3285093,51.1517213 C19.1925623,51.2070223 19.0411668,51.2759932 18.8737048,51.3536631 C18.1958237,51.6668281 17.2676766,52.095566 15.9100606,52.095566 C14.3034145,52.095566 12.460097,51.5245369 12.460097,47.074362 L12.460097,23.7124975 L20.4933277,23.7124975 Z" id="Fill-1" fill="#1D1C39" mask="url(#mask-2)"></path>
                        </g>
                        <path d="M49.3045093,22.5341516 C50.8821123,21.9569089 52.4498282,21.6642487 53.9650192,21.6642487 C59.1501608,21.6642487 62.7731479,25.0313942 64.5682661,28.3873551 L41.3528466,36.8831994 C40.2924601,31.8371414 41.7508005,25.2985786 49.3045093,22.5341516 M74.2396563,45.8376077 C73.0068644,45.8376077 71.7858133,46.2911999 70.7081245,47.1499184 L70.5326293,47.3065009 C68.3574777,49.2569475 65.8572891,50.733297 62.8911732,51.8194329 C60.6746195,52.6303067 58.5037934,53.0416465 56.4386352,53.0416465 C51.0551348,53.0416465 46.5281003,50.148598 44.2077326,45.2671999 L72.8505253,34.7854912 C77.3608754,33.1339184 77.9664574,29.7791999 77.0290412,27.189996 C73.532732,17.5315883 65.294345,11.5317436 55.5302622,11.5317436 C52.3460131,11.5317436 49.0357042,12.1524815 45.6914085,13.3765592 C38.3484177,16.0639378 33.1181667,20.9105397 30.5648352,27.3919378 C28.2518827,33.2650252 28.3068795,40.1720543 30.7205563,46.8404815 C34.6259423,57.6303844 42.9335386,63.8185009 53.5133033,63.8185009 C55.5148137,63.8185009 57.6121048,63.5935689 59.7452365,63.1486757 C61.6775374,62.7460349 63.4732734,62.2371417 65.2344048,61.5921708 C70.0265358,59.8399378 74.3904339,57.307899 77.855846,54.2719378 L77.886743,54.2452193 L77.9139324,54.2141514 C79.0626844,52.9024621 79.5199606,51.3422291 79.202339,49.819899 C78.7296143,47.5494524 76.5964826,45.8376077 74.2396563,45.8376077" id="Fill-4" fill="#1D1C39"></path>
                        <path d="M122.306923,37.8596661 C122.306923,45.2041321 118.159923,52.6157049 108.894518,52.6157049 C100.955832,52.6157049 95.6217671,46.7419962 95.6217671,38.0000933 C95.6217671,29.0904234 101.012683,23.1042486 109.034791,23.1042486 C115.641196,23.1042486 122.306923,27.6668894 122.306923,37.8596661 M128.816931,11.8452197 C125.125353,11.8452197 122.445961,14.4797829 122.445961,18.1091422 L122.445961,18.3085985 C118.778482,14.1262295 113.339367,11.8452197 106.930085,11.8452197 C92.462854,11.8452197 82.7420268,22.299589 82.7420268,37.8596671 C82.7420268,53.4197453 92.2935382,63.8741145 106.509267,63.8741145 C113.477786,63.8741145 119.156662,61.3302698 122.727124,56.6626191 L122.727124,57.6108133 C122.727124,62.2287552 125.873061,63.8741145 128.816931,63.8741145 C132.486882,63.8741145 134.766466,61.4744251 134.766466,57.6108133 L134.766466,18.1091422 C134.766466,14.3039382 132.431267,11.8452197 128.816931,11.8452197" id="Fill-6" fill="#1D1C39"></path>
                        <path d="M200.415756,11.8448468 C193.0981,11.8448468 187.440234,15.1013906 184.678039,20.837779 C181.649511,14.9466721 176.204834,11.8448468 168.847631,11.8448468 C163.371439,11.8448468 158.471787,14.0270604 155.574262,17.6483421 C155.485897,14.2743614 152.894253,11.8448468 149.346037,11.8448468 C146.175382,11.8448468 142.976303,13.8692352 142.976303,18.3908663 L142.976303,57.6104397 C142.976303,61.6505174 145.188531,63.8749835 149.205764,63.8749835 C153.19519,63.8749835 155.576734,61.5330806 155.576734,57.6104397 L155.576734,34.1907889 C155.576734,26.4598373 159.002598,22.5390606 165.759781,22.5390606 C172.397701,22.5390606 175.105518,26.2423616 175.105518,35.3210413 L175.105518,57.4687698 C175.105518,61.6001874 177.317746,63.8749835 181.334361,63.8749835 C185.382491,63.8749835 187.704095,61.5399155 187.704095,57.4687698 L187.704095,35.6018957 C187.704095,26.812148 191.082377,22.5390606 198.032358,22.5390606 C204.580677,22.5390606 207.375005,26.4455461 207.375005,35.6018957 L207.375005,57.4687698 C207.375005,61.6001874 209.587233,63.8749835 213.603848,63.8749835 C217.652597,63.8749835 219.973582,61.5399155 219.973582,57.4687698 L219.973582,35.6018957 C219.973582,19.838012 213.393749,11.8448468 200.415756,11.8448468" id="Fill-8" fill="#1D1C39"></path>
                        <path d="M296.007686,11.8454062 C293.239929,11.8454062 290.922651,13.849911 289.815301,17.1959304 L279.174978,47.4182214 L268.672455,17.3407071 C267.532354,14.041911 266.090698,11.8454062 262.758144,11.8454062 C259.198186,11.8454062 257.88259,13.779076 256.704177,17.338843 L246.199183,47.4182214 L235.565039,17.2077362 C234.452745,13.849911 232.136703,11.8454062 229.36771,11.8454062 C226.718598,11.8454062 223.978648,14.0301052 223.978648,17.6855614 C223.978648,18.8568236 224.244363,20.0231148 224.864775,21.5808624 L239.176903,58.2677747 C240.545642,61.6330562 242.263518,63.8749203 246.201655,63.8749203 C250.511792,63.8749203 252.150571,60.8656776 253.096638,58.2466485 L262.750728,31.7860662 L272.132924,58.2292504 C273.374367,61.9754251 275.742934,63.8749203 279.172506,63.8749203 C282.446975,63.8749203 284.858798,61.987231 286.34371,58.2572116 L300.500734,21.4646682 C301.113114,20.0802799 301.398602,18.8791925 301.398602,17.6855614 C301.398602,14.3563188 299.081324,11.8454062 296.007686,11.8454062" id="Fill-10" fill="#1D1C39"></path>
                        <path d="M328.047103,53.8839597 C319.773494,53.8839597 314.63408,47.7436881 314.63408,37.8591058 C314.63408,28.2963877 319.898936,22.1169704 328.047103,22.1169704 C336.195271,22.1169704 341.459509,28.2963877 341.459509,37.8591058 C341.459509,47.5939405 336.195271,53.8839597 328.047103,53.8839597 M328.047104,11.9863297 C319.874837,11.9863297 313.106531,14.6842714 308.473828,19.7887373 C304.321884,24.3644265 302.034885,30.7818243 302.034885,37.8591057 C302.034885,44.9469501 304.321266,51.3892024 308.472592,55.998445 C313.11271,61.1507555 319.881634,63.8741729 328.047104,63.8741729 C347.245291,63.8741729 354.058088,49.8600374 354.058088,37.8591057 C354.058088,25.9234167 347.245291,11.9863297 328.047104,11.9863297" id="Fill-12" fill="#1D1C39"></path>
                        <path d="M384.492109,11.8448468 C379.579479,11.8448468 375.08087,13.9226721 371.902182,17.6036042 C371.645119,14.3849634 368.958312,11.8448468 365.693113,11.8448468 C362.199275,11.8448468 359.462415,14.5968469 359.462415,18.1093906 L359.462415,57.6104397 C359.462415,61.7232165 362.596611,63.8749835 365.693113,63.8749835 C368.788378,63.8749835 371.921956,61.7232165 371.921956,57.6104397 L371.921956,38.8466336 C371.921956,27.5155267 375.009807,22.6801091 382.24713,22.6801091 C383.403297,22.6801091 384.070673,22.8354489 384.715803,22.9864392 C385.287399,23.1200315 385.826861,23.245546 386.597433,23.245546 C389.567875,23.245546 391.563206,21.0111382 391.563206,17.6856236 C391.563206,14.137041 388.787416,11.8448468 384.492109,11.8448468" id="Fill-14" fill="#1D1C39"></path>
                        <path d="M420.292276,37.9919531 L433.902423,23.7597202 C435.795175,21.8552542 437.58226,20.0557979 437.58226,17.5448853 C437.58226,14.2957979 435.145102,11.8445358 431.913889,11.8445358 C429.382185,11.8445358 427.586449,13.7987106 425.849418,15.6882639 L409.38253,32.7980114 L409.38253,6.8854679 C409.38253,3.431332 406.588202,0.621545619 403.154305,0.621545619 C399.717936,0.621545619 396.922371,3.431332 396.922371,6.8854679 L396.922371,57.6101277 C396.922371,61.0642636 399.717936,63.87405 403.154305,63.87405 C406.588202,63.87405 409.38253,61.0642636 409.38253,57.6101277 L409.38253,42.2240307 L425.86363,59.4592927 C426.154062,59.7519529 426.438933,60.0508267 426.72195,60.347215 C428.374942,62.0814286 430.084784,63.87405 432.616488,63.87405 C435.612883,63.87405 438.144586,61.3289626 438.144586,58.3153704 C438.144586,56.1263219 436.668326,54.4585937 435.156842,52.9387491 L420.292276,37.9919531 Z" id="Fill-16" fill="#1D1C39"></path>
                        <g id="Group-20" transform="translate(444.917402, 41.529788)">
                            <mask id="mask-4" fill="white">
                                <use xlink:href="#path-3"></use>
                            </mask>
                            <g id="Clip-19"></g>
                            <path d="M11.3850035,0.389965044 C5.35946254,0.389965044 0.456720063,5.31982898 0.456720063,11.3793239 C0.456720063,17.4381976 5.35946254,22.3686828 11.3850035,22.3686828 C17.4111624,22.3686828 22.3139048,17.4381976 22.3139048,11.3793239 C22.3139048,5.31982898 17.4111624,0.389965044 11.3850035,0.389965044" id="Fill-18" fill="#FF22B1" mask="url(#mask-4)"></path>
                        </g>
                    </g>
                </g>
            </g>
        </g>
    </g>
</svg>