<svg id="Layer_1" data-name="Layer 1" xmlns="http://www.w3.org/2000/svg" xmlns:xlink="http://www.w3.org/1999/xlink" viewBox="0 0 138 155"><defs><style>.cls-1{fill:none;}.cls-2{clip-path:url(#clip-path);}.cls-3{fill:#8fb823;}</style><clipPath id="clip-path"><rect class="cls-1" width="138" height="155"/></clipPath></defs><title>20191105_mySugr_Digital_RGB_ms</title><g class="cls-2"><path class="cls-3" d="M30,128.32a8.07,8.07,0,0,0-5.76,2.7,5.86,5.86,0,0,0-5.22-2.7,7.25,7.25,0,0,0-5.43,2.38l-.49-1.48a.69.69,0,0,0-.73-.52h-.84a.86.86,0,0,0-.82.82V145a.84.84,0,0,0,.82.82h2a.86.86,0,0,0,.82-.82V134.33a4.32,4.32,0,0,1,4-2.49c2.36,0,3.37,1.64,3.37,4.43V145a.8.8,0,0,0,.81.82h2.09a.83.83,0,0,0,.79-.82v-8.88a16,16,0,0,0-.13-2.3,5.35,5.35,0,0,1,4.1-2c2.33,0,3.37,1.67,3.37,4.43V145a.78.78,0,0,0,.81.82h2.06a.8.8,0,0,0,.82-.82v-8.61c0-4.46-1.28-8.09-6.49-8.09"/><path class="cls-3" d="M54.44,128.7H52.16c-.41,0-.76.08-.9.49L46.45,141h-.08l-3.94-11.78a.82.82,0,0,0-.73-.49H39.25a.76.76,0,0,0-.73,1.12l5.87,15.47L41,153.58a.77.77,0,0,0,.74,1.14h2.36a.83.83,0,0,0,.71-.52l10.4-24.38a.74.74,0,0,0-.73-1.12"/><path class="cls-3" d="M65.82,130.91c-3.07-1.25-4.7-2.57-4.7-4.67,0-1.37,1.09-3.33,4.18-3.33a8.65,8.65,0,0,1,5,1.85.89.89,0,0,0,1.31-.38L72.5,123a.87.87,0,0,0-.22-1.26,12.5,12.5,0,0,0-6.81-2.18c-5.87,0-8.1,4-8.1,6.86,0,4.32,2.94,6.28,6.71,7.87s5.57,2.92,5.57,5.17c0,1.88-1.63,3.44-4.18,3.44-2.83,0-4.16-1.12-5.9-2.57a.82.82,0,0,0-1.25.3l-1,1.53c-.41.63-.11.88.22,1.2a11.94,11.94,0,0,0,7.93,2.93c4.81,0,8.23-3.17,8.23-7,0-4.51-3.64-6.56-7.93-8.31"/><path class="cls-3" d="M90.29,128.7H88.42c-.63,0-1,.11-1,.82v10.41a4.26,4.26,0,0,1-4,2.82c-2.18,0-3.32-1.28-3.32-4.1v-9.13a.86.86,0,0,0-.81-.82H77.28a.87.87,0,0,0-.81.82v8.88c0,4.49,1.27,7.88,6.33,7.88a6.78,6.78,0,0,0,5.37-2.35l.44,1.23c.16.41.35.71.79.71h.89a.87.87,0,0,0,.85-.82V129.52a.89.89,0,0,0-.85-.82"/><path class="cls-3" d="M109.77,128.67h-1c-.4,0-.51.28-.62.6l-.44,1.07a7.72,7.72,0,0,0-5.37-2.05c-4.68,0-8,4.07-8,9s3.58,9,8.23,9a9,9,0,0,0,4.34-1.23V146c0,3.5-2,4.62-4.24,4.62a6.41,6.41,0,0,1-4-1.59.73.73,0,0,0-1.14.28l-.9,1.64a.82.82,0,0,0,.19.95,9.16,9.16,0,0,0,5.9,2.16c4.48,0,7.9-2.68,7.9-8V129.49a.86.86,0,0,0-.81-.82m-2.88,12.71a6.89,6.89,0,0,1-3.94,1.37,5.3,5.3,0,0,1-5-5.47c0-2.89,1.93-5.41,4.84-5.41a5,5,0,0,1,4.1,2.41Z"/><path class="cls-3" d="M122.73,128.35a6.54,6.54,0,0,0-5.17,2.51l-.48-1.56a.82.82,0,0,0-.74-.6h-.89a.86.86,0,0,0-.82.82h0v15.53a.84.84,0,0,0,.82.82h1.71c.71,0,1.2-.09,1.2-.82V134.17a4.82,4.82,0,0,1,4-2.3,4.41,4.41,0,0,1,1.54.33.73.73,0,0,0,1-.41l.89-1.86c.57-1.15-1.46-1.58-3.09-1.58"/><path class="cls-3" d="M137.41,25.53a.71.71,0,0,0,0-.14,2.45,2.45,0,0,0,0-.27s0-.06,0-.09l-.06-.27a3.33,3.33,0,0,0-3.2-2.34h-4.29l-.18,0-.35-.07-.33-.1h0a3.19,3.19,0,0,1-1.59-1.29l-.1-.18a2,2,0,0,1-.1-.21v0a.64.64,0,0,1-.08-.19c0-.07,0-.14-.07-.2a16.05,16.05,0,0,0-9.34-9.47l.33.13-.25-.11-.47-.17a3.17,3.17,0,0,1-2.1-3V3.31A3.29,3.29,0,0,0,112.24,0H112a3.2,3.2,0,0,0-3.25,3.21V7.56a3.11,3.11,0,0,1-2.06,2.94.85.85,0,0,0-.17.06l-.06,0a16,16,0,0,0-9,21.71s0,0,0-.06a3.41,3.41,0,0,1-.78,3.6h0a3.43,3.43,0,0,1-4.41.39h0l-.61-.43A40.06,40.06,0,0,0,47,35.4l-.14.09-1,.69-.11.08a3.16,3.16,0,0,1-1.87.58,3.72,3.72,0,0,1-2.58-1.06,3.42,3.42,0,0,1-.78-3.61.05.05,0,0,0,0,0,0,0,0,0,1,0,0,2.44,2.44,0,0,0,.1-.24,2,2,0,0,0,.1-.26,15.7,15.7,0,0,0,1.19-6,15.94,15.94,0,0,0-4.68-11.3c-.14-.14-.28-.28-.43-.41a1.45,1.45,0,0,0-.18-.17,16,16,0,0,0-17.93-2.37h0a3.07,3.07,0,0,1-3.35-.64L12.25,7.55l-.12-.11L12,7.33l-.25-.19h0L11.47,7a3.21,3.21,0,0,0-3.75.57,2.07,2.07,0,0,0-.28.32L7.36,8l-.14.21c-.08.14-.14.28-.21.42s-.07.2-.1.3a3.2,3.2,0,0,0,.81,3.17l2.52,2.53a4.49,4.49,0,0,1,.95,4.91s0,0,0,.05A4.51,4.51,0,0,1,7,22.42H3.79a3.22,3.22,0,0,0-2.16.83l-.11.1a3.23,3.23,0,0,0-.94,2.27,1.7,1.7,0,0,0,0,.22c0,.06,0,.11,0,.18l0,.13,0,.16a2.5,2.5,0,0,0,.07.26c0,.08.05.16.08.24a3.33,3.33,0,0,0,2.9,2H8.15a3.07,3.07,0,0,1,2.74,2h0A16,16,0,0,0,26,41.57c.3,0,.59,0,.88,0l.48,0a15.71,15.71,0,0,0,5-1.24,3.39,3.39,0,0,1,3.53.79l.1.1a3.5,3.5,0,0,1,.48,4.42s0,0,0,0c-.33.47-.65,1-1,1.43s-.46.72-.68,1.09a.75.75,0,0,0-.07.12c-.12.19-.23.38-.34.57a40.26,40.26,0,0,0-1.86,36.49c0,.12.11.23.16.34a40,40,0,1,0,69.43-39.37l-.46-.66,0,0a3.41,3.41,0,0,1,.38-4.35l.17-.16a3.38,3.38,0,0,1,3.47-.82l-.1-.05A16,16,0,0,0,127,31l0,.09A.69.69,0,0,1,127,31a1.57,1.57,0,0,1,.09-.23,3,3,0,0,1,.23-.44c0-.07.1-.15.15-.21l.2-.24a3.17,3.17,0,0,1,1.84-1l.24,0h4.42a3.2,3.2,0,0,0,3.15-2.61l0-.1a2.28,2.28,0,0,0,0-.27.57.57,0,0,0,0-.13,0,0,0,0,0,0,0,.76.76,0,0,0,0-.15M34,27.89a3.22,3.22,0,0,1-2.26.93H19.08a3.21,3.21,0,0,1-3.21-3.2,3.16,3.16,0,0,1,1-2.27,3.21,3.21,0,0,1,2.26-.93h12.7a3.2,3.2,0,0,1,3.2,3.2A3.26,3.26,0,0,1,34,27.89m62.28,41a27.32,27.32,0,1,1-54.64-.3v-.83A3.35,3.35,0,0,1,45,64.36h9.86v4.8A3.13,3.13,0,0,0,58,72.3h6.36a3.1,3.1,0,0,0,3.1-3.11V64.36H92.92a3.41,3.41,0,0,1,3.4,3.41Zm22-40.78h-1.51a1.57,1.57,0,0,0-1.57,1.58v1.51a3.21,3.21,0,0,1-6.41,0V29.65a1.57,1.57,0,0,0-1.57-1.58h-1.51a3.2,3.2,0,0,1,0-6.4h1.61a1.47,1.47,0,0,0,1.47-1.48V18.6a3.21,3.21,0,1,1,6.41,0v1.52a1.55,1.55,0,0,0,1.55,1.55h1.53a3.2,3.2,0,1,1,0,6.4"/></g></svg>