<svg xmlns="http://www.w3.org/2000/svg" viewBox="0 0 510.2 510.2">
  <style>
    .st1{fill:none;stroke:#fff;stroke-width:5;stroke-linecap:round;stroke-miterlimit:10}.st2{fill:#fff}.st3{fill:#d8d8d8}.st4{fill:none;stroke:#fff;stroke-width:5;stroke-miterlimit:10}
  </style>
  <g id="Layer_1">
    <path id="Layer_1_1_" d="M58.3 113.4c59.4-78 173.5-100.7 260.4-72C455.9 86.9 540.8 265.9 464 383.9c-62.4 96-214.8 125.6-323 64.2C22 380.5-19.8 215.9 58.3 113.4z" fill="#4b9fd8"/>
    <path class="st1" d="M242.7 130.9l9 13M262.1 130.2l-.8 13.3M278.7 131.9l-7.4 12.3"/>
  </g>
  <g id="Layer_2">
    <path class="st2" d="M426.6 359.3l-88.3-16.4s-8.3-27.9-1-50.8l87.7-15.7 1.6 82.9z"/>
    <ellipse class="st3" cx="426" cy="317.6" rx="7" ry="41.2"/>
    <path class="st2" d="M76.9 273.4l73.3-51.9s10.3 5.4 20.8 14.7c6.1 5.4 12.2 12.2 16.4 19.9L137.6 330l-60.7-56.6z"/>
    <ellipse transform="rotate(-45.81 107.28 302.07)" class="st3" cx="107.3" cy="302.1" rx="7" ry="41.2"/>
    <path class="st4" d="M252.5 163.4c-26.3-4-73.4-48-95.5-33.2-64.8 43.5 69.5 67.5 52.5 96-5.1 8.5-38.4.1-38.4 10M334.3 317.8s-50.8 17.9-73.3-10.6c-32.4-41.1 142.5-129 100-168.5-19.2-17.8-65.3 28-91.2 24"/>
  </g>
</svg>
