<svg xmlns="http://www.w3.org/2000/svg" viewBox="0 0 450 63" width="450" height="63">
	<defs>
		<clipPath clipPathUnits="userSpaceOnUse" id="cp1">
			<path d="M0 0L450 0L450 63L0 63Z" />
		</clipPath>
	</defs>
	<style>
		tspan { white-space:pre }
		.shp0 { fill: #006ab1 } 
		.shp1 { fill: #ff8c27 } 
	</style>
	<g id="Page 1" clip-path="url(#cp1)">
		<path id="Path 1" class="shp0" d="M436.67 2.87L436.67 40.91C434.46 37.04 414.88 2.87 414.88 2.87L397.59 2.87L397.59 61.81L410.94 61.81L410.94 22.77C413.2 26.68 433.37 61.81 433.37 61.81L450 61.81L450 2.87L436.67 2.87ZM42.19 2.87C42.19 2.87 31.57 35.49 30.47 38.91C29.34 35.47 18.79 2.87 18.79 2.87L0 2.87L0 61.82L13.05 61.82L13.05 21.56C15.17 28.53 25.25 61.82 25.25 61.82L35.14 61.82C35.14 61.82 45.74 28.14 47.85 21.42L47.85 61.82L60.95 61.82L60.95 2.87L42.19 2.87ZM215.55 61.82L172 61.82L172 2.87L215.55 2.87L215.55 14.31L186.19 14.31L186.19 25.3L213.11 25.3L213.11 36.71L186.19 36.71L186.19 50.4L215.55 50.4L215.55 61.82Z" />
		<path id="Path 2" class="shp1" d="M72.98 61.81L104.92 61.81L104.92 51.16L72.98 51.16L72.98 61.81Z" />
		<path id="Path 3" fill-rule="evenodd" class="shp0" d="M165.16 2.87C165.16 2.87 141.83 29.16 140.91 30.18C141.82 31.25 166.54 61.82 166.54 61.82L147.85 61.82C147.85 61.82 131.78 38.7 129.43 35.79L129.43 61.82L116.02 61.82L116.02 2.87L129.43 2.87L129.43 25.2C131.7 22.6 147.46 2.87 147.46 2.87L165.16 2.87ZM360.5 1.71C378.36 1.71 388.35 14.28 388.35 32.18C388.35 50.11 378.53 63 360.5 63C342.26 63 332.64 50.37 332.64 32.18C332.64 14.05 342.41 1.71 360.5 1.71ZM360.5 50.61C370.51 50.61 374.18 41.39 374.18 32.22C374.18 23.29 370.21 14.14 360.5 14.14C350.83 14.14 346.86 23.29 346.86 32.22C346.86 41.39 350.55 50.61 360.5 50.61ZM272.48 43.64C272.48 48.5 270.78 52.78 267.52 56C263.04 60.5 255.63 62.99 246.66 62.99C238.45 62.99 233.3 61.57 224.8 58.23L228.62 46.36C234.9 50.01 240.15 51.58 245.95 51.58C250.91 51.58 258.32 49.97 258.32 45.41C258.32 40.84 252.19 39.93 246.06 38.22C236.63 35.51 225.41 32.49 225.41 20.69C225.41 9.13 234.54 1.86 249.33 1.71C257.5 1.62 263.27 3.34 270.78 5.92L267.88 17.91C262.96 15.19 259.32 14.11 253.14 13.61C249.05 13.29 243.88 13.92 241.62 16.06C240.72 16.91 240.32 17.89 240.35 19.08C240.46 23.24 246.55 24.27 252.98 25.99C261.94 28.31 272.44 31.64 272.48 43.64ZM325.96 43.64C325.96 48.5 324.24 52.78 321.02 56C316.51 60.5 309.09 62.99 300.14 62.99C291.91 62.99 286.74 61.57 278.26 58.23L282.1 46.36C288.36 50.01 293.61 51.58 299.42 51.58C304.4 51.58 311.79 49.97 311.79 45.41C311.79 40.84 305.67 39.93 299.54 38.22C290.12 35.51 278.89 32.49 278.89 20.69C278.89 9.13 288.02 1.86 302.8 1.71C310.99 1.62 316.73 3.34 324.24 5.92L321.36 17.91C316.41 15.19 312.78 14.11 306.59 13.61C302.52 13.29 297.38 13.92 295.08 16.06C294.21 16.91 293.79 17.89 293.8 19.08C293.9 23.24 300.03 24.27 306.46 25.99C315.38 28.31 325.91 31.64 325.96 43.64ZM69.79 23.4C69.79 9.87 78.75 1.78 92.85 1.78C97.82 1.78 102.58 2.65 106.5 4.48L102.43 13.98C100.43 12.79 98.01 12.08 95.4 12.08C88.49 12.08 82.78 15.5 82.78 23.4C82.78 31.27 88.49 34.71 95.4 34.71C98.01 34.71 100.43 33.98 102.43 32.76L106.5 42.29C102.58 44.15 97.82 44.99 92.85 44.99C78.75 44.99 69.79 36.9 69.79 23.4Z" />
	</g>
</svg>