<?xml version="1.0" encoding="utf-8"?>
<!-- Generator: Adobe Illustrator 21.1.0, SVG Export Plug-In . SVG Version: 6.00 Build 0)  -->
<svg version="1.1" id="Layer_1" xmlns="http://www.w3.org/2000/svg" xmlns:xlink="http://www.w3.org/1999/xlink" x="0px" y="0px"
	 viewBox="0 0 850.39 525.39" enable-background="new 0 0 850.39 525.39" xml:space="preserve">
<g>
	<g>
		<g>
			<rect x="76.195" y="361" fill="#3CA2EB" width="216" height="96"/>
		</g>
		<text transform="matrix(1 0 0 1 108.3964 417.381)" fill="#FFFFFF" font-family="'GillSansMT'" font-size="30px">Profit Model</text>
	</g>
	<g>
		<g>
			<rect x="317.195" y="360.652" fill="#3CA2EB" width="216" height="96"/>
		</g>
		<text transform="matrix(1 0 0 1 378.4077 417.0334)" fill="#FFFFFF" font-family="'GillSansMT'" font-size="30px">Process</text>
	</g>
	<g>
		<g>
			<rect x="558.195" y="361" fill="#3CA2EB" width="216" height="96"/>
		</g>
		<text transform="matrix(1 0 0 1 608.9999 417.381)" fill="#FFFFFF" font-family="'GillSansMT'" font-size="30px">Structure</text>
	</g>
</g>
<g>
	<g>
		<g>
			<rect x="76.393" y="215.864" fill="#9F69F7" width="338.271" height="96"/>
		</g>
		<text transform="matrix(1 0 0 1 177.8378 272.2457)" fill="#FFFFFF" font-family="'GillSansMT'" font-size="30px">Product Fit</text>
	</g>
	<g>
		<g>
			<rect x="435.726" y="216.864" fill="#9F69F7" width="338.271" height="96"/>
		</g>
		<text transform="matrix(1 0 0 1 488.2894 273.2454)" fill="#FFFFFF" font-family="'GillSansMT'" font-size="30px">Product Ecosystem</text>
	</g>
</g>
<g>
	<rect x="75.79" y="70.652" fill="#02CECD" width="157.64" height="96"/>
</g>
<text transform="matrix(1 0 0 1 118.6768 127.0334)" fill="#FFFFFF" font-family="'GillSansMT'" font-size="30px">Brand</text>
<g>
	<rect x="256.18" y="70.652" fill="#02CECD" width="157.64" height="96"/>
</g>
<text transform="matrix(1 0 0 1 267.6461 127.0334)" fill="#FFFFFF" font-family="'GillSansMT'" font-size="30px">Experience</text>
<g>
	<rect x="436.57" y="70.152" fill="#02CECD" width="157.64" height="96"/>
</g>
<text transform="matrix(1 0 0 1 459.6233 126.5334)" fill="#FFFFFF" font-family="'GillSansMT'" font-size="30px">Channels</text>
<g>
	<rect x="616.961" y="71.652" fill="#02CECD" width="157.64" height="96"/>
</g>
<text transform="matrix(1 0 0 1 651.725 128.0334)" fill="#FFFFFF" font-family="'GillSansMT'" font-size="30px">Service</text>
<rect x="46" y="187" fill="none" stroke="#606060" stroke-width="4" stroke-miterlimit="10" width="759" height="300"/>
</svg>
