<svg id="Layer_1" data-name="Layer 1" xmlns="http://www.w3.org/2000/svg" viewBox="0 0 1366 768"><title>Artboard 1</title><path d="M399.4,417.8c0-66.6,41.8-106.4,116.5-106.4C589.4,311.4,630,350,630,415.3c0,66.2-41.8,106.4-115.7,106.4C440,521.8,399.4,483.6,399.4,417.8Zm144.5,0c0-62.5-11.4-84.5-29.6-84.5-17.9,0-28.8,20.7-28.8,82,0,62.5,11.4,84.5,29.6,84.5S543.9,478.3,543.9,417.8Z"/><path d="M1120.1,422.7c.4-6.1.4-11.4.4-17.5,0-67.4-43.9-93.8-101.1-93.8C959.7,311.4,913,346,913,417.8c0,70.2,45.9,103.9,106.4,103.9,55.2,0,86.5-25.2,98.7-70.7l-6.1-2.4c-15.4,18.7-35.7,26.2-60.9,26-28.5-.3-53.8-17.4-57.2-56.6-3.7-69.8,7.3-85.7,25.1-85.5s26.7,13.3,26.7,66.5l-51.2,23.6h125.6Z"/><path d="M802.5,516.9V468.1c-3.6,26.7-32,53.6-60.1,53.6-42.6,0-80.8-30.5-80.8-103.1,0-78.8,45.1-107.2,91.4-107.2,25.2,0,41,8.5,49.5,19.1V260.7c0-4.9,0-6.1-2.8-9.3l-17.1-19.5v-5.7l98.3-13.8V483.6c0,4.5,0,5.7,2.8,8.5l17.1,19.1v5.7Zm0-48.8V351.6c-3.2-6.1-11-11-21.5-11-18.7,0-36.9,15.4-36.9,70.7,0,52.4,16.6,71.1,34.9,71.1A27.36,27.36,0,0,0,802.5,468.1Z"/><path d="M322,472.8c17.5,0,35-6.5,45.6-20.8l5.7,2.8c-12.2,42.3-42.7,67.2-90.8,67.2-55.4,0-100.9-33-100.9-103,0-76.5,54.1-107.9,120.1-107.9a203.2,203.2,0,0,1,72.9,13.4l-29.7,72.4h0l-37-60.2c-2-4.1-3.7-5.3-7.3-5.3h-2.8c-22,0-33,28.1-33,64.3C264.6,453.7,292.2,472.8,322,472.8Z"/><path d="M1160.2,311.4a39.8,39.8,0,1,1,39.8-39.8A39.84,39.84,0,0,1,1160.2,311.4Zm0-73.8a34.1,34.1,0,1,0,34.1,34.1A34.14,34.14,0,0,0,1160.2,237.6Z"/><polygon points="1160.2 268.9 1150.1 258.8 1140.2 268.7 1160.2 288.8 1180.3 268.7 1170.4 258.8 1160.2 268.9"/></svg>