<svg xmlns="http://www.w3.org/2000/svg" viewBox="0 0 510.2 510.2">
  <style>
    .st3{fill:#fff}.st4,.st6,.st7{fill:none;stroke:#fff;stroke-width:11;stroke-miterlimit:10}.st6,.st7{stroke:#282828;stroke-width:10;stroke-linecap:round}.st7{stroke:#fff}
  </style>
  <g id="Layer_1">
    <path id="Layer_1_1_" d="M86.3 421c123.5 104.4 365 56.9 412.8-73 41.1-111.6-60.5-284.9-210.6-310.6C178.6 18.5 43.9 79.1 11.3 193.8c-24.7 86.6 16.6 177.8 75 227.2z" fill="#3dbfc3"/>
  </g>
  <g id="Layer_2">
    <circle class="st4" cx="248.3" cy="249.6" r="41.6"/>
    <circle class="st4" cx="248.4" cy="248.7" r="74.9"/>
    <circle class="st4" cx="248.2" cy="249.5" r="108.8"/>
    <path fill="none" stroke="#282828" stroke-width="10" stroke-miterlimit="10" d="M426.3 249.5L334 276.7"/>
    <path class="st6" d="M387.9 258.7l10-18.4M434.2 229.9l-36.3 10.4M423.2 250.3l11-20.4M388.7 261.9l18.4 10.1M443.2 261l-36.1 11M422.9 249.9l20.3 11.1"/>
    <g>
      <path class="st7" d="M194.8 344.2l-15.5 30.7M217.9 354l-15.2 21.6M179.3 374.9l23.4.7"/>
    </g>
    <g>
      <path class="st7" d="M302.2 346.1l15.4 30.7M279.1 355.9l15.2 21.6M317.6 376.8l-23.3.7"/>
    </g>
  </g>
</svg>
