<svg xmlns="http://www.w3.org/2000/svg" viewBox="0 255.6 612 276">
  <path fill="none" d="M0 258.3h612v275.3H0z"/>
  <path fill="#EE232B" d="M150.9 424.3l31.9 55.2 32-55.2z"/>
  <path fill="#B11F24" d="M180.3 364.4a8.9 8.9 0 0 1 0 8.6L119 479.5H54.9l95.7-166 29.7 50.9z"/>
  <path fill="#504F4F" d="M398.3 480.3c-9.3 0-16.5-7.2-16.5-16.5s7.2-16.5 16.9-16.5c5.4 0 9 1.4 12.5 4.7l-4.3 5c-2.9-2.5-5.4-3.6-8.2-3.6-5.4 0-9.7 4.3-9.7 10.4 0 6.1 4.3 10.4 9.7 10.4 3.6 0 6.1-1.4 8.6-3.6l4.3 4.3c-4 3.6-7.5 5.4-13.3 5.4m60.3-.4c-5 0-9.7-1.8-13.6-5l3.9-4.7a16 16 0 0 0 9.7 3.9c2.9 0 5-1.4 5-3.2 0-2.2-1.4-2.9-6.8-4.3-6.1-1.4-10.8-3.2-10.8-9.7 0-5.7 4.7-9.7 11.1-9.7 4.7 0 8.6 1.4 11.8 3.9l-3.6 5a14.6 14.6 0 0 0-8.6-3.2c-2.5 0-4.3 1.1-4.3 3.2 0 2.2 1.4 3.2 7.2 4.7 6.5 1.8 10 3.9 10 9.7.4 5.8-3.9 9.4-11 9.4m-201.5 0c-5 0-9.7-1.8-13.6-5l3.9-4.7a16 16 0 0 0 9.7 3.9c2.9 0 5-1.4 5-3.2 0-2.2-1.4-2.9-6.8-4.3-6.1-1.4-10.8-3.2-10.8-9.7 0-5.7 4.7-9.7 11.1-9.7 4.7 0 8.6 1.4 11.8 3.9l-3.6 5a14.6 14.6 0 0 0-8.6-3.2c-2.5 0-4.3 1.1-4.3 3.2 0 2.2 1.4 3.2 7.2 4.7 6.5 1.8 10 3.9 10 9.7.8 5.8-3.9 9.4-11 9.4m113.3-32.6h6.8v32.3h-6.8zm-72.5 28.3v-1.8h-17.6v-7.2h15.4v-6.1h-15.4v-7.2h17.2v-6.1h-24v32.3h20.8c3.6 0 3.6-2.1 3.6-3.9m143.4 0v-1.8h-17.6v-7.2h15.4v-6.1h-15.4v-7.2h17.6v-6.1h-24v32.3h20.8c3.2 0 3.2-2.1 3.2-3.9m-131.2-12.2h7.5c3.6 0 5.7-1.8 5.7-4.7 0-3.2-2.2-5-5.7-5h-7.5v9.7zm12.2 14.7l-6.1-9h-6.1v10.4h-6.8v-32.3H318c7.5 0 12.2 3.9 12.2 10.4 0 4.7-2.5 8.2-6.8 10h-.4l7.9 11.5h-6.1c-1.1.4-2.1-.3-2.5-1m-64.5-97.5c5 1.1 7.2 2.9 7.2 6.1 0 3.6-3.2 6.1-7.5 6.1-3.6 0-6.1-1.1-9-3.6l1.4-1.8a9.6 9.6 0 0 0 7.5 3.2c2.9 0 5-1.4 5-3.6s-1.1-3.2-5.7-4.3c-5-1.1-7.2-2.9-7.2-6.5s2.9-6.1 7.2-6.1c3.2 0 5.4 1.1 7.5 2.5l-1.4 1.8c-2.2-1.8-3.9-2.5-6.1-2.5-2.9 0-4.7 1.4-4.7 3.6-.3 2.9.8 4 5.8 5.1m28.7 2.9c0 6.5-3.6 9.7-9 9.7s-9-3.2-9-9.3v-12.5h2.5v12.5c0 4.7 2.5 7.2 6.8 7.2 3.9 0 6.5-2.5 6.5-7.2v-12.5h2.5v12.2h-.3zm20.4-12.6h2.5v21.9h-1.8l-14.3-18v18h-2.2v-21.9h2.2l13.6 17.6zm17.2 22.2c-6.8 0-11.1-5-11.1-11.1s4.3-11.1 10.8-11.1c3.6 0 6.1 1.1 8.2 2.9l-1.4 1.8a9.8 9.8 0 0 0-6.5-2.5c-4.7 0-8.2 3.9-8.2 9 0 5.4 3.2 9 8.6 9 2.5 0 4.7-1.1 6.1-2.2v-5.4h-6.5v-2.2h9v8.6a16.3 16.3 0 0 1-9 3.2m66.3-.3h-7.5v-21.9h7.5c6.8 0 11.5 4.7 11.5 10.8a11 11 0 0 1-11.5 11.1m0-19.7h-5v17.2h5c5.4 0 9-3.6 9-8.6 0-4.7-3.2-8.6-9-8.6m-43.7.7l-5 11.1h10l-5-11.1zm1.8-2.2l9.3 21.2h-2.5l-2.5-5.7H341l-2.5 5.7H336l9.7-21.9h1.4c.7 0 1 .4 1.4.7m21.9 1.5h-6.8v9h6.8c3.2 0 5.7-1.8 5.7-4.7-.4-2.6-2.2-4.3-5.7-4.3m5.3 19l-5.7-7.9h-6.1v8.6h-2.5v-21.9h9.3c4.7 0 7.9 2.5 7.9 6.5 0 3.6-2.5 5.7-5.7 6.5l6.8 9h-2.2c-1.1-.1-1.4-.5-1.8-.8m-89.2 44.1c-1.8 0-2.5-.7-3.2-1.8l-12.9-30.1h7.2l10 24.4 10-24.4h6.8l-13.6 32.3h-4.3v-.4zm61.3 43.3c-1.8 0-2.5-.7-3.2-1.8l-12.9-30.1h7.2l10 24.4 10-24.4h6.8l-13.6 32.3h-4.3v-.4zm190-43.3v-12.5l-12.2-19.4h5.7c1.4 0 2.5.7 3.2 1.8l6.8 11.5 7.9-13.3h7.5l-12.2 19.4v12.9h-6.8v-.4zm-31.6 0v-25.9h-9.3v-6.4h25.5v6.4H513v25.9zm-21.1-32.3h6.8v32.3h-6.8zm-39.8 0h6.8v32.3h-6.8zM413 436.2v-32.3h15.1c6.5 0 10.4 3.2 10.4 8.2 0 2.9-1.4 5.4-4.3 6.8l-.4.4h.4c4.3 1.4 6.1 3.9 6.1 7.9 0 5.4-4.3 8.6-11.8 8.6H413v.4zm6.5-5.8h8.6c4.3 0 5.4-2.2 5.4-3.6 0-1.8-1.1-3.9-5.4-3.9h-8.6v7.5zm0-13.2h6.8c4.3 0 5.4-2.2 5.4-3.6 0-2.2-1.8-3.6-5-3.6h-7.2v7.2zM337 403.9h6.8v32.3H337zm-11.1 32.3l-2.5-6.1h-15.1l-2.5 6.1H299l13.6-32.3h4.3c1.4 0 2.5.7 3.2 1.8l12.9 30.1h-7.2v.4zm-15.4-11.9h10.4l-5-12.5-5.4 12.5zm-41.6 11.9l-2.5-6.1h-15.1l-2.5 6.1H242l13.6-32.3h4.3c1.4 0 2.5.7 3.2 1.8l12.9 30.1h-7.2v.4zm-15.1-11.9h10.4l-5-12.5-5.4 12.5zm148.1 11.9l-2.5-6.1h-15.1l-2.5 6.1H375l13.6-32.3h4.3c1.4 0 2.5.7 3.2 1.8l12.9 30.1h-7.2v.4zm-15.1-11.9h10.4l-5-12.5-5.4 12.5zm89.7 11.9h-18.6v-32.3h6.8v26.2h15.4v2.2c0 1.7.3 3.9-3.6 3.9m-107.9 0H350v-32.3h6.8v26.2h15.4v2.2c-.1 1.7.3 3.9-3.6 3.9m36.7-60c0-2.9 2.3-5.3 5.3-5.3s5.2 2.4 5.2 5.2c0 2.9-2.3 5.3-5.3 5.3a5.2 5.2 0 0 1-5.2-5.2m9.9 0c0-2.6-2-4.6-4.6-4.6a4.6 4.6 0 0 0-4.6 4.6c0 2.5 2 4.6 4.6 4.6 2.6 0 4.6-2.1 4.6-4.6m-6.4-2.5h2.1a2 2 0 0 1 1.4.5c.2.2.4.6.4 1 0 .8-.4 1.2-1.1 1.4l1.3 1.8h-1.1l-1.2-1.6h-1v1.6h-.9v-4.7zm2 2.3c.6 0 .9-.3.9-.7 0-.5-.4-.7-.9-.7h-1.2v1.5h1.2zm66.2 80.9v-8h-3v-1.1h7.2v1.1h-3v8H477zm5.4 0v-9.1h1.8l2.2 6.5.4 1.3.5-1.5 2.2-6.3h1.6v9.1h-1.2v-7.6l-2.6 7.6h-1.1l-2.6-7.8v7.8h-1.2z"/>
</svg>
