<?xml version="1.0" encoding="utf-8"?>
<!-- Generator: Adobe Illustrator 17.1.0, SVG Export Plug-In . SVG Version: 6.00 Build 0)  -->
<!DOCTYPE svg PUBLIC "-//W3C//DTD SVG 1.1//EN" "http://www.w3.org/Graphics/SVG/1.1/DTD/svg11.dtd">
<svg version="1.1" id="Layer_1" xmlns="http://www.w3.org/2000/svg" xmlns:xlink="http://www.w3.org/1999/xlink" x="0px" y="0px"
	 viewBox="0 0 360 144" enable-background="new 0 0 360 144" xml:space="preserve">
<path fill="#FF6700" d="M61.5,13.1H35.2v28.7H19.2v17.6h15.9V116c0,4.8,0.8,8.7,2.4,11.7c1.6,3,3.8,5.3,6.6,6.9
	c2.8,1.6,6,2.7,9.6,3.2c3.6,0.6,7.5,0.8,11.6,0.8c2.6,0,5.3-0.1,8-0.2c2.7-0.1,5.2-0.4,7.4-0.7v-20.4c-1.2,0.2-2.5,0.4-3.9,0.6
	c-1.4,0.1-2.8,0.2-4.3,0.2c-4.5,0-7.4-0.7-8.9-2.2c-1.5-1.5-2.2-4.4-2.2-8.9V59.5h19.3V41.9H61.5V13.1z"/>
<path fill="#FF6700" d="M314.4,41.9l-20.2,65.4h-0.4l-20.2-65.4c-26.5-7.7-42.4,3.7-48.6,17.8h-0.4V41.9h-25v95.8h26.3V94.5
	c0-4.3,0.4-8.3,1.3-12.1c0.9-3.7,2.3-7,4.4-9.7c2-2.8,4.7-5,8.1-6.6c3.3-1.6,7.4-2.4,12.2-2.4c0.5,0,1.1,0.1,1.6,0.1l25.3,73.9h29.3
	l32.4-95.8H314.4z"/>
<path fill="#FF6700" d="M176.3,50.1c-2.6-3.4-6.1-6.1-10.7-8c-4.5-1.9-10.3-2.9-17.3-2.9c-4.9,0-10,1.3-15.2,3.8
	c-5.2,2.5-9.5,6.6-12.8,12.1h-0.6V5.3H93.4v132.4h26.3V87.5c0-9.8,1.6-16.8,4.8-21c3.2-4.3,8.4-6.4,15.6-6.4
	c6.3,0,10.7,1.9,13.2,5.8c2.5,3.9,3.7,9.8,3.7,17.7v54.1h26.3v-59c0-5.9-0.5-11.3-1.6-16.2C180.7,57.6,178.9,53.5,176.3,50.1z"/>
</svg>
