<?xml version="1.0" encoding="utf-8"?>
<!-- Generator: Adobe Illustrator 21.1.0, SVG Export Plug-In . SVG Version: 6.00 Build 0)  -->
<svg version="1.1" id="Layer_1" xmlns="http://www.w3.org/2000/svg" xmlns:xlink="http://www.w3.org/1999/xlink" x="0px" y="0px"
	 viewBox="0 0 20 21" enable-background="new 0 0 20 21" xml:space="preserve">
<g transform="translate(-1.083985 -.785546)" opacity="0.9089">
	
		<!-- <image overflow="visible" opacity="0.15" enable-background="new    " width="317" height="317" xlink:href="CDCF662.png"  transform="matrix(0.0044 0 0 0.0044 0.2835 0.128)"> </image>--> 
	<g>
		<circle fill="#02CECD" cx="10.804" cy="10.238" r="9.305"/>
		<path fill="#F7F9FC" d="M15.074,6.279l-4.327,7.382v0.028c-0.198,0.368-0.65,0.481-1.018,0.255
			c-0.085-0.057-0.141-0.113-0.198-0.17l-2.743-3.281c-0.141-0.17-0.113-0.424,0.057-0.594c0.17-0.141,0.368-0.113,0.537,0
			l3.281,2.743l-1.216,0.113l5.204-6.816c0.085-0.113,0.255-0.141,0.368-0.057C15.103,6.024,15.131,6.165,15.074,6.279z"/>
	</g>
</g>
</svg>
