<?xml version="1.0" encoding="utf-8"?>
<!-- Generator: Adobe Illustrator 21.1.0, SVG Export Plug-In . SVG Version: 6.00 Build 0)  -->
<svg version="1.1" id="Layer_1" xmlns="http://www.w3.org/2000/svg" xmlns:xlink="http://www.w3.org/1999/xlink" x="0px" y="0px"
	 viewBox="0 0 1384 1088" style="enable-background:new 0 0 1384 1088;" xml:space="preserve">
<style type="text/css">
	.st0{fill:#66499E;}
	.st1{fill:none;}
	.st2{fill:#0BBCD4;}
	.st3{fill:#903E97;}
	.st4{fill:#FFFFFF;}
	.st5{fill:#CECECE;}
	.st6{fill:#A4DBDA;}
	.st7{fill:#CA9AC6;}
</style>
<g id="Layer_1_1_">
	<path class="st0" d="M148.7,520.6C152.2,517.5,148.7,520.6,148.7,520.6l71.8,16.7l-16.4,64.9l-0.7,0.6
		c-54.9,48.8-75.5,128.2-51.1,197.6c16.2,46.1,49.4,83.2,93.5,104.4c32.5,15.6,43.3,16.3,80.7,18.5l-49.8,44.5L309,1024
		c-34.7-2.7-74.7-12.6-107-28.1c-68.4-32.9-119.9-90.4-145-162C19.3,726.4,61,597,148.7,520.6L148.7,520.6z"/>
	<path class="st0" d="M342.3,922.4c9-1.7,34.6-6.9,43.3-10C457.9,887,502.9,833.6,555,771.7l163.5-186.1l13.4,63.3l66.3-1.3
		L632.3,836.7c-56.5,67.1-114.9,136.5-213.2,171c-32.6,11.5-66.4,16.8-99.9,16.1L287,970L342.3,922.4z"/>
	<path class="st1" d="M705.6,601.7l-3.7,4.2l0.1,0.2L705.6,601.7L705.6,601.7z"/>
	<path class="st2" d="M520.5,279.7C539.8,200.2,611,141.2,695.8,140c49.5-0.6,96,18,131.2,52.7c16.6,16.4,0,0,23.2,27.8l67.4,8.5
		l24.6-52.1c-14-29.5-20.3-32.4-44.3-56.1C843.4,67,771,37.8,694.4,39c-122.8,1.7-227.3,81.7-265,192.7l64.6-15.6L520.5,279.7
		L520.5,279.7z"/>
	<path class="st2" d="M852.5,228c6.9,19.4,29,73.8,29,95c0,32.5-8.6,64.4-24.9,92.2c-0.1,0.1-0.2,0.3-0.3,0.5l-43.1,53.1h129
		c0.7-1.1,1.3-2.2,1.5-2.5c25.4-43.3,38.8-92.9,38.8-143.3c0-38.9-21.3-103.9-36-138.5l-25,52.7L852.5,228z"/>
	<path class="st3" d="M800.7,468.9H689.6l36.1,42.4l-26.9,58.6h302.6c45.1,0,79.9,2.3,106.6,5.8l54.9-39.7l-27.1-58.3
		c-45.7-7.3-94-8.8-134.4-8.8L800.7,468.9L800.7,468.9z"/>
	<path class="st2" d="M725.4,577.2l16.1,62.3H805l56.4-69.6h-130L725.4,577.2z"/>
	<path class="st0" d="M673.9,569.9h15l26.2-57.1l-37.4-43.9h-91.2C592.5,497.4,661.8,559.2,673.9,569.9z"/>
	<path class="st2" d="M534.5,569.9l57.5,62.5l10.2-63.4l76.6,6.9L674,570c-12.1-10.6-87.8-101-87.4-101h-0.4l-6.8-8
		c-5.3-6.3-10.9-12.3-16.3-18c-8.6-9.2-17.5-18.7-22-26.3c-18.2-30.6-27-65.8-25.4-101.8c0.3-6.8,1-13.5,2-20.2l-29-65.6l-63,14.8
		c-6.2,21.2-9.9,43.5-10.9,66.5c-2.4,54.1,10.5,107.2,37.2,153.8L534.5,569.9z"/>
	<path class="st3" d="M1054.7,922.4c-9-1.7-34.6-6.9-43.3-10C939.1,887,894.1,833.6,842,771.7l-74.3-89l-68,77.5l65.1,76.6
		c56.5,67.1,114.9,136.5,213.2,171c32.6,11.5,66.4,16.8,99.9,16.1l-59.8-43.5L1054.7,922.4L1054.7,922.4z M683.7,584.4l-75-5.9
		l-8.6,63.4l34.4,40.8l67.4-76.8L683.7,584.4L683.7,584.4z"/>
	<path class="st3" d="M1260.9,527.6c-27.4-25-68.4-39.5-112.9-47.8l28.4,57.5l-55.5,40.2c47.2,7.5,65.3,18.6,71.9,24.7l0.7,0.6
		c54.9,48.8,75.5,128.2,51.1,197.6c-16.2,46.1-49.4,83.2-93.5,104.4c-32.5,15.6-48.2,22.7-83.2,18.1l-36.7,56.2l62.3,44.1
		c34.7-2.7,69-11.8,101.3-27.3c68.4-32.9,119.9-90.4,145-162C1377.7,726.4,1345.9,603.4,1260.9,527.6L1260.9,527.6z"/>
	<path class="st4" d="M837.8,501.2h10.4c2.7,0,5,0.3,7,0.8c1.9,0.5,3.7,1.4,5.3,2.8c4.1,3.5,6.1,8.8,6.1,16c0,2.4-0.2,4.5-0.6,6.5
		s-1,3.7-1.9,5.3s-2,3-3.3,4.2c-1.1,0.9-2.2,1.7-3.5,2.3s-2.6,1-4,1.2s-3.1,0.3-4.9,0.3H838c-1.5,0-2.5-0.2-3.3-0.7
		s-1.2-1.1-1.4-1.9c-0.2-0.8-0.3-1.8-0.3-3.1V506c0-1.7,0.4-3,1.2-3.7C834.9,501.6,836.1,501.2,837.8,501.2L837.8,501.2z
		 M840.9,507.5v26.7h6c1.3,0,2.4,0,3.1-0.1s1.5-0.3,2.3-0.5c0.8-0.3,1.5-0.7,2.1-1.2c2.7-2.3,4-6.1,4-11.7c0-3.9-0.6-6.8-1.8-8.7
		c-1.2-1.9-2.6-3.2-4.3-3.7s-3.8-0.8-6.2-0.8H840.9L840.9,507.5z M893.5,528.2h-14.3c0,1.7,0.4,3.1,1,4.4c0.7,1.3,1.5,2.2,2.6,2.9
		s2.3,1,3.6,1c0.9,0,1.7-0.1,2.4-0.3s1.4-0.5,2.1-1c0.7-0.4,1.3-0.9,1.9-1.4s1.3-1.2,2.2-2c0.4-0.3,0.9-0.5,1.6-0.5
		c0.8,0,1.4,0.2,1.8,0.6c0.5,0.4,0.7,1,0.7,1.7s-0.3,1.4-0.8,2.3c-0.5,0.9-1.3,1.7-2.3,2.6c-1,0.8-2.4,1.5-3.9,2
		c-1.6,0.5-3.4,0.8-5.5,0.8c-4.7,0-8.4-1.3-11-4s-3.9-6.3-3.9-10.9c0-2.2,0.3-4.2,1-6c0.6-1.9,1.6-3.4,2.8-4.8
		c1.2-1.3,2.8-2.3,4.6-3s3.8-1.1,6-1.1c2.9,0,5.3,0.6,7.4,1.8c2,1.2,3.6,2.8,4.6,4.7s1.5,3.9,1.5,5.9c0,1.8-0.5,3-1.6,3.6
		C897,527.9,895.5,528.2,893.5,528.2L893.5,528.2z M879.2,524h13.3c-0.2-2.5-0.9-4.4-2-5.6c-1.2-1.2-2.7-1.9-4.6-1.9
		c-1.8,0-3.3,0.6-4.5,1.9C880.2,519.7,879.5,521.5,879.2,524z M911.8,515.6v0.9c1.4-1.7,2.8-2.9,4.3-3.7s3.2-1.2,5-1.2
		c2.3,0,4.3,0.6,6.2,1.7c1.9,1.2,3.4,2.9,4.5,5.1c1.1,2.2,1.7,4.9,1.7,7.9c0,2.3-0.3,4.3-1,6.2c-0.6,1.9-1.5,3.5-2.6,4.8
		s-2.4,2.3-3.9,3s-3.1,1-4.9,1c-2.1,0-3.9-0.4-5.3-1.3c-1.4-0.8-2.8-2.1-4.1-3.7v11c0,3.2-1.2,4.8-3.5,4.8c-1.4,0-2.3-0.4-2.7-1.2
		s-0.7-2-0.7-3.6v-31.6c0-1.4,0.3-2.4,0.9-3.1c0.6-0.7,1.4-1,2.5-1c1,0,1.9,0.4,2.5,1.1C911.5,513.2,911.8,514.2,911.8,515.6
		L911.8,515.6z M926.2,526.2c0-1.9-0.3-3.6-0.9-5s-1.4-2.5-2.5-3.2c-1-0.7-2.2-1.1-3.5-1.1c-2,0-3.7,0.8-5.1,2.4
		c-1.4,1.6-2.1,3.9-2.1,7c0,2.9,0.7,5.2,2.1,6.8s3.1,2.4,5.1,2.4c1.2,0,2.3-0.4,3.4-1.1s1.9-1.8,2.5-3.2
		C925.9,529.9,926.2,528.2,926.2,526.2L926.2,526.2z M939.4,536.8V505c0-1.5,0.3-2.6,1-3.3s1.5-1.1,2.6-1.1s2,0.4,2.7,1.1
		s1,1.9,1,3.3v31.8c0,1.5-0.3,2.6-1,3.3s-1.6,1.1-2.7,1.1s-1.9-0.4-2.6-1.2C939.8,539.3,939.4,538.2,939.4,536.8z M981.8,526.4
		c0,2.2-0.3,4.2-1,6s-1.7,3.4-3,4.8s-2.8,2.3-4.6,3s-3.8,1.1-6,1.1s-4.2-0.4-6-1.1c-1.8-0.7-3.3-1.7-4.6-3.1s-2.3-2.9-3-4.7
		s-1-3.8-1-6s0.3-4.3,1-6.1s1.7-3.4,2.9-4.7c1.3-1.3,2.8-2.3,4.6-3s3.8-1.1,6-1.1s4.2,0.4,6,1.1s3.4,1.7,4.6,3.1
		c1.3,1.3,2.3,2.9,2.9,4.7C981.4,522.1,981.8,524.2,981.8,526.4L981.8,526.4z M974.4,526.4c0-3-0.7-5.3-2-7s-3.1-2.5-5.3-2.5
		c-1.4,0-2.7,0.4-3.8,1.1c-1.1,0.7-1.9,1.8-2.5,3.3s-0.9,3.1-0.9,5.1c0,1.9,0.3,3.6,0.9,5s1.4,2.5,2.5,3.3s2.4,1.1,3.8,1.1
		c2.2,0,4-0.8,5.3-2.5C973.8,531.6,974.4,529.3,974.4,526.4L974.4,526.4z M993.6,542.2l0.7-1.6l-9-22.7c-0.6-1.3-0.8-2.3-0.8-2.8
		c0-0.6,0.2-1.2,0.5-1.7s0.8-1,1.3-1.3c0.6-0.3,1.2-0.5,1.8-0.5c1.1,0,1.9,0.3,2.4,1s1,1.6,1.4,2.9l6.2,18l5.9-16.8
		c0.5-1.4,0.9-2.4,1.3-3.2s0.8-1.3,1.2-1.6s1-0.4,1.8-0.4c0.6,0,1.1,0.1,1.6,0.4c0.5,0.3,0.9,0.7,1.2,1.2s0.4,1,0.4,1.6
		c-0.1,0.3-0.2,0.8-0.3,1.5c-0.2,0.6-0.4,1.3-0.6,1.9l-9.6,25c-0.8,2.2-1.6,3.9-2.4,5.2s-1.8,2.2-3.1,2.9s-3,1-5.3,1
		c-2.1,0-3.8-0.2-4.8-0.7s-1.6-1.3-1.6-2.6c0-0.8,0.3-1.5,0.8-1.9c0.5-0.5,1.3-0.7,2.3-0.7c0.4,0,0.8,0.1,1.2,0.2
		c0.5,0.1,0.9,0.2,1.2,0.2c0.8,0,1.5-0.1,2-0.4c0.5-0.3,0.9-0.7,1.3-1.3C992.6,544.3,993.1,543.4,993.6,542.2L993.6,542.2z
		 M1315.6,677.7c1.1,3.9,1.2,7.5,0.3,10.8c-0.8,3.3-2.5,6-5.1,8.3c-2.6,2.2-5.8,3.9-9.8,5c-2.9,0.8-5.7,1.1-8.3,1
		c-2.6-0.1-5-0.8-7.2-1.9s-4.1-2.7-5.6-4.8c-1.6-2.1-2.7-4.6-3.5-7.6s-1-5.8-0.7-8.4s1.2-4.9,2.5-7c1.3-2,3.1-3.8,5.3-5.3
		c2.2-1.5,4.8-2.6,7.6-3.3c2.9-0.8,5.7-1.1,8.4-0.9c2.7,0.2,5.1,0.8,7.2,2c2.1,1.1,4,2.7,5.5,4.8
		C1313.7,672.4,1314.8,674.8,1315.6,677.7L1315.6,677.7z M1299,693.9c2.8-0.7,5.1-1.8,6.9-3.3s3-3.1,3.6-5.1s0.6-4,0-6.2
		c-0.4-1.5-1.1-2.9-2-4s-2.1-2-3.4-2.7c-1.4-0.6-3-1-4.8-1.1c-1.9-0.1-3.9,0.2-6,0.7c-2.2,0.6-4,1.4-5.6,2.4s-2.8,2.2-3.7,3.5
		c-0.9,1.3-1.4,2.7-1.7,4.1c-0.2,1.4-0.1,2.9,0.3,4.5c0.5,2,1.5,3.6,2.9,5s3.3,2.3,5.6,2.7C1293.3,694.9,1296,694.7,1299,693.9
		L1299,693.9z M1308.1,715.6l-0.9,0.1c1.8,1.2,3.3,2.5,4.2,3.8c1,1.4,1.6,3,1.8,4.9c0.3,2.2-0.1,4.4-1,6.4s-2.5,3.7-4.6,5.1
		s-4.7,2.2-7.7,2.6c-2.2,0.3-4.3,0.2-6.3-0.2c-1.9-0.4-3.6-1.1-5-2.1s-2.5-2.1-3.4-3.6c-0.9-1.4-1.4-3-1.6-4.7
		c-0.2-2.1,0-3.9,0.6-5.4c0.7-1.5,1.7-3,3.2-4.5l-10.9,1.3c-3.2,0.4-4.9-0.6-5.2-2.9c-0.2-1.4,0.1-2.3,0.9-2.9
		c0.8-0.5,2-0.9,3.5-1.1l31.4-3.6c1.4-0.2,2.5,0,3.2,0.5c0.8,0.5,1.2,1.3,1.3,2.4c0.1,1-0.1,1.9-0.8,2.6
		C1310.4,715.1,1309.4,715.5,1308.1,715.6L1308.1,715.6z M1299.2,731.1c1.9-0.2,3.5-0.7,4.8-1.5c1.3-0.7,2.3-1.7,2.9-2.8
		s0.9-2.3,0.7-3.6c-0.2-2-1.2-3.6-3-4.8c-1.7-1.2-4.2-1.6-7.2-1.3c-2.9,0.3-5.1,1.3-6.5,2.8c-1.5,1.6-2.1,3.3-1.8,5.4
		c0.1,1.2,0.6,2.3,1.4,3.2c0.8,1,2,1.7,3.4,2.1C1295.5,731.3,1297.2,731.4,1299.2,731.1L1299.2,731.1z M1298,765.4l0.2-14.3
		c-1.7,0-3.1,0.3-4.4,0.9s-2.3,1.5-2.9,2.6c-0.7,1.1-1,2.3-1,3.6c0,0.9,0.1,1.7,0.3,2.4c0.2,0.7,0.5,1.4,0.9,2.1s0.9,1.3,1.4,1.9
		s1.2,1.3,2,2.3c0.3,0.4,0.5,0.9,0.5,1.6c0,0.8-0.2,1.4-0.6,1.8c-0.4,0.5-1,0.7-1.8,0.7c-0.7,0-1.4-0.3-2.3-0.8s-1.7-1.3-2.5-2.4
		s-1.5-2.4-2-4s-0.8-3.4-0.7-5.5c0.1-4.7,1.5-8.3,4.2-10.9s6.4-3.8,11-3.8c2.2,0,4.2,0.4,6,1.1s3.4,1.6,4.7,2.9
		c1.3,1.3,2.3,2.8,3,4.6s1,3.8,1,6c0,2.9-0.7,5.3-1.9,7.3s-2.8,3.5-4.8,4.5c-1.9,1-3.9,1.5-5.9,1.4c-1.8,0-3-0.6-3.6-1.6
		S1297.9,767.3,1298,765.4L1298,765.4z M1302.3,751.2l-0.2,13.3c2.5-0.1,4.4-0.8,5.7-1.9c1.3-1.2,1.9-2.7,1.9-4.6
		c0-1.8-0.6-3.3-1.8-4.5C1306.7,752.2,1304.8,751.4,1302.3,751.2z M1293.6,784.9l-6.1-0.8c-1.5-0.2-2.5-0.7-3.2-1.5
		c-0.6-0.8-0.9-1.7-0.8-2.8c0.1-1,0.6-1.9,1.5-2.4c0.8-0.6,2-0.8,3.4-0.6l20.2,2.7c3.3,0.4,4.7,1.8,4.4,4.2c-0.2,1.2-0.7,2-1.5,2.5
		c-0.8,0.4-2,0.6-3.5,0.4c1.4,1.1,2.4,2.1,3,3.1s0.9,2.3,0.7,3.8c-0.2,1.5-0.8,3-1.7,4.3c-1,1.3-2.1,1.9-3.3,1.8
		c-0.9-0.1-1.6-0.5-2.1-1.2s-0.7-1.4-0.6-2.1c0-0.3,0.3-0.9,0.7-1.9c0.5-1,0.7-1.9,0.8-2.6c0.1-1.1,0-2-0.5-2.7s-1.2-1.4-2.3-1.9
		c-1.1-0.5-2.3-0.9-3.8-1.3C1297.6,785.5,1295.8,785.1,1293.6,784.9L1293.6,784.9z M1280.8,816.6c-0.9-2.1-1.5-4-1.8-5.7
		c-0.3-1.8-0.2-3.7,0.3-5.7c0.5-1.8,1.2-3.3,2.3-4.5c1.1-1.2,2.3-2,3.7-2.5c1.4-0.4,2.9-0.5,4.3-0.1c1.9,0.5,3.5,1.5,4.5,3.1
		c1.1,1.6,1.6,3.5,1.5,5.8c0,0.5-0.1,1.7-0.1,3.5c-0.1,1.9-0.1,3.5-0.1,4.9s0,2.8,0.1,4.4c1.9,0.4,3.4,0.3,4.4-0.1
		c1-0.5,1.8-1.7,2.4-3.8c0.5-1.8,0.5-3.2,0.3-4.3s-0.8-2-1.7-2.9c-0.8-0.9-1.4-1.5-1.6-1.9c-0.3-0.3-0.3-1,0-1.9
		c0.2-0.8,0.6-1.4,1.3-1.9c0.7-0.5,1.4-0.6,2.2-0.4c1.3,0.3,2.4,1.1,3.3,2.2c1,1.2,1.6,2.8,1.9,4.9s0.1,4.5-0.6,7.3
		c-0.8,3.1-1.8,5.5-2.9,7.1c-1.2,1.6-2.7,2.6-4.5,2.9s-4,0.2-6.6-0.5c-1.7-0.4-3.1-0.8-4.2-1.1c-1.2-0.3-2.5-0.6-3.9-1
		c-1.3-0.3-2.8-0.5-4.3-0.4c-1.6,0.1-2.6,0.1-3,0c-0.7-0.2-1.3-0.7-1.7-1.5c-0.4-0.8-0.5-1.7-0.3-2.6c0.2-0.7,0.7-1.4,1.6-1.9
		C1278.1,817.6,1279.3,817.1,1280.8,816.6L1280.8,816.6z M1291.2,818.7c-0.1-1.1-0.1-2.8-0.1-4.8c0.1-2.1,0.1-3.5,0.1-4.4
		c0-0.8-0.2-1.6-0.6-2.5c-0.4-0.8-1.1-1.4-2.2-1.6c-1.1-0.3-2.1-0.1-3.1,0.5s-1.6,1.6-1.9,2.9c-0.4,1.4-0.4,2.8,0,4.1
		c0.3,1.3,0.9,2.4,1.7,3.2c0.9,0.9,2.6,1.7,5.1,2.3L1291.2,818.7z M1300.6,837.2l-0.3,0.8l4.1,1.5c1.1,0.4,2,0.8,2.6,1
		c0.6,0.3,1.1,0.7,1.4,1.1c0.4,0.4,0.6,1,0.7,1.6s0.1,1.2-0.2,1.9c-0.3,0.9-0.9,1.5-1.8,2c-0.6,0.3-1.3,0.4-1.9,0.3
		c-0.7-0.1-1.6-0.4-2.8-0.8l-4.7-1.7l-0.9,2.5c-0.4,1-0.9,1.6-1.5,2c-0.7,0.3-1.3,0.4-2.1,0.1c-0.9-0.3-1.4-0.9-1.5-1.8
		s0.1-2,0.6-3.3l0.5-1.3l-12.7-4.6c-1.1-0.4-1.9-0.7-2.5-0.8s-1.2-0.1-1.6,0.1c-0.5,0.2-0.9,0.7-1.1,1.4c-0.1,0.4-0.3,1-0.4,1.7
		s-0.2,1.3-0.4,1.7c-0.2,0.6-0.6,1-1.2,1.3s-1.2,0.3-1.9,0.1c-1.1-0.4-1.7-1.3-1.9-2.7s0.2-3.3,1-5.5s1.7-3.7,2.9-4.5
		c1.1-0.8,2.4-1.2,3.8-1.1s3.2,0.6,5.3,1.3l13.2,4.8l0.3-0.9c0.4-1,0.9-1.7,1.5-2c0.7-0.4,1.4-0.4,2.1-0.1s1.2,0.8,1.5,1.5
		C1301,835.3,1301,836.1,1300.6,837.2z M1269.7,868.2l6.3-12.9c-1.5-0.7-3-1.1-4.4-1c-1.4,0-2.7,0.4-3.7,1.1
		c-1.1,0.7-1.9,1.6-2.5,2.8c-0.4,0.8-0.7,1.5-0.8,2.3c-0.1,0.7-0.2,1.5-0.1,2.3s0.2,1.6,0.4,2.3c0.2,0.7,0.5,1.7,0.8,2.9
		c0.1,0.5,0,1-0.3,1.7s-0.8,1.1-1.4,1.4c-0.6,0.2-1.2,0.2-1.9-0.1c-0.6-0.3-1.2-0.9-1.7-1.7c-0.6-0.9-1-1.9-1.2-3.2
		c-0.3-1.3-0.3-2.8-0.1-4.4c0.2-1.7,0.8-3.4,1.7-5.3c2.1-4.2,4.9-6.9,8.5-8.1s7.4-0.7,11.5,1.3c1.9,1,3.6,2.1,5,3.5s2.4,2.9,3,4.6
		s0.9,3.5,0.7,5.4c-0.2,1.9-0.7,3.9-1.7,5.9c-1.3,2.6-2.9,4.5-4.9,5.8s-4.1,2-6.2,2.1c-2.2,0.1-4.1-0.3-5.9-1.2
		c-1.7-0.8-2.5-1.8-2.5-3C1268.5,871.4,1268.9,869.9,1269.7,868.2L1269.7,868.2z M1279.8,857.2l-5.9,11.9c2.3,0.9,4.3,1.2,5.9,0.7
		s2.9-1.6,3.7-3.3c0.8-1.6,0.9-3.3,0.3-4.9C1283.3,860,1281.9,858.5,1279.8,857.2z M754.9,770.6l14-21.8l-19.8,18.6
		c-1.1,1-2.1,1.6-3.2,1.6s-1.9-0.4-2.7-1.2c-0.7-0.8-1.1-1.7-1-2.7s0.7-2,1.8-3.1l22.7-21.3c1.3-1.2,2.4-1.6,3.5-1.4
		c1,0.2,2.1,0.9,3.1,2l1.7,1.8c1,1.1,1.7,2,1.9,2.6c0.3,0.7,0.3,1.4,0,2.1s-0.9,1.8-1.7,3.1l-11.8,18.9l19.6-10.6
		c1.4-0.8,2.5-1.3,3.2-1.5s1.4-0.2,2.1,0.1c0.7,0.3,1.5,1,2.5,2.1l1.7,1.8c1,1.1,1.7,2.2,1.8,3.3c0.2,1.1-0.4,2.2-1.6,3.4L770,789.7
		c-1.1,1-2.1,1.6-3.2,1.6s-1.9-0.4-2.7-1.2c-0.7-0.8-1-1.7-1-2.7c0.1-1,0.7-2,1.8-3.1l19.8-18.6l-22.6,12.6
		c-1.5,0.8-2.6,1.4-3.3,1.7s-1.6,0.5-2.5,0.4s-1.8-0.6-2.7-1.5c-0.6-0.7-1-1.4-1.2-2.1c-0.1-0.7-0.1-1.5,0.1-2.2s0.5-1.4,0.9-2
		C754,772,754.4,771.3,754.9,770.6L754.9,770.6z M801.7,808.2c-1.6,1.5-3.3,2.6-5.1,3.4c-1.8,0.8-3.6,1.1-5.5,1.1
		c-1.8,0-3.6-0.5-5.4-1.3c-1.7-0.8-3.4-2-4.9-3.7c-1.5-1.6-2.6-3.3-3.3-5.1s-1-3.6-0.9-5.5s0.6-3.7,1.4-5.4c0.9-1.7,2.1-3.4,3.7-4.9
		s3.3-2.7,5.1-3.4c1.8-0.8,3.6-1.1,5.4-1.1s3.6,0.5,5.4,1.3s3.4,2,4.9,3.6s2.6,3.3,3.4,5.1s1,3.6,1,5.5c-0.1,1.8-0.6,3.6-1.4,5.4
		C804.5,805.1,803.3,806.7,801.7,808.2L801.7,808.2z M796.6,802.8c2.2-2,3.4-4.1,3.7-6.2c0.3-2.1-0.3-4-1.8-5.6c-1-1-2.1-1.7-3.4-2
		s-2.7-0.1-4.1,0.4c-1.5,0.6-2.9,1.5-4.3,2.8s-2.4,2.7-3.1,4.1c-0.6,1.4-0.9,2.8-0.7,4.1s0.8,2.5,1.8,3.6c1.5,1.6,3.3,2.3,5.5,2.1
		C792.3,806,794.5,804.9,796.6,802.8L796.6,802.8z M818.1,809.8l-0.6,0.6c2.1-0.2,4-0.1,5.6,0.5s3.1,1.6,4.5,3
		c1.3,1.4,2.2,3,2.6,4.6c0.4,1.7,0.3,3.3-0.3,4.9c-0.3,1-0.8,1.9-1.5,2.7s-1.6,1.8-2.7,2.9l-9.9,9.3c-1.1,1-2.1,1.5-3.1,1.5
		s-1.9-0.4-2.6-1.1c-0.7-0.8-1.1-1.7-1-2.7s0.7-2,1.7-3l8.9-8.4c1.8-1.7,2.9-3.2,3.4-4.5c0.5-1.4,0-2.8-1.4-4.2
		c-0.9-1-2-1.6-3.3-1.8s-2.6-0.1-4,0.5c-1,0.5-2.7,1.8-4.8,3.8l-6.7,6.3c-1.1,1-2.1,1.5-3.1,1.5s-1.9-0.4-2.6-1.2
		c-0.7-0.8-1-1.7-0.9-2.7s0.7-2,1.7-3l15.4-14.5c1-1,2-1.4,2.9-1.5c0.9,0,1.7,0.3,2.5,1.1c0.4,0.5,0.7,1,0.9,1.6
		c0.1,0.6,0.1,1.2-0.1,1.8S818.7,809.2,818.1,809.8L818.1,809.8z M841.2,834.6l-15.4,14.5c-1.1,1-2.1,1.5-3.1,1.5s-1.9-0.4-2.6-1.2
		c-0.7-0.8-1.1-1.7-1-2.7s0.7-2,1.7-3l15.3-14.4c1.1-1,2.1-1.5,3.1-1.5s1.9,0.4,2.6,1.2c0.7,0.8,1.1,1.7,1,2.7
		S842.2,833.7,841.2,834.6z M844.3,826.8c-0.7-0.7-1.1-1.6-1.1-2.6s0.4-1.8,1.2-2.6c0.8-0.7,1.6-1,2.6-0.9s1.8,0.5,2.5,1.2
		s1,1.5,1.1,2.5s-0.3,1.8-1.2,2.6c-0.8,0.8-1.7,1.1-2.7,1S844.9,827.5,844.3,826.8L844.3,826.8z M849.2,838l0.6,0.6l3.2-3
		c0.9-0.8,1.6-1.4,2.1-1.8s1.1-0.7,1.6-0.8c0.6-0.1,1.1-0.1,1.7,0.1s1.1,0.5,1.6,1c0.6,0.7,1,1.5,1,2.6c0,0.7-0.2,1.3-0.6,1.9
		s-1,1.3-1.9,2.1l-3.6,3.4l1.8,2c0.7,0.8,1.1,1.5,1.1,2.2s-0.3,1.4-0.8,1.9c-0.7,0.7-1.5,0.9-2.3,0.6s-1.7-1-2.7-2l-0.9-1l-9.8,9.2
		c-0.8,0.8-1.4,1.4-1.8,1.9s-0.6,1-0.7,1.5c0,0.5,0.2,1.1,0.7,1.6c0.3,0.3,0.7,0.7,1.4,1.1c0.6,0.4,1.1,0.8,1.3,1.1
		c0.4,0.4,0.6,1,0.6,1.7s-0.3,1.2-0.8,1.7c-0.9,0.8-2,1-3.3,0.4c-1.3-0.5-2.8-1.6-4.5-3.4c-1.6-1.7-2.5-3.2-2.7-4.6s0-2.7,0.7-3.9
		s1.9-2.6,3.6-4.1l10.3-9.6l-0.7-0.7c-0.7-0.8-1.1-1.5-1.1-2.3c0-0.7,0.3-1.4,0.8-1.9c0.6-0.5,1.2-0.7,2-0.7
		C847.7,836.7,848.5,837.2,849.2,838L849.2,838z M870.7,881.7c-1.6,1.5-3.3,2.6-5.1,3.4c-1.8,0.8-3.6,1.1-5.5,1.1
		c-1.8,0-3.6-0.5-5.4-1.3s-3.4-2-4.9-3.7c-1.5-1.6-2.6-3.3-3.3-5.1s-1-3.6-0.9-5.5s0.6-3.7,1.4-5.4c0.9-1.7,2.1-3.4,3.7-4.9
		s3.3-2.7,5.1-3.4c1.8-0.8,3.6-1.1,5.4-1.1s3.6,0.5,5.4,1.3s3.4,2,4.9,3.6s2.6,3.3,3.4,5.1c0.7,1.8,1,3.6,1,5.5
		c-0.1,1.8-0.6,3.6-1.4,5.4C873.6,878.5,872.3,880.1,870.7,881.7L870.7,881.7z M865.7,876.3c2.2-2,3.4-4.1,3.7-6.2s-0.3-4-1.8-5.6
		c-1-1-2.1-1.7-3.4-2s-2.7-0.2-4.1,0.4c-1.5,0.6-2.9,1.5-4.3,2.8s-2.4,2.7-3.1,4.1c-0.6,1.4-0.9,2.8-0.7,4.1s0.8,2.5,1.8,3.6
		c1.5,1.6,3.3,2.3,5.5,2.1C861.4,879.4,863.5,878.3,865.7,876.3L865.7,876.3z M876.5,894.1l-4.5,4.2c-1.1,1-2.1,1.5-3.2,1.5
		c-1,0-1.9-0.4-2.6-1.2c-0.7-0.8-1-1.7-1-2.7c0.1-1,0.7-2,1.7-3l14.9-14c2.4-2.3,4.4-2.5,6-0.8c0.8,0.9,1.2,1.8,1,2.7
		s-0.8,1.9-1.9,3c1.7-0.4,3.1-0.5,4.3-0.4s2.3,0.8,3.4,1.9s1.8,2.5,2.2,4.1s0.2,2.8-0.7,3.7c-0.7,0.6-1.4,0.9-2.2,0.8
		c-0.8-0.1-1.5-0.3-2-0.9c-0.2-0.2-0.5-0.8-1-1.8s-1-1.8-1.5-2.3c-0.7-0.8-1.5-1.2-2.4-1.3s-1.8,0.1-2.9,0.6s-2.2,1.2-3.4,2.1
		C879.5,891.4,878.1,892.6,876.5,894.1L876.5,894.1z M543.9,885.7l-8.2,8.8c-1.2,1.3-2.3,1.9-3.4,1.9s-2.2-0.6-3.5-1.7l-21.7-20.1
		c-1.3-1.2-1.9-2.3-2-3.4c0-1.1,0.5-2.2,1.7-3.5l8.7-9.4c1.3-1.4,2.5-2.5,3.6-3.3c1.1-0.9,2.3-1.5,3.5-1.8c1-0.3,2.1-0.4,3.2-0.4
		c1.1,0.1,2.2,0.3,3.2,0.7s1.9,1,2.8,1.8c2.9,2.7,3.7,6.1,2.3,10.2c4.7-2.7,8.8-2.4,12.3,0.8c1.6,1.5,2.7,3.3,3.2,5.3s0.4,4-0.2,6
		c-0.4,1.2-1.1,2.5-2,3.8C546.4,882.8,545.3,884.2,543.9,885.7L543.9,885.7z M513.3,869.6l7.5,6.9l5-5.4c1.4-1.5,2.3-2.7,2.7-3.8
		c0.5-1.1,0.5-2.1,0.1-3.3c-0.2-0.8-0.7-1.6-1.4-2.2c-1.5-1.3-2.9-1.7-4.3-1.1c-1.4,0.6-3.1,2-5.1,4.1L513.3,869.6z M530.6,874.3
		l-5.6,6.1l8.4,7.8l5.8-6.3c3.7-4,4.1-7.3,1.2-9.9c-1.5-1.4-3-1.8-4.6-1.4S532.5,872.2,530.6,874.3L530.6,874.3z M569.4,853.1
		l-0.7-0.6c0.2,1.4,0.3,2.7,0.2,3.9s-0.4,2.4-0.9,3.5s-1.3,2.2-2.3,3.3c-1.2,1.3-2.6,2.2-4,2.7c-1.5,0.5-3,0.6-4.4,0.3
		c-1.8-0.4-3.7-1.6-5.9-3.6l-10.7-9.9c-1.1-1-1.7-2-1.7-3c-0.1-1,0.2-1.9,1-2.7s1.6-1.2,2.6-1.2s2,0.5,3.1,1.5l8.6,8
		c1.2,1.2,2.4,2,3.4,2.6s2.1,0.8,3,0.7s1.9-0.6,2.8-1.6c0.8-0.9,1.4-2,1.6-3.3c0.2-1.3,0-2.5-0.5-3.7c-0.5-1-2-2.7-4.6-5.1l-6.5-6.1
		c-1.1-1-1.6-2-1.7-3c-0.1-1,0.3-1.9,1-2.7s1.6-1.2,2.6-1.2s2,0.5,3.1,1.5L574,848c1,0.9,1.6,1.9,1.7,2.8c0.1,0.9-0.2,1.8-0.9,2.5
		s-1.5,1.1-2.5,1.1S570.3,854,569.4,853.1L569.4,853.1z M560.2,820.2c-0.7,0.7-1.5,1.2-2.5,1.3s-1.8-0.2-2.7-1
		c-0.8-0.7-1.1-1.6-1.1-2.6s0.4-1.9,1-2.6s1.4-1.1,2.4-1.2c0.9-0.1,1.8,0.2,2.7,1c0.8,0.8,1.2,1.6,1.2,2.6S560.9,819.5,560.2,820.2
		L560.2,820.2z M568.2,822.7l15.5,14.4c1.1,1,1.7,2,1.7,3c0.1,1-0.2,1.9-1,2.7c-0.7,0.8-1.6,1.2-2.6,1.1c-1,0-2.1-0.5-3.1-1.5
		l-15.4-14.3c-1.1-1-1.6-2-1.7-3c-0.1-1,0.2-1.9,1-2.7c0.7-0.8,1.6-1.2,2.6-1.2C566.3,821.4,567.3,821.8,568.2,822.7z M588.9,831.5
		l-23.3-21.6c-1.1-1-1.7-2-1.8-3s0.2-1.9,1-2.7s1.6-1.2,2.6-1.2s2.1,0.5,3.1,1.5l23.3,21.6c1.1,1,1.7,2,1.8,3s-0.3,1.9-1,2.7
		s-1.6,1.2-2.6,1.1C591,833,590,832.5,588.9,831.5L588.9,831.5z M612.9,806l-0.5-0.5c0.2,1.5,0.2,2.8,0,4c-0.1,1.2-0.4,2.3-0.9,3.4
		s-1.2,2.1-2.1,3.1c-1.2,1.3-2.6,2.2-4.1,2.8s-3.2,0.8-5,0.7s-3.5-0.6-5.3-1.5c-1.7-0.9-3.4-2-5-3.5c-3.4-3.1-5.2-6.4-5.6-9.7
		c-0.4-3.4,0.7-6.4,3.2-9.1c1.4-1.5,2.9-2.6,4.4-3.2s3.3-0.9,5.3-0.8l-7.9-7.4c-1.1-1-1.7-2-1.9-3s0.1-1.9,0.9-2.7
		c0.8-0.8,1.6-1.2,2.5-1.2s1.9,0.5,2.9,1.5l23.7,22c1,0.9,1.6,1.9,1.6,2.8c0.1,0.9-0.2,1.8-0.9,2.5s-1.5,1.1-2.5,1.1
		S613.9,807,612.9,806L612.9,806z M595.2,809.3c1.5,1.4,2.9,2.3,4.4,2.8c1.4,0.5,2.8,0.6,4,0.3s2.3-0.9,3.2-1.9
		c0.9-0.9,1.4-2,1.7-3.3c0.2-1.2,0.1-2.6-0.5-4s-1.6-2.8-3.2-4.2c-1.4-1.3-2.9-2.2-4.3-2.7c-1.5-0.5-2.8-0.6-4.1-0.3
		s-2.4,0.9-3.2,1.9c-0.9,1-1.4,2.1-1.6,3.4c-0.2,1.3,0.1,2.6,0.7,4C592.8,806.7,593.8,808,595.2,809.3L595.2,809.3z M104.2,824.7
		l5.2,7l23-16.9c1.3-1,2.5-1.4,3.6-1.3s2,0.6,2.6,1.6c0.7,1,0.9,2,0.7,3c-0.2,1.1-1,2.1-2.3,3.1l-23,16.9l5.2,7
		c0.8,1.1,1.2,2.1,1.1,3s-0.5,1.6-1.3,2.2s-1.7,0.8-2.6,0.6s-1.7-0.8-2.5-1.9l-15-20.4c-0.8-1.1-1.2-2.1-1.1-3s0.5-1.6,1.3-2.2
		s1.6-0.8,2.5-0.6S103.4,823.6,104.2,824.7L104.2,824.7z M109.3,789.3l5.9,13.1c1.5-0.7,2.7-1.6,3.6-2.7s1.4-2.3,1.5-3.6
		s-0.1-2.5-0.6-3.7c-0.4-0.8-0.8-1.5-1.3-2.1s-1.1-1.1-1.7-1.5c-0.7-0.4-1.4-0.8-2.1-1.1s-1.6-0.7-2.8-1.2c-0.4-0.2-0.8-0.6-1.1-1.3
		c-0.3-0.7-0.4-1.3-0.2-1.9c0.2-0.6,0.6-1,1.3-1.4c0.6-0.3,1.4-0.4,2.4-0.2c1,0.1,2.1,0.5,3.3,1.1c1.2,0.6,2.3,1.5,3.5,2.8
		c1.1,1.2,2.1,2.8,3,4.6c1.9,4.3,2.2,8.2,0.9,11.7s-4.2,6.2-8.3,8.1c-2,0.9-3.9,1.4-5.9,1.6s-3.8,0-5.5-0.6s-3.3-1.5-4.7-2.9
		c-1.4-1.4-2.5-3-3.4-5c-1.2-2.6-1.6-5.1-1.4-7.5c0.3-2.4,1-4.4,2.4-6.1c1.3-1.7,2.9-3,4.7-3.8c1.7-0.8,3-0.8,3.9,0
		C107.7,786.3,108.5,787.5,109.3,789.3L109.3,789.3z M111.4,804l-5.5-12.1c-2.2,1.2-3.6,2.6-4.3,4.2c-0.7,1.6-0.6,3.2,0.2,5
		c0.8,1.7,1.9,2.8,3.6,3.3C107.1,805,109.1,804.8,111.4,804z M104.5,753.1c2-0.3,3.8-0.2,5.4,0.6c1.6,0.7,2.9,2,4,3.7
		c1.1,1.8,1.8,4,2.3,6.7c0.5,2.6,0.4,4.9,0,6.9c-0.5,2-1.2,3.5-2.3,4.6c-1,1.1-2.2,1.7-3.4,1.9c-0.8,0.1-1.5,0-2.2-0.5
		s-1.1-1.1-1.2-2c-0.1-0.8,0-1.4,0.3-1.8c0.3-0.5,0.8-0.9,1.4-1.4c1.2-1,2-2,2.4-3.2c0.5-1.1,0.5-2.6,0.2-4.4
		c-0.3-1.4-0.8-2.6-1.6-3.4s-1.6-1.2-2.5-1c-1.3,0.2-2.1,0.9-2.5,1.9c-0.4,1.1-0.7,2.7-0.8,5c-0.2,2.6-0.5,4.7-0.9,6.4
		s-1.1,3.1-2,4.2s-2.2,1.8-3.9,2.1c-1.4,0.3-2.9,0.1-4.3-0.6c-1.4-0.6-2.7-1.7-3.7-3.3c-1.1-1.6-1.8-3.5-2.2-5.9
		c-0.3-1.9-0.4-3.6-0.3-5.1c0.1-1.6,0.4-2.9,0.9-4s1.1-2,1.8-2.7c0.7-0.7,1.4-1.1,2.2-1.2c0.8-0.1,1.6,0,2.2,0.5s1,1.2,1.2,2.2
		c0.1,0.7,0,1.4-0.3,2s-0.9,1.3-1.6,2.1c-0.6,0.7-1.1,1.4-1.4,2.2s-0.3,1.9-0.1,3.1c0.2,1.3,0.7,2.3,1.4,3.1
		c0.7,0.8,1.5,1.1,2.3,0.9c0.8-0.1,1.3-0.6,1.7-1.3c0.4-0.7,0.6-1.6,0.8-2.8c0.1-1.1,0.3-2.7,0.4-4.6c0.2-2.3,0.5-4.3,1-5.8
		c0.5-1.6,1.2-2.8,2.1-3.7C102,753.9,103.2,753.4,104.5,753.1z M85.2,745.8V745l-4.4-0.2c-1.2,0-2.1-0.1-2.8-0.2
		c-0.7-0.1-1.2-0.3-1.7-0.6s-0.9-0.7-1.2-1.3c-0.3-0.5-0.4-1.2-0.4-1.8c0-0.9,0.4-1.8,1.1-2.5c0.5-0.5,1.1-0.8,1.7-0.9
		c0.7-0.1,1.6-0.1,2.9-0.1l5,0.2l0.1-2.7c0-1,0.3-1.8,0.8-2.3s1.2-0.8,1.9-0.7c1,0,1.7,0.5,2,1.2c0.4,0.8,0.5,1.9,0.5,3.4l-0.1,1.4
		l13.5,0.5h2.6c0.6-0.1,1.1-0.3,1.5-0.6s0.6-0.9,0.6-1.7c0-0.4,0-1-0.2-1.8s-0.2-1.3-0.2-1.7c0-0.6,0.3-1.1,0.8-1.6s1.1-0.7,1.8-0.6
		c1.2,0,2.1,0.7,2.6,2c0.6,1.3,0.8,3.2,0.7,5.6c-0.1,2.3-0.5,4-1.4,5.2c-0.8,1.2-1.9,1.9-3.3,2.2s-3.2,0.4-5.5,0.3L90,745.1v1
		c0,1.1-0.3,1.8-0.8,2.4c-0.5,0.5-1.2,0.8-1.9,0.8c-0.8,0-1.4-0.3-1.9-0.9C85.4,747.7,85.2,746.9,85.2,745.8L85.2,745.8z M574,530.2
		l2.1,1.9l8.5-9.3c1.1-1.2,2.2-1.9,3.3-2s2,0.3,2.9,1.1c0.9,0.9,1.4,1.8,1.4,2.9c0,1.1-0.6,2.2-1.7,3.4l-20.4,22.4
		c-1.2,1.3-2.3,1.9-3.4,2c-1.1,0.1-2.3-0.5-3.5-1.7l-9.6-8.7c-1.3-1.2-2.4-2.3-3.2-3.3s-1.5-2-1.9-3c-0.6-1.2-0.9-2.5-0.9-3.9
		c-0.1-1.4,0.2-2.7,0.7-3.9c0.5-1.3,1.2-2.4,2.2-3.5c2-2.2,4.2-3.3,6.6-3.5c2.4-0.2,5.1,0.6,8.1,2.3c-0.5-1.5-0.8-3.2-0.8-5.2
		s0.2-3.9,0.6-5.8c0.4-1.9,0.8-3.5,1.3-4.9s0.9-2.2,1.2-2.6c0.4-0.4,0.8-0.7,1.4-0.8c0.6-0.2,1.2-0.1,1.8,0s1.2,0.5,1.8,1
		c0.7,0.6,1.1,1.3,1.2,2c0.2,0.7,0.2,1.5,0.1,2.2s-0.3,1.9-0.6,3.3l-1.2,6.1c-0.5,2.2-0.7,4-0.7,5.4s0.2,2.5,0.6,3.4
		C572.2,528.3,572.9,529.2,574,530.2L574,530.2z M559.5,539.3l5.4,5l7.3-8l-5.3-4.8c-1.4-1.3-2.7-2.3-3.9-2.9
		c-1.2-0.6-2.3-0.9-3.4-0.8c-1,0.1-2,0.7-3,1.7c-0.7,0.8-1.2,1.7-1.3,2.7c-0.2,1,0,2,0.4,2.9C556.2,536.1,557.5,537.5,559.5,539.3
		L559.5,539.3z M543.3,493.2l9.7,10.6c1.2-1.1,2.1-2.4,2.6-3.7s0.6-2.6,0.4-3.9c-0.3-1.2-0.8-2.3-1.7-3.3c-0.6-0.6-1.2-1.2-1.9-1.6
		c-0.6-0.4-1.4-0.7-2.1-0.9c-0.8-0.2-1.6-0.4-2.3-0.4c-0.8-0.1-1.8-0.2-3-0.3c-0.5-0.1-1-0.3-1.4-0.9c-0.5-0.6-0.8-1.1-0.8-1.8
		c0-0.6,0.3-1.2,0.8-1.7c0.5-0.4,1.2-0.8,2.2-1s2.2-0.2,3.5,0s2.7,0.7,4.2,1.5s2.9,2,4.3,3.5c3.2,3.5,4.7,7.1,4.4,10.8
		c-0.2,3.7-2,7.2-5.4,10.3c-1.6,1.5-3.3,2.6-5.1,3.4s-3.6,1.2-5.4,1.1s-3.6-0.5-5.3-1.3c-1.7-0.9-3.4-2.1-4.8-3.7
		c-1.9-2.1-3.1-4.3-3.6-6.7c-0.5-2.3-0.4-4.5,0.3-6.6c0.7-2,1.8-3.7,3.3-5.1c1.4-1.2,2.6-1.7,3.7-1.3
		C540.8,490.9,542,491.8,543.3,493.2L543.3,493.2z M549.9,506.6l-9-9.8c-1.7,1.8-2.7,3.6-2.8,5.3s0.5,3.3,1.8,4.7
		c1.2,1.3,2.7,2,4.4,2C546.1,508.8,547.9,508,549.9,506.6z M523.7,462.8c1.6-1.2,3.3-1.9,5-2s3.5,0.4,5.3,1.5s3.5,2.7,5.1,4.9
		c1.6,2.1,2.6,4.1,3.1,6.1s0.5,3.7,0.1,5.1s-1.1,2.5-2.1,3.3c-0.6,0.5-1.4,0.7-2.2,0.6s-1.5-0.5-2-1.2c-0.5-0.6-0.7-1.2-0.6-1.8
		s0.2-1.2,0.5-1.9c0.6-1.4,0.8-2.7,0.7-3.9s-0.7-2.6-1.8-4c-0.9-1.2-1.9-1.9-3-2.3s-2-0.3-2.6,0.2c-1,0.8-1.5,1.7-1.4,2.9
		c0.1,1.1,0.6,2.8,1.6,4.9c1,2.4,1.8,4.4,2.2,6.1s0.5,3.2,0.1,4.7c-0.3,1.4-1.1,2.7-2.4,3.7c-1.2,0.9-2.5,1.4-4.1,1.5
		s-3.2-0.3-4.8-1.2c-1.7-0.9-3.2-2.3-4.7-4.2c-1.2-1.5-2-3-2.6-4.4s-0.9-2.8-1-4s0-2.3,0.4-3.2c0.3-0.9,0.8-1.6,1.4-2.1
		c0.7-0.5,1.4-0.7,2.2-0.6s1.5,0.6,2.1,1.4c0.5,0.6,0.7,1.2,0.7,1.9s-0.2,1.6-0.4,2.6c-0.2,0.9-0.3,1.7-0.2,2.6s0.6,1.8,1.3,2.8
		c0.8,1.1,1.7,1.8,2.7,2.1c1,0.4,1.8,0.3,2.5-0.2c0.6-0.5,0.9-1.1,0.9-1.9s-0.2-1.7-0.6-2.8c-0.4-1.1-1-2.5-1.8-4.3
		c-0.9-2.1-1.5-4-1.8-5.6s-0.2-3,0.2-4.3C521.9,464.6,522.6,463.6,523.7,462.8L523.7,462.8z M506.5,442.1l7.5,12.3
		c1.4-0.9,2.5-1.9,3.2-3.1s1.1-2.5,1.1-3.7c0-1.3-0.4-2.4-1-3.6c-0.5-0.7-1-1.4-1.5-1.9c-0.6-0.5-1.2-0.9-1.9-1.3s-1.5-0.6-2.2-0.9
		c-0.7-0.2-1.7-0.5-2.9-0.8c-0.5-0.2-0.9-0.5-1.3-1.1s-0.5-1.3-0.4-1.9s0.5-1.1,1.1-1.5c0.6-0.3,1.4-0.5,2.4-0.5s2.2,0.2,3.4,0.7
		s2.5,1.2,3.8,2.3s2.5,2.5,3.5,4.3c2.4,4,3.2,7.8,2.3,11.5c-0.9,3.6-3.4,6.6-7.3,9c-1.9,1.1-3.7,1.9-5.7,2.3
		c-1.9,0.4-3.8,0.4-5.5,0.1s-3.4-1.1-5-2.3c-1.5-1.2-2.9-2.7-4-4.6c-1.5-2.4-2.3-4.9-2.3-7.2c0-2.4,0.5-4.5,1.6-6.4s2.5-3.3,4.2-4.4
		c1.6-1,2.9-1.1,3.9-0.5C504.5,439.3,505.5,440.4,506.5,442.1z M510.4,456.5l-6.9-11.4c-2,1.5-3.3,3-3.8,4.7
		c-0.5,1.6-0.2,3.3,0.8,4.9c0.9,1.6,2.3,2.5,4,2.9C506.2,457.9,508.1,457.6,510.4,456.5z M501,410.5c2,1.1,3.6,2.2,4.9,3.5
		c1.3,1.2,2.4,2.8,3.2,4.7c0.8,1.7,1.1,3.4,1,5s-0.6,3-1.4,4.2c-0.9,1.2-2,2.1-3.3,2.7c-1.8,0.8-3.7,0.9-5.5,0.3s-3.4-1.8-4.7-3.6
		c-0.3-0.4-1-1.3-2.1-2.9c-1.1-1.5-2-2.8-2.9-3.9c-0.8-1.1-1.7-2.2-2.8-3.5c-1.7,0.9-2.9,1.8-3.4,2.8s-0.4,2.5,0.5,4.5
		c0.8,1.7,1.6,2.9,2.4,3.5c0.9,0.6,1.9,1.1,3.1,1.3c1.2,0.2,2,0.4,2.5,0.5c0.4,0.1,0.8,0.6,1.2,1.4c0.3,0.8,0.4,1.5,0.1,2.3
		c-0.2,0.8-0.7,1.3-1.5,1.6c-1.2,0.5-2.5,0.6-4,0.3s-3-1.2-4.5-2.7s-2.8-3.5-4-6.1c-1.3-2.9-2-5.4-2-7.4s0.5-3.7,1.7-5
		c1.2-1.4,3-2.6,5.5-3.7c1.6-0.7,2.9-1.3,4-1.8s2.3-1,3.7-1.6c1.3-0.6,2.5-1.3,3.7-2.4c1.2-1,2-1.6,2.4-1.8c0.7-0.3,1.5-0.3,2.3,0.1
		c0.9,0.4,1.5,1,1.8,1.8c0.3,0.7,0.3,1.5-0.1,2.5C502.6,408.1,501.9,409.2,501,410.5L501,410.5z M491.5,415.2c0.8,0.8,1.8,2.1,3,3.8
		s2.1,2.9,2.6,3.5s1.2,1.2,2,1.6s1.7,0.4,2.7,0s1.7-1.2,2.1-2.3c0.4-1.1,0.3-2.2-0.3-3.5s-1.4-2.4-2.5-3.3s-2.2-1.4-3.3-1.5
		c-1.3-0.2-3.1,0.3-5.4,1.3L491.5,415.2L491.5,415.2z M488.1,392.9l5.9-1.7c1.4-0.4,2.6-0.4,3.5,0.1s1.5,1.2,1.8,2.2s0.2,2-0.4,2.8
		c-0.5,0.9-1.5,1.5-2.9,1.9l-19.6,5.7c-3.2,0.9-5.1,0.2-5.7-2.1c-0.3-1.2-0.2-2.1,0.4-2.8c0.6-0.7,1.6-1.3,3-1.8c-1.7-0.4-3-1-4-1.6
		c-1-0.7-1.7-1.7-2.1-3.2s-0.5-3-0.1-4.6c0.3-1.6,1.1-2.6,2.3-2.9c0.9-0.2,1.7-0.2,2.4,0.3c0.7,0.4,1.2,1,1.4,1.7
		c0.1,0.3,0.1,0.9,0.1,2s0.1,2,0.3,2.8c0.3,1,0.8,1.8,1.5,2.3s1.7,0.8,2.9,0.8c1.2,0.1,2.5-0.1,4-0.4
		C484.2,393.9,486,393.5,488.1,392.9L488.1,392.9z M481.8,351.7c0.9-0.1,1.9,0,3,0.4s2.2,1.1,3.3,2.1s2,2.3,2.8,3.9s1.3,3.5,1.6,5.6
		c0.6,4.5-0.2,8.2-2.5,11.1s-5.6,4.6-10,5.2c-3,0.4-5.7,0.2-8.1-0.6s-4.4-2.3-6-4.3s-2.5-4.5-3-7.6c-0.3-1.9-0.2-3.6,0.1-5.3
		c0.3-1.6,0.9-3.1,1.6-4.3c0.7-1.2,1.5-2.2,2.4-2.9s1.8-1.1,2.6-1.2c0.9-0.1,1.6,0.1,2.3,0.7c0.7,0.6,1.1,1.3,1.2,2.2
		c0.1,0.6,0,1.1-0.3,1.6c-0.3,0.4-0.7,1-1.3,1.6c-1.2,1.1-2.1,2.1-2.6,3.2s-0.7,2.3-0.5,3.8c0.3,2.1,1.4,3.8,3.2,4.8s4.2,1.4,7.1,1
		c1.4-0.2,2.6-0.5,3.7-1s2-1.1,2.7-1.9s1.2-1.6,1.5-2.6s0.4-2,0.2-3.1c-0.2-1.5-0.7-2.7-1.5-3.6s-2-1.7-3.5-2.3
		c-0.9-0.3-1.6-0.7-2.1-1.2s-0.9-1-1-1.8c-0.1-0.9,0.1-1.7,0.7-2.3C480.3,352.2,481,351.8,481.8,351.7L481.8,351.7z M454.8,338.4
		l10.9,0.5c-1-1-1.8-1.9-2.4-2.8s-1-1.9-1.3-3s-0.4-2.2-0.3-3.5c0.1-1.9,0.6-3.5,1.4-4.9c0.9-1.4,2-2.5,3.6-3.2
		c0.9-0.5,1.9-0.8,3-0.9s2.3-0.2,3.8-0.1l14,0.6c1.5,0.1,2.6,0.5,3.3,1.2s1.1,1.6,1,2.7c-0.1,2.4-1.7,3.6-4.6,3.4l-12.4-0.6
		c-2.3-0.1-4.2,0.2-5.5,0.8s-2,1.9-2.1,3.9c-0.1,1.3,0.3,2.5,1,3.6s1.7,1.9,2.9,2.5c1.1,0.4,3,0.7,5.8,0.9l9.7,0.4
		c1.4,0.1,2.5,0.4,3.3,1.1c0.7,0.7,1.1,1.6,1,2.8c-0.1,2.4-1.7,3.6-4.6,3.4l-31.8-1.5c-1.5-0.1-2.6-0.4-3.3-1.1s-1-1.6-1-2.7
		c0.1-1.2,0.5-2.1,1.3-2.7C452.2,338.7,453.3,338.4,454.8,338.4L454.8,338.4z M553.5,125.2l7,8.8l13.5-10.7l-7-8.8
		c-1-1.3-1.5-2.4-1.4-3.5s0.6-2,1.5-2.7s1.9-1,3-0.9c1.1,0.2,2.1,0.9,3.1,2.2l19.2,24.3c1,1.3,1.5,2.5,1.4,3.6s-0.6,2-1.5,2.7
		s-1.9,1-3,0.8s-2.1-0.9-3.1-2.2l-8.2-10.4l-13.5,10.7l8.2,10.4c1,1.3,1.5,2.5,1.4,3.6s-0.6,2-1.5,2.7s-1.9,1-3,0.8
		s-2.1-0.9-3.1-2.2l-19.2-24.3c-1-1.3-1.5-2.4-1.4-3.5s0.6-2,1.5-2.7s2-1,3-0.9C551.4,123.2,552.5,124,553.5,125.2z M607.4,132.3
		l-0.2-1.8l-18.7-15.8c-1.1-0.9-1.8-1.6-2.1-2.1c-0.3-0.6-0.4-1.1-0.4-1.8s0.2-1.2,0.6-1.8s0.8-1,1.3-1.3c0.9-0.5,1.8-0.6,2.6-0.2
		c0.8,0.3,1.7,1,2.6,1.9l14,13l-2.7-17.6c-0.2-1.4-0.4-2.6-0.4-3.4c0-0.9,0.1-1.5,0.3-1.9s0.7-0.8,1.4-1.2c0.5-0.3,1-0.4,1.6-0.4
		s1.1,0.2,1.6,0.5s0.9,0.7,1.1,1.2c0.1,0.3,0.2,0.8,0.4,1.4s0.3,1.3,0.4,2l3.3,26.6c0.3,2.3,0.4,4.2,0.3,5.7s-0.6,2.8-1.4,4
		c-0.8,1.2-2.2,2.3-4.2,3.4c-1.9,1-3.4,1.6-4.6,1.7c-1.2,0.1-2-0.4-2.6-1.5c-0.4-0.7-0.5-1.4-0.2-2.1c0.2-0.6,0.8-1.2,1.7-1.7
		c0.3-0.2,0.7-0.3,1.1-0.4c0.5-0.1,0.8-0.3,1.1-0.4c0.7-0.4,1.3-0.8,1.6-1.3c0.3-0.4,0.5-1,0.5-1.8
		C607.6,134.6,607.5,133.6,607.4,132.3L607.4,132.3z M624.3,95.2l0.3,0.8c0.8-2,1.7-3.7,2.9-4.9s2.6-2.1,4.4-2.7
		c2.1-0.7,4.3-0.8,6.5-0.3s4.1,1.6,5.9,3.4s3.1,4.1,4.1,7c0.7,2.1,1.1,4.2,1.1,6.2s-0.3,3.8-1,5.3c-0.6,1.6-1.6,2.9-2.8,4
		s-2.6,2-4.3,2.5c-2,0.7-3.8,0.8-5.4,0.5c-1.6-0.3-3.3-1.1-5-2.2l3.5,10.4c1,3.1,0.4,5-1.8,5.7c-1.3,0.4-2.3,0.3-3-0.3
		s-1.3-1.7-1.8-3.2l-10-30c-0.4-1.3-0.5-2.4-0.1-3.3s1-1.4,2-1.8c1-0.3,1.9-0.3,2.7,0.2C623.2,93.1,623.8,93.9,624.3,95.2
		L624.3,95.2z M641.3,100.8c-0.6-1.8-1.4-3.3-2.4-4.4s-2.1-1.9-3.3-2.3s-2.4-0.4-3.7,0c-1.9,0.6-3.3,1.9-4.1,3.9s-0.7,4.4,0.3,7.3
		c0.9,2.8,2.3,4.7,4.1,5.8s3.7,1.3,5.6,0.7c1.2-0.4,2.1-1.1,2.9-2.1c0.8-1,1.2-2.3,1.4-3.8C642.1,104.4,641.9,102.7,641.3,100.8z
		 M682.1,93.5c0.3,2.2,0.2,4.2-0.2,6.1s-1.2,3.6-2.3,5.1s-2.5,2.7-4.2,3.6s-3.6,1.6-5.8,1.9s-4.2,0.2-6.1-0.3
		c-1.9-0.5-3.5-1.3-5-2.4s-2.7-2.6-3.6-4.3c-0.9-1.7-1.5-3.7-1.8-5.8c-0.3-2.2-0.2-4.3,0.2-6.2s1.2-3.6,2.3-5.1s2.5-2.7,4.2-3.6
		s3.6-1.6,5.8-1.9s4.2-0.2,6.1,0.2c1.9,0.5,3.6,1.3,5,2.4c1.5,1.1,2.6,2.6,3.6,4.3C681.2,89.4,681.8,91.3,682.1,93.5z M674.9,94.5
		c-0.4-3-1.4-5.2-2.9-6.7s-3.4-2.1-5.6-1.8c-1.4,0.2-2.6,0.7-3.6,1.6s-1.7,2.1-2.1,3.6s-0.5,3.2-0.2,5.1s0.8,3.5,1.5,4.9
		c0.8,1.3,1.7,2.3,2.9,2.9s2.5,0.8,3.9,0.6c2.2-0.3,3.8-1.4,4.9-3.2C674.9,99.8,675.3,97.4,674.9,94.5L674.9,94.5z M689.2,79.5h0.8
		v-4.4c0-1.2,0-2.1,0.1-2.8s0.2-1.2,0.5-1.7s0.7-0.9,1.2-1.2s1.1-0.5,1.8-0.5c0.9,0,1.8,0.4,2.5,1.1c0.5,0.5,0.8,1,0.9,1.7
		c0.1,0.7,0.2,1.6,0.2,2.9v5h2.7c1,0,1.8,0.3,2.4,0.8s0.8,1.1,0.8,1.9c0,1-0.4,1.7-1.2,2.1S700,85,698.6,85h-1.4l-0.1,13.5
		c0,1.1,0,2,0.1,2.6s0.3,1.1,0.6,1.5s0.9,0.6,1.7,0.6c0.4,0,1-0.1,1.7-0.2s1.3-0.2,1.7-0.2c0.6,0,1.1,0.2,1.6,0.7s0.7,1.1,0.7,1.8
		c0,1.2-0.7,2.1-2,2.7s-3.1,0.9-5.6,0.9c-2.3,0-4-0.4-5.2-1.2s-1.9-1.9-2.3-3.2c-0.4-1.4-0.5-3.2-0.5-5.5l0.1-14.1h-1
		c-1.1,0-1.9-0.3-2.4-0.8c-0.6-0.5-0.8-1.1-0.8-1.9s0.3-1.4,0.9-1.9C687.2,79.7,688.1,79.5,689.2,79.5z M719,73.9l-1.6,10.8
		c1.1-0.9,2.1-1.6,3.1-2.1s2-0.8,3.1-1s2.3-0.1,3.5,0c1.8,0.3,3.4,0.9,4.7,1.9s2.3,2.3,2.9,3.9c0.4,0.9,0.6,2,0.6,3.1
		s-0.1,2.3-0.3,3.7l-2,13.9c-0.2,1.5-0.7,2.5-1.5,3.1s-1.7,0.9-2.8,0.7c-2.4-0.4-3.4-2-2.9-4.9l1.8-12.2c0.3-2.3,0.3-4.2-0.2-5.5
		c-0.5-1.4-1.7-2.2-3.7-2.5c-1.3-0.2-2.5,0-3.7,0.6c-1.1,0.6-2.1,1.5-2.8,2.7c-0.5,1-1,2.9-1.4,5.7l-1.4,9.6
		c-0.2,1.4-0.7,2.5-1.5,3.1c-0.8,0.7-1.7,0.9-2.9,0.7c-2.4-0.4-3.4-2-2.9-4.9l4.6-31.5c0.2-1.5,0.7-2.5,1.4-3.2
		c0.7-0.6,1.7-0.9,2.8-0.7c1.2,0.2,2,0.7,2.5,1.5S719.2,72.5,719,73.9L719,73.9z M761.3,107.5l-13.7-4.3c-0.5,1.6-0.6,3.1-0.3,4.5
		s0.8,2.6,1.6,3.5s1.9,1.6,3.1,2c0.8,0.3,1.6,0.4,2.4,0.4s1.5-0.1,2.3-0.3s1.5-0.5,2.2-0.8s1.6-0.7,2.7-1.3c0.5-0.2,1-0.2,1.7,0
		s1.2,0.6,1.6,1.1s0.4,1.2,0.1,1.9c-0.2,0.6-0.7,1.3-1.4,2c-0.8,0.7-1.8,1.3-3,1.7c-1.2,0.5-2.7,0.7-4.4,0.8c-1.7,0-3.5-0.2-5.5-0.9
		c-4.5-1.4-7.6-3.8-9.3-7.1c-1.7-3.3-1.9-7.2-0.5-11.6c0.6-2.1,1.5-3.9,2.7-5.5s2.5-2.8,4.1-3.7s3.3-1.4,5.3-1.6
		c1.9-0.1,4,0.1,6.1,0.8c2.7,0.9,4.9,2.2,6.5,3.9c1.6,1.8,2.6,3.7,3,5.8s0.3,4.1-0.3,6c-0.5,1.8-1.4,2.7-2.6,3
		C764.6,108.2,763.1,108.1,761.3,107.5L761.3,107.5z M748.8,99.2l12.7,4c0.6-2.4,0.5-4.4-0.3-6c-0.8-1.5-2-2.6-3.9-3.2
		c-1.7-0.5-3.4-0.4-4.9,0.5C751,95.4,749.8,97,748.8,99.2z M793.1,124.9c-0.8,1.8-2,3.2-3.5,4.1c-1.5,0.9-3.3,1.3-5.3,1.2
		c-2.1-0.1-4.3-0.8-6.8-1.9c-2.4-1.1-4.3-2.4-5.7-3.9s-2.2-3-2.5-4.5s-0.2-2.8,0.3-3.9c0.3-0.7,0.9-1.2,1.6-1.5
		c0.8-0.3,1.5-0.2,2.3,0.1c0.7,0.3,1.2,0.7,1.4,1.3c0.2,0.5,0.4,1.2,0.4,1.9c0.1,1.5,0.6,2.8,1.2,3.8c0.7,1,1.8,1.9,3.5,2.7
		c1.3,0.6,2.6,0.8,3.7,0.6s1.9-0.7,2.2-1.5c0.5-1.2,0.5-2.2-0.2-3.2c-0.6-0.9-1.9-2.1-3.7-3.5c-2-1.6-3.6-3.1-4.8-4.4
		s-1.9-2.6-2.3-4.1c-0.4-1.4-0.2-2.9,0.4-4.4c0.6-1.3,1.6-2.4,2.9-3.2s3-1.2,4.8-1.2s3.9,0.5,6.1,1.5c1.7,0.8,3.2,1.7,4.4,2.7
		s2.1,2,2.8,3s1,2,1.2,3c0.1,1,0.1,1.8-0.3,2.5c-0.3,0.8-0.9,1.3-1.6,1.5s-1.6,0.2-2.5-0.3c-0.7-0.3-1.2-0.8-1.5-1.4
		s-0.6-1.4-0.8-2.5c-0.2-0.9-0.6-1.7-1.1-2.4s-1.3-1.3-2.5-1.9s-2.3-0.8-3.4-0.6s-1.7,0.6-2.1,1.4c-0.3,0.7-0.3,1.4,0.1,2.1
		c0.4,0.7,1,1.4,1.9,2.2c0.9,0.7,2.1,1.7,3.6,3c1.8,1.5,3.3,2.8,4.2,4.1s1.6,2.6,1.8,3.8C793.8,122.4,793.7,123.6,793.1,124.9
		L793.1,124.9z M812.7,117.5L802.4,136c-0.7,1.3-1.6,2.1-2.5,2.4c-1,0.3-1.9,0.2-2.9-0.3c-0.9-0.5-1.5-1.3-1.7-2.3s0-2.1,0.7-3.4
		l10.2-18.3c0.7-1.3,1.5-2.1,2.5-2.4c0.9-0.3,1.9-0.2,2.8,0.3s1.5,1.3,1.8,2.3C813.5,115.3,813.3,116.4,812.7,117.5L812.7,117.5z
		 M813.2,109.1c-0.9-0.5-1.5-1.2-1.8-2.1s-0.2-1.9,0.3-2.9c0.5-0.9,1.2-1.5,2.2-1.7s1.9-0.1,2.8,0.4c0.8,0.5,1.4,1.1,1.8,2
		c0.3,0.9,0.2,1.8-0.3,2.9c-0.5,1-1.3,1.6-2.2,1.8S814,109.6,813.2,109.1z M831.2,148.1c-1.1,1.7-2.5,2.9-4.1,3.6
		c-1.6,0.7-3.4,0.8-5.4,0.4c-2-0.4-4.2-1.4-6.5-2.9c-2.2-1.4-3.9-3-5-4.7s-1.8-3.3-1.8-4.8c-0.1-1.5,0.2-2.8,0.9-3.8
		c0.4-0.7,1.1-1.1,1.8-1.3s1.6,0,2.3,0.5c0.6,0.4,1,0.9,1.2,1.4s0.2,1.2,0.1,2c-0.1,1.5,0.1,2.8,0.7,3.9s1.5,2.2,3.1,3.1
		c1.2,0.8,2.4,1.2,3.6,1.1c1.1,0,1.9-0.4,2.4-1.1c0.7-1.1,0.8-2.1,0.3-3.2s-1.5-2.4-3.1-4c-1.8-1.9-3.1-3.6-4.1-5s-1.5-2.9-1.7-4.4
		s0.2-2.9,1.1-4.3c0.8-1.2,1.9-2.2,3.4-2.8c1.4-0.6,3.1-0.8,5-0.5s3.8,1.1,5.8,2.4c1.6,1,2.9,2.1,4,3.3s1.8,2.3,2.3,3.4
		s0.7,2.1,0.7,3.1s-0.2,1.8-0.6,2.4c-0.5,0.7-1.1,1.1-1.8,1.3c-0.8,0.1-1.6-0.1-2.5-0.6c-0.6-0.4-1.1-0.9-1.3-1.6
		c-0.2-0.6-0.4-1.5-0.5-2.6c-0.1-0.9-0.3-1.7-0.7-2.5s-1.1-1.5-2.2-2.2s-2.2-1.1-3.2-1.1s-1.8,0.3-2.3,1c-0.4,0.6-0.5,1.4-0.2,2.1
		c0.3,0.8,0.8,1.6,1.5,2.4c0.7,0.9,1.8,2,3.1,3.5c1.6,1.7,2.8,3.3,3.6,4.7s1.2,2.8,1.3,4.1S831.9,146.9,831.2,148.1L831.2,148.1z
		 M949.1,279.2l1.2,10.3c0.3,2.7,0.3,5,0.1,7c-0.3,2-1,3.8-2.2,5.6c-3,4.5-8.1,7.2-15.2,8c-2.3,0.3-4.5,0.3-6.5,0.2
		c-2-0.2-3.8-0.6-5.5-1.3s-3.2-1.6-4.6-2.8c-1.1-0.9-2-2-2.7-3.2s-1.3-2.5-1.7-3.9s-0.7-3-0.9-4.8l-1.2-10.3
		c-0.2-1.4-0.1-2.6,0.3-3.3c0.3-0.8,0.9-1.3,1.7-1.6c0.8-0.3,1.8-0.5,3-0.7l28.7-3.4c1.7-0.2,3,0,3.8,0.7
		C948.4,276.3,948.9,277.5,949.1,279.2L949.1,279.2z M943.2,283l-26.5,3.2l0.7,6c0.2,1.3,0.3,2.3,0.5,3.1c0.2,0.7,0.4,1.5,0.8,2.3
		s0.9,1.4,1.4,1.9c2.6,2.4,6.6,3.2,12,2.6c3.9-0.5,6.7-1.4,8.5-2.8s2.8-3,3.2-4.7c0.3-1.8,0.3-3.9,0-6.3L943.2,283L943.2,283z
		 M925.3,338.4l0.3-14.3c-1.7,0-3.1,0.3-4.4,0.9c-1.3,0.6-2.3,1.5-2.9,2.5c-0.7,1.1-1,2.3-1,3.6c0,0.9,0.1,1.7,0.3,2.4
		c0.2,0.7,0.5,1.4,0.9,2.1s0.9,1.3,1.4,1.9s1.2,1.3,2,2.3c0.3,0.4,0.5,0.9,0.5,1.6c0,0.8-0.2,1.4-0.7,1.8c-0.4,0.5-1,0.7-1.8,0.7
		c-0.7,0-1.4-0.3-2.3-0.8s-1.7-1.3-2.5-2.4s-1.4-2.4-1.9-4s-0.7-3.4-0.7-5.5c0.1-4.7,1.5-8.3,4.3-10.9c2.7-2.6,6.4-3.8,11-3.7
		c2.2,0,4.2,0.4,6,1.1s3.4,1.7,4.7,2.9s2.3,2.8,3,4.6s1,3.8,0.9,6c-0.1,2.9-0.7,5.3-2,7.3s-2.8,3.5-4.8,4.5c-1.9,1-3.9,1.4-5.9,1.4
		c-1.8,0-3-0.6-3.6-1.7C925.5,341.8,925.3,340.3,925.3,338.4z M929.8,324.1l-0.3,13.3c2.5-0.1,4.4-0.8,5.7-1.9s1.9-2.7,2-4.6
		c0-1.8-0.6-3.3-1.8-4.5C934.1,325.2,932.3,324.4,929.8,324.1L929.8,324.1z M917.7,373.8c-2-0.3-3.6-1-4.9-2.2s-2.2-2.8-2.6-4.8
		c-0.5-2-0.5-4.4-0.1-7.1c0.4-2.6,1.1-4.8,2.2-6.5s2.3-3,3.6-3.7s2.6-1,3.8-0.8c0.8,0.1,1.4,0.5,1.9,1.1s0.7,1.4,0.5,2.3
		c-0.1,0.8-0.4,1.3-0.8,1.7s-1,0.7-1.7,0.9c-1.4,0.6-2.5,1.3-3.3,2.3c-0.8,0.9-1.3,2.3-1.6,4.1c-0.2,1.5-0.1,2.7,0.5,3.7
		s1.2,1.6,2,1.7c1.3,0.2,2.3-0.2,3-1.1s1.5-2.4,2.4-4.5c1-2.4,1.9-4.4,2.8-5.8c0.9-1.5,2-2.6,3.2-3.4s2.7-1.1,4.3-0.8
		c1.5,0.2,2.8,0.8,3.9,1.9c1.2,1.1,2,2.5,2.5,4.3s0.6,3.9,0.3,6.3c-0.3,1.9-0.7,3.5-1.3,5c-0.6,1.4-1.3,2.6-2.1,3.5s-1.6,1.6-2.5,2
		s-1.7,0.6-2.5,0.5s-1.5-0.5-1.9-1.1c-0.5-0.6-0.6-1.5-0.5-2.5c0.1-0.7,0.4-1.3,0.9-1.8s1.2-1,2.2-1.5c0.8-0.4,1.4-1,2-1.7
		s0.9-1.7,1.1-2.9c0.2-1.3,0.1-2.4-0.4-3.4s-1.1-1.5-1.9-1.6s-1.4,0.1-2,0.7s-1.1,1.4-1.6,2.4s-1.1,2.5-1.8,4.3
		c-0.9,2.2-1.8,3.9-2.8,5.2s-2,2.3-3.2,2.9C920.3,373.8,919,374,917.7,373.8L917.7,373.8z M930.1,390.6l-20.6-4.9
		c-1.4-0.3-2.4-0.9-3-1.8s-0.7-1.8-0.5-2.8s0.8-1.8,1.7-2.3s2.1-0.6,3.4-0.2l20.4,4.8c1.4,0.3,2.4,0.9,3,1.7s0.7,1.8,0.5,2.8
		s-0.8,1.8-1.7,2.3C932.5,390.8,931.4,390.9,930.1,390.6L930.1,390.6z M938.3,388.8c0.2-1,0.7-1.8,1.5-2.3c0.8-0.6,1.7-0.7,2.8-0.4
		c1,0.2,1.8,0.8,2.2,1.7c0.5,0.9,0.6,1.8,0.4,2.8c-0.2,0.9-0.7,1.7-1.5,2.2c-0.8,0.6-1.7,0.7-2.8,0.5c-1.1-0.3-1.9-0.8-2.3-1.7
		S938.1,389.8,938.3,388.8L938.3,388.8z M918.1,424.6l-20.1-7c-2.3-0.8-4.2-1.7-5.7-2.8s-2.6-2.3-3.3-3.8s-1-3.2-0.9-5.1
		s0.6-4.2,1.5-6.8c0.8-2.4,1.9-4.4,3.2-6s2.7-2.8,4.1-3.4c1.4-0.6,2.7-0.8,3.8-0.4c0.8,0.3,1.4,0.8,1.8,1.6c0.3,0.8,0.4,1.5,0.1,2.4
		c-0.4,1-1.1,1.7-2.3,2.2c-0.6,0.2-1.2,0.4-1.8,0.7c-0.6,0.2-1.2,0.5-1.7,0.9s-0.9,0.9-1.3,1.5s-0.7,1.4-1,2.3
		c-0.6,1.8-0.9,3.3-0.7,4.4c0.2,1.2,0.6,2.1,1.4,2.8s1.6,1.3,2.6,1.7s2.6,1,4.9,1.9c-1.1-1.6-1.8-3.2-2.1-4.9
		c-0.3-1.7-0.1-3.5,0.6-5.4c0.8-2.3,2.1-4.1,3.9-5.5c1.8-1.3,3.9-2.1,6.4-2.3s5.1,0.2,7.9,1.2c2.1,0.7,3.9,1.7,5.3,2.8
		c1.5,1.1,2.6,2.4,3.4,3.9c0.8,1.4,1.2,3,1.3,4.5c0.1,1.6-0.1,3.2-0.7,4.8c-0.7,2-1.6,3.5-2.9,4.7s-2.9,2.1-4.9,2.8l0.9,0.3
		c1.2,0.4,2,1,2.5,1.9c0.5,0.8,0.5,1.7,0.2,2.6c-0.5,1.3-1.2,2.1-2.2,2.2C921.1,425.4,919.7,425.2,918.1,424.6L918.1,424.6z
		 M916.3,401.5c-2.8-1-5.1-1.1-7-0.4s-3.1,2.1-3.8,4c-0.4,1.1-0.5,2.3-0.2,3.6c0.3,1.2,0.9,2.4,1.9,3.5s2.4,1.9,4.2,2.5
		c2.8,1,5.2,1.1,7.2,0.4s3.4-2.1,4.1-4.1s0.5-3.8-0.6-5.5S919,402.4,916.3,401.5L916.3,401.5z M912.4,439.8l-0.8-0.4
		c0.9,1.9,1.4,3.8,1.4,5.5s-0.4,3.5-1.4,5.2c-0.9,1.7-2.1,3.1-3.5,4c-1.4,1-3,1.4-4.7,1.4c-1,0-2-0.1-3-0.5s-2.2-0.9-3.6-1.6
		l-12.1-6.3c-1.3-0.7-2.1-1.5-2.5-2.4s-0.3-1.9,0.2-2.8c0.5-1,1.3-1.6,2.2-1.8c1-0.3,2.1,0,3.4,0.6l10.9,5.6
		c2.1,1.1,3.9,1.7,5.4,1.7c1.4,0,2.6-0.9,3.5-2.7c0.6-1.2,0.8-2.4,0.6-3.7c-0.2-1.3-0.8-2.5-1.8-3.6c-0.8-0.8-2.5-1.9-5.2-3.3
		l-8.2-4.2c-1.3-0.7-2.2-1.5-2.5-2.5s-0.3-1.9,0.2-2.9c0.5-0.9,1.2-1.5,2.2-1.8s2.1,0,3.4,0.6l18.8,9.7c1.2,0.6,2,1.4,2.4,2.2
		c0.3,0.9,0.3,1.8-0.2,2.7c-0.3,0.6-0.7,1-1.2,1.3s-1.1,0.5-1.8,0.5C913.9,440.4,913.2,440.2,912.4,439.8L912.4,439.8z"/>
	<path class="st5" d="M324.6,720.2c0,7.4-1,13.8-2.9,19c-1.9,5.3-4.7,9.6-8.3,12.9s-8,5.8-13.2,7.3s-11.4,2.3-18.5,2.3h-19.3
		c-1.4,0-2.5-0.4-3.5-1.2s-1.4-2.1-1.4-4V686c0-1.8,0.5-3.2,1.4-4s2.1-1.2,3.5-1.2H283c7.2,0,13.3,0.8,18.3,2.5s9.3,4.2,12.7,7.5
		s6.1,7.4,7.8,12.3C323.7,708.1,324.6,713.8,324.6,720.2L324.6,720.2z M307.6,720.7c0-3.8-0.4-7.4-1.3-10.7s-2.3-6.1-4.3-8.6
		c-2-2.4-4.5-4.3-7.6-5.7s-7.2-2-12.2-2h-8.3v55h8.6c4.5,0,8.3-0.6,11.4-1.8s5.7-2.9,7.7-5.3c2.1-2.4,3.6-5.3,4.6-8.8
		C307.1,729.5,307.6,725.4,307.6,720.7L307.6,720.7z M388.7,730.2c0,1.9-0.4,3.3-1.3,4.3c-0.9,0.9-2,1.4-3.5,1.4H350
		c0,2.4,0.3,4.5,0.8,6.5s1.5,3.6,2.7,4.9c1.2,1.4,2.8,2.4,4.8,3.1c1.9,0.7,4.3,1.1,7,1.1c2.8,0,5.2-0.2,7.3-0.6s3.9-0.8,5.4-1.3
		s2.8-0.9,3.8-1.3s1.8-0.6,2.4-0.6c0.4,0,0.7,0.1,0.9,0.2c0.3,0.1,0.5,0.4,0.6,0.8c0.2,0.4,0.3,0.9,0.3,1.6s0.1,1.6,0.1,2.6
		c0,0.9,0,1.7-0.1,2.3c0,0.6-0.1,1.2-0.2,1.7s-0.2,0.8-0.4,1.2c-0.2,0.3-0.4,0.6-0.7,0.9s-1,0.7-2.2,1.2s-2.8,1-4.6,1.5
		s-4,0.9-6.4,1.3s-5,0.5-7.8,0.5c-5,0-9.3-0.6-13-1.9s-6.8-3.1-9.3-5.7c-2.5-2.5-4.4-5.8-5.6-9.6c-1.2-3.9-1.8-8.4-1.8-13.6
		c0-5,0.6-9.4,1.9-13.4s3.2-7.4,5.6-10.1c2.5-2.8,5.4-4.9,9-6.3c3.5-1.5,7.5-2.2,11.9-2.2c4.7,0,8.7,0.7,12,2.1s6,3.3,8.2,5.7
		s3.7,5.3,4.7,8.7c1,3.3,1.5,7,1.5,10.9L388.7,730.2L388.7,730.2L388.7,730.2z M373.4,725.7c0.1-4.4-0.8-7.9-2.7-10.4
		s-4.8-3.8-8.8-3.8c-2,0-3.7,0.4-5.2,1.1c-1.5,0.8-2.7,1.8-3.7,3c-1,1.3-1.7,2.8-2.3,4.5c-0.5,1.7-0.8,3.6-0.9,5.5h23.6V725.7
		L373.4,725.7z M452.3,703.9v0.8c0,0.3-0.1,0.6-0.1,1c-0.1,0.4-0.1,0.8-0.3,1.2c-0.1,0.5-0.2,1-0.4,1.6l-16.8,50.4
		c-0.2,0.7-0.5,1.3-0.8,1.7c-0.4,0.4-0.9,0.8-1.8,1s-1.9,0.4-3.3,0.5s-3.2,0.1-5.5,0.1c-2.2,0-4-0.1-5.4-0.2s-2.5-0.3-3.3-0.5
		c-0.8-0.3-1.4-0.6-1.7-1c-0.4-0.4-0.6-1-0.8-1.7l-16.8-50.4c-0.3-0.8-0.4-1.6-0.6-2.3c-0.1-0.7-0.2-1.1-0.3-1.4v-0.8
		c0-0.4,0.1-0.8,0.3-1.1c0.2-0.3,0.6-0.6,1.2-0.8s1.4-0.4,2.4-0.4c1-0.1,2.3-0.1,3.8-0.1c1.7,0,3.1,0.1,4.1,0.2s1.9,0.3,2.5,0.4
		c0.6,0.2,1,0.5,1.3,0.8c0.3,0.4,0.5,0.8,0.6,1.3l12.7,40.9l0.4,1.6l0.4-1.6l12.5-40.9c0.1-0.5,0.3-0.9,0.6-1.3s0.7-0.6,1.3-0.8
		c0.6-0.2,1.4-0.3,2.3-0.4c1-0.1,2.3-0.2,3.8-0.2s2.8,0,3.8,0.1s1.7,0.2,2.3,0.4c0.5,0.2,0.9,0.5,1.1,0.8
		C452.2,703.1,452.3,703.4,452.3,703.9L452.3,703.9z M1023.7,720.4c0,6.7-0.8,12.7-2.5,18s-4.1,9.8-7.4,13.5s-7.4,6.5-12.2,8.4
		c-4.9,1.9-10.5,2.9-16.8,2.9s-11.8-0.8-16.5-2.5s-8.6-4.2-11.7-7.5s-5.5-7.7-7-12.9c-1.6-5.2-2.3-11.4-2.3-18.5
		c0-6.5,0.8-12.4,2.5-17.7c1.7-5.2,4.1-9.7,7.4-13.3c3.3-3.7,7.4-6.5,12.2-8.4c4.9-2,10.5-2.9,16.9-2.9c6.1,0,11.5,0.8,16.2,2.4
		s8.6,4.1,11.8,7.5c3.1,3.4,5.5,7.6,7.1,12.8C1022.9,707.4,1023.7,713.4,1023.7,720.4z M1006.5,721.3c0-4.3-0.3-8.1-1-11.6
		s-1.8-6.5-3.4-8.9c-1.6-2.5-3.7-4.4-6.4-5.8c-2.7-1.4-6-2-10-2s-7.4,0.8-10.1,2.3s-4.9,3.6-6.6,6.1s-2.8,5.5-3.5,8.9s-1,7-1,10.8
		c0,4.4,0.3,8.4,1,11.9s1.8,6.5,3.4,9s3.7,4.4,6.4,5.7s6,2,10.1,2c4,0,7.4-0.8,10.1-2.3s4.9-3.5,6.6-6.1s2.8-5.6,3.5-9
		S1006.5,725.2,1006.5,721.3L1006.5,721.3z M1092.7,731c0,5-0.5,9.4-1.6,13.4s-2.6,7.4-4.7,10.2c-2,2.8-4.6,4.9-7.6,6.4
		s-6.5,2.3-10.4,2.3c-1.6,0-3.1-0.2-4.5-0.5s-2.7-0.8-3.9-1.4c-1.3-0.6-2.5-1.4-3.8-2.4s-2.5-2.1-3.9-3.4v26.3
		c0,0.4-0.1,0.8-0.4,1.1s-0.7,0.6-1.3,0.8c-0.6,0.2-1.4,0.4-2.4,0.5s-2.3,0.2-3.8,0.2s-2.8-0.1-3.8-0.2s-1.8-0.3-2.4-0.5
		s-1-0.5-1.3-0.8s-0.4-0.7-0.4-1.1V704c0-0.4,0.1-0.8,0.3-1.1c0.2-0.3,0.6-0.6,1.1-0.8s1.2-0.4,2.1-0.5s1.9-0.2,3.2-0.2
		c1.3,0,2.3,0.1,3.2,0.2c0.9,0.1,1.5,0.3,2.1,0.5c0.5,0.2,0.9,0.5,1.1,0.8s0.3,0.7,0.3,1.1v6.6c1.6-1.7,3.2-3.1,4.8-4.4
		c1.6-1.3,3.2-2.3,4.8-3.2c1.6-0.9,3.3-1.5,5-1.9s3.6-0.6,5.5-0.6c4.1,0,7.6,0.8,10.4,2.4c2.9,1.6,5.2,3.8,7,6.6s3.1,6,4,9.8
		C1092.3,722.8,1092.7,726.8,1092.7,731L1092.7,731z M1076.4,732.1c0-2.4-0.2-4.7-0.5-6.8c-0.4-2.2-1-4.1-1.8-5.8
		c-0.9-1.7-2-3.1-3.4-4.1s-3.1-1.5-5.2-1.5c-1,0-2.1,0.2-3.1,0.5s-2.1,0.8-3.1,1.5c-1.1,0.7-2.2,1.6-3.3,2.8s-2.3,2.5-3.6,4.2v18.4
		c2.2,2.8,4.3,4.9,6.3,6.5c2,1.5,4.1,2.3,6.3,2.3c2,0,3.8-0.5,5.2-1.6c1.4-1,2.6-2.4,3.5-4.1s1.6-3.6,2-5.7
		S1076.4,734.2,1076.4,732.1L1076.4,732.1z M1143.9,743.9c0,3.2-0.6,6-1.8,8.4c-1.2,2.4-2.9,4.4-5,6.1c-2.2,1.6-4.7,2.8-7.7,3.7
		c-3,0.8-6.2,1.2-9.6,1.2c-2.1,0-4.1-0.2-6-0.5s-3.6-0.7-5.1-1.2s-2.8-1-3.8-1.5s-1.7-1-2.2-1.4s-0.8-1.1-1.1-2.1s-0.4-2.3-0.4-4.2
		c0-1.2,0-2.2,0.1-2.9s0.2-1.3,0.4-1.8c0.2-0.4,0.4-0.7,0.6-0.9c0.3-0.1,0.6-0.2,0.9-0.2c0.5,0,1.1,0.3,2,0.8s2,1.1,3.3,1.7
		s2.9,1.2,4.7,1.8c1.8,0.5,3.8,0.8,6,0.8c1.4,0,2.7-0.1,3.8-0.4c1.1-0.3,2.1-0.7,2.9-1.3c0.8-0.5,1.4-1.2,1.8-2.1
		c0.4-0.8,0.6-1.8,0.6-2.9c0-1.3-0.4-2.3-1.2-3.2c-0.8-0.9-1.8-1.7-3.1-2.3c-1.3-0.7-2.7-1.3-4.3-1.9c-1.6-0.6-3.3-1.2-4.9-1.9
		c-1.7-0.7-3.3-1.5-4.9-2.4s-3-2-4.3-3.4c-1.3-1.3-2.3-2.9-3.1-4.8c-0.8-1.9-1.2-4.1-1.2-6.8s0.5-5.1,1.6-7.3c1-2.2,2.5-4.1,4.5-5.7
		s4.3-2.8,7.2-3.7s6-1.3,9.5-1.3c1.8,0,3.4,0.1,5.1,0.4c1.6,0.3,3.1,0.6,4.5,0.9c1.3,0.4,2.5,0.8,3.4,1.2s1.6,0.8,2,1.1
		s0.7,0.6,0.8,0.9c0.2,0.3,0.3,0.7,0.4,1.1s0.2,1,0.2,1.6c0.1,0.6,0.1,1.4,0.1,2.4c0,1.1,0,2-0.1,2.8c-0.1,0.7-0.2,1.3-0.3,1.7
		c-0.1,0.4-0.3,0.7-0.6,0.8c-0.3,0.1-0.5,0.2-0.9,0.2s-1-0.2-1.8-0.7c-0.8-0.4-1.8-0.9-3-1.4s-2.6-1-4.1-1.4s-3.3-0.7-5.3-0.7
		c-1.4,0-2.6,0.1-3.7,0.4c-1,0.3-1.9,0.7-2.6,1.3c-0.7,0.5-1.2,1.2-1.5,1.9s-0.5,1.5-0.5,2.3c0,1.3,0.4,2.4,1.2,3.3
		c0.8,0.9,1.8,1.6,3.1,2.3c1.3,0.7,2.8,1.3,4.4,1.9s3.3,1.2,5,1.9s3.4,1.5,5,2.4s3.1,2,4.4,3.4c1.3,1.3,2.3,2.9,3.1,4.8
		C1143.5,739.2,1143.9,741.4,1143.9,743.9L1143.9,743.9z"/>
	<path class="st0" d="M596.3,468.9H454.7l37.4,46.7l43.4,54.3h132.6H395.5C286,569.9,241.7,593.6,215,597l17-65l-75.2-16.7
		c21.9-10.6,82.2-46.4,238.8-46.4H596.3z"/>
	<path class="st4" d="M274.1,531.1l-2.8,0.3l1.2,12.6c0.2,1.7-0.1,2.9-0.7,3.8c-0.7,0.9-1.6,1.3-2.7,1.5c-1.3,0.1-2.3-0.2-3.1-1
		s-1.2-1.9-1.4-3.5l-2.9-30.2c-0.2-1.7,0.1-3,0.8-3.8s1.9-1.3,3.6-1.5L279,508c1.8-0.2,3.3-0.2,4.6-0.2s2.5,0.2,3.5,0.6
		c1.3,0.4,2.4,1,3.5,1.9c1,0.9,1.9,1.9,2.5,3.2c0.6,1.2,1,2.6,1.1,4c0.3,2.9-0.3,5.3-1.8,7.2s-3.9,3.4-7.1,4.4
		c1.5,0.6,2.9,1.6,4.4,2.9c1.4,1.3,2.7,2.8,3.9,4.3c1.2,1.6,2.1,3,2.8,4.2c0.7,1.3,1.1,2.2,1.1,2.7s-0.1,1-0.3,1.6
		c-0.3,0.5-0.7,1-1.2,1.3s-1.2,0.6-1.9,0.6c-0.9,0.1-1.7-0.1-2.3-0.4c-0.6-0.4-1.2-0.8-1.7-1.4c-0.5-0.6-1.2-1.5-2-2.7l-3.7-5
		c-1.3-1.8-2.5-3.2-3.5-4.1c-1-0.9-2-1.5-2.9-1.8C276.7,531.1,275.5,531,274.1,531.1z M277,514.2l-7.3,0.7l1,10.8l7.1-0.7
		c1.9-0.2,3.5-0.5,4.8-1s2.2-1.1,2.8-2s0.8-2,0.7-3.4c-0.1-1.1-0.5-2-1.1-2.8s-1.5-1.3-2.5-1.6C281.6,514,279.8,514,277,514.2z
		 M321.7,531.2l-14.3,1.3c0.2,1.7,0.6,3.1,1.4,4.3s1.7,2.1,2.9,2.6c1.1,0.5,2.4,0.8,3.7,0.6c0.9-0.1,1.7-0.3,2.4-0.5
		c0.7-0.3,1.4-0.7,2-1.2s1.2-1,1.7-1.6s1.2-1.3,2-2.2c0.3-0.4,0.9-0.6,1.6-0.6c0.7-0.1,1.4,0.1,1.9,0.5s0.8,0.9,0.9,1.7
		c0.1,0.7-0.1,1.5-0.6,2.4c-0.4,0.9-1.1,1.8-2.1,2.8c-1,0.9-2.2,1.7-3.8,2.4c-1.5,0.7-3.3,1.1-5.4,1.3c-4.7,0.4-8.5-0.6-11.3-3
		s-4.5-6-4.9-10.5c-0.2-2.2,0-4.2,0.4-6.1c0.5-1.9,1.3-3.6,2.4-5s2.5-2.6,4.3-3.4c1.7-0.9,3.7-1.4,5.9-1.6c2.9-0.3,5.4,0.1,7.5,1.2
		c2.1,1,3.8,2.4,5,4.3c1.2,1.8,1.9,3.7,2,5.7c0.2,1.8-0.3,3.1-1.3,3.7C325.1,530.6,323.6,531,321.7,531.2L321.7,531.2z M307.1,528.3
		l13.2-1.2c-0.4-2.5-1.2-4.3-2.5-5.4c-1.3-1.1-2.9-1.6-4.8-1.4c-1.8,0.2-3.3,0.9-4.3,2.3C307.6,523.9,307.1,525.8,307.1,528.3
		L307.1,528.3z M334.6,538.7l-2.7-31.7c-0.1-1.5,0.1-2.6,0.7-3.4s1.4-1.3,2.5-1.3c1.1-0.1,2,0.2,2.8,0.9c0.7,0.7,1.2,1.8,1.3,3.2
		l2.7,31.7c0.1,1.5-0.1,2.6-0.7,3.4s-1.5,1.2-2.6,1.3s-2-0.2-2.7-0.9S334.8,540.2,334.6,538.7L334.6,538.7z M369.2,527.1l-14.3,1.2
		c0.2,1.7,0.6,3.1,1.4,4.3s1.7,2.1,2.8,2.6c1.1,0.6,2.4,0.8,3.7,0.7c0.9-0.1,1.7-0.2,2.4-0.5s1.4-0.6,2-1.1s1.2-1,1.8-1.6
		s1.2-1.3,2.1-2.2c0.3-0.4,0.9-0.6,1.6-0.6c0.7-0.1,1.4,0.1,1.9,0.5s0.8,0.9,0.8,1.7c0.1,0.7-0.1,1.5-0.6,2.4
		c-0.4,0.9-1.2,1.8-2.1,2.7c-1,0.9-2.2,1.7-3.8,2.3c-1.5,0.7-3.3,1.1-5.4,1.3c-4.7,0.4-8.5-0.6-11.3-3.1s-4.4-6-4.8-10.6
		c-0.2-2.2,0-4.2,0.5-6.1c0.5-1.9,1.3-3.6,2.4-5s2.6-2.6,4.3-3.4c1.7-0.9,3.7-1.4,5.9-1.6c2.9-0.2,5.4,0.2,7.5,1.2
		c2.1,1,3.8,2.5,5,4.3s1.8,3.7,2,5.7c0.2,1.8-0.3,3.1-1.3,3.7C372.5,526.6,371.1,527,369.2,527.1L369.2,527.1z M354.5,524.2
		l13.2-1.1c-0.4-2.5-1.2-4.3-2.5-5.4c-1.3-1.1-2.9-1.6-4.8-1.5c-1.8,0.2-3.3,0.9-4.3,2.3C355.1,519.8,354.6,521.7,354.5,524.2
		L354.5,524.2z M400.4,533.9c-1.7,1.5-3.3,2.6-4.9,3.4c-1.6,0.8-3.4,1.3-5.5,1.4c-1.9,0.1-3.5-0.2-5-0.8c-1.5-0.7-2.6-1.6-3.5-2.8
		c-0.8-1.2-1.3-2.6-1.4-4.1c-0.1-2,0.4-3.7,1.6-5.2s2.9-2.5,5-3.2c0.5-0.1,1.6-0.4,3.4-0.9s3.4-0.9,4.7-1.3c1.3-0.4,2.7-0.9,4.2-1.4
		c-0.2-1.9-0.7-3.3-1.4-4.2s-2.2-1.2-4.4-1.1c-1.9,0.1-3.2,0.5-4.1,1c-0.9,0.6-1.7,1.4-2.3,2.5s-1,1.8-1.3,2.1s-0.8,0.6-1.8,0.6
		c-0.8,0.1-1.5-0.2-2.2-0.7c-0.6-0.5-1-1.1-1-2c-0.1-1.3,0.3-2.6,1.1-3.8c0.8-1.3,2.2-2.4,4.1-3.3s4.3-1.5,7.1-1.6
		c3.2-0.2,5.8,0,7.7,0.7c1.9,0.6,3.3,1.8,4.1,3.4c0.9,1.6,1.4,3.8,1.5,6.5c0.1,1.7,0.2,3.2,0.3,4.4s0.1,2.5,0.2,4
		c0.1,1.4,0.4,2.8,1,4.3s0.8,2.4,0.9,2.8c0,0.8-0.3,1.5-0.9,2.1c-0.7,0.7-1.4,1-2.3,1.1c-0.8,0-1.5-0.3-2.3-0.9
		C402.2,536.1,401.3,535.2,400.4,533.9L400.4,533.9z M399.3,523.3c-1,0.5-2.6,1-4.6,1.5c-2,0.6-3.4,1-4.2,1.2
		c-0.8,0.3-1.5,0.7-2.2,1.3s-1,1.5-0.9,2.6s0.5,2,1.4,2.7s2,1,3.4,1c1.4-0.1,2.8-0.5,3.9-1.2s2-1.6,2.5-2.6c0.6-1.1,0.8-3,0.7-5.5
		L399.3,523.3L399.3,523.3z M437.8,527.1c0.1,2-0.4,3.8-1.3,5.2c-0.9,1.5-2.4,2.6-4.3,3.4s-4.2,1.2-7,1.3c-2.6,0.1-4.9-0.3-6.8-1
		c-1.9-0.8-3.3-1.7-4.2-2.9s-1.4-2.4-1.4-3.6c0-0.8,0.2-1.5,0.8-2.1s1.3-0.9,2.2-0.9c0.8,0,1.4,0.2,1.8,0.5c0.4,0.4,0.8,0.9,1.2,1.6
		c0.8,1.3,1.7,2.2,2.8,2.9c1.1,0.6,2.5,0.9,4.3,0.9c1.5,0,2.7-0.4,3.6-1.1c0.9-0.7,1.4-1.4,1.4-2.3c0-1.3-0.5-2.2-1.5-2.8
		s-2.6-1.1-4.9-1.6c-2.5-0.6-4.6-1.2-6.2-1.8s-2.9-1.5-3.9-2.6s-1.5-2.5-1.5-4.1c0-1.5,0.4-2.9,1.2-4.2s2.1-2.4,3.8-3.2
		s3.7-1.3,6.2-1.3c1.9-0.1,3.6,0.1,5.1,0.5s2.8,0.8,3.8,1.5c1,0.6,1.8,1.3,2.4,2.1c0.5,0.8,0.8,1.6,0.9,2.3c0,0.8-0.2,1.5-0.8,2.1
		c-0.5,0.6-1.3,0.8-2.4,0.9c-0.8,0-1.4-0.2-1.9-0.6c-0.5-0.4-1.2-1-1.9-1.9c-0.6-0.7-1.2-1.3-2-1.7s-1.8-0.6-3.1-0.6
		s-2.4,0.3-3.3,0.9s-1.3,1.3-1.3,2.1s0.4,1.4,1,1.9c0.7,0.5,1.5,0.9,2.6,1.2s2.6,0.6,4.5,1.1c2.3,0.5,4.2,1.1,5.6,1.8
		c1.5,0.7,2.6,1.6,3.3,2.6C437.4,524.5,437.8,525.7,437.8,527.1L437.8,527.1z M464.5,523.9l-14.3-0.3c0,1.7,0.3,3.1,0.9,4.4
		s1.5,2.3,2.5,2.9c1.1,0.7,2.3,1,3.6,1c0.9,0,1.7-0.1,2.4-0.3s1.4-0.5,2.1-0.9s1.3-0.9,1.9-1.4s1.3-1.2,2.3-2
		c0.4-0.3,0.9-0.5,1.6-0.4c0.8,0,1.4,0.2,1.8,0.7c0.5,0.4,0.7,1,0.7,1.8c0,0.7-0.3,1.4-0.8,2.3c-0.5,0.9-1.3,1.7-2.4,2.5
		s-2.4,1.4-4,1.9s-3.4,0.7-5.5,0.7c-4.7-0.1-8.3-1.5-10.9-4.3c-2.6-2.7-3.8-6.4-3.7-11c0-2.2,0.4-4.2,1.1-6s1.7-3.4,2.9-4.7
		c1.3-1.3,2.8-2.3,4.6-2.9c1.8-0.7,3.8-1,6-0.9c2.9,0.1,5.3,0.7,7.3,2s3.5,2.8,4.5,4.8c1,1.9,1.4,3.9,1.4,5.9c0,1.8-0.6,3-1.7,3.5
		C467.9,523.7,466.4,524,464.5,523.9L464.5,523.9z M450.3,519.5l13.3,0.3c-0.1-2.5-0.8-4.4-1.9-5.7s-2.7-1.9-4.6-2
		c-1.8,0-3.3,0.6-4.5,1.8C451.3,515.1,450.6,517,450.3,519.5L450.3,519.5z"/>
</g>
<g id="Layer_2">
	<path class="st6" d="M694.6,261.4c0-0.6-0.2-1.1-0.5-1.6c-0.4-0.5-1-0.9-1.9-1.2s-2.1-0.5-3.6-0.7s-3.4-0.3-5.6-0.3
		c-2.3,0-4.2,0.1-5.7,0.3s-2.8,0.4-3.7,0.7s-1.5,0.7-1.9,1.2s-0.5,1-0.5,1.6v70.3c0,4.1-0.6,7.7-1.7,11c-1.1,3.2-2.7,5.9-4.7,8.1
		s-4.5,3.9-7.5,5s-6.3,1.7-10,1.7s-7-0.6-10-1.7s-5.5-2.8-7.7-5c-2.1-2.2-3.8-5-4.9-8.4c-1.1-3.4-1.7-7.4-1.7-12.1v-69
		c0-0.6-0.2-1.1-0.6-1.6c-0.4-0.5-1-0.9-1.9-1.2s-2.1-0.5-3.6-0.7s-3.4-0.3-5.7-0.3s-4.3,0.1-5.8,0.3s-2.7,0.4-3.7,0.7
		c-0.9,0.3-1.6,0.7-1.9,1.2c-0.4,0.5-0.5,1-0.5,1.6v71c0,7.5,1.1,14,3.2,19.5c2.1,5.6,5.2,10.2,9.3,13.9c4,3.7,9,6.5,14.8,8.3
		s12.4,2.8,19.8,2.8c7.8,0,14.7-1,20.8-3.1c6-2,11.1-5,15.2-8.9c4.1-3.9,7.2-8.7,9.3-14.4s3.2-12.1,3.2-19.2v-69.8L694.6,261.4
		L694.6,261.4z M772.9,314.7l26-47.7c1-2.2,1.7-3.9,2-5.1c0.3-1.3,0.2-2.2-0.5-2.9s-1.9-1.1-3.6-1.2c-1.7-0.1-4.1-0.2-7.1-0.2
		c-2.7,0-4.8,0.1-6.4,0.2c-1.5,0.1-2.7,0.3-3.6,0.6s-1.5,0.6-1.9,1.1s-0.8,1.1-1.1,1.8l-20,38.6l-20.5-38.6
		c-0.4-0.7-0.7-1.3-1.1-1.8s-1.1-0.9-2-1.1c-1-0.3-2.3-0.5-3.9-0.6c-1.7-0.1-3.9-0.2-6.7-0.2c-3.4,0-6.1,0.1-7.9,0.2
		c-1.9,0.2-3.1,0.5-3.8,1.2c-0.7,0.6-0.8,1.6-0.5,2.9c0.4,1.3,1.1,3,2.2,5.2l26,47.9l-28,51c-1.1,2.1-1.9,3.8-2.3,5.1
		c-0.4,1.3-0.2,2.2,0.4,2.9c0.6,0.7,1.8,1.1,3.5,1.3s4.1,0.3,7.3,0.3c2.7,0,4.9-0.1,6.5-0.2c1.7-0.1,2.9-0.3,3.9-0.6
		c0.9-0.3,1.6-0.6,2-1.1s0.8-1.1,1.2-1.8l21.9-42.2l21.9,42.2c0.3,0.7,0.7,1.3,1.1,1.8s1.1,0.9,2,1.1c0.9,0.3,2.2,0.5,3.8,0.6
		s3.9,0.2,6.7,0.2c3.4,0,6-0.1,7.9-0.3s3.2-0.6,3.9-1.3c0.7-0.7,0.9-1.6,0.6-2.9c-0.3-1.3-1-2.9-2.1-5.1L772.9,314.7L772.9,314.7z"
		/>
	<path id="_xA9_" class="st7" d="M684.9,916.2c-5-4.8-11.1-8.4-18.3-10.8c-7.3-2.4-16.1-3.7-26.5-3.7h-30c-2,0-3.7,0.6-5,1.8
		c-1.4,1.2-2,3.1-2,5.7V1011c0,2.6,0.7,4.6,2,5.7c1.4,1.2,3,1.8,5,1.8H638c10.4,0,19.3-1.1,26.8-3.4s13.9-5.8,19.1-10.6
		c5.2-4.8,9.3-11,12.1-18.6s4.2-16.8,4.2-27.5c0-9.3-1.3-17.4-3.9-24.5C693.7,926.9,689.9,921,684.9,916.2L684.9,916.2z
		 M673.4,976.9c-1.5,5.1-3.7,9.3-6.7,12.7s-6.7,5.9-11.2,7.6s-9.9,2.5-16.4,2.5h-12.4v-79.4h12c7.3,0,13.2,1,17.7,2.9
		c4.5,2,8.2,4.7,11,8.2c2.9,3.5,4.9,7.6,6.2,12.4s1.9,9.9,1.9,15.4C675.6,966,674.9,971.9,673.4,976.9L673.4,976.9z M798.8,1014.7
		c-0.3-1.3-1-2.9-2.1-5.1L769,958.3l26-47.7c1-2.2,1.7-3.9,2-5.1c0.3-1.3,0.2-2.2-0.5-2.9s-1.9-1.1-3.6-1.2s-4.1-0.2-7.1-0.2
		c-2.7,0-4.8,0.1-6.4,0.2c-1.5,0.1-2.7,0.3-3.6,0.6c-0.9,0.3-1.5,0.6-1.9,1.1s-0.8,1.1-1.1,1.8l-20,38.6l-20.5-38.6
		c-0.4-0.7-0.7-1.3-1.1-1.8s-1.1-0.9-2-1.1c-1-0.3-2.3-0.5-3.9-0.6c-1.7-0.1-3.9-0.2-6.7-0.2c-3.4,0-6.1,0.1-7.9,0.2
		c-1.9,0.2-3.1,0.5-3.8,1.2c-0.7,0.6-0.8,1.6-0.5,2.9c0.4,1.3,1.1,3,2.2,5.2l26,47.9l-28,51c-1.1,2.1-1.9,3.8-2.3,5.1
		c-0.4,1.3-0.2,2.2,0.4,2.9c0.6,0.7,1.8,1.1,3.5,1.3s4.1,0.3,7.3,0.3c2.7,0,4.9-0.1,6.5-0.2c1.7-0.1,2.9-0.3,3.9-0.6
		c0.9-0.3,1.6-0.6,2-1.1s0.8-1.1,1.2-1.8l21.9-42.2l21.9,42.2c0.3,0.7,0.7,1.3,1.1,1.8s1.1,0.9,2,1.1c0.9,0.3,2.2,0.5,3.8,0.6
		s3.9,0.2,6.7,0.2c3.4,0,6-0.1,7.9-0.3s3.2-0.6,3.9-1.3C798.9,1016.9,799.1,1015.9,798.8,1014.7L798.8,1014.7z"/>
</g>
</svg>
