<svg xmlns="http://www.w3.org/2000/svg" xmlns:xlink="http://www.w3.org/1999/xlink" viewBox="0 0 4780 1800"><style>.st0{fill:#edf7f9}.st1,.st2{clip-path:url(#SVGID_2_);fill:#e1f0f3}.st2{fill:#c3d7d6}.st3{fill:#fff}.st3,.st4{clip-path:url(#SVGID_2_)}.st5{fill:#fff}.st10{fill:#00d1de}.st12{fill:#905f36}.st13{fill:#ea9926}.st15{fill:#eabf9b}.st16{fill:#396c94}.st17{fill:#3a3a3a}.st18{fill:#2a4c63}.st20{fill:#dbb89c}.st22{fill:#c46070}.st23{fill:#a54255}.st24{fill:#edd2b6}.st27{fill:#5b412f}.st29{fill:#f6efe4}.st30{fill:#4a4342}.st31{fill:#4e2c16}.st32{fill:#cbc6b0}.st33{fill:#1e9fb3}.st39{fill:#dac1c4}.st40{fill:#b73a4a}.st41{opacity:.16}</style><g id="Layer_1_1_"><path class="st0" d="M0-6h4780v1800H0z"/><path class="st0" d="M0-6h4780v1803H0z"/></g><g id="Layer_2_1_"><defs><path id="SVGID_1_" d="M0 0h4780v1793H0z"/></defs><clipPath id="SVGID_2_"><use xlink:href="#SVGID_1_" overflow="visible"/></clipPath><path class="st1" d="M3267 673.56v172.18H1467V658.87h2.38v95.51h5.73v-94.67h8.81l11.75-20.2h8.13l.09-9.5 17.73.06v9.44h6.4l11.93 20.58 9.23.09v99.46h4.41v-9.92h4.41V562.36h12.35v-8.45l17.64-14.69v-12.49h13.05v-16.55l8.07.03-.03-27.07h5.82l-.03 27.1 8.01.03-.12 16.47h12.86v12.12l21.16 17.63v6.24h10.14v53.63h29.1v32.33h11.47v44.08h25.14v-96.61h8.1v-39.31h12.08v-130.8l10.26.12v-4.01h15.18l.12-23.29 4.61.1-.06 23.19h54.63v4.86l10.5.12v114.64l8.38 6.98h22.14v-68.33l30.87-25.71h51.15v19.84h12.35v74.57h14.99v-31.59h34.39v38.94h8.82V421.66h5.76v-5.43h21.54v-13.21h21.05v13.21h21.54v5.43h6.4v155.76h16.32V315.13h8.04l-.01-44.22 9.67-.19.23 44.41h56.78l.09-91.24 9.69.17.1 91.07h8.42v338.71h13.23V440.09h6.31v-7.76h8.65v7.76h8.65v-2.27h6.73v2.27h7.69v-2.27h9.61v2.27h10.57v-5.7h7.2v5.7h3.37v-2.27h6.72v2.27h9.01l.38 197.44v16.16l2.03-.03 11.45-.16V419.83h30.41v-13.04l13.85-.05v13.09h10.26v-2.06h10.26v2.06h10.26v-2.06h5.13v2.06h6.28v220.04l10.21.07 18.97 25.98 2.57 3.52V468.32h5.51v-8.41h5.39v4.1h3.59v4.31h30.51v-2.67h8.98v2.67h7.18v-19.34l3.59-.04v19.39h26.92v-3.9h4.19v3.9h2.91v207.65h40.6V372.12l46.11-8.81 1.4-35.27c-4.62-1.85-7.77-5.34-7.77-9.39 0-4.35 3.61-8.07 8.8-9.79l3.8-70.6 4-71.86 1.88 71.87 3.28 70.7c5.02 1.76 8.51 5.41 8.51 9.68 0 4.01-3.1 7.47-7.64 9.34l1.92 35.61 42.22 7.79v297.5h31.32V491.51h28.43l.13-19.14 9.62.03.1-14.05 17.29-.07v14.17l6.85.02v19.05l55.72.01-.02 11.53h15.77v47.92h5.17l28.44 21.18v68.46h21.03v-5.55h25.7l.12 5.55h28.77v-18.47h12.79v-14.22h16.32v14.22h5.28v55.47h14.55v24.35h14.11l.13-48.69h15.44v-13.23h30.42v20.94h9.13l-.13 42.61 26.52.1v-7.34h3.08v-7.23h12.76l-.06-8.8 23.55.02-.03 8.77h13.68v7.23h19.67v8.45h22.22v-18.74h17.19v13.6h14.11v-26.08H3267z"/><path class="st2" d="M3256.56 768.6v-10.28h-15.12v14.14h-13.68v-6.43h-23.04v-12.34H3177v12.34h-2.52v5.66h-26.28v-3.09h-10.44v-4.63h-10.44v-15.68h-26.64v9.77h-13.32v15.68h-12.6v-21.6h-12.6v-40.89l-35.04.01h-7.7l-13.49-15.17h-25.04l-9.61 17.32-8.84 5.5v67.18h-7.92v-147.6h-10.8v-6.42l-15.12-10.99v-9.34h-41.76v9.06l-18.36 13.19v4.75h-9v40.12h-25.56v24.17h-9.72v32.91h-21.96v-72.25h-7.2v-29.32h-10.44v-97.95l-6.9.06-10.73-13.51-43.21.06-6.38.01-9.89 14.14-6.41.06v100.17l-7.18 5.19h-19.46v-65.5l-26.87-19.36h-44.77v14.92h-11.16v103.11h-10.74l.15-71.31-10.65-.02v-2.64l-18-.05v3.05h-3.6v43.72h-7.56V533.06h-16.56v-2.32h-14.31l.09-13.3-22.14-.07v13.37h-11.88v2.32h-16.92v166.11h-10.41l-.39-245.83h-12.6v-5.91h-37.8v6.01l-35.28.05v-5.55h-39.96v5.4h-12.6v280.49l-10.03.05-.34-229.88h-20.95v-3.59h-25.2v3.33h-19.44v-3.08h-19.8v3.08h-8.64v184.63h-9.74l-17.98 12.83V568.03h-19.08v-7.71h-47.88v7.71h-19.44v138.09h-35.64V496.07l-33.36.13-.12-104.06h-25.56l-.12 103.2-33.72.18v187.2h-48.6v-21.6h-19.08v-31.38h-9v-3.34h-6.12v3.34h-23.04v-2.82h-29.16v2.82h-13.96l-24.92 17.86v49.26h-65.88v-13.63h-11.16v-10.8h-14.4v10.8h-4.68v41.4h-12.6v18.26h-12.24v-12.35h-13.68v-9.77h-26.64v15.69h-10.44v4.63h-10.44v3.08h-25.92v-5.65h-2.88v-12.09h-27.72v12.09h-23.04v6.42h-13.68V730.8h-14.76v10.29h-12.6v-19.51l-19.78-.05.16 86.67h-.18v504.84h1800V768.6z"/><path class="st3" d="M1467 1036.14h1800V1794H1467z"/><g class="st4"><path class="st5" d="M1484.11 856.21h15.48v15.48h-15.48zM1648.36 845.41h6.48v6.48h-6.48zM1668.88 845.41h6.48v6.48h-6.48zM1638.1 855.37h6.48v6.48h-6.48zM1658.62 855.37h6.48v6.48h-6.48zM1668.88 855.37h6.48v6.48h-6.48zM1638.1 865.33h6.48v6.48h-6.48zM1648.36 865.33h6.48v6.48h-6.48zM1638.1 875.29h6.48v6.48h-6.48zM1668.88 875.29h6.48v6.48h-6.48zM1658.62 885.25h6.48v6.48h-6.48zM1668.88 885.25h6.48v6.48h-6.48zM1638.1 895.21h6.48v6.48h-6.48zM1648.36 895.21h6.48v6.48h-6.48zM1658.62 895.21h6.48v6.48h-6.48zM1648.36 905.17h6.48v6.48h-6.48zM1668.88 905.17h6.48v6.48h-6.48zM1638.1 915.13h6.48v6.48h-6.48zM1648.36 915.13h6.48v6.48h-6.48zM1658.62 915.13h6.48v6.48h-6.48zM1638.1 925.09h6.48v6.48h-6.48zM1648.36 935.05h6.48v6.48h-6.48zM1658.62 935.05h6.48v6.48h-6.48zM3110.95 903.67h6.48v6.48h-6.48zM3131.47 903.67h6.48v6.48h-6.48zM3100.69 913.63h6.48v6.48h-6.48zM3121.21 913.63h6.48v6.48h-6.48zM3131.47 913.63h6.48v6.48h-6.48zM3100.69 923.59h6.48v6.48h-6.48zM3110.95 923.59h6.48v6.48h-6.48zM3100.69 933.55h6.48v6.48h-6.48zM3131.47 933.55h6.48v6.48h-6.48zM3121.21 943.51h6.48v6.48h-6.48zM3131.47 943.51h6.48v6.48h-6.48zM3100.69 953.47h6.48v6.48h-6.48zM3110.95 953.47h6.48v6.48h-6.48zM3121.21 953.47h6.48v6.48h-6.48zM3110.95 963.43h6.48v6.48h-6.48zM3131.47 963.43h6.48v6.48h-6.48zM3100.69 973.39h6.48v6.48h-6.48zM3110.95 973.39h6.48v6.48h-6.48zM3121.21 973.39h6.48v6.48h-6.48zM3098.71 895.51h6.48v6.48h-6.48zM3110.95 884.41h6.48v6.48h-6.48zM3121.21 884.41h6.48v6.48h-6.48z"/><path transform="rotate(-180 2150.384 646.68)" class="st5" d="M2144.48 640.78h11.8v11.8h-11.8z"/><path transform="rotate(-180 2113.012 646.68)" class="st5" d="M2107.11 640.78h11.8v11.8h-11.8z"/><path transform="rotate(-180 2169.07 664.82)" class="st5" d="M2163.17 658.92h11.8v11.8h-11.8z"/><path transform="rotate(-180 2131.698 664.82)" class="st5" d="M2125.8 658.92h11.8v11.8h-11.8z"/><path transform="rotate(-180 2113.012 664.82)" class="st5" d="M2107.11 658.92h11.8v11.8h-11.8z"/><path transform="rotate(-180 2169.07 682.96)" class="st5" d="M2163.17 677.06h11.8v11.8h-11.8z"/><path transform="rotate(-180 2150.384 682.96)" class="st5" d="M2144.48 677.06h11.8v11.8h-11.8z"/><path transform="rotate(-180 2169.07 701.099)" class="st5" d="M2163.17 695.2h11.8V707h-11.8z"/><path transform="rotate(-180 2113.012 701.099)" class="st5" d="M2107.11 695.2h11.8V707h-11.8z"/><path transform="rotate(-180 2131.698 719.239)" class="st5" d="M2125.8 713.34h11.8v11.8h-11.8z"/><path transform="rotate(-180 2113.012 719.239)" class="st5" d="M2107.11 713.34h11.8v11.8h-11.8z"/><path transform="rotate(-180 2169.07 737.378)" class="st5" d="M2163.17 731.48h11.8v11.8h-11.8z"/><path transform="rotate(-180 2150.384 737.378)" class="st5" d="M2144.48 731.48h11.8v11.8h-11.8z"/><path transform="rotate(-180 2131.698 737.378)" class="st5" d="M2125.8 731.48h11.8v11.8h-11.8z"/><path transform="rotate(-180 2150.384 755.518)" class="st5" d="M2144.48 749.62h11.8v11.8h-11.8z"/><path transform="rotate(-180 2113.012 755.518)" class="st5" d="M2107.11 749.62h11.8v11.8h-11.8z"/><path transform="rotate(-180 2169.07 773.658)" class="st5" d="M2163.17 767.76h11.8v11.8h-11.8z"/><path transform="rotate(-180 2150.384 773.658)" class="st5" d="M2144.48 767.76h11.8v11.8h-11.8z"/><path transform="rotate(-180 2131.698 773.658)" class="st5" d="M2125.8 767.76h11.8v11.8h-11.8z"/><path transform="rotate(-180 2169.07 791.798)" class="st5" d="M2163.17 785.9h11.8v11.8h-11.8z"/><path transform="rotate(-180 2150.384 809.937)" class="st5" d="M2144.48 804.04h11.8v11.8h-11.8z"/><path transform="rotate(-180 2131.698 809.937)" class="st5" d="M2125.8 804.04h11.8v11.8h-11.8z"/><path transform="rotate(-180 3047.049 841.013)" class="st5" d="M3041.15 835.11h11.8v11.8h-11.8z"/><path transform="rotate(-180 3028.363 841.013)" class="st5" d="M3022.46 835.11h11.8v11.8h-11.8z"/><path transform="rotate(-180 3009.677 841.013)" class="st5" d="M3003.78 835.11h11.8v11.8h-11.8z"/><path transform="rotate(-180 3047.049 859.153)" class="st5" d="M3041.15 853.25h11.8v11.8h-11.8z"/><path class="st5" d="M3231.8 909.81h11.8v11.8h-11.8zM3250.49 909.81h11.8v11.8h-11.8zM3213.12 927.95h11.8v11.8h-11.8z"/><path transform="rotate(-180 3028.363 877.292)" class="st5" d="M3022.46 871.39h11.8v11.8h-11.8z"/><path transform="rotate(-180 3009.677 877.292)" class="st5" d="M3003.78 871.39h11.8v11.8h-11.8z"/><path class="st5" d="M1511.29 856.21h15.48v15.48h-15.48zM1538.47 856.21h15.48v15.48h-15.48zM1565.65 856.21h15.48v15.48h-15.48zM1806.04 725.89h15.48v15.48h-15.48zM1833.22 725.89h15.48v15.48h-15.48zM1860.4 725.89h15.48v15.48h-15.48zM1806.04 767.17h15.48v15.48h-15.48zM1833.22 767.17h15.48v15.48h-15.48zM1860.4 767.17h15.48v15.48h-15.48zM1806.04 808.45h15.48v15.48h-15.48zM1833.22 808.45h15.48v15.48h-15.48zM1860.4 808.45h15.48v15.48h-15.48zM1806.04 849.73h15.48v15.48h-15.48zM1833.22 849.73h15.48v15.48h-15.48zM1860.4 849.73h15.48v15.48h-15.48zM1806.04 891.01h15.48v15.48h-15.48zM1833.22 891.01h15.48v15.48h-15.48zM1860.4 891.01h15.48v15.48h-15.48zM1806.04 932.29h15.48v15.48h-15.48zM1833.22 932.29h15.48v15.48h-15.48zM1860.4 932.29h15.48v15.48h-15.48zM2712.29 593.33h15.48v15.48h-15.48zM2739.47 593.33h15.48v15.48h-15.48zM2766.65 593.33h15.48v15.48h-15.48zM2739.47 634.61h15.48v15.48h-15.48zM2766.65 634.61h15.48v15.48h-15.48zM2712.29 675.89h15.48v15.48h-15.48zM2739.47 675.89h15.48v15.48h-15.48zM2721.65 717.17h15.48v15.48h-15.48zM2766.65 717.17h15.48v15.48h-15.48zM2717.69 758.45h15.48v15.48h-15.48zM2747.21 758.45h15.48v15.48h-15.48zM2561.36 692.55h15.48v15.48h-15.48zM2561.36 740.83h15.48v15.48h-15.48zM2561.36 789.11h15.48v15.48h-15.48zM2561.36 837.39h15.48v15.48h-15.48zM2561.36 885.67h15.48v15.48h-15.48zM2727.77 799.73h15.48v15.48h-15.48zM2766.65 799.73h15.48v15.48h-15.48zM2337.22 480.93h15.48v15.48h-15.48zM2364.4 480.93h15.48v15.48h-15.48zM2391.58 480.93h15.48v15.48h-15.48zM2337.22 522.21h15.48v15.48h-15.48zM2391.58 522.21h15.48v15.48h-15.48zM2337.22 563.49h15.48v15.48h-15.48zM2364.4 563.49h15.48v15.48h-15.48zM2391.58 563.49h15.48v15.48h-15.48zM2337.22 604.77h15.48v15.48h-15.48zM2364.4 604.77h15.48v15.48h-15.48zM2391.58 604.77h15.48v15.48h-15.48zM2337.22 646.05h15.48v15.48h-15.48zM2364.4 646.05h15.48v15.48h-15.48zM2337.22 687.33h15.48v15.48h-15.48zM2391.58 687.33h15.48v15.48h-15.48zM2418.76 522.21h15.48v15.48h-15.48zM2418.76 563.49h15.48v15.48h-15.48zM2418.76 604.77h15.48v15.48h-15.48zM2418.76 646.05h15.48v15.48h-15.48zM2418.76 687.33h15.48v15.48h-15.48zM1978.81 535.35h24.96v24.96h-24.96zM2025.61 578.31h24.96v24.96h-24.96zM2472.93 608.13h12.12v12.12h-12.12zM2488.53 608.13h12.12v12.12h-12.12zM2504.13 608.13h12.12v12.12h-12.12zM2519.73 608.13h12.12v12.12h-12.12zM2472.93 623.49h12.12v12.12h-12.12zM2488.53 623.49h12.12v12.12h-12.12zM2504.13 623.49h12.12v12.12h-12.12zM2519.73 623.49h12.12v12.12h-12.12zM2472.93 638.85h12.12v12.12h-12.12zM2488.53 638.85h12.12v12.12h-12.12zM2504.13 638.85h12.12v12.12h-12.12zM2519.73 638.85h12.12v12.12h-12.12zM2472.93 654.21h12.12v12.12h-12.12zM2488.53 654.21h12.12v12.12h-12.12zM2504.13 654.21h12.12v12.12h-12.12zM2519.73 654.21h12.12v12.12h-12.12zM2472.93 669.57h12.12v12.12h-12.12zM2488.53 669.57h12.12v12.12h-12.12zM2504.13 669.57h12.12v12.12h-12.12zM2519.73 669.57h12.12v12.12h-12.12zM2472.93 684.93h12.12v12.12h-12.12zM2488.53 684.93h12.12v12.12h-12.12zM2504.13 684.93h12.12v12.12h-12.12zM2519.73 684.93h12.12v12.12h-12.12zM2472.93 700.29h12.12v12.12h-12.12zM2488.53 700.29h12.12v12.12h-12.12zM2504.13 700.29h12.12v12.12h-12.12zM2519.73 700.29h12.12v12.12h-12.12zM2472.93 715.65h12.12v12.12h-12.12zM2488.53 715.65h12.12v12.12h-12.12zM2504.13 715.65h12.12v12.12h-12.12zM2519.73 715.65h12.12v12.12h-12.12zM2472.93 731.01h12.12v12.12h-12.12zM2488.53 731.01h12.12v12.12h-12.12zM2504.13 731.01h12.12v12.12h-12.12zM2519.73 731.01h12.12v12.12h-12.12zM2472.93 746.37h12.12v12.12h-12.12zM2488.53 746.37h12.12v12.12h-12.12zM2504.13 746.37h12.12v12.12h-12.12zM2519.73 746.37h12.12v12.12h-12.12zM2222.16 550.39h72.61v7.04h-72.61zM2222.16 601.87h72.61v7.04h-72.61zM2222.16 653.35h72.61v7.04h-72.61zM2222.16 704.83h72.61v7.04h-72.61zM2222.16 756.31h72.61v7.04h-72.61zM2222.16 567.79h31.69v7.04h-31.69zM2222.16 584.83h31.69v7.04h-31.69zM2874.88 732.65h19.77v5.8h-19.77zM2875.16 775.08h71.72v5.8h-71.72zM2849.53 790.4h97.35v5.8h-97.35zM2849.53 805.71h97.35v5.8h-97.35zM2849.53 821.03h97.35v5.8h-97.35zM2849.53 836.35h31.88v5.8h-31.88zM2874.88 746.99h43.29v5.8h-43.29zM2874.88 761.04h13.06v5.8h-13.06zM2025.61 626.31h24.96v24.96h-24.96zM1978.81 690.03h24.96v24.96h-24.96zM1978.81 764.19h24.96v24.96h-24.96z"/><path transform="rotate(-180 2660.475 650.24)" class="st5" d="M2649.08 638.85h22.79v22.79h-22.79z"/><path transform="rotate(-180 2617.744 689.465)" class="st5" d="M2606.35 678.07h22.79v22.79h-22.79z"/><path transform="rotate(-180 2617.744 733.29)" class="st5" d="M2606.35 721.9h22.79v22.79h-22.79z"/><path transform="rotate(-180 2660.475 791.47)" class="st5" d="M2649.08 780.08h22.79v22.79h-22.79z"/><path transform="rotate(-180 2343.959 727.316)" class="st5" d="M2337.22 720.58h13.48v13.48h-13.48z"/><path transform="rotate(-180 2426.5 759.566)" class="st5" d="M2418.76 751.83h15.48v15.48h-15.48z"/><path transform="rotate(-180 2399.32 759.566)" class="st5" d="M2391.58 751.83h15.48v15.48h-15.48z"/><path transform="rotate(-180 2372.14 759.566)" class="st5" d="M2364.4 751.83h15.48v15.48h-15.48z"/><path transform="rotate(-180 2426.5 800.846)" class="st5" d="M2418.76 793.11h15.48v15.48h-15.48z"/><path transform="rotate(-180 2372.14 800.846)" class="st5" d="M2364.4 793.11h15.48v15.48h-15.48z"/><path transform="rotate(-180 2426.5 842.126)" class="st5" d="M2418.76 834.39h15.48v15.48h-15.48z"/><path transform="rotate(-180 2399.32 842.126)" class="st5" d="M2391.58 834.39h15.48v15.48h-15.48z"/><path transform="rotate(-180 2426.5 883.406)" class="st5" d="M2418.76 875.67h15.48v15.48h-15.48z"/><path transform="rotate(-180 2372.14 883.406)" class="st5" d="M2364.4 875.67h15.48v15.48h-15.48z"/><path transform="rotate(-180 2344.96 800.846)" class="st5" d="M2337.22 793.11h15.48v15.48h-15.48z"/><path transform="rotate(-180 2344.96 842.126)" class="st5" d="M2337.22 834.39h15.48v15.48h-15.48z"/><path class="st5" d="M1511.29 891.85h15.48v15.48h-15.48zM1538.47 891.85h15.48v15.48h-15.48zM1565.65 891.85h15.48v15.48h-15.48zM1484.11 927.49h15.48v15.48h-15.48zM1511.29 927.49h15.48v15.48h-15.48zM1565.65 927.49h15.48v15.48h-15.48zM1484.11 963.13h15.48v15.48h-15.48zM1538.47 963.13h15.48v15.48h-15.48zM1565.65 963.13h15.48v15.48h-15.48z"/></g><path class="st1" d="M1475 672.56v172.18H-325V657.87h2.38v95.51h5.73v-94.67h8.81l11.75-20.2h8.13l.09-9.5 17.73.06v9.44h6.4l11.93 20.58 9.23.09v99.46h4.41v-9.92h4.41V561.36h12.35v-8.45l17.64-14.69v-12.49h13.05v-16.55l8.07.03-.03-27.07h5.82l-.03 27.1 8.01.03-.12 16.47h12.86v12.12l21.16 17.63v6.24h10.14v53.63h29.1v32.33h11.47v44.08h25.14v-96.61h8.1v-39.31h12.08v-130.8l10.26.12v-4.01h15.18l.12-23.29 4.61.1-.06 23.19h54.63v4.86l10.5.12v114.64l8.38 6.98h22.14v-68.33l30.87-25.71h51.15v19.84h12.35v74.57h14.99v-31.59h34.39v38.94h8.82V420.66h5.76v-5.43h21.54v-13.21h21.05v13.21h21.54v5.43h6.4v155.76h16.32V314.13h8.04l-.01-44.22 9.67-.19.23 44.41h56.78l.09-91.24 9.69.17.1 91.07h8.42v338.71h13.23V439.09h6.31v-7.76h8.65v7.76h8.65v-2.27h6.73v2.27H476v-2.27h9.61v2.27h10.57v-5.7h7.2v5.7h3.37v-2.27h6.72v2.27h9.01l.38 197.44v16.16l2.03-.03 11.45-.16V418.83h30.41v-13.04l13.85-.05v13.09h10.26v-2.06h10.26v2.06h10.26v-2.06h5.13v2.06h6.28v220.04l10.21.07 18.97 25.98 2.57 3.52V467.32h5.51v-8.41h5.39v4.1h3.59v4.31h30.51v-2.67h8.98v2.67h7.18v-19.34l3.59-.04v19.39h26.92v-3.9h4.19v3.9h2.91v207.65h40.6V371.12l46.11-8.81 1.4-35.27c-4.62-1.85-7.77-5.34-7.77-9.39 0-4.35 3.61-8.07 8.8-9.79l3.8-70.6 4-71.86 1.88 71.87 3.28 70.7c5.02 1.76 8.51 5.41 8.51 9.68 0 4.01-3.1 7.47-7.64 9.34l1.92 35.61 42.22 7.79v297.5h31.32V490.51h28.43l.13-19.14 9.62.03.1-14.05 17.29-.07v14.17l6.85.02v19.05l55.72.01-.02 11.53h15.77v47.92h5.17l28.44 21.18v68.46h21.03v-5.55h25.7l.12 5.55h28.77v-18.47h12.79v-14.22h16.32v14.22h5.28v55.47h14.55v24.35h14.11l.13-48.69h15.44v-13.23h30.42v20.94h9.13l-.13 42.61 26.52.1v-7.34h3.09v-7.23h12.76l-.06-8.8 23.55.02-.03 8.77h13.68v7.23h19.67v8.45h22.22v-18.74h17.19v13.6h14.11v-26.08h29.4z"/><path class="st2" d="M1464.56 767.6v-10.28h-15.12v14.14h-13.68v-6.43h-23.04v-12.34H1385v12.34h-2.52v5.66h-26.28v-3.09h-10.44v-4.63h-10.44v-15.68h-26.64v9.77h-13.32v15.68h-12.6v-21.6h-12.6v-40.89l-35.04.01h-7.7l-13.49-15.17h-25.04l-9.61 17.32-8.84 5.5v67.18h-7.92v-147.6h-10.8v-6.42l-15.12-10.99v-9.34h-41.76v9.06l-18.36 13.19v4.75h-9v40.12h-25.56v24.17h-9.72v32.91h-21.96v-72.25h-7.2v-29.32H992.6v-97.95l-6.9.06-10.73-13.51-43.21.06-6.38.01-9.89 14.14-6.41.06v100.17l-7.18 5.19h-19.46v-65.5l-26.87-19.36H810.8v14.92h-11.16v103.11H788.9l.15-71.31-10.65-.02v-2.64l-18-.05v3.05h-3.6v43.72h-7.56V532.06h-16.56v-2.32h-14.31l.09-13.3-22.14-.07v13.37h-11.88v2.32h-16.92v166.11h-10.41l-.39-245.83h-12.6v-5.91h-37.8v6.01l-35.28.05v-5.55h-39.96v5.4h-12.6v280.49l-10.03.05-.34-229.88h-20.95v-3.59h-25.2v3.33h-19.44v-3.08h-19.8v3.08h-8.64v184.63h-9.74l-17.98 12.83V567.03h-19.08v-7.71H319.4v7.71h-19.44v138.09h-35.64V495.07l-33.36.13-.12-104.06h-25.56l-.12 103.2-33.72.18v187.2h-48.6v-21.6h-19.08v-31.38h-9v-3.34h-6.12v3.34H65.6v-2.82H36.44v2.82H22.48L-2.44 646.6v49.26h-65.88v-13.63h-11.16v-10.8h-14.4v10.8h-4.68v41.4h-12.6v18.26h-12.24v-12.35h-13.68v-9.77h-26.64v15.69h-10.44v4.63h-10.44v3.08h-25.92v-5.65h-2.88v-12.09h-27.72v12.09h-23.04v6.42h-13.68V729.8h-14.76v10.29h-12.6v-19.51l-19.78-.05.16 86.67h-.18v504.84h1800V767.6z"/><path class="st3" d="M-325 1035.14h1800V1793H-325z"/><g class="st4"><path class="st5" d="M-307.89 855.21h15.48v15.48h-15.48zM-143.64 844.41h6.48v6.48h-6.48zM-123.12 844.41h6.48v6.48h-6.48zM-153.9 854.37h6.48v6.48h-6.48zM-133.38 854.37h6.48v6.48h-6.48zM-123.12 854.37h6.48v6.48h-6.48zM-153.9 864.33h6.48v6.48h-6.48zM-143.64 864.33h6.48v6.48h-6.48zM-153.9 874.29h6.48v6.48h-6.48zM-123.12 874.29h6.48v6.48h-6.48zM-133.38 884.25h6.48v6.48h-6.48zM-123.12 884.25h6.48v6.48h-6.48zM-153.9 894.21h6.48v6.48h-6.48zM-143.64 894.21h6.48v6.48h-6.48zM-133.38 894.21h6.48v6.48h-6.48zM-143.64 904.17h6.48v6.48h-6.48zM-123.12 904.17h6.48v6.48h-6.48zM-153.9 914.13h6.48v6.48h-6.48zM-143.64 914.13h6.48v6.48h-6.48zM-133.38 914.13h6.48v6.48h-6.48zM-153.9 924.09h6.48v6.48h-6.48zM-143.64 934.05h6.48v6.48h-6.48zM-133.38 934.05h6.48v6.48h-6.48zM1318.95 902.67h6.48v6.48h-6.48zM1339.47 902.67h6.48v6.48h-6.48zM1308.69 912.63h6.48v6.48h-6.48zM1329.21 912.63h6.48v6.48h-6.48zM1339.47 912.63h6.48v6.48h-6.48zM1308.69 922.59h6.48v6.48h-6.48zM1318.95 922.59h6.48v6.48h-6.48zM1308.69 932.55h6.48v6.48h-6.48zM1339.47 932.55h6.48v6.48h-6.48zM1329.21 942.51h6.48v6.48h-6.48zM1339.47 942.51h6.48v6.48h-6.48zM1308.69 952.47h6.48v6.48h-6.48zM1318.95 952.47h6.48v6.48h-6.48zM1329.21 952.47h6.48v6.48h-6.48zM1318.95 962.43h6.48v6.48h-6.48zM1339.47 962.43h6.48v6.48h-6.48zM1308.69 972.39h6.48v6.48h-6.48zM1318.95 972.39h6.48v6.48h-6.48zM1329.21 972.39h6.48v6.48h-6.48zM1306.71 894.51h6.48v6.48h-6.48zM1318.95 883.41h6.48v6.48h-6.48zM1329.21 883.41h6.48v6.48h-6.48z"/><path transform="rotate(-180 358.384 645.68)" class="st5" d="M352.48 639.78h11.8v11.8h-11.8z"/><path transform="rotate(-180 321.012 645.68)" class="st5" d="M315.11 639.78h11.8v11.8h-11.8z"/><path transform="rotate(-180 377.07 663.82)" class="st5" d="M371.17 657.92h11.8v11.8h-11.8z"/><path transform="rotate(-180 339.698 663.82)" class="st5" d="M333.8 657.92h11.8v11.8h-11.8z"/><path transform="rotate(-180 321.012 663.82)" class="st5" d="M315.11 657.92h11.8v11.8h-11.8z"/><path transform="rotate(-180 377.07 681.96)" class="st5" d="M371.17 676.06h11.8v11.8h-11.8z"/><path transform="rotate(-180 358.384 681.96)" class="st5" d="M352.48 676.06h11.8v11.8h-11.8z"/><path transform="rotate(-180 377.07 700.1)" class="st5" d="M371.17 694.2h11.8V706h-11.8z"/><path transform="rotate(-180 321.012 700.1)" class="st5" d="M315.11 694.2h11.8V706h-11.8z"/><path transform="rotate(-180 339.698 718.239)" class="st5" d="M333.8 712.34h11.8v11.8h-11.8z"/><path transform="rotate(-180 321.012 718.239)" class="st5" d="M315.11 712.34h11.8v11.8h-11.8z"/><path transform="rotate(-180 377.07 736.379)" class="st5" d="M371.17 730.48h11.8v11.8h-11.8z"/><path transform="rotate(-180 358.384 736.379)" class="st5" d="M352.48 730.48h11.8v11.8h-11.8z"/><path transform="rotate(-180 339.698 736.379)" class="st5" d="M333.8 730.48h11.8v11.8h-11.8z"/><path transform="rotate(-180 358.384 754.518)" class="st5" d="M352.48 748.62h11.8v11.8h-11.8z"/><path transform="rotate(-180 321.012 754.518)" class="st5" d="M315.11 748.62h11.8v11.8h-11.8z"/><path transform="rotate(-180 377.07 772.658)" class="st5" d="M371.17 766.76h11.8v11.8h-11.8z"/><path transform="rotate(-180 358.384 772.658)" class="st5" d="M352.48 766.76h11.8v11.8h-11.8z"/><path transform="rotate(-180 339.698 772.658)" class="st5" d="M333.8 766.76h11.8v11.8h-11.8z"/><path transform="rotate(-180 377.07 790.798)" class="st5" d="M371.17 784.9h11.8v11.8h-11.8z"/><path transform="rotate(-180 358.384 808.937)" class="st5" d="M352.48 803.04h11.8v11.8h-11.8z"/><path transform="rotate(-180 339.698 808.937)" class="st5" d="M333.8 803.04h11.8v11.8h-11.8z"/><path transform="rotate(-180 1255.049 840.013)" class="st5" d="M1249.15 834.11h11.8v11.8h-11.8z"/><path transform="rotate(-180 1236.363 840.013)" class="st5" d="M1230.46 834.11h11.8v11.8h-11.8z"/><path transform="rotate(-180 1217.677 840.013)" class="st5" d="M1211.78 834.11h11.8v11.8h-11.8z"/><path transform="rotate(-180 1255.049 858.153)" class="st5" d="M1249.15 852.25h11.8v11.8h-11.8z"/><path class="st5" d="M1439.8 908.81h11.8v11.8h-11.8zM1458.49 908.81h11.8v11.8h-11.8zM1421.12 926.95h11.8v11.8h-11.8z"/><path transform="rotate(-180 1236.363 876.292)" class="st5" d="M1230.46 870.39h11.8v11.8h-11.8z"/><path transform="rotate(-180 1217.677 876.292)" class="st5" d="M1211.78 870.39h11.8v11.8h-11.8z"/><path class="st5" d="M-280.71 855.21h15.48v15.48h-15.48zM-253.53 855.21h15.48v15.48h-15.48zM-226.35 855.21h15.48v15.48h-15.48zM14.04 724.89h15.48v15.48H14.04zM41.22 724.89H56.7v15.48H41.22zM68.4 724.89h15.48v15.48H68.4zM14.04 766.17h15.48v15.48H14.04zM41.22 766.17H56.7v15.48H41.22zM68.4 766.17h15.48v15.48H68.4zM14.04 807.45h15.48v15.48H14.04zM41.22 807.45H56.7v15.48H41.22zM68.4 807.45h15.48v15.48H68.4zM14.04 848.73h15.48v15.48H14.04zM41.22 848.73H56.7v15.48H41.22zM68.4 848.73h15.48v15.48H68.4zM14.04 890.01h15.48v15.48H14.04zM41.22 890.01H56.7v15.48H41.22zM68.4 890.01h15.48v15.48H68.4zM14.04 931.29h15.48v15.48H14.04zM41.22 931.29H56.7v15.48H41.22zM68.4 931.29h15.48v15.48H68.4zM920.29 592.33h15.48v15.48h-15.48zM947.47 592.33h15.48v15.48h-15.48zM974.65 592.33h15.48v15.48h-15.48zM947.47 633.61h15.48v15.48h-15.48zM974.65 633.61h15.48v15.48h-15.48zM920.29 674.89h15.48v15.48h-15.48zM947.47 674.89h15.48v15.48h-15.48zM929.65 716.17h15.48v15.48h-15.48zM974.65 716.17h15.48v15.48h-15.48zM925.69 757.45h15.48v15.48h-15.48zM955.21 757.45h15.48v15.48h-15.48zM769.36 691.55h15.48v15.48h-15.48zM769.36 739.83h15.48v15.48h-15.48zM769.36 788.11h15.48v15.48h-15.48zM769.36 836.39h15.48v15.48h-15.48zM769.36 884.67h15.48v15.48h-15.48zM935.77 798.73h15.48v15.48h-15.48zM974.65 798.73h15.48v15.48h-15.48zM545.22 479.93h15.48v15.48h-15.48zM572.4 479.93h15.48v15.48H572.4zM599.58 479.93h15.48v15.48h-15.48zM545.22 521.21h15.48v15.48h-15.48zM599.58 521.21h15.48v15.48h-15.48zM545.22 562.49h15.48v15.48h-15.48zM572.4 562.49h15.48v15.48H572.4zM599.58 562.49h15.48v15.48h-15.48zM545.22 603.77h15.48v15.48h-15.48zM572.4 603.77h15.48v15.48H572.4zM599.58 603.77h15.48v15.48h-15.48zM545.22 645.05h15.48v15.48h-15.48zM572.4 645.05h15.48v15.48H572.4zM545.22 686.33h15.48v15.48h-15.48zM599.58 686.33h15.48v15.48h-15.48zM626.76 521.21h15.48v15.48h-15.48zM626.76 562.49h15.48v15.48h-15.48zM626.76 603.77h15.48v15.48h-15.48zM626.76 645.05h15.48v15.48h-15.48zM626.76 686.33h15.48v15.48h-15.48zM186.81 534.35h24.96v24.96h-24.96zM233.61 577.31h24.96v24.96h-24.96zM680.93 607.13h12.12v12.12h-12.12zM696.53 607.13h12.12v12.12h-12.12zM712.13 607.13h12.12v12.12h-12.12zM727.73 607.13h12.12v12.12h-12.12zM680.93 622.49h12.12v12.12h-12.12zM696.53 622.49h12.12v12.12h-12.12zM712.13 622.49h12.12v12.12h-12.12zM727.73 622.49h12.12v12.12h-12.12zM680.93 637.85h12.12v12.12h-12.12zM696.53 637.85h12.12v12.12h-12.12zM712.13 637.85h12.12v12.12h-12.12zM727.73 637.85h12.12v12.12h-12.12zM680.93 653.21h12.12v12.12h-12.12zM696.53 653.21h12.12v12.12h-12.12zM712.13 653.21h12.12v12.12h-12.12zM727.73 653.21h12.12v12.12h-12.12zM680.93 668.57h12.12v12.12h-12.12zM696.53 668.57h12.12v12.12h-12.12zM712.13 668.57h12.12v12.12h-12.12zM727.73 668.57h12.12v12.12h-12.12zM680.93 683.93h12.12v12.12h-12.12zM696.53 683.93h12.12v12.12h-12.12zM712.13 683.93h12.12v12.12h-12.12zM727.73 683.93h12.12v12.12h-12.12zM680.93 699.29h12.12v12.12h-12.12zM696.53 699.29h12.12v12.12h-12.12zM712.13 699.29h12.12v12.12h-12.12zM727.73 699.29h12.12v12.12h-12.12zM680.93 714.65h12.12v12.12h-12.12zM696.53 714.65h12.12v12.12h-12.12zM712.13 714.65h12.12v12.12h-12.12zM727.73 714.65h12.12v12.12h-12.12zM680.93 730.01h12.12v12.12h-12.12zM696.53 730.01h12.12v12.12h-12.12zM712.13 730.01h12.12v12.12h-12.12zM727.73 730.01h12.12v12.12h-12.12zM680.93 745.37h12.12v12.12h-12.12zM696.53 745.37h12.12v12.12h-12.12zM712.13 745.37h12.12v12.12h-12.12zM727.73 745.37h12.12v12.12h-12.12zM430.16 549.39h72.61v7.04h-72.61zM430.16 600.87h72.61v7.04h-72.61zM430.16 652.35h72.61v7.04h-72.61zM430.16 703.83h72.61v7.04h-72.61zM430.16 755.31h72.61v7.04h-72.61zM430.16 566.79h31.69v7.04h-31.69zM430.16 583.83h31.69v7.04h-31.69zM1082.88 731.65h19.77v5.8h-19.77zM1083.16 774.08h71.72v5.8h-71.72zM1057.53 789.4h97.35v5.8h-97.35zM1057.53 804.71h97.35v5.8h-97.35zM1057.53 820.03h97.35v5.8h-97.35zM1057.53 835.35h31.88v5.8h-31.88zM1082.88 745.99h43.29v5.8h-43.29zM1082.88 760.04h13.06v5.8h-13.06zM233.61 625.31h24.96v24.96h-24.96zM186.81 689.03h24.96v24.96h-24.96zM186.81 763.19h24.96v24.96h-24.96z"/><path transform="rotate(-180 868.475 649.24)" class="st5" d="M857.08 637.85h22.79v22.79h-22.79z"/><path transform="rotate(-180 825.745 688.465)" class="st5" d="M814.35 677.07h22.79v22.79h-22.79z"/><path transform="rotate(-180 825.745 732.29)" class="st5" d="M814.35 720.9h22.79v22.79h-22.79z"/><path transform="rotate(-180 868.475 790.47)" class="st5" d="M857.08 779.08h22.79v22.79h-22.79z"/><path transform="rotate(-180 551.958 726.316)" class="st5" d="M545.22 719.58h13.48v13.48h-13.48z"/><path transform="rotate(-180 634.5 758.566)" class="st5" d="M626.76 750.83h15.48v15.48h-15.48z"/><path transform="rotate(-180 607.32 758.566)" class="st5" d="M599.58 750.83h15.48v15.48h-15.48z"/><path transform="rotate(-180 580.14 758.566)" class="st5" d="M572.4 750.83h15.48v15.48H572.4z"/><path transform="rotate(-180 634.5 799.846)" class="st5" d="M626.76 792.11h15.48v15.48h-15.48z"/><path transform="rotate(-180 580.14 799.846)" class="st5" d="M572.4 792.11h15.48v15.48H572.4z"/><path transform="rotate(-180 634.5 841.126)" class="st5" d="M626.76 833.39h15.48v15.48h-15.48z"/><path transform="rotate(-180 607.32 841.126)" class="st5" d="M599.58 833.39h15.48v15.48h-15.48z"/><path transform="rotate(-180 634.5 882.406)" class="st5" d="M626.76 874.67h15.48v15.48h-15.48z"/><path transform="rotate(-180 580.14 882.406)" class="st5" d="M572.4 874.67h15.48v15.48H572.4z"/><path transform="rotate(-180 552.96 799.846)" class="st5" d="M545.22 792.11h15.48v15.48h-15.48z"/><path transform="rotate(-180 552.96 841.126)" class="st5" d="M545.22 833.39h15.48v15.48h-15.48z"/><path class="st5" d="M-280.71 890.85h15.48v15.48h-15.48zM-253.53 890.85h15.48v15.48h-15.48zM-226.35 890.85h15.48v15.48h-15.48zM-307.89 926.49h15.48v15.48h-15.48zM-280.71 926.49h15.48v15.48h-15.48zM-226.35 926.49h15.48v15.48h-15.48zM-307.89 962.13h15.48v15.48h-15.48zM-253.53 962.13h15.48v15.48h-15.48zM-226.35 962.13h15.48v15.48h-15.48z"/></g><path class="st1" d="M5057 672.56v172.18H3257V657.87h2.38v95.51h5.73v-94.67h8.81l11.75-20.2h8.13l.09-9.5 17.73.06v9.44h6.4l11.93 20.58 9.23.09v99.46h4.41v-9.92h4.41V561.36h12.35v-8.45l17.64-14.69v-12.49h13.05v-16.55l8.07.03-.03-27.07h5.82l-.03 27.1 8.01.03-.12 16.47h12.86v12.12l21.16 17.63v6.24h10.14v53.63h29.1v32.33h11.47v44.08h25.14v-96.61h8.1v-39.31h12.08v-130.8l10.26.12v-4.01h15.18l.12-23.29 4.61.1-.06 23.19h54.63v4.86l10.5.12v114.64l8.38 6.98h22.14v-68.33l30.87-25.71h51.15v19.84h12.35v74.57h14.99v-31.59h34.39v38.94h8.82V420.66h5.76v-5.43h21.54v-13.21h21.05v13.21h21.54v5.43h6.4v155.76h16.32V314.13h8.04l-.01-44.22 9.67-.19.23 44.41h56.78l.09-91.24 9.69.17.1 91.07h8.42v338.71h13.23V439.09h6.31v-7.76h8.65v7.76h8.65v-2.27h6.73v2.27h7.69v-2.27h9.61v2.27h10.57v-5.7h7.2v5.7h3.37v-2.27h6.72v2.27h9.01l.38 197.44v16.16l2.03-.03 11.45-.16V418.83h30.41v-13.04l13.85-.05v13.09h10.26v-2.06h10.26v2.06h10.26v-2.06h5.13v2.06h6.28v220.04l10.21.07 18.97 25.98 2.57 3.52V467.32h5.51v-8.41h5.39v4.1h3.59v4.31h30.51v-2.67h8.98v2.67h7.18v-19.34l3.59-.04v19.39h26.92v-3.9h4.19v3.9h2.91v207.65h40.6V371.12l46.1-8.81 1.4-35.27c-4.62-1.85-7.77-5.34-7.77-9.39 0-4.35 3.61-8.07 8.8-9.79l3.8-70.6 4-71.86 1.88 71.87 3.28 70.7c5.02 1.76 8.51 5.41 8.51 9.68 0 4.01-3.1 7.47-7.64 9.34l1.92 35.61 42.22 7.79v297.5h31.32V490.51h28.43l.13-19.14 9.62.03.1-14.05 17.29-.07v14.17l6.85.02v19.05l55.72.01-.02 11.53h15.77v47.92h5.17l28.44 21.18v68.46h21.03v-5.55h25.7l.12 5.55h28.77v-18.47h12.79v-14.22h16.32v14.22h5.29v55.47h14.55v24.35h14.11l.13-48.69h15.44v-13.23h30.42v20.94h9.13l-.13 42.61 26.52.1v-7.34h3.08v-7.23h12.76l-.06-8.8 23.55.02-.03 8.77h13.68v7.23h19.67v8.45h22.22v-18.74h17.19v13.6h14.11v-26.08H5057z"/><path class="st2" d="M5046.56 767.6v-10.28h-15.12v14.14h-13.68v-6.43h-23.04v-12.34H4967v12.34h-2.52v5.66h-26.28v-3.09h-10.44v-4.63h-10.44v-15.68h-26.64v9.77h-13.32v15.68h-12.6v-21.6h-12.6v-40.89l-35.03.01h-7.71l-13.49-15.17h-25.04l-9.61 17.32-8.84 5.5v67.18h-7.92v-147.6h-10.8v-6.42l-15.12-10.99v-9.34h-41.76v9.06l-18.36 13.19v4.75h-9v40.12h-25.56v24.17h-9.72v32.91h-21.96v-72.25h-7.2v-29.32h-10.44v-97.95l-6.9.06-10.73-13.51-43.21.06-6.38.01-9.89 14.14-6.41.06v100.17l-7.18 5.19h-19.46v-65.5l-26.87-19.36h-44.77v14.92h-11.16v103.11h-10.74l.15-71.31-10.65-.02v-2.64l-18-.05v3.05h-3.6v43.72h-7.56V532.06h-16.56v-2.32h-14.31l.09-13.3-22.14-.07v13.37h-11.88v2.32h-16.92v166.11h-10.41l-.39-245.83h-12.6v-5.91h-37.8v6.01l-35.28.05v-5.55h-39.96v5.4h-12.6v280.49l-10.03.05-.34-229.88h-20.95v-3.59h-25.2v3.33h-19.44v-3.08h-19.8v3.08h-8.64v184.63h-9.74l-17.98 12.83V567.03h-19.08v-7.71h-47.88v7.71h-19.44v138.09h-35.64V495.07l-33.36.13-.12-104.06h-25.56l-.12 103.2-33.72.18v187.2h-48.6v-21.6h-19.08v-31.38h-9v-3.34h-6.12v3.34h-23.04v-2.82h-29.16v2.82h-13.96l-24.92 17.86v49.26h-65.88v-13.63h-11.16v-10.8h-14.4v10.8h-4.68v41.4h-12.6v18.26h-12.24v-12.35h-13.68v-9.77h-26.64v15.69h-10.44v4.63h-10.44v3.08h-25.92v-5.65h-2.88v-12.09h-27.72v12.09h-23.04v6.42h-13.68V729.8h-14.76v10.29h-12.6v-19.51l-19.78-.05.16 86.67h-.18v504.84h1800V767.6z"/><path class="st3" d="M3257 1035.14h1800V1793H3257z"/><g class="st4"><path class="st5" d="M3274.11 855.21h15.48v15.48h-15.48zM3438.36 844.41h6.48v6.48h-6.48zM3458.88 844.41h6.48v6.48h-6.48zM3428.1 854.37h6.48v6.48h-6.48zM3448.62 854.37h6.48v6.48h-6.48zM3458.88 854.37h6.48v6.48h-6.48zM3428.1 864.33h6.48v6.48h-6.48zM3438.36 864.33h6.48v6.48h-6.48zM3428.1 874.29h6.48v6.48h-6.48zM3458.88 874.29h6.48v6.48h-6.48zM3448.62 884.25h6.48v6.48h-6.48zM3458.88 884.25h6.48v6.48h-6.48zM3428.1 894.21h6.48v6.48h-6.48zM3438.36 894.21h6.48v6.48h-6.48zM3448.62 894.21h6.48v6.48h-6.48zM3438.36 904.17h6.48v6.48h-6.48zM3458.88 904.17h6.48v6.48h-6.48zM3428.1 914.13h6.48v6.48h-6.48zM3438.36 914.13h6.48v6.48h-6.48zM3448.62 914.13h6.48v6.48h-6.48zM3428.1 924.09h6.48v6.48h-6.48zM3438.36 934.05h6.48v6.48h-6.48zM3448.62 934.05h6.48v6.48h-6.48zM4900.95 902.67h6.48v6.48h-6.48zM4921.47 902.67h6.48v6.48h-6.48zM4890.69 912.63h6.48v6.48h-6.48zM4911.21 912.63h6.48v6.48h-6.48zM4921.47 912.63h6.48v6.48h-6.48zM4890.69 922.59h6.48v6.48h-6.48zM4900.95 922.59h6.48v6.48h-6.48zM4890.69 932.55h6.48v6.48h-6.48zM4921.47 932.55h6.48v6.48h-6.48zM4911.21 942.51h6.48v6.48h-6.48zM4921.47 942.51h6.48v6.48h-6.48zM4890.69 952.47h6.48v6.48h-6.48zM4900.95 952.47h6.48v6.48h-6.48zM4911.21 952.47h6.48v6.48h-6.48zM4900.95 962.43h6.48v6.48h-6.48zM4921.47 962.43h6.48v6.48h-6.48zM4890.69 972.39h6.48v6.48h-6.48zM4900.95 972.39h6.48v6.48h-6.48zM4911.21 972.39h6.48v6.48h-6.48zM4888.71 894.51h6.48v6.48h-6.48zM4900.95 883.41h6.48v6.48h-6.48zM4911.21 883.41h6.48v6.48h-6.48z"/><path transform="rotate(-180 3940.384 645.68)" class="st5" d="M3934.48 639.78h11.8v11.8h-11.8z"/><path transform="rotate(-180 3903.012 645.68)" class="st5" d="M3897.11 639.78h11.8v11.8h-11.8z"/><path transform="rotate(-180 3959.07 663.82)" class="st5" d="M3953.17 657.92h11.8v11.8h-11.8z"/><path transform="rotate(-180 3921.698 663.82)" class="st5" d="M3915.8 657.92h11.8v11.8h-11.8z"/><path transform="rotate(-180 3903.012 663.82)" class="st5" d="M3897.11 657.92h11.8v11.8h-11.8z"/><path transform="rotate(-180 3959.07 681.96)" class="st5" d="M3953.17 676.06h11.8v11.8h-11.8z"/><path transform="rotate(-180 3940.384 681.96)" class="st5" d="M3934.48 676.06h11.8v11.8h-11.8z"/><path transform="rotate(-180 3959.07 700.099)" class="st5" d="M3953.17 694.2h11.8V706h-11.8z"/><path transform="rotate(-180 3903.012 700.099)" class="st5" d="M3897.11 694.2h11.8V706h-11.8z"/><path transform="rotate(-180 3921.698 718.239)" class="st5" d="M3915.8 712.34h11.8v11.8h-11.8z"/><path transform="rotate(-180 3903.012 718.239)" class="st5" d="M3897.11 712.34h11.8v11.8h-11.8z"/><path transform="rotate(-180 3959.07 736.378)" class="st5" d="M3953.17 730.48h11.8v11.8h-11.8z"/><path transform="rotate(-180 3940.384 736.378)" class="st5" d="M3934.48 730.48h11.8v11.8h-11.8z"/><path transform="rotate(-180 3921.698 736.378)" class="st5" d="M3915.8 730.48h11.8v11.8h-11.8z"/><path transform="rotate(-180 3940.384 754.518)" class="st5" d="M3934.48 748.62h11.8v11.8h-11.8z"/><path transform="rotate(-180 3903.012 754.518)" class="st5" d="M3897.11 748.62h11.8v11.8h-11.8z"/><path transform="rotate(-180 3959.07 772.658)" class="st5" d="M3953.17 766.76h11.8v11.8h-11.8z"/><path transform="rotate(-180 3940.384 772.658)" class="st5" d="M3934.48 766.76h11.8v11.8h-11.8z"/><path transform="rotate(-180 3921.698 772.658)" class="st5" d="M3915.8 766.76h11.8v11.8h-11.8z"/><path transform="rotate(-180 3959.07 790.798)" class="st5" d="M3953.17 784.9h11.8v11.8h-11.8z"/><path transform="rotate(-180 3940.384 808.937)" class="st5" d="M3934.48 803.04h11.8v11.8h-11.8z"/><path transform="rotate(-180 3921.698 808.937)" class="st5" d="M3915.8 803.04h11.8v11.8h-11.8z"/><path transform="rotate(-180 4837.049 840.013)" class="st5" d="M4831.15 834.11h11.8v11.8h-11.8z"/><path transform="rotate(-180 4818.363 840.013)" class="st5" d="M4812.46 834.11h11.8v11.8h-11.8z"/><path transform="rotate(-180 4799.676 840.013)" class="st5" d="M4793.78 834.11h11.8v11.8h-11.8z"/><path transform="rotate(-180 4837.049 858.153)" class="st5" d="M4831.15 852.25h11.8v11.8h-11.8z"/><path class="st5" d="M5021.8 908.81h11.8v11.8h-11.8zM5040.49 908.81h11.8v11.8h-11.8zM5003.12 926.95h11.8v11.8h-11.8z"/><path transform="rotate(-180 4818.363 876.292)" class="st5" d="M4812.46 870.39h11.8v11.8h-11.8z"/><path transform="rotate(-180 4799.676 876.292)" class="st5" d="M4793.78 870.39h11.8v11.8h-11.8z"/><path class="st5" d="M3301.29 855.21h15.48v15.48h-15.48zM3328.47 855.21h15.48v15.48h-15.48zM3355.65 855.21h15.48v15.48h-15.48zM3596.04 724.89h15.48v15.48h-15.48zM3623.22 724.89h15.48v15.48h-15.48zM3650.4 724.89h15.48v15.48h-15.48zM3596.04 766.17h15.48v15.48h-15.48zM3623.22 766.17h15.48v15.48h-15.48zM3650.4 766.17h15.48v15.48h-15.48zM3596.04 807.45h15.48v15.48h-15.48zM3623.22 807.45h15.48v15.48h-15.48zM3650.4 807.45h15.48v15.48h-15.48zM3596.04 848.73h15.48v15.48h-15.48zM3623.22 848.73h15.48v15.48h-15.48zM3650.4 848.73h15.48v15.48h-15.48zM3596.04 890.01h15.48v15.48h-15.48zM3623.22 890.01h15.48v15.48h-15.48zM3650.4 890.01h15.48v15.48h-15.48zM3596.04 931.29h15.48v15.48h-15.48zM3623.22 931.29h15.48v15.48h-15.48zM3650.4 931.29h15.48v15.48h-15.48zM4502.29 592.33h15.48v15.48h-15.48zM4529.47 592.33h15.48v15.48h-15.48zM4556.65 592.33h15.48v15.48h-15.48zM4529.47 633.61h15.48v15.48h-15.48zM4556.65 633.61h15.48v15.48h-15.48zM4502.29 674.89h15.48v15.48h-15.48zM4529.47 674.89h15.48v15.48h-15.48zM4511.65 716.17h15.48v15.48h-15.48zM4556.65 716.17h15.48v15.48h-15.48zM4507.69 757.45h15.48v15.48h-15.48zM4537.21 757.45h15.48v15.48h-15.48zM4351.36 691.55h15.48v15.48h-15.48zM4351.36 739.83h15.48v15.48h-15.48zM4351.36 788.11h15.48v15.48h-15.48zM4351.36 836.39h15.48v15.48h-15.48zM4351.36 884.67h15.48v15.48h-15.48zM4517.77 798.73h15.48v15.48h-15.48zM4556.65 798.73h15.48v15.48h-15.48zM4127.22 479.93h15.48v15.48h-15.48zM4154.4 479.93h15.48v15.48h-15.48zM4181.58 479.93h15.48v15.48h-15.48zM4127.22 521.21h15.48v15.48h-15.48zM4181.58 521.21h15.48v15.48h-15.48zM4127.22 562.49h15.48v15.48h-15.48zM4154.4 562.49h15.48v15.48h-15.48zM4181.58 562.49h15.48v15.48h-15.48zM4127.22 603.77h15.48v15.48h-15.48zM4154.4 603.77h15.48v15.48h-15.48zM4181.58 603.77h15.48v15.48h-15.48zM4127.22 645.05h15.48v15.48h-15.48zM4154.4 645.05h15.48v15.48h-15.48zM4127.22 686.33h15.48v15.48h-15.48zM4181.58 686.33h15.48v15.48h-15.48zM4208.76 521.21h15.48v15.48h-15.48zM4208.76 562.49h15.48v15.48h-15.48zM4208.76 603.77h15.48v15.48h-15.48zM4208.76 645.05h15.48v15.48h-15.48zM4208.76 686.33h15.48v15.48h-15.48zM3768.81 534.35h24.96v24.96h-24.96zM3815.61 577.31h24.96v24.96h-24.96zM4262.93 607.13h12.12v12.12h-12.12zM4278.52 607.13h12.12v12.12h-12.12zM4294.13 607.13h12.12v12.12h-12.12zM4309.73 607.13h12.12v12.12h-12.12zM4262.93 622.49h12.12v12.12h-12.12zM4278.52 622.49h12.12v12.12h-12.12zM4294.13 622.49h12.12v12.12h-12.12zM4309.73 622.49h12.12v12.12h-12.12zM4262.93 637.85h12.12v12.12h-12.12zM4278.52 637.85h12.12v12.12h-12.12zM4294.13 637.85h12.12v12.12h-12.12zM4309.73 637.85h12.12v12.12h-12.12zM4262.93 653.21h12.12v12.12h-12.12zM4278.52 653.21h12.12v12.12h-12.12zM4294.13 653.21h12.12v12.12h-12.12zM4309.73 653.21h12.12v12.12h-12.12zM4262.93 668.57h12.12v12.12h-12.12zM4278.52 668.57h12.12v12.12h-12.12zM4294.13 668.57h12.12v12.12h-12.12zM4309.73 668.57h12.12v12.12h-12.12zM4262.93 683.93h12.12v12.12h-12.12zM4278.52 683.93h12.12v12.12h-12.12zM4294.13 683.93h12.12v12.12h-12.12zM4309.73 683.93h12.12v12.12h-12.12zM4262.93 699.29h12.12v12.12h-12.12zM4278.52 699.29h12.12v12.12h-12.12zM4294.13 699.29h12.12v12.12h-12.12zM4309.73 699.29h12.12v12.12h-12.12zM4262.93 714.65h12.12v12.12h-12.12zM4278.52 714.65h12.12v12.12h-12.12zM4294.13 714.65h12.12v12.12h-12.12zM4309.73 714.65h12.12v12.12h-12.12zM4262.93 730.01h12.12v12.12h-12.12zM4278.52 730.01h12.12v12.12h-12.12zM4294.13 730.01h12.12v12.12h-12.12zM4309.73 730.01h12.12v12.12h-12.12zM4262.93 745.37h12.12v12.12h-12.12zM4278.52 745.37h12.12v12.12h-12.12zM4294.13 745.37h12.12v12.12h-12.12zM4309.73 745.37h12.12v12.12h-12.12zM4012.16 549.39h72.61v7.04h-72.61zM4012.16 600.87h72.61v7.04h-72.61zM4012.16 652.35h72.61v7.04h-72.61zM4012.16 703.83h72.61v7.04h-72.61zM4012.16 755.31h72.61v7.04h-72.61zM4012.16 566.79h31.69v7.04h-31.69zM4012.16 583.83h31.69v7.04h-31.69zM4664.88 731.65h19.77v5.8h-19.77zM4665.16 774.08h71.72v5.8h-71.72zM4639.53 789.4h97.35v5.8h-97.35zM4639.53 804.71h97.35v5.8h-97.35zM4639.53 820.03h97.35v5.8h-97.35zM4639.53 835.35h31.88v5.8h-31.88zM4664.88 745.99h43.29v5.8h-43.29zM4664.88 760.04h13.06v5.8h-13.06zM3815.61 625.31h24.96v24.96h-24.96zM3768.81 689.03h24.96v24.96h-24.96zM3768.81 763.19h24.96v24.96h-24.96z"/><path transform="rotate(-180 4450.475 649.24)" class="st5" d="M4439.08 637.85h22.79v22.79h-22.79z"/><path transform="rotate(-180 4407.745 688.465)" class="st5" d="M4396.35 677.07h22.79v22.79h-22.79z"/><path transform="rotate(-180 4407.745 732.29)" class="st5" d="M4396.35 720.9h22.79v22.79h-22.79z"/><path transform="rotate(-180 4450.475 790.47)" class="st5" d="M4439.08 779.08h22.79v22.79h-22.79z"/><path transform="rotate(-180 4133.958 726.316)" class="st5" d="M4127.22 719.58h13.48v13.48h-13.48z"/><path transform="rotate(-180 4216.5 758.566)" class="st5" d="M4208.76 750.83h15.48v15.48h-15.48z"/><path transform="rotate(-180 4189.32 758.566)" class="st5" d="M4181.58 750.83h15.48v15.48h-15.48z"/><path transform="rotate(-180 4162.14 758.566)" class="st5" d="M4154.4 750.83h15.48v15.48h-15.48z"/><path transform="rotate(-180 4216.5 799.846)" class="st5" d="M4208.76 792.11h15.48v15.48h-15.48z"/><path transform="rotate(-180 4162.14 799.846)" class="st5" d="M4154.4 792.11h15.48v15.48h-15.48z"/><path transform="rotate(-180 4216.5 841.126)" class="st5" d="M4208.76 833.39h15.48v15.48h-15.48z"/><path transform="rotate(-180 4189.32 841.126)" class="st5" d="M4181.58 833.39h15.48v15.48h-15.48z"/><path transform="rotate(-180 4216.5 882.406)" class="st5" d="M4208.76 874.67h15.48v15.48h-15.48z"/><path transform="rotate(-180 4162.14 882.406)" class="st5" d="M4154.4 874.67h15.48v15.48h-15.48z"/><path transform="rotate(-180 4134.96 799.846)" class="st5" d="M4127.22 792.11h15.48v15.48h-15.48z"/><path transform="rotate(-180 4134.96 841.126)" class="st5" d="M4127.22 833.39h15.48v15.48h-15.48z"/><path class="st5" d="M3301.29 890.85h15.48v15.48h-15.48zM3328.47 890.85h15.48v15.48h-15.48zM3355.65 890.85h15.48v15.48h-15.48zM3274.11 926.49h15.48v15.48h-15.48zM3301.29 926.49h15.48v15.48h-15.48zM3355.65 926.49h15.48v15.48h-15.48zM3274.11 962.13h15.48v15.48h-15.48zM3328.47 962.13h15.48v15.48h-15.48zM3355.65 962.13h15.48v15.48h-15.48z"/></g></g><g id="Layer_3_1_"><ellipse cx="2386.07" cy="1599.46" rx="613.98" ry="72.14" opacity=".08"/><path class="st12" d="M2856.66 1054.38v279.18h-41.97V1069c0-15.81-10.39-28.62-23.2-28.62h-795.83c-12.81 0-23.2 12.82-23.2 28.62v264.56h-42.91v-279.18c0-32.29 21.22-58.47 47.4-58.47h832.32c26.17-.01 47.39 26.17 47.39 58.47zM1929.41 1599.46h-6.89v-211.59h-37.19v211.59h-6.89c-4.69 0-8.53 3.84-8.53 8.53v2.64c0 4.69 3.84 8.53 8.53 8.53h50.97c4.69 0 8.53-3.84 8.53-8.53v-2.64c0-4.7-3.84-8.53-8.53-8.53zM2010.05 1552.57h-3.89v-164.7h-37.19v164.7h-3.89c-4.24 0-7.71 3.47-7.71 7.71v2.71c0 4.24 3.47 7.71 7.71 7.71h44.96c4.24 0 7.71-3.47 7.71-7.71v-2.71c0-4.24-3.47-7.71-7.7-7.71zM2908.76 1599.46h-6.89v-211.59h-37.19v211.59h-6.89c-4.69 0-8.53 3.84-8.53 8.53v2.64c0 4.69 3.84 8.53 8.53 8.53h50.97c4.69 0 8.53-3.84 8.53-8.53v-2.64c0-4.7-3.84-8.53-8.53-8.53zM2822.11 1552.57h-3.89v-164.7h-37.19v164.7h-3.89c-4.24 0-7.71 3.47-7.71 7.71v2.71c0 4.24 3.47 7.71 7.71 7.71h44.96c4.24 0 7.71-3.47 7.71-7.71v-2.71c.01-4.24-3.46-7.71-7.7-7.71z"/><path class="st13" d="M2901.79 1387.87H1884.42c-15.61 0-28.38-12.77-28.38-28.38v-17.12c0-15.61 12.77-28.38 28.38-28.38H2901.8c15.61 0 28.38 12.77 28.38 28.38v17.12c0 15.61-12.78 28.38-28.39 28.38zM2872.76 1117.11h-958.24c-8.05 0-14.64-6.59-14.64-14.64v-8.83c0-8.05 6.59-14.64 14.64-14.64h958.24c8.05 0 14.64 6.59 14.64 14.64v8.83c0 8.06-6.59 14.64-14.64 14.64zM2872.76 1193.17h-958.24c-8.05 0-14.64-6.59-14.64-14.64v-8.83c0-8.05 6.59-14.64 14.64-14.64h958.24c8.05 0 14.64 6.59 14.64 14.64v8.83c0 8.05-6.59 14.64-14.64 14.64zM2872.76 1269.22h-958.24c-8.05 0-14.64-6.59-14.64-14.64v-8.83c0-8.05 6.59-14.64 14.64-14.64h958.24c8.05 0 14.64 6.59 14.64 14.64v8.83c0 8.05-6.59 14.64-14.64 14.64z"/><path class="st13" d="M1972.46 1093.94h842.24v220.05h-842.24z"/></g><g id="Layer_4"><path d="M2387.36 1279.56h-288.19c.04-8.64.08-17.89.14-25.75.73-95.82 20.72-159.74 33.21-184.58 1.18-2.63 15.66-30.76 15.66-82.99 0-43.15-13.86-86.33-13.86-86.33 0-18.07 14.47-32.54 32.32-32.54h153.25c17.85 0 32.32 14.44 32.32 32.51 0 0-13.86 43.16-13.86 86.31 0 52.24 14.48 80.3 15.66 82.93 12.48 24.85 32.47 88.87 33.21 184.69.05 7.87.1 17.11.14 25.75z" fill="#47b5c0"/><path class="st15" d="M1998.7 1310.42l45.9-3.06c24.16-1.88 49.67-6 49.67-6l27.2-5.68 7.69 39.84-28.05 4.17s-25.34 4.95-48.66 11.55l-44.14 13.01s-26.64 6.83-34.69-5c0 0-5.13-5.37-6.81-13.58-2.04-9.58 1.67-18.86 1.67-18.86 4.4-14.25 30.22-16.39 30.22-16.39zM2516.79 1320.7l-45.9-3.06c-24.16-1.88-49.67-6-49.67-6l-27.2-5.68-7.69 39.84 28.05 4.17s25.34 4.95 48.66 11.55l44.14 13.01s26.64 6.83 34.69-5c0 0 5.13-5.37 6.81-13.58 2.04-9.58-1.67-18.86-1.67-18.86-4.4-14.25-30.22-16.39-30.22-16.39z"/><path class="st16" d="M2482.13 1281.98l-61.7 13.19c-17.81 1.8-88.98 14.15-117.76 22.19-131.34 36.68-230.18 37.64-230.18 37.64l-10.74-39.28s133.15-45.84 188.81-59.16c49.25-11.78 144-60.34 226.3-62.46 38.34-.98 67.61 56.73 5.27 87.88z"/><path class="st17" d="M2197.32 1342.88l-84.89 11.75s-39.92 1.2-71.2 8.44c0 0-52.58 3.7-58.69 17.07 0 0-12.31 11.06-30.81 18.96 0 0-7.08 7.65-18.15 8.84 0 0-7.6 8.43-16.13 1.19 0 0-2.03-16.97-19.18-74.3 0 0-3.59-9.58 16.95-9.78 0 0 9.17-.54 34.56-7.75 0 0 5.63-7.33 12.12-11.15 6.49-3.82 16.39-2.42 16.39-2.42s21.42-.89 30.44-6.4c0 0 39.72 3.74 42.19-.81 0 0 20.75-19.48 38.12-22.94s57.91-15.07 57.91-15.07 18.08-4.95 23.4-8.71c.01.01 16.33 76.9 26.97 93.08z"/><path class="st18" d="M2167.7 1332l-16.18-55.69c-3.33-11.45 3.32-23.54 14.77-26.86l22.18-6.44c11.45-3.33 23.54 3.32 26.86 14.77l16.18 55.69c3.33 11.45-3.32 23.54-14.77 26.86l-22.18 6.44c-11.45 3.32-23.53-3.32-26.86-14.77z"/><path fill="#a090c1" d="M2147.91 805.27h191.03v343.29h-191.03z"/><path class="st20" d="M2276.81 735.32s-17.26 7.72-35.82 7.34c-17.53-.36-32.18-7.19-32.18-7.19s27.54 55.23-48.83 70.61l83.03 36.53 84.07-33.1c-68.01-6.51-50.27-74.19-50.27-74.19z"/><path d="M2212.83 766.07l85.74 33.92s-23.85-8.79-23.85-45.8c0 0-28.83 13.9-61.37-1.93 0-.01.94 7.65-.52 13.81z" fill="#d1ac92"/><path class="st22" d="M2224.1 906.63c6.29-21.4 1.26-52.86 1.26-52.86s-26.43-44.05-26.43-61.67c0-5.72-1.83-7.17-5.23-13.72l-9.53 18.97-50.04 4.35a78.586 78.586 0 0 0-30.88 9.32c-9.98 5.45-20.79 11.88-23.91 16.28-4.8 6.79-8.58 18.37-8.58 26.92 0 6.58-1.17 18.7-1.71 23.94-.17 1.66-.48 3.3-.93 4.9l-19.44 69.74-21.39 78.44s-15.84 49.98-15.84 58.54c0 8.56 6.15 33.34 14.41 39.87 9.24 7.3 26.6 11.21 38.72 9.07s42.58-18.35 42.58-18.35c-3.28-1.36-13.57 48.43-4.41 70.5 3.93 9.48 111.71-8.04 111.71-8.04-9.72-47.33 3.37-254.89 9.64-276.2z"/><path class="st23" d="M2137.25 850s47.83-37.76 88.1 3.78c0 0-21.4-35.24-23.91-44.05-2.51-8.82-36.5-2.52-64.19 40.27zM2132.04 1022.75s-3.77-78.31-3.77-98.83c0-20.53-18.73-86.5-18.73-86.5s14.98 68.91 9.36 89.43c-5.62 20.53-17.23 118.89-17.23 118.89l30.37-22.99z"/><path class="st22" d="M2261.22 906.23c-6.29-21.4-1.26-52.86-1.26-52.86s26.43-44.05 26.43-61.67c0-5.72 1.83-7.17 5.23-13.72l9.53 18.97 50.04 4.35c10.83.94 21.34 4.11 30.88 9.32 9.98 5.45 20.79 11.88 23.91 16.28 4.8 6.79 8.58 18.37 8.58 26.92 0 6.58 1.17 18.7 1.71 23.94.17 1.66.48 3.3.93 4.9l19.44 69.74 21.39 78.44s15.84 49.98 15.84 58.54-6.15 33.34-14.41 39.87c-9.24 7.3-26.6 11.21-38.72 9.07-12.12-2.14-42.58-18.35-42.58-18.35s14.5 53.73 4.73 62.86c-9.77 9.13-117.12-2.25-117.12-2.25 9.71-47.33 1.72-253.04-4.55-274.35z"/><path class="st23" d="M2348.06 849.6s-47.83-37.76-88.1 3.78c0 0 21.4-35.24 23.91-44.05 2.52-8.82 36.5-2.52 64.19 40.27z"/><path class="st24" d="M2338.21 640.9c0 15.16-1.45 29.65-5.77 42.97v.01c-15.12 44.42-46.49 76.56-85.44 76.56h-.9c-.31 0-1.07-.32-1.38-.33-33.39-.55-62.26-24.34-77.94-59.38-1.71-3.82-3.26-7.91-4.65-11.98-4.94-14.6-7.69-30.81-7.69-47.78 0-1.89.03-3.8.1-5.67 0 0 0-.02.01-.02.93-26.02 8.32-49.86 20.13-68.87.1-.17.2-.33.31-.49.01-.02.03-.04.04-.06 11.03-17.56 25.87-30.96 42.88-38.09.95-.39 1.9-.77 2.86-1.13a72.95 72.95 0 0 1 13.78-3.67c1.68-.27 3.38-.49 5.09-.64 1.69-.15 3.39-.25 5.11-.27.45-.01.91-.02 1.37-.02 1.11 0 2.21.03 3.31.08 2.56.11 5.1.38 7.61.76 3.22.49 6.38 1.2 9.49 2.12 1.76.52 3.51 1.1 5.23 1.76 2.65.99 5.25 2.14 7.8 3.44 1.8.91 3.58 1.9 5.32 2.95 2.46 1.5 4.87 3.12 7.2 4.89 2.37 1.78 4.68 3.71 6.92 5.76 2.14 1.97 4.23 4.05 6.24 6.25 1.87 2.05 3.68 4.19 5.42 6.43.29.37.57.74.85 1.11 1.58 2.08 3.1 4.23 4.55 6.46.11.16.21.31.31.47.04.06.08.11.11.17.03.04.05.08.08.11l.36.57c.41.66.83 1.32 1.23 1.99.11.2.24.39.35.59.7 1.15 1.37 2.32 2.03 3.51.11.19.22.38.32.58.31.55.61 1.11.9 1.68.13.24.25.46.37.7 1.44 2.76 2.79 5.6 4.05 8.51 3.75 8.7 6.69 18.08 8.67 27.96.83 4.13 1.5 8.35 1.98 12.64.48 4.23.78 8.52.9 12.88.01.36.23.73.24 1.1.03 1.12.25 2.25.25 3.39z"/><path class="st20" d="M2245.89 759.78h-.03c-33.36 0-62.74-22.66-78.89-56.9-2.13-4.49-4.02-9.19-5.66-14.06-4.84-14.32-7.52-30.16-7.52-46.87 0-1.9.03-3.79.11-5.66.96-26.72 8.72-51.12 21.09-70.38 11.15-17.35 26.04-30.52 43.06-37.43.87-.36 1.75-.69 2.63-1.01 4.51-1.64 9.15-2.84 13.9-3.56 1.39-.22 2.79-.39 4.2-.52 2.21-.21 4.45-.31 6.71-.31l.07 40.26v.33l.03 18.22.01 3.77.01 1.81.01 2.72.01 10.76.17 98.29.01 2.45.02 11.74v1.99l.01 5.3.02 14.01.01 4.16v2.72l.02 18.17z"/><path class="st5" d="M2246.1 742.53c10.17-.11 22.59-6.21 27.16-24.21h-54.05c4.69 14.4 17.21 24.11 26.89 24.21z"/><path d="M2275.35 717.99a1 1 0 0 0-.78-.38h-56.67c-.31 0-.6.14-.79.39-.19.25-.25.56-.17.86 4.64 17.34 18.48 26.82 29.17 26.94 11.21-.13 24.91-9.42 29.42-26.95.07-.31.01-.62-.18-.86zm-29.25 25.81c-9.68-.11-22.2-8.62-26.89-24.21h54.05c-4.56 15.75-16.99 24.1-27.16 24.21z" fill="#e2415d"/><path d="M2271.32 724.88h-50.1c2.31 6.01 7.55 11.01 11.24 14.01h27.66c4.48-3.03 8.68-8.05 11.2-14.01z" fill="#f4949c"/><path class="st27" d="M2271.57 621.79s-.65 2.85 1.81 4.28c0 0 28.78-11.67 49.53 0 0 0-6.35-14.91-51.34-4.28zM2221.99 621.79s.65 2.85-1.82 4.28c0 0-28.78-11.67-49.53 0 0 0 6.36-14.91 51.35-4.28z"/><path d="M2250.26 701.54s-1.63 1.91-4.05 1.89c-2.42.03-4.05-1.89-4.05-1.89-5.68-3.48-6.54 1.12-6.54 1.12.3 2.72 6.67 1.63 6.67 1.63 1.32 1.3 2.7 1.64 3.92 1.56 1.21.08 2.6-.26 3.92-1.56 0 0 6.37 1.09 6.67-1.63 0 0-.85-4.6-6.54-1.12z" fill="#b8926e"/><path class="st29" d="M2224.8 646.34s-8.75 10.87-19.59 10.87c-10.8 0-19.57-10.87-19.57-10.87s8.77-10.88 19.57-10.88c10.84 0 19.59 10.88 19.59 10.88z"/><path class="st30" d="M2212.65 646.34c0 4.1-3.32 7.42-7.43 7.42-4.1 0-7.43-3.32-7.43-7.42s3.33-7.43 7.43-7.43c4.11 0 7.43 3.33 7.43 7.43z"/><path class="st31" d="M2207.17 657.57c7.17-.87 12.09-5.57 15.79-8.31-3.56 3.09-8.35 8-15.5 8.87-6.92.84-13.09-2.43-18.88-4.26 5.62 1.49 11.67 4.55 18.59 3.7zM2179.33 635.36c2.57.33 5.4.6 8.61.03 3.21-.56 5.66-1.79 5.66-1.79l-.02.02c2.17-1.24 4.77-2.17 7.72-2.63 10.34-1.61 20.85 9.96 22.89 13.9-.02-.05-3.48-5.16-7.74-7.43-4.39-2.34-8.68-3.69-13.88-2.87-10.19 1.59-17.04 9.34-19.28 13.17.36-1.33 3.39-6.36 4.76-8.83-.58.18-3.53.99-6.73-.27-3.57-1.41-5.71-3.9-5.71-3.9s1.16.27 3.72.6z"/><path class="st29" d="M2271.18 647.59s8.75 10.87 19.59 10.87c10.8 0 19.57-10.87 19.57-10.87s-8.77-10.88-19.57-10.88c-10.83 0-19.59 10.88-19.59 10.88z"/><path class="st30" d="M2283.33 647.59c0 4.1 3.32 7.42 7.43 7.42 4.1 0 7.43-3.32 7.43-7.42s-3.33-7.43-7.43-7.43c-4.11 0-7.43 3.33-7.43 7.43z"/><path class="st31" d="M2288.81 658.83c-7.17-.87-12.09-5.57-15.79-8.31 3.56 3.09 8.35 8 15.5 8.87 6.92.84 13.09-2.43 18.88-4.26-5.61 1.48-11.67 4.54-18.59 3.7zM2316.65 636.61c-2.57.33-5.4.6-8.61.03-3.21-.56-5.66-1.79-5.66-1.79l.02.02c-2.17-1.24-4.77-2.17-7.72-2.63-10.34-1.61-20.85 9.96-22.89 13.9.02-.05 3.48-5.16 7.74-7.43 4.39-2.34 8.68-3.69 13.88-2.87 10.19 1.59 17.04 9.34 19.28 13.17-.36-1.33-3.39-6.36-4.76-8.83.58.18 3.53.99 6.73-.27 3.57-1.41 5.71-3.9 5.71-3.9s-1.15.27-3.72.6z"/><circle class="st5" cx="2207.19" cy="644.76" r="2.49"/><path class="st5" d="M2295.36 645.91c0 1.41-1.14 2.55-2.55 2.55s-2.55-1.14-2.55-2.55 1.14-2.55 2.55-2.55 2.55 1.14 2.55 2.55z"/><path class="st24" d="M2119.54 1059.28s12.02-6.42 26.39 1.15l-7.71 46.83s-20.33.25-28.25-6.71v-16.89l9.57-24.38z"/><path class="st32" d="M2126.48 1034.76l-16.44 84.01s-23.5 3.31-23.52 3.31c4.63-12.79 9.25-25.59 13.88-38.38l10.32-28.53c1.32-3.64 2.64-7.29 3.95-10.93.53-1.46.99-2.83 1.79-3.95 1.18-1.65 2.36-4.32 3.72-5.84 1.94-2.17 10.73-2.82 10.31 1.74-.1 1.08-1.07 1.92-1.53 2.79-1.07 2.03-2.01 4.14-3.13 6.14-2.06 3.69-2.79 6.43-2.42 10.93.48 5.85-2.82 12.53-4.45 18.07-1.48 5.03-.82 9.94-1.71 15.09-.47 2.72-.99 4.96-2.18 7.4-1.11 2.29-2.76 5-3.21 7.62-.34 1.97.37 3.09.79 4.76.59 2.38.46 4.98.18 7.39-.3 2.54-.39 2.84-2.68 2.99-2.23.15-4.43-.39-6.65-.52-2.06-.13-4.39-1.18-6.42-.91-1.66.22-3.26 1.79-4.8 2.46-2.67 1.16-4.95 1.09-5.25-2.71-.62-7.99 4.44-13.64 6.6-20.69 1.24-4.03.16-6.9.03-10.91-.17-5.45 3.22-10.59 6.81-13.54 2.2-1.8 5.35-3.65 6.06-6.98.51-2.4-.35-5.05.37-7.4 1.29-4.22 5.96-5.19 6.7-10.22.28-1.93.13-3.52.66-5.37.5-1.73.82-3.3 2.64-3.28-.04-.43.07-2.66.56-2.76.2-.05 9.02-1.78 9.02-1.78z"/><path class="st33" d="M2150.45 1045.56s-30.07 22.03-16.87 63.48l14.3 6.96 8.42-70.43h-5.85z"/><path class="st24" d="M2348.27 1056.59s-12.1-6.42-26.46 1.15l7.83 46.83s19.36.25 28.36-6.71v-16.89l-9.73-24.38z"/><path class="st32" d="M2341.18 1032.08l16.44 84.01s23.5 3.31 23.52 3.31c-4.63-12.79-9.25-25.59-13.88-38.38l-10.32-28.53c-1.32-3.64-2.64-7.29-3.95-10.93-.53-1.46-.99-2.83-1.79-3.95-1.18-1.65-2.36-4.32-3.72-5.84-1.94-2.17-10.73-2.82-10.31 1.74.1 1.08 1.07 1.92 1.53 2.79 1.07 2.03 2.01 4.14 3.13 6.14 2.06 3.69 2.79 6.43 2.42 10.93-.48 5.85 2.82 12.53 4.45 18.07 1.48 5.03.82 9.94 1.71 15.09.47 2.72.99 4.96 2.18 7.4 1.11 2.29 2.76 5 3.21 7.62.34 1.97-.37 3.09-.79 4.76-.59 2.38-.46 4.98-.18 7.39.3 2.54.39 2.84 2.68 2.99 2.23.15 4.43-.39 6.64-.52 2.06-.13 4.39-1.18 6.42-.91 1.66.22 3.26 1.79 4.8 2.46 2.67 1.16 4.95 1.09 5.25-2.71.62-7.99-4.44-13.64-6.6-20.69-1.24-4.03-.16-6.9-.03-10.91.17-5.45-3.22-10.59-6.81-13.54-2.2-1.8-5.35-3.65-6.06-6.98-.51-2.4.35-5.05-.37-7.4-1.29-4.22-5.96-5.19-6.7-10.22-.28-1.93-.13-3.52-.66-5.37-.5-1.73-.82-3.3-2.64-3.28.04-.43-.07-2.66-.56-2.76-.19-.06-9.01-1.78-9.01-1.78z"/><path class="st33" d="M2317.2 1042.32s30.07 22.31 16.87 63.75l-14.3 6.82-8.42-70.57h5.85z"/><path class="st23" d="M2340.21 1022.75s3.77-78.31 3.77-98.83c0-20.53 18.73-86.5 18.73-86.5s-14.98 68.91-9.36 89.43c5.62 20.53 17.23 118.89 17.23 118.89l-30.37-22.99z"/><path class="st16" d="M2035.15 1281.59l61.67 13.32c17.81 1.84 88.95 14.34 117.71 22.43 131.26 36.96 230.1 38.12 230.1 38.12l10.82-39.26s-133.05-46.12-188.69-59.55c-49.23-11.88-143.87-60.64-226.17-62.93-38.33-1.06-67.72 56.58-5.44 87.87z"/><path class="st17" d="M2272.4 1342.25l85.1 10.09s39.93.42 71.36 7.04c0 0 52.64 2.67 59.01 15.92 0 0 12.52 10.82 31.18 18.36 0 0 7.23 7.51 18.32 8.49 0 0 7.76 8.28 16.15.87 0 0 1.7-17.01 17.72-74.66 0 0 3.41-9.64-17.14-9.45 0 0-9.18-.36-34.71-7.08 0 0-5.77-7.22-12.34-10.92s-16.43-2.1-16.43-2.1-21.43-.47-30.56-5.8c0 0-39.64 4.51-42.19.02 0 0-21.13-19.07-38.56-22.19-17.43-3.12-58.19-13.93-58.19-13.93s-18.17-4.59-23.57-8.25c-.02 0-14.83 77.2-25.15 93.59z"/><path class="st18" d="M2324.32 1261.68l-16.29 81.61c-.98 4.89-5.77 8.09-10.66 7.11l-47.39-9.46c-4.89-.98-8.09-5.77-7.11-10.66l16.29-81.61c.98-4.89 5.77-8.09 10.66-7.11l47.39 9.46c4.89.98 8.09 5.77 7.11 10.66z"/><path d="M2385.33 1215.78h-290.42c-26.74 0-48.42-21.68-48.42-48.42v-146.84c0-26.74 21.68-48.42 48.42-48.42h290.42c26.74 0 48.42 21.68 48.42 48.42v146.84c0 26.74-21.68 48.42-48.42 48.42z" fill="#f3f3f3"/><g><path d="M2049.62 1208.13c3.12 4.73 8.47 7.94 14.57 7.94h352.39c9.63 0 17.25-7.95 17.25-17.58V989.68c0-4.27-1.45-8.14-4-11.17l-380.21 229.62z" fill="#dddddc"/></g><path d="M2427.55 1215.05h-374.46c-4.67 0-8.45 3.78-8.45 8.45v5.1c0 4.67 3.78 8.45 8.45 8.45h374.46c4.67 0 8.45-3.78 8.45-8.45v-5.1c0-4.67-3.79-8.45-8.45-8.45z" fill="silver"/><path d="M2304.77 507.84s-5.6-19.33-28.08-26.64c-67.71-22.03-124.14 4.17-154 61.06a250.7 250.7 0 0 0-3.86 7.7c-16.25 33.85-16.28 68.32-6.88 104.28 10.08 38.52 31.34 73.24 99.26 98.13 0 0-52.74-28.45-52.74-104.51 0 0 2.53-29.29 5.72-36.08l30.28.35c1.99-6.06-3.65-17.33 12.47-27.27l-.18 26.5 38.62-.65s1.74-22.13 11.41-28.79c0 0-5.37 15.04 6.16 30.51l31.97.43-3.75-38.46s22.78 25.14 17.33 36.89l20.99 2.4s4.92 94.35-55.98 142.78c0 0 54.17-5.87 85.94-80.6s12.25-121.16 12.25-121.16-18.2-51.7-66.93-46.87z" fill="#333"/><g><path d="M2361.54 628.52c-.02.06-.05.11-.09.16-.48.64-1.1 3.49-1.71 6.89-.62 3.45-1.22 7.46-1.63 10.31-.28 1.97-.76 3.39-.86 3.69-.01.04-.02.08-.03.13-.06.85-.54 1.69-.54 2.5v.01c-.34 8.24-3.31 14.52-6.79 19.17-.02.03.14.06.11.09-4.9 6.5-9.63 10.44-12.72 11.76-.03.04-.76.23-1.33.36h-.01c-.32 0-.61.03-.85.06-.4.06-.71-.34-.56-.71v-.01-.11c.14-.34.27-.81.39-1.28 0 0 0-.03.01-.04 1.42-5.41 1.79-18.05 1.82-19.34 0-.07-.01-.14-.04-.2-1.5-3.81-2.39-17.14-2.49-18.77a.57.57 0 0 0-.11-.29c-.25-.32-.51-.64-.76-.95-5.07-6.28-10.32-11.73-15.61-16.46-.03-.02-.04-.04-.07-.07v-.01c-1.92-1.71-3.86-3.33-5.79-4.85l-.01-.01c-.39-.31-.79-.62-1.18-.92-.01 0-.02.15-.04.15-.66-.51-1.3-1.3-1.96-1.3h-.01c-1.51-1.34-3.03-2.39-4.53-3.41-.04-.03-.08-.28-.12-.28h-.01c-.64-1.01-1.29-.85-1.92-1.25a117.992 117.992 0 0 0-8.73-5.14c-1.53-.82-3.05-1.59-4.55-2.32-5.91-2.85-11.58-4.99-16.83-6.6-2.28-.7-4.47-1.3-6.57-1.81-1.16-.29-2.3-.55-3.4-.78-2.07-.44-4.03-.8-5.87-1.09-.25-.04-.49-.08-.72-.11-2.57-.38-4.86-.63-6.82-.79l-.31-.03c-1.09-.08-2.08-.14-2.95-.18-.47-.02-.91-.04-1.32-.04-.48-.01-.91-.02-1.28-.02-1.23-.01-1.9.03-1.9.03-.81.08-1.61.17-2.4.26-28.78 3.29-47.39 11.23-59.36 19.61a69.809 69.809 0 0 0-7.46 5.99c-.4.37-.79.74-1.16 1.11-10.19 9.92-12.29 18.76-12.4 19.25 0 .02-.01.03-.01.05-7.32 21.26 1.8 48.23 2.94 51.44.08.22.01.46-.18.6-.05.03-.09.06-.14.09-.23.12-.5.19-.81.19-3.86.06-12.83-9.25-13.47-9.93l-.04-.04c-8.16-4.96-8.08-13.39-8.02-14.68.01-.11.01-.17.01-.17-.01-.1.17-.19.17-.29v-.02c0-.01-.2-.02-.2-.03-.17-1.97-.76-4.18-1.41-6.44 0-.01-.05-.02-.05-.02-.62-2.16-1.41-4.35-2.18-6.4-.17-.45-.36-.9-.53-1.33-.26-.66-.52-1.29-.78-1.89-1.51-3.61-2.79-6.18-2.79-6.18-1.28-2.42-2.35-4.94-3.2-7.2-1.53-4.05-2.35-7.25-2.43-7.56 0-.02-.01-.03-.01-.05-.37-2.95-6.75-15.02-7.28-16.03-.02-.05-.04-.09-.05-.14-.84-4.04 1.49-15.26 2.97-20.27.46-1.56.52-2.28.52-2.28l.16-1.16v-.06c0-.09.01-.37.01-.62 0-.23.01-.43.01-.43l.39-3.03c.17-1.59.03-2.02.16-3.15l.03-.2c.01-.08.03-.15.03-.22.23-2.04.06-3.53.06-5.13l-.04-.82c-.63-6.83-2.85-9.58-3.12-9.89-.02-.02-.04-.04-.06-.05-4.19-3.37-3.26-10.33-1.98-15.04 0-.01.01-.01.01-.02.01-.03.01-.05.02-.08.66-2.41 1.58-4.28 1.89-7.43.31-3.17 1.23-6.44 2.3-9.8 1.79-5.59 4.37-11.4 7.43-17.19 9.65-18.27 24.1-36.48 33.75-47.72 5.7-6.66 9.72-10.88 10.06-11.24.02-.02.02-.03.02-.03 2.62-2.32 3.17-5.71 3.01-8.67-.19-3.47-1.36-6.37-1.36-6.37-.24-1.14 0-2.34.57-3.52.25-.51.56-1.03.92-1.53 3.94-5.55 13.92-10.72 15.04-11.29.07-.03.14-.05.22-.05 1.72-.12 6.61-3.65 7.2-4.09.04-.03.07-.06.1-.1 3.68-4.95 14.93-2.25 16.83-1.75.17.05.35 0 .49-.12 4.27-3.74 11.71-.18 13.49.76.22.11.49.06.64-.12 3.41-4.05 11.67.51 13.17 1.38.15.09.33.09.49.02 6.68-3.02 15.04 6 16.45 7.61.12.14.31.21.5.18 2.8-.55 7.36.85 8.13 1.1.07.02.14.06.2.12l3.47 3.25c.14.13.33.17.51.12 5.72-1.6 9.92 2.13 10.65 2.83.07.07.12.16.14.26.84 3.71 6.73 10.09 7.35 10.75.04.04.08.07.12.09 28.58 16.35 48 35.79 48.65 36.45.01.01.02.02.04.03 23.38 18.69 18.19 52.33 17.95 53.79-.01.03-.01.06-.02.09-.71 1.87-.56 7.97-.27 13.26.21 3.85.84 7.67 1.94 11.37 2.12 7.11 3.47 25.15 3.55 26.23 0 .03.01.07.02.1.59 2.05 1.01 4.18 1.3 6.32 0 .01.01.01.01.01.08.6.15 1.2.22 1.81 1.46 13.86-2.09 27.96-2.41 29.21z" fill="#c9575f"/><path class="st39" d="M2231.87 578.08s.49 2.5.13 4.96c-.28 1.89-1.05 3.76-2.92 4.46-3.68 1.38-37.08 11.74-47.2 17.69-1.76 1.04-2.81 1.94-2.89 2.63 0 0-15.82 16.35-25.73 31.89-.21.35-.4.69-.6 1.03-1.11 1.79-2.68 3.56-3.02 5.29v.01c-2.27 3.88-3.69 7.54-4.1 10.7-.71 5.43-2.95 10.54-6.67 14.55l-.29.32s-.22-1.34-.19-2.99c.01-.11.01-.17.01-.17-.01-.1-.01-.1-.01-.2l-.01-.06c-.01-.06-.01-.07-.01-.08-.17-1.97-.76-4.18-1.41-6.44 0-.01-.05-.02-.05-.02-.62-2.16-1.41-4.35-2.18-6.4-.17-.45-.36-.9-.53-1.33-.26-.66-.52-1.29-.78-1.89-1.51-3.61-2.79-6.18-2.79-6.18-1.28-2.42-2.35-4.94-3.2-7.2-1.6-4.26-2.44-7.58-2.44-7.58-.36-3.03-7.32-16.12-7.32-16.12-.88-3.97 1.47-15.3 2.95-20.35.46-1.56.52-2.28.52-2.28l.16-1.19s.01-.35.01-.65c.25-.06.44-.11.46-.14.01-.01.02-.02.03-.04 1.23-2.02 11.93-19.33 25.35-32.43 2.39-2.34 4.87-4.54 7.39-6.5 1.65-1.28 3.32-2.46 5-3.49.7-.43 1.4-.84 2.09-1.22l3.88-1.2s3.14-6.39 9.95-4.93c0 0 6.66-3.3 14.69-6.53 3.02-1.22 3.52-4.22 14.61-3.09 0 0 2.97-3.81 9.85-3.56 1.06.04 2.22.17 3.48.43 0 0 .42-.39 1.13-.93 2.05-1.56 6.57-4.32 10.93-2.34.57.25 1.12.59 1.68 1.02 0 0 0 .03.01.1.01.24.03.85.07 1.8 0 .28.02.59.03.94.33 9.28 1.26 38.91-.07 49.71zM2361.37 631.62c-.41 2.31-.52 4.62-1.21 7.97-.56 2.79-1.48 4.81-2.3 7.69-.37 1.3-.37 1.35-1.71 4.88 0 .01-.42 1.98-.42 1.99-.34 4.63-1.32 6.18-1.32 6.18-1.41 4.58-2.78 8.23-4.4 11.14-5.25 9.47-10.99 11.15-13.97 11.32-.7.04-1.2-.01-1.54-.06-.16-.02-.26-.04-.32-.06.26-.33.52-.73.74-1.18l.01-.01c4.33-8.81.15-38.87.15-38.87-.63-.62-1.21-1.21-1.76-1.77-11.18-11.51-6.9-11.8-6.9-11.8 3.15 1.68 4.96.67 6.01-1.08 1.49-2.49 1.44-6.49 1.44-6.49s.72 5.62.02-.86c-.42-3.84-2.1-4.99-3.4-5.29-.89-.2-1.6-.01-1.6-.01l-2.05-3.49c1.8-3.84-3.34-3.53-4.6-4.42l-.8-2.18c3.1-4.23.29-12.05 1.2-14.62.12-.32.07-.62-.09-.89-1.19-1.93-8.37-2.76-8.37-2.76l.06-2.58c.08-3.02-6.32-4.03-6.32-4.03-4.57 12.38-5.29 6.76-5.29 6.76l.99-6.01c1.65-1.85.81-4.6-.04-6.4-.01 0-.01-.01-.01-.01-.51-1.08-1.03-1.81-1.03-1.81l-3.06-.74-2.49-.6c-.46 8.45-1.23 14.09-2.11 17.81-.29 1.2-.58 2.2-.89 3.02-.74 2.06-1.52 3.09-2.23 3.55-1.44.92-2.59-.53-2.59-.53.28-.56.54-1.24.78-2.02.43-1.37.81-3.04 1.13-4.86 1.14-6.52 1.57-15.06 1.19-19.31-.14-1.49-.36-2.63-.69-2.81-.21-.11-.19-.27 0-.27h.01c.33 0 1.14.56 2.2.94.88.32 1.7.76 2.77 1.16.28.13.89.35 1.01.42 2.93 1.1 5.47 2.09 5.47 2.09l.19-.76.15-.62.93-3.8.18-.7.18-.71.28-1.12c1.08.28 1.95-.15 2.63-1.02.13-.16.25-.33.37-.52.28-.45.53-.99.76-1.57 1.37-3.61 1.67-9.29 1.73-11.63.02-.64.02-1.03.02-1.06.88-.67 1.22.66 1.31 2.49.15 2.74-.03 6.82-.03 6.82-1.38 3.84 3.13 2.43 4.8 4.19 1.26 1.34 2.1.29 2.64-1.42.28-.85.48-1.87.62-2.83.27-1.8.34-3.42.34-3.42 1.75-7.57 1.92 2.21 1.92 2.21-2.75 7.69 4.97 13.9 4.97 13.9 3.84.52 6.02-10.64 6.02-10.64 1.71.04 4.83 4.01 6.07 5.76 1.24 1.76 9.25 6.69 9.25 6.69 6.02 3.22 10.02 10.8 12.39 16.98.01.01.01.02.01.03 1.95 5.08 2.8 9.21 2.8 9.21.05.12.04.07.09.21.04.09.06.15.06.15.15.38.28.9.41 1.47.5 2.28.67 4.62.55 6.95-.54 10.6-3.31 25.66-3.31 25.66zM2236.06 527.35s9.58-7.09 11.09 1.13l-1.71 53.81s-4.09 10.24-8.58 1.09l-.8-56.03zM2252.47 528.1s10.07-5.95 10.97 1.98l-5.7 50.91s-4.84 9.38-8.63.33l3.36-53.22zM2268.55 530.61s7.68-6.01 7.89 1.88l-6.98 50.74s-4.05 9.38-6.31.4l5.4-53.02zM2282.13 532.94s7.96-5.21 7.77 2.32l-9.55 47.9s-4.52 8.67-6.32-.04l8.1-50.18z"/><path class="st39" d="M2296.36 539.06s7.23-1.46 7.85 1.88l-4.24 20.33s-3.5 3.38-6.19-.7l2.58-21.51z"/></g><path class="st17" d="M2144.02 556.6s29.39-87.39 123.93-65.2c0 0 72.24 19.57 85.85 92.45 0 0-9.23-100.84-95.03-110.48-85.8-9.65-113.32 59.93-114.75 83.23z"/><path class="st40" d="M2159.34 548.84s-.06.24-.17.71c-1.64 6.94-5.92 58.13-4.63 78.34 0 0 16.95 58.69 2.51 74.37l-6.11 20.65 2.41-15.7s-7.84 16.6-7.01 15.21c.82-1.39-1.07-7.04-1.07-7.04l-4.18 14.27.41-11.43-5.63 11.32 3.41-10.77-5.36 7.72 1.26-8.1-5.69 9.22 2.08-9.49-8.46 12.28 3.42-10.77-6.08 8.61 2.15-7.38-5.03 6.22 3.08-9.27-5.53 6.11 3.25-7.67-10.73 10.73 5.8-9.72-8.47 7.56 3.86-8.05-8.91 9.56 4.63-11.55-7.02 10.5 4.03-11.16-6.15 6.5 3.87-8.05-8.14 6.06 4.87-7.83-12.74 5.58 9.13-10.56-8.36 7.06 4.47-8.44-6.64 6.39 3.76-7.55-4.98 3.62 3.82-5.44-12.97 6.58 7.19-8.89-8.59 3.35 5.09-4.12-8.26 1.85 6.03-6.01-6.38 2.79 5.93-5.5s-13.69 2.75-12.08 2.58c1.61-.17 11.68-7.9 11.68-7.9l-9.2 3.74 7.64-6.18s-8.26 1.85-6.65 1.68c1.61-.17 7.2-4.17 7.2-4.17s-14.52 4.14-12.92 3.96c1.61-.17 10.53-5.02 10.53-5.02l-9.98 2.52 8.2-3.95s-10.09 3.02-8.37 2.35c1.72-.67 6.7-4.29 6.7-4.29l-7.82-.14 7.38-2.57s-7.71-.65-6.11-.82c1.61-.17 6.76-2.18 6.76-2.18s-13.88-3.57-11.77-3.63c2.11-.06 12.25-.97 12.25-.97s-11.27-3.52-9.77-3.19c1.5.33 8.43-.24 8.43-.24l-5.56-3.31 4.71-.01s-12.66-4.35-10.05-4.3c2.61.05 11.54-.08 11.54-.08l-8.22-5.47 7.1 1.03s-7.84-4.86-6.34-4.53c1.49.33 6.21.32 6.21.32s-11.26-3.52-9.27-3.08c2 .44 8.43-.25 8.43-.25s-10.38-2.8-8.88-2.47c1.5.33 8.93-.13 8.93-.13l-7.17-3.14 7.04-1.07-8.28-7.58 9.16 3.59s-7.89-6.97-6.39-6.64c1.5.33 6.39 1.93 6.39 1.93l-8.06-8.58 8.33 4.97-8.45-9.18 6.16 2.92-7.78-7.47 7.1 1.04-5.83-4.42 5.71.21-6.44-4.03 9.6 1.58-8.44-4.47 7.32.04-5.16-2.71 5.49 1.21-8.07-8.57 7.84 4.86-3.57-7.59 4.23 4.6-.98-12.26 5.07 7.92-1.04-14.36 3.96 8.2.09-9.93 2.67 6.87.42-11.43 2.63 9.48-.53-14.25 6.72 5.14-.29-5.82 2.34 3.65 1.08-14.42 2.25 13.58 1.23-17.53 2.53 14.69 3.78-19.59 1.8 10.87 1.04-7.1 2.12 4.66.88-4 2.01 5.15 3.18-14.48-.14 12.53 2.69-9.88.79 5.93 1.04-7.1 1.18 6.54 2.2-5.27.9 5.43 2.2-5.27 1.01 4.93 3.37-8.16 1.24 8.65 4.25-7.44-1.43 6.5 4.58-8.94.02 9.43 3.43-6.05-.32 6.21 4.04-6.44-1.21 5.5 3.1-4.56-2.26 7.88 5.64-6.61-1.09 4.99 3.98-3.84-1.1 5 1.01 4.94 1.29 6.04 3.71-4.94-1.65 7.49 3.7-4.94-1.81 5.88M2327.39 544.35s.08.24.21.7c2.04 6.84 9.21 57.7 9.07 77.95 0 0-13.6 59.56 1.71 74.39l7.27 20.27-3.29-15.54s8.77 16.13 7.86 14.79c-.9-1.34.67-7.09.67-7.09l4.98 14.01-1.06-11.38 6.26 10.98-4.01-10.55 5.79 7.4-1.71-8.02 6.21 8.89-2.62-9.36 9.14 11.78-4.02-10.56 6.56 8.25-2.56-7.25 5.38 5.93-3.61-9.08 5.87 5.79-3.68-7.47 11.32 10.11-6.34-9.37 8.88 7.07-4.31-7.82 9.44 9.04-5.28-11.27 7.6 10.09-4.65-10.92 6.5 6.14-4.32-7.81 8.48 5.59-5.3-7.54 13.04 4.84-9.72-10.03 8.75 6.58-4.94-8.17 6.99 6.01-4.18-7.33 5.18 3.33-4.12-5.22 13.32 5.83-7.69-8.47 8.77 2.86-5.32-3.82 8.35 1.38-6.36-5.65 6.52 2.42-6.23-5.16s13.83 1.97 12.21 1.89c-1.61-.08-12.11-7.23-12.11-7.23l9.4 3.21-7.98-5.73s8.35 1.38 6.74 1.3c-1.62-.08-7.43-3.76-7.43-3.76s14.73 3.3 13.12 3.22c-1.61-.07-10.8-4.41-10.8-4.41l10.11 1.95-8.41-3.48s10.24 2.44 8.49 1.87c-1.75-.57-6.93-3.9-6.93-3.9l7.8-.59-7.51-2.15s7.66-1.08 6.05-1.16c-1.62-.08-6.88-1.79-6.88-1.79s13.65-4.35 11.54-4.29c-2.11.06-12.29-.28-12.29-.28s11.05-4.15 9.57-3.74c-1.47.41-8.43.24-8.43.24l5.36-3.62-4.7.26s12.39-5.06 9.79-4.87c-2.6.2-11.52.57-11.52.57l7.9-5.93-7.03 1.43s7.55-5.3 6.07-4.88c-1.47.41-6.18.67-6.18.67s11.05-4.15 9.08-3.6c-1.97.55-8.44.23-8.44.23s10.21-3.39 8.73-2.97c-1.48.41-8.92.38-8.92.38l6.97-3.54-7.09-.67 7.84-8.04-8.94 4.1s7.48-7.41 6.01-6.99c-1.48.41-6.27 2.28-6.27 2.28l7.56-9.02-8.03 5.43 7.91-9.65-5.99 3.27 7.34-7.9-7.03 1.44 5.57-4.74-5.69.53 6.21-4.39-9.5 2.12 8.17-4.94-7.3.46 5-3-5.42 1.52 7.57-9.02-7.55 5.3 3.13-7.78-3.96 4.83.28-12.3-4.61 8.19.22-14.4-3.49 8.41-.65-9.91-2.28 7.01-1.07-11.38-2.08 9.61-.28-14.26-6.42 5.52-.04-5.83-2.13 3.78-1.89-14.34-1.48 13.69-2.23-17.43-1.69 14.81-4.88-19.35-1.18 10.95-1.44-7.03-1.85 4.77-1.1-3.94-1.71 5.26-4-14.28.85 12.51-3.25-9.71-.45 5.97-1.44-7.03-.81 6.59-2.5-5.14-.59 5.48-2.5-5.14-.73 4.98-3.82-7.96-.75 8.71-4.67-7.19 1.79 6.41-5.08-8.67.51 9.41-3.77-5.85.67 6.18-4.39-6.2 1.52 5.42-3.35-4.37 2.7 7.74-6.01-6.28 1.38 4.93-4.19-3.61 1.38 4.93-.73 4.99-.95 6.1-3.98-4.72 2.07 7.38-3.98-4.72 2.15 5.77"/><g><path class="st41" d="M2332.81 634.57c-9.76-1.13-29.35-2.73-29.37-2.48-1.88 0-3.78-.17-5.64.03-9.62 1.06-19.26 2.05-28.84 3.42-3.31.47-6.49 1.99-6.87 6.15-.74 8.16-.19 16.19 2.49 24.01 1.47 4.28 4.22 7.18 8.62 8.41 16.68 4.66 33.41 5.08 50.14.39 4.42-1.24 8.24-3.53 10.38-7.93 3.67-7.54 5.52-15.5 5.63-23.87.05-4.51-1.78-7.57-6.54-8.13z"/><path d="M2344.94 630.13c-25.79-4.64-51.6-3.56-77.41-.3-6.83.86-13.44 2.61-20.39 2.78-6.95-.17-13.54-1.92-20.37-2.78-25.82-3.25-51.62-4.34-77.4.3-5.75 1.03-6.09 1.56-5.29 7.13.72 5 .21 10.54 5.79 13.62.86.47 1.05 2.29 1.41 3.51.7 2.35 1.38 4.73 1.95 7.11 2.58 10.85 9.2 16.79 20.49 17.97 16.56 1.73 32.94 1.48 49.22-2.27 4.9-1.13 8.44-3.69 10.3-8.35 2.14-5.36 4.32-10.69 6.18-16.16 1.31-3.86 3.41-6.14 7.72-6.15 4.31.01 6.41 2.29 7.72 6.15 1.86 5.47 4.04 10.79 6.18 16.16 1.87 4.67 5.4 7.22 10.3 8.35 16.28 3.75 32.66 4 49.22 2.27 11.29-1.18 17.91-7.12 20.49-17.97.57-2.39 1.25-4.76 1.95-7.11.37-1.23.56-3.04 1.41-3.51 5.59-3.08 5.07-8.62 5.79-13.62.84-5.56.49-6.09-5.26-7.13zm-115.2 35.57c-1.46 4.28-4.22 7.18-8.62 8.41-16.67 4.66-33.4 5.08-50.13.39-4.42-1.24-8.24-3.53-10.38-7.93-3.66-7.54-5.52-15.5-5.63-23.87-.06-4.51 1.77-7.58 6.53-8.13 9.76-1.14 29.35-2.73 29.37-2.48 1.88 0 3.78-.18 5.64.03 9.63 1.06 19.27 2.05 28.85 3.42 3.31.47 6.49 1.98 6.87 6.15.73 8.17.18 16.2-2.5 24.01zm103.97.88c-2.14 4.4-5.96 6.69-10.38 7.93-16.73 4.69-33.46 4.27-50.13-.39-4.4-1.23-7.16-4.13-8.62-8.41-2.68-7.82-3.24-15.84-2.49-24.01.38-4.16 3.56-5.67 6.87-6.15 9.58-1.37 19.22-2.36 28.85-3.42 1.86-.2 3.76-.03 5.64-.03.02-.26 19.61 1.34 29.37 2.48 4.77.55 6.59 3.62 6.53 8.13-.12 8.37-1.98 16.33-5.64 23.87z" fill="#515252"/><path class="st41" d="M2161.51 634.57c9.76-1.13 29.35-2.73 29.37-2.48 1.88 0 3.78-.17 5.65.03 9.62 1.06 19.26 2.05 28.84 3.42 3.31.47 6.49 1.99 6.87 6.15.74 8.16.19 16.19-2.49 24.01-1.47 4.28-4.22 7.18-8.62 8.41-16.68 4.66-33.41 5.08-50.14.39-4.42-1.24-8.24-3.53-10.38-7.93-3.67-7.54-5.52-15.5-5.63-23.87-.06-4.51 1.76-7.57 6.53-8.13z"/></g></g></svg>