<svg xmlns="http://www.w3.org/2000/svg" xmlns:xlink="http://www.w3.org/1999/xlink" viewBox="0 0 382.7 311.8"><style>.st6{font-family:&apos;ArialMT&apos;}.st7{font-size:10px}.st9{display:inline}.st10{enable-background:new}.str11{font-weight:700}</style><g id="Layer_1"><defs><path id="SVGID_1_" d="M171.8 32.9c12.1-7 27.1-7 39.2 0l77 44.5a39.2 39.2 0 0 1 19.6 33.9v88.9c0 14-7.5 26.9-19.6 33.9l-77 44.5c-12.1 7-27.1 7-39.2 0l-77-44.5a39.2 39.2 0 0 1-19.6-33.9v-88.9c0-14 7.5-26.9 19.6-33.9l77-44.5z"/></defs><clipPath id="SVGID_2_"><use xlink:href="#SVGID_1_" overflow="visible"/></clipPath><g clip-path="url(#SVGID_2_)"><g stroke="#fff" stroke-linejoin="round"><path d="M181.5 16.6a129.3 129.3 0 0 1 16.4 257.6L181.6 146l-.1-129.4z" fill="#4b9fd8" transform="translate(10 10)"/><path d="M197.8 274.2c-27 3.4-54.4-1.8-78.3-14.9l62.1-113.4 16.2 128.3z" fill="#686868" transform="translate(10 10)"/><path d="M119.3 259.2a129.2 129.2 0 0 1-64.8-137.4l127 24.1-62.2 113.3z" fill="#9169ad" transform="translate(10 10)"/><path d="M54.6 121.7a129 129 0 0 1 50.9-80.3l76.1 104.5-127-24.2z" fill="#3cc0c4" transform="translate(10 10)"/><path d="M105.6 41.3a129 129 0 0 1 75.8-24.7l.2 129.3-76-104.6z" fill="#6e84c3" transform="translate(10 10)"/></g></g></g><g id="Original_Text"><text transform="translate(311.3 146)" class="st6 st7">Experienced</text><text transform="translate(311.3 158)" class="st6 st7">Practitioners:</text><text transform="translate(311.3 170)" class="st6 st7 str11">48%</text><text transform="translate(10.7 196.2)" class="st6 st7">Senior</text><text transform="translate(10.7 208.2)" class="st6 st7">Management:</text><text transform="translate(10.7 220.2)" class="st6 st7 str11">20%</text><g><text transform="translate(17.3 89.6)" class="st6 st7">C-Suite:</text><text transform="translate(56.2 89.6)" class="st6 st7 str11">12%</text></g><g><text transform="translate(104.7 27.6)" class="st6 st7">Founder /</text><text transform="translate(104.7 39.6)" class="st6 st7">CEO:</text><text transform="translate(131.9 39.6)" class="st6 st7 str11">10%</text></g><g><text transform="translate(125.9 286.8)" class="st6 st7">Junior /</text><text transform="translate(125.9 298.8)" class="st6 st7">Entry Level:</text><text transform="translate(181.5 298.8)" class="st6 st7 str11">10%</text></g></g></svg>