<?xml version="1.0" encoding="utf-8"?>
<!-- Generator: Adobe Illustrator 22.1.0, SVG Export Plug-In . SVG Version: 6.00 Build 0)  -->
<svg version="1.1" id="Layer_1" xmlns="http://www.w3.org/2000/svg" xmlns:xlink="http://www.w3.org/1999/xlink" x="0px" y="0px"
	 viewBox="0 0 100 125" style="enable-background:new 0 0 100 125;" xml:space="preserve">
<style type="text/css">
	.st0{fill:#FF0000;}
</style>
<g>
	<polygon class="st0" points="56,30.9 72.9,30.9 72.9,71.4 	"/>
	<polygon class="st0" points="44,30.9 27.1,30.9 27.1,71.4 	"/>
	<polygon class="st0" points="50,45.9 60.8,71.4 53.7,71.4 50.5,63.3 42.6,63.3 	"/>
	<g>
		<path d="M30.3,90.1l-0.7,3.5c0,0.1-0.1,0.2-0.2,0.2h-2.1c-0.1,0-0.2,0-0.2-0.2l3-12.7c0.1-0.4,0.1-0.6,0.1-1.2
			c0-0.1,0-0.1,0.1-0.1h3.1c0.1,0,0.2,0,0.2,0.2l3.5,14c0,0.1,0,0.2-0.1,0.2h-2.4c-0.1,0-0.2-0.1-0.2-0.2l-0.8-3.5H30.3z M33,87.7
			c-0.3-1.6-0.9-4.1-1.1-5.7h0c-0.2,1.6-0.7,3.7-1,5.7H33z"/>
		<path d="M37.4,88.3c0-3.3,1.9-5.8,5-5.8h0.4v-3.8c0-0.1,0-0.1,0.1-0.1h2.4c0.1,0,0.1,0,0.1,0.1v12.8c0,0.3,0,0.8,0.1,1.5
			c0,0.1,0,0.1-0.1,0.2c-0.9,0.5-2.1,0.8-3.2,0.8C39.2,93.9,37.4,92.1,37.4,88.3z M42.7,84.9c-0.1,0-0.2-0.1-0.5-0.1
			c-1.2,0-2.2,1.1-2.2,3.4c0,2.4,0.9,3.3,2.2,3.3c0.2,0,0.4,0,0.5-0.1V84.9z"/>
		<path d="M54.9,88.2c0,3.5-1.5,5.8-4.1,5.8c-2.9,0-4.1-2.5-4.1-5.8c0-3.3,1.5-5.7,4.1-5.7C53.4,82.5,54.9,84.6,54.9,88.2z
			 M49.3,88.2c0,2.1,0.4,3.4,1.4,3.4c1,0,1.4-1.2,1.4-3.4c0-2.1-0.4-3.4-1.4-3.4C49.9,84.8,49.3,85.9,49.3,88.2z"/>
		<path d="M58.8,78.6c0.1,0,0.1,0,0.1,0.1v3.9c0.3-0.1,0.7-0.1,1.2-0.1c2.3,0,4.1,1.8,4.1,5.2c0,4-2.3,6.2-5.2,6.2
			c-0.8,0-1.7-0.1-2.6-0.4c-0.1,0-0.1-0.1-0.1-0.2V78.7c0-0.1,0-0.1,0.1-0.1H58.8z M59.7,84.9c-0.2,0-0.6,0-0.8,0.1v6.6
			c0.2,0,0.3,0,0.5,0c1,0,2.2-1,2.2-3.8C61.6,85.6,60.7,84.9,59.7,84.9z"/>
		<path d="M67.8,88.8c0,1.7,0.6,2.8,2.5,2.8c0.6,0,1.1-0.1,1.7-0.3c0.1,0,0.2,0,0.2,0.1v1.9c0,0.2,0,0.2-0.2,0.3
			c-0.6,0.3-1.5,0.4-2.2,0.4c-3.3,0-4.5-2.4-4.5-5.6c0-3.3,1.5-5.9,4.1-5.9c2.7,0,3.5,2.4,3.5,4.4c0,0.7-0.1,1.4-0.1,1.7
			c0,0.1-0.1,0.2-0.2,0.2c-0.2,0-0.9,0.1-2.1,0.1H67.8z M69.7,86.7c0.4,0,0.6,0,0.7,0c0-0.1,0-0.2,0-0.2c0-0.8-0.3-1.7-1.2-1.7
			c-0.9,0-1.2,0.9-1.4,2H69.7z"/>
	</g>
</g>
</svg>
