<?xml version="1.0" encoding="utf-8"?>
<!-- Generator: Adobe Illustrator 21.1.0, SVG Export Plug-In . SVG Version: 6.00 Build 0)  -->
<svg version="1.1" id="Layer_1" xmlns="http://www.w3.org/2000/svg" xmlns:xlink="http://www.w3.org/1999/xlink" x="0px" y="0px"
	 viewBox="0 0 348 133.5" style="enable-background:new 0 0 348 133.5;" xml:space="preserve">
<style type="text/css">
	.st0{fill:url(#HEXAGON_1_);}
	.st1{fill:#FFFFFF;}
	.st2{fill:#2F2F2F;}
</style>
<g>
	<g id="BACKGROUND">
		
			<linearGradient id="HEXAGON_1_" gradientUnits="userSpaceOnUse" x1="20.4569" y1="39.9253" x2="124.7431" y2="88.5547" gradientTransform="matrix(1 0 0 -1 0 130.99)">
			<stop  offset="0" style="stop-color:#9F69F7"/>
			<stop  offset="0.116" style="stop-color:#8578F4"/>
			<stop  offset="0.367" style="stop-color:#5096ED"/>
			<stop  offset="0.4898" style="stop-color:#3CA2EB"/>
			<stop  offset="0.5428" style="stop-color:#35A7E7"/>
			<stop  offset="0.8415" style="stop-color:#10C3D4"/>
			<stop  offset="1" style="stop-color:#02CECD"/>
		</linearGradient>
		<path id="HEXAGON" class="st0" d="M63.8,11.4c5.5-3.1,12.2-3.1,17.6,0c9.6,5.6,25,14.4,34.7,20c5.5,3.1,8.8,9,8.8,15.3v40
			c0,6.3-3.4,12.1-8.8,15.3c-9.6,5.6-25,14.4-34.7,20c-5.5,3.1-12.2,3.1-17.6,0c-9.6-5.6-25-14.4-34.7-20c-5.5-3.1-8.8-9-8.8-15.3
			v-40c0-6.3,3.4-12.1,8.8-15.3C38.8,25.8,54.1,16.9,63.8,11.4z"/>
	</g>
	<g id="LOGO_ELEMENTS">
		<path id="LOGO_TOP_RIGHT" class="st1" d="M89.7,34.9h0.6c0.1,0,0.3,0,0.4,0.1h0.1c0,0,0.1,0,0.3,0.1c0.1,0,0.3,0.1,0.4,0.1
			c0.5,0.3,0.9,0.6,1.3,1.1c0.1,0.3,0.3,0.5,0.4,0.6c0,0.1,0,0.1,0.1,0.3c0,0.1,0,0.3,0.1,0.4v19.9c0,0.5-0.1,1-0.3,1.5
			c-0.1,0.6-0.4,1.4-0.6,1.9c-0.3,0.6-0.6,1.3-1.1,1.9c-0.5,0.8-1.3,1.5-1.9,2.2c-0.4,0.4-0.8,0.6-1.3,1c-0.1,0-0.1,0.1-0.3,0.1
			h-0.3c0,0-0.3-0.1-0.4-0.1h-0.1L87,66l-0.8-0.4l-1.5-0.8c-0.9-0.4-1.6-0.6-2.5-1L81,63.5l-0.5-0.1l-0.1-0.3l-0.1-0.3v-0.3l0.1-0.3
			c0.1,0,0.1-0.1,0.3-0.1h0.1c0.1,0,0.1,0,0.3-0.1c0.4-0.1,0.8-0.4,1.3-0.6c0.3-0.1,0.6-0.4,0.9-0.5s0.4-0.3,0.6-0.5
			c0.1-0.1,0.4-0.3,0.5-0.4l0.4-0.4c0.1-0.1,0.1-0.3,0.3-0.3l0.3-0.3c0.4-0.5,0.8-1.1,0.9-1.8V57V38.3v-0.5v-0.3
			c0-0.1,0.1-0.3,0.1-0.4c0.1-0.4,0.4-0.9,0.8-1.1c0.4-0.4,0.8-0.6,1.3-0.9c0.1,0,0.1,0,0.3-0.1c0.1,0,0.3-0.1,0.4-0.1L89.7,34.9
			C89.5,34.9,89.7,34.9,89.7,34.9z"/>
		<path id="LOGO_BOTTOM" class="st1" d="M93.1,89.1v-0.4c0-0.3-0.1-0.5-0.1-0.8c-0.1-0.5-0.5-0.9-0.9-1.3c-0.4-0.4-0.8-0.6-1.1-0.8
			c-0.3-0.1-0.5-0.1-0.8-0.3h-0.4h-0.5c-0.3,0-0.5,0.1-0.8,0.1l-0.8,0.4L87,86.9c-0.3,0.4-0.5,0.6-0.6,1c-0.1,0.3-0.1,0.5-0.1,0.8
			v3.2H59v-2.8v-0.4c0-0.3-0.1-0.5-0.3-0.8c-0.1-0.4-0.4-0.6-0.6-1c-0.3-0.3-0.5-0.5-0.9-0.8c-0.3-0.1-0.6-0.3-0.9-0.4
			c-0.4-0.1-0.8-0.1-1.1-0.1c-0.4,0-0.8,0.1-1.1,0.3c-0.4,0.1-0.8,0.4-1.1,0.8c-0.4,0.3-0.6,0.6-0.8,1.1c-0.1,0.3-0.3,0.6-0.3,1v7.4
			c0,0,0.1,0.3,0.1,0.4c0,0.1,0,0.1,0.1,0.3c0.3,0.5,0.5,0.9,0.9,1.3c0.4,0.3,0.8,0.5,1.1,0.6c0.1,0,0.3,0.1,0.4,0.1H90
			c0,0,0.3-0.1,0.4-0.1s0.1,0,0.3-0.1c0.5-0.3,0.9-0.5,1.3-0.9c0.3-0.4,0.5-0.6,0.6-1.1c0-0.1,0.1-0.3,0.1-0.4v-0.4v-0.4
			C92.7,95.4,93.1,89.1,93.1,89.1z"/>
		<path id="LOGO_BOTTOM_RIGHT" class="st1" d="M52,78.2v-0.3c0-0.4,0-0.8,0.1-1.3l0.4-1.9c0.3-0.8,0.5-1.4,0.9-2
			c0.4-0.6,0.8-1.1,1.1-1.6c0.5-0.6,1.1-1.3,1.9-1.9c0.3-0.3,0.6-0.5,0.9-0.8l0.3-0.1h0.3c0.1,0,0.1,0,0.3,0.1h0.3l0.1,0.1
			c0.4,0.3,0.6,0.4,1,0.5c0.6,0.4,1.4,0.8,2.2,1l1.9,0.8l1.1,0.4l0.3,0.1l0.1,0.3l0.1,0.3v0.3c0,0-0.3,0.4-0.4,0.4
			c0,0-0.8,0.3-0.9,0.4c-0.6,0.3-1.1,0.5-1.6,0.9c-0.5,0.3-1,0.6-1.4,1c-0.5,0.5-1,1-1.3,1.8c0,0.1-0.1,0.3-0.1,0.4
			c-0.1,0.3-0.1,0.6-0.1,0.9v1.1c0,0.4-0.1,0.6-0.3,0.9c-0.3,0.4-0.5,0.8-0.8,1c-0.4,0.3-0.8,0.5-1.1,0.6c-0.4,0.1-0.8,0.3-1.1,0.3
			c-0.4,0-0.8,0-1.1-0.1c-0.4-0.1-0.8-0.3-1-0.5c-0.5-0.4-1-0.9-1.4-1.5C52.4,79.3,52,78.2,52,78.2z"/>
		<path id="LOGO_PERSON" class="st1" d="M59.7,36.5c0.1,0.3,0.3,0.5,0.4,0.9c0,0.1,0,0.3,0.1,0.4v19.5c0,0.3,0,0.4,0.1,0.6
			c0,0.3,0.1,0.4,0.3,0.6c0,0.1,0.1,0.3,0.3,0.4c0,0.1,0.1,0.3,0.1,0.4c0.5,0.8,1.1,1.4,1.8,1.9c0.1,0.1,0.3,0.1,0.4,0.3
			c0.1,0.1,0.4,0.3,0.5,0.4l0.8,0.4c0.3,0.1,0.6,0.3,1,0.4c0.5,0.1,0.9,0.3,1.4,0.4c0.6,0.1,1.1,0.3,1.8,0.4
			c0.8,0.1,1.5,0.3,2.3,0.3c0.5,0,0.9,0,1.4,0.1h1.9c1.3,0,2.4,0.1,3.7,0.4c0.5,0.1,1,0.1,1.5,0.3c0.4,0.1,0.8,0.1,1.1,0.3
			c2.3,0.6,4.4,1.5,6.3,2.7c0.3,0.1,0.5,0.4,0.8,0.5c0.4,0.3,0.8,0.5,1,0.8c0.4,0.4,0.8,0.6,1.1,1l0.6,0.6c0.1,0.3,0.4,0.4,0.5,0.6
			c0.4,0.5,0.6,1,0.9,1.5c0.4,0.6,0.6,1.4,0.9,2c0.3,0.6,0.4,1.4,0.4,2.2v1.6c0,0.4-0.1,0.6-0.3,1s-0.4,0.8-0.8,1
			c-0.3,0.3-0.6,0.5-1,0.8c-0.4,0.1-0.8,0.3-1.1,0.3s-0.8,0-1.1-0.1c-0.4-0.1-0.6-0.3-0.9-0.4c-0.4-0.3-0.6-0.5-0.9-0.8
			c-0.3-0.3-0.4-0.6-0.5-1c-0.1-0.3-0.1-0.6-0.3-1v-0.5V77c0,0,0-0.3-0.1-0.4c-0.3-0.8-0.6-1.4-1-1.9l-0.3-0.3l-0.3-0.3l-0.4-0.4
			c-0.1-0.1-0.4-0.3-0.5-0.4c-0.3-0.1-0.5-0.4-0.8-0.5c-0.4-0.1-0.6-0.4-1-0.5c-0.4-0.3-0.9-0.4-1.3-0.5c-0.5-0.1-1.1-0.4-1.6-0.5
			c-0.6-0.1-1.4-0.3-2.2-0.4c-0.6-0.1-1.1-0.1-1.8-0.1h-1h-1.8c-0.6,0-1.1,0-1.8-0.1c-1-0.1-2-0.1-3-0.4c-1.6-0.3-3.2-0.8-4.7-1.3
			c-0.6-0.3-1.1-0.5-1.8-0.8L60.2,68c-0.4-0.3-0.8-0.5-1.1-0.6c-0.8-0.5-1.5-1.1-2.2-1.8c-0.8-0.8-1.4-1.6-2-2.5
			c-0.4-0.6-0.6-1.1-0.9-1.8c-0.3-0.5-0.4-1.1-0.5-1.6c-0.1-0.5-0.1-1-0.3-1.5V37.7c0-0.1,0-0.3,0.1-0.4v-0.1c0,0,0-0.1,0.1-0.3
			c0-0.1,0.1-0.3,0.1-0.4c0.3-0.5,0.6-0.9,1.1-1.3c0.3-0.1,0.5-0.3,0.6-0.4c0.1,0,0.1,0,0.3-0.1c0.1,0,0.3,0,0.4-0.1h0.5
			c0,0,1.1,0,1.9,0.4C59.2,35.4,59.5,36.3,59.7,36.5z"/>
	</g>
</g>
<g id="_xA9_">
	<g>
		<path class="st2" d="M190.1,43.6c-0.4-0.1-0.9-0.2-1.5-0.3c-0.6-0.1-1.4-0.1-2.4-0.1c-1,0-1.8,0-2.4,0.1c-0.6,0.1-1.2,0.2-1.5,0.3
			c-0.4,0.1-0.6,0.3-0.8,0.5c-0.2,0.2-0.2,0.4-0.2,0.7v29.5c0,1.7-0.2,3.3-0.7,4.6c-0.5,1.4-1.1,2.5-2,3.4c-0.9,0.9-1.9,1.6-3.1,2.1
			c-1.2,0.5-2.6,0.7-4.2,0.7c-1.5,0-2.9-0.2-4.2-0.7c-1.3-0.5-2.3-1.2-3.2-2.1c-0.9-0.9-1.6-2.1-2.1-3.5c-0.5-1.4-0.7-3.1-0.7-5.1
			V44.8c0-0.3-0.1-0.5-0.2-0.7c-0.2-0.2-0.4-0.4-0.8-0.5c-0.4-0.1-0.9-0.2-1.5-0.3c-0.6-0.1-1.4-0.1-2.4-0.1c-1,0-1.8,0-2.4,0.1
			c-0.6,0.1-1.1,0.2-1.5,0.3c-0.4,0.1-0.7,0.3-0.8,0.5c-0.2,0.2-0.2,0.4-0.2,0.7v29.8c0,3.1,0.4,5.9,1.3,8.2
			c0.9,2.3,2.2,4.3,3.9,5.9c1.7,1.6,3.8,2.7,6.2,3.5c2.4,0.8,5.2,1.2,8.3,1.2c3.3,0,6.2-0.4,8.7-1.3c2.5-0.9,4.6-2.1,6.4-3.7
			c1.7-1.6,3-3.6,3.9-6c0.9-2.4,1.3-5.1,1.3-8.1V44.8c0-0.3-0.1-0.5-0.2-0.7C190.7,43.9,190.4,43.8,190.1,43.6z M235.6,88.7
			L224,67.2l10.9-20c0.4-0.9,0.7-1.6,0.9-2.2c0.1-0.5,0.1-0.9-0.2-1.2c-0.3-0.3-0.8-0.4-1.5-0.5c-0.7-0.1-1.7-0.1-3-0.1
			c-1.1,0-2,0-2.7,0.1c-0.6,0.1-1.1,0.1-1.5,0.2c-0.4,0.1-0.6,0.3-0.8,0.5c-0.2,0.2-0.3,0.5-0.5,0.8L217.2,61l-8.6-16.2
			c-0.2-0.3-0.3-0.6-0.5-0.8c-0.2-0.2-0.4-0.4-0.9-0.5c-0.4-0.1-1-0.2-1.6-0.2c-0.7-0.1-1.6-0.1-2.8-0.1c-1.4,0-2.6,0-3.3,0.1
			c-0.8,0.1-1.3,0.2-1.6,0.5c-0.3,0.3-0.4,0.7-0.2,1.2c0.2,0.5,0.5,1.3,0.9,2.2l10.9,20.1l-11.7,21.4c-0.5,0.9-0.8,1.6-0.9,2.1
			c-0.2,0.5-0.1,0.9,0.2,1.2c0.3,0.3,0.7,0.5,1.5,0.5c0.7,0.1,1.7,0.1,3,0.1c1.1,0,2.1,0,2.7-0.1c0.7-0.1,1.2-0.1,1.6-0.2
			c0.4-0.1,0.7-0.3,0.9-0.5c0.2-0.2,0.3-0.5,0.5-0.8l9.2-17.7l9.2,17.7c0.1,0.3,0.3,0.6,0.5,0.8c0.2,0.2,0.5,0.4,0.9,0.5
			c0.4,0.1,0.9,0.2,1.6,0.2c0.7,0,1.6,0.1,2.8,0.1c1.4,0,2.5,0,3.3-0.1c0.8-0.1,1.3-0.3,1.6-0.5c0.3-0.3,0.4-0.7,0.2-1.2
			C236.3,90.3,236,89.6,235.6,88.7z M276.6,49.5c-2.1-2-4.6-3.5-7.7-4.5c-3-1-6.8-1.5-11.1-1.5h-12.6c-0.8,0-1.5,0.2-2.1,0.7
			c-0.6,0.5-0.9,1.3-0.9,2.4v42.7c0,1.1,0.3,1.9,0.9,2.4c0.6,0.5,1.3,0.7,2.1,0.7H257c4.3,0,8.1-0.5,11.2-1.4c3.1-0.9,5.8-2.4,8-4.4
			c2.2-2,3.9-4.6,5.1-7.8c1.2-3.2,1.8-7,1.8-11.5c0-3.9-0.5-7.3-1.6-10.3C280.3,54,278.7,51.5,276.6,49.5z M271.8,75
			c-0.6,2.1-1.6,3.9-2.8,5.3c-1.3,1.4-2.8,2.5-4.7,3.2c-1.9,0.7-4.2,1.1-6.9,1.1h-5.2V51.3h5c3.1,0,5.5,0.4,7.4,1.2
			c1.9,0.8,3.4,2,4.6,3.4c1.2,1.5,2.1,3.2,2.6,5.2c0.5,2,0.8,4.2,0.8,6.5C272.7,70.4,272.4,72.9,271.8,75z M324.4,90.8
			c-0.1-0.5-0.4-1.2-0.9-2.1l-11.6-21.5l10.9-20c0.4-0.9,0.7-1.6,0.9-2.2c0.1-0.5,0.1-0.9-0.2-1.2c-0.3-0.3-0.8-0.4-1.5-0.5
			c-0.7-0.1-1.7-0.1-3-0.1c-1.1,0-2,0-2.7,0.1c-0.6,0.1-1.1,0.1-1.5,0.2c-0.4,0.1-0.6,0.3-0.8,0.5c-0.2,0.2-0.3,0.5-0.5,0.8
			L305.1,61l-8.6-16.2c-0.2-0.3-0.3-0.6-0.5-0.8c-0.2-0.2-0.4-0.4-0.9-0.5c-0.4-0.1-1-0.2-1.6-0.2c-0.7-0.1-1.6-0.1-2.8-0.1
			c-1.4,0-2.6,0-3.3,0.1c-0.8,0.1-1.3,0.2-1.6,0.5c-0.3,0.3-0.4,0.7-0.2,1.2c0.2,0.5,0.5,1.3,0.9,2.2l10.9,20.1l-11.7,21.4
			c-0.5,0.9-0.8,1.6-0.9,2.1c-0.2,0.5-0.1,0.9,0.2,1.2c0.3,0.3,0.7,0.5,1.5,0.5c0.7,0.1,1.7,0.1,3,0.1c1.1,0,2.1,0,2.7-0.1
			c0.7-0.1,1.2-0.1,1.6-0.2c0.4-0.1,0.7-0.3,0.9-0.5c0.2-0.2,0.3-0.5,0.5-0.8l9.2-17.7l9.2,17.7c0.1,0.3,0.3,0.6,0.5,0.8
			c0.2,0.2,0.5,0.4,0.9,0.5c0.4,0.1,0.9,0.2,1.6,0.2c0.7,0,1.6,0.1,2.8,0.1c1.4,0,2.5,0,3.3-0.1c0.8-0.1,1.3-0.3,1.6-0.5
			C324.5,91.8,324.5,91.4,324.4,90.8z"/>
	</g>
</g>
</svg>
