<svg id="Layer_1" xmlns="http://www.w3.org/2000/svg" viewBox="0 0 510.2 510.2"><style>.st1{fill:#fff}</style><path d="M86.3 421c123.5 104.4 365 56.9 412.8-73 41.1-111.6-60.5-284.9-210.6-310.6C178.6 18.5 43.9 79.1 11.3 193.8c-24.7 86.6 16.6 177.8 75 227.2z" fill="#3dbfc3" id="Layer_1_1_"/><g id="Layer_4"><g id="XMLID_996_"><g id="XMLID_41_"><path id="XMLID_4218_" class="st1" d="M298 199.6c1 1 2.4 1.5 3.7 1.5s2.7-.5 3.7-1.5c2-2 2-5.4 0-7.4l-.1-.1c-2-2-5.4-2-7.4 0-2.1 2-2.1 5.4.1 7.5z"/><path id="XMLID_4221_" class="st1" d="M382.4 249.1l18.2-18.2c1.5-1.5 1.9-3.7 1.1-5.7s-2.7-3.2-4.8-3.2h-37.8c-4.9-20.2-15.3-38.7-30.1-53.5-21.5-21.5-50.2-33.4-80.7-33.4s-59.1 11.9-80.7 33.4c-21.5 21.5-33.4 50.2-33.4 80.7s11.9 59.1 33.4 80.7c6.4 6.4 13.4 12 21 16.6l-15.8 27.9c-.9 1.6-.9 3.6 0 5.2s2.7 2.6 4.5 2.6h27c1.9 0 3.6-1 4.6-2.7l11.1-19.7c9.1 2.3 18.6 3.5 28.3 3.5s19.1-1.2 28.3-3.5l11.1 19.7c.9 1.6 2.7 2.7 4.6 2.7h27c1.9 0 3.6-1 4.5-2.6s1-3.6 0-5.2L308 346.3c7.5-4.6 14.6-10.2 21-16.6 14.8-14.8 25.2-33.3 30.1-53.5h37.8c2.1 0 4-1.3 4.8-3.2.8-2 .4-4.2-1.1-5.7l-18.2-18.2zm-9.6-5.3h-36.5l11.5-11.5h36.5l-11.5 11.5zM201.3 371.5h-14.9l11.4-20.1c3.9 1.9 7.9 3.6 12 5.1l-8.5 15zm108.9 0h-14.9l-8.5-15c4.1-1.5 8.1-3.2 12-5.1l11.4 20.1zm11.4-49.2c-6.9 6.9-14.6 12.7-22.9 17.4-.1 0-.2.1-.3.2-.1 0-.1.1-.2.1-6.4 3.5-13.1 6.3-20.1 8.4-.3.1-.5.1-.8.2-9.3 2.7-19 4.1-29 4.1s-19.7-1.4-29-4.1c-.3-.1-.5-.2-.8-.2-7-2.1-13.7-4.9-20.1-8.4-.1 0-.1-.1-.2-.1-.1-.1-.2-.1-.3-.2-8.3-4.6-16-10.4-22.9-17.4-19.6-19.6-30.3-45.6-30.3-73.3s10.8-53.7 30.3-73.3 45.6-30.3 73.3-30.3 53.7 10.8 73.3 30.3c12.9 12.9 22 28.7 26.7 46.1h-2.7c-1.4 0-2.7.6-3.7 1.5l-13.9 14c-1.4-9.5-4.5-18.8-9.1-27.2-1.4-2.5-4.6-3.4-7.1-2.1-2.5 1.4-3.4 4.6-2.1 7.1 5 9 7.7 18.8 8.5 28.6h-23.1c-1.2-10.6-5.8-20.4-13.5-28.1-8.9-8.9-20.7-13.8-33.3-13.8-12.6 0-24.4 4.9-33.3 13.8-8.9 8.9-13.8 20.7-13.8 33.3 0 12.6 4.9 24.4 13.8 33.3 8.9 8.9 20.7 13.8 33.3 13.8 12.6 0 24.4-4.9 33.3-13.8 7.6-7.6 12.3-17.5 13.5-28.1h23.1c-1.2 16.4-8.2 32.2-20.3 44.4-13.2 13.2-30.9 20.5-49.6 20.5s-36.3-7.3-49.6-20.5c-13.2-13.2-20.5-30.9-20.5-49.6s7.3-36.3 20.5-49.6c22-22 56.3-26.8 83.5-11.8 2.5 1.4 5.7.5 7.1-2.1 1.4-2.5.5-5.7-2.1-7.1-15-8.3-32.6-11.6-49.7-9.3-17.6 2.4-33.6 10.3-46.2 22.9-15.2 15.2-23.6 35.5-23.6 57s8.4 41.8 23.6 57c15.2 15.2 35.5 23.6 57 23.6s41.8-8.4 57-23.6c12.4-12.4 20.2-28 22.7-45.2l13.9 13.9c1 1 2.3 1.5 3.7 1.5h2.7c-4.7 17.5-13.9 33.4-26.7 46.2zm-56.2-83.1c-1.4-2.5-4.6-3.4-7.1-1.9l-12.6 7.3c-1.6.9-2.6 2.7-2.6 4.5s1 3.6 2.6 4.5l12.6 7.3c.8.5 1.7.7 2.6.7 1.8 0 3.6-.9 4.5-2.6.8-1.5.9-3.2.3-4.6h18.9c-1.1 7.8-4.7 15-10.4 20.7-6.9 6.9-16.1 10.7-25.9 10.7s-19-3.8-25.9-10.7c-6.9-6.9-10.7-16.1-10.7-25.9 0-9.8 3.8-19 10.7-25.9s16.1-10.7 25.9-10.7 19 3.8 25.9 10.7c5.7 5.7 9.2 12.9 10.4 20.7h-18.9c.6-1.6.5-3.3-.3-4.8zm82.4 26.6l-11.5-11.5h36.5l11.5 11.5h-36.5z"/></g></g></g></svg>