<?xml version="1.0" encoding="utf-8"?>
<!-- Generator: Adobe Illustrator 21.1.0, SVG Export Plug-In . SVG Version: 6.00 Build 0)  -->
<svg version="1.1" id="layer" xmlns="http://www.w3.org/2000/svg" xmlns:xlink="http://www.w3.org/1999/xlink" x="0px" y="0px"
	 viewBox="0 0 652 268.7" style="enable-background:new 0 0 652 268.7;" xml:space="preserve">
<style type="text/css">
	.st0{fill:#F58B1E;}
	.st1{fill:#E87322;}
	.st2{fill:#FCBD27;}
	.st3{fill:#C5C6C4;}
	.st4{fill:#9FA19F;}
	.st5{fill:#DFDFDC;}
	.st6{fill:#E4A822;}
	.st7{fill:#FFD92C;}
	.st8{fill:#F6BD27;}
	.st9{fill:#797B7E;}
</style>
<g>
	<path class="st0" d="M134.4,151.4c-2.9,11.2-5.7,22.7-8.5,34.5c12.5,8.1,24.7,16,36.9,22.8C153.4,191.1,144.1,171.6,134.4,151.4"/>
	<path class="st1" d="M134.4,151.4c11.2,8,22.1,16,32.8,23.5c-1.5,10.9-2.9,22.2-4.4,33.8C153.4,191.1,144.1,171.6,134.4,151.4"/>
	<path class="st1" d="M134.4,151.4c-2.9,11.2-5.7,22.7-8.5,34.5c-12.5-8-25.2-16.2-38-23.5C103.2,157.5,118.9,153.7,134.4,151.4"/>
	<path class="st2" d="M134.4,151.4c-11.1-8-22.6-15.8-34.1-22.9c-4.2,11.1-8.4,22.5-12.4,33.9C103.2,157.5,118.9,153.7,134.4,151.4"
		/>
	<path class="st0" d="M147.1,105.6c-1.9,6.4-3.8,13-5.7,19.9c10,8,19.7,16.3,29.2,24.2C162.8,135.8,155.1,120.9,147.1,105.6"/>
	<path class="st1" d="M147.1,105.6c9,8.1,17.7,16.5,26.1,24.7c-0.9,6.2-1.7,12.7-2.6,19.3C162.8,135.8,155.1,120.9,147.1,105.6"/>
	<path class="st2" d="M134.4,151.4c2.3-8.9,4.6-17.6,7-26c10,8,19.7,16.3,29.2,24.2C158.9,149,146.7,149.7,134.4,151.4"/>
	<path class="st0" d="M134.4,151.4c11.2,8,22.1,16,32.8,23.5c1.2-8.7,2.3-17.1,3.4-25.3C158.9,149,146.7,149.7,134.4,151.4"/>
	<path class="st3" d="M147.1,105.6c1.6-5.3,3.2-10.5,4.7-15.4c8.1,8.2,15.9,16.6,23.5,25C166.4,110.9,156.9,107.7,147.1,105.6"/>
	<path class="st4" d="M147.1,105.6c9,8.1,17.7,16.5,26.1,24.7c0.7-5.2,1.4-10.2,2-15.1C166.4,110.9,156.9,107.7,147.1,105.6"/>
	<path class="st4" d="M147.1,105.6c1.6-5.3,3.2-10.5,4.7-15.4c-8.1-8.2-16.5-16.1-25.2-23.4C133.6,79.8,140.4,92.9,147.1,105.6"/>
	<path class="st5" d="M147.1,105.6c-9-8.1-18.3-16-27.8-23.2c2.4-5.4,4.9-10.6,7.3-15.6C133.6,79.8,140.4,92.9,147.1,105.6"/>
	<path class="st1" d="M65.8,110.4c-5.4,11.3-10.6,22.7-15.8,33.8c12.3,4.6,25.1,10.9,37.9,18.2C80.6,144.6,73.2,127.1,65.8,110.4"/>
	<path class="st0" d="M65.8,110.4c11.4,4.8,23,11.1,34.5,18.1c-4.2,11.1-8.4,22.5-12.4,33.9C80.6,144.6,73.2,127.1,65.8,110.4"/>
	<g>
		<path class="st6" d="M65.8,110.4c-5.4,11.3-10.6,22.7-15.8,33.8c-12.3-4.6-24-7.3-34.3-7.2C30.4,125.3,47.5,116.3,65.8,110.4"/>
		<path class="st7" d="M65.8,110.4c-11.4-4.8-22.4-8.2-32.6-9.4c-6.1,12.2-11.8,24.3-17.4,36C30.4,125.3,47.5,116.3,65.8,110.4"/>
	</g>
	<path class="st7" d="M90.4,63c-3.8,6.7-7.6,13.7-11.3,20.8c-10.5-5.2-20.9-9.2-30.8-11.6C61.5,66.6,75.8,63.5,90.4,63"/>
	<path class="st8" d="M90.4,63c-9.7-5.6-19.4-10.2-28.9-13.5c-4.6,7.4-9,15-13.3,22.7C61.5,66.6,75.8,63.5,90.4,63"/>
	<path class="st8" d="M65.8,110.4c4.3-9,8.7-17.9,13.3-26.7c-10.5-5.2-20.9-9.2-30.8-11.6C54,84.3,59.9,97.1,65.8,110.4"/>
	<path class="st6" d="M65.8,110.4c-11.4-4.8-22.4-8.2-32.6-9.4c4.8-9.7,9.8-19.4,15.1-28.9C54,84.3,59.9,97.1,65.8,110.4"/>
	<path class="st4" d="M90.4,63c3.2-5.6,6.4-11,9.7-16.2c9,5.9,17.9,12.7,26.5,20.1C114.7,63.8,102.5,62.5,90.4,63"/>
	<path class="st3" d="M90.4,63c9.7,5.6,19.4,12.2,28.9,19.4c2.4-5.4,4.9-10.6,7.3-15.6C114.7,63.8,102.5,62.5,90.4,63"/>
	<path class="st8" d="M90.4,63c3.2-5.6,6.4-11,9.7-16.2c-9-5.9-18-11-26.9-15C78.9,41.8,84.7,52.2,90.4,63"/>
	<path class="st6" d="M90.4,63c-9.7-5.6-19.4-10.2-28.9-13.5c3.8-6.1,7.7-12.1,11.7-17.7C78.9,41.8,84.7,52.2,90.4,63"/>
	<g>
		<path class="st9" d="M239.9,218.9c-24,0-40.7-18.2-40.7-40.3c0-22.1,17-40.5,40.9-40.5c24,0,40.7,18.2,40.7,40.3
			S263.9,218.9,239.9,218.9 M239.9,150.7c-15.5,0-26.3,12.4-26.3,27.7c0,15.3,11,27.9,26.5,27.9c15.5,0,26.3-12.4,26.3-27.7
			C266.5,163.3,255.4,150.7,239.9,150.7z"/>
	</g>
	<path class="st9" d="M322.8,192.5h-15.5v25.1h-13.7v-78.1h30.8c18.2,0,29.7,10.3,29.7,26.2C354,183.3,340,192.5,322.8,192.5
		 M323.3,152h-16v28.1h16c10.4,0,16.8-5.7,16.8-14.1C340.1,156.8,333.5,152,323.3,152z"/>
	<polyline class="st9" points="399.4,217.6 385.6,217.6 385.6,152.2 360.8,152.2 360.8,139.5 424.2,139.5 424.2,152.2 399.4,152.2 
		399.4,217.6 	"/>
	<path class="st9" d="M503.2,183.8c0,23.3-13.2,35-33.6,35c-20.3,0-33.2-11.7-33.2-34.4v-45h13.7v44.4c0,14.5,7.5,22.3,19.7,22.3
		c12.2,0,19.6-7.4,19.6-21.7v-45h13.7V183.8"/>
	<polyline class="st9" points="556.5,198.4 556.1,198.4 531.6,161.8 531.6,217.6 518.1,217.6 518.1,139.5 532.7,139.5 556.5,176.4 
		580.3,139.5 594.9,139.5 594.9,217.6 581.2,217.6 581.2,161.6 556.5,198.4 	"/>
	<polyline class="st9" points="615.8,155.1 614,155.1 614,141.1 608.7,141.1 608.7,139.4 621,139.4 621,141.1 615.8,141.1 
		615.8,155.1 	"/>
	<polyline class="st9" points="631.8,150.8 631.8,150.8 626.1,142.4 626.1,155.1 624.3,155.1 624.3,139.4 626.1,139.4 631.8,148 
		637.5,139.4 639.3,139.4 639.3,155.1 637.5,155.1 637.5,142.4 631.8,150.8 	"/>
</g>
</svg>
