<?xml version="1.0" encoding="utf-8"?>
<!-- Generator: Adobe Illustrator 21.1.0, SVG Export Plug-In . SVG Version: 6.00 Build 0)  -->
<svg version="1.1" id="Layer_1" xmlns="http://www.w3.org/2000/svg" xmlns:xlink="http://www.w3.org/1999/xlink" x="0px" y="0px"
	 viewBox="-27 217 650 186" enable-background="new -27 217 650 186" xml:space="preserve">
<g>
	<g>
		<g>
			<path fill="#5B6064" d="M175.067,292.943h-3.271c-3.275,0-5.647-1.699-5.647-5.095v-2.062c0-3.272,2.373-5.09,5.769-5.09h3.517
				v-11.76c0-3.275,1.819-5.093,5.089-5.093h4.85c3.275,0,5.094,1.82,5.094,5.093v11.759h10.319c3.274,0,5.932,1.818,5.932,5.09
				v2.062c0,3.396-2.658,5.095-5.811,5.095h-10.441v24.854c0,9.218,5.7,11.037,9.944,11.523c3.756,0.354,6.438,1.58,6.438,4.978
				v3.753c0,3.636-3.406,5.097-7.65,5.097c-11.033,0-24.129-5.941-24.129-22.681L175.067,292.943L175.067,292.943z M292.072,304.337
				h2.543v-1.452c0-8.127-5.212-10.918-11.516-10.918c-4.267,0-8.209,1.13-11.096,2.464c-4.347,2.011-8.639,2.328-8.639-2.925
				v-2.917c0-3.054,0.274-4.792,4.403-6.367c4.16-1.591,10.129-2.984,16.661-2.984c16.006,0,25.587,8.97,25.587,24.61v33.588
				c0,3.398-1.7,5.088-5.093,5.088H300.8c-3.274,0-4.97-1.692-4.97-5.088v-2.424c0-1.703,0.239-2.671,0.239-2.671h-0.239
				c0,0-5.824,11.642-19.403,11.642c-11.272,0-20.49-7.276-20.49-18.551C255.94,307.371,278.252,304.337,292.072,304.337z
				 M280.554,332.23c8.61,0,14.186-8.733,14.186-16.256v-2.298h-2.549c-7.762,0-20.975,1.21-20.975,10.423
				C271.218,328.225,274.368,332.23,280.554,332.23z M323.318,337.441c0,3.397,1.694,5.088,4.97,5.088h5.335
				c3.273,0,4.975-1.694,4.975-5.088v-23.889c0-11.15,6.909-20.249,17.82-20.249c7.766,0,9.706,5.09,9.706,12.608v31.525
				c0,3.398,1.813,5.095,5.099,5.095h5.211c3.395,0,5.093-1.699,5.093-5.095v-34.67c0-16.372-7.884-23.524-21.58-23.524
				c-12.488,0-19.282,7.88-21.947,13.089h-0.244c0,0,0.244-1.452,0.244-2.786v-3.761c0-3.272-1.696-5.093-4.977-5.093h-4.729
				c-3.271,0-4.97,1.82-4.97,5.093v51.654h-0.006V337.441z M393.148,337.684c3.76,2.551,10.672,6.305,20.614,6.305
				c14.306,0,23.521-8.118,23.521-19.029c0-21.104-30.679-17.104-30.679-27.285c0-3.883,3.026-6.066,8.366-6.066
				c5.093,0,9.095,1.823,11.765,3.033c3.028,1.334,5.332,0.976,6.789-1.941l1.215-2.181c1.328-2.789,0.969-5.337-1.822-6.792
				c-3.271-1.82-8.971-4.485-17.219-4.485c-12.976,0-23.643,6.421-23.643,18.552c0,21.214,30.677,17.456,30.677,27.521
				c0,3.879-3.272,6.309-8.606,6.309c-6.306,0-10.914-2.672-13.823-4.245c-3.026-1.572-5.09-1.336-6.91,1.215l-1.452,2.182
				C390.113,333.441,390.355,336.107,393.148,337.684z M451.57,337.441c0,3.397,1.703,5.088,4.975,5.088h5.338
				c3.271,0,5.09-1.694,5.09-5.088v-44.5h9.1c3.271,0,4.969-1.699,4.969-5.095v-2.062c0-3.272-1.697-5.09-4.969-5.09h-9.1v-1.452
				c0-8.978,6.063-9.827,9.821-10.067c3.395-0.242,5.218-1.699,5.218-4.971v-3.154c0-3.394-0.009-5.09-3.28-5.09h-1.816
				c-6.307,0-25.334,3.033-25.334,22.674v2.063h-3.027c-3.278,0-4.972,1.817-4.972,5.092v2.06c0,3.396,1.696,5.095,4.972,5.095
				h3.027L451.57,337.441L451.57,337.441z M515.39,279.244c17.582,0,27.406,12.486,27.406,29.458c0,2.672-2.307,5.214-5.34,5.214
				h-37.712c0.973,11.154,9.214,16.979,18.552,16.979c5.698,0,10.43-2.183,13.337-4.002c3.032-1.457,5.219-1.093,6.791,1.695
				l1.452,2.426c1.463,2.793,0.974,5.219-1.693,6.789c-4.004,2.547-11.275,6.182-20.977,6.182
				c-20.491,0-33.223-14.791-33.223-32.368C483.984,292.577,496.837,279.244,515.39,279.244z M527.514,304.58
				c-0.238-8.606-5.459-13.697-12.49-13.697c-7.88,0-13.455,5.456-14.912,13.697H527.514z M552.775,337.441
				c0,3.397,1.697,5.088,4.969,5.088h5.337c3.27,0,4.972-1.694,4.972-5.088v-19.887c0-11.275,5.458-22.436,16.729-22.436
				c3.273,0,5.218-1.815,5.218-5.087v-4.729c0-3.396-1.215-5.093-4.61-5.093c-8.727,0-15.517,8.244-17.943,15.641h-0.247
				c0,0,0.371-1.941,0.371-4.246v-5.815c0-3.275-1.814-5.095-5.095-5.095h-4.729c-3.271,0-4.969,1.82-4.969,5.095L552.775,337.441
				L552.775,337.441z M217.49,337.441c0,3.397,1.7,5.088,4.971,5.088h5.336c3.272,0,4.973-1.694,4.973-5.088v-19.887
				c0-11.275,5.457-22.436,16.733-22.436c3.271,0,5.215-1.815,5.215-5.087v-4.729c0-3.396-1.214-5.093-4.611-5.093
				c-8.727,0-15.519,8.244-17.944,15.641h-0.243c0,0,0.364-1.941,0.364-4.246v-5.815c0-3.275-1.819-5.095-5.094-5.095h-4.727
				c-3.271,0-4.972,1.82-4.972,5.095L217.49,337.441L217.49,337.441z"/>
		</g>
	</g>
	<g>
		<g>
			<path fill="#0092D0" d="M26.895,336.582L10.68,290.68c-0.342-0.906-0.68-2.385-0.68-3.535c0-3.309,2.624-6.398,6.734-6.398
				c3.421,0,71.821,0,75.471,0c3.774,0,6.506,2.971,6.506,6.398c0,1.029-0.348,2.412-0.559,3.092L81.71,336.582
				c-1.494,4.22-4.349,6.158-7.646,6.158h-0.469c-3.414,0-6.274-1.938-7.54-5.914l-7.272-22.188c0,0-0.862-3.156-4.473-3.156
				c-3.627,0-4.545,3.156-4.545,3.156l-7.329,22.188c-1.272,3.976-4.11,5.914-7.433,5.914h-0.456
				C31.117,342.74,28.266,340.798,26.895,336.582z M153.188,326.16c-1.791-0.272-2.908,0.066-4.202,0.785
				c-2.911,1.814-7.641,4.004-13.34,4.004c-9.141,0-17.229-5.577-18.479-16.274c0,0,8.133,3.702,21.067,3.265
				c7.403-0.25,13.542-1.893,17.447-4.42c3.971-2.574,4.678-6.398,4.019-10.771c-2.079-13.829-11.533-23.455-26.964-23.455
				c-18.552,0-31.402,13.339-31.402,32.375c0,17.579,12.731,32.37,33.221,32.37c9.698,0,16.976-3.637,20.975-6.186
				c1.341-0.979,2.491-2.478,2.791-4.397C158.889,329.857,156.663,326.706,153.188,326.16z"/>
		</g>
	</g>
</g>
</svg>
