<svg id="Layer_1" xmlns="http://www.w3.org/2000/svg" viewBox="0 0 510.2 510.2"><style>.st0{fill:#856cb0}</style><g id="Layer_1_1_"><path class="st0" d="M19.2 234.5C32.3 119 151.6 28.6 249.8 32.1c165 5.8 308.8 277.6 205 388.7-61.2 65.6-216.7 83.8-326.2 18C52.4 393.1 10.2 313.6 19.2 234.5z"/><path d="M371 254c0 64.1-51.9 116-116 116-26.4 0-45-3.6-64.5-18.5-4.2-3.2-47.3 30.7-51 27-3.8-3.8 21.2-57.7 18-62-14.7-19.4-18.5-36.2-18.5-62.5 0-64.1 51.9-116 116-116s116 51.9 116 116z" fill="#fff" stroke="#fff" stroke-width="17" stroke-miterlimit="10"/><path class="st0" d="M250.4 190.1c-21.2 0-38.5 17.3-38.5 38.5 0 4.3 3.5 7.7 7.7 7.7s7.7-3.5 7.7-7.7c0-12.7 10.3-23 23-23s23 10.3 23 23-10.3 23-23 23c-4.3 0-7.7 3.5-7.7 7.7v31.6c0 4.3 3.5 7.7 7.7 7.7s7.7-3.5 7.7-7.7v-24.6c17.5-3.6 30.8-19.1 30.8-37.7.1-21.2-17.2-38.5-38.4-38.5zM249.4 307.7c-5 0-9.9 4.4-9.6 9.6.2 5.2 4.2 9.6 9.6 9.6 5 0 9.9-4.4 9.6-9.6-.2-5.1-4.2-9.6-9.6-9.6z"/></g></svg>