<svg xmlns="http://www.w3.org/2000/svg" viewBox="0 0 150 38">
  <path d="M2.7 32.3h4.9V20.9h14.1v-4.5H7.6V8.8h15.9V4.3H2.7v28zm30 .4a9 9 0 0 0 6.8-2.5c1.6-1.6 2.6-4.1 2.6-7.4V4.3h-5v18.3c0 3.7-1.8 5.5-4.4 5.5-2.4 0-4-1.2-5.6-3.3l-3.2 3.3a10 10 0 0 0 8.8 4.6zm33 0c8.6 0 14.7-6.6 14.7-14.5v-.1c-.1-7.8-6.1-14.3-14.7-14.3S51 10.4 51 18.3v.1c.1 7.8 6.1 14.3 14.7 14.3zm0-4.5c-5.6 0-9.5-4.5-9.5-10v-.1c0-5.4 3.9-9.9 9.4-9.9 5.6 0 9.5 4.5 9.5 10v.1c.1 5.5-3.8 9.9-9.4 9.9zm24 4.1h4.9v-9.8h6.2l6.9 9.8h5.8l-7.6-10.6c3.9-1.1 6.7-3.9 6.7-8.5v-.1c0-2.4-.8-4.5-2.3-6a11.2 11.2 0 0 0-8.1-2.8H89.7v28zm4.9-14.2V8.8h7.2c3.6 0 5.8 1.6 5.8 4.6v.1c0 2.8-2.2 4.7-5.8 4.7h-7.2v-.1zm27.5 14.2h10.4c8.8 0 14.9-6.1 14.9-14v-.1c0-7.9-6.1-13.9-14.9-13.9h-10.4v28zm4.9-4.5v-19h5.5c5.9 0 9.7 4 9.7 9.5v.1c0 5.5-3.8 9.4-9.7 9.4H127z"/>
</svg>
