<svg xmlns="http://www.w3.org/2000/svg" viewBox="0 0 263.44 364.39"><defs><style>.cls-1{fill:#00376e;}</style></defs><title>Labster-Logo-Compact-RGB</title><g id="Layer_2" data-name="Layer 2"><g id="Layer_1-2" data-name="Layer 1"><path class="cls-1" d="M12.45,311.79v41.37H38.67V363.4H0V311.79Z"/><path class="cls-1" d="M77.58,353.49c0,1.88.82,2.7,2.29,2.7a6.76,6.76,0,0,0,3-.66v6.31a12.29,12.29,0,0,1-7.7,2.38c-4.34,0-7.54-2.29-8.6-6.39-2,4.18-6.55,6.39-12.21,6.39-7.29,0-11.88-3.69-11.88-9.91,0-7,5.24-9.91,13.27-11.47L65.94,341v-.66c0-3.44-1.72-5.49-5.32-5.49-3.44,0-5.16,2.13-5.82,5.16l-11-.82c1.23-7.78,7-13.19,17.45-13.19,9.5,0,16.3,4.26,16.3,14.17Zm-11.63-6.23-6,1.23c-3.69.74-6,1.64-6,4.51,0,2.13,1.64,3.44,4.18,3.44,4.34,0,7.78-3.28,7.78-8.44Z"/><path class="cls-1" d="M94.94,363.4H85.85V311.79h11.8v21.79c1.8-4.34,6-7.54,12.29-7.54,10.65,0,16.22,8.52,16.22,19.17s-5.57,19.17-16.47,19.17c-6.06,0-10.65-3.11-12.62-7.54Zm2.7-17.78c0,5.9,3.36,9.58,8.27,9.58,5.57,0,8.27-4,8.27-10s-2.7-9.91-8.27-9.91c-4.92,0-8.27,3.69-8.27,9.5Z"/><path class="cls-1" d="M138.27,351.28c.49,3.52,3.28,5.49,7.7,5.49,3.2,0,5.32-1.15,5.32-3.11,0-1.8-1.15-2.79-4.1-3.28l-5.57-.9c-8.36-1.31-12.86-4.18-12.86-11.39,0-7,6.14-12,15.89-12,10.32,0,16.47,4.59,17.2,12.37l-9.75.33c-.57-3.19-3.11-5-7.62-5-2.95,0-4.75,1.23-4.75,3.2,0,1.47,1.15,2.38,2.95,2.62l7,1.23c7.95,1.23,12.53,4.75,12.53,11.72,0,7.62-6.47,11.88-16.38,11.88s-17.29-4-17.94-12.86Z"/><path class="cls-1" d="M169.15,335.31h-5.08V328.1l2.62-.41c3.6-.66,4.67-2.54,5.57-5.9l1.23-4.83h7.29V327h9.67v8.27h-9.67v15.16c0,3.11,1.47,4.42,4.26,4.42a14.49,14.49,0,0,0,5.9-1.47v7.78c-2.7,2-5.82,3.2-10.57,3.2-5.9,0-11.22-2.54-11.22-10.73Z"/><path class="cls-1" d="M231.65,351.44c-1.88,8.27-8.36,12.94-17.86,12.94-11.55,0-19.74-7-19.74-18.6S202.41,326,213.55,326c12,0,18.35,8.27,18.35,18.19v3.6H205.69c.33,4.83,3.93,7.62,8.52,7.62,4.1,0,6.64-1.56,7.95-4.92Zm-11.14-9.91c-.25-3.6-2.54-6.88-7-6.88-4.75,0-7,3-7.62,6.88Z"/><path class="cls-1" d="M262.7,338.58a11.69,11.69,0,0,0-6.23-1.47c-4.91,0-8.19,2.79-8.19,9.09v17.2h-11.8V327h11.8v6.64A10.87,10.87,0,0,1,258.36,326a8.32,8.32,0,0,1,5.08,1.47Z"/><polygon class="cls-1" points="127.96 286.2 263.44 187.76 149.72 146.37 127.96 162.19 127.96 286.2"/><polygon class="cls-1" points="119.11 292.63 0 249.33 0 0 119.11 43.35 119.11 292.63"/></g></g></svg>