<?xml version="1.0" encoding="utf-8"?>
<!-- Generator: Adobe Illustrator 22.0.0, SVG Export Plug-In . SVG Version: 6.00 Build 0)  -->
<svg version="1.1" id="Artwork" xmlns="http://www.w3.org/2000/svg" xmlns:xlink="http://www.w3.org/1999/xlink" x="0px" y="0px"
	 viewBox="0 0 490 225" style="enable-background:new 0 0 490 225;" xml:space="preserve">
<style type="text/css">
	.st0{fill:#BF0A46;}
	.st1{fill:#E62E4D;}
	.st2{fill:#FF7300;}
</style>
<ellipse transform="matrix(0.9239 -0.3827 0.3827 0.9239 -31.55 22.3876)" class="st0" cx="40.5" cy="90.5" rx="10.5" ry="10.5"/>
<ellipse transform="matrix(0.9239 -0.3827 0.3827 0.9239 -48.3881 25.7369)" class="st0" cx="40.5" cy="134.5" rx="10.5" ry="10.5"/>
<path class="st1" d="M355,155c-5.5,0-10-4.5-10-10v-35c0-11-9-20-20-20s-20,9-20,20c0,5.5-4.5,10-10,10s-10-4.5-10-10
	c0-22.1,17.9-40,40-40s40,17.9,40,40v35C365,150.5,360.5,155,355,155z"/>
<path class="st1" d="M230,195c-5.5,0-10-4.5-10-10s4.5-10,10-10c11,0,20-9,20-20v-45c0-5.5,4.5-10,10-10s10,4.5,10,10v45
	C270,177.1,252.1,195,230,195z"/>
<path class="st1" d="M102.5,155H75c-5.5,0-10-4.5-10-10s4.5-10,10-10h27.5c12.4,0,22.5-10.1,22.5-22.5S114.9,90,102.5,90H75
	c-5.5,0-10-4.5-10-10s4.5-10,10-10h27.5c23.4,0,42.5,19.1,42.5,42.5S125.9,155,102.5,155z"/>
<path class="st1" d="M448.2,155c-2.6,0-5.1-1-7.1-2.9l-37.1-36.9c-2-2-3.1-4.8-2.9-7.6c0.1-2.8,1.5-5.5,3.7-7.3l36.9-29.9
	c4.3-3.5,10.6-2.8,14.1,1.5s2.8,10.6-1.5,14.1l-28.3,22.9l29.2,29.1c3.9,3.9,3.9,10.2,0,14.1C453.3,154,450.8,155,448.2,155z"/>
<path class="st2" d="M75,195L75,195c-5.5,0-10-4.5-10-10l0-105c0-5.5,4.5-10,10-10c0,0,0,0,0,0c5.5,0,10,4.5,10,10l0,105
	C85,190.5,80.5,195,75,195z"/>
<path class="st2" d="M167.5,155L167.5,155c-5.5,0-10-4.5-10-10l0-105c0-5.5,4.5-10,10-10c0,0,0,0,0,0c5.5,0,10,4.5,10,10l0,105
	C177.5,150.5,173,155,167.5,155z"/>
<path class="st2" d="M295,155L295,155c-5.5,0-10-4.5-10-10l0-65c0-5.5,4.5-10,10-10l0,0c5.5,0,10,4.5,10,10l0,65
	C305,150.5,300.5,155,295,155z"/>
<path class="st2" d="M390,155L390,155c-5.5,0-10-4.5-10-10l0-105c0-5.5,4.5-10,10-10c0,0,0,0,0,0c5.5,0,10,4.5,10,10l0,105
	C400,150.5,395.5,155,390,155z"/>
<path class="st2" d="M230,155c-22.1,0-40-17.9-40-40V80c0-5.5,4.5-10,10-10s10,4.5,10,10v35c0,11,9,20,20,20s20-9,20-20V80
	c0-5.5,4.5-10,10-10s10,4.5,10,10v35C270,137.1,252.1,155,230,155z"/>
<path class="st0" d="M418.2,100.8c-3.2-3.2-8-3.8-11.7-1.8l-1.6,1.3c-3.2,2.6-4.4,6.7-3.3,10.4c0.5,1.5,1.3,3,2.5,4.2l1.1,1.1
	c1.8,1.3,3.9,2,6,2c2.2,0,4.4-0.7,6.3-2.2l8.7-7.1L418.2,100.8z"/>
<path class="st0" d="M65,145c0,5.5,4.5,10,10,10h10l0-20H75C69.5,135,65,139.5,65,145z"/>
<path class="st0" d="M65,80L65,80c0,5.5,4.5,10,10,10h10l0-10c0-5.5-4.5-10-10-10C69.5,70,65,74.5,65,80z"/>
<path class="st0" d="M285,110L285,110c0,5.5,4.5,10,10,10c5.5,0,10-4.5,10-10c0,0,0,0,0,0l0-30c0-1.5-0.3-2.8-0.9-4.1
	C292.7,82.9,285,95.6,285,110z"/>
<path class="st0" d="M260,100c-5.5,0-10,4.5-10,10v5v34.6c11.9-6.9,20-19.8,20-34.6v-5C270,104.5,265.5,100,260,100z"/>
</svg>
