<svg id="Layer_1" xmlns="http://www.w3.org/2000/svg" viewBox="0 0 4780 1800"><style>.st2{fill:#43c1e9}.st4{fill:#fff}.st5{fill:#414042}.st6{fill:#d1d3d4}.st10{opacity:.7}.st11{fill:#f5d6c5}.st12{fill:#ff9335}.st13{fill:#feac5a}.st14{fill:#a0bf40}.st15{fill:#c0d36a}.st18{fill:#00a16e}</style><path fill="#ff7a73" d="M0 0h4780v1799.99H0z"/><ellipse transform="rotate(-45.001 2390 924.725)" cx="2390" cy="924.69" rx="782.85" ry="782.85" fill="#f0736c"/><path class="st2" d="M2864.41 378.81v915h-932.52V365.06c-161.83 132.63-265.12 334.06-265.12 559.63 0 399.43 323.8 723.23 723.23 723.23s723.23-323.8 723.23-723.23c-.01-217.9-96.38-413.28-248.82-545.88z"/><path d="M2864.41 1293.81v-915c-127-110.46-292.89-177.34-474.41-177.34-173.86 0-333.37 61.37-458.11 163.59v928.75h932.52z" fill="#3eb4d9"/><path class="st4" d="M1972.37 155.32h835.24v1069.75h-835.24z"/><path class="st5" d="M2732.2 376.97c0 5.46-4.42 9.89-9.88 9.89h-667.93c-5.46 0-9.88-4.42-9.88-9.89 0-5.46 4.42-9.87 9.88-9.87h667.93c5.45 0 9.88 4.42 9.88 9.87z"/><path d="M2267.15 258.15v58.55h-7.56v-58.55h7.56zM2280.35 316.7v-58.55h8.25l18.76 29.62c4.34 6.86 7.73 13.03 10.51 19.02l.17-.09c-.7-7.82-.87-14.94-.87-24.06v-24.5h7.12v58.55h-7.64l-18.59-29.71c-4.08-6.52-7.99-13.2-10.95-19.55l-.26.09c.43 7.38.61 14.42.61 24.15v25.02h-7.11zM2350.37 316.7l-19.11-58.55h8.17l9.12 28.84c2.52 7.91 4.69 15.03 6.25 21.89h.17c1.65-6.78 4.08-14.16 6.69-21.8l9.9-28.93h8.08l-20.93 58.55h-8.34zM2436.03 286.82c0 20.15-12.25 30.84-27.19 30.84-15.46 0-26.32-11.99-26.32-29.71 0-18.59 11.55-30.75 27.19-30.75 15.98-.01 26.32 12.24 26.32 29.62zm-45.43.95c0 12.51 6.78 23.72 18.68 23.72 11.99 0 18.76-11.03 18.76-24.32 0-11.64-6.08-23.8-18.68-23.8-12.51-.01-18.76 11.55-18.76 24.4zM2453.41 258.15v58.55h-7.56v-58.55h7.56zM2507.53 314.79c-2.78 1.39-8.34 2.78-15.46 2.78-16.5 0-28.93-10.42-28.93-29.62 0-18.33 12.42-30.75 30.58-30.75 7.3 0 11.9 1.56 13.9 2.61l-1.82 6.17c-2.87-1.39-6.95-2.43-11.81-2.43-13.72 0-22.85 8.77-22.85 24.15 0 14.33 8.25 23.54 22.5 23.54 4.6 0 9.29-.96 12.33-2.43l1.56 5.98zM2547.32 289.25h-22.76v21.11h25.37v6.34H2517v-58.55h31.62v6.34h-24.06v18.5h22.76v6.26z"/><path class="st6" d="M2025.07 430.66h620.5v25.69h-620.5zM2025.07 485.99h725.24v25.7h-725.24zM2025.07 881.22h725.24v25.69h-725.24zM2025.07 940.5h725.24v25.69h-725.24zM2025.07 999.79h725.24v25.69h-725.24zM2025.07 1118.35h183.12v25.69h-183.12z"/><g><path fill="#65ebc2" d="M2025.07 548.57h725.24v44.13h-725.24z"/><path class="st6" d="M2025.07 592.7h725.24v249h-725.24z"/></g><g><path d="M2902.65 1361.42c0 15.71-12.74 28.46-28.45 28.46h-524.07c-15.72 0-28.46-12.75-28.46-28.46v-272.7c0-15.71 12.74-28.45 28.46-28.45h524.07c15.71 0 28.45 12.74 28.45 28.45v272.7z" fill="#004a58"/><path class="st2" d="M2428.03 1117.62c0 18.79-15.23 34.02-34.01 34.02-18.79 0-34.01-15.23-34.01-34.02 0-18.78 15.22-34.01 34.01-34.01 18.78 0 34.01 15.23 34.01 34.01z"/><path d="M2470.28 1117.62c0 18.79-15.23 34.02-34.02 34.02-18.78 0-34.01-15.23-34.01-34.02 0-18.78 15.23-34.01 34.01-34.01 18.79 0 34.02 15.23 34.02 34.01z" fill="#e86f6b"/><g class="st10"><path class="st4" d="M2732.07 1132.6l1.37-10.31h-4.31v-3.1h4.79l1-7.63h-4.52v-3.1h5l1.37-10.05h3.05l-1.31 10.05h5.47l1.37-10.05h3.1l-1.31 10.05h4.31v3.1h-4.79l-.95 7.63h4.52v3.1h-5l-1.37 10.31h-3.16l1.37-10.31h-5.47l-1.37 10.31h-3.16zm10.47-13.42l1-7.63h-5.47l-1 7.63h5.47zM2757.32 1097.62c2-.42 5.16-.74 8.36-.74 4.58 0 7.52.79 9.73 2.58 1.84 1.37 2.95 3.47 2.95 6.26 0 3.42-2.26 6.42-6 7.78v.11c3.37.84 7.31 3.63 7.31 8.89 0 3.05-1.21 5.37-3 7.1-2.47 2.26-6.47 3.31-12.26 3.31-3.16 0-5.58-.21-7.1-.42v-34.87zm4.58 14.52h4.16c4.84 0 7.68-2.53 7.68-5.94 0-4.16-3.16-5.79-7.78-5.79-2.1 0-3.31.16-4.05.32v11.41zm0 16.98c.89.16 2.21.21 3.84.21 4.73 0 9.1-1.74 9.1-6.89 0-4.84-4.15-6.84-9.15-6.84h-3.79v13.52zM2799.77 1132.6l-.37-3.21h-.16c-1.42 2-4.15 3.79-7.78 3.79-5.15 0-7.78-3.63-7.78-7.31 0-6.15 5.47-9.52 15.31-9.47v-.53c0-2.1-.58-5.89-5.79-5.89-2.37 0-4.84.74-6.63 1.89l-1.05-3.05c2.1-1.37 5.15-2.26 8.36-2.26 7.78 0 9.68 5.31 9.68 10.41v9.52c0 2.21.11 4.37.42 6.1h-4.21zm-.68-13c-5.05-.11-10.78.79-10.78 5.73 0 3 2 4.42 4.37 4.42 3.31 0 5.42-2.1 6.15-4.26.16-.47.26-1 .26-1.47v-4.42zM2811.03 1114.03c0-2.63-.05-4.79-.21-6.89h4.1l.26 4.21h.1c1.26-2.42 4.21-4.79 8.42-4.79 3.52 0 8.99 2.1 8.99 10.83v15.2h-4.63v-14.67c0-4.1-1.53-7.52-5.89-7.52-3.05 0-5.42 2.16-6.21 4.73-.21.58-.32 1.37-.32 2.16v15.31h-4.63v-18.57zM2844.8 1118.82h.11c.63-.89 1.53-2 2.26-2.89l7.47-8.78h5.58l-9.83 10.47 11.2 14.99h-5.63l-8.78-12.2-2.37 2.63v9.57h-4.58v-37.34h4.58v23.55z"/></g><g class="st10"><path class="st4" d="M2397.79 1207.6c0 11.62-4.31 18.04-11.89 18.04-6.68 0-11.2-6.26-11.31-17.57 0-11.47 4.94-17.78 11.89-17.78 7.21.01 11.31 6.43 11.31 17.31zm-18.56.53c0 8.89 2.73 13.94 6.94 13.94 4.73 0 7-5.52 7-14.25 0-8.42-2.16-13.94-6.94-13.94-4.06 0-7 4.94-7 14.25zM2424.78 1207.6c0 11.62-4.31 18.04-11.89 18.04-6.68 0-11.2-6.26-11.31-17.57 0-11.47 4.94-17.78 11.89-17.78 7.21.01 11.31 6.43 11.31 17.31zm-18.57.53c0 8.89 2.73 13.94 6.94 13.94 4.73 0 7-5.52 7-14.25 0-8.42-2.16-13.94-6.94-13.94-4.05 0-7 4.94-7 14.25zM2451.76 1207.6c0 11.62-4.31 18.04-11.89 18.04-6.68 0-11.2-6.26-11.31-17.57 0-11.47 4.94-17.78 11.89-17.78 7.21.01 11.31 6.43 11.31 17.31zm-18.56.53c0 8.89 2.73 13.94 6.94 13.94 4.73 0 7-5.52 7-14.25 0-8.42-2.16-13.94-6.94-13.94-4.06 0-7 4.94-7 14.25zM2478.75 1207.6c0 11.62-4.31 18.04-11.89 18.04-6.68 0-11.2-6.26-11.31-17.57 0-11.47 4.94-17.78 11.89-17.78 7.21.01 11.31 6.43 11.31 17.31zm-18.57.53c0 8.89 2.73 13.94 6.94 13.94 4.73 0 7-5.52 7-14.25 0-8.42-2.16-13.94-6.94-13.94-4.05 0-7 4.94-7 14.25zM2516.88 1207.6c0 11.62-4.31 18.04-11.89 18.04-6.68 0-11.2-6.26-11.31-17.57 0-11.47 4.94-17.78 11.89-17.78 7.21.01 11.31 6.43 11.31 17.31zm-18.56.53c0 8.89 2.74 13.94 6.94 13.94 4.73 0 7-5.52 7-14.25 0-8.42-2.16-13.94-6.94-13.94-4.06 0-7 4.94-7 14.25zM2543.87 1207.6c0 11.62-4.31 18.04-11.89 18.04-6.68 0-11.2-6.26-11.31-17.57 0-11.47 4.94-17.78 11.89-17.78 7.21.01 11.31 6.43 11.31 17.31zm-18.57.53c0 8.89 2.74 13.94 6.94 13.94 4.73 0 7-5.52 7-14.25 0-8.42-2.16-13.94-6.94-13.94-4.05 0-7 4.94-7 14.25zM2570.85 1207.6c0 11.62-4.31 18.04-11.89 18.04-6.68 0-11.2-6.26-11.31-17.57 0-11.47 4.94-17.78 11.89-17.78 7.21.01 11.31 6.43 11.31 17.31zm-18.56.53c0 8.89 2.74 13.94 6.94 13.94 4.73 0 7-5.52 7-14.25 0-8.42-2.16-13.94-6.94-13.94-4.06 0-7 4.94-7 14.25zM2597.84 1207.6c0 11.62-4.31 18.04-11.89 18.04-6.68 0-11.2-6.26-11.31-17.57 0-11.47 4.94-17.78 11.89-17.78 7.2.01 11.31 6.43 11.31 17.31zm-18.57.53c0 8.89 2.73 13.94 6.94 13.94 4.73 0 7-5.52 7-14.25 0-8.42-2.16-13.94-6.94-13.94-4.06 0-7 4.94-7 14.25zM2635.97 1207.6c0 11.62-4.31 18.04-11.89 18.04-6.68 0-11.2-6.26-11.31-17.57 0-11.47 4.94-17.78 11.89-17.78 7.21.01 11.31 6.43 11.31 17.31zm-18.56.53c0 8.89 2.73 13.94 6.94 13.94 4.73 0 7-5.52 7-14.25 0-8.42-2.16-13.94-6.94-13.94-4.06 0-7 4.94-7 14.25zM2662.96 1207.6c0 11.62-4.31 18.04-11.89 18.04-6.68 0-11.2-6.26-11.31-17.57 0-11.47 4.94-17.78 11.89-17.78 7.2.01 11.31 6.43 11.31 17.31zm-18.57.53c0 8.89 2.73 13.94 6.94 13.94 4.73 0 7-5.52 7-14.25 0-8.42-2.16-13.94-6.94-13.94-4.06 0-7 4.94-7 14.25zM2689.94 1207.6c0 11.62-4.31 18.04-11.89 18.04-6.68 0-11.2-6.26-11.31-17.57 0-11.47 4.94-17.78 11.89-17.78 7.21.01 11.31 6.43 11.31 17.31zm-18.57.53c0 8.89 2.73 13.94 6.94 13.94 4.73 0 7-5.52 7-14.25 0-8.42-2.16-13.94-6.94-13.94-4.05 0-7 4.94-7 14.25zM2716.92 1207.6c0 11.62-4.31 18.04-11.89 18.04-6.68 0-11.2-6.26-11.31-17.57 0-11.47 4.94-17.78 11.89-17.78 7.21.01 11.31 6.43 11.31 17.31zm-18.56.53c0 8.89 2.73 13.94 6.94 13.94 4.73 0 7-5.52 7-14.25 0-8.42-2.16-13.94-6.94-13.94-4.06 0-7 4.94-7 14.25zM2755.06 1207.6c0 11.62-4.31 18.04-11.89 18.04-6.68 0-11.2-6.26-11.31-17.57 0-11.47 4.94-17.78 11.89-17.78 7.21.01 11.31 6.43 11.31 17.31zm-18.57.53c0 8.89 2.73 13.94 6.94 13.94 4.73 0 7-5.52 7-14.25 0-8.42-2.16-13.94-6.94-13.94-4.05 0-7 4.94-7 14.25zM2782.04 1207.6c0 11.62-4.31 18.04-11.89 18.04-6.68 0-11.2-6.26-11.31-17.57 0-11.47 4.94-17.78 11.89-17.78 7.21.01 11.31 6.43 11.31 17.31zm-18.56.53c0 8.89 2.73 13.94 6.94 13.94 4.73 0 7-5.52 7-14.25 0-8.42-2.16-13.94-6.94-13.94-4.06 0-7 4.94-7 14.25zM2809.03 1207.6c0 11.62-4.31 18.04-11.89 18.04-6.68 0-11.2-6.26-11.31-17.57 0-11.47 4.94-17.78 11.89-17.78 7.21.01 11.31 6.43 11.31 17.31zm-18.57.53c0 8.89 2.73 13.94 6.94 13.94 4.73 0 7-5.52 7-14.25 0-8.42-2.16-13.94-6.94-13.94-4.05 0-7 4.94-7 14.25zM2836.01 1207.6c0 11.62-4.31 18.04-11.89 18.04-6.68 0-11.2-6.26-11.31-17.57 0-11.47 4.94-17.78 11.89-17.78 7.21.01 11.31 6.43 11.31 17.31zm-18.56.53c0 8.89 2.73 13.94 6.94 13.94 4.73 0 7-5.52 7-14.25 0-8.42-2.16-13.94-6.94-13.94-4.06 0-7 4.94-7 14.25z"/></g><g class="st10"><path class="st4" d="M2436.35 1280.14c0 9.1-3.38 14.13-9.31 14.13-5.23 0-8.77-4.9-8.85-13.76 0-8.98 3.87-13.92 9.31-13.92 5.64 0 8.85 5.02 8.85 13.55zm-14.53.41c0 6.96 2.14 10.91 5.44 10.91 3.71 0 5.48-4.32 5.48-11.16 0-6.59-1.69-10.91-5.44-10.91-3.18 0-5.48 3.87-5.48 11.16zM2457.48 1280.14c0 9.1-3.38 14.13-9.31 14.13-5.23 0-8.77-4.9-8.85-13.76 0-8.98 3.87-13.92 9.31-13.92 5.64 0 8.85 5.02 8.85 13.55zm-14.54.41c0 6.96 2.14 10.91 5.44 10.91 3.71 0 5.48-4.32 5.48-11.16 0-6.59-1.69-10.91-5.44-10.91-3.17 0-5.48 3.87-5.48 11.16zM2458.92 1295.46l11.49-29.86h2.8l-11.53 29.86h-2.76zM2492.73 1280.14c0 9.1-3.38 14.13-9.31 14.13-5.23 0-8.77-4.9-8.85-13.76 0-8.98 3.87-13.92 9.31-13.92 5.64 0 8.85 5.02 8.85 13.55zm-14.54.41c0 6.96 2.14 10.91 5.44 10.91 3.71 0 5.48-4.32 5.48-11.16 0-6.59-1.69-10.91-5.44-10.91-3.17 0-5.48 3.87-5.48 11.16zM2513.86 1280.14c0 9.1-3.38 14.13-9.31 14.13-5.23 0-8.77-4.9-8.85-13.76 0-8.98 3.87-13.92 9.31-13.92 5.64 0 8.85 5.02 8.85 13.55zm-14.54.41c0 6.96 2.14 10.91 5.44 10.91 3.71 0 5.48-4.32 5.48-11.16 0-6.59-1.69-10.91-5.44-10.91-3.17 0-5.48 3.87-5.48 11.16z"/></g><g class="st10"><path class="st4" d="M2379.42 1330.23v16.43c0 6.22 2.76 8.85 6.47 8.85 4.12 0 6.75-2.72 6.75-8.85v-16.43h3.63v16.19c0 8.52-4.49 12.03-10.5 12.03-5.68 0-9.97-3.25-9.97-11.86v-16.35h3.62zM2401.62 1354.28c1.07.7 2.97 1.44 4.78 1.44 2.64 0 3.87-1.32 3.87-2.97 0-1.73-1.03-2.68-3.71-3.67-3.58-1.28-5.27-3.25-5.27-5.64 0-3.21 2.59-5.85 6.88-5.85 2.02 0 3.79.58 4.9 1.24l-.91 2.64a7.783 7.783 0 0 0-4.08-1.15c-2.14 0-3.34 1.24-3.34 2.72 0 1.65 1.19 2.39 3.79 3.38 3.46 1.32 5.23 3.05 5.23 6.01 0 3.5-2.72 5.97-7.45 5.97-2.18 0-4.2-.54-5.6-1.36l.91-2.76zM2420.44 1348.68c.08 4.9 3.21 6.92 6.84 6.92 2.59 0 4.16-.45 5.52-1.03l.62 2.59c-1.28.58-3.46 1.24-6.63 1.24-6.14 0-9.8-4.04-9.8-10.05s3.54-10.75 9.35-10.75c6.51 0 8.24 5.72 8.24 9.39 0 .74-.08 1.32-.12 1.69h-14.02zm10.62-2.6c.04-2.31-.95-5.89-5.02-5.89-3.67 0-5.27 3.38-5.56 5.89h10.58zM2439.05 1344.27c0-2.35-.04-4.37-.16-6.22h3.17l.12 3.91h.17c.91-2.68 3.09-4.37 5.52-4.37.41 0 .7.04 1.03.12v3.42c-.37-.08-.74-.12-1.24-.12-2.55 0-4.37 1.94-4.86 4.65-.08.49-.17 1.07-.17 1.69v10.63h-3.58v-13.71zM2461.37 1357.99v-27.76h3.91l8.9 14.04c2.06 3.25 3.67 6.18 4.98 9.02l.08-.04c-.33-3.71-.41-7.08-.41-11.41v-11.61h3.38v27.76h-3.62l-8.81-14.08c-1.94-3.09-3.79-6.26-5.19-9.27l-.12.04c.21 3.5.29 6.84.29 11.45v11.86h-3.39zM2499.39 1357.99l-.29-2.51h-.12c-1.11 1.56-3.25 2.96-6.09 2.96-4.04 0-6.1-2.84-6.1-5.72 0-4.82 4.28-7.45 11.98-7.41v-.41c0-1.65-.45-4.61-4.53-4.61-1.85 0-3.79.58-5.19 1.48l-.82-2.39c1.65-1.07 4.04-1.77 6.55-1.77 6.09 0 7.58 4.16 7.58 8.15v7.45c0 1.73.08 3.42.33 4.78h-3.3zm-.54-10.18c-3.95-.08-8.44.62-8.44 4.49 0 2.35 1.57 3.46 3.42 3.46 2.59 0 4.24-1.65 4.82-3.34.12-.37.21-.78.21-1.15v-3.46zM2508.2 1343.45c0-2.06-.04-3.75-.17-5.39h3.17l.17 3.21h.12c1.11-1.89 2.96-3.67 6.26-3.67 2.72 0 4.78 1.65 5.64 4h.08c.62-1.11 1.4-1.98 2.22-2.59 1.19-.91 2.51-1.4 4.41-1.4 2.64 0 6.55 1.73 6.55 8.65V1358h-3.54v-11.28c0-3.83-1.4-6.14-4.32-6.14-2.06 0-3.67 1.52-4.28 3.29-.17.49-.29 1.15-.29 1.81v12.31h-3.54v-11.94c0-3.17-1.4-5.48-4.16-5.48-2.27 0-3.91 1.81-4.49 3.62-.21.54-.29 1.15-.29 1.77v12.03h-3.54v-14.54zM2544.57 1348.68c.08 4.9 3.21 6.92 6.84 6.92 2.59 0 4.16-.45 5.52-1.03l.62 2.59c-1.28.58-3.46 1.24-6.63 1.24-6.14 0-9.8-4.04-9.8-10.05s3.54-10.75 9.35-10.75c6.51 0 8.24 5.72 8.24 9.39 0 .74-.08 1.32-.12 1.69h-14.02zm10.62-2.6c.04-2.31-.95-5.89-5.02-5.89-3.67 0-5.27 3.38-5.56 5.89h10.58z"/></g></g><g><path class="st11" d="M2406.12 1530.61c3.81 0 6.9-3.08 6.9-6.89v-93.92a40.27 40.27 0 0 0-6.06 5.7l-7.47 8.78-.25-.29v79.73a6.869 6.869 0 0 0 6.88 6.89zM2331.03 1540.95c3.81 0 6.89-3.08 6.89-6.89V1429.8a40.618 40.618 0 0 0-6.04 5.7l-7.49 8.78-.25-.3v90.08c0 3.81 3.08 6.89 6.89 6.89zM2258.41 1547.84c3.81 0 6.89-3.09 6.89-6.9v-113.01l-13.79 8.38v104.63c0 3.81 3.09 6.9 6.9 6.9z"/></g><g><path class="st12" d="M2759.52 671.34c-26.33 65.87 5.73 140.62 71.6 166.95 65.87 26.33 140.62-5.73 166.94-71.61 26.33-65.87-5.73-140.62-71.6-166.95-65.87-26.33-140.62 5.73-166.94 71.61zm213.91 85.49c-20.9 52.27-80.2 77.7-132.47 56.81-52.26-20.88-77.7-80.19-56.81-132.45 20.89-52.27 80.2-77.71 132.47-56.81 52.26 20.88 77.7 80.19 56.81 132.45z"/><path class="st13" d="M2784.15 681.19c-20.89 52.26 4.55 111.57 56.81 132.45 52.27 20.89 111.57-4.54 132.47-56.81 20.89-52.26-4.55-111.57-56.81-132.45-52.27-20.9-111.58 4.54-132.47 56.81z"/><g><path class="st4" d="M2806.93 693.12l-8.53-3.41 3.96-9.93 9.38 3.75 1.97-2.9c10.9-14.44 25.9-18.88 45.22-12.78l-2.97 21.84c-9.41-3.22-17.65-3.55-24.21.04l-1.78 1.09 43.9 17.54 11.88-6.76c12.19-7.09 28.72-11.55 46.33-4.51 19.24 7.69 25.49 24.22 20.36 42.68l8.76 3.5-3.97 9.93-8.76-3.5c-10.57 21.68-31.75 26.09-54.76 18.41l2.97-21.84c13.37 4.8 25.77 5.71 33.83-1.86l1.28-1.38-43.04-17.21-23.83 13.5c-10.23 5.8-23.59 7.93-38.4 2.01-20.63-8.24-27.93-27.34-19.59-48.21zm49.05 25.36l5.94-3.38-38.7-15.47c-3.85 9.62-.14 17.22 9.17 20.94 8.61 3.44 17.04 1.68 23.59-2.09zm47.21-.2l-2.18.93 34.9 13.95c1.16-7.18-2.31-12.44-10.45-15.7-8.69-3.46-15.54-2.06-22.27.82z"/></g></g><g><path class="st12" d="M2864.41 659.79c-70.94 0-128.45 57.51-128.45 128.45s57.51 128.45 128.45 128.45 128.45-57.5 128.45-128.45c-.01-70.94-57.52-128.45-128.45-128.45zm0 230.37c-56.29 0-101.91-45.63-101.91-101.92s45.62-101.92 101.91-101.92 101.92 45.63 101.92 101.92c-.01 56.29-45.64 101.92-101.92 101.92z"/><path class="st13" d="M2864.41 686.32c-56.29 0-101.91 45.63-101.91 101.92s45.62 101.92 101.91 101.92 101.92-45.63 101.92-101.92c-.01-56.29-45.64-101.92-101.92-101.92z"/><g><path class="st4" d="M2861.78 711.9v-9.18h10.69v10.1l3.43.75c17.46 4.76 27.15 17.04 28.64 37.25l-21.38 5.34c-.51-9.94-3.26-17.7-9.02-22.47l-1.67-1.25v47.27l10.69 8.52c11.11 8.69 21.38 22.39 21.38 41.34 0 20.72-13.03 32.66-32.07 34.75v9.44h-10.69v-9.44c-24.06-1.75-36-19.8-37.42-44.01l21.39-5.35c.5 14.2 4.26 26.05 14.28 30.73l1.75.67v-46.35l-21.38-17.12c-9.19-7.35-16.12-18.96-16.12-34.91-.01-22.22 15.03-36.08 37.5-36.08zm-5.35 54.96l5.35 4.26v-41.68c-10.36 0-16.04 6.27-16.04 16.29 0 9.27 4.76 16.45 10.69 21.13zm17.71 43.77l-1.67-1.68v37.59c7.1-1.59 10.69-6.76 10.69-15.53 0-9.36-3.85-15.21-9.02-20.38z"/></g></g><g><path class="st14" d="M1925.48 522.49l-196.87 352.3 191.48 107 196.88-352.3-191.49-107zM1914 960.28l-163.88-91.58L1931.57 544l163.88 91.58L1914 960.28z"/><path class="st14" d="M1881.42 826.17c-32.3-18.05-48.19-54.1-42.17-88.6l-70.3 125.8 139.73 78.08 70.3-125.8c-26.24 23.21-65.26 28.56-97.56 10.52zm-34.02 60.87c-10.32-5.77-14.01-18.82-8.24-29.13 5.77-10.32 18.81-14.02 29.13-8.25s14.01 18.82 8.24 29.13c-5.76 10.32-18.81 14.02-29.13 8.25zM1964.15 678.11c32.3 18.05 48.19 54.1 42.17 88.59l70.3-125.8-139.73-78.08-70.3 125.8c26.24-23.21 65.26-28.56 97.56-10.51zm34.02-60.87c10.32 5.77 14.01 18.81 8.24 29.13s-18.81 14.01-29.13 8.24-14.01-18.81-8.24-29.13c5.76-10.32 18.81-14.01 29.13-8.24z"/><path class="st15" d="M1977.28 654.62c10.32 5.77 23.36 2.08 29.13-8.24s2.08-23.37-8.24-29.13c-10.32-5.77-23.37-2.08-29.13 8.24-5.77 10.32-2.08 23.36 8.24 29.13zM1868.29 849.65c-10.32-5.77-23.37-2.07-29.13 8.25-5.77 10.32-2.07 23.36 8.24 29.13 10.32 5.77 23.37 2.07 29.13-8.25 5.77-10.31 2.08-23.35-8.24-29.13z"/><path class="st15" d="M1931.57 544l-181.45 324.7L1914 960.28l181.45-324.71L1931.57 544zm-22.9 397.46l-139.73-78.08 70.3-125.8c-6.02 34.5 9.87 70.54 42.17 88.6 32.31 18.05 71.32 12.69 97.55-10.51l-70.29 125.79zm97.65-174.76c6.02-34.5-9.87-70.54-42.17-88.59-32.3-18.05-71.33-12.7-97.56 10.51l70.3-125.8 139.73 78.08-70.3 125.8z"/><g><path class="st14" d="M1943.69 660.11l-196.88 352.3 191.48 107 196.87-352.31-191.47-106.99zm-11.49 437.79l-163.88-91.58 181.46-324.71 163.88 91.58-181.46 324.71z"/><path class="st14" d="M1899.62 963.79c-32.3-18.06-48.19-54.1-42.18-88.6l-70.3 125.8 139.73 78.08 70.3-125.8c-26.22 23.21-65.25 28.57-97.55 10.52zm-34.02 60.87c-10.32-5.77-14.01-18.81-8.24-29.13 5.77-10.33 18.81-14.02 29.13-8.25s14.01 18.82 8.24 29.13c-5.77 10.32-18.81 14.02-29.13 8.25zM1982.35 815.74c32.3 18.05 48.18 54.09 42.17 88.59l70.3-125.8-139.73-78.08-70.3 125.8c26.24-23.21 65.26-28.57 97.56-10.51zm34.02-60.87c10.32 5.77 14.02 18.81 8.25 29.13-5.77 10.33-18.82 14.02-29.13 8.25-10.32-5.77-14.02-18.81-8.25-29.13 5.77-10.33 18.81-14.02 29.13-8.25z"/><path class="st15" d="M1995.48 792.24c10.32 5.77 23.37 2.08 29.13-8.25 5.77-10.32 2.07-23.36-8.25-29.13s-23.36-2.08-29.13 8.25c-5.76 10.32-2.07 23.37 8.25 29.13zM1886.49 987.28c-10.33-5.77-23.37-2.08-29.13 8.25-5.77 10.32-2.08 23.36 8.24 29.13s23.36 2.08 29.13-8.24 2.08-23.38-8.24-29.14z"/><path class="st15" d="M1949.78 681.62l-181.46 324.71 163.88 91.58 181.45-324.7-163.87-91.59zm-22.91 397.46L1787.14 1001l70.3-125.8c-6.01 34.5 9.87 70.54 42.18 88.6 32.3 18.05 71.33 12.69 97.55-10.51l-70.3 125.79zm97.66-174.75c6.01-34.5-9.87-70.54-42.17-88.59-32.3-18.05-71.33-12.7-97.56 10.51l70.3-125.8 139.73 78.08-70.3 125.8z"/></g></g><g><path fill="#00b07a" d="M1910.37 957.26h305.37v354.57h-305.37z"/><path class="st5" d="M2215.75 921.63c0-11.2-9.16-20.36-20.36-20.36h-264.66c-11.2 0-20.36 9.16-20.36 20.36v35.63h305.37v-35.63zM1910.37 1369.51c0 11.19 9.16 20.36 20.36 20.36h264.66c11.2 0 20.36-9.17 20.36-20.36v-57.68h-305.37v57.68z"/><path fill="#2d2c2e" d="M2029.13 1334.31h67.86v33.08h-67.86z"/><path class="st18" d="M2003.05 1081.28c0-3.84-3.12-6.97-6.97-6.97h-57.24c-3.84 0-6.96 3.12-6.96 6.97v25.15c0 3.84 3.12 6.96 6.96 6.96h57.24c3.85 0 6.97-3.12 6.97-6.96v-25.15zM2098.64 1081.28c0-3.84-3.12-6.97-6.96-6.97h-57.24c-3.84 0-6.96 3.12-6.96 6.97v25.15c0 3.84 3.12 6.96 6.96 6.96h57.24c3.84 0 6.96-3.12 6.96-6.96v-25.15zM2194.23 1081.28c0-3.84-3.12-6.97-6.96-6.97h-57.24c-3.84 0-6.96 3.12-6.96 6.97v25.15c0 3.84 3.12 6.96 6.96 6.96h57.24c3.84 0 6.96-3.12 6.96-6.96v-25.15zM2003.05 1141.97c0-3.84-3.12-6.97-6.97-6.97h-57.24c-3.84 0-6.96 3.13-6.96 6.97v25.14c0 3.84 3.12 6.96 6.96 6.96h57.24c3.85 0 6.97-3.12 6.97-6.96v-25.14zM2098.64 1141.97c0-3.84-3.12-6.97-6.96-6.97h-57.24c-3.84 0-6.96 3.13-6.96 6.97v25.14c0 3.84 3.12 6.96 6.96 6.96h57.24c3.84 0 6.96-3.12 6.96-6.96v-25.14zM2194.23 1141.97c0-3.84-3.12-6.97-6.96-6.97h-57.24c-3.84 0-6.96 3.13-6.96 6.97v25.14c0 3.84 3.12 6.96 6.96 6.96h57.24c3.84 0 6.96-3.12 6.96-6.96v-25.14zM2003.05 1202.66c0-3.83-3.12-6.96-6.97-6.96h-57.24c-3.84 0-6.96 3.13-6.96 6.96v25.14c0 3.85 3.12 6.96 6.96 6.96h57.24c3.85 0 6.97-3.12 6.97-6.96v-25.14zM2098.64 1202.66c0-3.83-3.12-6.96-6.96-6.96h-57.24c-3.84 0-6.96 3.13-6.96 6.96v25.14c0 3.85 3.12 6.96 6.96 6.96h57.24c3.84 0 6.96-3.12 6.96-6.96v-25.14zM2194.23 1202.66c0-3.83-3.12-6.96-6.96-6.96h-57.24c-3.84 0-6.96 3.13-6.96 6.96v25.14c0 3.85 3.12 6.96 6.96 6.96h57.24c3.84 0 6.96-3.12 6.96-6.96v-25.14zM2003.05 1263.34c0-3.84-3.12-6.96-6.97-6.96h-57.24c-3.84 0-6.96 3.12-6.96 6.96v25.14c0 3.85 3.12 6.96 6.96 6.96h57.24c3.85 0 6.97-3.12 6.97-6.96v-25.14zM2098.64 1263.34c0-3.84-3.12-6.96-6.96-6.96h-57.24c-3.84 0-6.96 3.12-6.96 6.96v25.14c0 3.85 3.12 6.96 6.96 6.96h57.24c3.84 0 6.96-3.12 6.96-6.96v-25.14zM2194.23 1263.34c0-3.84-3.12-6.96-6.96-6.96h-57.24c-3.84 0-6.96 3.12-6.96 6.96v25.14c0 3.85 3.12 6.96 6.96 6.96h57.24c3.84 0 6.96-3.12 6.96-6.96v-25.14zM2194.23 1013.88c0 18.97-15.38 34.35-34.35 34.35h-193.64c-18.97 0-34.36-15.38-34.36-34.35s15.39-34.35 34.36-34.35h193.64c18.97 0 34.35 15.38 34.35 34.35z"/><g><path class="st4" d="M2040.31 1037.95v-4.35c-2.5-.04-5.09-.82-6.6-1.9l1.03-2.89c1.55 1.03 3.79 1.85 6.21 1.85 3.06 0 5.13-1.77 5.13-4.22 0-2.37-1.68-3.84-4.87-5.13-4.4-1.72-7.11-3.71-7.11-7.46 0-3.58 2.54-6.29 6.51-6.94v-4.35h2.67v4.18c2.59.09 4.35.78 5.6 1.51l-1.08 2.85c-.91-.52-2.67-1.47-5.43-1.47-3.32 0-4.57 1.98-4.57 3.71 0 2.24 1.59 3.36 5.35 4.91 4.44 1.81 6.68 4.05 6.68 7.89 0 3.41-2.37 6.6-6.81 7.33v4.48h-2.71zM2054.97 1034.24v-2.33l2.97-2.89c7.16-6.81 10.39-10.43 10.43-14.66 0-2.84-1.38-5.47-5.56-5.47-2.54 0-4.66 1.29-5.95 2.37l-1.21-2.67c1.94-1.64 4.7-2.85 7.93-2.85 6.03 0 8.58 4.14 8.58 8.15 0 5.17-3.75 9.35-9.66 15.04l-2.24 2.07v.09h12.59v3.15h-17.88zM2093.8 1009.42h-10.69l-1.08 7.2c.65-.09 1.25-.17 2.28-.17 2.16 0 4.31.47 6.03 1.51 2.2 1.25 4.01 3.66 4.01 7.2 0 5.47-4.35 9.57-10.43 9.57-3.06 0-5.65-.86-6.98-1.72l.95-2.89c1.16.69 3.45 1.55 5.99 1.55 3.58 0 6.64-2.33 6.64-6.08-.04-3.62-2.46-6.21-8.06-6.21-1.6 0-2.85.17-3.88.3l1.81-13.45h13.41v3.19zM2117.81 1019.93c0 9.53-3.53 14.79-9.74 14.79-5.47 0-9.18-5.13-9.27-14.4 0-9.4 4.05-14.57 9.74-14.57 5.91 0 9.27 5.26 9.27 14.18zm-15.22.43c0 7.29 2.24 11.42 5.69 11.42 3.88 0 5.73-4.53 5.73-11.68 0-6.9-1.77-11.42-5.69-11.42-3.31 0-5.73 4.05-5.73 11.68zM2121.6 1032c0-1.59 1.08-2.72 2.59-2.72 1.51 0 2.54 1.12 2.54 2.72 0 1.55-.99 2.72-2.59 2.72-1.51 0-2.54-1.16-2.54-2.72zM2148.84 1019.93c0 9.53-3.53 14.79-9.74 14.79-5.47 0-9.18-5.13-9.27-14.4 0-9.4 4.05-14.57 9.74-14.57 5.91 0 9.27 5.26 9.27 14.18zm-15.22.43c0 7.29 2.24 11.42 5.69 11.42 3.88 0 5.73-4.53 5.73-11.68 0-6.9-1.77-11.42-5.69-11.42-3.31 0-5.73 4.05-5.73 11.68zM2170.95 1019.93c0 9.53-3.53 14.79-9.74 14.79-5.47 0-9.18-5.13-9.27-14.4 0-9.4 4.05-14.57 9.74-14.57 5.91 0 9.27 5.26 9.27 14.18zm-15.22.43c0 7.29 2.24 11.42 5.69 11.42 3.88 0 5.73-4.53 5.73-11.68 0-6.9-1.77-11.42-5.69-11.42-3.31 0-5.73 4.05-5.73 11.68z"/></g></g><g><path class="st11" d="M2184.77 1256.02c-7.7 7.21-12.54 17.43-12.54 28.76l-.01 271.77 12.55 5.77v-306.3zM2214.94 1700l-185.52-172.12c-.05 12.17 4.57 24.34 13.85 33.6l142.72 145.74 41.34 88.55c.07.2.27.36.35.54.44.37.91.63 1.42.53h30.02l-17.47-50.06c-9.66-27.02-26.71-46.78-26.71-46.78z"/><path d="M2464.97 1433.25c-7.46-7.49-17.37-11.62-27.92-11.62a39.42 39.42 0 0 0-24.02 8.17v93.92c0 3.81-3.09 6.89-6.9 6.89-3.81 0-6.89-3.08-6.89-6.89v-79.73l-7.27-8.49c-.66-.76-1.35-1.54-2.08-2.25-7.49-7.49-17.42-11.62-27.95-11.62-8.75 0-17.16 2.92-24.01 8.17v104.26c0 3.81-3.08 6.89-6.89 6.89s-6.89-3.08-6.89-6.89v-90.08l-7.25-8.48c-.67-.76-1.37-1.54-2.13-2.25-7.44-7.49-17.4-11.62-27.89-11.62-7.34 0-14.41 1.98-20.59 5.71l-.98.59v113.01c0 3.81-3.08 6.9-6.89 6.9-3.81 0-6.9-3.09-6.9-6.9v-104.63l-.27.17v-151.69c.07-10.53-4.07-20.47-11.53-27.88-7.49-7.53-17.42-11.63-27.96-11.63-10.43.01-19.9 4.12-26.97 10.75v306.31l-12.55-5.77-62.03-62.02c-8.94-8.92-20.84-13.89-33.47-13.89-12.66 0-24.51 4.97-33.46 13.89-9.19 9.21-13.82 21.27-13.85 33.34L2214.94 1700s17.04 19.76 26.7 46.77l17.47 50.06h177.93c.91 0 1.71-.57 1.92-1.45l37.52-159.9c.06-.14.06-.32.06-.32V1461.2c.01-10.59-4.09-20.46-11.57-27.95z" fill="#ffdfcd"/></g></svg>