<?xml version="1.0" encoding="utf-8"?>
<!-- Generator: Adobe Illustrator 21.1.0, SVG Export Plug-In . SVG Version: 6.00 Build 0)  -->
<svg version="1.1" id="Layer_1" xmlns="http://www.w3.org/2000/svg" xmlns:xlink="http://www.w3.org/1999/xlink" x="0px" y="0px"
	 viewBox="0 0 451 151" style="enable-background:new 0 0 451 151;" xml:space="preserve">
<style type="text/css">
	.st0{fill:#365EBF;}
</style>
<g id="Intuit_Logo_5_">
	<g>
		<g>
			<g>
				<path class="st0" d="M295.6,132.8H285c-2.1,0-3.8-1.2-4-3.3l-0.2-4.1c-7.6,6.1-16.7,9.4-26.2,9.4c-18.5,0-26.1-11.7-26.1-29.5
					V56.4c0-2.8,1.6-3.8,4.3-3.8h11.6c2.6,0,4.1,0.8,4.1,3.8v45.3c0,9.1,2.3,15.3,12.2,15.3c6.3,0,14.2-3.5,19.1-7.9V56.4
					c0-2.8,1.5-3.8,4.1-3.8h11.7c2.6,0,4.1,0.8,4.1,3.8v71.7C299.8,131.6,298.9,132.8,295.6,132.8z"/>
			</g>
		</g>
		<path class="st0" d="M27,55.9c0-2,1-3.3,3-3.3h14c2,0,3.1,1.2,3.1,3.3v72.7c0,3-1.3,4.1-4.1,4.1H31.3c-3,0-4.3-1.2-4.3-4.1V55.9z"
			/>
		<path class="st0" d="M320.5,55.9c0-2,1-3.3,3-3.3h14c2,0,3.1,1.2,3.1,3.3v72.7c0,3-1.3,4.1-4.1,4.1h-11.6c-3,0-4.3-1.2-4.3-4.1
			V55.9z"/>
		<path class="st0" d="M135.5,132.8h-11.9c-3,0-4-1.5-4-4.3V83.6c0-9.1-2.5-15.5-12.5-15.5c-6.4,0-14.4,3.5-19.5,7.9v52.6
			c0,2.8-1.2,4.1-4,4.1H71.7c-2.5,0-4-1.3-4-4V56.8c0-2.6,1.2-4.1,4.1-4.1h10.7c2.3,0,3.8,0.7,4,3.1l0.2,4.4
			c7.6-6.1,17.2-9.6,26.7-9.6c18.5,0,26.1,11.5,26.1,29.5v48.3C139.5,131.3,138.5,132.8,135.5,132.8z"/>
		<g>
			<g>
				<path class="st0" d="M194.3,30.1c0-6.7-5.4-12.1-12.1-12.1c-6.7,0-12.1,5.4-12.1,12.1s5.4,12.1,12.1,12.1
					C188.9,42.2,194.3,36.8,194.3,30.1z"/>
			</g>
			<path class="st0" d="M211.6,52.6c2,0,3.1,0.7,3.1,2.8V67c0,2-1.3,3.1-3.3,3.1h-19.1v58.5c0,3-1.3,4.1-4.3,4.1h-11.5
				c-3,0-4.3-1.2-4.3-4.1V70.2h-19.1c-2,0-3.3-1.2-3.3-3.1V55.4c0-2.1,1.2-2.8,3.1-2.8C152.9,52.6,211.6,52.6,211.6,52.6z"/>
		</g>
		<g>
			<g>
				<path class="st0" d="M399.1,30.1c0-6.7-5.4-12.1-12.1-12.1c-6.7,0-12.1,5.4-12.1,12.1s5.4,12.1,12.1,12.1
					C393.7,42.2,399.1,36.8,399.1,30.1z"/>
			</g>
			<path class="st0" d="M416.3,52.6c2,0,3.1,0.7,3.1,2.8V67c0,2-1.3,3.1-3.3,3.1H397v58.5c0,3-1.3,4.1-4.3,4.1h-11.5
				c-3,0-4.3-1.2-4.3-4.1l0-58.5h-19.1c-2,0-3.3-1.2-3.3-3.1V55.4c0-2.1,1.2-2.8,3.1-2.8C357.7,52.6,416.3,52.6,416.3,52.6z"/>
		</g>
	</g>
	<g>
		<path class="st0" d="M421.6,122.6c2.9,0,5.4,2.3,5.4,5.3c0,3.1-2.4,5.4-5.4,5.4c-2.9,0-5.4-2.3-5.4-5.4
			C416.2,124.9,418.6,122.6,421.6,122.6z M421.6,132.5c2.5,0,4.4-2,4.4-4.6c0-2.6-1.9-4.5-4.4-4.5c-2.5,0-4.4,2-4.4,4.5
			C417.1,130.6,419.1,132.5,421.6,132.5z M419.5,124.8h2.4c1.5,0,2.2,0.6,2.2,1.8c0,1.1-0.7,1.6-1.6,1.7l1.8,2.8h-1l-1.7-2.7h-1v2.7
			h-1L419.5,124.8L419.5,124.8z M420.4,127.6h1c0.9,0,1.6,0,1.6-1c0-0.8-0.7-1-1.4-1h-1.3L420.4,127.6L420.4,127.6z"/>
	</g>
</g>
</svg>
