<?xml version="1.0" encoding="utf-8"?>
<!-- Generator: Adobe Illustrator 21.1.0, SVG Export Plug-In . SVG Version: 6.00 Build 0)  -->
<svg version="1.1" id="Layer_1" xmlns="http://www.w3.org/2000/svg" xmlns:xlink="http://www.w3.org/1999/xlink" x="0px" y="0px"
	 viewBox="0 0 2500 948" style="enable-background:new 0 0 2500 948;" xml:space="preserve">
<g>
	<path d="M984.5,584.2c-16.8,6-38.2,12.4-64.5,19c-42.7,10.6-65.5,29-68.5,55.2c-1.3,11.8,1.2,21.2,7.8,28.2
		c6.6,7.1,15.9,10.6,28,10.6c25.2,0,46.3-9.9,63.3-29.7C967.7,647.6,979,619.8,984.5,584.2L984.5,584.2z M953.7,793.2l-0.1-44
		c-24,19.6-47.9,34.3-71.9,44.3c-23.8,9.9-48.1,14.9-72.9,14.9c-39.5,0-69.7-11.9-90.7-35.7c-20.9-23.8-29.1-55.4-24.6-94.9
		c6.1-53.7,25.6-93.8,58.2-120.5s85.2-44.1,157.7-52.8c5.4-0.6,12.8-1.3,22.2-2.2c51.6-5.7,78.7-20.1,81.4-43.5
		c1.4-12.2-2-21.9-10-29c-8.1-7.1-19.9-10.6-35.5-10.6c-17.4,0-30.9,3.8-40.6,11.5c-9.9,7.5-16.3,19.6-19.7,35.9H759
		c12.4-53.1,37.8-92.7,76.1-118.7c38.3-26,90.6-39,156.6-39c61.2,0,106.4,12.5,135.7,37.7c29.2,25.1,41,61.8,35.5,109.7
		c-1.3,10.2-2.9,20.3-5,30.3c-2.5,13.1-5.5,26.2-8.8,39.1l-41.7,169.3c-2.5,10.2-4.6,18.2-5.8,24.4c-1.3,6.2-2.3,11.1-2.7,14.9
		c-1.1,9.7-1,18.4,0.4,25.9c1.3,7.3,4,14.3,7.9,20.6l-1.4,12.5L953.7,793.2L953.7,793.2z M1180.2,591.1h182.7l-0.2,1.8
		c-2.9,23.2,2.4,41.2,15.8,53.7c13.6,12.5,34.4,18.7,62.6,18.7c20.9,0,37.3-4.4,49.2-13.1c12-8.8,19.1-21.5,21.2-38.2
		c2.6-20.6-19.3-42.2-65.5-64.6c-11.3-5.4-20.1-9.9-26.4-12.9c-64.9-32.8-107.8-63.8-128.9-93.3c-21-29.6-28.8-65.7-23.4-108.8
		c7.5-60.3,34.1-107.5,79.8-141.3c45.6-34,105.7-50.9,180-50.9s130.9,17.9,170,53.8c38.9,35.9,56.6,86.5,53,151.8h-175.8
		c-0.1-21.6-5.6-37.7-16.8-48.1s-28.4-15.7-51.5-15.7c-15.6,0-28.8,4.1-39.7,12.5c-11,8.4-17.3,18.7-18.9,31
		c-2.3,18.7,24.5,41.2,80.2,67.7c22.1,10.6,39.9,19.3,53.1,25.9c44.7,22.4,76.4,48.5,95,78.6c18.7,30,25.4,65.6,20.3,106.6
		c-8,64.4-36.4,114.4-85,150.2c-48.8,35.7-113.2,53.7-193.5,53.7c-83.3,0-145.9-19.3-187.6-57.7
		C1188.1,713.8,1171.6,660.1,1180.2,591.1L1180.2,591.1z M2000.3,584.2c-16.8,6-38.2,12.4-64.4,19c-42.7,10.6-65.5,29-68.5,55.2
		c-1.3,11.8,1.2,21.2,7.8,28.2c6.6,7.1,15.9,10.6,28,10.6c25.2,0,46.3-9.9,63.3-29.7C1983.4,647.6,1994.7,619.8,2000.3,584.2z
		 M1969.4,793.2l-0.1-44c-24,19.6-47.8,34.3-71.8,44.3c-23.8,9.9-48.1,14.9-72.9,14.9c-39.5,0-69.7-11.9-90.7-35.7
		c-20.9-23.8-29.1-55.4-24.6-94.9c6.1-53.7,25.6-93.8,58.2-120.5c32.6-26.6,85.2-44.1,157.7-52.8c5.4-0.6,12.7-1.3,22.2-2.2
		c51.6-5.7,78.7-20.1,81.4-43.5c1.4-12.2-2-21.9-10-29c-8.1-7.1-19.9-10.6-35.5-10.6c-17.4,0-30.9,3.8-40.6,11.5
		c-9.9,7.5-16.3,19.6-19.7,35.9h-148.2c12.4-53.1,37.8-92.7,76.1-118.7c38.3-26,90.6-39,156.6-39c61.2,0,106.4,12.5,135.7,37.7
		c29.2,25.1,41,61.8,35.5,109.7c-1.3,10.2-2.9,20.3-5,30.3c-2.5,13.1-5.5,26.2-8.8,39.1l-41.6,169.3c-2.5,10.2-4.6,18.2-5.8,24.4
		c-1.1,4.9-2,9.9-2.7,14.9c-1.1,9.7-1,18.4,0.4,25.9c1.3,7.3,4,14.3,7.9,20.6l-1.4,12.5L1969.4,793.2L1969.4,793.2z M2351.5,792.3
		c-15,2.2-30,4-45,5.2c-14.4,1.2-13,1.8-26.2,1.8c-36.7,0-64.2-9.4-82.3-28.4c-18.1-19-25.1-45.7-21.2-80.2
		c0.7-6.3,1.9-13.8,3.6-22.2c1.7-8.5,3.9-18.4,6.6-29.6l106-436.5h133.6L2395,324.7h68.3l-24.7,103.8h-68.3l-49.2,202.6
		c-0.4,1.5-0.9,3.1-1.2,5c-0.3,1.8-0.6,4.6-1.1,8.4c-1.4,12.6,0.9,21.7,6.9,27.1c6.1,5.5,16.8,8.2,32.2,8.2c5.1,0,9,0,11.4-0.1
		c2.5-0.2,4.9-0.5,7.4-0.7L2351.5,792.3L2351.5,792.3z M98.5,793.2L36.8,158.5h187.9L251,584.9l8.5,23.9l273-450.3l282.2,0.5
		l-4.3,15.6h-81.1l-12.9,19.9h88.4l-5.9,21.2h-96.2l-9.7,15h101.8l-5.9,21.2H679.3l-9.7,15h115.1l-6.9,24.9H653.6l-6.8,10.6h128.2
		L638.7,793.2H506.2l129.1-473.1L329.5,793.2L98.5,793.2L98.5,793.2z"/>
</g>
</svg>
