<svg xmlns="http://www.w3.org/2000/svg" viewBox="0 0 510.2 510.2">
  <style>
    .st1{fill:#fff}
  </style>
  <g id="Layer_1">
    <path id="Layer_1_1_" d="M61.3 112.9c59.4-78 173.5-100.7 260.4-72C458.9 86.4 543.8 265.4 467 383.4c-62.4 96-214.8 125.6-323 64.2C25 380-16.8 215.4 61.3 112.9z" fill="#4b9fd8"/>
  </g>
  <g id="Layer_2">
    <g id="surface1">
      <path class="st1" d="M350.4 259.3h-10.3l-6.5-94c-.1-1.8-1.6-3.1-3.4-3.1h-20.1c-1.8 0-3.2 1.4-3.4 3.1l-6.5 94h-6.9v-20.1c0-1.8-1.5-3.4-3.3-3.4-.8 0-1.5.3-2.1.7l-28 22.5v-19.8c0-1.8-1.5-3.4-3.3-3.4-.8 0-1.5.3-2.1.7L226.4 259v-19.8c0-1.8-1.5-3.4-3.3-3.4-.8 0-1.5.3-2.1.7L192.9 259v-19.8a3.35 3.35 0 0 0-5.1-2.8l-33.5 20.1c-1 .6-1.6 1.7-1.6 2.9v80.4c0 1.9 1.5 3.3 3.4 3.3h194.3c1.9 0 3.4-1.5 3.4-3.3v-77c-.1-2-1.6-3.5-3.4-3.5zm-37.1-90.5h13.8l6.2 90.4H307l6.3-90.4zm-46.7 167.5v-40.2h20.1v40.2h-20.1zm80.4 0h-53.6v-43.5c0-1.8-1.5-3.3-3.4-3.3h-26.8c-1.9 0-3.4 1.5-3.4 3.3v43.5H159.4v-75.2l26.8-16.1v21c0 1.9 1.5 3.4 3.3 3.4.8 0 1.5-.3 2.1-.7l28.1-22.4V266c0 1.9 1.5 3.4 3.3 3.4.8 0 1.5-.3 2.1-.7l28.1-22.4V266c0 1.9 1.5 3.4 3.3 3.4.8 0 1.5-.3 2.1-.7l28.1-22.4v16.5c0 1.9 1.5 3.4 3.4 3.4H347v70.1zM266.6 148.7c1.2.7 2.3 1.5 3.3 2.5 1.9 2.3 4.6 3.8 7.5 4.2 3.1-.4 5.9-2 7.9-4.4.8-.9 1.8-1.7 2.8-2.3.7 0 2.5 1.7 3.5 2.6 1.8 2.2 4.4 3.7 7.3 4.1 3.3-.4 6.3-2.1 8.4-4.6.8-.8 2.1-1.9 2.3-2.1 1.8 0 2.2.6 3.3 2.2 1.5 2.7 4.3 4.5 7.4 4.5a3.35 3.35 0 0 0 0-6.7c-.7 0-.8 0-1.9-1.6a9.88 9.88 0 0 0-8.8-5.1c-2.7.4-5.2 1.8-6.9 3.9-1.1 1-3 2.8-3.7 2.8-1-.6-2-1.4-2.8-2.3-2-2.5-4.9-4-8-4.4-2.9.4-5.5 1.9-7.4 4.1-.9 1-2 1.9-3.2 2.6-1.1-.6-2.1-1.4-3-2.4-2-2.4-4.7-3.9-7.8-4.3-1.8 0-3.4 1.5-3.4 3.3a3.2 3.2 0 0 0 3.2 3.4z"/>
      <path class="st1" d="M189.6 296.1h-13.4c-1.9 0-3.3 1.5-3.3 3.3v20.1c0 1.9 1.5 3.4 3.3 3.4h13.4c1.8 0 3.3-1.5 3.3-3.4v-20.1c0-1.8-1.5-3.3-3.3-3.3zm-3.4 20.1h-6.7v-13.4h6.7v13.4zM216.4 296.1H203c-1.9 0-3.4 1.5-3.4 3.3v20.1c0 1.9 1.5 3.4 3.4 3.4h13.4c1.8 0 3.3-1.5 3.3-3.4v-20.1c0-1.8-1.5-3.3-3.3-3.3zm-3.4 20.1h-6.7v-13.4h6.7v13.4zM243.2 296.1h-13.4c-1.9 0-3.4 1.5-3.4 3.3v20.1c0 1.9 1.5 3.4 3.4 3.4h13.4c1.8 0 3.3-1.5 3.3-3.4v-20.1c0-1.8-1.5-3.3-3.3-3.3zm-3.4 20.1h-6.7v-13.4h6.7v13.4z"/>
    </g>
  </g>
</svg>
