<?xml version="1.0" encoding="utf-8"?>
<!-- Generator: Adobe Illustrator 21.1.0, SVG Export Plug-In . SVG Version: 6.00 Build 0)  -->
<svg version="1.1" id="Layer_1" xmlns="http://www.w3.org/2000/svg" xmlns:xlink="http://www.w3.org/1999/xlink" x="0px" y="0px"
	 viewBox="0 0 2500 1241.8" style="enable-background:new 0 0 2500 1241.8;" xml:space="preserve">
<style type="text/css">
	.st0{fill:#2C4A7C;}
	.st1{fill:#C82E37;}
</style>
<g>
	<path class="st0" d="M287.7,731.5c9.2-4.6,11.5-13.7,11.5-22.9V504.8c0-6.9-2.3-18.3-11.5-22.9h96.2c43.5,0,87,18.3,87,68.7
		c0,25.2-22.9,45.8-48.1,50.4c36.6,0,68.7,20.6,68.7,59.5c0,57.2-57.2,71-98.5,71L287.7,731.5L287.7,731.5L287.7,731.5z
		 M365.5,504.8h-16v87h11.4c29.8,0,57.2-9.2,57.2-43.5C418.2,514,395.3,504.8,365.5,504.8L365.5,504.8z M372.4,614.7h-22.9v91.6
		c11.4,2.3,22.9,2.3,34.3,2.3c25.2,0,50.4-9.1,50.4-48.1C434.2,623.9,404.4,614.7,372.4,614.7L372.4,614.7z M587.6,504.8h-11.5v87
		h11.5c27.5,0,48.1-16,48.1-45.8C635.7,516.3,615.1,504.8,587.6,504.8z M713.6,733.8c-9.2,0-20.6,0-29.8-4.6
		c-16-4.6-38.9-41.2-48.1-57.2c-16-22.9-27.5-57.2-59.5-57.2v93.9c0,9.2,2.3,18.3,11.5,22.9h-75.6c9.2-4.6,11.5-13.7,11.5-22.9
		V504.8c0-6.9-2.3-18.3-11.5-22.9h91.6c38.9,0,87,16,87,64.1c0,38.9-32.1,59.5-68.7,59.5c50.4,0,82.4,121.3,139.7,121.3
		C746,731.4,729.8,733.8,713.6,733.8L713.6,733.8z M763.9,731.5c6.9-2.3,13.7-11.5,13.7-22.9V504.8c0-11.5-6.9-18.3-13.7-22.9h77.8
		c-6.9,4.6-13.7,11.5-13.7,22.9v203.8c0,11.5,6.9,20.6,13.7,22.9L763.9,731.5L763.9,731.5z M931.1,731.5
		c6.9-4.6,11.5-13.7,11.5-22.9V511.7h-55c-13.7,0-27.5,2.3-38.9,6.9l18.3-36.6h180.9c13.7,0,29.8,0,43.5-2.3
		c-6.9,18.3-27.5,32.1-38.9,32.1h-59.5v196.9c0,9.2,4.6,18.3,13.7,22.9L931.1,731.5L931.1,731.5z M1100.5,731.5
		c6.9-2.3,13.7-11.5,13.7-22.9V504.8c0-11.5-6.9-18.3-13.7-22.9h77.9c-6.9,4.6-13.7,11.5-13.7,22.9v203.8c0,11.5,6.9,20.6,13.7,22.9
		L1100.5,731.5L1100.5,731.5z M1327.2,674.3c0-45.8-112.2-57.2-112.2-132.8c0-45.8,43.5-61.8,82.4-61.8c18.3,0,43.5,2.3,59.5,9.2
		l2.3,48.1c-9.1-20.6-34.3-36.6-57.2-36.6c-18.3,0-36.6,9.2-36.6,29.8c0,48.1,114.5,61.8,114.5,132.8c0,50.4-45.8,73.3-91.6,73.3
		c-25.2,0-57.2-4.6-77.9-18.3c0-9.2-2.3-18.3-2.3-25.2c0-11.4,2.3-20.6,4.6-32c11.5,29.8,36.6,52.7,71,52.7
		C1306.6,713.2,1327.2,701.7,1327.2,674.3L1327.2,674.3z M1565.4,731.5c4.6-2.3,11.5-11.5,11.5-22.9V617c-13.7-2.3-32-2.3-52.7-2.3
		c-22.9,0-41.2,0-54.9,2.3v91.6c0,11.5,6.9,20.6,11.5,22.9h-73.3c4.6-2.3,11.5-11.5,11.5-22.9V504.8c0-11.5-6.9-18.3-11.5-22.9h73.3
		c-4.6,4.6-11.5,11.5-11.5,22.9v84.7c13.7,0,32.1,2.3,54.9,2.3c20.6,0,38.9-2.3,52.7-2.3v-84.7c0-11.5-6.9-18.3-11.5-22.9h73.3
		c-6.9,4.6-11.5,11.5-11.5,22.9v203.8c0,11.5,4.6,20.6,11.5,22.9L1565.4,731.5L1565.4,731.5z M383.8,1054.4c2.3-2.3,4.6-4.6,4.6-9.2
		c0,0-2.3-4.6-2.3-9.2c0,0-20.6-54.9-22.9-61.8h-91.6c-2.3,6.9-25.2,61.8-25.2,61.8c-2.3,6.9-4.6,9.2-4.6,11.5
		c0,4.6,4.6,4.6,6.9,6.9h-50.4c7.2-4.9,13.4-11.1,18.3-18.3l80.1-212.9c2.3,0,2.3-2.3,2.3-2.3c0-6.9-4.6-11.5-9.2-13.8h64.1
		l82.4,229c4.6,9.2,11.5,13.8,18.3,18.3L383.8,1054.4L383.8,1054.4L383.8,1054.4z M317.4,852.9L280.8,949
		c11.5,2.3,22.9,2.3,34.3,2.3s25.2,0,38.9-2.3L317.4,852.9z M466.3,1054.4c6.9-2.3,13.7-11.5,13.7-22.9V827.7
		c0-11.5-6.9-18.3-13.7-20.6h77.9c-6.9,2.3-13.7,9.2-13.7,20.6v203.8c0,11.5,6.9,20.6,13.7,22.9L466.3,1054.4L466.3,1054.4
		L466.3,1054.4z M658.6,827.7h-11.5v87h11.5c27.5,0,48.1-13.8,48.1-45.8C706.7,839.1,686.1,827.7,658.6,827.7z M791.4,1056.7
		c-11.4,0-20.6,0-29.8-2.3c-16-6.9-41.2-43.5-50.4-59.6c-13.7-22.9-32.1-57.2-64.1-57.2v93.9c0,9.1,2.3,18.3,11.5,22.9h-75.6
		c9.2-4.6,11.5-13.8,11.5-22.9V827.7c0-6.9-2.3-18.3-11.5-20.6h91.6c38.9,0,87,13.8,87,61.8c0,38.9-36.6,59.5-61.8,59.5
		c52.7,2.3,84.7,121.4,137.4,121.4C823.5,1054.4,807.4,1056.7,791.4,1056.7L791.4,1056.7z M1100.5,830l-75.6,224.4
		c-6.9,0-13.7-2.3-16-4.6c-6.9-6.9-18.3-36.6-22.9-48.1l-34.4-87l-50.4,139.7h-22.9L793.7,830c-2.6-9.9-9.3-18.2-18.3-22.9h73.3
		c-2.3,2.3-4.6,4.6-4.6,9.2c0,2.3,0,6.9,2.3,9.1l55,148.9L958.6,807l64.1,160.3l50.4-146.5c0-2.3,2.3-4.6,2.3-6.9
		c0-4.6-2.3-4.6-4.6-6.9h48.1C1109.8,811.8,1103.2,820.1,1100.5,830L1100.5,830z M1189.8,852.9l-36.6,96.2
		c11.4,2.3,22.9,2.3,34.3,2.3c11.5,0,25.2,0,36.6-2.3L1189.8,852.9z M1254,1054.4c4.6-2.3,4.6-4.6,4.6-9.2c0,0,0-4.6-2.3-9.2
		c0,0-18.3-54.9-22.9-61.8H1144c-2.3,6.9-25.2,61.8-25.2,61.8c-2.3,6.9-4.6,9.2-4.6,11.5c0,4.6,4.6,4.6,6.9,6.9h-50.4
		c6.9-4.6,13.7-11.5,16-18.3l82.4-212.9l2.3-2.3c0-6.9-4.6-11.5-9.2-13.8h64.1l82.4,229c4.6,9.2,11.5,13.8,18.3,18.3L1254,1054.4
		L1254,1054.4z M1478.4,832.2l-57.2,103v96.2c0,9.1,2.3,18.3,9.2,22.9h-71c6.9-4.6,9.2-13.8,9.2-22.9v-96.2l-50.4-82.4
		c-4.6-6.9-25.2-43.5-52.7-43.5c6.9-2.3,29.8-6.9,43.5-6.9c25.2,0,36.7,2.3,50.4,25.2l48.1,75.6c4.6-6.9,41.2-73.3,41.2-73.3
		c4.6-6.9,6.9-13.7,6.9-16c0-2.3,0-4.6-4.6-6.9h52.7C1494.4,811.6,1485.2,823.1,1478.4,832.2L1478.4,832.2z M1615.7,997.1
		c0-45.8-109.9-57.2-109.9-132.8c0-45.8,43.5-61.8,82.4-61.8c18.3,0,43.5,2.3,59.6,9.2l2.3,48.1c-9.2-20.6-34.3-36.6-57.2-36.6
		c-18.3,0-36.6,9.1-36.6,29.8c0,48.1,112.2,61.8,112.2,132.8c0,52.7-43.5,73.3-89.3,73.3c-25.2,0-57.2-4.6-77.8-18.3
		c0-9.1-2.3-16-2.3-25.2c0-11.5,2.3-20.6,2.3-29.8c13.7,27.5,38.9,50.4,71,50.4C1597.4,1036,1615.7,1024.6,1615.7,997.1
		L1615.7,997.1z M2286.7,310.2c-43.5,41.2-135.1,77.9-178.6,93.9c-61.8,22.9-89.3,32.1-123.7,43.5c-38.9,11.5-116.8,36.6-116.8,36.6
		c160.3,48.1,274.8,61.8,274.8,61.8s52.7-16,137.4-61.8c45.8-22.9,66.4-36.6,82.4-52.7c6.9-4.6,22.9-20.6,25.2-41.2
		c0-2.3,2.3-4.6,2.3-9.2v-4.6c-2.3-2.3-2.3-4.6-2.3-4.6s0-4.6-2.3-9.2c0-2.3-4.6-13.7-13.7-20.6c-6.9-4.6-16-16-50.4-27.5
		c-11.5-4.6-32-9.2-32-9.2L2286.7,310.2z"/>
	<path class="st1" d="M2389.7,378.9c0,0,0-4.6-2.3-6.9c0-4.6-2.3-6.9-4.6-11.5c-4.3-4.2-8.1-8.8-11.5-13.7
		c-4.6-2.3-9.2-6.9-13.7-11.5c-22.9-13.7-50.4-20.6-75.6-25.2c-38.9-4.6-84.7-4.6-89.3-4.6c-13.7,0-107.6,0-130.5,2.3
		c-105.3,2.3-235.9,2.3-270.2,2.3c-350.3,0-503.7-6.9-673.2-41.2c-144.3-27.5-224.4-55-224.4-55c128.2-4.6,872.4-36.6,1007.5-38.9
		c89.3-2.3,151.1-4.6,201.5,0c27.5,0,50.4,2.3,80.2,9.2c27.5,4.6,52.7,11.5,66.4,16c29.8,11.5,57.2,27.5,68.7,45.8
		c0,0,4.6,2.3,9.1,9.2c4.6,9.2,11.5,18.3,13.8,20.6c18.3,29.8,27.5,45.8,29.8,52.7c4.6,6.9,6.9,13.7,9.2,20.6
		c4.6,4.6,4.6,9.2,4.6,11.4c2.3,6.9,2.3,13.7,4.6,16L2389.7,378.9L2389.7,378.9z"/>
</g>
</svg>
