<svg xmlns="http://www.w3.org/2000/svg" viewBox="0 0 1128 1028">
  <path opacity=".11" fill="#58595B" d="M869.13 397.88c.05-2.2.08-4.4.08-6.6 0-166.75-135.18-301.93-301.93-301.93S265.35 224.53 265.35 391.28c0 1 .03 2 .04 3-94.77 50.93-159.21 151-159.21 266.12 0 166.75 135.18 301.93 301.93 301.93A300.52 300.52 0 0 0 564 919a300.52 300.52 0 0 0 155.89 43.32c166.75 0 301.93-135.18 301.93-301.94 0-112.46-61.5-210.55-152.69-262.51zM710 657.4a300.58 300.58 0 0 1-142.72 35.81 300.53 300.53 0 0 1-149.24-39.41c2.3-106.96 60.2-200.22 145.96-252.02 86.73 52.38 144.95 147.16 146 255.62z"/>
  <path fill="#3CC0C4" d="M417.96 636.72c0-2.2.03-4.4.08-6.6-90.38-51.5-151.57-148.31-152.65-259.52-94.77 50.93-159.21 151-159.21 266.12 0 166.75 135.18 301.93 301.93 301.93A300.52 300.52 0 0 0 564 895.34c-87.52-52.87-146.04-148.91-146.04-258.62z"/>
  <path fill="#9169AD" d="M869.13 374.2c-2.4 112.34-66.17 209.57-159.12 259.53 0 1 .03 1.99.03 2.99 0 109.71-58.52 205.75-146.04 258.62a300.52 300.52 0 0 0 155.89 43.31c166.75 0 301.93-135.18 301.93-301.93 0-112.47-61.5-210.56-152.69-262.52z"/>
  <path fill="#589BD4" d="M710.04 636.72l-.03-3a300.58 300.58 0 0 1-142.73 35.82 300.54 300.54 0 0 1-149.24-39.42c-.05 2.2-.08 4.4-.08 6.6 0 109.71 58.52 205.75 146.04 258.62 87.52-52.87 146.04-148.91 146.04-258.62z"/>
  <path fill="#4B9FD8" d="M564 378.1a300.52 300.52 0 0 1 155.89-43.31 300.54 300.54 0 0 1 149.24 39.41c.05-2.2.08-4.39.08-6.6 0-166.75-135.18-301.93-301.93-301.93S265.35 200.85 265.35 367.61c0 1 .03 1.99.04 2.99a300.58 300.58 0 0 1 142.72-35.81A300.51 300.51 0 0 1 564 378.1z"/>
  <path fill="#039EA5" d="M418.04 630.12c2.3-106.96 60.2-200.21 145.96-252.02a300.52 300.52 0 0 0-155.89-43.31 300.58 300.58 0 0 0-142.72 35.8c1.08 111.22 62.27 208.04 152.65 259.53z"/>
  <path fill="#7181BF" d="M564 378.1c86.72 52.39 144.95 147.16 146 255.63 92.96-49.96 156.72-147.19 159.13-259.53a300.53 300.53 0 0 0-149.24-39.41A300.5 300.5 0 0 0 564 378.1z"/>
  <g fill="#FDFEFE">
    <path d="M892.42 628.28c2.89-15.68-1.83-37.23-19-47.5a47.72 47.72 0 0 0-35.65-4.5c-16.65 4.46-28.88 16.4-32.73 31.96a31.62 31.62 0 0 0-1.08 9.69 32.5 32.5 0 0 0 1.12 5.98 25.88 25.88 0 0 1 1.1 7.68c-.07 3.1-2.2 6.31-4.09 9.15-2.05 3.1-3.83 5.76-2.8 8.23a6.03 6.03 0 0 0 4.96 2.99 1.74 1.74 0 0 1 1.93 1.85c0 3.84.1 5.82 1.69 6.72a3.3 3.3 0 0 0 .75 3.83c.8.78 1.83 1.3 2.93 1.5l.22.04c.05.28.07.56.06.84a19.9 19.9 0 0 1-.14 2.05c-.31 2.96-.73 7 5.18 8.94 1.19.33 2.42.48 3.65.44 5.6-.25 11.13-1.3 16.43-3.15a20.87 20.87 0 0 1 2.7 8.7 1.85 1.85 0 0 0 1.84 1.85h46.2a1.83 1.83 0 0 0 1.72-1.28 1.9 1.9 0 0 0-.66-2.08c-1.91-1.45-8.24-16.75-8.43-22.24.55-1.27 1.3-2.7 2.19-4.34a86.8 86.8 0 0 0 9.91-27.35zm-15.81 31.5c.04 4.42 4.03 16.1 7.45 22.1h-40.87a26.45 26.45 0 0 0-2.72-8.11c5.35-2.1 10.07-4.8 12.33-7.76a1.85 1.85 0 0 0-2.94-2.24c-5.23 6.84-26.98 12.03-31.84 10.44-3.08-1-2.95-2.18-2.66-5.04.1-.8.16-1.62.17-2.43 0-3.12-1.26-4.05-3.15-4.48-.35-.06-.7-.19-.99-.39a5.1 5.1 0 0 1 1.22-.86 1.85 1.85 0 0 0-.81-3.51c-.67 0-1.41 0-1.8-.05a28.62 28.62 0 0 1-.12-3.64 5.4 5.4 0 0 0-5.4-5.54c-1.34-.28-1.74-.65-1.78-.73-.27-.64 1.51-3.32 2.47-4.76 2.05-3.09 4.6-6.93 4.71-11.1.05-2.3-.2-4.6-.76-6.85a18.42 18.42 0 0 1 6.96-3.84c.92-.16 1.86-.1 2.75.2a1.85 1.85 0 0 0 .98-3.57c-1.45-.45-3-.53-4.5-.25a19.03 19.03 0 0 0-7.15 3.56 21.92 21.92 0 0 1-.51-3.27c-.13-2.88.2-5.76.98-8.54 3.57-14.44 14.54-25.1 30.1-29.26a43.9 43.9 0 0 1 32.8 4.09c15.65 9.36 19.92 29.2 17.26 43.66a82.45 82.45 0 0 1-9.54 26.28c-1.02 1.9-1.9 3.53-2.53 5.04-.1.27-.14.57-.12.86z"/>
    <path d="M880.27 632.5a5.54 5.54 0 0 0-4.5-5.96l-3.54-4.9c.22-.4.39-.83.5-1.27l3.43-1.37a5.53 5.53 0 1 0 5.35-9.05l-2.78-5.53a5.52 5.52 0 0 0-6.79-8.6l-3.1-2.57a5.49 5.49 0 0 0-3.1-7.06 5.53 5.53 0 0 0-6.07 1.32l-5.47-1.37a5.5 5.5 0 0 0-10.6-.06l-7.33 1.46a5.52 5.52 0 0 0-8.82 6.51l-3.59 4.78a5.53 5.53 0 0 0-.31 10.8l2.96 7.33a5.53 5.53 0 1 0 9.1 5.79h9.92a5.35 5.35 0 0 0 6.05 3.6l6.13 9.34a5.53 5.53 0 1 0 9.55 4.65l4.58-3.66a5.54 5.54 0 0 0 8.43-4.18zm.03-19a1.85 1.85 0 1 1-1.7 2.59v-.05l-.02-.02a1.8 1.8 0 0 1-.13-.66c0-1.02.83-1.85 1.85-1.85zm-7.36-13.3a1.84 1.84 0 1 1 1.15 2.09l-.02-.01-.05-.01a1.85 1.85 0 0 1-1.08-2.07zm-1.83 4.51l-3.42 8.54-5.98-4.79c.8-.69 1.4-1.6 1.7-2.63l7.33-1.46c.11.12.24.23.37.35zm-1.97 14.84a1.85 1.85 0 1 1-1.11-2.21h.02l.05.02c.84.37 1.29 1.3 1.04 2.19zm-5.47-30.06a1.85 1.85 0 1 1 0 3.7 1.85 1.85 0 0 1 0-3.7zm-9.73.4l4.22 1.05c0 .13-.04.26-.04.4a5.55 5.55 0 0 0 5.55 5.54c.99 0 1.96-.28 2.8-.8l3.1 2.58a5.48 5.48 0 0 0-.36 1.91l.03.33-6.01 1.2a5.55 5.55 0 0 0-4.25-3.29l-6.77-6.76a5.55 5.55 0 0 0 1.73-2.16zm6.03 14.38a1.85 1.85 0 1 1-3.7 0 1.85 1.85 0 0 1 3.7 0zm-11.09-18.48a1.85 1.85 0 1 1 0 3.7 1.85 1.85 0 0 1 0-3.7zm.37 8.53l5.55 5.54a5.54 5.54 0 0 0-1.88 2.56h-4.38a5.53 5.53 0 0 0-2.4-2.91l3.11-5.2zM837.77 591l6.01-1.2c.48 1.09 1.29 2 2.31 2.6l-3.35 5.58-5.8-3.72c.56-.88.86-1.9.86-2.93 0-.12-.03-.22-.03-.33zm7.42 13.26a1.85 1.85 0 1 1-3.7 0 1.85 1.85 0 0 1 3.7 0zm-12.93-14.78a1.85 1.85 0 1 1 0 3.7 1.85 1.85 0 0 1 0-3.7zm-2.01 7c1.12.46 2.37.51 3.54.15l5.7 3.66c-.6.6-1.07 1.32-1.35 2.12h-8.07a5.54 5.54 0 0 0-2.19-2.79l2.37-3.14zm-5.38 9.63a1.85 1.85 0 1 1 0-3.7 1.85 1.85 0 0 1 0 3.7zm5.54 16.63a1.85 1.85 0 1 1 0-3.7 1.85 1.85 0 0 1 0 3.7zm1.05-7.29c-.35-.07-.7-.1-1.05-.1-.19 0-.36.03-.54.05l-2.51-6.22a5.54 5.54 0 0 0 2.7-3.07h8.08c.33.93.9 1.75 1.67 2.38l-8.35 6.96zm14.07 3.6h-9.92a5.5 5.5 0 0 0-.84-1.54l9.07-7.57 3.1 6.94a5.52 5.52 0 0 0-1.4 2.16zm3.01-12.94h4.38a5.54 5.54 0 0 0 2.41 2.91l-3.84 6.4c-.25-.04-.5-.06-.76-.07-.14 0-.27.03-.41.04l-3.18-7.11a5.55 5.55 0 0 0 1.4-2.17zm2.2 16.63a1.85 1.85 0 1 1 0-3.7 1.85 1.85 0 0 1 0 3.7zm7.88-12.02l5.16 4.13c-.81.69-1.4 1.6-1.7 2.63l-6.25 1.24a5.55 5.55 0 0 0-1.05-1.6l3.84-6.4zm3.2 30.5a1.85 1.85 0 1 1 0-3.7 1.85 1.85 0 0 1 0 3.7zm7.39-9.25c0 .62.12 1.23.33 1.81l-3.12 2.5a5.33 5.33 0 0 0-5.45-2.37l-6.13-9.33a5.5 5.5 0 0 0 1.18-2.13l6.24-1.24a5.54 5.54 0 0 0 7.24 2.94l2.28 3.16a5.53 5.53 0 0 0-2.57 4.66zm1.8-17.07l3.53-8.81.21.02c.23-.01.45-.03.67-.07l2.23 4.46a5.53 5.53 0 0 0-2.9 4.85l.02.21-2.48 1a5.52 5.52 0 0 0-1.28-1.66zm3.74 18.92a1.85 1.85 0 1 1 0-3.7 1.85 1.85 0 0 1 0 3.7z"/>
  </g>
  <path fill="#FFF" d="M344.46 607.83c-.4-.55-1.01-.9-1.68-.99l-23.56-2.95a2.46 2.46 0 0 0-2.3 3.87l5.43 7.58-24.97 14.82-13.8-24.1a3.14 3.14 0 0 0-4.83-.78l-24.43 21.91a1.7 1.7 0 1 0 2.27 2.54l24.2-21.7 14.27 24.93a2.12 2.12 0 0 0 2.96.78l27.19-16.14a2.21 2.21 0 0 0 .67-3.19l-4.94-6.88 20.42 2.56-3.78 20.48-4.95-6.98a2.2 2.2 0 0 0-2.92-.63l-8.85 5.17c-.31.1-.62.24-.91.41l-3.61 2.09c-.33.19-.64.41-.91.66l-3.26 1.9c-.24.04-.47.1-.7.17-.14.04-.27.1-.38.16l-18.57 11.11-12.74-20.16a3.11 3.11 0 0 0-4.25-1.02l-16.61 9.9h-.01c-.14.05-.26.1-.38.17l-18.54 11.1 11.82-10.6a1.7 1.7 0 1 0-2.28-2.54l-20.1 18.02c-.89.81-1.03 2.15-.31 3.13a2.33 2.33 0 0 0 3.07.62l1.01-.6a5.85 5.85 0 0 0 7.43 1.94l7.62-3.73-3.96 19.38c-.06.3-.22.56-.45.76a1.7 1.7 0 1 0 2.2 2.6 4.78 4.78 0 0 0 1.58-2.68l.99-4.76a12.62 12.62 0 0 0 3.88 3.97l-1.47 3.63c-.22.44-.7.74-1.54 1.22l-.32.2-9.7 5.55-.89-.74 2.17-1.85a1.7 1.7 0 0 0-2.22-2.59l-3.02 2.59a2.45 2.45 0 0 0 .03 3.76l2.17 1.8a2.65 2.65 0 0 0 3 .25l10.16-5.82.02-.02.32-.18c1.05-.62 2.25-1.32 2.92-2.77l.04-.07 1.3-3.23 3.73 2.14a2.24 2.24 0 0 1 1.11 2.14l-.66 7.2a2 2 0 0 0 2 2.18h4.07c.94 0 1.74-.63 1.95-1.54l2.52-10.77a4.8 4.8 0 0 0-.47-3.98l-.07-.1-8.33-11.76 4.57-12.34V645c.38-1.04.58-2.12.6-3.2a5.22 5.22 0 0 0 3.37-.65l3.62-2.08a5.26 5.26 0 0 0 1.92-7.17l-.83-1.43a5.24 5.24 0 0 0-1.44-1.61l3.92-2.34 12.55 19.87-3.94 2.36a1.7 1.7 0 0 0-.8 1.83 5.84 5.84 0 0 0 3.2 4.02c1.63.8 3.5.79 5.13 0l15.06-7.37a1.7 1.7 0 1 0-1.5-3.06l-15.06 7.36a2.46 2.46 0 0 1-2.98-.64l4.15-2.48 20.28-11.83c.36.06.68.24.92.53l.07.1c.08.2.18.4.3.6l.82 1.42c.52 1.48.53 3.1 0 4.63l-4.42 11.92-6.52-.76-.83-.1.04-.2a1.7 1.7 0 1 0-3.34-.68l-3.33 16.2c-.06.3-.22.57-.45.76l-8.34 7.14a2.45 2.45 0 0 0 .03 3.76l2.17 1.79a2.65 2.65 0 0 0 3 .25l10.16-5.82h.03l.31-.2c1.06-.61 2.26-1.31 2.93-2.76 0-.03.02-.05.03-.08l1.3-3.22 3.73 2.14a2.24 2.24 0 0 1 1.11 2.14l-.65 7.2a2 2 0 0 0 1.99 2.18h4.08c.93 0 1.73-.63 1.94-1.54l2.53-10.77a4.8 4.8 0 0 0-.54-4.08l-8.33-11.76 4.57-12.34V645c.38-1.05.57-2.13.6-3.2a5.22 5.22 0 0 0 3.37-.65l3.61-2.08a5.26 5.26 0 0 0 1.92-7.17l-.82-1.43c-.3-.53-.7-1-1.15-1.38l4.51-2.63 5.61 7.91a2.46 2.46 0 0 0 4.43-.98l4.37-23.66a2.47 2.47 0 0 0-.43-1.9zm-77.53 64.36l-.05.16-2.28 9.76h-1.42l.51-5.66c.2-2.2-.9-4.31-2.8-5.4l-6.11-3.51a9.18 9.18 0 0 1-4.54-9.26l1.3.15 6.91.8 8.38 11.8c.2.36.23.77.1 1.16zm-4.25-28.34l-4.41 11.92-6.83-.78-.53-.07 1.2-5.95 3.57-1.75a1.7 1.7 0 0 0-1.5-3.06l-4.31 2.11-.03.02-10.71 5.24a2.45 2.45 0 0 1-2.98-.64l24.04-14.33c.5-.05.99.15 1.3.55l.08.09c.08.2.18.4.29.6l.83 1.43c.52 1.48.53 3.1 0 4.62zm9.08-7.74l-3.6 2.09a1.83 1.83 0 0 1-2.41-.5c-.3-.74-.67-1.45-1.14-2.11-.18-.77.16-1.6.88-2.01l3.6-2.09a1.84 1.84 0 0 1 2.52.68l.83 1.43c.5.88.2 2-.68 2.51zm31.81 37.65c-.21.44-.7.74-1.53 1.22l-.33.2-9.7 5.55-.88-.74 7.47-6.4a4.8 4.8 0 0 0 1.58-2.67l.98-4.76a12.62 12.62 0 0 0 3.89 3.96l-1.48 3.64zm15.92-1.57l-.05.16-2.29 9.76h-1.42l.52-5.66c.2-2.2-.9-4.31-2.8-5.4l-6.11-3.51a9.18 9.18 0 0 1-4.55-9.26l1.64.19 6.58.76 8.37 11.8c.2.36.24.77.1 1.16zm3.08-40.95a1.84 1.84 0 0 1 1.6.93l.83 1.43c.5.88.2 2-.68 2.51l-3.6 2.09a1.83 1.83 0 0 1-2.41-.5c-.3-.74-.68-1.45-1.14-2.1-.13-.57.01-1.15.37-1.6l4.66-2.71c.12-.03.25-.05.37-.05z"/>
  <path fill="#66499E" d="M505.85 538.35c.37-.33 0 0 0 0l7.58 1.76-1.73 6.85-.07.07a19.52 19.52 0 0 0-5.4 20.86 19.2 19.2 0 0 0 9.87 11.02c3.43 1.65 4.57 1.72 8.52 1.95l-5.25 4.7 3.4 5.94a33.3 33.3 0 0 1-11.3-2.98 29.8 29.8 0 0 1-15.3-17.1c-3.99-11.35.42-25 9.68-33.07z"/>
  <path fill="#66499E" d="M526.3 580.78c.94-.18 3.64-.73 4.57-1.05 7.63-2.68 12.39-8.33 17.9-14.86l17.26-19.65 1.41 6.68 7-.13-17.52 19.97c-5.96 7.08-12.13 14.4-22.52 18.05a29.99 29.99 0 0 1-10.55 1.7l-3.4-5.69 5.84-5.02z"/>
  <path fill="none" d="M564.65 546.9l-.39.46.02.01z"/>
  <path fill="#0BBCD4" d="M545.12 512.9a19.34 19.34 0 0 1 18.5-14.75c5.23-.06 9.61 1.96 13.72 5.18.51.32 1.23.88 1.23.88l6.58-.04 3-4.58c-1.74-2.12-.65-.97-3.18-3.47a30.03 30.03 0 0 0-49.48 11.72l6.82-1.64 2.8 6.7z"/>
  <path fill="#0BBCD4" d="M579.09 505.28c.72 2.05 4.15 9.96 4.15 12.2 0 3.44-.91 6.8-2.63 9.74l-.03.05-4.55 5.61h13.62l.16-.26a30 30 0 0 0 4.1-15.14c0-4.1-3.06-13.59-5.19-17.14l-3.09 4.94h-6.54z"/>
  <path fill="#903E97" d="M574.7 532.88h-11.73l3.81 4.48-2.84 6.19h31.96c4.77 0 8.44.24 11.26.6l5.8-4.19-2.87-6.15a91.39 91.39 0 0 0-14.19-.93H574.7z"/>
  <path fill="#0BBCD4" d="M566.75 544.32l1.7 6.58h6.7l5.96-7.35h-13.73z"/>
  <path fill="#66499E" d="M561.31 543.55h1.58l2.77-6.03-3.95-4.64h-9.63c.63 3.02 7.95 9.54 9.23 10.67z"/>
  <path fill="#0BBCD4" d="M546.59 543.55l6.07 6.6 1.07-6.7 8.09.72-.5-.62c-1.29-1.13-9.28-10.67-9.24-10.67h-.04l-.72-.85c-.56-.66-1.15-1.3-1.72-1.9-.9-.97-1.84-1.97-2.32-2.78a19.3 19.3 0 0 1-2.47-12.88l-3.06-6.92-6.66 1.56a29.93 29.93 0 0 0 2.77 23.26l8.73 11.18z"/>
  <path fill="#903E97" d="M601.52 580.78c-.95-.18-3.65-.73-4.58-1.05-7.63-2.68-12.39-8.33-17.9-14.86l-7.84-9.4-7.18 8.18 6.87 8.09c5.97 7.08 12.14 14.4 22.52 18.05a29.99 29.99 0 0 0 10.55 1.7l-6.31-4.6 3.87-6.11zM562.35 545.08l-7.93-.62-.9 6.7 3.63 4.3 7.11-8.1z"/>
  <path fill="#903E97" d="M623.3 539.08c-2.89-2.64-7.22-4.17-11.92-5.05l3 6.08-5.86 4.24c4.99.8 6.9 1.97 7.59 2.61l.07.07a19.52 19.52 0 0 1 5.4 20.86 19.2 19.2 0 0 1-9.87 11.02c-3.43 1.65-5.1 2.4-8.78 1.91l-3.88 5.93 6.59 4.66a29.98 29.98 0 0 0 10.7-2.89 29.8 29.8 0 0 0 15.3-17.1 30.3 30.3 0 0 0-8.34-32.34z"/>
  <text transform="translate(516.4 563.82)" fill="#DDD" font-family="'Calibri-Bold'" font-size="13.52">
    Dev
  </text>
  <text transform="translate(589.64 563.82)" fill="#DDD" font-family="'Calibri-Bold'" font-size="13.52">
    Ops
  </text>
  <path fill="#66499E" d="M553.12 532.88h-14.96l3.95 4.94 4.59 5.73h14-28.79c-11.56 0-16.23 2.5-19.06 2.86l1.8-6.86-7.95-1.77c2.31-1.12 8.68-4.9 25.21-4.9H553.12z"/>
  <g fill="#0B8F99">
    <path d="M563.49 510.97a.28.28 0 0 0-.06-.17.4.4 0 0 0-.2-.13 5.07 5.07 0 0 0-1.96 0 .4.4 0 0 0-.2.13.28.28 0 0 0-.06.17v7.42c0 .44-.06.82-.18 1.16-.11.34-.28.63-.5.86-.21.23-.48.4-.79.53a2.9 2.9 0 0 1-1.06.18 3 3 0 0 1-1.05-.18 2.16 2.16 0 0 1-1.33-1.42 4 4 0 0 1-.18-1.27v-7.28a.27.27 0 0 0-.06-.17.44.44 0 0 0-.2-.13 5.2 5.2 0 0 0-1.98 0 .4.4 0 0 0-.21.13.28.28 0 0 0-.06.17v7.5c0 .79.11 1.48.34 2.06a3.85 3.85 0 0 0 2.54 2.36c.62.2 1.31.3 2.09.3.83 0 1.56-.12 2.2-.33a3.98 3.98 0 0 0 2.58-2.46c.22-.6.33-1.28.33-2.03v-7.4zM571.76 516.6l2.75-5.03c.1-.23.18-.41.21-.54.04-.14.02-.24-.05-.3-.07-.08-.2-.12-.38-.14a9.21 9.21 0 0 0-1.8.06.4.4 0 0 0-.2.12.98.98 0 0 0-.12.19l-2.11 4.08-2.17-4.08a1.07 1.07 0 0 0-.11-.2.4.4 0 0 0-.22-.11c-.1-.03-.24-.05-.41-.06a10.16 10.16 0 0 0-1.55 0c-.2.02-.34.06-.4.13-.08.06-.1.16-.06.3.04.14.12.32.24.55l2.74 5.06-2.95 5.38c-.12.23-.2.4-.24.54-.04.13-.03.23.04.3.06.07.18.12.36.14a7.82 7.82 0 0 0 1.87-.06c.1-.02.17-.06.22-.11a.9.9 0 0 0 .12-.2l2.31-4.45 2.32 4.45a.7.7 0 0 0 .11.2c.05.05.12.09.22.11.1.03.23.05.4.07a9.95 9.95 0 0 0 1.54-.01c.2-.02.34-.07.42-.14.07-.07.1-.17.06-.3a2.85 2.85 0 0 0-.23-.53l-2.93-5.42z"/>
  </g>
  <g>
    <path fill="#68356D" d="M562.48 580.12a5.08 5.08 0 0 0-1.94-1.14 8.87 8.87 0 0 0-2.8-.39h-3.17a.78.78 0 0 0-.53.19c-.14.12-.2.33-.2.6v10.76c0 .28.06.48.2.6.15.13.32.19.53.19h2.95c1.1 0 2.04-.12 2.83-.36a5.1 5.1 0 0 0 2.01-1.12c.56-.5.98-1.16 1.28-1.97.3-.8.44-1.77.44-2.9 0-.98-.14-1.84-.4-2.58a4.91 4.91 0 0 0-1.2-1.88zm-1.23 6.41c-.15.54-.39.98-.7 1.34-.32.36-.7.63-1.18.8-.47.19-1.05.28-1.74.28h-1.3v-8.4h1.27c.76 0 1.39.11 1.86.32.47.2.86.5 1.16.86.3.37.52.8.66 1.3s.2 1.05.2 1.64c0 .7-.07 1.33-.23 1.86zm13.25 3.99a2.85 2.85 0 0 0-.23-.54l-2.93-5.41 2.75-5.03c.1-.23.18-.41.21-.55.04-.13.02-.23-.05-.3-.07-.07-.2-.11-.38-.13a9.18 9.18 0 0 0-1.8.06.4.4 0 0 0-.2.12c-.05.05-.09.11-.12.19l-2.11 4.08-2.17-4.08a1.07 1.07 0 0 0-.12-.2.4.4 0 0 0-.2-.11c-.11-.03-.25-.05-.42-.06a10.16 10.16 0 0 0-1.55 0c-.2.02-.34.06-.4.12-.08.07-.1.17-.06.3.04.15.12.33.24.56l2.74 5.06-2.95 5.38c-.12.23-.2.4-.24.54-.04.13-.03.23.04.3.06.07.18.12.36.13a7.82 7.82 0 0 0 1.87-.05c.1-.03.17-.06.22-.12a.9.9 0 0 0 .12-.19l2.31-4.45 2.32 4.45c.03.08.07.14.11.2.05.05.12.09.22.11.1.03.23.05.4.07a9.95 9.95 0 0 0 1.54-.01c.2-.02.34-.07.42-.14.07-.07.09-.17.05-.3z"/>
  </g>
  <g>
    <path fill="#FFF" d="M621.43 227.23l-24.8-40.32a3.67 3.67 0 0 0-3.16-1.76c-1.3 0-2.47.66-3.15 1.76l-3.22 5.24a1.73 1.73 0 0 0 2.95 1.81l3.22-5.24c.02-.02.07-.1.2-.1s.19.08.2.1l24.81 40.32c.02.04.07.12 0 .24-.06.12-.16.12-.2.12h-13.74l-38.42-62.45a3.7 3.7 0 0 0-1.38-1.3v-11.76a16 16 0 0 0 4.22.56c3.95 0 7.65-1.37 11.27-2.72 5.01-1.86 9.75-3.62 14.87-1.56a2.14 2.14 0 0 0 2.94-1.99v-19.56c0-.86-.52-1.64-1.3-1.97-6.5-2.78-12.2-.66-17.72 1.38-5.16 1.92-10.04 3.73-15.35 1.36a1.73 1.73 0 0 0-2.44 1.58v.06c-.03.13-.04.26-.04.4v34.21a3.7 3.7 0 0 0-1.38 1.31l-18.24 29.65-5.96-9.69a3.67 3.67 0 0 0-3.15-1.76c-1.3 0-2.47.66-3.15 1.76l-24.8 40.32a3.7 3.7 0 0 0 3.14 5.64h110.63a3.7 3.7 0 0 0 3.15-5.64zm-56.73-93.8c5.6 1.53 10.64-.33 15.53-2.15 4.83-1.8 9.42-3.5 14.34-1.76v16.82c-5.62-1.54-10.66.33-15.55 2.15-4.83 1.79-9.4 3.49-14.32 1.76v-16.82zm-39.24 95.97l5.94-9.65a1.73 1.73 0 0 0-2.95-1.82l-7.06 11.47h-13.74c-.03 0-.13 0-.2-.12a.22.22 0 0 1 0-.24l24.81-40.32a.22.22 0 0 1 .2-.1c.13 0 .18.08.2.1l6.88 11.19-6.87 11.16a1.73 1.73 0 0 0 2.95 1.81l27.15-44.11a.22.22 0 0 1 .2-.12c.13 0 .18.09.2.12l37.3 60.63h-75.01z"/>
  </g>
  <g fill="#FFF">
    <path d="M778.46 711.5c2.18 0 4.07.25 5.68.76 1.6.5 2.94 1.22 4 2.14a8.66 8.66 0 0 1 2.36 3.36c.52 1.32.78 2.78.78 4.4 0 1.6-.28 3.06-.84 4.39-.57 1.33-1.39 2.47-2.47 3.43s-2.41 1.71-4 2.25-3.43.8-5.51.8h-5.52v12.86h-4.63V711.5h10.15zm0 17.83c1.33 0 2.5-.17 3.52-.52s1.87-.85 2.56-1.48a6.07 6.07 0 0 0 1.58-2.27c.35-.88.52-1.85.52-2.9 0-2.2-.67-3.9-2.02-5.14-1.36-1.23-3.4-1.85-6.16-1.85h-5.52v14.16h5.52zM814.58 742.49a8.1 8.1 0 0 1-1.9 1.66c-.73.48-1.52.86-2.36 1.17a15.02 15.02 0 0 1-5.27.91c-1.68 0-3.23-.28-4.64-.85-1.42-.57-2.64-1.4-3.67-2.5s-1.84-2.45-2.42-4.07-.86-3.47-.86-5.56c0-1.7.26-3.28.78-4.76a11.22 11.22 0 0 1 2.24-3.82 10.34 10.34 0 0 1 3.58-2.55c1.4-.61 3-.92 4.75-.92 1.46 0 2.8.24 4.05.73a9.08 9.08 0 0 1 5.34 5.52c.5 1.35.76 2.9.76 4.62 0 .67-.07 1.12-.21 1.34-.15.23-.42.34-.82.34H797.7c.04 1.54.25 2.87.63 4s.9 2.1 1.57 2.85c.67.76 1.47 1.33 2.4 1.7s1.97.57 3.12.57c1.07 0 2-.12 2.77-.37a13.17 13.17 0 0 0 3.41-1.61c.38-.25.7-.37.97-.37.36 0 .63.13.82.4l1.2 1.57zm-3.46-11.4c0-1-.14-1.9-.42-2.73-.27-.82-.68-1.54-1.22-2.14s-1.19-1.06-1.96-1.39-1.64-.49-2.61-.49c-2.05 0-3.67.6-4.86 1.79a8.38 8.38 0 0 0-2.22 4.96h13.3zM824.25 726.45a10.97 10.97 0 0 1 2.83-3.9 6.18 6.18 0 0 1 4.1-1.4c.52 0 1.01.06 1.48.17.48.11.9.29 1.26.53l-.3 3.19c-.1.4-.34.6-.73.6-.22 0-.55-.05-.98-.15a6.79 6.79 0 0 0-3.52.2 4.8 4.8 0 0 0-1.6 1c-.48.43-.9.97-1.28 1.62-.37.65-.71 1.4-1.02 2.22v15.36h-4.3v-24.3h2.45c.47 0 .79.08.96.25.18.18.3.48.36.92l.3 3.7zM851.68 725.59a.95.95 0 0 1-.88.53c-.24 0-.52-.09-.82-.27-.3-.17-.68-.37-1.12-.58-.44-.22-.96-.42-1.57-.6a7.46 7.46 0 0 0-2.16-.28c-.72 0-1.36.1-1.94.28-.58.18-1.07.43-1.48.75s-.72.7-.93 1.12a3 3 0 0 0-.33 1.38c0 .62.18 1.14.54 1.56s.84.77 1.43 1.08 1.27.57 2.02.8l2.31.74c.8.26 1.57.56 2.32.88.75.32 1.42.72 2.02 1.2a5.5 5.5 0 0 1 1.42 1.77c.36.7.54 1.53.54 2.5 0 1.12-.2 2.16-.6 3.11s-.99 1.78-1.77 2.47a8.59 8.59 0 0 1-2.88 1.65c-1.14.4-2.45.6-3.94.6-1.7 0-3.23-.28-4.6-.83a11.68 11.68 0 0 1-3.51-2.12l1-1.64c.14-.2.29-.36.46-.47.18-.12.4-.17.68-.17s.59.1.9.33c.33.23.72.48 1.17.75a7.64 7.64 0 0 0 4.12 1.08c.83 0 1.56-.11 2.18-.33a4.6 4.6 0 0 0 1.56-.87c.42-.37.73-.8.93-1.27.2-.48.3-1 .3-1.54 0-.67-.18-1.23-.54-1.67a4.59 4.59 0 0 0-1.43-1.13c-.6-.3-1.27-.58-2.03-.81l-2.33-.73c-.79-.26-1.57-.55-2.33-.88s-1.43-.74-2.02-1.24c-.6-.5-1.07-1.1-1.43-1.83a5.93 5.93 0 0 1-.54-2.65 6.5 6.5 0 0 1 2.25-4.94c.74-.64 1.64-1.16 2.72-1.54s2.3-.58 3.67-.58c1.6 0 3.04.25 4.3.76 1.28.5 2.38 1.2 3.3 2.07l-.96 1.56zM868.56 721.2c1.77 0 3.37.3 4.8.89s2.64 1.43 3.65 2.52c1 1.08 1.77 2.4 2.31 3.94s.8 3.27.8 5.18c0 1.92-.26 3.64-.8 5.18a11.1 11.1 0 0 1-2.31 3.94c-1.01 1.08-2.23 1.92-3.65 2.5s-3.03.88-4.8.88c-1.8 0-3.4-.3-4.84-.88s-2.65-1.42-3.66-2.5c-1-1.1-1.78-2.4-2.31-3.94-.54-1.53-.8-3.26-.8-5.18 0-1.9.26-3.63.8-5.18s1.3-2.86 2.31-3.94c1-1.1 2.23-1.93 3.66-2.52s3.04-.9 4.84-.9zm0 21.7c2.4 0 4.19-.81 5.37-2.42 1.19-1.6 1.78-3.85 1.78-6.73 0-2.9-.6-5.15-1.78-6.77-1.18-1.61-2.97-2.42-5.37-2.42-1.22 0-2.28.2-3.18.62s-1.66 1.02-2.26 1.8a8 8 0 0 0-1.34 2.9c-.3 1.14-.45 2.43-.45 3.87 0 2.88.6 5.12 1.79 6.73 1.2 1.61 3 2.41 5.44 2.41zM889.56 725.1c.52-.58 1.08-1.12 1.68-1.6.59-.48 1.22-.9 1.88-1.23a9.54 9.54 0 0 1 4.52-1.07c1.33 0 2.5.22 3.52.66a6.81 6.81 0 0 1 2.54 1.87c.68.8 1.2 1.78 1.55 2.92.35 1.13.53 2.39.53 3.76v15.48h-4.3v-15.48c0-1.83-.42-3.26-1.26-4.28-.84-1.02-2.11-1.52-3.82-1.52a7.2 7.2 0 0 0-3.54.9c-1.1.62-2.11 1.44-3.04 2.48v17.9h-4.3v-24.3h2.57c.61 0 .98.29 1.13.88l.34 2.64zM911.68 725.01a13.9 13.9 0 0 1 4.35-2.9c1.55-.64 3.27-.96 5.16-.96 1.36 0 2.56.23 3.62.67a7.44 7.44 0 0 1 4.3 4.78c.37 1.13.55 2.38.55 3.74v15.55h-1.9c-.41 0-.73-.06-.95-.2-.23-.14-.4-.4-.53-.8l-.48-2.3c-.64.58-1.27 1.1-1.87 1.56a10.68 10.68 0 0 1-4.07 1.88c-.76.16-1.6.25-2.53.25-.95 0-1.84-.13-2.67-.4a5.57 5.57 0 0 1-3.64-3.2 7 7 0 0 1-.53-2.86c0-.96.26-1.88.79-2.77a6.94 6.94 0 0 1 2.56-2.36 16.86 16.86 0 0 1 4.64-1.7c1.9-.43 4.24-.69 7-.75v-1.9c0-1.89-.4-3.31-1.22-4.28-.81-.97-2-1.45-3.58-1.45a7.69 7.69 0 0 0-4.5 1.28c-.52.33-.96.62-1.34.89-.37.26-.75.4-1.11.4-.3 0-.54-.08-.75-.23-.2-.16-.38-.34-.53-.57l-.77-1.37zm13.8 9.94c-1.96.06-3.64.22-5.02.47a14.3 14.3 0 0 0-3.39.97c-.87.4-1.5.87-1.9 1.42-.39.54-.58 1.15-.58 1.82a4 4 0 0 0 .31 1.66 3.06 3.06 0 0 0 2.13 1.78c.48.14 1 .2 1.57.2a7.74 7.74 0 0 0 3.83-.89 9.9 9.9 0 0 0 1.58-1.02c.5-.4 1-.86 1.48-1.37v-5.04zM940.58 710.54v35.35h-4.27v-35.35h4.27zM813.49 803.5h-3.6c-.42 0-.75-.11-1-.32a1.9 1.9 0 0 1-.59-.8l-3.21-8.3h-15.43l-3.22 8.3c-.1.3-.28.55-.55.78-.27.22-.61.33-1.01.33h-3.6l13.75-34.39h4.7l13.76 34.4zm-9.7-12.77l-5.4-14a26.6 26.6 0 0 1-1-3.21c-.34 1.3-.69 2.37-1.04 3.24l-5.4 13.97h12.84zM821.22 782.69a12.47 12.47 0 0 1 3.46-2.84 9.13 9.13 0 0 1 4.46-1.05c1.42 0 2.7.27 3.85.81a8.01 8.01 0 0 1 2.92 2.37c.8 1.03 1.4 2.28 1.83 3.75.43 1.48.64 3.13.64 4.97 0 1.97-.24 3.76-.72 5.38-.48 1.61-1.18 3-2.08 4.14a9.4 9.4 0 0 1-7.67 3.6c-1.6 0-2.95-.3-4.04-.9a8.82 8.82 0 0 1-2.87-2.55l-.22 2.21c-.12.6-.5.91-1.1.91h-2.76v-35.35h4.3v14.55zm0 14.95a6.86 6.86 0 0 0 2.58 2.23c.93.43 1.96.65 3.08.65 2.29 0 4.04-.81 5.26-2.43 1.21-1.61 1.82-4.02 1.82-7.22 0-2.98-.54-5.17-1.62-6.57a5.5 5.5 0 0 0-4.62-2.1c-1.4 0-2.6.32-3.64.96a10.72 10.72 0 0 0-2.86 2.72v11.76zM849.23 771.55c0 .42-.09.8-.26 1.16a3.34 3.34 0 0 1-1.65 1.62 3 3 0 0 1-3.3-.66c-.27-.28-.49-.6-.65-.96a3 3 0 0 1 0-2.35 3.19 3.19 0 0 1 1.6-1.64 3 3 0 0 1 3.33.66c.28.28.5.6.67.98s.25.77.25 1.19zm-.92 7.63v24.31h-4.27v-24.3h4.27zM859.74 768.14v35.35h-4.28v-35.35h4.28zM872.07 771.55c0 .42-.08.8-.25 1.16-.17.36-.4.68-.67.96a3.07 3.07 0 0 1-3.34.66 3.24 3.24 0 0 1-1.6-1.62 3 3 0 0 1 0-2.35 3.17 3.17 0 0 1 1.6-1.64 3 3 0 0 1 3.34.66c.28.28.5.6.67.98s.25.77.25 1.19zm-.91 7.63v24.31h-4.27v-24.3h4.27zM882.58 768.14v35.35h-4.27v-35.35h4.27zM896.96 803.88c-1.92 0-3.4-.54-4.43-1.61-1.03-1.07-1.55-2.62-1.55-4.63v-14.88h-2.93a.95.95 0 0 1-.64-.23c-.18-.15-.27-.39-.27-.7v-1.71l3.99-.5.98-7.52c.05-.24.15-.44.32-.59a.95.95 0 0 1 .66-.23h2.16v8.38h7.03v3.1h-7.03v14.59c0 1.02.25 1.78.75 2.28.5.5 1.13.74 1.92.74.44 0 .83-.06 1.16-.18a4.96 4.96 0 0 0 1.46-.79.8.8 0 0 1 .45-.18c.22 0 .42.14.6.4l1.25 2.05c-.74.69-1.63 1.23-2.67 1.62s-2.1.59-3.21.59zM927.68 779.18l-13.56 31.49c-.15.32-.33.58-.54.77-.22.19-.55.29-1 .29h-3.17l4.44-9.65-10.03-22.9h3.7c.37 0 .66.1.87.28.22.18.37.39.45.6l6.5 15.32c.26.67.47 1.38.65 2.11.22-.75.46-1.46.72-2.13l6.31-15.3a1.37 1.37 0 0 1 1.27-.88h3.39z"/>
  </g>
  <g fill="#FFF">
    <path d="M488.41 255.9v34.4h-4.08v-25.28a67.84 67.84 0 0 1 .12-2.26l-11.8 21.51c-.38.72-.93 1.08-1.69 1.08h-.67c-.75 0-1.31-.36-1.68-1.08l-12.05-21.6c.1.85.15 1.63.15 2.35v25.28h-4.08v-34.4h3.43c.42 0 .73.04.96.12.22.08.44.3.65.68l11.88 21.16a28.64 28.64 0 0 1 1.08 2.47l.5-1.28c.18-.42.37-.83.58-1.21l11.66-21.14c.2-.37.4-.6.64-.68.23-.08.55-.12.97-.12h3.43zM505.7 265.6c1.77 0 3.37.3 4.8.89 1.42.6 2.63 1.43 3.64 2.52 1 1.09 1.78 2.4 2.32 3.95.53 1.54.8 3.27.8 5.17 0 1.92-.27 3.65-.8 5.18a11.08 11.08 0 0 1-2.32 3.94c-1 1.09-2.22 1.92-3.65 2.5-1.42.6-3.02.88-4.8.88-1.79 0-3.4-.29-4.83-.87a10.13 10.13 0 0 1-3.66-2.51c-1.01-1.09-1.78-2.4-2.32-3.94-.54-1.53-.8-3.26-.8-5.18 0-1.9.26-3.63.8-5.17s1.3-2.86 2.32-3.95c1-1.09 2.22-1.93 3.66-2.52 1.43-.6 3.04-.89 4.83-.89zm0 21.7c2.4 0 4.18-.8 5.37-2.42 1.18-1.6 1.77-3.85 1.77-6.73 0-2.9-.59-5.15-1.77-6.77-1.19-1.61-2.98-2.42-5.38-2.42-1.21 0-2.27.2-3.18.62a5.92 5.92 0 0 0-2.25 1.8 8 8 0 0 0-1.35 2.9 15.5 15.5 0 0 0-.44 3.87c0 2.88.6 5.13 1.79 6.73 1.19 1.61 3 2.42 5.43 2.42zM544.79 290.3h-4.27v-20.74h-12.53v14.6c0 1.02.25 1.78.74 2.27.5.5 1.14.75 1.92.75.45 0 .84-.06 1.17-.18a5 5 0 0 0 1.46-.8.8.8 0 0 1 .44-.18c.23 0 .43.14.6.41l1.25 2.04c-.73.69-1.62 1.23-2.66 1.62s-2.11.59-3.22.59c-1.92 0-3.4-.54-4.43-1.6-1.03-1.08-1.54-2.62-1.54-4.64v-14.88h-2.93a.95.95 0 0 1-.65-.23c-.18-.15-.26-.39-.26-.7v-1.71l3.98-.53.98-7.49c.05-.24.16-.43.33-.58a.95.95 0 0 1 .66-.23h2.16v8.37h16.8v23.84zm1.05-32.12c0 .42-.08.8-.25 1.17a3.18 3.18 0 0 1-2.82 1.83c-.41 0-.8-.08-1.16-.24a3.12 3.12 0 0 1-1.6-1.6 3 3 0 0 1 0-2.35 3.19 3.19 0 0 1 1.6-1.64 2.93 2.93 0 0 1 3.31.66c.28.28.5.61.67.99s.25.77.25 1.18zM572.63 265.98l-9.91 24.32h-3.85l-9.9-24.32h3.47c.35 0 .64.1.87.27s.37.38.45.62l6.17 15.65a30.95 30.95 0 0 1 .91 3.4l.41-1.67c.15-.56.32-1.14.53-1.73l6.24-15.65c.1-.25.25-.47.48-.63.22-.17.49-.26.79-.26h3.34zM575.41 269.42c1.35-1.3 2.8-2.27 4.35-2.9a13.4 13.4 0 0 1 5.16-.97c1.35 0 2.56.23 3.62.67a7.43 7.43 0 0 1 4.3 4.78c.36 1.14.55 2.38.55 3.74v15.56h-1.9c-.41 0-.73-.07-.96-.2-.22-.14-.4-.41-.52-.81l-.48-2.3c-.64.59-1.27 1.1-1.88 1.57a10.01 10.01 0 0 1-4.06 1.87c-.77.17-1.6.25-2.54.25s-1.83-.13-2.66-.4a5.57 5.57 0 0 1-3.64-3.2 7 7 0 0 1-.54-2.86c0-.96.27-1.88.8-2.77a6.93 6.93 0 0 1 2.56-2.36 16.87 16.87 0 0 1 4.63-1.7c1.9-.43 4.24-.68 7.01-.75v-1.9c0-1.88-.4-3.31-1.22-4.28-.82-.97-2-1.45-3.58-1.45a7.68 7.68 0 0 0-4.5 1.28c-.52.33-.97.63-1.34.89-.38.27-.75.4-1.12.4-.28 0-.53-.08-.74-.23-.2-.15-.39-.34-.53-.57l-.77-1.36zm13.8 9.93c-1.97.07-3.64.22-5.03.47s-2.5.57-3.38.97c-.87.4-1.5.87-1.9 1.42-.39.54-.58 1.15-.58 1.82a4 4 0 0 0 .3 1.66c.22.46.5.84.86 1.14s.78.51 1.27.65c.49.13 1.02.2 1.57.2.76 0 1.44-.08 2.07-.23s1.21-.37 1.76-.66 1.08-.63 1.59-1.03c.5-.4 1-.86 1.47-1.37v-5.04zM622.14 290.3h-4.27v-20.74h-12.53v14.6c0 1.02.25 1.78.74 2.27.5.5 1.14.75 1.92.75.45 0 .84-.06 1.17-.18a5.07 5.07 0 0 0 1.46-.8.8.8 0 0 1 .44-.18c.23 0 .43.14.6.41l1.25 2.04c-.73.69-1.62 1.23-2.66 1.62s-2.11.59-3.22.59c-1.92 0-3.4-.54-4.42-1.6-1.04-1.08-1.55-2.62-1.55-4.64v-14.88h-2.93c-.26 0-.47-.08-.65-.23s-.26-.39-.26-.7v-1.71l3.98-.53.98-7.49c.05-.24.16-.43.33-.58a.95.95 0 0 1 .66-.23h2.16v8.37h16.8v23.84zm1.06-32.12c0 .42-.09.8-.26 1.17a3.18 3.18 0 0 1-2.82 1.83c-.41 0-.8-.08-1.16-.24a3.1 3.1 0 0 1-1.6-1.6 3 3 0 0 1 0-2.35 3.19 3.19 0 0 1 1.6-1.64 2.94 2.94 0 0 1 3.31.66c.28.28.5.61.67.99s.25.77.25 1.18zM639.4 265.6c1.77 0 3.37.3 4.8.89 1.42.6 2.64 1.43 3.64 2.52s1.78 2.4 2.32 3.95c.54 1.54.8 3.27.8 5.17 0 1.92-.26 3.65-.8 5.18-.54 1.54-1.3 2.85-2.32 3.94s-2.22 1.92-3.64 2.5c-1.43.6-3.03.88-4.8.88-1.8 0-3.4-.29-4.84-.87s-2.65-1.42-3.66-2.51c-1-1.09-1.78-2.4-2.32-3.94-.53-1.53-.8-3.26-.8-5.18 0-1.9.27-3.63.8-5.17s1.31-2.86 2.32-3.95c1-1.09 2.23-1.93 3.66-2.52s3.04-.89 4.84-.89zm0 21.7c2.4 0 4.19-.8 5.37-2.42 1.19-1.6 1.78-3.85 1.78-6.73 0-2.9-.6-5.15-1.78-6.77-1.18-1.61-2.97-2.42-5.37-2.42-1.22 0-2.28.2-3.18.62s-1.66 1.02-2.26 1.8a8 8 0 0 0-1.34 2.9c-.3 1.14-.45 2.43-.45 3.87 0 2.88.6 5.13 1.79 6.73 1.2 1.61 3 2.42 5.44 2.42zM660.4 269.51c.52-.59 1.08-1.13 1.68-1.6.59-.49 1.22-.9 1.88-1.24a9.56 9.56 0 0 1 4.52-1.07c1.33 0 2.5.22 3.52.66a6.81 6.81 0 0 1 2.54 1.87 8.3 8.3 0 0 1 1.55 2.92c.35 1.14.53 2.4.53 3.77v15.48h-4.3v-15.48c0-1.84-.42-3.27-1.26-4.29-.84-1.01-2.11-1.52-3.82-1.52a7.2 7.2 0 0 0-3.54.91c-1.1.61-2.11 1.43-3.04 2.47v17.9h-4.3V266h2.57c.6 0 .99.3 1.13.88l.34 2.64z"/>
  </g>
  <g fill="#FFF">
    <path d="M183.93 728.71c0 2.58-.4 4.94-1.22 7.1s-1.97 4-3.46 5.55c-1.49 1.55-3.28 2.76-5.36 3.61s-4.4 1.28-6.93 1.28c-2.53 0-4.83-.42-6.91-1.28a15.46 15.46 0 0 1-8.8-9.17c-.82-2.15-1.23-4.51-1.23-7.09s.4-4.94 1.22-7.1c.82-2.14 1.97-4 3.46-5.56a15.53 15.53 0 0 1 5.35-3.64c2.08-.86 4.38-1.3 6.91-1.3 2.53 0 4.84.44 6.93 1.3a15.5 15.5 0 0 1 5.36 3.64 16.38 16.38 0 0 1 3.46 5.57 19.86 19.86 0 0 1 1.22 7.09zm-4.78 0c0-2.11-.28-4-.86-5.69-.58-1.68-1.4-3.1-2.45-4.26s-2.33-2.05-3.84-2.67c-1.5-.63-3.18-.94-5.04-.94-1.84 0-3.51.31-5.01.94-1.5.62-2.8 1.51-3.86 2.67s-1.88 2.58-2.46 4.26-.86 3.58-.86 5.69c0 2.11.29 4 .86 5.68s1.4 3.08 2.46 4.24a10.61 10.61 0 0 0 3.86 2.67c1.5.61 3.17.92 5.01.92 1.86 0 3.54-.3 5.04-.92 1.5-.62 2.79-1.5 3.84-2.67s1.87-2.57 2.45-4.24c.58-1.68.86-3.57.86-5.68zM193.15 726.45a10.96 10.96 0 0 1 2.83-3.9 6.18 6.18 0 0 1 4.1-1.4c.51 0 1 .06 1.48.17.47.11.89.29 1.26.53l-.31 3.19c-.1.4-.34.6-.72.6a4.9 4.9 0 0 1-.99-.15 6.77 6.77 0 0 0-3.51.2c-.6.22-1.14.55-1.61 1-.47.43-.9.97-1.27 1.62-.38.65-.72 1.4-1.02 2.22v15.36h-4.3v-24.3h2.45c.46 0 .78.08.96.25.17.18.3.48.36.92l.29 3.7zM226.53 722.54v1.59c0 .52-.34.86-1 1l-2.77.36c.55 1.06.82 2.23.82 3.5a7.48 7.48 0 0 1-2.57 5.72 8.36 8.36 0 0 1-2.88 1.58 12.3 12.3 0 0 1-6.86.14c-.52.33-.9.67-1.18 1.03-.27.36-.4.72-.4 1.1 0 .57.23 1 .7 1.3.47.3 1.1.5 1.86.64.77.12 1.64.2 2.63.24.98.03 1.99.08 3.02.15 1.03.07 2.04.2 3.03.37.98.18 1.86.47 2.62.87.77.4 1.4.95 1.86 1.65.48.7.71 1.62.71 2.74 0 1.04-.26 2.05-.78 3.02a8.18 8.18 0 0 1-2.24 2.6c-.98.77-2.17 1.37-3.59 1.83s-3.01.68-4.79.68c-1.77 0-3.33-.17-4.65-.52a10.95 10.95 0 0 1-3.32-1.42 6.17 6.17 0 0 1-1.98-2.05 4.87 4.87 0 0 1-.66-2.44c0-1.2.38-2.22 1.13-3.05a7.8 7.8 0 0 1 3.1-1.99 4.43 4.43 0 0 1-1.72-1.28 3.4 3.4 0 0 1-.63-2.17c0-.36.06-.72.19-1.1s.32-.75.59-1.12a6.03 6.03 0 0 1 2.31-1.96 7.47 7.47 0 0 1-2.8-2.68c-.68-1.1-1.01-2.4-1.01-3.87a7.14 7.14 0 0 1 2.6-5.7c.8-.68 1.78-1.2 2.9-1.58s2.37-.55 3.71-.55c1.06 0 2.04.12 2.95.35.92.23 1.75.57 2.5 1.02h6.6zm-4.34 24.67c0-.59-.17-1.07-.5-1.44s-.8-.65-1.36-.86a8.8 8.8 0 0 0-1.98-.44c-.76-.1-1.55-.16-2.4-.2l-2.55-.15c-.86-.05-1.7-.13-2.5-.24-.89.42-1.62.94-2.19 1.57a3.2 3.2 0 0 0-.43 3.74c.28.48.7.88 1.28 1.23.58.34 1.3.61 2.17.81s1.9.3 3.09.3c1.15 0 2.18-.1 3.1-.3s1.68-.51 2.31-.9a4.38 4.38 0 0 0 1.45-1.36c.34-.53.5-1.12.5-1.76zm-7.7-13.2c.86 0 1.62-.12 2.27-.36.66-.24 1.21-.57 1.66-1 .45-.44.78-.95 1-1.55.23-.6.34-1.26.34-1.98 0-1.49-.45-2.67-1.35-3.55s-2.22-1.32-3.93-1.32c-1.73 0-3.04.44-3.95 1.32a4.73 4.73 0 0 0-1.35 3.55c0 .72.11 1.38.35 1.98a4.25 4.25 0 0 0 2.67 2.55c.66.24 1.42.36 2.28.36zM230.34 725.01c1.35-1.3 2.8-2.26 4.35-2.9 1.55-.64 3.27-.96 5.16-.96 1.36 0 2.57.23 3.62.67a7.43 7.43 0 0 1 4.3 4.78c.37 1.13.55 2.38.55 3.74v15.55h-1.9c-.41 0-.73-.06-.96-.2s-.4-.4-.52-.8l-.48-2.3a23.8 23.8 0 0 1-1.88 1.56 10.71 10.71 0 0 1-4.06 1.88c-.76.16-1.6.25-2.54.25s-1.83-.13-2.66-.4a5.57 5.57 0 0 1-3.64-3.2 7 7 0 0 1-.54-2.86c0-.96.27-1.88.8-2.77a6.93 6.93 0 0 1 2.57-2.36 16.84 16.84 0 0 1 4.63-1.7c1.9-.43 4.24-.69 7-.75v-1.9c0-1.89-.4-3.31-1.22-4.28s-2-1.45-3.57-1.45a7.69 7.69 0 0 0-4.5 1.28c-.52.33-.97.62-1.35.89-.37.26-.75.4-1.11.4-.3 0-.54-.08-.75-.23-.2-.16-.38-.34-.53-.57l-.77-1.37zm13.8 9.94c-1.96.06-3.64.22-5.02.47a14.3 14.3 0 0 0-3.39.97c-.87.4-1.5.87-1.9 1.42s-.58 1.15-.58 1.82c0 .64.1 1.2.31 1.66a3.07 3.07 0 0 0 2.13 1.78c.48.14 1 .2 1.57.2a7.75 7.75 0 0 0 3.83-.89 9.95 9.95 0 0 0 1.58-1.02c.5-.4 1-.86 1.48-1.37v-5.04zM258.86 725.1c.53-.58 1.09-1.12 1.68-1.6.59-.48 1.22-.9 1.88-1.23a9.57 9.57 0 0 1 4.53-1.07c1.32 0 2.5.22 3.51.66a6.8 6.8 0 0 1 2.55 1.87c.68.8 1.2 1.78 1.54 2.92.36 1.13.53 2.39.53 3.76v15.48h-4.3v-15.48c0-1.83-.41-3.26-1.25-4.28-.84-1.02-2.12-1.52-3.83-1.52a7.2 7.2 0 0 0-3.54.9c-1.1.62-2.11 1.44-3.04 2.48v17.9h-4.3v-24.3h2.57c.61 0 .99.29 1.13.88l.34 2.64zM287.03 713.95c0 .42-.08.8-.25 1.16-.17.36-.4.68-.67.96a3.07 3.07 0 0 1-3.34.66 3.26 3.26 0 0 1-1.6-1.62 3 3 0 0 1 0-2.35 3.17 3.17 0 0 1 1.6-1.64 3 3 0 0 1 3.34.66c.28.28.5.6.67.98s.25.77.25 1.19zm-.9 7.63v24.31h-4.28v-24.3h4.27zM307.29 725.59a.95.95 0 0 1-.89.53c-.24 0-.51-.09-.81-.27-.3-.17-.68-.37-1.12-.58-.44-.22-.96-.42-1.57-.6a7.46 7.46 0 0 0-2.16-.28c-.72 0-1.37.1-1.95.28-.57.18-1.07.43-1.47.75-.41.32-.72.7-.94 1.12a3 3 0 0 0-.32 1.38c0 .62.18 1.14.54 1.56s.83.77 1.43 1.08 1.26.57 2.01.8l2.32.74c.79.26 1.56.56 2.31.88.75.32 1.43.72 2.02 1.2.6.48 1.07 1.07 1.43 1.77.36.7.54 1.53.54 2.5 0 1.12-.2 2.16-.6 3.11s-1 1.78-1.78 2.47a8.58 8.58 0 0 1-2.88 1.65c-1.13.4-2.45.6-3.93.6-1.7 0-3.24-.28-4.61-.83a11.68 11.68 0 0 1-3.5-2.12l1-1.64c.13-.2.28-.36.46-.47.17-.12.4-.17.67-.17.29 0 .6.1.91.33.32.23.7.48 1.17.75a7.63 7.63 0 0 0 4.12 1.08c.82 0 1.55-.11 2.17-.33s1.15-.5 1.56-.87c.42-.37.73-.8.93-1.27.2-.48.3-1 .3-1.54 0-.67-.18-1.23-.54-1.67a4.59 4.59 0 0 0-1.43-1.13c-.6-.3-1.27-.58-2.03-.81l-2.33-.73a23.7 23.7 0 0 1-2.32-.88 8.18 8.18 0 0 1-2.03-1.24c-.6-.5-1.07-1.1-1.43-1.83a5.93 5.93 0 0 1-.54-2.65 6.48 6.48 0 0 1 2.26-4.94 8.28 8.28 0 0 1 2.7-1.54c1.08-.39 2.3-.58 3.68-.58 1.6 0 3.04.25 4.3.76 1.28.5 2.38 1.2 3.3 2.07l-.95 1.56zM313.29 725.01c1.34-1.3 2.8-2.26 4.34-2.9 1.55-.64 3.27-.96 5.16-.96 1.36 0 2.57.23 3.63.67a7.43 7.43 0 0 1 4.3 4.78c.36 1.13.54 2.38.54 3.74v15.55h-1.9c-.4 0-.73-.06-.95-.2s-.4-.4-.53-.8l-.48-2.3a23.8 23.8 0 0 1-1.87 1.56 10.71 10.71 0 0 1-4.07 1.88c-.76.16-1.6.25-2.53.25-.95 0-1.83-.13-2.67-.4a5.57 5.57 0 0 1-3.64-3.2 7 7 0 0 1-.53-2.86c0-.96.26-1.88.8-2.77a6.93 6.93 0 0 1 2.56-2.36 16.84 16.84 0 0 1 4.63-1.7c1.9-.43 4.24-.69 7-.75v-1.9c0-1.89-.4-3.31-1.22-4.28s-2-1.45-3.57-1.45a7.69 7.69 0 0 0-4.5 1.28c-.52.33-.97.62-1.35.89-.37.26-.74.4-1.11.4-.29 0-.54-.08-.75-.23-.2-.16-.38-.34-.52-.57l-.77-1.37zm13.8 9.94c-1.97.06-3.65.22-5.03.47a14.3 14.3 0 0 0-3.38.97c-.87.4-1.5.87-1.9 1.42s-.59 1.15-.59 1.82c0 .64.1 1.2.32 1.66a3.07 3.07 0 0 0 2.12 1.78c.49.14 1.01.2 1.57.2a7.58 7.58 0 0 0 3.83-.89 9.95 9.95 0 0 0 1.58-1.02c.5-.4 1-.86 1.48-1.37v-5.04zM360.02 745.9h-4.27v-20.74h-12.53v14.6c0 1.01.24 1.77.74 2.27s1.14.74 1.92.74c.45 0 .84-.06 1.17-.18a5 5 0 0 0 1.46-.79.8.8 0 0 1 .44-.18c.23 0 .43.14.6.4l1.25 2.05c-.73.69-1.62 1.23-2.66 1.62s-2.11.59-3.22.59c-1.92 0-3.4-.54-4.43-1.61-1.03-1.07-1.54-2.62-1.54-4.63v-14.88h-2.93a.95.95 0 0 1-.65-.23c-.18-.15-.26-.39-.26-.7v-1.71l3.98-.53.98-7.49c.05-.24.16-.43.33-.59a.95.95 0 0 1 .66-.22h2.16v8.37h16.8v23.83zm1.05-32.12c0 .42-.08.8-.25 1.16a3.18 3.18 0 0 1-2.82 1.84c-.42 0-.8-.08-1.16-.24a3.12 3.12 0 0 1-1.6-1.6 3 3 0 0 1 0-2.35 3.19 3.19 0 0 1 1.6-1.64 2.93 2.93 0 0 1 3.31.66c.28.28.5.6.67.98s.25.77.25 1.2zM377.27 721.2c1.78 0 3.38.3 4.8.89 1.43.59 2.64 1.43 3.65 2.52 1.01 1.08 1.78 2.4 2.32 3.94.53 1.55.8 3.27.8 5.18 0 1.92-.27 3.64-.8 5.18a11.08 11.08 0 0 1-2.32 3.94c-1 1.08-2.22 1.92-3.65 2.5-1.42.59-3.02.88-4.8.88-1.79 0-3.4-.3-4.83-.88a10.13 10.13 0 0 1-3.66-2.5c-1.01-1.1-1.78-2.4-2.32-3.94-.53-1.53-.8-3.26-.8-5.18 0-1.9.27-3.63.8-5.18s1.31-2.86 2.32-3.94c1-1.1 2.23-1.93 3.66-2.52 1.43-.6 3.04-.9 4.83-.9zm0 21.7c2.4 0 4.2-.81 5.38-2.42 1.18-1.6 1.78-3.85 1.78-6.73 0-2.9-.6-5.15-1.78-6.77s-2.98-2.42-5.38-2.42c-1.21 0-2.27.2-3.18.62a5.92 5.92 0 0 0-2.25 1.8 8 8 0 0 0-1.35 2.9 15.5 15.5 0 0 0-.44 3.87c0 2.88.6 5.12 1.79 6.73 1.19 1.61 3 2.41 5.43 2.41zM398.27 725.1c.53-.58 1.1-1.12 1.68-1.6.6-.48 1.22-.9 1.89-1.23a9.57 9.57 0 0 1 4.52-1.07c1.33 0 2.5.22 3.52.66a6.8 6.8 0 0 1 2.54 1.87c.68.8 1.2 1.78 1.55 2.92.35 1.13.53 2.39.53 3.76v15.48h-4.3v-15.48c0-1.83-.42-3.26-1.26-4.28-.84-1.02-2.11-1.52-3.83-1.52a7.2 7.2 0 0 0-3.54.9c-1.1.62-2.1 1.44-3.03 2.48v17.9h-4.3v-24.3h2.57c.6 0 .98.29 1.13.88l.33 2.64zM242.18 803.5h-3.6c-.42 0-.75-.11-1.01-.32-.26-.2-.45-.47-.58-.8l-3.21-8.3h-15.43l-3.22 8.3c-.1.3-.28.55-.55.78-.27.22-.61.33-1.01.33h-3.6l13.75-34.39h4.7l13.76 34.4zm-9.7-12.77l-5.4-14a26.6 26.6 0 0 1-1-3.21c-.34 1.3-.69 2.37-1.04 3.24l-5.4 13.97h12.84zM249.9 782.69a12.47 12.47 0 0 1 3.47-2.84 9.13 9.13 0 0 1 4.46-1.05c1.42 0 2.7.27 3.85.81a8 8 0 0 1 2.91 2.37c.8 1.03 1.42 2.28 1.84 3.75.42 1.48.64 3.13.64 4.97 0 1.97-.24 3.76-.72 5.38s-1.18 3-2.08 4.14a9.41 9.41 0 0 1-7.67 3.6c-1.6 0-2.95-.3-4.04-.9a8.83 8.83 0 0 1-2.87-2.55l-.22 2.21c-.12.6-.5.91-1.1.91h-2.76v-35.35h4.3v14.55zm0 14.95a6.85 6.85 0 0 0 2.59 2.23c.93.43 1.96.65 3.08.65 2.29 0 4.04-.81 5.26-2.43 1.21-1.61 1.82-4.02 1.82-7.22 0-2.98-.54-5.17-1.62-6.57a5.5 5.5 0 0 0-4.62-2.1c-1.4 0-2.6.32-3.64.96a10.72 10.72 0 0 0-2.86 2.72v11.76zM277.91 771.55c0 .42-.08.8-.25 1.16-.17.36-.4.68-.67.96a3.07 3.07 0 0 1-3.34.66 3.26 3.26 0 0 1-1.6-1.62 3 3 0 0 1 0-2.35 3.17 3.17 0 0 1 1.6-1.64 3 3 0 0 1 3.34.66c.28.28.5.6.67.98s.25.77.25 1.19zm-.9 7.63v24.31h-4.28v-24.3H277zM288.43 768.14v35.35h-4.28v-35.35h4.28zM300.76 771.55c0 .42-.08.8-.25 1.16-.17.36-.4.68-.67.96a3.07 3.07 0 0 1-3.34.66 3.26 3.26 0 0 1-1.6-1.62 3 3 0 0 1 0-2.35 3.17 3.17 0 0 1 1.6-1.64 3.04 3.04 0 0 1 3.34.66c.28.28.5.6.67.98s.25.77.25 1.19zm-.91 7.63v24.31h-4.27v-24.3h4.27zM311.27 768.14v35.35H307v-35.35h4.27zM325.65 803.88c-1.92 0-3.4-.54-4.43-1.61-1.03-1.07-1.55-2.62-1.55-4.63v-14.88h-2.93a.95.95 0 0 1-.64-.23c-.18-.15-.27-.39-.27-.7v-1.71l3.99-.5.98-7.52c.05-.24.16-.44.32-.59a.95.95 0 0 1 .66-.23h2.16v8.38h7.04v3.1h-7.04v14.59c0 1.02.25 1.78.75 2.28.5.5 1.13.74 1.92.74.45 0 .83-.06 1.16-.18a5 5 0 0 0 1.47-.79.8.8 0 0 1 .44-.18c.22 0 .42.14.6.4l1.25 2.05c-.74.69-1.63 1.23-2.67 1.62s-2.1.59-3.21.59zM356.37 779.18l-13.56 31.49c-.15.32-.33.58-.54.77-.22.19-.55.29-1 .29h-3.17l4.44-9.65-10.03-22.9h3.7c.37 0 .66.1.87.28.22.18.37.39.45.6l6.5 15.32c.26.67.47 1.38.65 2.11.22-.75.46-1.46.72-2.13l6.31-15.3a1.37 1.37 0 0 1 1.27-.88h3.39z"/>
  </g>
  <g fill="#FFF">
    <path d="M519.6 732.67c1.32 0 2.46.13 3.42.39.95.26 1.74.63 2.35 1.1.62.49 1.07 1.08 1.36 1.77s.43 1.48.43 2.35a4.7 4.7 0 0 1-2.24 4.01c-.5.34-1.1.6-1.78.82 1.58.3 2.77.86 3.57 1.69.8.82 1.19 1.9 1.19 3.24 0 .91-.17 1.74-.5 2.5-.34.74-.83 1.39-1.47 1.93s-1.44.96-2.38 1.25-2 .44-3.2.44h-7.6v-21.5h6.86zm-3.96 2.3v7.33h3.84c.82 0 1.54-.1 2.14-.27.6-.18 1.1-.43 1.5-.75.4-.32.69-.7.88-1.16.19-.46.28-.96.28-1.5 0-1.27-.38-2.2-1.14-2.78-.76-.58-1.94-.88-3.54-.88h-3.96zm4.65 16.88c.83 0 1.55-.1 2.15-.28a4 4 0 0 0 1.48-.8c.38-.35.66-.76.84-1.23.18-.48.27-1 .27-1.57 0-1.11-.39-1.99-1.18-2.63-.8-.65-1.98-.97-3.56-.97h-4.65v7.48h4.65zM543.7 738.97v15.2h-1.6c-.38 0-.62-.2-.72-.56l-.2-1.64a8.36 8.36 0 0 1-2.22 1.77c-.83.44-1.77.66-2.83.66-.83 0-1.56-.13-2.2-.4-.63-.28-1.16-.67-1.59-1.17s-.75-1.1-.97-1.82a8.1 8.1 0 0 1-.32-2.35v-9.69h2.67v9.69c0 1.15.26 2.04.79 2.67s1.33.94 2.4.94c.8 0 1.53-.18 2.22-.56s1.31-.9 1.9-1.55v-11.2h2.67zM556.77 741.47a.6.6 0 0 1-.55.33c-.15 0-.32-.05-.51-.16l-.7-.37c-.27-.13-.6-.26-.98-.37a4.7 4.7 0 0 0-2.56 0c-.36.11-.67.27-.93.47s-.45.43-.58.7c-.14.26-.2.55-.2.86 0 .39.1.72.33.98s.52.48.9.67c.37.19.79.36 1.26.5l1.44.47c.5.16.98.35 1.45.55.47.2.89.45 1.26.75s.67.66.9 1.1c.22.43.33.96.33 1.57 0 .7-.13 1.34-.38 1.94-.25.6-.62 1.1-1.1 1.54-.5.44-1.1.78-1.8 1.03a7.4 7.4 0 0 1-2.46.38 7.67 7.67 0 0 1-5.07-1.85l.63-1.02c.08-.13.17-.23.28-.3s.25-.1.42-.1a1 1 0 0 1 .57.2c.2.15.44.3.73.47a4.79 4.79 0 0 0 2.57.68c.52 0 .98-.07 1.37-.2.39-.14.71-.32.97-.55.26-.23.45-.5.58-.8.12-.3.19-.62.19-.96 0-.42-.12-.77-.34-1.04-.23-.28-.52-.51-.9-.7s-.79-.37-1.26-.52l-1.46-.46c-.5-.15-.98-.34-1.45-.54-.48-.2-.9-.47-1.27-.77-.37-.32-.67-.7-.9-1.15s-.33-1.01-.33-1.66a4.04 4.04 0 0 1 1.41-3.08c.46-.4 1.03-.73 1.7-.97a6.78 6.78 0 0 1 2.3-.36c1 0 1.89.16 2.68.47.8.32 1.48.75 2.07 1.3l-.6.97zM564.3 734.2c0 .26-.05.5-.15.73a2.08 2.08 0 0 1-1.04 1.01 1.87 1.87 0 0 1-2.46-1.01 1.87 1.87 0 0 1 0-1.47 1.99 1.99 0 0 1 1-1.03 1.89 1.89 0 0 1 2.08.41c.17.18.31.38.42.62.1.23.15.48.15.74zm-.56 4.77v15.2h-2.67v-15.2h2.66zM570.63 741.17c.33-.36.68-.7 1.05-1s.77-.56 1.18-.77a6.12 6.12 0 0 1 5.03-.26c.63.28 1.16.67 1.59 1.17.42.5.74 1.11.96 1.82.22.71.33 1.5.33 2.36v9.67h-2.68v-9.67a4.1 4.1 0 0 0-.79-2.68c-.52-.63-1.32-.95-2.4-.95-.78 0-1.52.19-2.2.57a7.3 7.3 0 0 0-1.9 1.54v11.2h-2.69v-15.2h1.6c.39 0 .62.18.71.55l.21 1.65zM597.18 752.03c-.33.4-.72.75-1.18 1.05-.46.3-.95.53-1.48.72a9.4 9.4 0 0 1-3.3.58 7.74 7.74 0 0 1-2.9-.54 6.36 6.36 0 0 1-2.29-1.56c-.65-.68-1.15-1.53-1.5-2.54a10.6 10.6 0 0 1-.06-6.45 6.46 6.46 0 0 1 3.64-3.98 7.34 7.34 0 0 1 2.97-.58c.9 0 1.75.15 2.52.46a5.75 5.75 0 0 1 3.34 3.45c.32.84.48 1.8.48 2.88 0 .42-.04.7-.13.84-.1.14-.26.21-.51.21h-10.16c.03.96.16 1.8.4 2.51.23.71.56 1.3.98 1.78.42.47.92.83 1.5 1.06.58.24 1.23.36 1.95.36.67 0 1.25-.08 1.73-.24a8.29 8.29 0 0 0 2.13-1c.24-.16.44-.24.61-.24.22 0 .39.09.51.26l.75.97zm-2.16-7.12c0-.62-.08-1.19-.26-1.7-.17-.52-.43-.96-.76-1.34s-.75-.66-1.23-.87c-.48-.2-1.02-.3-1.63-.3-1.28 0-2.3.37-3.04 1.11s-1.2 1.78-1.39 3.1h8.31zM609.54 741.47a.59.59 0 0 1-.55.33c-.15 0-.32-.05-.51-.16l-.7-.37c-.27-.13-.6-.26-.98-.37a4.7 4.7 0 0 0-2.57 0c-.36.11-.66.27-.92.47s-.45.43-.58.7c-.14.26-.2.55-.2.86 0 .39.1.72.33.98s.52.48.9.67c.36.19.78.36 1.25.5.47.15.96.3 1.45.47s.98.35 1.45.55c.47.2.89.45 1.26.75s.67.66.9 1.1c.22.43.33.96.33 1.57 0 .7-.13 1.34-.38 1.94-.25.6-.62 1.1-1.1 1.54-.5.44-1.1.78-1.8 1.03s-1.54.38-2.47.38a7.67 7.67 0 0 1-5.07-1.85l.63-1.02a.94.94 0 0 1 .29-.3c.1-.07.25-.1.42-.1a1 1 0 0 1 .57.2c.2.15.44.3.73.47a4.78 4.78 0 0 0 2.57.68c.52 0 .97-.07 1.36-.2.4-.14.72-.32.98-.55.26-.23.45-.5.58-.8.12-.3.18-.62.18-.96 0-.42-.1-.77-.33-1.04-.23-.28-.53-.51-.9-.7s-.79-.37-1.26-.52c-.48-.14-.96-.3-1.46-.46-.5-.15-.98-.34-1.45-.54-.48-.2-.9-.47-1.27-.77a3.5 3.5 0 0 1-.9-1.15 3.7 3.7 0 0 1-.33-1.66 4.04 4.04 0 0 1 1.4-3.08c.47-.4 1.03-.73 1.7-.97a6.78 6.78 0 0 1 2.3-.36c1 0 1.9.16 2.69.47.8.32 1.48.75 2.06 1.3l-.6.97zM622.53 741.47a.6.6 0 0 1-.55.33c-.15 0-.32-.05-.51-.16l-.7-.37a4.87 4.87 0 0 0-3.55-.38c-.36.12-.66.28-.92.48s-.45.43-.58.7c-.14.26-.2.55-.2.86 0 .39.1.72.33.98s.52.48.9.67c.36.19.78.36 1.25.5.47.15.96.3 1.45.47.5.16.98.35 1.45.55.47.2.89.45 1.26.75s.67.66.9 1.1c.22.43.33.96.33 1.57 0 .7-.13 1.34-.38 1.94-.25.6-.62 1.1-1.1 1.54-.5.44-1.1.78-1.8 1.03a7.4 7.4 0 0 1-2.47.38 7.68 7.68 0 0 1-5.07-1.85l.63-1.02a.93.93 0 0 1 .29-.3c.1-.07.25-.1.42-.1a1 1 0 0 1 .57.2c.2.15.44.3.73.47a4.79 4.79 0 0 0 2.57.68c.52 0 .97-.07 1.36-.2.4-.14.72-.32.98-.55.26-.23.45-.5.58-.8.12-.3.18-.62.18-.96 0-.42-.1-.77-.33-1.04-.23-.28-.52-.51-.9-.7s-.79-.37-1.26-.52c-.48-.14-.96-.3-1.46-.46-.5-.15-.98-.34-1.45-.54s-.9-.47-1.27-.77c-.37-.32-.67-.7-.9-1.15-.22-.46-.33-1.01-.33-1.66a4.04 4.04 0 0 1 1.4-3.08c.47-.4 1.03-.73 1.7-.97s1.44-.36 2.3-.36c1 0 1.9.16 2.69.47.8.32 1.48.75 2.06 1.3l-.6.97zM517 777.11a8.66 8.66 0 0 1 2.72-1.81 8.4 8.4 0 0 1 3.22-.6c.85 0 1.6.14 2.27.42a4.65 4.65 0 0 1 2.68 2.98c.23.71.35 1.5.35 2.34v9.72h-1.19c-.26 0-.46-.04-.6-.12-.14-.09-.25-.26-.33-.5l-.3-1.45c-.4.37-.79.7-1.17.99a6.76 6.76 0 0 1-2.54 1.17c-.47.1-1 .15-1.58.15-.6 0-1.15-.08-1.67-.24s-.97-.42-1.35-.75a3.49 3.49 0 0 1-.92-1.25c-.22-.5-.34-1.1-.34-1.8 0-.6.17-1.17.5-1.72.33-.56.86-1.05 1.6-1.48.74-.43 1.7-.78 2.9-1.06 1.19-.27 2.65-.43 4.38-.47v-1.19c0-1.18-.26-2.07-.77-2.68-.5-.6-1.25-.9-2.23-.9a4.8 4.8 0 0 0-2.81.8c-.33.2-.61.4-.84.56s-.47.24-.7.24a.76.76 0 0 1-.47-.14 1.3 1.3 0 0 1-.33-.35l-.48-.86zm8.63 6.21c-1.23.04-2.28.14-3.15.3-.86.15-1.57.35-2.11.6-.55.25-.94.55-1.19.89a1.9 1.9 0 0 0-.36 1.14c0 .4.06.74.2 1.03s.3.53.52.72c.23.18.5.32.8.4.3.09.63.13.98.13a5.45 5.45 0 0 0 2.4-.56c.34-.18.67-.4.98-.64.32-.25.63-.54.93-.86v-3.15zM541.15 777.47a.59.59 0 0 1-.55.33c-.15 0-.32-.05-.51-.16l-.7-.37c-.27-.13-.6-.26-.98-.37a4.7 4.7 0 0 0-2.57 0c-.36.11-.66.27-.92.47s-.45.43-.58.7c-.14.26-.2.55-.2.86 0 .39.1.72.33.98s.52.48.9.67c.36.19.78.36 1.25.5.47.15.96.3 1.45.47.5.16.98.35 1.45.55.47.2.89.45 1.26.75s.67.66.9 1.1c.22.43.33.96.33 1.57 0 .7-.13 1.34-.38 1.94-.25.6-.62 1.1-1.1 1.54-.5.44-1.1.78-1.8 1.03a7.4 7.4 0 0 1-2.47.38 7.67 7.67 0 0 1-5.07-1.85l.63-1.02c.08-.13.18-.23.29-.3s.25-.1.42-.1a1 1 0 0 1 .57.2c.2.15.44.3.73.47a4.79 4.79 0 0 0 2.57.68c.52 0 .97-.07 1.36-.2.4-.14.72-.32.98-.55.26-.23.45-.5.58-.8.12-.3.18-.62.18-.96 0-.42-.1-.77-.33-1.04-.23-.28-.53-.51-.9-.7s-.79-.37-1.26-.52l-1.46-.46c-.5-.15-.98-.34-1.45-.54-.48-.2-.9-.47-1.27-.77-.37-.32-.67-.7-.9-1.15s-.33-1.01-.33-1.66a4.04 4.04 0 0 1 1.4-3.08c.47-.4 1.03-.73 1.7-.97a6.78 6.78 0 0 1 2.3-.36c1 0 1.9.16 2.69.47.8.32 1.48.75 2.06 1.3l-.6.97zM565.47 774.97v15.2h-1.6c-.37 0-.61-.2-.71-.56l-.21-1.64a8.36 8.36 0 0 1-2.22 1.77c-.82.44-1.77.66-2.82.66-.83 0-1.57-.13-2.2-.4-.64-.28-1.17-.67-1.6-1.17s-.75-1.1-.97-1.82a8.1 8.1 0 0 1-.32-2.35v-9.69h2.67v9.69c0 1.15.26 2.04.79 2.67.52.63 1.33.94 2.4.94.8 0 1.53-.18 2.22-.56.68-.37 1.31-.9 1.9-1.55v-11.2h2.67zM578.55 777.47a.59.59 0 0 1-.56.33c-.15 0-.32-.05-.5-.16l-.7-.37c-.28-.13-.6-.26-.99-.37a4.7 4.7 0 0 0-2.56 0c-.36.11-.67.27-.93.47s-.45.43-.58.7c-.14.26-.2.55-.2.86 0 .39.1.72.33.98s.53.48.9.67c.37.19.79.36 1.26.5l1.44.47c.5.17.98.35 1.45.55.47.2.9.45 1.26.75.37.3.67.66.9 1.1.22.43.33.96.33 1.57 0 .7-.12 1.34-.37 1.94-.25.6-.62 1.1-1.11 1.54-.5.44-1.1.78-1.8 1.03s-1.53.38-2.46.38a7.67 7.67 0 0 1-5.07-1.85l.63-1.02a.94.94 0 0 1 .28-.3c.11-.07.25-.1.42-.1a1 1 0 0 1 .57.2c.2.15.44.3.73.47a4.78 4.78 0 0 0 2.57.68c.52 0 .98-.07 1.37-.2.39-.14.71-.32.97-.55.26-.23.45-.5.58-.8.12-.3.19-.62.19-.96 0-.42-.11-.77-.34-1.04-.23-.28-.52-.51-.9-.7s-.79-.37-1.26-.52c-.48-.14-.96-.3-1.46-.46-.49-.15-.98-.34-1.45-.54-.48-.2-.9-.47-1.27-.77a3.5 3.5 0 0 1-.9-1.15 3.7 3.7 0 0 1-.33-1.66 4.04 4.04 0 0 1 1.41-3.08c.46-.4 1.02-.73 1.7-.97a6.78 6.78 0 0 1 2.3-.36c1 0 1.89.16 2.68.47.8.32 1.48.75 2.07 1.3l-.6.97zM595.18 774.97v15.2h-1.59c-.38 0-.62-.2-.72-.56l-.2-1.64a8.36 8.36 0 0 1-2.23 1.77c-.82.44-1.76.66-2.82.66-.83 0-1.56-.13-2.2-.4a4.34 4.34 0 0 1-1.6-1.17c-.43-.5-.75-1.1-.96-1.82a8.1 8.1 0 0 1-.32-2.35v-9.69h2.67v9.69c0 1.15.26 2.04.78 2.67.53.63 1.33.94 2.41.94.79 0 1.53-.18 2.21-.56.69-.37 1.32-.9 1.9-1.55v-11.2h2.67zM599.02 777.11a8.65 8.65 0 0 1 2.72-1.81 8.4 8.4 0 0 1 3.22-.6c.85 0 1.6.14 2.27.42a4.65 4.65 0 0 1 2.68 2.98c.23.71.35 1.5.35 2.34v9.72h-1.19c-.26 0-.46-.04-.6-.12-.14-.09-.25-.26-.33-.5l-.3-1.45c-.4.37-.79.7-1.17.99a6.72 6.72 0 0 1-2.54 1.17c-.48.1-1 .15-1.58.15-.6 0-1.15-.08-1.67-.24a3.56 3.56 0 0 1-2.27-2c-.22-.5-.34-1.1-.34-1.8 0-.6.17-1.17.5-1.72.33-.56.86-1.05 1.6-1.48s1.7-.78 2.9-1.06c1.19-.27 2.65-.43 4.38-.47v-1.19c0-1.18-.26-2.07-.77-2.68-.5-.6-1.25-.9-2.23-.9a4.8 4.8 0 0 0-2.81.8c-.33.2-.6.4-.84.56a1.2 1.2 0 0 1-.7.24.76.76 0 0 1-.47-.14 1.3 1.3 0 0 1-.33-.35l-.48-.86zm8.63 6.21c-1.23.04-2.28.14-3.15.3-.86.15-1.57.35-2.11.6-.55.25-.94.55-1.19.89a1.9 1.9 0 0 0-.36 1.14c0 .4.06.74.2 1.03s.3.53.52.72c.23.18.5.32.8.4s.63.13.98.13a5.44 5.44 0 0 0 2.4-.56 8.15 8.15 0 0 0 1.91-1.5v-3.15zM617.08 768.07v22.1h-2.67v-22.1h2.67z"/>
  </g>
  <g fill="#FFF">
    <path d="M329.44 445.26h-6.96v19.05h-2.9v-19.05h-6.97v-2.44h16.83v2.44zM334.73 448.88c1.11 0 2.11.18 3 .56a6.56 6.56 0 0 1 3.73 4.04c.34.96.5 2.04.5 3.23a9.8 9.8 0 0 1-.5 3.24 6.91 6.91 0 0 1-1.45 2.46 6.32 6.32 0 0 1-2.28 1.57c-.89.36-1.89.54-3 .54a7.94 7.94 0 0 1-3.02-.54 6.32 6.32 0 0 1-2.29-1.57 6.92 6.92 0 0 1-1.44-2.46 9.8 9.8 0 0 1-.5-3.24c0-1.19.16-2.27.5-3.23a6.4 6.4 0 0 1 3.74-4.04c.89-.37 1.9-.56 3.01-.56zm0 13.56c1.5 0 2.62-.5 3.36-1.5s1.11-2.41 1.11-4.21c0-1.81-.37-3.22-1.1-4.23-.75-1.01-1.87-1.52-3.37-1.52a4.7 4.7 0 0 0-1.98.39c-.57.26-1.04.64-1.41 1.13a5 5 0 0 0-.84 1.8 9.64 9.64 0 0 0-.28 2.43c0 1.8.37 3.2 1.12 4.2.74 1 1.87 1.51 3.4 1.51zM347.89 451.48a7.87 7.87 0 0 1 2.22-1.91c.84-.48 1.8-.72 2.88-.72.88 0 1.67.17 2.38.5.71.34 1.32.83 1.82 1.49s.88 1.47 1.15 2.44a12.51 12.51 0 0 1-.04 6.47c-.3.96-.74 1.8-1.3 2.5a6.1 6.1 0 0 1-7.22 1.8 5.6 5.6 0 0 1-1.76-1.31v6.72h-2.68v-20.34h1.6c.38 0 .62.19.7.56l.25 1.8zm.13 9.17a4.33 4.33 0 0 0 1.6 1.4c.59.27 1.24.4 1.96.4 1.42 0 2.5-.5 3.27-1.51.76-1.01 1.14-2.45 1.14-4.32 0-.99-.09-1.84-.27-2.55s-.42-1.3-.75-1.75-.74-.79-1.22-1-1.02-.3-1.63-.3c-.87 0-1.63.2-2.29.6a6.6 6.6 0 0 0-1.8 1.69v7.34zM382.4 442.22v22.1h-1.59c-.38 0-.62-.19-.72-.56l-.24-1.85a8.3 8.3 0 0 1-2.22 1.9c-.83.47-1.79.72-2.88.72-.87 0-1.66-.17-2.37-.5a4.9 4.9 0 0 1-1.81-1.48 7.03 7.03 0 0 1-1.16-2.44 12.51 12.51 0 0 1 .05-6.47c.3-.96.73-1.8 1.29-2.51a5.99 5.99 0 0 1 4.81-2.28c.93 0 1.73.16 2.4.47.66.32 1.25.75 1.77 1.32v-8.42h2.67zm-2.67 10.51a4.31 4.31 0 0 0-1.62-1.4 4.64 4.64 0 0 0-1.95-.4c-1.4 0-2.5.51-3.25 1.52-.76 1.01-1.14 2.45-1.14 4.32 0 1 .08 1.84.25 2.54.17.7.42 1.29.75 1.74.33.46.74.8 1.22 1s1.02.31 1.63.31c.88 0 1.65-.2 2.3-.6.66-.4 1.26-.96 1.81-1.69v-7.33zM393.04 448.88c1.1 0 2.1.18 3 .56a6.47 6.47 0 0 1 3.72 4.04c.34.96.5 2.04.5 3.23a9.8 9.8 0 0 1-.5 3.24 6.91 6.91 0 0 1-1.44 2.46 6.32 6.32 0 0 1-2.28 1.57c-.9.36-1.9.54-3 .54a7.94 7.94 0 0 1-3.03-.54 6.32 6.32 0 0 1-2.28-1.57 6.92 6.92 0 0 1-1.45-2.46 9.8 9.8 0 0 1-.5-3.24c0-1.19.16-2.27.5-3.23a6.4 6.4 0 0 1 3.74-4.04c.89-.37 1.9-.56 3.02-.56zm0 13.56c1.5 0 2.62-.5 3.36-1.5s1.1-2.41 1.1-4.21c0-1.81-.36-3.22-1.1-4.23-.74-1.01-1.86-1.52-3.36-1.52a4.7 4.7 0 0 0-1.99.39c-.57.26-1.04.64-1.41 1.13a5 5 0 0 0-.84 1.8 9.64 9.64 0 0 0-.28 2.43c0 1.8.37 3.2 1.12 4.2.74 1 1.88 1.51 3.4 1.51zM424.37 449.12l-4.92 15.2h-2.11c-.26 0-.44-.17-.54-.51l-3.36-10.31a5.73 5.73 0 0 1-.2-.7l-.15-.7-.15.7a6.6 6.6 0 0 1-.2.72l-3.41 10.29c-.1.34-.3.5-.6.5h-2.01l-4.92-15.19h2.1c.2 0 .38.06.53.17a.8.8 0 0 1 .29.39l2.91 9.78c.17.72.3 1.4.4 2.04a168.33 168.33 0 0 1 .59-2.04l3.21-9.84a.8.8 0 0 1 .26-.38.7.7 0 0 1 .46-.15h1.17c.2 0 .37.05.5.15.13.1.22.23.27.38l3.13 9.84a23.97 23.97 0 0 1 .56 2.04c.05-.33.1-.67.18-1l.25-1.04 2.97-9.78c.05-.16.15-.3.29-.4a.8.8 0 0 1 .5-.16h2zM429.5 451.32c.33-.36.68-.7 1.05-1a6.86 6.86 0 0 1 2.5-1.27 6.31 6.31 0 0 1 3.7.24c.64.28 1.17.67 1.6 1.17.42.5.74 1.11.96 1.82.22.71.33 1.5.33 2.36v9.68h-2.69v-9.68a4.1 4.1 0 0 0-.78-2.68c-.53-.63-1.33-.95-2.4-.95-.79 0-1.52.19-2.2.57-.7.38-1.33.9-1.9 1.54v11.2h-2.69v-15.2h1.6c.38 0 .62.19.71.56l.21 1.64z"/>
  </g>
  <g fill="#FFF">
    <path d="M690.76 442.82c1.32 0 2.46.13 3.41.39.96.26 1.74.63 2.36 1.11.61.48 1.06 1.07 1.35 1.76s.44 1.48.44 2.35a4.7 4.7 0 0 1-2.25 4.01c-.5.34-1.1.61-1.77.82 1.58.3 2.77.86 3.56 1.69.8.82 1.2 1.9 1.2 3.24 0 .91-.17 1.74-.5 2.5-.34.75-.83 1.39-1.48 1.93s-1.44.96-2.38 1.25c-.94.3-2 .44-3.2.44h-7.6v-21.49h6.86zm-3.96 2.3v7.33h3.84c.82 0 1.53-.09 2.14-.27.6-.18 1.1-.43 1.5-.75.4-.32.68-.7.87-1.16.2-.46.29-.95.29-1.5 0-1.27-.38-2.2-1.14-2.78s-1.94-.88-3.54-.88h-3.96zm4.65 16.88c.83 0 1.54-.1 2.14-.28.6-.19 1.1-.46 1.48-.8s.67-.76.85-1.23c.18-.48.27-1 .27-1.57 0-1.1-.4-1.99-1.19-2.63-.79-.65-1.97-.97-3.55-.97h-4.65V462h4.65zM708.85 448.88c1.1 0 2.1.18 3 .56a6.43 6.43 0 0 1 3.73 4.04c.33.96.5 2.04.5 3.23a9.8 9.8 0 0 1-.5 3.24 6.92 6.92 0 0 1-1.45 2.46 6.33 6.33 0 0 1-2.28 1.57c-.9.36-1.9.54-3 .54a7.93 7.93 0 0 1-3.02-.54 6.31 6.31 0 0 1-2.3-1.57c-.62-.68-1.1-1.5-1.44-2.46s-.5-2.04-.5-3.24c0-1.19.17-2.27.5-3.23a6.4 6.4 0 0 1 3.74-4.04c.9-.38 1.9-.56 3.02-.56zm0 13.56c1.5 0 2.62-.5 3.36-1.5s1.1-2.41 1.1-4.21c0-1.81-.36-3.22-1.1-4.23-.74-1.01-1.86-1.52-3.36-1.52a4.7 4.7 0 0 0-1.99.39c-.56.26-1.03.64-1.4 1.13a5 5 0 0 0-.85 1.8 9.64 9.64 0 0 0-.28 2.43c0 1.8.38 3.2 1.12 4.2.75 1 1.88 1.51 3.4 1.51zM723.85 464.56c-1.2 0-2.12-.34-2.77-1.01-.65-.67-.97-1.64-.97-2.9v-9.3h-1.83c-.16 0-.3-.04-.4-.14s-.17-.24-.17-.44v-1.07l2.5-.31.6-4.7c.04-.14.1-.27.21-.36a.6.6 0 0 1 .41-.15h1.35v5.24h7.16l.61-4.73c.03-.14.1-.27.2-.36.1-.1.25-.15.42-.15h1.35v5.24h4.4v1.93h-4.4v9.12c0 .64.16 1.12.47 1.43.32.31.71.46 1.2.46.27 0 .51-.03.72-.1s.38-.16.53-.25l.38-.25a.5.5 0 0 1 .28-.11c.15 0 .28.08.38.25l.8 1.27a5.65 5.65 0 0 1-3.7 1.38c-1.19 0-2.1-.33-2.76-1-.65-.67-.97-1.64-.97-2.9v-9.3h-7.07v9.12c0 .64.16 1.12.47 1.43.3.31.7.46 1.2.46.28 0 .52-.03.72-.1s.39-.17.54-.26l.38-.24a.5.5 0 0 1 .28-.12c.14 0 .26.09.37.26l.78 1.27c-.46.43-1.01.77-1.66 1.02-.65.24-1.32.37-2.01.37zM746 448.88c1.11 0 2.11.18 3 .56a6.43 6.43 0 0 1 3.73 4.04c.34.96.5 2.04.5 3.23a9.8 9.8 0 0 1-.5 3.24 6.92 6.92 0 0 1-1.45 2.46 6.33 6.33 0 0 1-2.28 1.57c-.89.36-1.89.54-3 .54a7.93 7.93 0 0 1-3.02-.54 6.31 6.31 0 0 1-2.29-1.57c-.63-.68-1.1-1.5-1.44-2.46s-.5-2.04-.5-3.24c0-1.19.16-2.27.5-3.23a6.4 6.4 0 0 1 3.74-4.04c.89-.38 1.9-.56 3.01-.56zm0 13.56c1.5 0 2.62-.5 3.36-1.5s1.11-2.41 1.11-4.21c0-1.81-.37-3.22-1.1-4.23-.75-1.01-1.87-1.52-3.37-1.52a4.7 4.7 0 0 0-1.98.39c-.57.26-1.04.64-1.41 1.13a5 5 0 0 0-.84 1.8 9.64 9.64 0 0 0-.28 2.43c0 1.8.37 3.2 1.12 4.2.74 1 1.87 1.51 3.4 1.51zM756.6 464.31v-15.19h1.61c.38 0 .62.19.7.56l.2 1.56a7.75 7.75 0 0 1 1.9-1.7c.7-.44 1.5-.66 2.42-.66 1.02 0 1.85.29 2.49.86a4.8 4.8 0 0 1 1.37 2.3 5.01 5.01 0 0 1 2-2.4c.44-.27.9-.46 1.38-.58a6.1 6.1 0 0 1 3.62.2c.62.26 1.15.63 1.59 1.12.43.5.76 1.1 1 1.8.22.73.34 1.54.34 2.46v9.68h-2.69v-9.68c0-1.19-.26-2.1-.78-2.7-.52-.62-1.27-.93-2.25-.93-.44 0-.85.08-1.25.23a3 3 0 0 0-1.75 1.82 4.4 4.4 0 0 0-.27 1.58v9.68h-2.68v-9.68c0-1.22-.25-2.13-.74-2.73-.49-.6-1.2-.9-2.14-.9-.66 0-1.27.18-1.83.53-.56.36-1.08.84-1.55 1.45v11.33h-2.68zM797.89 462a6 6 0 0 0 2.38-.45 5.02 5.02 0 0 0 2.89-3.2c.26-.74.38-1.57.38-2.47v-13.06h2.9v13.06a9.8 9.8 0 0 1-.6 3.45 7.74 7.74 0 0 1-4.39 4.57 9.24 9.24 0 0 1-3.56.67 9.23 9.23 0 0 1-3.57-.66 7.8 7.8 0 0 1-4.4-4.58 9.8 9.8 0 0 1-.6-3.44v-13.07h2.9v13.05c0 .9.13 1.73.38 2.48s.63 1.4 1.11 1.93c.49.54 1.08.96 1.79 1.27.7.3 1.5.45 2.39.45zM813.13 451.48a7.87 7.87 0 0 1 2.22-1.91c.84-.48 1.8-.72 2.88-.72.88 0 1.67.17 2.38.5.71.34 1.32.83 1.82 1.49s.88 1.47 1.15 2.44a12.47 12.47 0 0 1-.04 6.47c-.3.96-.74 1.8-1.3 2.5a6.1 6.1 0 0 1-7.22 1.8 5.6 5.6 0 0 1-1.76-1.31v6.72h-2.68v-20.34h1.6c.38 0 .61.19.7.56l.25 1.8zm.13 9.17a4.33 4.33 0 0 0 1.6 1.4c.59.27 1.24.4 1.96.4 1.42 0 2.5-.5 3.27-1.51s1.14-2.45 1.14-4.32c0-.99-.09-1.84-.27-2.55s-.42-1.3-.75-1.75-.74-.79-1.22-1a4.04 4.04 0 0 0-1.63-.3c-.87 0-1.64.2-2.3.6-.65.4-1.25.96-1.8 1.69v7.34z"/>
  </g>
</svg>
