<svg version="1" xmlns="http://www.w3.org/2000/svg" xmlns:xlink="http://www.w3.org/1999/xlink" viewBox="0 0 1887 610">
  <defs>
    <path id="a" d="M0 0h1887v598H0z"/>
  </defs>
  <clipPath id="b">
    <use xlink:href="#a" overflow="visible"/>
  </clipPath>
  <g clip-path="url(#b)">
    <path d="M171 602c6-2 12 3 11 8 0 7-10 11-14 5-5-4-3-12 3-13zm606 4c7-6 18-5 27-4l-2 11c-6-1-12-3-18 1-5 5-5 12-5 19h19v10h-19v70h-11v-69l-17-1v-10h17c-1-10 1-20 9-27zm221-5h12v44c6-9 17-15 27-14 9 0 19 2 24 10 7 9 6 20 6 30v41h-12v-44c0-7 0-16-6-22-8-7-21-6-29 1-8 5-10 15-10 25v40h-12V601zm102 1c6-3 13 2 12 8 0 7-8 10-13 6-5-3-4-12 1-14zm526 0c6-3 13 2 12 8-1 7-10 10-14 5-5-3-3-11 2-13zm-46 1h12v110h-12V603zM214 638c8-7 20-8 31-6 8 1 14 6 18 13l-10 7c-5-11-21-14-30-6-5 4-5 13 1 16 11 6 25 4 34 12 11 9 10 29-3 35-8 6-18 5-27 5-10 0-19-7-24-15l10-7c6 11 22 16 33 9 6-3 8-12 3-17-6-5-15-6-22-8-8-2-17-6-20-14s-1-18 6-24zm80 6c16-18 47-18 62 1l-9 7c-9-13-30-14-41-3-13 14-12 38 2 49 12 9 30 8 39-4l9 7c-6 6-14 12-24 13-9 0-20 1-28-5-22-12-26-46-10-65zm381-10c7-4 15-3 22-2l-2 11c-5-1-11-1-16 1-9 3-15 13-16 23v46h-11l-1-80h12v13c3-5 7-10 12-12zm247 5c9-8 21-9 32-7 8 1 15 6 18 13l-10 7c-5-11-21-14-30-6-5 4-5 13 1 16 12 6 27 4 36 13 6 6 7 16 5 24-4 10-15 15-25 15-8 0-16 1-22-3-6-2-11-7-14-12l10-7c7 12 23 16 34 9 6-4 7-13 2-17-6-5-15-6-22-8-8-2-17-6-20-14-2-8-1-17 5-23zm335 6c6-7 14-13 24-14 9-1 20 1 26 8s7 15 8 24v50h-12v-46c-1-7-1-16-7-21-9-7-23-5-31 3-6 6-8 16-8 24v40h-11c-1-27 1-54-1-80h12v12zm234 0c6-7 14-13 24-14 9-1 20 1 26 8s7 16 7 25v49h-11v-44c0-8-1-17-7-23-9-8-25-5-32 4-5 7-6 15-7 23v40h-11c-1-27 1-54-1-80h12v12zm187 0c6-9 17-15 28-14 9 0 18 3 23 10s6 16 6 25v47h-12v-46c0-8-1-16-7-22-10-7-25-4-32 5-5 6-6 14-6 22v41h-12c0-27 1-54-1-80h12l1 12zM168 633h11v80h-11v-80zm294 0h14l2 5 24 62 25-67h13l-32 80h-13l-33-80zm636 0h12l-1 80h-11v-80zm526 0h11v80h-11v-80zM135 601h-11v44a43 43 0 0 0-61-3 44 44 0 0 0 2 63c7 7 18 10 29 9 11 1 22-5 30-14v13h11V601zm-20 94a32 32 0 0 1-41 3c-11-9-14-26-9-39 3-8 10-14 19-17 12-3 26 1 34 11 9 12 8 31-3 42zm324-56c-11-8-25-10-39-7-8 2-16 8-22 15-9 13-10 30-4 44 5 11 15 20 27 22h22c14-2 25-12 29-25 6-17 2-38-13-49zm-4 56a31 31 0 0 1-41 3c-11-9-14-25-9-38 3-8 10-15 18-17 11-3 24-1 31 8 11 11 11 32 1 44zm192-19c0-12-3-26-12-35a40 40 0 0 0-48-5c-17 10-23 34-16 52 4 12 14 22 26 25l18 1c12 0 22-8 29-16l-9-8c-7 11-21 17-33 13-12-3-21-15-22-27h67zm-66-10c1-13 12-24 25-25 8 0 17 2 22 9 4 4 5 10 6 16h-53zm330-33h-12v7a47 47 0 0 0-60 3c-17 18-14 52 8 65 10 7 21 6 32 6 8-1 14-5 20-9v8h12v-80zm-22 65c-10 8-28 8-38-1s-13-24-8-37c3-8 9-14 18-17 11-4 25-1 32 9 11 13 10 35-4 46zm337-58c-11-9-26-11-40-8-8 2-16 7-21 14-15 19-11 49 9 62 10 7 22 6 34 6 13-2 25-12 30-25 6-16 2-37-12-49zm-9 58c-11 8-27 8-37 0-12-9-14-27-8-40 3-7 9-13 17-15 11-3 24-1 31 8 12 13 11 36-3 47zm245-58c-11-9-26-11-40-8-9 3-18 9-23 17-13 19-8 48 13 60 9 6 21 5 32 5 14-2 26-13 31-27 5-16 1-36-13-47zm-6 55a31 31 0 0 1-39 4c-12-9-15-27-10-40 4-8 10-14 18-16 11-3 23-1 31 7 11 12 11 33 0 45zm400-19c1-11 0-22-7-31-13-18-42-19-58-4-19 18-16 53 6 67 10 7 22 6 33 5 10-1 18-8 24-15l-9-8c-7 10-20 16-32 13s-21-15-22-27h65zm-65-10c1-15 17-27 32-24 7 0 13 4 17 9 3 5 4 10 5 15h-54zm27-344c-24-24-54-39-85-49-42-14-86-18-128-33-13-5-27-12-37-23a52 52 0 0 1-8-54c5-12 15-20 26-25 19-9 39-10 59-9 21 2 41 8 56 22 13 12 22 29 25 46 1 4 4 9 9 9l97 1c5 0 9-4 8-9a160 160 0 0 0-102-131c-27-10-56-15-86-17h-33c-36 2-73 8-106 23-24 10-46 27-59 50-14 22-19 48-19 73a263 263 0 0 0-222-146h-27a271 271 0 0 0-215 141 161 161 0 0 0-81-114c-32-17-69-24-105-27h-35c-26 2-53 5-78 13-30 8-58 23-78 47-11 14-18 30-23 47V74c0-3 0-6-3-8-2-3-5-2-8-3l-88 1c-5-1-8 3-8 8l-1 23c1 2 0 4-2 5l-8-5c-35-25-77-42-120-45h-24A257 257 0 0 0 46 296v29a259 259 0 0 0 120 206c40 26 89 39 137 39s95-18 133-48c2-1 6-5 7-1l1 27c0 5 4 9 8 8h91c5 1 9-4 8-9v-81c9 19 21 38 37 52 26 25 60 39 95 46a401 401 0 0 0 182-11c24-8 46-20 65-37 18-17 30-38 36-62a252 252 0 0 0 156 108c57 13 118 9 170-16 50-24 91-63 117-111 8 29 21 56 41 77 18 19 40 32 64 41 41 16 85 18 128 16 36-1 72-7 105-21 26-11 50-27 67-49 14-19 22-43 24-67v-23c-3-32-17-64-40-87zM420 408c-14 25-36 44-62 55-34 13-72 15-106 2-30-11-55-33-71-60a192 192 0 0 1 22-216c20-21 46-34 74-39 31-5 64-1 92 13 25 12 44 33 56 58 12 26 16 56 17 85 0 35-5 71-22 102zm421 42c-7 13-20 23-33 28-17 7-35 9-53 8-27-1-55-8-75-26a94 94 0 0 1-28-54c0-4-3-9-7-9l-94-1V235c4 11 8 21 14 30 12 18 29 32 48 42 35 19 75 27 113 34 30 7 60 12 87 26 16 8 31 20 35 38 3 16 1 32-7 45zm82-134c-23-21-52-34-81-44-32-11-65-15-97-23-17-5-34-10-49-19-11-7-21-17-25-29-5-15-4-33 5-45 8-12 20-19 33-23 18-5 37-5 55-3 19 2 37 10 51 23 12 12 19 27 23 44 0 4 3 9 8 9h97c-14 35-20 73-20 110zm380 88c-13 24-33 43-57 56-27 13-59 17-90 12-25-4-49-15-68-32s-32-40-39-64c-10-30-12-62-8-93 4-34 16-68 40-93 22-23 52-37 83-41 27-3 54 1 79 12 25 13 47 34 61 59 13 26 20 55 20 84 1 35-5 70-21 100zm393 62a90 90 0 0 1-53 20c-26 1-53-1-76-13a86 86 0 0 1-41-48c-4-7-4-16-7-23-3-6-10-4-15-5h-78c14-41 17-84 11-126 18 24 45 38 72 48 45 18 94 22 139 35 18 6 36 12 50 24 10 8 17 18 19 31 3 21-4 43-21 57z" fill="#040404"/>
  </g>
</svg>
