<?xml version="1.0" encoding="utf-8"?>
<!-- Generator: Adobe Illustrator 18.0.0, SVG Export Plug-In . SVG Version: 6.00 Build 0)  -->
<!DOCTYPE svg PUBLIC "-//W3C//DTD SVG 1.1//EN" "http://www.w3.org/Graphics/SVG/1.1/DTD/svg11.dtd">
<svg version="1.1" id="Layer_1" xmlns="http://www.w3.org/2000/svg" xmlns:xlink="http://www.w3.org/1999/xlink" x="0px" y="0px"
	 width="100px" height="37.04px" viewBox="0 0 100 37.04" enable-background="new 0 0 100 37.04" xml:space="preserve">
<g>
	<path fill="#040404" d="M97.77,15.15c-1.29-1.31-2.98-2.14-4.71-2.73c-2.32-0.81-4.82-0.99-7.12-1.85
		c-0.76-0.29-1.51-0.66-2.06-1.27c-0.73-0.81-0.89-2.05-0.45-3.04c0.28-0.63,0.83-1.11,1.45-1.4c1.02-0.48,2.18-0.55,3.29-0.46
		c1.13,0.08,2.28,0.45,3.12,1.23c0.73,0.66,1.19,1.58,1.38,2.54c0.03,0.25,0.21,0.52,0.49,0.49c1.81,0.02,3.62,0.05,5.43,0.04
		c0.26,0.03,0.5-0.19,0.43-0.46c-0.21-1.44-0.71-2.86-1.54-4.06c-1-1.47-2.49-2.57-4.13-3.22C91.83,0.35,90.19,0.09,88.56,0h-1.87
		c-2,0.11-4.04,0.4-5.88,1.23c-1.34,0.6-2.57,1.54-3.34,2.81c-0.76,1.21-1.05,2.65-1.07,4.07c-0.97-1.99-2.44-3.73-4.18-5.09
		C69.9,1.2,67,0.16,64.06,0h-1.53c-2.02,0.12-4.02,0.67-5.81,1.63c-2.62,1.4-4.82,3.6-6.21,6.23c-0.23-1.11-0.59-2.21-1.18-3.19
		c-0.78-1.34-1.95-2.43-3.31-3.17c-1.79-0.99-3.85-1.38-5.87-1.5h-1.95c-1.47,0.09-2.94,0.26-4.36,0.68
		c-1.64,0.48-3.23,1.32-4.32,2.67c-0.62,0.75-1.03,1.65-1.3,2.58c0-1.53,0-3.07,0-4.6c0-0.17,0-0.36-0.15-0.48
		c-0.12-0.14-0.32-0.12-0.48-0.13c-1.64,0.01-3.28,0-4.91,0.01c-0.25-0.01-0.44,0.21-0.45,0.45c-0.03,0.44,0.01,0.88-0.01,1.32
		c0.01,0.11-0.03,0.2-0.13,0.26c-0.17-0.07-0.31-0.18-0.46-0.29c-1.98-1.39-4.3-2.33-6.73-2.48H13.6c-1.32,0.07-2.62,0.3-3.87,0.73
		C7.56,1.48,5.6,2.79,4.01,4.43c-1.87,1.88-3.2,4.3-3.71,6.91C0.14,12.11,0.06,12.9,0,13.7v1.61c0.1,1.78,0.47,3.55,1.2,5.18
		c1.16,2.58,3.12,4.77,5.48,6.32c2.25,1.48,4.96,2.2,7.65,2.17c2.69,0.02,5.32-0.99,7.42-2.64c0.12-0.08,0.33-0.3,0.43-0.09
		c0.05,0.51-0.01,1.03,0.02,1.55c0.01,0.23,0.2,0.46,0.44,0.44c1.7,0,3.4,0.01,5.1,0c0.26,0.01,0.47-0.25,0.45-0.5
		c0.01-1.51,0-3.02,0-4.53c0.5,1.07,1.15,2.08,2.02,2.88c1.46,1.39,3.39,2.19,5.34,2.56c1.63,0.32,3.3,0.35,4.96,0.31
		c1.75-0.08,3.51-0.34,5.17-0.92c1.32-0.45,2.59-1.12,3.62-2.07c0.99-0.91,1.7-2.12,2.01-3.43c0.44,0.64,0.92,1.25,1.45,1.82
		c1.92,2.1,4.49,3.6,7.27,4.22c3.16,0.72,6.57,0.46,9.5-0.95c2.75-1.3,5.04-3.51,6.53-6.16c0.41,1.58,1.14,3.11,2.28,4.3
		c0.97,1.03,2.2,1.79,3.53,2.28c2.29,0.86,4.77,0.98,7.19,0.9c1.99-0.1,3.99-0.44,5.84-1.2c1.43-0.59,2.77-1.47,3.7-2.72
		c0.82-1.08,1.25-2.4,1.36-3.74v-1.27C99.85,18.21,99.09,16.43,97.77,15.15z M20.89,19.96c-0.76,1.38-2.01,2.47-3.47,3.06
		c-1.87,0.76-4.03,0.86-5.93,0.14c-1.66-0.61-3.06-1.84-3.94-3.37c-1.08-1.86-1.43-4.07-1.27-6.2c0.18-2.15,1-4.29,2.51-5.87
		c1.08-1.14,2.54-1.91,4.1-2.15c1.73-0.27,3.56-0.04,5.14,0.72c1.38,0.67,2.48,1.84,3.12,3.23c0.69,1.48,0.93,3.12,0.95,4.73
		C22.13,16.2,21.86,18.23,20.89,19.96z M44.38,22.33c-0.4,0.72-1.08,1.25-1.84,1.56c-0.93,0.39-1.96,0.46-2.96,0.43
		c-1.49-0.04-3.06-0.43-4.18-1.46c-0.87-0.78-1.37-1.89-1.57-3.02c-0.02-0.22-0.17-0.46-0.42-0.45c-1.73-0.06-3.47-0.03-5.21-0.09
		c-0.01-2.99,0.01-5.98-0.01-8.97c0.2,0.59,0.42,1.17,0.78,1.68c0.66,1,1.64,1.76,2.69,2.31c1.96,1.04,4.17,1.49,6.33,1.92
		c1.64,0.34,3.31,0.67,4.83,1.42c0.87,0.44,1.73,1.13,1.97,2.12C44.96,20.64,44.81,21.56,44.38,22.33z M48.99,14.85
		c-1.3-1.17-2.92-1.94-4.57-2.48c-1.75-0.59-3.59-0.83-5.38-1.31c-0.94-0.25-1.89-0.54-2.74-1.04c-0.63-0.38-1.19-0.93-1.42-1.64
		c-0.27-0.82-0.19-1.79,0.31-2.51c0.43-0.64,1.14-1.04,1.86-1.26c0.99-0.29,2.03-0.3,3.05-0.18c1.04,0.13,2.08,0.54,2.84,1.3
		c0.67,0.65,1.09,1.53,1.27,2.44c0.03,0.24,0.18,0.5,0.45,0.5c1.82,0.02,3.64,0.04,5.45,0.05C49.29,10.64,48.94,12.75,48.99,14.85z
		 M70.16,19.75c-0.7,1.33-1.84,2.41-3.17,3.09c-1.53,0.77-3.31,0.96-5,0.7c-1.41-0.22-2.74-0.85-3.8-1.81
		c-1.07-0.93-1.8-2.22-2.22-3.56c-0.52-1.66-0.65-3.44-0.45-5.17c0.24-1.89,0.92-3.8,2.27-5.19c1.21-1.28,2.88-2.11,4.63-2.29
		c1.48-0.16,3.02,0.04,4.37,0.68c1.44,0.7,2.66,1.85,3.41,3.27c0.76,1.44,1.12,3.08,1.16,4.7C71.41,16.08,71.07,18.05,70.16,19.75z
		 M92.12,23.21c-0.81,0.7-1.89,1.01-2.95,1.09c-1.44,0.08-2.95-0.04-4.26-0.72c-1.08-0.54-1.92-1.52-2.32-2.66
		c-0.18-0.43-0.22-0.89-0.37-1.33c-0.15-0.31-0.54-0.2-0.82-0.24c-1.45,0-2.9-0.05-4.35-0.04c0.74-2.24,0.91-4.65,0.61-6.98
		c1,1.31,2.49,2.12,4,2.68c2.51,0.95,5.21,1.18,7.78,1.94c0.98,0.3,1.96,0.67,2.77,1.31c0.54,0.43,0.96,1.03,1.06,1.72
		C93.45,21.16,93.03,22.43,92.12,23.21z"/>
	<path fill="#040404" d="M5,30.75c-0.22,0-0.43,0-0.65,0c0,0.82,0,1.64,0,2.46c-0.8-1.03-2.48-1.08-3.41-0.19
		c-0.97,0.91-0.93,2.67,0.11,3.51c0.44,0.39,1.04,0.54,1.62,0.49c0.65,0.06,1.28-0.28,1.68-0.78c0,0.24,0,0.47,0,0.71
		c0.21,0,0.43,0,0.64,0C5,34.89,5,32.82,5,30.75z M3.88,35.96c-0.58,0.61-1.62,0.7-2.29,0.19c-0.64-0.49-0.79-1.44-0.5-2.16
		c0.17-0.46,0.57-0.81,1.04-0.94c0.68-0.19,1.46,0.04,1.89,0.6C4.54,34.32,4.49,35.37,3.88,35.96z"/>
	<path fill="#040404" d="M7,30.76c0.3-0.11,0.65,0.17,0.6,0.49c-0.01,0.38-0.55,0.58-0.8,0.28C6.56,31.3,6.67,30.83,7,30.76L7,30.76
		z"/>
	<path fill="#040404" d="M40.79,31.03c0.44-0.34,1.02-0.31,1.54-0.23c-0.03,0.2-0.07,0.4-0.11,0.6c-0.33-0.06-0.71-0.13-0.99,0.08
		c-0.3,0.25-0.29,0.67-0.3,1.02c0.35,0.01,0.7,0,1.05,0c0,0.2,0,0.4,0,0.6c-0.35,0-0.69,0-1.04,0c0,1.29,0,2.57,0,3.85
		c-0.21,0-0.43,0-0.64,0c0-1.28,0-2.57,0-3.85c-0.31-0.01-0.63,0-0.94,0c0-0.2,0-0.4,0-0.6c0.31,0,0.63,0,0.94,0
		C40.26,31.97,40.35,31.37,40.79,31.03L40.79,31.03z"/>
	<path fill="#040404" d="M53.17,30.75c0.22,0,0.43,0,0.65,0c0,0.81,0,1.62,0,2.43c0.35-0.48,0.92-0.8,1.52-0.79
		c0.5-0.01,1.05,0.15,1.35,0.58c0.35,0.49,0.31,1.12,0.31,1.69c0,0.77,0,1.53,0,2.29c-0.22,0-0.43,0-0.65,0c0-0.82,0-1.64,0-2.46
		c-0.02-0.43-0.04-0.92-0.36-1.24c-0.45-0.39-1.17-0.34-1.62,0.02c-0.42,0.33-0.55,0.89-0.56,1.39c-0.01,0.76,0,1.52,0,2.29
		c-0.22,0-0.43,0.01-0.65,0C53.17,34.89,53.17,32.82,53.17,30.75L53.17,30.75z"/>
	<path fill="#040404" d="M58.86,30.78c0.31-0.17,0.72,0.12,0.66,0.47c-0.01,0.36-0.48,0.54-0.75,0.32
		C58.5,31.38,58.56,30.92,58.86,30.78L58.86,30.78z"/>
	<path fill="#040404" d="M88.19,30.78c0.31-0.17,0.72,0.13,0.66,0.48c-0.02,0.38-0.56,0.56-0.8,0.27
		C87.82,31.32,87.9,30.89,88.19,30.78L88.19,30.78z"/>
	<path fill="#040404" d="M85.62,30.82c0.22,0,0.43-0.01,0.65-0.01c0,2.05,0,4.1,0,6.15c-0.21,0-0.43,0-0.64,0
		C85.62,34.91,85.63,32.87,85.62,30.82L85.62,30.82z"/>
	<path fill="#040404" d="M9.38,32.81c0.47-0.42,1.15-0.48,1.74-0.37c0.44,0.08,0.8,0.37,1.02,0.75c-0.19,0.14-0.39,0.27-0.58,0.39
		c-0.29-0.62-1.17-0.8-1.68-0.36c-0.27,0.23-0.24,0.73,0.09,0.9c0.6,0.33,1.36,0.23,1.9,0.68c0.62,0.49,0.52,1.59-0.16,1.98
		c-0.45,0.31-1.01,0.26-1.52,0.25c-0.56-0.01-1.06-0.37-1.36-0.82c0.18-0.13,0.37-0.26,0.56-0.38c0.37,0.62,1.23,0.86,1.85,0.49
		c0.34-0.17,0.48-0.69,0.17-0.96c-0.35-0.29-0.82-0.31-1.24-0.43c-0.45-0.1-0.94-0.33-1.11-0.79C8.91,33.67,9.01,33.12,9.38,32.81
		L9.38,32.81z"/>
	<path fill="#040404" d="M13.88,33.13c0.86-1,2.62-1,3.45,0.04c-0.18,0.14-0.36,0.27-0.53,0.4c-0.5-0.75-1.67-0.77-2.28-0.14
		c-0.7,0.74-0.66,2.09,0.15,2.74c0.63,0.5,1.66,0.41,2.13-0.27c0.18,0.13,0.36,0.27,0.53,0.41c-0.35,0.37-0.81,0.7-1.34,0.72
		c-0.53,0.02-1.1,0.05-1.57-0.25C13.17,36.07,12.98,34.18,13.88,33.13L13.88,33.13z"/>
	<path fill="#040404" d="M21.96,32.86c-0.61-0.46-1.43-0.57-2.16-0.39c-0.49,0.12-0.94,0.41-1.24,0.83
		c-0.51,0.7-0.59,1.67-0.24,2.46c0.28,0.62,0.86,1.1,1.52,1.24c0.41,0.04,0.83,0.05,1.24,0c0.73-0.15,1.36-0.7,1.61-1.41
		C23.03,34.65,22.78,33.48,21.96,32.86z M21.7,35.96c-0.55,0.63-1.6,0.7-2.26,0.19c-0.62-0.49-0.78-1.41-0.5-2.13
		c0.17-0.46,0.55-0.83,1.02-0.97c0.59-0.18,1.29-0.03,1.72,0.43C22.28,34.16,22.29,35.28,21.7,35.96z"/>
	<path fill="#040404" d="M32.42,34.92c0.04-0.7-0.12-1.45-0.63-1.95c-0.69-0.68-1.85-0.75-2.66-0.26c-0.96,0.57-1.31,1.86-0.94,2.88
		c0.23,0.68,0.81,1.21,1.5,1.4c0.32,0.07,0.66,0.04,0.98,0.04c0.65,0,1.22-0.41,1.61-0.9c-0.16-0.14-0.34-0.27-0.5-0.41
		c-0.4,0.59-1.16,0.92-1.85,0.71c-0.67-0.18-1.13-0.83-1.2-1.51C29.95,34.92,31.18,34.92,32.42,34.92z M28.73,34.37
		c0.06-0.73,0.72-1.33,1.44-1.39c0.45-0.03,0.93,0.1,1.22,0.46c0.23,0.25,0.3,0.6,0.33,0.92C30.73,34.38,29.73,34.38,28.73,34.37z"
		/>
	<path fill="#040404" d="M35.13,32.55c0.37-0.19,0.8-0.17,1.2-0.12c-0.04,0.21-0.08,0.43-0.12,0.64c-0.28-0.03-0.58-0.06-0.85,0.05
		c-0.53,0.19-0.88,0.75-0.88,1.3c-0.01,0.85,0.01,1.7-0.01,2.54c-0.21,0-0.43,0-0.64,0c-0.01-1.49,0.03-2.97-0.05-4.46
		c0.22,0,0.43,0,0.65,0c0,0.25,0,0.51,0,0.76C34.6,32.97,34.82,32.69,35.13,32.55L35.13,32.55z"/>
	<path fill="#040404" d="M47.15,32.5c-0.22,0-0.43,0-0.65,0c0,0.14,0,0.29,0,0.43c-0.94-0.76-2.47-0.73-3.32,0.16
		c-0.98,1.01-0.8,2.91,0.43,3.64c0.53,0.36,1.18,0.32,1.79,0.29c0.41-0.03,0.77-0.25,1.1-0.49c0,0.14,0,0.29,0,0.43
		c0.21,0,0.43,0,0.64,0C47.16,35.48,47.14,33.99,47.15,32.5z M45.96,36.13c-0.6,0.49-1.55,0.48-2.14-0.03
		c-0.57-0.5-0.71-1.37-0.45-2.07c0.16-0.45,0.54-0.83,1-0.97c0.63-0.2,1.4-0.03,1.81,0.51C46.77,34.31,46.7,35.52,45.96,36.13z"/>
	<path fill="#040404" d="M48.93,32.85c0.47-0.45,1.17-0.52,1.79-0.41c0.43,0.08,0.8,0.37,1.01,0.75c-0.19,0.14-0.39,0.27-0.58,0.39
		c-0.29-0.62-1.16-0.8-1.68-0.37c-0.28,0.23-0.25,0.73,0.08,0.9c0.63,0.34,1.46,0.23,1.99,0.77c0.34,0.33,0.4,0.86,0.25,1.29
		c-0.2,0.55-0.81,0.86-1.37,0.85c-0.42,0-0.86,0.04-1.24-0.15c-0.32-0.15-0.57-0.39-0.77-0.68c0.18-0.13,0.37-0.26,0.57-0.38
		c0.38,0.64,1.28,0.87,1.9,0.46c0.31-0.19,0.41-0.68,0.12-0.93c-0.35-0.29-0.82-0.31-1.24-0.43c-0.45-0.1-0.93-0.34-1.11-0.79
		C48.5,33.69,48.58,33.17,48.93,32.85L48.93,32.85z"/>
	<path fill="#040404" d="M64.75,32.91c-0.61-0.5-1.46-0.62-2.2-0.44c-0.48,0.12-0.92,0.39-1.22,0.78c-0.81,1.03-0.6,2.75,0.54,3.45
		c0.54,0.38,1.24,0.34,1.87,0.31c0.74-0.11,1.39-0.65,1.67-1.35C65.76,34.73,65.55,33.55,64.75,32.91z M64.23,36.15
		c-0.58,0.45-1.46,0.45-2.04,0c-0.66-0.52-0.81-1.52-0.46-2.26c0.18-0.41,0.55-0.72,0.97-0.84c0.6-0.17,1.3-0.03,1.72,0.44
		C65.08,34.23,65.02,35.53,64.23,36.15z"/>
	<path fill="#040404" d="M67.62,33.18c0.32-0.4,0.77-0.72,1.29-0.77c0.52-0.05,1.11,0.04,1.49,0.45c0.32,0.36,0.4,0.85,0.41,1.31
		c0,0.93,0,1.86,0,2.79c-0.22,0-0.43,0.01-0.65,0c0-0.85,0-1.7,0-2.54c-0.02-0.42-0.06-0.89-0.39-1.19
		c-0.5-0.39-1.29-0.29-1.72,0.17c-0.34,0.36-0.42,0.88-0.43,1.36c0,0.74,0,1.47,0,2.21c-0.21,0-0.43,0-0.64,0
		c-0.03-1.49,0.05-2.98-0.05-4.46c0.22,0,0.45,0,0.68,0C67.63,32.73,67.63,32.95,67.62,33.18L67.62,33.18z"/>
	<path fill="#040404" d="M77.93,32.91c-0.61-0.5-1.46-0.62-2.21-0.43c-0.53,0.13-1.02,0.47-1.31,0.93c-0.7,1.05-0.42,2.69,0.71,3.33
		c0.53,0.36,1.19,0.31,1.8,0.27c0.79-0.11,1.48-0.72,1.72-1.48C78.93,34.62,78.69,33.51,77.93,32.91z M77.62,35.95
		c-0.54,0.62-1.55,0.7-2.21,0.23c-0.67-0.49-0.84-1.47-0.53-2.22c0.17-0.44,0.55-0.78,0.99-0.91c0.59-0.18,1.3-0.04,1.73,0.43
		C78.19,34.16,78.21,35.28,77.62,35.95z"/>
	<path fill="#040404" d="M80.68,33.19c0.32-0.42,0.79-0.74,1.33-0.78c0.52-0.04,1.1,0.06,1.47,0.46c0.33,0.38,0.4,0.9,0.4,1.38
		c0,0.91,0,1.81,0,2.71c-0.21,0-0.43,0-0.64,0c0-0.82,0-1.64,0-2.46c-0.02-0.44-0.04-0.94-0.38-1.26c-0.53-0.43-1.38-0.29-1.79,0.24
		c-0.29,0.36-0.36,0.83-0.37,1.28c0,0.74,0,1.47,0,2.21c-0.21,0-0.43,0-0.64,0c-0.03-1.49,0.05-2.97-0.05-4.46c0.22,0,0.45,0,0.67,0
		C80.69,32.73,80.69,32.96,80.68,33.19L80.68,33.19z"/>
	<path fill="#040404" d="M91.08,33.19c0.35-0.5,0.96-0.83,1.58-0.79c0.48,0,0.99,0.16,1.28,0.56c0.29,0.39,0.32,0.91,0.33,1.38
		c0,0.88,0,1.75,0,2.62c-0.21,0-0.43,0-0.64,0c-0.01-0.84,0.01-1.69-0.01-2.54c-0.01-0.43-0.06-0.92-0.41-1.22
		c-0.54-0.4-1.38-0.25-1.78,0.29c-0.26,0.33-0.34,0.77-0.35,1.18c0,0.76,0,1.52,0,2.29c-0.22,0-0.43,0-0.65,0
		c-0.02-1.49,0.05-2.97-0.04-4.46c0.22,0,0.45,0,0.67,0C91.08,32.73,91.08,32.96,91.08,33.19L91.08,33.19z"/>
	<path fill="#040404" d="M99.93,34.92c0.05-0.59-0.01-1.23-0.39-1.71c-0.73-1.01-2.35-1.07-3.22-0.22c-1.07,0.98-0.94,2.95,0.3,3.73
		c0.54,0.39,1.24,0.34,1.88,0.29c0.54-0.09,0.98-0.47,1.33-0.87c-0.16-0.14-0.33-0.28-0.5-0.42c-0.39,0.56-1.11,0.9-1.79,0.73
		c-0.7-0.16-1.19-0.83-1.26-1.52C97.49,34.91,98.71,34.92,99.93,34.92z M96.29,34.37c0.07-0.86,0.96-1.51,1.8-1.38
		c0.37,0.05,0.73,0.23,0.94,0.55c0.18,0.24,0.22,0.54,0.26,0.83C98.29,34.38,97.29,34.37,96.29,34.37z"/>
	<path fill="#040404" d="M6.81,32.5c0.22,0,0.43,0,0.65,0c-0.01,1.49,0,2.97-0.01,4.46c-0.21,0-0.43,0-0.64,0
		C6.81,35.47,6.81,33.99,6.81,32.5L6.81,32.5z"/>
	<path fill="#040404" d="M23.24,32.5c0.25,0,0.51-0.01,0.76,0c0.07,0.08,0.09,0.19,0.14,0.29c0.43,1.15,0.86,2.3,1.3,3.44
		c0.46-1.25,0.94-2.49,1.41-3.73c0.25,0,0.5,0,0.74,0c-0.61,1.49-1.21,2.97-1.81,4.46c-0.24,0-0.49,0-0.73,0
		C24.46,35.47,23.85,33.99,23.24,32.5L23.24,32.5z"/>
	<path fill="#040404" d="M58.73,32.5c0.21,0,0.43,0,0.65,0c-0.01,1.49,0,2.97,0,4.46c-0.21,0-0.43,0-0.64,0
		C58.73,35.47,58.73,33.99,58.73,32.5L58.73,32.5z"/>
	<path fill="#040404" d="M88.06,32.5c0.21,0,0.43,0,0.65,0c-0.01,1.49,0,2.97,0,4.46c-0.21,0-0.43,0-0.64,0
		C88.06,35.47,88.06,33.99,88.06,32.5L88.06,32.5z"/>
</g>
</svg>
