<?xml version="1.0" encoding="iso-8859-1"?>
<!-- Generator: Adobe Illustrator 18.1.1, SVG Export Plug-In . SVG Version: 6.00 Build 0)  -->
<svg xmlns="http://www.w3.org/2000/svg" xmlns:xlink="http://www.w3.org/1999/xlink" version="1.1" id="Capa_1" x="0px" y="0px" viewBox="0 0 512 512" style="enable-background:new 0 0 512 512;" xml:space="preserve" width="512px" height="512px">
<g>
	<g>
		<g>
			<path d="M202,112.5c-22.667-9.333-49.167-14-79.5-14s-56.833,4.667-79.5,14c-18,7.333-28,17-30,29l-13,87     v120h18c0,16.667,2.833,28.167,8.5,34.5s11.5,6.333,17.5,0s9-17.833,9-34.5h137c0,16.667,3,28.167,9,34.5s11.833,6.333,17.5,0     s8.5-17.833,8.5-34.5h21v-120l-14-87C230,129.5,220,119.833,202,112.5z M55,121c1.333-5,3.333-7.5,6-7.5h113v31H61     c-2.667,0-4.667-2.667-6-8S53.667,126,55,121z M23,225.5l10-61c0.667-1.333,1.167-2,1.5-2s1.333,0.333,3,1s3.167,1,4.5,1h160     c1.333,0,3-0.333,5-1c2.67-1.333,4.337-1,5,1l9,66l1-1c0,4.667-3.333,7-10,7H32c-6,0-9-3-9-9V225.5z M52.5,308.5     c-3.667,3.333-8,5-13,5s-9.333-1.667-13-5S21,301,21,296s1.833-9.167,5.5-12.5s8-5,13-5s9.333,1.667,13,5S58,291,58,296     S56.167,305.167,52.5,308.5z M217.5,308.5c-3.667,3.333-8,5-13,5s-9.167-1.667-12.5-5s-5-7.5-5-12.5s1.667-9.167,5-12.5     s7.5-5,12.5-5s9.333,1.667,13,5S223,291,223,296S221.167,305.167,217.5,308.5z" fill="#933EC5"/>
			<path d="M458,349.5v-1v-1c8-3.333,15-7.333,21-12c5.333-4,9.333-10.667,12-20c0.667-2.668,1-5.335,1-8     v-186c0-5.333-1.333-10-4-14c-2.667-5.336-5.667-9.669-9-13c-3.333-2.667-8.333-5.667-15-9c-1.333-0.667-3-1.333-5-2     s-3.833-1.167-5.5-1.5l-2.5-0.5v1H319h-2v-1c-3.333,0.667-7,2-11,4c-6,2.667-10.667,5.667-14,9c-5.333,4.667-9,8.667-11,12     c-3.333,6-5,10.667-5,14v189c0,2.667,1,6,3,10c1.333,2.667,3.333,6,6,10l8,8c2.667,2.667,5.667,4.667,9,6     c0.667,0.667,3,1.667,7,3c2.667,0.667,4,1.334,4,2l-54,82h31l40-61h110l40,61h32L458,349.5z M366,92.5h37c9.333,0,14,3.5,14,10.5     s-4.667,10.5-14,10.5h-37c-9.333,0-14-3.5-14-10.5S356.667,92.5,366,92.5z M297,186.5v-23c0-8.667,2.833-15.833,8.5-21.5     s12.5-8.5,20.5-8.5h106c8,0,14.833,2.833,20.5,8.5c5.667,5.668,8.5,12.835,8.5,21.5v23c0,8-2.833,14.833-8.5,20.5     s-12.5,8.5-20.5,8.5H326c-8,0-14.833-2.833-20.5-8.5S297,194.5,297,186.5z M339,316c-4,4.333-9,6.5-15,6.5s-11-2.167-15-6.5     s-6-9.5-6-15.5c0-5.333,2-10,6-14s9-6,15-6s11,1.833,15,5.5s6,8.833,6,15.5C345,306.834,343,311.667,339,316z M430,316     c-4-4.333-6-9.5-6-15.5s2.167-10.833,6.5-14.5s9.5-5.5,15.5-5.5s11,2,15,6s6,8.667,6,14c0,6-2,11.167-6,15.5s-9.167,6.5-15.5,6.5     S434,320.333,430,316z" fill="#933EC5"/>
		</g>
	</g>
</g>
<g>
</g>
<g>
</g>
<g>
</g>
<g>
</g>
<g>
</g>
<g>
</g>
<g>
</g>
<g>
</g>
<g>
</g>
<g>
</g>
<g>
</g>
<g>
</g>
<g>
</g>
<g>
</g>
<g>
</g>
</svg>
