<?xml version="1.0" encoding="utf-8"?>
<!-- Generator: Adobe Illustrator 21.1.0, SVG Export Plug-In . SVG Version: 6.00 Build 0)  -->
<svg version="1.1" id="Layer_1" xmlns="http://www.w3.org/2000/svg" xmlns:xlink="http://www.w3.org/1999/xlink" x="0px" y="0px"
	 viewBox="0 0 510.24 510.24" enable-background="new 0 0 510.24 510.24" xml:space="preserve">
<path fill="#856CB0" d="M19.192,234.478C32.29,118.996,151.597,28.624,249.83,32.097c164.953,5.832,308.766,277.636,205.012,388.732
	c-61.219,65.55-216.664,83.759-326.155,18.034C52.379,393.056,10.221,313.582,19.192,234.478z"/>
<g transform="translate(-1 -1)">
	<g>
		<g>
			<path fill="#FCFDFF" d="M347.327,254.072c5.785-31.42-3.659-74.61-38.069-95.192c-21.733-12.192-47.368-15.418-71.444-8.99
				c-33.351,8.918-57.864,32.85-65.573,64.016c-1.719,6.322-2.447,12.871-2.159,19.416c0.369,4.061,1.119,8.078,2.238,11.998
				c1.507,4.99,2.253,10.178,2.213,15.39c-0.155,6.204-4.429,12.642-8.204,18.322c-4.115,6.199-7.669,11.552-5.608,16.489
				c1.956,3.346,5.398,5.551,9.256,5.93c0.222,0.04,0.447,0.063,0.673,0.069c1.031-0.126,2.064,0.216,2.816,0.932
				c0.752,0.717,1.143,1.732,1.067,2.768c0,7.694,0.192,11.664,3.37,13.484c-0.277,0.579-0.471,1.194-0.575,1.827
				c-0.319,2.172,0.463,4.36,2.086,5.837c1.614,1.563,3.659,2.607,5.872,2.997c0.155,0.036,0.304,0.063,0.448,0.098
				c0.088,0.551,0.126,1.108,0.116,1.665c-0.026,1.377-0.124,2.752-0.293,4.118c-0.615,5.922-1.457,14.034,10.391,17.906
				c2.378,0.665,4.843,0.965,7.311,0.889c11.219-0.498,22.307-2.624,32.915-6.309c3.063,5.341,4.909,11.292,5.407,17.429
				c0,0.982,0.39,1.924,1.084,2.618c0.694,0.694,1.636,1.084,2.618,1.084h92.559c1.583-0.02,2.976-1.051,3.457-2.56
				c0.487-1.53-0.043-3.2-1.323-4.169c-3.831-2.909-16.517-33.554-16.907-44.561c1.118-2.539,2.616-5.389,4.389-8.7
				C337.118,291.855,343.834,273.327,347.327,254.072z M315.638,317.204c0.094,8.854,8.077,32.251,14.934,44.257h-81.9
				c-0.922-5.673-2.76-11.158-5.442-16.241c10.727-4.204,20.176-9.61,24.712-15.542c1.234-1.626,0.921-3.944-0.701-5.183
				c-1.622-1.24-3.941-0.933-5.185,0.685c-10.478,13.71-54.075,24.12-63.808,20.936c-6.164-2.016-5.919-4.382-5.326-10.102
				c0.197-1.621,0.308-3.252,0.333-4.885c0-6.239-2.516-8.101-6.299-8.978c-0.714-0.102-1.395-0.365-1.992-0.77
				c0.727-0.695,1.552-1.279,2.448-1.734c1.545-0.759,2.364-2.483,1.974-4.161c-0.39-1.677-1.883-2.865-3.605-2.866
				c-1.338,0-2.824,0-3.605-0.098c-0.235-2.427-0.315-4.866-0.239-7.303c0.072-2.92-1.037-5.744-3.077-7.834
				c-2.04-2.09-4.838-3.267-7.759-3.264c-2.668-0.562-3.478-1.286-3.547-1.453c-0.539-1.285,3.03-6.654,4.946-9.54
				c4.111-6.19,9.227-13.895,9.437-22.23c0.104-4.626-0.411-9.244-1.53-13.733c4.037-3.553,8.802-6.18,13.961-7.698
				c1.838-0.321,3.727-0.189,5.503,0.385c1.971,0.543,4.009-0.614,4.552-2.585c0.543-1.971-0.614-4.009-2.585-4.552
				c-2.916-0.897-6.007-1.066-9.003-0.494c-5.232,1.333-10.122,3.761-14.346,7.125c-0.506-2.157-0.848-4.349-1.024-6.557
				c-0.251-5.77,0.412-11.543,1.963-17.105c7.159-28.934,29.135-50.308,60.301-58.642c22.139-5.938,45.722-2.997,65.725,8.195
				c31.38,18.767,39.927,58.51,34.591,87.494c-3.327,18.51-9.791,36.316-19.112,52.651c-2.036,3.798-3.793,7.078-5.062,10.113
				C315.657,316.037,315.577,316.623,315.638,317.204z"/>
			<path fill="#FCFDFF" d="M322.987,262.531c0.53-5.711-3.38-10.885-9.019-11.935l-7.09-9.828c0.435-0.802,0.768-1.655,0.992-2.539
				l6.866-2.746c3.171,3.61,8.307,4.765,12.718,2.86c4.411-1.905,7.091-6.436,6.637-11.22s-3.94-8.729-8.63-9.77l-5.562-11.095
				c3.902-3.976,4.239-10.232,0.786-14.604c-3.453-4.372-9.617-5.494-14.389-2.619l-6.203-5.15c0.469-1.227,0.715-2.528,0.725-3.842
				c0.01-4.536-2.746-8.621-6.955-10.31c-4.21-1.689-9.025-0.643-12.153,2.642l-10.977-2.744c-1.315-4.761-5.633-8.07-10.572-8.1
				c-4.94-0.03-9.297,3.226-10.67,7.971l-14.669,2.934c-3.826-4.126-10.142-4.719-14.669-1.377
				c-4.527,3.342-5.822,9.551-3.007,14.424l-7.188,9.573c-5.151,0.931-8.946,5.341-9.1,10.574
				c-0.153,5.232,3.378,9.857,8.466,11.088l5.944,14.673c-3.261,3.201-4.224,8.075-2.425,12.276
				c1.799,4.201,5.991,6.868,10.558,6.717c4.567-0.151,8.574-3.088,10.092-7.399h19.877c1.66,5.105,6.838,8.196,12.119,7.234
				l12.291,18.696c-3.153,3.496-3.753,8.603-1.495,12.734c2.258,4.131,6.88,6.384,11.525,5.617c4.645-0.767,8.298-4.385,9.109-9.023
				l9.175-7.334c1.746,1.101,3.766,1.688,5.83,1.695C317.663,272.609,322.457,268.242,322.987,262.531z M323.034,224.473
				c1.852-0.004,3.422,1.361,3.675,3.195c0.254,1.834-0.887,3.574-2.67,4.073c-1.783,0.499-3.661-0.396-4.396-2.096
				c-0.013-0.034-0.006-0.069-0.019-0.103l-0.023-0.036c-0.172-0.423-0.264-0.874-0.269-1.331
				C319.334,226.131,320.99,224.475,323.034,224.473z M308.302,197.803c0.355-1.719,1.87-2.951,3.625-2.95
				c2.045,0,3.702,1.657,3.702,3.702c0,2.045-1.657,3.702-3.702,3.702c-0.458-0.006-0.911-0.097-1.335-0.27l-0.032-0.021
				c-0.033-0.013-0.067-0.006-0.1-0.019C308.848,201.254,307.947,199.522,308.302,197.803z M304.619,206.854L304.619,206.854
				l-6.842,17.107l-11.994-9.595c1.627-1.388,2.816-3.218,3.423-5.269l14.669-2.934C304.109,206.41,304.364,206.63,304.619,206.854z
				 M300.677,236.58c-0.499,1.781-2.235,2.92-4.068,2.667c-1.832-0.253-3.196-1.818-3.195-3.668
				c0.002-2.044,1.658-3.701,3.702-3.702c0.458,0.006,0.911,0.097,1.335,0.27l0.032,0.021c0.033,0.013,0.069,0.008,0.102,0.02
				C300.283,232.924,301.176,234.799,300.677,236.58z M289.713,176.342c2.045,0,3.702,1.657,3.702,3.702s-1.658,3.702-3.702,3.702
				s-3.702-1.657-3.702-3.702C286.012,178,287.669,176.344,289.713,176.342z M270.229,177.138l8.457,2.114
				c-0.02,0.266-0.08,0.521-0.08,0.792c0.007,6.131,4.976,11.101,11.107,11.107c1.985-0.01,3.931-0.558,5.63-1.586l6.203,5.15
				c-0.469,1.227-0.715,2.528-0.726,3.842c0,0.224,0.053,0.433,0.066,0.654l-12.058,2.411c-1.512-3.52-4.731-6.012-8.517-6.596
				l-13.556-13.555C268.261,180.343,269.456,178.853,270.229,177.138z M282.308,205.961c0,2.045-1.657,3.702-3.702,3.702
				c-2.044-0.002-3.701-1.658-3.702-3.702c0-2.045,1.657-3.702,3.702-3.702S282.308,203.916,282.308,205.961z M260.094,168.937
				c2.045,0,3.702,1.657,3.702,3.702s-1.657,3.702-3.702,3.702s-3.702-1.657-3.702-3.702
				C256.393,170.596,258.05,168.939,260.094,168.937z M260.827,186.015l11.116,11.115c-1.728,1.306-3.036,3.088-3.763,5.128h-8.769
				c-0.874-2.451-2.583-4.517-4.827-5.836L260.827,186.015z M237.814,179.39l12.058-2.411c0.946,2.182,2.567,4.005,4.624,5.199
				l-6.721,11.201l-11.618-7.455c1.119-1.758,1.716-3.797,1.722-5.88C237.879,179.82,237.826,179.611,237.814,179.39z
				 M252.689,205.961c0,2.045-1.657,3.702-3.702,3.702c-2.044-0.002-3.701-1.658-3.702-3.702c0-2.045,1.657-3.702,3.702-3.702
				S252.689,203.916,252.689,205.961z M226.772,176.342c2.045,0,3.702,1.657,3.702,3.702s-1.657,3.702-3.702,3.702
				s-3.702-1.657-3.702-3.702C223.072,178,224.728,176.344,226.772,176.342z M222.742,190.367c2.256,0.93,4.767,1.037,7.093,0.301
				l11.431,7.335c-1.217,1.192-2.142,2.648-2.705,4.256h-16.174c-0.808-2.292-2.345-4.256-4.376-5.591L222.742,190.367z
				 M211.962,209.663c-2.045,0-3.702-1.657-3.702-3.702c0.002-2.044,1.658-3.701,3.702-3.702c2.045,0,3.702,1.657,3.702,3.702
				C215.665,208.006,214.007,209.663,211.962,209.663z M223.07,242.985c-2.045,0-3.702-1.658-3.702-3.702
				c0-2.045,1.657-3.702,3.702-3.702c2.045,0,3.702,1.658,3.702,3.702C226.77,241.326,225.114,242.983,223.07,242.985z
				 M225.175,228.388c-0.693-0.138-1.399-0.209-2.106-0.213c-0.367,0-0.713,0.073-1.07,0.108l-5.045-12.455
				c2.533-1.284,4.478-3.491,5.433-6.165h16.174c0.667,1.865,1.821,3.517,3.343,4.783L225.175,228.388z M253.371,235.58h-19.877
				c-0.395-1.109-0.966-2.148-1.69-3.076l18.183-15.153l6.192,13.887C254.915,232.444,253.952,233.932,253.371,235.58z
				 M259.411,209.663h8.77c0.874,2.451,2.583,4.517,4.827,5.836l-7.698,12.829c-0.501-0.086-1.006-0.137-1.514-0.153
				c-0.287,0-0.556,0.063-0.838,0.085l-6.356-14.255C257.868,212.799,258.83,211.312,259.411,209.663z M263.796,242.985
				c-2.045,0-3.702-1.658-3.702-3.702c0-2.045,1.658-3.702,3.702-3.702c2.045,0,3.702,1.658,3.702,3.702
				C267.497,241.326,265.84,242.983,263.796,242.985z M279.6,218.903l10.34,8.272c-1.627,1.388-2.816,3.219-3.423,5.269l-12.498,2.5
				c-0.515-1.183-1.232-2.267-2.119-3.205L279.6,218.903z M286.01,280.008c-2.045,0-3.702-1.657-3.702-3.702
				s1.657-3.702,3.702-3.702s3.702,1.657,3.702,3.702C289.711,278.35,288.054,280.007,286.01,280.008z M300.82,261.497
				c0.013,1.237,0.236,2.463,0.658,3.625l-6.25,4.996c-2.337-3.65-6.648-5.526-10.912-4.748l-12.291-18.696
				c1.098-1.224,1.909-2.678,2.372-4.256l12.498-2.5c2.383,5.628,8.868,8.268,14.504,5.905l4.567,6.331
				C302.767,254.185,300.826,257.708,300.82,261.497z M304.426,227.282l7.064-17.663c0.148,0.006,0.287,0.044,0.437,0.044
				c0.446-0.017,0.891-0.062,1.332-0.135l4.483,8.943c-3.569,1.926-5.8,5.649-5.814,9.704c0,0.15,0.039,0.289,0.044,0.438
				l-4.978,1.99C306.357,229.343,305.485,228.216,304.426,227.282z M311.927,265.199c-2.045,0-3.702-1.657-3.702-3.702
				c0.002-2.044,1.658-3.701,3.702-3.702c2.045,0,3.702,1.657,3.702,3.702C315.629,263.542,313.972,265.199,311.927,265.199z"/>
		</g>
	</g>
</g>
</svg>
