<?xml version="1.0" encoding="UTF-8"?>
<svg width="564px" height="220px" viewBox="0 0 564 220" version="1.1" xmlns="http://www.w3.org/2000/svg" xmlns:xlink="http://www.w3.org/1999/xlink">
    <!-- Generator: Sketch 46.2 (44496) - http://www.bohemiancoding.com/sketch -->
    <title>logo-sumup-RGB</title>
    <desc>Created with Sketch.</desc>
    <defs></defs>
    <g id="Guide" stroke="none" stroke-width="1" fill="none" fill-rule="evenodd">
        <g id="logo-sumup-RGB" fill="#1D384C">
            <path d="M50,40 L170,40 C175.522847,40 180,44.4771525 180,50 L180,170 C180,175.522847 175.522847,180 170,180 L50,180 C44.4771525,180 40,175.522847 40,170 L40,50 L40,50 C40,44.4771525 44.4771525,40 50,40 L50,40 Z M126.464271,100.555657 L83.0481716,143.970174 C82.3005846,144.773446 82.3173473,146.030905 83.0993479,146.812905 C83.164482,146.878039 83.2329145,146.937865 83.3041079,146.992381 C96.166153,158.172772 115.675411,157.645456 127.910434,145.410434 C140.210562,133.110306 140.678052,113.458319 129.312905,100.599348 C128.526116,99.8202064 127.266519,99.8043681 126.464271,100.555657 Z M93.5357289,119.444343 L93.5365201,119.445134 L136.951828,76.029826 L136.95094,76.0289379 C137.699415,75.2265538 137.682653,73.9690953 136.900652,73.1870947 C136.835518,73.1219606 136.767085,73.0621354 136.695892,73.0076189 C123.833847,61.8272282 104.324589,62.354544 92.0895663,74.5895663 C79.7894383,86.8896942 79.3219478,106.541681 90.6870947,119.400652 L90.6909185,119.396828 C91.4738837,120.179794 92.7334805,120.195632 93.5357289,119.444343 Z M225.664395,123.811465 C227.164446,123.811465 228.704097,124.654131 229.998227,126.15338 C232.42492,129.133903 236.104559,129.586956 238.068722,129.586956 C244.494495,129.586956 247.856805,125.933462 247.856805,122.337591 C247.856805,117.413225 242.774267,115.425505 236.890224,113.136455 C229.545202,110.255846 220.392305,106.687465 220.392305,95.5250404 C220.392305,84.6829772 229.628098,79 238.762516,79 C245.387872,79 252.37755,82.6445065 255.762036,87.8813039 C256.334917,88.7324289 256.634822,89.7833832 256.634822,90.91945 C256.634822,93.8915149 254.041809,96.399426 250.976763,96.399426 C249.359496,96.399426 247.889013,95.5250404 246.618643,93.8243765 C244.701999,91.1467691 241.98385,89.7331615 238.762516,89.7331615 C233.619786,89.7331615 231.319814,92.6444318 231.319814,95.5250404 C231.319814,99.1277837 235.069149,100.784041 241.184456,103.193095 C249.026327,106.291507 258.784314,110.131085 258.784314,122.337591 C258.784314,134.025493 248.115525,140.333333 238.068722,140.333333 C232.200519,140.333333 224.478505,137.658898 221.07237,132.526773 C220.362737,131.505952 220,130.420635 220,129.275581 C220,126.421934 222.699141,123.811465 225.664395,123.811465 Z M465.199452,79 C475.977492,79 484.196078,87.1555612 484.196078,97.8755786 L484.196078,120.351725 C484.196078,131.053297 475.977492,140.31559 465.199452,140.31559 L464.887945,140.31559 C461.798878,140.31559 458.356379,139.450231 456.29364,137.625705 L456.29364,165.610742 C456.29364,168.582054 453.863672,171 450.867473,171 C447.870212,171 445.440775,168.582054 445.440775,165.610742 L445.440775,122.842927 C445.375502,122.206819 445.440775,121.551739 445.440775,120.905091 L445.440775,98.4126071 C445.440775,87.702076 454.109375,79 464.887945,79 L465.199452,79 Z M473.631902,120.905091 L473.631902,98.4126071 C473.631902,93.7875212 469.854547,90.0457128 465.199452,90.0457128 L464.887945,90.0457128 C460.232851,90.0457128 456.451251,93.7875212 456.451251,98.4126071 L456.451251,120.905091 C456.451251,126.771825 460.232851,129.272513 464.887945,129.272513 L465.199452,129.272513 C469.854547,129.272513 473.631902,126.771825 473.631902,120.905091 Z M434.559362,84.1525202 L434.588235,84.1525202 L434.588235,121.30966 C434.588235,131.790204 425.953637,140.333333 415.351939,140.333333 L415.042357,140.333333 C404.431035,140.333333 395.803922,131.790204 395.803922,121.30966 L395.803922,84.1525202 L395.846162,84.1525202 C395.981971,81.2804937 398.354895,79 401.284959,79 C404.215557,79 406.593828,81.2804937 406.729638,84.1525202 L406.738193,84.1525202 L406.738193,84.2867912 C406.738193,84.3190374 406.752629,84.363442 406.752629,84.4041463 C406.752629,84.4374497 406.738193,84.4792112 406.738193,84.5135719 L406.738193,121.30966 C406.738193,125.838401 410.450498,129.508125 415.042357,129.508125 L415.351939,129.508125 C419.924549,129.508125 423.645944,125.838401 423.645944,121.30966 L423.645944,84.1525202 L423.679094,84.1525202 C423.814904,81.2804937 426.178738,79 429.117892,79 C432.053302,79 434.424088,81.2804937 434.559362,84.1525202 Z M306.565239,84.1525202 L306.588235,84.1525202 L306.588235,121.30966 C306.588235,131.790204 297.959992,140.333333 287.343947,140.333333 L287.044466,140.333333 C276.438048,140.333333 267.803922,131.790204 267.803922,121.30966 L267.803922,84.1525202 L267.846704,84.1525202 C267.982005,81.2804937 270.355922,79 273.296178,79 C276.217716,79 278.593237,81.2804937 278.733886,84.1525202 L278.748325,84.1525202 L278.748325,84.2867912 C278.748325,84.3190374 278.753138,84.363442 278.753138,84.4041463 C278.753138,84.4374497 278.748325,84.4792112 278.748325,84.5135719 L278.748325,121.30966 C278.748325,125.838401 282.465625,129.508125 287.044466,129.508125 L287.343947,129.508125 C291.931879,129.508125 295.651854,125.838401 295.651854,121.30966 L295.651854,84.1525202 L295.679662,84.1525202 C295.815498,81.2804937 298.18995,79 301.120044,79 C304.056022,79 306.429404,81.2804937 306.565239,84.1525202 Z M365.131964,79 C375.618362,79 384.156863,87.5227159 384.156863,98.0061162 L384.156863,135.148166 L384.110346,135.148166 C383.976081,138.01179 381.634376,140.301633 378.732882,140.301633 C375.826631,140.301633 373.484926,138.01179 373.355419,135.148166 L373.336389,135.148166 L373.336389,135.013967 C373.336389,134.972227 373.327403,134.937885 373.327403,134.896146 C373.327403,134.854407 373.336389,134.820064 373.336389,134.785194 L373.336389,98.0061162 C373.336389,93.4776803 369.667366,89.80252 365.131964,89.80252 L364.83119,89.80252 C360.412081,89.80252 356.815476,93.3017418 356.644738,97.6780146 C356.649495,97.7958353 356.65901,97.913656 356.65901,98.0388735 L356.65901,135.174055 L356.62148,135.174055 C356.487215,138.046132 354.14181,140.333333 351.241902,140.333333 C349.414526,140.333333 347.812335,139.424582 346.836536,138.046132 C346.248731,137.227728 345.882939,136.226516 345.834836,135.148166 L345.806292,135.148166 L345.806292,98.0061162 C345.806292,97.8972773 345.825322,97.7958353 345.825322,97.6869964 C345.636082,93.3181205 342.048464,89.8352773 337.630412,89.8352773 L337.333338,89.8352773 C332.798994,89.8352773 329.128913,93.5035692 329.128913,98.0388735 L329.128913,135.174055 L329.096668,135.174055 C328.966632,138.046132 326.620699,140.333333 323.719205,140.333333 C320.816654,140.333333 318.47072,138.046132 318.341213,135.174055 L318.313725,135.174055 L318.313725,98.0388735 C318.313725,87.5544166 326.84694,79.0348707 337.333338,79.0348707 L337.630412,79.0348707 C342.956072,79.0348707 347.762118,81.2301397 351.219172,84.7568354 C354.677812,81.2132327 359.494958,79 364.83119,79 L365.131964,79 Z M509.452047,79 C515.423226,79 520.27451,83.864831 520.27451,89.8224633 C520.27451,95.79822 515.423226,100.647059 509.452047,100.647059 C503.480867,100.647059 498.627451,95.79822 498.627451,89.8224633 C498.627451,83.864831 503.480867,79 509.452047,79 Z M509.452047,98.024336 C513.971628,98.024336 517.65022,94.3397302 517.65022,89.8224633 C517.65022,85.3094609 513.971628,81.6504427 509.452047,81.6504427 C504.937266,81.6504427 501.251741,85.3094609 501.251741,89.8224633 C501.251741,94.3397302 504.937266,98.024336 509.452047,98.024336 Z M505.843137,85.531875 C505.843137,84.8155013 506.385709,84.4117647 506.960318,84.4117647 L509.65199,84.4117647 C511.637803,84.4117647 512.936357,85.6307387 512.936357,87.4703284 C512.936357,88.9211922 512.04499,89.9678017 510.647222,90.2302305 L512.592212,92.3306962 C512.895535,92.6619672 513.058824,92.9249137 513.058824,93.2960408 C513.058824,93.6179949 512.773586,94.3333333 511.913739,94.3333333 C511.33913,94.3333333 511.136053,94.1278417 510.855466,93.7831128 L508.11367,90.3120131 L508.08215,90.3120131 L508.08215,93.1397222 C508.08215,93.9301143 507.611921,94.3333333 506.960318,94.3333333 C506.318017,94.3333333 505.843137,93.9301143 505.843137,93.1397222 L505.843137,85.531875 Z M508.08215,88.6577282 L509.55226,88.6577282 C510.285507,88.6577282 510.706129,88.1685857 510.706129,87.5531462 C510.706129,86.8797342 510.185777,86.484797 509.55226,86.484797 L508.08215,86.484797 L508.08215,88.6577282 Z" id="Combined-Shape-Copy"></path>
        </g>
    </g>
</svg>