<?xml version="1.0" encoding="UTF-8" standalone="no"?>
<svg width="999px" height="165px" viewBox="0 0 999 165" version="1.1" xmlns="http://www.w3.org/2000/svg" xmlns:xlink="http://www.w3.org/1999/xlink">
    <!-- Generator: Sketch 44 (41411) - http://www.bohemiancoding.com/sketch -->
    <title>AJS_Black_Long</title>
    <desc>Created with Sketch.</desc>
    <defs></defs>
    <g id="Page-1" stroke="none" stroke-width="1" fill="none" fill-rule="evenodd">
        <g id="AJS_Black_Long" fill="#000000">
            <path d="M125.358193,159.877116 L113.198228,129.267034 L52.6194885,129.267034 L41.1227935,159.877116 L-9.09494702e-13,159.877116 L65.6638155,3.96389543 L102.364803,3.96389543 L167.365348,159.877116 L125.358193,159.877116 Z M80.5874097,45.5847975 L60.689284,99.097386 L100.043355,99.097386 L80.5874097,45.5847975 Z M268.735245,106.584744 C268.735245,112.750834 268.035133,119.210451 266.634887,125.963788 C265.234642,132.717125 262.655281,138.919826 258.896727,144.572075 C255.138173,150.224325 249.905756,154.885525 243.199317,158.555817 C236.492878,162.226109 227.833594,164.061228 217.221208,164.061228 C203.955724,164.061228 192.90132,160.647907 184.057665,153.821165 C175.214009,146.994422 169.318327,138.222555 166.370441,127.505303 L199.755075,116.274266 C200.786835,120.384993 202.666084,123.688206 205.392878,126.184005 C208.119672,128.679803 211.47284,129.927684 215.452486,129.927684 C221.643044,129.927684 225.733174,127.798946 227.722997,123.541408 C229.712819,119.283869 230.707715,113.705109 230.707715,106.80496 L230.707715,3.96389543 L268.735245,3.96389543 L268.735245,106.584744 Z M508.507662,44.4837154 C505.264988,40.3729885 501.027467,37.1064777 495.794971,34.6840851 C490.562474,32.2616924 485.514296,31.0505143 480.650286,31.0505143 C478.144583,31.0505143 475.60207,31.2707285 473.022671,31.7111635 C470.443271,32.1515985 468.121846,32.995753 466.058327,34.2436522 C463.994807,35.4915515 462.262951,37.1064557 460.862705,39.0884133 C459.46246,41.070371 458.762347,43.6028344 458.762347,46.6858796 C458.762347,49.3284897 459.315068,51.5306319 460.420524,53.292372 C461.525981,55.0541121 463.147294,56.5956116 465.284511,57.9169167 C467.421727,59.2382218 469.96424,60.4493999 472.912126,61.5504875 C475.860011,62.651575 479.176332,63.7893484 482.861189,64.9638419 C488.167382,66.725582 493.694584,68.6708075 499.44296,70.7995768 C505.191336,72.9283463 510.423755,75.7544285 515.140371,79.277909 C519.856987,82.8013887 523.762876,87.168971 526.858156,92.3807851 C529.953435,97.5926 531.501052,104.088919 531.501052,111.869938 C531.501052,120.82545 529.842891,128.56965 526.526521,135.102769 C523.210149,141.635889 518.75154,147.031137 513.150558,151.288676 C507.549576,155.546214 501.138022,158.702618 493.915703,160.757981 C486.693384,162.813345 479.250085,163.841011 471.585584,163.841011 C460.38362,163.841011 449.550304,161.895786 439.085312,158.005276 C428.620319,154.114767 419.924188,148.572709 412.996657,141.378937 L437.75877,116.274266 C441.591021,120.97224 446.639198,124.899393 452.903455,128.055844 C459.167711,131.212296 465.395025,132.790497 471.585584,132.790497 C474.386075,132.790497 477.112828,132.496878 479.765925,131.909632 C482.419021,131.322385 484.740446,130.368123 486.730268,129.046818 C488.720091,127.725513 490.304555,125.9638 491.48371,123.761624 C492.662864,121.559449 493.252432,118.916879 493.252432,115.833833 C493.252432,112.8976 492.515472,110.401839 491.041529,108.346475 C489.567587,106.291112 487.46725,104.419291 484.740456,102.730957 C482.013662,101.042622 478.623645,99.5011232 474.570303,98.1064119 C470.516961,96.7117013 465.910959,95.2069038 460.75216,93.5919759 C455.740755,91.9770472 450.839969,90.068524 446.049656,87.8663491 C441.259342,85.6641735 436.984973,82.8380912 433.226419,79.3880173 C429.467865,75.9379426 426.446328,71.7538723 424.161717,66.8356814 C421.877106,61.9174903 420.734818,55.9350042 420.734818,48.8880438 C420.734818,40.2261548 422.503522,32.8122764 426.040985,26.646186 C429.578447,20.4800956 434.221297,15.4151687 439.969673,11.4512535 C445.718049,7.4873382 452.203299,4.58785112 459.425618,2.75270516 C466.647937,0.917559211 473.943843,0 481.313557,0 C490.157212,0 499.184975,1.61490422 508.397117,4.84476109 C517.609259,8.07461797 525.678973,12.8459258 532.606503,19.1588279 L508.507662,44.4837154 Z M684.97456,159.877116 L684.97456,99.9782519 C684.97456,96.8952061 684.753472,93.9223144 684.311289,91.0594867 C683.869107,88.1966591 683.05845,85.7376007 681.879296,83.6822367 C680.700142,81.6268733 679.115677,79.9752671 677.125855,78.7273674 C675.136032,77.4794684 672.519824,76.8555281 669.277149,76.8555281 C666.18187,76.8555281 663.491965,77.5161709 661.207354,78.8374757 C658.922743,80.1587812 657.006646,81.920495 655.459007,84.1226699 C653.911367,86.3248448 652.769078,88.8573083 652.032107,91.7201359 C651.295136,94.5829636 650.926656,97.5558553 650.926656,100.638901 L650.926656,159.877116 L614.667849,159.877116 L614.667849,97.3356544 C614.667849,91.0227528 613.415016,86.0312303 610.909314,82.3609383 C608.403611,78.6906463 604.424026,76.8555281 598.970438,76.8555281 C593.222062,76.8555281 588.763453,79.1310753 585.594475,83.6822367 C582.425499,88.2333988 580.841035,93.812159 580.841035,100.418684 L580.841035,159.877116 L544.361137,159.877116 L544.361137,50.2093422 L579.514493,50.2093422 L579.514493,65.4042747 L579.956673,65.4042747 C581.283222,63.0552879 582.941382,60.7797411 584.931205,58.5775659 C586.921027,56.3753907 589.316148,54.4301652 592.116639,52.7418309 C594.91713,51.0534967 598.049211,49.695509 601.512976,48.6678273 C604.976742,47.6401456 608.772087,47.1263124 612.899126,47.1263124 C620.858416,47.1263124 627.601603,48.7412166 633.128888,51.9710735 C638.656173,55.2009304 642.96739,59.8254288 646.06267,65.8447075 C649.747526,60.1190522 654.464072,55.5679585 660.212448,52.1912899 C665.960824,48.8146214 672.961947,47.1263124 681.216025,47.1263124 C688.733132,47.1263124 695.034143,48.4843 700.119245,51.2003161 C705.204346,53.9163321 709.294476,57.4397594 712.389756,61.7707039 C715.485035,66.1016483 717.732766,70.946361 719.133013,76.3049873 C720.533252,81.663613 721.233368,86.9120518 721.233368,92.0504609 L721.233368,159.877116 L684.97456,159.877116 Z M803.515802,112.090155 L798.872907,112.090155 C794.893259,112.090155 790.876829,112.273666 786.823486,112.640695 C782.770143,113.007724 779.159042,113.70507 775.990059,114.732751 C772.821085,115.760433 770.204879,117.26523 768.141356,119.247188 C766.077834,121.229146 765.046091,123.835013 765.046091,127.064871 C765.046091,129.120234 765.525115,130.881948 766.483178,132.350064 C767.44124,133.818181 768.657228,134.992657 770.13117,135.873527 C771.605111,136.754397 773.300123,137.378337 775.216248,137.745367 C777.132374,138.112396 778.974768,138.295908 780.743504,138.295908 C788.113219,138.295908 793.750959,136.277278 797.656912,132.239956 C801.562858,128.202635 803.515802,122.733982 803.515802,115.833833 L803.515802,112.090155 Z M736.967629,65.1840583 C743.452976,59.0179679 751.006813,54.3934695 759.629378,51.3104243 C768.251942,48.2273791 777.058622,46.6858796 786.049668,46.6858796 C795.335508,46.6858796 803.184132,47.823653 809.595784,50.099234 C816.007436,52.3748149 821.203007,55.8982424 825.182648,60.6696218 C829.162295,65.4410013 832.073288,71.4601899 833.915718,78.7273674 C835.758149,85.9945456 836.679343,94.6196026 836.679343,104.602796 L836.679343,159.877116 L803.515802,159.877116 L803.515802,148.205646 L802.852533,148.205646 C800.05204,152.756808 795.814518,156.280235 790.139843,158.776034 C784.465162,161.271833 778.311543,162.519713 771.678799,162.519713 C767.256974,162.519713 762.687817,161.932475 757.971206,160.757981 C753.254587,159.583488 748.94337,157.674965 745.037424,155.032355 C741.131471,152.389745 737.925699,148.866317 735.419993,144.461967 C732.914293,140.057617 731.661458,134.625666 731.661458,128.165952 C731.661458,120.238122 733.835494,113.85191 738.183624,109.007125 C742.531754,104.162339 748.132654,100.418697 754.986483,97.7760877 C761.840319,95.1334773 769.467858,93.3717636 777.86933,92.4908934 C786.270803,91.6100233 794.451061,91.1695951 802.41035,91.1695951 L802.41035,89.4078634 C802.41035,83.9758319 800.494253,79.9752736 796.662002,77.406069 C792.829751,74.8368652 788.113204,73.5522822 782.512225,73.5522822 C777.353423,73.5522822 772.378944,74.6533532 767.58863,76.8555281 C762.798317,79.0577031 758.708191,81.7002741 755.318117,84.7833191 L736.967629,65.1840583 Z M921.504624,49.3091611 C920.698069,49.2889061 906.762319,48.9905253 901.753589,52.4115063 C896.594786,55.9349866 890.772787,60.4860803 887.972294,66.0649239 L887.53011,66.0649239 L887.53011,50.2093422 L852.597848,50.2093422 L852.597848,159.877116 L888.856654,159.877116 L888.856654,103.501714 C888.856654,101.299539 889.298831,98.7303736 890.183199,95.7941394 C891.067559,92.8579059 892.504632,90.1419313 894.494459,87.6461325 C896.48428,85.1503337 899.137333,83.0215968 902.453705,81.2598565 C905.770077,79.4981163 909.86021,78.6172598 914.724218,78.6172598 C916.19816,78.6172598 917.856331,78.2135298 919.698747,78.2135298 C921.541171,78.2135298 926.147218,78.2135298 926.147218,78.2135298 L937.680761,78.2135298 L937.680761,123.541408 C937.680761,129.413875 938.344022,134.735718 939.670574,139.507098 C940.997118,144.278477 943.171154,148.389142 946.192732,151.839217 C949.214317,155.289291 953.230748,157.931862 958.242154,159.767008 C963.253559,161.602154 969.444026,162.519713 976.813741,162.519713 C980.645991,162.519713 984.478185,162.189392 988.310436,161.528739 C992.142686,160.868086 995.311618,160.097337 997.817318,159.216466 L997.375134,132.790497 C996.048589,133.377744 994.390425,133.818172 992.400604,134.111796 C990.410784,134.405419 988.531535,134.552228 986.762806,134.552228 C981.604004,134.552228 978.02975,133.267645 976.039922,130.698441 C974.050102,128.129237 973.055206,124.275488 973.055206,119.13708 L973.055206,78.2135298 L998.92277,78.2135298 L998.92277,49.2917738 L973.055206,49.2917738 L973.055206,21.3609921 L937.459669,21.3609921 L937.459669,49.2917738 L921.504624,49.3091611 Z" id="AJ&amp;Smart" fill-rule="nonzero"></path>
            <path d="M359.971837,151.921798 C356.630901,154.833563 352.37649,157.251332 347.208479,159.175176 C342.040468,161.099021 335.854607,162.060929 328.650713,162.060929 C323.326095,162.060929 318.053758,161.436989 312.833545,160.189089 C307.613332,158.94119 302.941311,156.965379 298.817342,154.261597 C294.693374,151.557815 291.326386,148.022154 288.71628,143.654507 C286.106173,139.28686 284.801139,134.035362 284.801139,127.899857 C284.801139,124.364143 285.375354,121.062459 286.523801,117.994707 C287.672248,114.926954 289.212188,112.171219 291.143667,109.727415 C293.075146,107.283613 295.372005,105.099822 298.034314,103.175978 C300.696623,101.252133 303.541597,99.6662842 306.569321,98.4183852 C303.541597,95.7146035 300.98373,92.464915 298.895645,88.6692209 C296.807559,84.8735276 295.763532,80.5839386 295.763532,75.8003247 C295.763532,70.3927611 296.990264,65.8171992 299.443765,62.0735014 C301.897265,58.3298037 305.055446,55.2880949 308.918405,52.9482838 C312.781363,50.6084727 317.061873,48.9186345 321.760066,47.8787185 C326.458258,46.8388025 331.051976,46.3188522 335.54136,46.3188522 C340.135148,46.3188522 344.702766,46.8648 349.244352,47.9567118 C353.785938,49.0486237 357.883744,50.7904569 361.537893,53.1822638 C365.192043,55.5740707 368.16752,58.6677745 370.464413,62.463468 C372.761308,66.2591616 373.909737,70.860721 373.909737,76.2682847 C373.909737,79.700007 373.335522,82.7937111 372.187076,85.5494883 C371.038628,88.3052663 369.472588,90.8010272 367.488906,93.0368468 C365.505226,95.2726663 363.234467,97.3004722 360.676563,99.1203252 C358.118658,100.940178 355.378087,102.630017 352.454767,104.18989 L360.128443,111.365275 L368.741752,99.0423319 L407.736551,99.0423319 L381.113596,131.331563 L411.181875,159.877116 L367.645512,159.877116 L359.971837,151.921798 Z M335.854571,70.184806 C333.453273,70.184806 331.652327,70.9127363 330.451678,72.3686189 C329.251029,73.8245015 328.650713,75.4883421 328.650713,77.3601907 C328.650713,79.1280481 329.172726,80.7918887 330.216769,82.3517632 C331.260812,83.911637 332.670249,85.3674975 334.445121,86.7193883 C336.846419,85.7834641 338.83007,84.5095858 340.396134,82.8977158 C341.962199,81.2858465 342.745219,79.4400228 342.745219,77.3601907 C342.745219,75.2803585 342.171004,73.564523 341.022557,72.2126322 C339.87411,70.8607413 338.151465,70.184806 335.854571,70.184806 Z M326.145023,117.292767 C324.683363,117.812725 323.300027,118.748636 321.994974,120.100526 C320.689921,121.452417 320.037404,123.376233 320.037404,125.872032 C320.037404,127.431905 320.350612,128.731781 320.977038,129.771697 C321.603463,130.811614 322.438685,131.695529 323.482727,132.42347 C324.52677,133.151411 325.6752,133.671361 326.928051,133.983336 C328.180902,134.295311 329.381533,134.451296 330.529981,134.451296 C332.513662,134.451296 334.366809,134.139326 336.08948,133.515376 C337.81215,132.891426 339.091083,132.111501 339.926318,131.175577 L326.145023,117.292767 Z" id="Combined-Shape"></path>
        </g>
    </g>
</svg>