<?xml version="1.0" encoding="utf-8"?>
<!-- Generator: Adobe Illustrator 21.1.0, SVG Export Plug-In . SVG Version: 6.00 Build 0)  -->
<svg version="1.1" id="Layer_1" xmlns="http://www.w3.org/2000/svg" xmlns:xlink="http://www.w3.org/1999/xlink" x="0px" y="0px"
	 viewBox="0 0 332 292" style="enable-background:new 0 0 332 292;" xml:space="preserve">
<style type="text/css">
	.st0{fill:#846BAD;}
</style>
<g id="tv3">
	<path class="st0" d="M124.9,175.2H194c-0.3,13.4,2.9,23.6,9.8,30.2c6.9,8.4,17.5,11.3,30.2,11.3c20.7,0,33.8-7.6,33.8-28.4
		c0-22.2-17.1-26.2-33.8-26.2h-21.5v-46.2H234c15.3,0,34.6-3.2,34.6-22.9c0-16-18.2-22.2-33.1-22.2c-19.6,0-35.6,10.6-34.9,31.6
		h-68.4c0.4-29.8,12.4-51.6,31.6-66.2c8.3-6.1,18-10.8,28.5-14.3H20.9v246.7h170.5C123.5,250.3,123.4,191.1,124.9,175.2"/>
</g>
</svg>
