<?xml version="1.0" encoding="UTF-8" standalone="no"?>
<svg
   xmlns:dc="http://purl.org/dc/elements/1.1/"
   xmlns:cc="http://creativecommons.org/ns#"
   xmlns:rdf="http://www.w3.org/1999/02/22-rdf-syntax-ns#"
   xmlns:svg="http://www.w3.org/2000/svg"
   xmlns="http://www.w3.org/2000/svg"
   height="526.70001"
   width="684.90002"
   xml:space="preserve"
   viewBox="0 0 684.90002 526.70001"
   y="0px"
   x="0px"
   id="Layer_24_copy_3"
   version="1.1"><metadata
     id="metadata4238"><rdf:RDF><cc:Work
         rdf:about=""><dc:format>image/svg+xml</dc:format><dc:type
           rdf:resource="http://purl.org/dc/dcmitype/StillImage" /><dc:title></dc:title></cc:Work></rdf:RDF></metadata><defs
     id="defs4236" /><style
     id="style4216"
     type="text/css">
  .st0{fill:#f22c60;}
</style><g
     transform="translate(-384.6,-140.7)"
     clip-path="none"
     id="g4218"><path
       style="fill:#f22c60"
       id="path4220"
       d="m 533.9,353.2 -65.6,0 -83.7,-206.2 68,0 48.7,127.1 48.3,-127.1 68,0 -83.7,206.2 z"
       class="st0" /><path
       style="fill:#f22c60"
       id="path4222"
       d="m 1069.5,353.2 -76.4,0 -39.9,-59.5 -40.3,59.5 -76,0 68.6,-99.6 -68.7,-106.6 76,0 40.3,64 39.9,-64 76.4,0 -69,106.6 69.1,99.6 z"
       class="st0" /><g
       id="g4224"><path
         style="fill:#f22c60"
         id="path4226"
         d="m 727.8,359.7 c -60.4,0 -109.5,-49.1 -109.5,-109.5 0,-60.4 49.1,-109.5 109.5,-109.5 60.4,0 109.5,49.1 109.5,109.5 0,60.4 -49.1,109.5 -109.5,109.5 z m 0,-157.9 c -26.6,0 -48.3,21.7 -48.3,48.3 0,26.6 21.7,48.3 48.3,48.3 26.6,0 48.3,-21.7 48.3,-48.3 0,-26.6 -21.7,-48.3 -48.3,-48.3 z"
         class="st0" /></g><path
       style="fill:#f22c60"
       id="path4228"
       d="m 643.6,569 c 0,30.9 -10.6,55 -31.8,72.4 -21.2,17.4 -49,26 -83.4,26 -48.9,0 -83.4,-16.5 -103.3,-49.6 l 54.5,-29.5 c 7.9,9.6 15.4,16.2 22.3,19.9 7,3.7 15.6,5.5 26,5.5 15.3,0 27.7,-4.4 37.1,-13.1 9.4,-8.7 14.1,-21 14.1,-36.9 l 0,-5.7 c -15.3,13.1 -35.9,19.7 -61.9,19.7 -27.3,0 -50.7,-9.6 -70.1,-28.9 -19.4,-19.3 -29.1,-43.3 -29.1,-72 0,-28.2 9.7,-51.7 29.1,-70.7 19.4,-19 42.8,-28.5 70.1,-28.5 26,0 46.6,6.6 61.9,19.7 l 0,-13.5 64.4,0 0,185.2 z m -78.3,-58.4 c 9.3,-8.9 13.9,-20.2 13.9,-33.8 0,-13.4 -4.6,-24.5 -13.9,-33.4 -9.3,-8.9 -20.6,-13.3 -34,-13.3 -14.5,0 -26.3,4.4 -35.5,13.1 -9.2,8.7 -13.7,20 -13.7,33.6 0,13.6 4.7,24.9 13.9,33.8 9.3,8.9 21,13.3 35.3,13.3 13.4,0 24.7,-4.4 34,-13.3 z"
       class="st0" /><path
       style="fill:#f22c60"
       id="path4230"
       d="m 1023.3,569 c 0,30.9 -10.6,55 -31.8,72.4 -21.2,17.4 -49,26 -83.4,26 -48.9,0 -83.4,-16.5 -103.3,-49.6 l 54.5,-29.5 c 7.9,9.6 15.4,16.2 22.3,19.9 7,3.7 15.6,5.5 26,5.5 15.3,0 27.7,-4.4 37.1,-13.1 9.4,-8.7 14.1,-21 14.1,-36.9 l 0,-5.7 c -15.3,13.1 -35.9,19.7 -61.9,19.7 -27.3,0 -50.7,-9.6 -70.1,-28.9 -19.4,-19.3 -29.1,-43.3 -29.1,-72 0,-28.2 9.7,-51.7 29.1,-70.7 19.4,-19 42.8,-28.5 70.1,-28.5 26,0 46.6,6.6 61.9,19.7 l 0,-13.5 64.4,0 0,185.2 z m -78.4,-58.4 c 9.3,-8.9 13.9,-20.2 13.9,-33.8 0,-13.4 -4.6,-24.5 -13.9,-33.4 -9.3,-8.9 -20.6,-13.3 -34,-13.3 -14.5,0 -26.3,4.4 -35.5,13.1 -9.2,8.7 -13.7,20 -13.7,33.6 0,13.6 4.7,24.9 13.9,33.8 9.3,8.9 21,13.3 35.3,13.3 13.4,0 24.7,-4.4 34,-13.3 z"
       class="st0" /><path
       style="fill:#f22c60"
       id="path4232"
       d="m 727.8,383.4 c -11.3,0 -22.3,-1.4 -32.8,-4.1 l 0,210.2 65.6,0 0,-210.1 c -10.5,2.6 -21.5,4 -32.8,4 z"
       class="st0" /></g></svg>