<svg xmlns="http://www.w3.org/2000/svg" viewBox="0 0 1128 440" width="500" height="195">
	<defs>
		<clipPath clipPathUnits="userSpaceOnUse" id="cp1">
			<path d="M0 0L1128 0L1128 440L0 440Z" />
		</clipPath>
	</defs>
	<style>
		tspan { white-space:pre }
		.shp0 { fill: #00203b } 
	</style>
	<g id="Page 1" clip-path="url(#cp1)">
		<path id="Path 1" fill-rule="evenodd" class="shp0" d="M1018.9 158C1030.85 158 1040.55 167.73 1040.55 179.65C1040.55 191.6 1030.85 201.29 1018.9 201.29C1006.96 201.29 997.25 191.6 997.25 179.65C997.25 167.73 1006.96 158 1018.9 158ZM1018.9 196.05C1027.94 196.05 1035.3 188.68 1035.3 179.65C1035.3 170.62 1027.94 163.3 1018.9 163.3C1009.87 163.3 1002.5 170.62 1002.5 179.65C1002.5 188.68 1009.87 196.05 1018.9 196.05ZM1011.69 171.06C1011.69 169.63 1012.77 168.82 1013.92 168.82L1019.3 168.82C1023.28 168.82 1025.87 171.26 1025.87 174.94C1025.87 177.84 1024.09 179.94 1021.29 180.46L1025.18 184.66C1025.79 185.32 1026.12 185.85 1026.12 186.59C1026.12 187.24 1025.55 188.67 1023.83 188.67C1022.68 188.67 1022.27 188.26 1021.71 187.57L1016.23 180.62L1016.16 180.62L1016.16 186.28C1016.16 187.86 1015.22 188.67 1013.92 188.67C1012.64 188.67 1011.69 187.86 1011.69 186.28L1011.69 171.06ZM1016.16 177.32L1019.1 177.32C1020.57 177.32 1021.41 176.34 1021.41 175.11C1021.41 173.76 1020.37 172.97 1019.1 172.97L1016.16 172.97L1016.16 177.32ZM730.26 158C751.24 158 768.31 175.05 768.31 196.01L768.31 270.3L768.22 270.3C767.95 276.02 763.27 280.6 757.47 280.6C751.65 280.6 746.97 276.02 746.71 270.3L746.67 270.3L746.67 270.03C746.67 269.94 746.65 269.88 746.65 269.79C746.65 269.71 746.67 269.64 746.67 269.57L746.67 196.01C746.67 186.96 739.33 179.61 730.26 179.61L729.66 179.61C720.82 179.61 713.63 186.6 713.29 195.36C713.3 195.59 713.32 195.83 713.32 196.08L713.32 270.35L713.24 270.35C712.97 276.09 708.28 280.67 702.48 280.67C698.83 280.67 695.62 278.85 693.67 276.09C692.5 274.46 691.77 272.45 691.67 270.3L691.61 270.3L691.61 196.01C691.61 195.8 691.65 195.59 691.65 195.37C691.27 186.64 684.1 179.67 675.26 179.67L674.67 179.67C665.6 179.67 658.26 187.01 658.26 196.08L658.26 270.35L658.19 270.35C657.93 276.09 653.24 280.67 647.44 280.67C641.63 280.67 636.94 276.09 636.68 270.35L636.63 270.35L636.63 196.08C636.63 175.11 653.69 158.07 674.67 158.07L675.26 158.07C685.91 158.07 695.52 162.46 702.44 169.51C709.36 162.43 718.99 158 729.66 158L730.26 158ZM613.13 168.31L613.18 168.31L613.18 242.62C613.18 263.58 595.92 280.67 574.69 280.67L574.09 280.67C552.88 280.67 535.61 263.58 535.61 242.62L535.61 168.31L535.69 168.31C535.96 162.56 540.71 158 546.59 158C552.44 158 557.19 162.56 557.47 168.31L557.5 168.31L557.5 168.57C557.5 168.64 557.51 168.73 557.51 168.81C557.51 168.88 557.5 168.96 557.5 169.03L557.5 242.62C557.5 251.68 564.93 259.02 574.09 259.02L574.69 259.02C583.86 259.02 591.3 251.68 591.3 242.62L591.3 168.31L591.36 168.31C591.63 162.56 596.38 158 602.24 158C608.11 158 612.86 162.56 613.13 168.31ZM869.12 168.31L869.18 168.31L869.18 242.62C869.18 263.58 851.91 280.67 830.7 280.67L830.08 280.67C808.86 280.67 791.61 263.58 791.61 242.62L791.61 168.31L791.69 168.31C791.96 162.56 796.71 158 802.57 158C808.43 158 813.19 162.56 813.46 168.31L813.48 168.31L813.48 168.57C813.48 168.64 813.5 168.73 813.5 168.81C813.5 168.88 813.48 168.96 813.48 169.03L813.48 242.62C813.48 251.68 820.9 259.02 830.08 259.02L830.7 259.02C839.85 259.02 847.29 251.68 847.29 242.62L847.29 168.31L847.36 168.31C847.63 162.56 852.36 158 858.24 158C864.11 158 868.85 162.56 869.12 168.31ZM930.4 158C951.95 158 968.39 174.31 968.39 195.75L968.39 240.7C968.39 262.11 951.95 280.63 930.4 280.63L929.78 280.63C923.6 280.63 916.71 278.9 912.59 275.25L912.59 331.22C912.59 337.16 907.73 342 901.73 342C895.74 342 890.88 337.16 890.88 331.22L890.88 245.69C890.75 244.41 890.88 243.1 890.88 241.81L890.88 196.83C890.88 175.4 908.22 158 929.78 158L930.4 158ZM947.26 241.81L947.26 196.83C947.26 187.58 939.71 180.09 930.4 180.09L929.78 180.09C920.47 180.09 912.9 187.58 912.9 196.83L912.9 241.81C912.9 253.54 920.47 258.55 929.78 258.55L930.4 258.55C939.71 258.55 947.26 253.54 947.26 241.81ZM451.33 247.62C454.33 247.62 457.41 249.31 460 252.31C464.85 258.27 472.21 259.17 476.14 259.17C488.99 259.17 495.71 251.87 495.71 244.68C495.71 234.83 485.55 230.85 473.78 226.27C459.09 220.51 440.78 213.38 440.78 191.05C440.78 169.37 459.26 158 477.52 158C490.78 158 504.75 165.29 511.52 175.76C512.67 177.47 513.27 179.57 513.27 181.84C513.27 187.78 508.08 192.8 501.95 192.8C498.72 192.8 495.78 191.05 493.24 187.65C489.4 182.29 483.97 179.47 477.52 179.47C467.24 179.47 462.64 185.29 462.64 191.05C462.64 198.26 470.14 201.57 482.37 206.39C498.05 212.58 517.57 220.26 517.57 244.68C517.57 268.05 496.23 280.67 476.14 280.67C464.4 280.67 448.96 275.32 442.14 265.05C440.73 263.01 440 260.84 440 258.55C440 252.84 445.4 247.62 451.33 247.62ZM100 80L340 80C351.05 80 360 88.95 360 100L360 340C360 351.05 351.05 360 340 360L100 360C88.95 360 80 351.05 80 340L80 100C80 88.95 88.95 80 100 80ZM252.93 201.11L166.1 287.94C164.6 289.55 164.63 292.06 166.2 293.63C166.33 293.76 166.47 293.88 166.61 293.99C192.33 316.35 231.35 315.29 255.82 290.82C280.42 266.22 281.36 226.92 258.63 201.2C257.05 199.64 254.53 199.61 252.93 201.11ZM187.07 238.89L273.9 152.06L273.9 152.06C275.4 150.45 275.36 147.94 273.8 146.37C273.67 146.24 273.53 146.12 273.39 146.02C247.67 123.65 208.65 124.71 184.18 149.18C159.58 173.78 158.64 213.08 181.37 238.8L181.38 238.79C182.95 240.36 185.47 240.39 187.07 238.89Z" />
	</g>
</svg>