<?xml version="1.0" encoding="UTF-8"?>
<svg width="380px" height="333px" viewBox="0 0 380 333" version="1.1" xmlns="http://www.w3.org/2000/svg" xmlns:xlink="http://www.w3.org/1999/xlink">
    <!-- Generator: Sketch 54 (76480) - https://sketchapp.com -->
    <title>Desktop</title>
    <desc>Created with Sketch.</desc>
    <g id="Desktop" stroke="none" stroke-width="1" fill="none" fill-rule="evenodd">
        <g id="support" transform="translate(33.000000, 47.000000)" fill-rule="nonzero">
            <path d="M0.755400409,117.961329 C9.05420232,50.6828038 84.6462896,-1.96691542 146.886037,0.0564156426 C251.399113,3.45407379 342.518032,161.804052 276.780217,226.527343 C237.992284,264.716042 139.50341,275.324402 70.1306726,237.03375 C21.7824533,210.347103 -4.92856294,164.046437 0.755400409,117.961329 Z" id="Path" fill="#856CB0"></path>
            <path d="M216.194681,153.934633 C217.262331,154.911857 217.269409,156.502798 216.209925,157.488061 C215.677733,157.983456 214.977309,158.231405 214.276885,158.231405 C213.58381,158.231405 212.890464,157.988732 212.359633,157.502632 L205.715266,151.42073 C204.647615,150.443505 204.640265,148.852564 205.699477,147.867301 C206.758416,146.882038 208.482119,146.875255 209.550041,147.85273 L216.194681,153.934633 Z M203.017753,141.457723 C204.19714,142.542127 204.19714,144.299877 203.017451,145.384003 C202.427003,145.926622 201.652021,146.198347 200.877642,146.198347 C200.105076,146.198347 199.332208,145.927732 198.74327,145.386224 C197.563581,144.302097 197.560863,142.546568 198.740551,141.462441 L198.745686,141.457723 C199.925978,140.373597 201.838065,140.373597 203.017753,141.457723 Z M180.739873,153.35877 C173.691258,159.862789 164.402024,163.720216 154.480146,164.284935 L152.802488,165.838454 C156.099341,167.543206 159.875376,168.31527 163.695518,168.026288 L164.523125,167.963675 C165.287049,167.905879 166.040272,168.161387 166.582353,168.661326 L180.900384,181.874061 C181.919819,182.814938 181.919819,184.34004 180.900384,185.280676 C180.390666,185.750994 179.722787,185.986273 179.054647,185.986273 C178.386768,185.986273 177.718628,185.750753 177.20891,185.280676 L163.742236,172.854694 C158.515868,173.173538 153.375888,171.943438 149.005313,169.356327 L131.798882,185.291272 C131.289164,185.763757 130.619197,186 129.949752,186 C129.283178,186 128.616604,185.765684 128.107408,185.297533 C127.085885,184.358583 127.083014,182.833481 128.100622,181.891159 L151.493873,160.226184 C151.960527,159.793675 152.587952,159.541056 153.248524,159.518901 C162.235267,159.217878 170.686455,155.821137 177.045268,149.953599 L202.368817,126.587726 C204.16888,124.926802 204.16888,122.22458 202.368817,120.563897 C200.569798,118.903937 197.643032,118.903696 195.842969,120.56173 L192.632765,123.523795 C192.123047,123.994113 191.454907,124.229392 190.787028,124.229392 C190.119149,124.229392 189.451009,123.993872 188.941292,123.523795 C187.921856,122.582918 187.921856,121.057816 188.941292,120.11718 L192.149146,117.157282 L195.656098,113.921407 C196.528334,113.117074 197.008299,112.047359 197.008299,110.909734 C197.008299,109.771868 196.528334,108.702635 195.656359,107.898061 C194.784384,107.093246 193.625318,106.650381 192.39213,106.650381 C191.159203,106.650381 190.000137,107.093246 189.128162,107.898061 L182.413355,114.093833 C181.903638,114.564151 181.235498,114.799431 180.567619,114.799431 C179.89974,114.799431 179.2316,114.56391 178.721882,114.093833 C177.702446,113.152956 177.702446,111.627854 178.721882,110.687218 L185.436689,104.491446 L187.991802,102.133835 C189.791604,100.472911 189.791604,97.7709302 187.991802,96.1100066 C186.191739,94.4493239 183.263146,94.4495647 181.463605,96.1102475 L172.193685,104.663631 C171.683967,105.133949 171.015827,105.369228 170.347948,105.369228 C169.680069,105.369228 169.011929,105.133708 168.502211,104.663631 C167.482776,103.722754 167.482776,102.197652 168.502211,101.257015 L177.772131,92.7036323 L180.326984,90.3462623 C181.19922,89.5419293 181.679184,88.4722145 181.679184,87.334589 C181.679184,86.1967227 181.19922,85.1274896 180.327245,84.3229158 C179.45527,83.5181011 178.296204,83.0752364 177.063016,83.0752364 C175.829828,83.0752364 174.671022,83.5181011 173.799047,84.3229158 L156.470733,100.311804 C159.638917,103.873747 159.422032,109.158022 155.818253,112.483241 C153.900743,114.252532 151.381647,115.137299 148.86255,115.137299 C148.731532,115.137299 148.600775,115.133446 148.470018,115.128629 C148.475238,115.250483 148.479675,115.372337 148.479675,115.494914 C148.479675,117.919231 147.456324,120.198576 145.598582,121.912961 C143.681072,123.682253 141.161715,124.56702 138.642879,124.56702 C138.511861,124.56702 138.381104,124.563166 138.250347,124.55835 C138.255567,124.680204 138.260004,124.802058 138.260004,124.924635 C138.260004,127.348952 137.236654,129.628297 135.378911,131.342682 C133.461663,133.111733 130.941783,133.9965 128.423209,133.99674 C128.290886,133.99674 128.158563,133.993128 128.02624,133.988071 C128.132463,136.432858 127.177754,138.910155 125.159241,140.772403 C123.301237,142.486788 120.830946,143.431037 118.203538,143.431037 C116.470289,143.431037 114.807247,143.018274 113.341776,142.246693 L87.4560499,166.13153 C86.9463322,166.601848 86.2781922,166.837127 85.6103132,166.837127 C84.9424343,166.837127 84.2742943,166.601607 83.7645766,166.13153 C82.7451411,165.190653 82.7451411,163.665551 83.7645766,162.724915 L109.402882,139.068855 L104.195044,134.263808 C100.359764,130.724743 100.359764,124.966296 104.195044,121.427472 C105.520362,120.204837 107.157827,119.376423 108.940665,119.000505 C107.257004,115.643739 107.912878,111.525747 110.908285,108.761876 C112.364099,107.418351 114.196786,106.550442 116.185547,106.236656 C115.862699,105.330938 115.692271,104.373926 115.692271,103.392351 C115.692271,100.968034 116.715622,98.6886886 118.573364,96.9743034 C120.065195,95.598027 121.921633,94.7594978 123.857934,94.4538994 C122.734362,91.3015883 123.525952,87.689796 126.238182,85.1872126 C128.096186,83.4730681 130.566477,82.5288197 133.194146,82.5288197 C134.511112,82.5288197 135.788669,82.7665073 136.969398,83.2190049 C136.526233,82.0618731 136.294472,80.8312918 136.294472,79.5672367 L136.294472,76.4086643 C136.294472,75.078625 137.463456,74 138.904916,74 L159.403241,74 C164.207846,74 168.84124,75.8612844 172.114604,79.107033 L172.366461,79.3567615 C173.79174,78.6396047 175.396059,78.2576669 177.064582,78.2576669 C179.69199,78.2576669 182.162281,79.2019154 184.020284,80.9160598 C185.878026,82.6302042 186.901377,84.9095491 186.901377,87.3341074 C186.901377,88.3176092 186.730427,89.2760659 186.406275,90.1837099 C188.34101,90.4900308 190.194837,91.3280783 191.685363,92.7031506 C194.396289,95.2042891 195.188661,98.8134325 194.0677,101.96478 C196.058809,102.277603 197.893323,103.145994 199.350442,104.490723 C201.208185,106.204868 202.231535,108.484212 202.231535,110.908771 C202.231535,112.252777 201.915735,113.55151 201.319106,114.734891 C203.05888,115.102621 204.7107,115.908399 206.063161,117.156319 C209.898702,120.695384 209.898702,126.453831 206.063422,129.992896 L180.739873,153.35877 Z M121.467767,137.36627 C123.267569,135.705346 123.267569,133.003124 121.468028,131.342441 L114.414454,124.834328 C113.54274,124.029513 112.383413,123.586648 111.150486,123.586648 C109.917559,123.586648 108.758231,124.029513 107.886256,124.834328 C106.086454,126.495251 106.086454,129.197473 107.886256,130.858156 L114.939831,137.36627 C115.811545,138.171084 116.970611,138.613949 118.203799,138.613949 C119.436465,138.613949 120.595792,138.171084 121.467767,137.36627 Z M131.68796,127.936067 C132.559674,127.131493 133.039638,126.061778 133.039638,124.924153 C133.039638,123.786528 132.559674,122.717054 131.687438,121.912239 C131.687177,121.912239 131.687177,121.912239 131.687177,121.912239 L121.126651,112.168009 C120.254937,111.363195 119.09587,110.92033 117.862682,110.92033 C116.630016,110.92033 115.470689,111.363195 114.598714,112.168009 C112.798912,113.828692 112.798912,116.530914 114.598714,118.191597 L118.105927,121.427713 L125.159502,127.936067 C126.958782,129.59675 129.887897,129.59675 131.68796,127.936067 Z M141.907631,118.506105 C142.779605,117.701772 143.25957,116.632058 143.259048,115.494191 C143.259048,114.356325 142.779083,113.287092 141.90737,112.482518 L141.907109,112.482518 L134.767407,105.894694 L128.789642,100.378992 C127.890002,99.5500956 126.709012,99.1354065 125.527762,99.1354065 C124.345989,99.1354065 123.163694,99.5505772 122.263793,100.380919 C121.391558,101.185252 120.911593,102.254966 120.911593,103.392592 C120.911593,104.530458 121.391558,105.599691 122.263532,106.404265 L135.379172,118.506105 C137.178713,120.166788 140.107567,120.166547 141.907631,118.506105 Z M152.127562,109.076144 C152.999798,108.271811 153.479502,107.201855 153.479241,106.063748 C153.479241,104.926123 152.999276,103.856649 152.12704,103.052075 L136.456809,88.5931053 C135.557169,87.7625231 134.374874,87.3473524 133.192841,87.3473524 C132.010807,87.3473524 130.828513,87.7625231 129.928612,88.5931053 C128.12881,90.2540289 128.12881,92.9560098 129.928612,94.6169334 L132.479288,96.9704503 C132.480854,96.9718952 132.48242,96.9730993 132.483725,96.9743034 L145.599365,109.076144 C147.399167,110.736826 150.32776,110.736826 152.127562,109.076144 Z M152.813972,96.8734005 L168.398597,82.4939011 L168.292374,82.3886635 C166.00295,80.1187105 162.762732,78.8170878 159.402458,78.8170878 L141.514576,78.8170878 L141.514576,79.5669959 C141.514576,81.2069682 142.208033,82.7467602 143.467581,83.9036512 C144.719299,85.0530768 146.37947,85.6852247 148.144561,85.6852247 C148.155522,85.6852247 148.165962,85.6852247 148.176924,85.6852247 L155.340637,85.6541592 C155.344813,85.6541592 155.348989,85.6541592 155.353164,85.6541592 C156.789143,85.6541592 157.956561,86.725078 157.963347,88.051505 C157.970133,89.3817851 156.80663,90.4652265 155.36517,90.4714878 L148.201457,90.5025533 C148.182143,90.5025533 148.16283,90.5025533 148.143778,90.5025533 C147.292943,90.5027941 146.456985,90.4177853 145.643995,90.2576411 L152.813972,96.8734005 Z" id="Combined-Shape" fill="#FFFFFF"></path>
        </g>
    </g>
</svg>