<svg id="Layer_1" xmlns="http://www.w3.org/2000/svg" width="500" height="232" viewBox="0 128.5 500 232">
  <style>
    .st10{fill:#36bcee}
  </style>
  <path class="st10" d="M152.4 294.7H6.4a4 4 0 0 0-4 4 4 4 0 0 0 4 4h149.3a28 28 0 0 1-3.3-8z"/>
  <linearGradient id="SVGID_1_" gradientUnits="userSpaceOnUse" x1="456.2" y1="-34.3" x2="876.6" y2="-34.3" gradientTransform="matrix(.5939 0 0 -.5939 -55.8 225)">
    <stop offset=".3" stop-color="#36bcee"/>
    <stop offset=".4" stop-color="#32b9ec"/>
    <stop offset=".5" stop-color="#23b0e4"/>
    <stop offset=".5" stop-color="#00a2d8"/>
    <stop offset=".6" stop-color="#008ec7"/>
    <stop offset=".7" stop-color="#0076b2"/>
    <stop offset=".7" stop-color="#005d9a"/>
    <stop offset=".7" stop-color="#005795"/>
  </linearGradient>
  <path d="M460.7 294.7h-4c-10.3 0-31.8 0-40.5 30.9l-1 3.6-14.8-192.6a4 4 0 0 0-4-3.7 4 4 0 0 0-4 3.7l-16 174.5c-15.1-15-25.4-16.2-61.1-16.2h-92.8c-2.3 3-4.8 5.6-7.4 8h100.2c38.3 0 44 .8 61.4 20.2 1 1.1 2.7 1.5 4.2 1.1a4.1 4.1 0 0 0 2.8-3.4l12.5-136.2 13 169.4a4 4 0 0 0 3.7 3.7h.4c1.9 0 3.4-1.2 3.8-3l7-26.8c7-24.9 22.4-24.9 32.7-24.9h4a4 4 0 0 0 4-4c-.1-2.6-2-4.3-4-4.3z" fill="url(#SVGID_1_)"/>
  <linearGradient id="SVGID_2_" gradientUnits="userSpaceOnUse" x1="227.5" y1="-155.1" x2="227.5" y2="-222.2" gradientTransform="matrix(.5939 0 0 -.5939 -55.8 225)">
    <stop offset=".4" stop-color="#e00069"/>
    <stop offset=".5" stop-color="#de0068"/>
    <stop offset=".6" stop-color="#d60065"/>
    <stop offset=".7" stop-color="#c80360"/>
    <stop offset=".8" stop-color="#b50d59"/>
    <stop offset=".9" stop-color="#9e124f"/>
    <stop offset="1" stop-color="#811341"/>
    <stop offset="1" stop-color="#7f1340"/>
  </linearGradient>
  <path d="M90.9 357c-3.3 0-5.4-2-5.4-5.5v-13.2c0-5.2-2.9-7.3-6.5-7.3-2.5 0-5.8 2-5.8 7.6v18.5h-2.6c-3.8 0-5.5-2.2-5.5-5.5v-34.3h2.5c3.8 0 5.6 2 5.6 5.1v6c1.2-2 4-4.4 7-4.4 8.3 0 13.3 5 13.3 14.2v19H91v-.3z" fill="url(#SVGID_2_)"/>
  <linearGradient id="SVGID_3_" gradientUnits="userSpaceOnUse" x1="286.1" y1="-166.3" x2="286.1" y2="-223.4" gradientTransform="matrix(.5939 0 0 -.5939 -55.8 225)">
    <stop offset=".4" stop-color="#e00069"/>
    <stop offset=".5" stop-color="#de0068"/>
    <stop offset=".6" stop-color="#d60065"/>
    <stop offset=".7" stop-color="#c80360"/>
    <stop offset=".8" stop-color="#b50d59"/>
    <stop offset=".9" stop-color="#9e124f"/>
    <stop offset="1" stop-color="#811341"/>
    <stop offset="1" stop-color="#7f1340"/>
  </linearGradient>
  <path d="M113.4 344.1h-5.2c.6 4.1 4.3 6.8 9 6.8 3.5 0 7.4-.7 10-3h.2v2.4c0 4.2-2.8 7.4-11.7 7.4-8 0-16-6.3-16-16.3 0-10.8 6.6-17.6 15.8-17.6 6.8 0 13 4.8 13 12.6.2 5.9-4.3 7.7-15 7.7zm1.6-13.7c-4 0-6.6 3.2-6.8 7l-.2 1h3.6c7.6 0 9.3-.7 9.3-3 .2-3.3-2.2-5-5.9-5z" fill="url(#SVGID_3_)"/>
  <linearGradient id="SVGID_4_" gradientUnits="userSpaceOnUse" x1="341.2" y1="-166.6" x2="341.2" y2="-223.1" gradientTransform="matrix(.5939 0 0 -.5939 -55.8 225)">
    <stop offset=".4" stop-color="#e00069"/>
    <stop offset=".5" stop-color="#de0068"/>
    <stop offset=".6" stop-color="#d60065"/>
    <stop offset=".7" stop-color="#c80360"/>
    <stop offset=".8" stop-color="#b50d59"/>
    <stop offset=".9" stop-color="#9e124f"/>
    <stop offset="1" stop-color="#811341"/>
    <stop offset="1" stop-color="#7f1340"/>
  </linearGradient>
  <path d="M148 357.4h-1.5c-7.8 0-13-4.3-13-10.2 0-5.8 4.2-10.2 16-10.2h2.8v-.4c0-4.6-2.1-5.9-7-5.9-5.8 0-9 2.2-10.3 3.7h-.2v-2.5c0-3.6 3.3-8 11.7-8 7.2 0 13.7 3.4 13.7 14.6v7.5c.1 6.7-5 11.4-12.1 11.4zm4.4-14.6h-2.9c-6 0-7.9 1.5-7.9 4.1 0 2.5 2 4 5.6 4 3.4 0 5.1-1.8 5.1-5v-3h.1z" fill="url(#SVGID_4_)"/>
  <linearGradient id="SVGID_5_" gradientUnits="userSpaceOnUse" x1="388.3" y1="-155.1" x2="388.3" y2="-222.7" gradientTransform="matrix(.5939 0 0 -.5939 -55.8 225)">
    <stop offset=".4" stop-color="#e00069"/>
    <stop offset=".5" stop-color="#de0068"/>
    <stop offset=".6" stop-color="#d60065"/>
    <stop offset=".7" stop-color="#c80360"/>
    <stop offset=".8" stop-color="#b50d59"/>
    <stop offset=".9" stop-color="#9e124f"/>
    <stop offset="1" stop-color="#811341"/>
    <stop offset="1" stop-color="#7f1340"/>
  </linearGradient>
  <path d="M177.3 357.2c-6.7 0-10.2-3.6-10.2-10.2v-30h2.2c4 0 5.8 2.4 5.8 5.4v23.8c0 3.3 1.7 4.3 5.4 4.3h2.1v1.7c.1 3.7-1.8 5-5.3 5z" fill="url(#SVGID_5_)"/>
  <linearGradient id="SVGID_6_" gradientUnits="userSpaceOnUse" x1="424.2" y1="-155" x2="424.2" y2="-222.8" gradientTransform="matrix(.5939 0 0 -.5939 -55.8 225)">
    <stop offset=".4" stop-color="#e00069"/>
    <stop offset=".5" stop-color="#de0068"/>
    <stop offset=".6" stop-color="#d60065"/>
    <stop offset=".7" stop-color="#c80360"/>
    <stop offset=".8" stop-color="#b50d59"/>
    <stop offset=".9" stop-color="#9e124f"/>
    <stop offset="1" stop-color="#811341"/>
    <stop offset="1" stop-color="#7f1340"/>
  </linearGradient>
  <path d="M188.8 319.1a6 6 0 0 1 4-2.1h1.8v7.4h11.2v3.3c0 1.7-1.5 3.8-4.9 3.8h-6.4V344c0 4.3 1.8 5.8 5.1 5.8a11 11 0 0 0 5.8-1.2h.3v3c0 3.2-2.4 5.3-7.2 5.3-8.1 0-12-4.4-12-12v-19.4a9 9 0 0 1 2.3-6.5z" fill="url(#SVGID_6_)"/>
  <linearGradient id="SVGID_7_" gradientUnits="userSpaceOnUse" x1="473.1" y1="-155.1" x2="473.1" y2="-222.2" gradientTransform="matrix(.5939 0 0 -.5939 -55.8 225)">
    <stop offset=".4" stop-color="#e00069"/>
    <stop offset=".5" stop-color="#de0068"/>
    <stop offset=".6" stop-color="#d60065"/>
    <stop offset=".7" stop-color="#c80360"/>
    <stop offset=".8" stop-color="#b50d59"/>
    <stop offset=".9" stop-color="#9e124f"/>
    <stop offset="1" stop-color="#811341"/>
    <stop offset="1" stop-color="#7f1340"/>
  </linearGradient>
  <path d="M236.8 357c-3.3 0-5.4-2-5.4-5.5v-13.2c0-5.2-3-7.3-6.5-7.3-2.5 0-5.8 2-5.8 7.6v18.5h-2.6c-3.9 0-5.6-2.2-5.6-5.5v-34.3h2.5c3.9 0 5.7 2 5.7 5.1v6c1.2-2 4-4.4 7-4.4 8.3 0 13.3 5 13.3 14.2v19h-2.6v-.3z" fill="url(#SVGID_7_)"/>
  <linearGradient id="SVGID_8_" gradientUnits="userSpaceOnUse" x1="529.9" y1="-167" x2="529.9" y2="-223.2" gradientTransform="matrix(.5939 0 0 -.5939 -55.8 225)">
    <stop offset=".4" stop-color="#e00069"/>
    <stop offset=".5" stop-color="#de0068"/>
    <stop offset=".6" stop-color="#d60065"/>
    <stop offset=".7" stop-color="#c80360"/>
    <stop offset=".8" stop-color="#b50d59"/>
    <stop offset=".9" stop-color="#9e124f"/>
    <stop offset="1" stop-color="#811341"/>
    <stop offset="1" stop-color="#7f1340"/>
  </linearGradient>
  <path d="M271.8 335c-1-2-4.2-3.4-8.8-3.4a8.8 8.8 0 0 0-8.9 8.6c0 6 3.5 9.9 9 9.9 4.6 0 7.4-1.5 8.6-3h.2v3.6c0 4-3.8 6.7-9.6 6.7-9 0-16.6-6.8-16.6-16.2 0-9.2 6.5-17 17.5-17 5.2 0 8.9 3 8.9 6.9v3.8h-.3z" fill="url(#SVGID_8_)"/>
  <linearGradient id="SVGID_9_" gradientUnits="userSpaceOnUse" x1="582.1" y1="-166.6" x2="582.1" y2="-223.1" gradientTransform="matrix(.5939 0 0 -.5939 -55.8 225)">
    <stop offset=".4" stop-color="#e00069"/>
    <stop offset=".5" stop-color="#de0068"/>
    <stop offset=".6" stop-color="#d60065"/>
    <stop offset=".7" stop-color="#c80360"/>
    <stop offset=".8" stop-color="#b50d59"/>
    <stop offset=".9" stop-color="#9e124f"/>
    <stop offset="1" stop-color="#811341"/>
    <stop offset="1" stop-color="#7f1340"/>
  </linearGradient>
  <path d="M291 357.4h-1.5c-7.7 0-13-4.3-13-10.2 0-5.8 4.3-10.2 16.1-10.2h2.8v-.4c0-4.6-2.1-5.9-7-5.9-5.8 0-9 2.2-10.3 3.7h-.2v-2.5c0-3.6 3.3-8 11.7-8 7.2 0 13.7 3.4 13.7 14.6v7.5c0 6.7-5 11.4-12.3 11.4zm4.5-14.6h-2.9c-6 0-7.9 1.5-7.9 4.1 0 2.5 2.1 4 5.5 4 3.5 0 5.2-1.8 5.2-5v-3h.1z" fill="url(#SVGID_9_)"/>
  <linearGradient id="SVGID_10_" gradientUnits="userSpaceOnUse" x1="631" y1="-167" x2="631" y2="-222.2" gradientTransform="matrix(.5939 0 0 -.5939 -55.8 225)">
    <stop offset=".4" stop-color="#e00069"/>
    <stop offset=".5" stop-color="#de0068"/>
    <stop offset=".6" stop-color="#d60065"/>
    <stop offset=".7" stop-color="#c80360"/>
    <stop offset=".8" stop-color="#b50d59"/>
    <stop offset=".9" stop-color="#9e124f"/>
    <stop offset="1" stop-color="#811341"/>
    <stop offset="1" stop-color="#7f1340"/>
  </linearGradient>
  <path d="M328 332.4a11 11 0 0 0-4.7-1c-3.5 0-5.5 2-5.5 7v18.7h-2.3c-3.5 0-5.9-1.9-5.9-5.2V337c0-6.4 3.4-12.6 12-12.6 5 0 6.7 2.7 6.7 5.2v3h-.2v-.2z" fill="url(#SVGID_10_)"/>
  <linearGradient id="SVGID_11_" gradientUnits="userSpaceOnUse" x1="676.2" y1="-166.3" x2="676.2" y2="-223.4" gradientTransform="matrix(.5939 0 0 -.5939 -55.8 225)">
    <stop offset=".4" stop-color="#e00069"/>
    <stop offset=".5" stop-color="#de0068"/>
    <stop offset=".6" stop-color="#d60065"/>
    <stop offset=".7" stop-color="#c80360"/>
    <stop offset=".8" stop-color="#b50d59"/>
    <stop offset=".9" stop-color="#9e124f"/>
    <stop offset="1" stop-color="#811341"/>
    <stop offset="1" stop-color="#7f1340"/>
  </linearGradient>
  <path d="M345 344.1h-5.2c.6 4.1 4.3 6.8 9 6.8 3.5 0 7.5-.7 10-3h.2v2.4c0 4.2-2.7 7.4-11.7 7.4-8 0-16-6.3-16-16.3 0-10.8 6.6-17.6 15.9-17.6 6.7 0 13 4.8 13 12.6 0 5.9-4.5 7.7-15.1 7.7zm1.5-13.7c-4 0-6.6 3.2-6.8 7v1h3.5c7.7 0 9.4-.7 9.4-3 .1-3.3-2.3-5-6-5z" fill="url(#SVGID_11_)"/>
  <path class="st10" d="M484.2 294.7a4 4 0 0 1 4 4 4 4 0 0 1-4 4 4 4 0 0 1 0-8z"/>
  <path d="M496 294.7a4 4 0 0 1 4 4 4 4 0 0 1-4 4 4 4 0 0 1-3.9-4c0-2.3 1.7-4 4-4z" fill="#e00069"/>
  <path d="M472.5 294.7a4 4 0 0 1 4 4 4 4 0 0 1-4 4 4 4 0 0 1-4-4c0-2.3 1.7-4 4-4z" fill="#005795"/>
  <linearGradient id="SVGID_12_" gradientUnits="userSpaceOnUse" x1="145.8" y1="156.3" x2="145.8" y2="-82.2" gradientTransform="matrix(.5939 0 0 -.5939 -55.8 225)">
    <stop offset=".3" stop-color="#36bcee"/>
    <stop offset=".5" stop-color="#32b9ec"/>
    <stop offset=".6" stop-color="#23b0e4"/>
    <stop offset=".7" stop-color="#00a2d8"/>
    <stop offset=".8" stop-color="#008ec7"/>
    <stop offset=".9" stop-color="#0076b2"/>
    <stop offset="1" stop-color="#005d9a"/>
    <stop offset="1" stop-color="#005795"/>
  </linearGradient>
  <path d="M39.3 273.8c-23.5 0-36-12.4-36-35.3V132h8c14.1 0 20.3 8.2 20.3 19v84.6c0 11.3 6 14.9 19.1 14.9h7.7v6c-.2 12.4-6.6 17.2-19.1 17.2z" fill="url(#SVGID_12_)"/>
  <linearGradient id="SVGID_13_" gradientUnits="userSpaceOnUse" x1="285.4" y1="115.9" x2="285.4" y2="-82.2" gradientTransform="matrix(.5939 0 0 -.5939 -55.8 225)">
    <stop offset=".3" stop-color="#36bcee"/>
    <stop offset=".5" stop-color="#32b9ec"/>
    <stop offset=".6" stop-color="#23b0e4"/>
    <stop offset=".7" stop-color="#00a2d8"/>
    <stop offset=".8" stop-color="#008ec7"/>
    <stop offset=".9" stop-color="#0076b2"/>
    <stop offset="1" stop-color="#005d9a"/>
    <stop offset="1" stop-color="#005795"/>
  </linearGradient>
  <path d="M117.8 273.8H112c-27 0-45.4-15.2-45.4-36 0-20.1 14.7-35.6 56.3-35.6h10v-1.4c0-16-7.7-20.8-24.4-20.8-20.5 0-31.8 7.7-36 13h-1v-9c0-12.7 11.3-27.9 41.2-27.9 25.3 0 48 11.9 48 51v26.1c0 24-17.7 40.6-43 40.6zm15.4-51.4H123c-21.4 0-27.5 5-27.5 14.4 0 8.8 7.1 14 19.6 14 12.3 0 18.2-5.9 18.2-17.5v-10.9h-.1z" fill="url(#SVGID_13_)"/>
  <linearGradient id="SVGID_14_" gradientUnits="userSpaceOnUse" x1="339.4" y1="61.6" x2="466.8" y2="-3.3" gradientTransform="matrix(.5939 0 0 -.5939 -55.8 225)">
    <stop offset=".3" stop-color="#36bcee"/>
    <stop offset=".4" stop-color="#30b8eb"/>
    <stop offset=".5" stop-color="#1eade2"/>
    <stop offset=".6" stop-color="#009bd3"/>
    <stop offset=".8" stop-color="#0084bf"/>
    <stop offset=".9" stop-color="#0069a6"/>
    <stop offset=".9" stop-color="#005795"/>
  </linearGradient>
  <path d="M215.5 236.5l-3-6.6a288.7 288.7 0 0 1-19.9-58.4c-1.4-8-8.5-13.3-16.5-13.3h-15a362.4 362.4 0 0 0 39.4 105l.5 1c5.6-8 10.5-17.4 14.7-27 .1-.3 0-.4-.2-.7z" fill="url(#SVGID_14_)"/>
  <linearGradient id="SVGID_15_" gradientUnits="userSpaceOnUse" x1="450.2" y1="112.5" x2="450.2" y2="-141.1" gradientTransform="matrix(.5939 0 0 -.5939 -55.8 225)">
    <stop offset=".3" stop-color="#36bcee"/>
    <stop offset=".5" stop-color="#32b9ec"/>
    <stop offset=".6" stop-color="#23b0e4"/>
    <stop offset=".7" stop-color="#00a2d8"/>
    <stop offset=".8" stop-color="#008ec7"/>
    <stop offset=".9" stop-color="#0076b2"/>
    <stop offset="1" stop-color="#005d9a"/>
    <stop offset="1" stop-color="#005795"/>
  </linearGradient>
  <path d="M236.9 162.8l-.8 5c-.7 4-1.6 8.2-2.5 12.4a324 324 0 0 1-17.7 57c-4 9.6-9.4 18.5-14.6 27l-2.1 3c-8.7 12-25 28.8-38.6 17.6h-.1l-.2.2c-.8 6.7 1 15.8 11.4 21 3.7 1.8 7.6 2.2 11.3 2.6 18 0 35.4-15.7 51.4-49.7l4.9-11c5.6-13.3 23.7-64.6 23.7-76.6 0-9.3-4.2-13.3-13.3-13.3h-12.2c-.2.6-.2 1.4-.3 2l-.3 2.8z" fill="url(#SVGID_15_)"/>
  <linearGradient id="SVGID_16_" gradientUnits="userSpaceOnUse" x1="619.3" y1="115.9" x2="619.3" y2="-82.2" gradientTransform="matrix(.5939 0 0 -.5939 -55.8 225)">
    <stop offset=".3" stop-color="#36bcee"/>
    <stop offset=".5" stop-color="#32b9ec"/>
    <stop offset=".6" stop-color="#23b0e4"/>
    <stop offset=".7" stop-color="#00a2d8"/>
    <stop offset=".8" stop-color="#008ec7"/>
    <stop offset=".9" stop-color="#0076b2"/>
    <stop offset="1" stop-color="#005d9a"/>
    <stop offset="1" stop-color="#005795"/>
  </linearGradient>
  <path d="M316 273.8h-5.6c-27 0-45.4-15.2-45.4-36 0-20.1 14.7-35.6 56.3-35.6h10v-1.4c0-16-7.7-20.8-24.4-20.8-20.5 0-31.8 7.7-36 13h-1v-9c0-12.7 11.3-27.9 41.2-27.9 25.3 0 48 11.9 48 51v26.1c0 24-17.7 40.6-43 40.6zm15.5-51.4h-10.2c-21.4 0-27.5 5-27.5 14.4 0 8.8 7.1 14 19.6 14 12.3 0 18-5.9 18-17.5v-11z" fill="url(#SVGID_16_)"/>
</svg>
