<?xml version="1.0" encoding="utf-8"?>
<!-- Generator: Adobe Illustrator 23.0.3, SVG Export Plug-In . SVG Version: 6.00 Build 0)  -->
<svg version="1.1" id="Layer_1" xmlns="http://www.w3.org/2000/svg" xmlns:xlink="http://www.w3.org/1999/xlink" x="0px" y="0px"
	 viewBox="0 0 266.2 195" style="enable-background:new 0 0 266.2 195;" xml:space="preserve">
<style type="text/css">
	.st0{fill:#4C9FD8;}
	.st1{fill:#40C1C4;}
	.st2{fill:#926AAD;}
	.st3{fill:#69366E;}
	.st4{fill:#371C3A;}
</style>
<title>from-project</title>
<path class="st0" d="M13,14.5h68c1.7,0,3,1.3,3,3v14c0,1.7-1.3,3-3,3H13c-1.7,0-3-1.3-3-3v-14C10,15.8,11.3,14.5,13,14.5z"/>
<path class="st1" d="M49,52.4h68c1.7,0,3,1.3,3,3v14c0,1.7-1.3,3-3,3H49c-1.7,0-3-1.3-3-3v-14C46,53.8,47.3,52.4,49,52.4z"/>
<path class="st2" d="M94,90.4h68c1.7,0,3,1.3,3,3v14c0,1.7-1.3,3-3,3H94c-1.7,0-3-1.3-3-3v-14C91,91.8,92.3,90.4,94,90.4z"/>
<path class="st3" d="M132,128.4h68c1.7,0,3,1.3,3,3v14c0,1.7-1.3,3-3,3h-68c-1.7,0-3-1.3-3-3v-14C129,129.7,130.3,128.4,132,128.4z"
	/>
<path class="st4" d="M182,166.4h68c1.7,0,3,1.3,3,3v14c0,1.7-1.3,3-3,3h-68c-1.7,0-3-1.3-3-3v-14C179,167.7,180.3,166.4,182,166.4z"
	/>
</svg>
