<?xml version="1.0" encoding="utf-8"?>
<!-- Generator: Adobe Illustrator 21.1.0, SVG Export Plug-In . SVG Version: 6.00 Build 0)  -->
<svg version="1.1" id="Layer_1" xmlns="http://www.w3.org/2000/svg" xmlns:xlink="http://www.w3.org/1999/xlink" x="0px" y="0px"
	 viewBox="0 0 1413.1 1086.1" style="enable-background:new 0 0 1413.1 1086.1;" xml:space="preserve">
<style type="text/css">
	.st0{fill:#66499E;}
	.st1{fill:none;}
	.st2{fill:#0BBCD4;}
	.st3{fill:#903E97;}
	.st4{fill:#FFFFFF;}
	.st5{fill:#DDDDDD;}
	.st6{fill:#0B8F99;}
	.st7{fill:#68356D;}
</style>
<g id="Layer_1_1_">
	<path class="st0" d="M152.9,513.8C156.5,510.8,152.9,513.8,152.9,513.8l71.8,16.7l-16.4,64.9l-0.7,0.6
		c-55.2,49.6-75.3,127.4-51.1,197.6c16,45.9,49.6,83.5,93.5,104.4c32.5,15.6,43.3,16.3,80.7,18.5L281,961l32.3,56.2
		c-37-3-73.3-12.5-107-28.1c-68-32.5-120.2-90.8-145-162C23.5,719.6,65.3,590.2,152.9,513.8L152.9,513.8z"/>
	<path class="st0" d="M346.6,915.7c9-1.7,34.6-6.9,43.3-10c72.3-25.4,117.3-78.8,169.4-140.7l163.5-186.1l13.4,63.3l66.3-1.3
		L636.6,830c-56.5,67.1-114.9,136.5-213.2,171c-32.1,11.3-65.9,16.8-99.9,16.1l-32.2-53.9L346.6,915.7L346.6,915.7z"/>
	<path class="st1" d="M709.8,594.9l-3.7,4.3l0.2,0.1L709.8,594.9z"/>
	<path class="st2" d="M524.8,272.9c19.8-81.1,91.9-138.5,175.3-139.7c49.5-0.6,91,18.5,129.8,49c4.9,3.1,11.7,8.3,11.7,8.3l62.3-0.3
		l28.5-43.4c-16.6-20-6.2-9.2-30.2-32.8C790.3,3.9,610.3,5.4,500.2,117.3c-30,30.5-52.7,67.3-66.5,107.7l64.6-15.6L524.8,272.9
		L524.8,272.9z"/>
	<path class="st2" d="M846.5,200.7c6.9,19.4,39.3,94.3,39.3,115.5c0,32.6-8.7,64.6-25.2,92.7L817.5,462h129l1.5-2.5
		c25.4-43.5,38.8-92.9,38.8-143.3c0-38.9-28.9-128.7-49-162.3l-29.3,46.8L846.5,200.7L846.5,200.7z"/>
	<path class="st3" d="M804.9,462.1H693.8l36.1,42.4L703,563.1h302.6c45.1,0,79.9,2.3,106.6,5.8l54.9-39.7l-27.1-58.3
		c-44.5-6.4-89.4-9.3-134.4-8.8L804.9,462.1L804.9,462.1z"/>
	<path class="st2" d="M729.7,570.5l16.1,62.2h63.4l56.5-69.6h-130L729.7,570.5z"/>
	<path class="st0" d="M678.2,563.1h15l26.2-57.1L682,462.1h-91.2C596.7,490.7,666.1,552.5,678.2,563.1z"/>
	<path class="st2" d="M538.8,563.1l57.5,62.5l10.2-63.4L683,569l-4.8-5.9c-12.1-10.6-87.8-101-87.4-101h-0.4l-6.8-8
		c-5.3-6.2-10.7-12.2-16.3-18c-8.6-9.2-17.5-18.7-22-26.3c-21.8-36.7-30.1-79.8-23.4-122l-29-65.6l-63,14.8
		c-21.5,74-12,153.5,26.3,220.3L538.8,563.1L538.8,563.1z"/>
	<path class="st3" d="M1058.9,915.7c-9-1.7-34.6-6.9-43.3-10c-72.3-25.4-117.3-78.8-169.4-140.7l-74.3-89l-68,77.5l65.1,76.6
		c56.5,67.1,114.9,136.5,213.2,171c32.1,11.3,65.9,16.8,99.9,16.1l-59.8-43.5L1058.9,915.7L1058.9,915.7z M688,577.7l-75.1-6
		l-8.6,63.5l34.5,40.8l67.3-76.8L688,577.7z"/>
	<path class="st3" d="M1265.2,520.8c-27.4-25-68.4-39.5-112.9-47.8l28.4,57.5l-55.5,40.2c47.2,7.5,65.3,18.6,71.9,24.7l0.7,0.6
		c55.2,49.6,75.3,127.4,51.1,197.6c-16,45.9-49.6,83.5-93.5,104.4c-32.5,15.6-48.2,22.7-83.2,18.1l-36.7,56.2l62.3,44.1
		c112.3-8.9,208.8-83.1,246.3-189.3C1381.6,718.4,1350.5,597.8,1265.2,520.8L1265.2,520.8z"/>
	<path class="st4" d="M842.1,494.5h10.4c2.7,0,5,0.3,7,0.8c2,0.5,3.8,1.5,5.3,2.8c4.1,3.5,6.1,8.8,6.1,16c0,2.4-0.2,4.5-0.6,6.5
		c-0.7,3.6-2.5,7-5.2,9.5c-2.1,1.9-4.7,3.1-7.5,3.5c-1.4,0.2-3.1,0.3-4.9,0.3h-10.4c-1.5,0-2.5-0.2-3.3-0.7s-1.2-1.1-1.4-1.9
		c-0.2-1-0.3-2.1-0.3-3.1v-28.9c0-1.7,0.4-3,1.2-3.7C839.1,494.8,840.4,494.5,842.1,494.5L842.1,494.5z M845.2,500.8v26.7h6l3.1-0.1
		l2.3-0.5c0.8-0.3,1.5-0.7,2.1-1.2c2.7-2.3,4-6.1,4-11.7c0-3.9-0.6-6.8-1.8-8.7c-1.2-1.9-2.6-3.2-4.3-3.7s-3.8-0.8-6.2-0.8H845.2
		L845.2,500.8z M897.8,521.4h-14.3c0,1.7,0.4,3.1,1,4.4c0.7,1.3,1.5,2.2,2.6,2.9s2.3,1,3.6,1c0.9,0,1.7-0.1,2.4-0.3s1.4-0.5,2.1-1
		l1.9-1.4l2.2-2c0.4-0.3,0.9-0.5,1.6-0.5c0.8,0,1.4,0.2,1.8,0.6c0.5,0.4,0.7,1,0.7,1.7s-0.3,1.4-0.8,2.3c-0.5,0.9-1.3,1.7-2.3,2.6
		c-1.2,0.9-2.5,1.6-3.9,2c-1.6,0.5-3.4,0.8-5.5,0.8c-4.7,0-8.4-1.3-11-4s-3.9-6.3-3.9-10.9c-0.1-3.9,1.3-7.8,3.8-10.8
		c1.2-1.3,2.8-2.3,4.6-3c4.4-1.7,9.2-1.4,13.4,0.7c3.8,2.2,6.1,6.2,6.1,10.6c0,1.8-0.5,3-1.6,3.6
		C901.2,521.1,899.7,521.4,897.8,521.4L897.8,521.4z M883.5,517.2h13.3c0-2-0.7-4-2-5.6c-1.2-1.2-2.9-1.9-4.6-1.9
		c-1.8,0-3.3,0.6-4.5,1.9C884.3,513.1,883.5,515.1,883.5,517.2z M916.1,508.8v0.9c1.4-1.7,2.8-2.9,4.3-3.7c1.5-0.8,3.2-1.2,5-1.2
		c2.3,0,4.3,0.6,6.2,1.7c1.9,1.2,3.4,2.9,4.5,5.1c1.1,2.2,1.7,4.9,1.7,7.9c0.1,4-1.2,7.8-3.6,11c-1.1,1.3-2.4,2.3-3.9,3
		c-1.5,0.7-3.1,1-4.9,1c-2.1,0-3.9-0.4-5.3-1.3c-1.4-0.8-2.8-2.1-4.1-3.7v11c0,3.2-1.2,4.8-3.5,4.8c-1.4,0-2.3-0.4-2.7-1.2
		s-0.7-2-0.7-3.6v-31.6c0-1.4,0.3-2.4,0.9-3.1c0.6-0.7,1.4-1,2.5-1c1,0,1.9,0.4,2.5,1.1C915.7,506.5,916.1,507.5,916.1,508.8
		L916.1,508.8z M930.4,519.5c0-1.9-0.3-3.6-0.9-5c-0.5-1.3-1.4-2.4-2.5-3.2c-1-0.7-2.2-1.1-3.5-1.1c-2,0-3.7,0.8-5.1,2.4
		c-1.4,1.6-2.1,3.9-2.1,7c0,2.9,0.7,5.2,2.1,6.8c1.2,1.5,3.1,2.4,5.1,2.4c1.2,0,2.3-0.4,3.4-1.1s1.9-1.8,2.5-3.2
		C930.1,523.2,930.4,521.5,930.4,519.5z M943.7,530v-31.8c0-1.5,0.3-2.6,1-3.3s1.5-1.1,2.6-1.1s2,0.4,2.7,1.1s1,1.9,1,3.3V530
		c0,1.5-0.3,2.6-1,3.3s-1.6,1.1-2.7,1.1s-1.9-0.4-2.6-1.2C944,532.6,943.7,531.5,943.7,530z M986,519.6c0.2,4-1.3,7.9-4,10.8
		c-1.3,1.3-2.9,2.4-4.6,3c-3.9,1.5-8.1,1.5-12,0c-1.8-0.7-3.3-1.7-4.6-3.1c-2.7-2.9-4.2-6.7-4-10.7c-0.2-4,1.2-7.9,3.9-10.8
		c1.3-1.3,2.8-2.3,4.6-3c3.9-1.5,8.1-1.5,12,0c1.8,0.7,3.4,1.7,4.6,3.1c1.3,1.3,2.3,2.9,2.9,4.7C985.7,515.4,986,517.4,986,519.6
		L986,519.6z M978.7,519.6c0-3-0.7-5.3-2-7c-1.2-1.7-3.2-2.6-5.3-2.5c-1.3,0-2.7,0.4-3.8,1.1c-1.2,0.8-2,2-2.5,3.3
		c-0.6,1.5-0.9,3.1-0.9,5.1c0,1.9,0.3,3.6,0.9,5c0.6,1.4,1.4,2.5,2.5,3.3s2.4,1.1,3.8,1.1c2.2,0,4-0.8,5.3-2.5
		C978,524.9,978.7,522.5,978.7,519.6L978.7,519.6z M997.8,535.4l0.7-1.6l-9-22.7c-0.4-0.9-0.7-1.8-0.8-2.8c0-0.6,0.2-1.2,0.5-1.7
		s0.8-1,1.3-1.3c0.6-0.3,1.2-0.5,1.8-0.5c1.1,0,1.9,0.3,2.4,1s1,1.6,1.4,2.9l6.2,18l5.9-16.8l1.3-3.2c0.4-0.8,0.8-1.3,1.2-1.6
		s1-0.4,1.8-0.4c0.6,0,1.1,0.1,1.6,0.4c0.5,0.3,0.9,0.7,1.2,1.2s0.4,1,0.4,1.6l-0.3,1.5l-0.6,1.9l-9.6,25c-0.8,2.2-1.6,3.9-2.4,5.2
		c-0.7,1.2-1.8,2.2-3.1,2.9c-1.3,0.7-3,1-5.3,1c-2.1,0-3.8-0.2-4.8-0.7s-1.6-1.3-1.6-2.6c0-0.8,0.3-1.5,0.8-1.9
		c0.5-0.5,1.3-0.7,2.3-0.7l1.2,0.2l1.2,0.2c0.7,0,1.4-0.1,2-0.4c0.5-0.3,1-0.8,1.3-1.3C996.9,537.5,997.3,536.6,997.8,535.4
		L997.8,535.4z M1319.9,671c1.1,3.5,1.2,7.2,0.3,10.8c-0.8,3.3-2.5,6-5.1,8.3c-5.1,4.1-11.5,6.2-18.1,6c-2.6-0.1-5-0.8-7.2-1.9
		c-2.2-1.1-4.2-2.8-5.6-4.8c-1.7-2.3-2.8-4.9-3.5-7.6c-0.8-3-1-5.8-0.7-8.4c0.6-5.1,3.5-9.6,7.8-12.3c2.2-1.5,4.8-2.6,7.6-3.3
		c2.9-0.8,5.7-1.1,8.4-0.9c5,0.2,9.7,2.7,12.7,6.8C1317.9,665.6,1319.1,668.1,1319.9,671L1319.9,671z M1303.3,687.2
		c2.5-0.6,4.9-1.7,6.9-3.3c1.7-1.3,3-3.1,3.6-5.1c0.6-1.9,0.6-4,0-6.2c-0.7-2.9-2.7-5.4-5.4-6.7c-1.4-0.6-3-1-4.8-1.1
		c-4.1-0.1-8.1,1-11.6,3.1c-2.8,1.6-4.8,4.4-5.4,7.6c-0.2,1.5-0.1,3,0.3,4.5c1,4.1,4.4,7.1,8.5,7.7
		C1297.6,688.2,1300.2,688,1303.3,687.2z M1312.4,708.9l-0.9,0.1c1.8,1.2,3.3,2.5,4.2,3.8s1.6,3,1.8,4.9c0.6,4.6-1.6,9.1-5.6,11.5
		c-2.3,1.4-5,2.3-7.7,2.6c-2.2,0.3-4.3,0.2-6.3-0.2c-1.9-0.4-3.6-1.1-5-2.1c-4.4-3-6.2-8.7-4.4-13.7c0.7-1.5,1.7-3,3.2-4.5
		l-10.9,1.3c-3.2,0.4-4.9-0.6-5.2-2.9c-0.2-1.4,0.2-2.3,0.9-2.9c1.1-0.6,2.3-1,3.5-1.1l31.4-3.6c1.4-0.2,2.5,0,3.2,0.5
		c0.8,0.5,1.2,1.3,1.3,2.4c0.1,1-0.1,1.9-0.8,2.6C1314.7,708.3,1313.7,708.8,1312.4,708.9L1312.4,708.9z M1303.4,724.4
		c1.9-0.2,3.5-0.7,4.8-1.5c1.2-0.6,2.2-1.6,2.9-2.8c0.6-1.1,0.9-2.3,0.7-3.6c-0.2-2-1.2-3.6-3-4.8c-1.7-1.2-4.2-1.6-7.2-1.3
		c-2.4,0.1-4.7,1.1-6.5,2.8c-1.5,1.4-2.1,3.4-1.8,5.4c0.1,1.2,0.6,2.3,1.4,3.2s2,1.7,3.4,2.1
		C1299.7,724.5,1301.4,724.7,1303.4,724.4L1303.4,724.4z M1302.2,758.7l0.2-14.3c-1.7,0-3.1,0.3-4.4,0.9c-1.3,0.6-2.3,1.5-2.9,2.6
		s-1,2.3-1,3.6c0,1.6,0.4,3.1,1.2,4.5l1.4,1.9l2,2.3c0.3,0.4,0.5,0.9,0.5,1.6c0,0.8-0.2,1.4-0.6,1.8c-0.4,0.5-1,0.7-1.8,0.7
		c-0.7,0-1.4-0.3-2.3-0.8c-1-0.6-1.9-1.4-2.5-2.4c-1.9-2.8-2.9-6.1-2.7-9.5c0.1-4.7,1.5-8.3,4.2-10.9s6.4-3.8,11-3.8
		c2.2,0,4.2,0.4,6,1.1c1.8,0.7,3.4,1.6,4.7,2.9c1.3,1.3,2.3,2.8,3,4.6c1.6,4.4,1.3,9.2-0.9,13.3c-1.2,2-2.8,3.5-4.8,4.5
		c-1.9,1-3.9,1.5-5.9,1.4c-1.8,0-3-0.6-3.6-1.6S1302.2,760.6,1302.2,758.7L1302.2,758.7z M1306.6,744.4l-0.2,13.3
		c2.5-0.1,4.4-0.8,5.7-1.9c1.3-1.2,2-2.9,1.9-4.6c0-1.8-0.6-3.3-1.8-4.5C1310.6,745.3,1308.7,744.5,1306.6,744.4z M1297.9,778.1
		l-6.1-0.8c-1.5-0.2-2.5-0.7-3.2-1.5c-0.6-0.8-0.9-1.7-0.8-2.8c0.1-1,0.6-1.9,1.5-2.4c0.8-0.6,2-0.8,3.4-0.6l20.2,2.7
		c3.3,0.4,4.7,1.8,4.4,4.2c-0.2,1.2-0.7,2-1.5,2.5c-0.8,0.4-2,0.6-3.5,0.4c1.4,1.1,2.4,2.1,3,3.1s0.9,2.3,0.7,3.8
		c-0.2,1.5-0.8,3-1.7,4.3c-1,1.3-2.1,1.9-3.3,1.8c-0.9-0.1-1.6-0.5-2.1-1.2s-0.7-1.4-0.6-2.1c0-0.3,0.3-0.9,0.7-1.9
		c0.5-1,0.7-1.9,0.8-2.6c0.1-1.1,0-2-0.5-2.7c-0.6-0.8-1.4-1.5-2.3-1.9C1304.1,779.2,1301,778.5,1297.9,778.1z M1285,809.9
		c-0.9-2.1-1.5-4-1.8-5.7c-0.3-1.9-0.2-3.8,0.3-5.7c0.5-1.8,1.2-3.3,2.3-4.5c1-1.1,2.3-2,3.7-2.5c1.4-0.4,2.8-0.5,4.3-0.1
		c1.9,0.5,3.5,1.5,4.5,3.1c1.1,1.7,1.7,3.8,1.5,5.8l-0.1,3.5l-0.1,4.8l0.1,4.4c1.9,0.4,3.4,0.3,4.4-0.1c1-0.5,1.8-1.7,2.4-3.8
		c0.5-1.8,0.5-3.2,0.3-4.3c-0.3-1-0.8-2-1.7-2.9c-0.8-0.9-1.4-1.5-1.6-1.9c-0.3-0.3-0.3-1-0.1-1.9c0.2-0.8,0.6-1.4,1.3-1.9
		s1.4-0.6,2.2-0.4c1.3,0.3,2.5,1.1,3.3,2.2c1,1.2,1.6,2.8,1.9,4.9s0.1,4.5-0.6,7.3c-0.6,2.5-1.5,4.9-2.9,7.1
		c-1.1,1.5-2.7,2.6-4.5,2.9c-1.8,0.3-4,0.2-6.6-0.5l-4.2-1.1l-3.9-1c-1.4-0.3-2.9-0.5-4.3-0.4c-1,0.1-2,0.1-3,0
		c-0.7-0.2-1.3-0.7-1.7-1.5c-0.4-0.8-0.5-1.7-0.3-2.6c0.2-0.7,0.7-1.4,1.6-1.9L1285,809.9L1285,809.9z M1295.4,812l-0.1-4.8l0.1-4.4
		c0-0.9-0.2-1.7-0.6-2.5c-0.4-0.9-1.3-1.4-2.2-1.6c-1.1-0.3-2.2-0.1-3.1,0.5c-1,0.6-1.6,1.6-1.9,2.9c-0.7,2.6,0,5.3,1.7,7.3
		c1.5,1.2,3.2,2,5.1,2.3L1295.4,812z M1304.8,830.5l-0.3,0.8l4.1,1.5l2.6,1c0.6,0.3,1.1,0.6,1.4,1.1c0.4,0.4,0.6,1,0.7,1.6
		s0.1,1.2-0.2,1.9c-0.3,0.9-0.9,1.5-1.8,2c-0.6,0.3-1.3,0.4-1.9,0.3l-2.8-0.8l-4.7-1.7l-0.9,2.5c-0.3,0.8-0.8,1.5-1.5,2
		c-0.6,0.3-1.3,0.4-2.1,0.1c-0.9-0.3-1.4-0.9-1.5-1.8s0.1-2,0.6-3.3l0.5-1.3l-12.7-4.6l-2.5-0.8c-0.6-0.1-1.2-0.1-1.6,0.1
		c-0.5,0.2-0.9,0.7-1.1,1.4l-0.4,1.7c0,0.6-0.2,1.2-0.4,1.7c-0.2,0.6-0.6,1-1.2,1.3s-1.2,0.3-1.9,0.1c-1.1-0.4-1.7-1.3-1.9-2.7
		s0.2-3.3,1-5.5s1.7-3.7,2.9-4.5c1.1-0.8,2.4-1.2,3.8-1.1s3.2,0.6,5.3,1.3l13.2,4.8l0.3-0.9c0.4-1,0.9-1.7,1.5-2
		c0.7-0.3,1.4-0.4,2.1-0.1c0.7,0.3,1.2,0.8,1.5,1.5C1305.3,828.5,1305.2,829.4,1304.8,830.5z M1274,861.5l6.3-12.9
		c-1.4-0.7-2.9-1-4.4-1c-1.4,0-2.7,0.4-3.7,1.1c-1.1,0.7-1.9,1.7-2.5,2.8c-0.4,0.7-0.7,1.5-0.8,2.3c-0.1,0.7-0.2,1.5-0.1,2.3
		l0.4,2.3l0.8,2.9c0.1,0.5,0,1-0.3,1.7s-0.8,1.1-1.4,1.4c-0.6,0.2-1.2,0.2-1.9-0.1c-0.6-0.3-1.2-0.9-1.7-1.7c-0.6-0.9-1-1.9-1.2-3.2
		c-0.3-1.3-0.3-2.8-0.1-4.4c0.2-1.7,0.8-3.4,1.7-5.3c2.1-4.2,4.9-6.9,8.5-8.1c3.6-1.2,7.4-0.7,11.5,1.3c1.9,1,3.6,2.1,5,3.5
		c2.7,2.6,4.1,6.3,3.7,10c-0.2,2.1-0.8,4.1-1.7,5.9c-1.1,2.3-2.8,4.3-4.9,5.8c-2,1.3-4.1,2-6.2,2.1c-2.2,0.1-4.1-0.3-5.9-1.2
		c-1.7-0.8-2.5-1.8-2.5-3S1273.1,863.2,1274,861.5L1274,861.5z M1284.1,850.5l-5.9,11.9c2.3,0.9,4.3,1.2,5.9,0.7
		c1.7-0.5,3-1.7,3.7-3.3c0.8-1.5,0.9-3.3,0.3-4.9C1287.3,853,1285.9,851.5,1284.1,850.5z M759.1,763.8l14-21.8l-19.8,18.6
		c-1.1,1-2.1,1.6-3.2,1.6c-1,0-1.9-0.4-2.7-1.2c-0.7-0.7-1.1-1.7-1-2.7c0.1-1,0.7-2,1.8-3.1L771,734c1.3-1.2,2.4-1.6,3.5-1.4
		c1.2,0.3,2.3,1,3.1,2l1.7,1.8c1,1.1,1.7,2,1.9,2.6c0.3,0.7,0.3,1.4,0,2.1l-1.7,3.1l-11.8,18.9l19.6-10.6c1.4-0.8,2.5-1.3,3.2-1.5
		c0.7-0.2,1.4-0.2,2.1,0.1c0.7,0.3,1.5,1,2.5,2.1l1.7,1.8c1,1.1,1.7,2.2,1.8,3.3c0.2,1.1-0.4,2.2-1.6,3.4L774.3,783
		c-1.1,1-2.1,1.6-3.2,1.6c-2,0-3.7-1.7-3.7-3.7c0-0.1,0-0.1,0-0.2c0.1-1,0.7-2,1.8-3.1L789,759l-22.6,12.6l-3.3,1.7
		c-0.8,0.3-1.6,0.5-2.5,0.4c-0.9-0.1-1.8-0.6-2.7-1.5c-0.6-0.7-1-1.4-1.2-2.1c-0.1-0.7-0.1-1.5,0.1-2.2c0.2-0.7,0.5-1.4,0.9-2
		L759.1,763.8L759.1,763.8z M805.9,801.5c-1.5,1.4-3.2,2.6-5.1,3.4c-3.5,1.5-7.5,1.4-10.9-0.2c-1.7-0.8-3.4-2-4.9-3.7
		c-1.4-1.5-2.5-3.2-3.3-5.1c-0.7-1.7-1-3.6-0.9-5.5c0.1-1.9,0.6-3.7,1.4-5.4c1.9-3.7,5-6.6,8.8-8.3c3.5-1.5,7.4-1.4,10.8,0.2
		c3.7,1.9,6.6,4.9,8.3,8.7c0.7,1.8,1,3.6,1,5.5c-0.1,1.8-0.6,3.6-1.4,5.4C808.7,798.4,807.4,800,805.9,801.5L805.9,801.5z
		 M800.9,796.1c2.2-2,3.4-4.1,3.7-6.2c0.3-2.1-0.3-4-1.8-5.6c-0.9-1-2.1-1.7-3.4-2c-1.4-0.3-2.8-0.2-4.1,0.4
		c-1.5,0.6-2.9,1.5-4.3,2.8c-1.3,1.2-2.3,2.6-3.1,4.1c-0.6,1.3-0.9,2.7-0.7,4.1c0.2,1.3,0.8,2.5,1.8,3.6c1.4,1.6,3.4,2.4,5.5,2.1
		C796.6,799.2,798.7,798.1,800.9,796.1L800.9,796.1z M822.3,803.1l-0.6,0.6c2.1-0.2,4-0.1,5.6,0.5s3.1,1.6,4.5,3
		c1.3,1.4,2.2,3,2.6,4.6c0.4,1.7,0.3,3.3-0.3,4.9c-0.3,1-0.8,1.9-1.5,2.7l-2.7,2.9l-9.9,9.3c-1.1,1-2.1,1.5-3.1,1.5
		s-1.9-0.4-2.6-1.1c-0.7-0.7-1.1-1.7-1-2.7c0.1-1,0.7-2,1.7-3l8.9-8.4c1.8-1.7,2.9-3.2,3.4-4.5c0.5-1.4,0-2.8-1.4-4.2
		c-0.9-1-2-1.6-3.3-1.8s-2.6-0.1-4,0.5c-1,0.5-2.7,1.8-4.8,3.8l-6.7,6.3c-1.1,1-2.1,1.5-3.1,1.5s-1.9-0.4-2.6-1.2
		c-0.7-0.8-1-1.7-0.9-2.7s0.7-2,1.7-3l15.4-14.5c1-1,2-1.4,2.9-1.5c0.9,0,1.7,0.3,2.5,1.1c0.4,0.5,0.7,1,0.9,1.6
		c0.1,0.6,0.1,1.2-0.1,1.8S823,802.5,822.3,803.1L822.3,803.1z M845.4,827.9L830,842.4c-1.1,1-2.1,1.5-3.1,1.5s-1.9-0.4-2.6-1.2
		c-0.7-0.7-1.1-1.7-1-2.7c0.1-1,0.7-2,1.7-3l15.3-14.4c1.1-1,2.1-1.5,3.1-1.5s1.9,0.4,2.6,1.2c0.7,0.8,1.1,1.7,1,2.7
		S846.4,827,845.4,827.9L845.4,827.9z M848.5,820c-1.4-1.3-1.5-3.5-0.2-4.9c0.1-0.1,0.2-0.2,0.3-0.3c0.8-0.7,1.6-1,2.6-0.9
		s1.8,0.5,2.5,1.2c0.6,0.7,1,1.5,1.1,2.5s-0.3,1.8-1.2,2.6c-0.8,0.8-1.7,1.1-2.7,1C850,821.2,849.2,820.8,848.5,820L848.5,820z
		 M853.5,831.3l0.6,0.6l3.2-3l2.1-1.8c0.5-0.4,1-0.7,1.6-0.8c0.6-0.1,1.1-0.1,1.7,0.1c0.6,0.2,1.2,0.5,1.6,1c0.6,0.7,1,1.5,1,2.6
		c0,0.7-0.2,1.3-0.6,1.9c-0.4,0.6-1,1.3-1.9,2.1l-3.6,3.4l1.8,2c0.7,0.8,1.1,1.5,1.1,2.2s-0.3,1.4-0.8,1.9c-0.7,0.7-1.5,0.9-2.3,0.6
		s-1.7-1-2.7-2l-0.9-1l-9.8,9.2l-1.8,1.9c-0.4,0.5-0.6,1-0.7,1.5c0,0.5,0.2,1.1,0.7,1.6c0.3,0.3,0.7,0.7,1.4,1.1l1.3,1.1
		c0.4,0.4,0.6,1,0.6,1.7s-0.3,1.2-0.8,1.7c-0.9,0.8-2,1-3.3,0.4s-2.8-1.6-4.5-3.4c-1.6-1.7-2.5-3.2-2.7-4.6c-0.2-1.4,0-2.7,0.7-3.9
		s1.9-2.6,3.6-4.1l10.3-9.6l-0.7-0.7c-0.7-0.8-1.1-1.5-1.1-2.3c0-0.7,0.3-1.4,0.8-1.9c0.6-0.5,1.2-0.7,2-0.7
		S852.7,830.5,853.5,831.3L853.5,831.3z M874.9,874.9c-1.5,1.4-3.2,2.6-5.1,3.4c-3.5,1.5-7.5,1.4-10.9-0.2c-1.7-0.8-3.4-2-4.9-3.7
		c-1.4-1.5-2.5-3.2-3.3-5.1c-0.7-1.7-1-3.6-0.9-5.5c0.1-1.9,0.6-3.7,1.4-5.4c1.9-3.7,5-6.6,8.8-8.3c3.5-1.5,7.4-1.4,10.8,0.2
		c3.7,1.9,6.6,4.9,8.3,8.7c0.7,1.8,1,3.6,1,5.5C879.8,868.5,877.9,872.2,874.9,874.9L874.9,874.9z M869.9,869.6
		c2.2-2,3.4-4.1,3.7-6.2c0.3-2.1-0.3-4-1.8-5.6c-0.9-1-2.1-1.7-3.4-2c-1.4-0.3-2.8-0.2-4.1,0.4c-1.5,0.6-2.9,1.5-4.3,2.8
		c-1.4,1.3-2.4,2.7-3.1,4.1s-0.9,2.8-0.7,4.1s0.8,2.5,1.8,3.6c1.4,1.6,3.4,2.4,5.5,2.1C865.6,872.7,867.7,871.6,869.9,869.6
		L869.9,869.6z M880.7,887.4l-4.5,4.2c-1.1,1-2.1,1.5-3.2,1.5c-1,0-1.9-0.4-2.6-1.2c-0.7-0.7-1-1.7-1-2.7c0.1-1,0.7-2,1.7-3l14.9-14
		c2.4-2.3,4.4-2.5,6-0.8c0.8,0.9,1.2,1.8,1,2.7s-0.8,1.9-1.9,3c1.7-0.4,3.1-0.5,4.3-0.4s2.3,0.8,3.4,1.9s1.8,2.5,2.2,4.1
		s0.2,2.8-0.7,3.7c-0.7,0.6-1.4,0.9-2.3,0.8c-0.8-0.1-1.5-0.3-2-0.9l-1-1.8c-0.5-1-1-1.8-1.5-2.3c-0.6-0.7-1.5-1.2-2.4-1.3
		c-0.9-0.1-1.8,0.1-2.9,0.6s-2.2,1.2-3.4,2.1L880.7,887.4L880.7,887.4z M548.1,879l-8.2,8.8c-1.2,1.3-2.3,1.9-3.4,1.9
		s-2.2-0.6-3.5-1.7l-21.7-20.1c-1.3-1.2-1.9-2.3-2-3.4c0-1.1,0.5-2.2,1.7-3.5l8.7-9.4c1.3-1.4,2.5-2.5,3.6-3.3
		c1-0.9,2.2-1.5,3.5-1.8c1-0.3,2.1-0.4,3.2-0.4c2.2,0.1,4.4,1,6,2.5c2.9,2.7,3.7,6.1,2.3,10.2c4.7-2.7,8.8-2.4,12.3,0.8
		c3.1,2.9,4.3,7.3,3,11.3c-0.4,1.2-1.1,2.5-2,3.8S549.5,877.4,548.1,879L548.1,879z M517.6,862.8l7.5,6.9l5-5.4
		c1.4-1.5,2.3-2.7,2.7-3.8c0.5-1.1,0.5-2.1,0.1-3.3c-0.2-0.8-0.7-1.6-1.4-2.2c-1.5-1.4-2.9-1.7-4.3-1.1c-1.4,0.6-3.1,2-5.1,4.1
		L517.6,862.8z M534.9,867.5l-5.6,6.1l8.4,7.8l5.8-6.3c3.7-4,4.1-7.3,1.2-9.9c-1.5-1.4-3-1.8-4.6-1.4
		C538.1,864.5,536.3,865.8,534.9,867.5L534.9,867.5z M573.6,846.3l-0.7-0.6c0.2,1.4,0.3,2.7,0.2,3.9c-0.2,2.6-1.3,5-3.2,6.8
		c-1.2,1.3-2.6,2.2-4,2.7s-3,0.6-4.4,0.3c-1.8-0.4-3.7-1.6-5.9-3.6l-10.7-9.9c-1.1-1-1.7-2-1.7-3s0.2-1.9,1-2.7s1.6-1.2,2.6-1.2
		s2,0.5,3.1,1.5l8.6,8c1.2,1.2,2.4,2,3.4,2.6c0.9,0.5,2,0.8,3,0.7c1-0.1,1.9-0.6,2.8-1.5c1.7-1.9,2.2-4.7,1.1-7
		c-0.5-1-2-2.7-4.6-5.1l-6.5-6.1c-1.1-1-1.6-2-1.7-3c-0.1-1,0.3-1.9,1-2.7s1.6-1.2,2.6-1.2s2,0.5,3.1,1.5l15.6,14.4
		c1,0.9,1.6,1.9,1.7,2.8c0.1,0.9-0.2,1.9-0.9,2.5c-0.7,0.7-1.5,1.1-2.5,1.1C575.5,847.7,574.6,847.2,573.6,846.3L573.6,846.3z
		 M564.4,813.4c-0.6,0.7-1.5,1.2-2.5,1.3c-1,0.1-1.8-0.2-2.7-1c-0.7-0.7-1.1-1.6-1.1-2.6c0-1,0.4-1.9,1-2.6c0.6-0.7,1.4-1.1,2.4-1.2
		c0.9-0.1,1.8,0.2,2.7,1c1.5,1.3,1.6,3.5,0.4,4.9C564.5,813.3,564.5,813.3,564.4,813.4L564.4,813.4z M572.4,815.9l15.5,14.4
		c1.1,1,1.7,2,1.7,3c0.1,1-0.2,1.9-1,2.7c-0.6,0.8-1.6,1.2-2.6,1.1c-1,0-2.1-0.5-3.1-1.5l-15.4-14.3c-1.1-1-1.6-2-1.7-3
		c-0.1-1,0.2-1.9,1-2.7c0.7-0.8,1.6-1.2,2.6-1.2C570.5,814.6,571.5,815,572.4,815.9z M593.1,824.8l-23.3-21.6c-1.1-1-1.7-2-1.8-3
		s0.2-1.9,1-2.7s1.6-1.2,2.6-1.2s2.1,0.5,3.1,1.5l23.3,21.6c1.1,1,1.7,2,1.8,3s-0.3,1.9-1,2.7c-0.6,0.8-1.6,1.2-2.6,1.1
		C595.2,826.2,594.2,825.7,593.1,824.8L593.1,824.8z M617.1,799.3l-0.5-0.5c0.2,1.5,0.2,2.8,0,4c-0.1,1.2-0.4,2.3-0.9,3.4
		c-0.5,1.1-1.2,2.1-2.1,3.1c-2.3,2.5-5.7,3.8-9.1,3.5c-1.8-0.1-3.5-0.6-5.3-1.5c-1.7-0.9-3.4-2-5-3.5c-3-2.4-5-5.9-5.6-9.7
		c-0.4-3.4,0.8-6.7,3.2-9.1c1.4-1.5,2.9-2.6,4.4-3.2c1.5-0.6,3.3-0.9,5.3-0.8l-7.9-7.4c-1.1-1-1.7-2-1.9-3s0.1-1.9,0.9-2.7
		s1.6-1.2,2.5-1.2s1.9,0.5,2.9,1.5l23.7,22c1,0.9,1.6,1.9,1.6,2.8s-0.2,1.8-0.9,2.5s-1.5,1.1-2.5,1.1
		C619.1,800.7,618.1,800.2,617.1,799.3L617.1,799.3z M599.4,802.5c1.2,1.2,2.7,2.2,4.4,2.8c1.3,0.5,2.7,0.6,4,0.3
		c1.2-0.3,2.3-0.9,3.2-1.9c1.9-1.9,2.4-4.9,1.2-7.3c-0.6-1.4-1.6-2.8-3.2-4.2c-1.4-1.3-2.9-2.2-4.3-2.7s-2.8-0.6-4.1-0.3
		s-2.4,0.9-3.2,1.9c-0.9,1-1.4,2.1-1.6,3.4c-0.2,1.3,0.1,2.6,0.7,4C597.1,800.1,598.1,801.4,599.4,802.5L599.4,802.5z M108.5,817.9
		l5.2,7l23-16.9c1.3-1,2.5-1.4,3.6-1.3c1.1,0.1,2,0.6,2.6,1.6c0.7,1,0.9,2,0.7,3c-0.2,1.1-1,2.1-2.3,3.1l-23,16.9l5.2,7
		c0.8,1.1,1.2,2.1,1.1,3c-0.1,0.9-0.6,1.7-1.3,2.2c-0.8,0.6-1.7,0.8-2.6,0.6s-1.7-0.8-2.5-1.9l-15-20.4c-0.8-1.1-1.2-2.1-1.1-3
		c0.1-0.9,0.6-1.7,1.3-2.2c0.8-0.6,1.6-0.8,2.5-0.6S107.7,816.8,108.5,817.9L108.5,817.9z M113.6,782.5l5.9,13.1
		c1.5-0.7,2.7-1.6,3.6-2.7s1.4-2.3,1.5-3.6c0.2-2.1-0.5-4.2-1.9-5.8c-0.5-0.6-1.1-1.1-1.7-1.5l-2.1-1.1l-2.8-1.2
		c-0.4-0.2-0.8-0.6-1.1-1.3c-0.3-0.7-0.4-1.3-0.2-1.9c0.2-0.6,0.6-1,1.3-1.4c0.6-0.3,1.4-0.4,2.4-0.2c1,0.1,2.1,0.5,3.3,1.1
		c1.2,0.6,2.3,1.5,3.5,2.8c1.1,1.2,2.1,2.8,3,4.6c1.9,4.3,2.2,8.2,0.9,11.7c-1.6,3.7-4.6,6.6-8.3,8.1c-2,0.9-3.9,1.4-5.9,1.6
		c-3.8,0.4-7.5-0.9-10.2-3.5c-1.4-1.4-2.5-3-3.4-5c-1.2-2.6-1.6-5.1-1.4-7.5s1-4.4,2.4-6.1c1.3-1.7,2.9-3,4.7-3.8
		c1.7-0.8,3-0.8,3.9,0S112.8,780.7,113.6,782.5L113.6,782.5z M115.7,797.2l-5.5-12.1c-1.9,0.9-3.4,2.4-4.3,4.2
		c-0.7,1.6-0.6,3.2,0.2,5c0.6,1.6,2,2.8,3.6,3.3C111.7,798.2,113.8,798,115.7,797.2z M108.8,746.3c2-0.3,3.8-0.2,5.4,0.6
		c1.6,0.7,2.9,2,4,3.7c1.1,1.8,1.8,4,2.3,6.7c0.4,2.6,0.4,4.9,0,6.9c-0.5,2-1.2,3.5-2.3,4.6c-0.9,1-2.1,1.7-3.4,1.9
		c-0.8,0.1-1.6-0.1-2.2-0.5c-0.7-0.5-1.1-1.2-1.2-2c-0.1-0.8,0-1.4,0.3-1.8l1.4-1.4c1.2-1,2-2,2.4-3.2c0.5-1.1,0.5-2.6,0.2-4.4
		c-0.2-1.3-0.8-2.4-1.6-3.4c-0.8-0.8-1.6-1.1-2.5-1c-1.3,0.2-2.1,0.9-2.5,1.9s-0.7,2.7-0.8,5c-0.2,2.6-0.5,4.7-0.9,6.4
		s-1.1,3.1-2,4.2c-1,1.2-2.4,1.9-3.9,2.1c-1.4,0.3-2.9,0.1-4.3-0.6c-1.4-0.6-2.7-1.7-3.7-3.3s-1.8-3.5-2.2-5.9
		c-0.3-1.9-0.4-3.6-0.3-5.1c0.1-1.6,0.4-2.9,0.9-4c0.4-1,1-1.9,1.8-2.7c0.7-0.7,1.4-1.1,2.2-1.2c0.8-0.1,1.6,0,2.2,0.5
		s1,1.2,1.2,2.2c0.1,0.7,0,1.4-0.3,2s-0.9,1.3-1.6,2.1c-0.6,0.7-1.1,1.4-1.4,2.2s-0.3,1.9-0.1,3.1c0.2,1.1,0.6,2.2,1.4,3.1
		c0.7,0.8,1.5,1.1,2.3,0.9c0.8-0.1,1.3-0.6,1.7-1.3c0.4-0.7,0.6-1.6,0.8-2.8l0.4-4.6c0.2-2.3,0.5-4.3,1-5.8c0.4-1.4,1.1-2.7,2.1-3.7
		C106.3,747.1,107.4,746.5,108.8,746.3z M89.5,739v-0.8l-4.4-0.2l-2.8-0.2c-0.7-0.1-1.2-0.3-1.7-0.6c-0.5-0.3-0.9-0.8-1.2-1.3
		c-0.7-1.4-0.4-3.2,0.7-4.3c0.5-0.5,1.1-0.8,1.7-0.9l2.9-0.1l5,0.2l0.1-2.7c0-1,0.3-1.8,0.8-2.3s1.2-0.8,1.9-0.7c1,0,1.7,0.5,2,1.3
		c0.4,0.8,0.5,1.9,0.5,3.4l-0.1,1.4l13.5,0.5h2.6c0.6,0,1.1-0.3,1.5-0.6s0.6-0.9,0.6-1.7c0-0.4,0-1-0.2-1.8l-0.2-1.7
		c0-0.6,0.3-1.1,0.8-1.6c0.5-0.5,1.1-0.7,1.8-0.6c1.2,0,2.1,0.7,2.6,2c0.6,1.3,0.8,3.2,0.7,5.6c-0.1,2.3-0.5,4-1.4,5.2
		c-0.7,1.2-1.9,2-3.3,2.2c-1.4,0.3-3.2,0.4-5.5,0.3l-14.1-0.6v1c0,1.1-0.3,1.9-0.8,2.4s-1.2,0.8-1.9,0.8c-0.8,0-1.4-0.3-1.9-0.9
		L89.5,739L89.5,739z M578.2,523.4l2.1,1.9l8.5-9.3c1.1-1.2,2.2-1.9,3.3-2s2,0.3,2.9,1.1c0.9,0.9,1.4,1.8,1.4,2.9
		c0,1.1-0.6,2.2-1.7,3.4l-20.4,22.4c-1.2,1.3-2.3,1.9-3.4,2c-1.1,0.1-2.3-0.5-3.5-1.7l-9.6-8.7c-1.1-1-2.2-2.1-3.2-3.3
		c-0.8-1-1.5-2-1.9-3c-0.6-1.2-0.9-2.5-0.9-3.9c0-2.7,1-5.4,2.9-7.4c2-2.2,4.2-3.3,6.6-3.5c2.4-0.2,5.1,0.6,8.1,2.3
		c-0.5-1.5-0.8-3.2-0.8-5.2s0.2-3.9,0.6-5.8c0.3-1.7,0.8-3.3,1.3-4.9c0.5-1.4,0.9-2.2,1.2-2.6c0.4-0.4,0.8-0.7,1.4-0.8
		c0.6-0.2,1.2-0.1,1.8,0s1.2,0.5,1.8,1c0.7,0.6,1.1,1.3,1.2,2c0.2,0.7,0.2,1.5,0.1,2.2l-0.6,3.3l-1.2,6.1c-0.5,2.2-0.7,4-0.7,5.4
		s0.2,2.5,0.6,3.4C576.5,521.5,577.2,522.5,578.2,523.4L578.2,523.4z M563.7,532.6l5.4,5l7.3-8l-5.3-4.8c-1.2-1.1-2.5-2.1-3.9-2.9
		c-1-0.6-2.2-0.9-3.4-0.8c-1,0.1-2,0.7-3,1.7c-0.7,0.8-1.2,1.7-1.3,2.7c-0.2,1,0,2,0.4,2.9C560.5,529.3,561.7,530.7,563.7,532.6
		L563.7,532.6z M547.6,486.4l9.7,10.6c1.1-1,2-2.3,2.6-3.7c0.5-1.3,0.6-2.6,0.4-3.9c-0.3-1.2-0.9-2.4-1.7-3.3
		c-0.6-0.6-1.2-1.2-1.9-1.6c-0.6-0.4-1.4-0.7-2.1-0.9c-0.8-0.2-1.6-0.4-2.3-0.4l-3-0.3c-0.6-0.1-1.1-0.4-1.4-0.9
		c-0.5-0.6-0.8-1.1-0.8-1.8c0-0.6,0.3-1.2,0.8-1.7c0.5-0.4,1.2-0.8,2.2-1s2.2-0.2,3.5,0s2.7,0.7,4.2,1.5s2.9,2,4.3,3.5
		c3.2,3.5,4.7,7.1,4.4,10.8c-0.3,4-2.3,7.7-5.4,10.3c-1.5,1.4-3.2,2.6-5.1,3.4c-1.8,0.8-3.6,1.2-5.4,1.1s-3.6-0.5-5.3-1.3
		c-4.1-2.1-7.2-5.9-8.4-10.4c-1-4.3,0.4-8.7,3.6-11.7c1.4-1.2,2.6-1.7,3.7-1.3C545.1,484.1,546.3,485,547.6,486.4L547.6,486.4z
		 M554.2,499.8l-9-9.8c-1.7,1.8-2.7,3.6-2.8,5.3s0.5,3.3,1.8,4.7c1.2,1.3,2.7,2,4.4,2S552.2,501.3,554.2,499.8z M527.9,456
		c1.4-1.1,3.2-1.8,5-2c1.7-0.1,3.5,0.4,5.3,1.5s3.5,2.7,5.1,4.9c1.6,2.1,2.6,4.1,3.1,6.1s0.5,3.7,0.1,5.1c-0.3,1.3-1.1,2.5-2.1,3.3
		c-0.6,0.5-1.4,0.7-2.2,0.6s-1.5-0.5-2-1.2c-0.5-0.6-0.7-1.2-0.6-1.8s0.2-1.2,0.5-1.9c0.6-1.4,0.8-2.7,0.7-3.9s-0.7-2.6-1.8-4
		c-0.7-1.1-1.8-1.9-3-2.3c-1.1-0.4-2-0.3-2.6,0.2c-1,0.8-1.5,1.7-1.4,2.9c0.1,1.1,0.6,2.8,1.6,4.9c1,2.4,1.8,4.4,2.2,6.1
		s0.5,3.2,0.1,4.7c-0.3,1.5-1.2,2.8-2.4,3.7c-1.2,0.9-2.6,1.4-4.1,1.5c-1.6,0.1-3.2-0.3-4.8-1.2c-3.3-2-5.8-5.1-7.3-8.6
		c-0.6-1.4-0.9-2.8-1-4s0-2.3,0.4-3.2c0.3-0.9,0.8-1.6,1.4-2.1c0.6-0.5,1.4-0.7,2.2-0.6c0.8,0.1,1.5,0.6,2.1,1.4
		c0.5,0.6,0.7,1.2,0.7,1.9s-0.2,1.6-0.4,2.6c-0.2,0.9-0.3,1.7-0.2,2.6s0.6,1.8,1.3,2.8c0.6,1,1.6,1.7,2.7,2.1c1,0.4,1.8,0.3,2.5-0.2
		c0.6-0.5,0.9-1.1,0.9-1.9s-0.2-1.7-0.6-2.8l-1.8-4.3c-0.9-2.1-1.5-4-1.8-5.6s-0.2-3,0.2-4.3C526.1,457.9,526.8,456.9,527.9,456
		L527.9,456z M510.7,435.3l7.5,12.3c1.3-0.8,2.4-1.8,3.2-3.1c0.7-1.1,1.1-2.4,1.1-3.7c0-1.3-0.4-2.4-1-3.6l-1.5-1.9l-1.9-1.3
		c-0.7-0.4-1.5-0.6-2.2-0.9l-2.9-0.8c-0.5-0.2-0.9-0.5-1.3-1.1c-0.4-0.6-0.5-1.3-0.4-1.9s0.5-1.1,1.1-1.5c0.6-0.3,1.4-0.5,2.4-0.5
		s2.2,0.2,3.4,0.7c3.1,1.3,5.7,3.6,7.3,6.6c2.3,3.4,3.1,7.5,2.3,11.5c-1.1,3.9-3.8,7.1-7.3,9c-1.8,1.1-3.7,1.9-5.7,2.3
		c-1.9,0.4-3.8,0.4-5.5,0.1s-3.4-1.1-5-2.3c-1.6-1.3-3-2.8-4-4.6c-1.4-2.1-2.2-4.6-2.3-7.2c-0.1-4.4,2.1-8.5,5.8-10.8
		c1.6-1,2.9-1.1,3.9-0.5C508.7,432.6,509.7,433.7,510.7,435.3L510.7,435.3z M514.6,449.7l-6.9-11.4c-2,1.5-3.3,3-3.8,4.7
		c-0.5,1.6-0.2,3.3,0.8,4.9c0.9,1.5,2.3,2.6,4,2.9C510.4,451.2,512.4,450.8,514.6,449.7z M505.3,403.7c2,1.1,3.6,2.2,4.9,3.5
		c1.3,1.2,2.4,2.8,3.2,4.7c0.8,1.7,1.1,3.4,1,5s-0.6,3-1.4,4.2c-0.9,1.2-2,2.1-3.3,2.7c-1.8,0.8-3.7,0.9-5.5,0.3
		c-1.9-0.7-3.6-1.9-4.7-3.6l-2.1-2.9l-2.9-3.9c-0.9-1.2-1.8-2.4-2.8-3.5c-1.7,0.9-2.9,1.8-3.4,2.8s-0.4,2.5,0.5,4.5
		c0.5,1.3,1.3,2.5,2.4,3.5c0.9,0.6,1.9,1.1,3.1,1.3l2.5,0.5c0.4,0.1,0.8,0.6,1.2,1.4c0.3,0.8,0.4,1.5,0.1,2.3
		c-0.2,0.8-0.7,1.3-1.5,1.6c-1.2,0.5-2.5,0.6-4,0.3c-1.7-0.4-3.3-1.4-4.5-2.7c-1.7-1.8-3-3.8-4-6.1c-1.3-2.9-2-5.4-2-7.4
		c-0.1-1.8,0.5-3.6,1.7-5c1.5-1.6,3.4-2.9,5.5-3.7l4-1.8l3.7-1.6c1.3-0.6,2.5-1.3,3.7-2.4l2.4-1.8c0.7-0.3,1.5-0.3,2.3,0.1
		c0.9,0.4,1.5,1,1.8,1.8c0.3,0.7,0.3,1.5-0.1,2.5C506.8,401.3,506.2,402.4,505.3,403.7L505.3,403.7z M495.8,408.5
		c0.8,0.8,1.8,2.1,3,3.8c0.8,1.2,1.7,2.4,2.6,3.5c0.5,0.6,1.2,1.2,2,1.6s1.7,0.4,2.7,0s1.7-1.2,2.1-2.3c0.4-1.1,0.3-2.2-0.3-3.5
		c-0.6-1.3-1.4-2.4-2.5-3.3c-0.9-0.8-2.1-1.3-3.3-1.5c-1.3-0.2-3.1,0.3-5.4,1.3L495.8,408.5L495.8,408.5z M492.3,386.1l5.9-1.7
		c1.4-0.4,2.6-0.4,3.5,0.1s1.5,1.2,1.8,2.2s0.2,2-0.4,2.8c-0.5,0.9-1.5,1.5-2.9,1.9l-19.6,5.7c-3.2,0.9-5.1,0.2-5.7-2.1
		c-0.3-1.2-0.2-2.1,0.4-2.8c0.8-0.8,1.9-1.5,3-1.8c-1.7-0.4-3-1-4-1.6c-1-0.7-1.7-1.7-2.1-3.2s-0.5-3-0.1-4.6
		c0.3-1.6,1.1-2.6,2.3-2.9c0.9-0.2,1.7-0.2,2.4,0.3c0.7,0.4,1.2,1,1.4,1.7l0.1,2c0,1.1,0.1,2,0.3,2.8c0.3,1,0.8,1.8,1.5,2.3
		c0.9,0.6,1.9,0.8,2.9,0.8c1.2,0.1,2.5-0.1,4-0.4L492.3,386.1L492.3,386.1z M486,344.9c0.9-0.1,1.9,0,3,0.4s2.2,1.1,3.3,2.1
		c1.1,1,2,2.3,2.8,3.9s1.3,3.5,1.6,5.6c0.6,4.5-0.2,8.2-2.5,11.1c-2.5,3-6.1,4.9-10,5.2c-3,0.4-5.7,0.2-8.1-0.6s-4.4-2.3-6-4.3
		s-2.5-4.5-3-7.6c-0.3-1.9-0.2-3.6,0.1-5.3c0.3-1.6,0.9-3.1,1.6-4.3c0.6-1.1,1.4-2.1,2.4-2.9c0.9-0.7,1.8-1.1,2.6-1.2
		c0.9-0.1,1.6,0.1,2.3,0.7c0.7,0.6,1.1,1.3,1.2,2.2c0.1,0.6,0,1.1-0.3,1.6l-1.3,1.6c-1.2,1.1-2.1,2.1-2.6,3.2s-0.7,2.3-0.5,3.8
		c0.3,2.1,1.4,3.8,3.2,4.8s4.2,1.4,7.1,1c1.4-0.2,2.6-0.5,3.7-1s2-1.1,2.7-1.9c1.4-1.5,2-3.6,1.7-5.7c-0.1-1.3-0.6-2.6-1.5-3.6
		c-0.8-0.9-2-1.7-3.5-2.3c-0.9-0.3-1.6-0.7-2.1-1.2c-0.5-0.5-0.9-1.1-1-1.8c-0.1-0.9,0.1-1.7,0.7-2.3
		C484.6,345.4,485.2,345.1,486,344.9L486,344.9z M459,331.7l10.9,0.5c-0.9-0.9-1.7-1.8-2.4-2.8c-1.3-1.9-1.8-4.2-1.6-6.5
		c0.1-1.9,0.6-3.5,1.4-4.9c0.8-1.4,2.1-2.5,3.6-3.2c0.9-0.5,1.9-0.8,3-0.9s2.3-0.2,3.8-0.1l14,0.6c1.5,0.1,2.6,0.5,3.3,1.2
		c0.7,0.7,1.1,1.6,1,2.7c-0.1,2.4-1.7,3.6-4.6,3.4l-12.4-0.6c-2.3-0.1-4.2,0.2-5.5,0.8s-2,1.9-2.1,3.9c-0.1,1.3,0.3,2.5,1,3.6
		c0.7,1.1,1.7,2,2.9,2.5c1.1,0.4,3,0.7,5.8,0.9l9.7,0.4c1.4,0.1,2.5,0.4,3.3,1.1c0.7,0.7,1.1,1.6,1,2.8c-0.1,2.4-1.7,3.6-4.6,3.4
		l-31.8-1.5c-1.5-0.1-2.6-0.4-3.3-1.1s-1-1.6-1-2.7c0.1-1.2,0.5-2.1,1.3-2.7C456.4,331.9,457.6,331.6,459,331.7L459,331.7z
		 M557.7,118.5l7,8.8l13.5-10.7l-7-8.8c-1-1.3-1.5-2.4-1.4-3.5s0.6-2,1.5-2.7s1.9-1,3-0.9c1.1,0.2,2.1,0.9,3.1,2.2l19.2,24.3
		c1,1.3,1.5,2.5,1.4,3.6s-0.6,2-1.5,2.7s-1.9,1-3,0.8s-2.1-0.9-3.1-2.2l-8.2-10.4l-13.5,10.7l8.2,10.4c1,1.3,1.5,2.5,1.4,3.6
		s-0.6,2-1.5,2.7s-1.9,1-3,0.8s-2.1-0.9-3.1-2.2l-19.2-24.3c-1-1.3-1.5-2.4-1.4-3.5s0.6-2,1.5-2.7s2-1,3-0.9
		C555.7,116.5,556.7,117.2,557.7,118.5z M611.7,125.6l-0.2-1.8L592.8,108c-0.8-0.6-1.5-1.3-2.1-2.1c-0.3-0.6-0.4-1.1-0.4-1.8
		s0.2-1.2,0.6-1.8s0.8-1,1.3-1.3c0.9-0.5,1.8-0.6,2.6-0.2c0.8,0.3,1.7,1,2.6,1.9l14,13l-2.7-17.6l-0.4-3.4c0-0.9,0.1-1.5,0.3-1.9
		s0.7-0.8,1.4-1.2c0.5-0.3,1-0.4,1.6-0.4s1.1,0.2,1.6,0.5s0.9,0.7,1.1,1.2l0.4,1.4l0.4,2l3.3,26.6c0.3,2.3,0.4,4.2,0.3,5.7
		c-0.1,1.4-0.6,2.8-1.4,4c-0.8,1.2-2.2,2.3-4.2,3.4c-1.9,1-3.4,1.6-4.6,1.7c-1.2,0.1-2-0.4-2.6-1.5c-0.4-0.7-0.5-1.4-0.2-2.1
		c0.2-0.6,0.8-1.2,1.7-1.7l1.1-0.4l1.1-0.4c0.7-0.4,1.3-0.8,1.6-1.3c0.3-0.4,0.5-1,0.5-1.8L611.7,125.6L611.7,125.6z M628.5,88.4
		l0.3,0.8c0.8-2,1.7-3.7,2.9-4.9c4.8-4.5,12.2-4.3,16.8,0.4c1.8,1.8,3.1,4.1,4.1,7c0.7,2.1,1.1,4.2,1.1,6.2c0.1,3.5-1.3,6.9-3.8,9.3
		c-1.2,1.1-2.6,2-4.3,2.5c-2,0.7-3.8,0.8-5.4,0.5c-1.6-0.3-3.3-1.1-5-2.2l3.5,10.4c1,3.1,0.4,5-1.8,5.7c-1.3,0.4-2.3,0.3-3-0.3
		c-0.9-0.9-1.5-2-1.8-3.2l-10-30c-0.4-1.3-0.5-2.4-0.1-3.3s1-1.4,2-1.8c1-0.3,1.9-0.3,2.7,0.2C627.5,86.3,628.1,87.2,628.5,88.4z
		 M645.5,94c-0.6-1.8-1.4-3.3-2.4-4.4s-2.1-1.9-3.3-2.3s-2.4-0.4-3.7,0c-1.9,0.6-3.3,1.9-4.1,3.9s-0.7,4.4,0.3,7.3
		c0.6,2.4,2.1,4.4,4.1,5.8c1.7,1.1,3.7,1.3,5.6,0.7c1.2-0.4,2.2-1.1,2.9-2.1c0.8-1,1.2-2.3,1.4-3.8C646.4,97.6,646.1,95.9,645.5,94z
		 M686.4,86.7c0.3,2.2,0.2,4.2-0.2,6.1s-1.2,3.6-2.3,5.1c-1.1,1.5-2.5,2.7-4.2,3.6c-3.6,1.9-7.9,2.5-11.9,1.6
		c-1.9-0.5-3.5-1.3-5-2.4c-1.5-1.1-2.7-2.6-3.6-4.3c-1.9-3.7-2.5-7.9-1.6-12c0.4-1.9,1.2-3.6,2.3-5.1s2.5-2.7,4.2-3.6
		c3.6-2,7.9-2.6,11.9-1.7c1.9,0.5,3.6,1.3,5,2.4c1.5,1.1,2.6,2.6,3.6,4.3C685.5,82.6,686.1,84.6,686.4,86.7L686.4,86.7z M679.1,87.7
		c-0.4-3-1.4-5.2-2.9-6.7s-3.4-2.1-5.6-1.8c-1.4,0.2-2.6,0.7-3.6,1.6s-1.7,2.1-2.1,3.6s-0.5,3.2-0.2,5.1s0.8,3.5,1.5,4.9
		c0.7,1.2,1.7,2.2,2.9,2.9c1.2,0.6,2.5,0.8,3.9,0.6c2-0.2,3.9-1.4,4.9-3.2C679.2,93,679.5,90.7,679.1,87.7L679.1,87.7z M693.4,72.7
		h0.8v-4.4l0.1-2.8c0.1-0.7,0.2-1.2,0.5-1.7c0.6-1.1,1.8-1.7,3-1.7c0.9,0,1.8,0.4,2.5,1.1c0.5,0.5,0.8,1,0.9,1.7l0.2,2.9v5h2.7
		c1,0,1.8,0.3,2.4,0.8s0.8,1.1,0.8,1.9c0,1-0.4,1.7-1.2,2.1s-1.9,0.6-3.3,0.6h-1.4l-0.1,13.5l0.1,2.6c0.1,0.6,0.3,1.1,0.6,1.5
		s0.9,0.6,1.7,0.6l1.7-0.2l1.7-0.2c0.6,0,1.1,0.2,1.6,0.7s0.7,1.1,0.7,1.8c0,1.2-0.7,2.1-2,2.7s-3.1,0.9-5.6,0.9
		c-2.3,0-4-0.4-5.2-1.2c-1.1-0.8-1.9-1.9-2.3-3.2c-0.4-1.8-0.6-3.7-0.5-5.5l0.1-14.1h-1c-1.1,0-1.9-0.3-2.4-0.8
		c-0.6-0.5-0.8-1.1-0.8-1.9s0.3-1.4,0.9-1.9C691.5,72.9,692.3,72.7,693.4,72.7z M723.3,67.2L721.7,78c1-0.8,2-1.5,3.1-2.1
		c1-0.5,2-0.8,3.1-1s2.3-0.1,3.5,0c1.8,0.3,3.4,0.9,4.7,1.9s2.3,2.3,2.9,3.9c0.4,0.9,0.6,2,0.6,3.1l-0.3,3.7l-2,13.9
		c-0.2,1.5-0.7,2.5-1.5,3.1s-1.7,0.9-2.8,0.7c-2.4-0.4-3.4-2-2.9-4.9l1.8-12.2c0.4-1.8,0.3-3.7-0.2-5.5c-0.5-1.4-1.7-2.2-3.7-2.5
		c-1.3-0.2-2.6,0-3.7,0.6c-1.2,0.6-2.1,1.6-2.8,2.7c-0.5,1-1,2.9-1.4,5.7l-1.4,9.6c-0.2,1.4-0.7,2.5-1.5,3.1
		c-0.8,0.7-1.7,0.9-2.9,0.7c-2.4-0.4-3.4-2-2.9-4.9l4.6-31.5c0.2-1.5,0.7-2.5,1.4-3.2c0.7-0.6,1.7-0.9,2.8-0.7
		c1.2,0.2,2,0.7,2.5,1.5C723.3,64.6,723.5,65.7,723.3,67.2L723.3,67.2z M765.5,100.7l-13.7-4.3c-0.5,1.6-0.6,3.1-0.3,4.5
		s0.8,2.6,1.6,3.5s1.9,1.6,3.1,2c0.8,0.3,1.6,0.4,2.4,0.4c0.8,0,1.5-0.1,2.3-0.3l2.2-0.8l2.7-1.3c0.5-0.2,1-0.2,1.7,0
		s1.2,0.6,1.6,1.1s0.4,1.2,0.1,1.9c-0.2,0.6-0.7,1.3-1.4,2c-0.8,0.7-1.8,1.3-3,1.7c-1.2,0.5-2.7,0.7-4.4,0.8c-1.7,0-3.5-0.2-5.5-0.9
		c-3.9-1-7.3-3.6-9.3-7.1c-1.7-3.6-1.9-7.8-0.5-11.6c0.6-2.1,1.5-3.9,2.7-5.5c1.1-1.5,2.5-2.8,4.1-3.7c1.6-0.9,3.3-1.4,5.3-1.6
		c1.9-0.1,4,0.1,6.1,0.8c2.7,0.9,4.9,2.2,6.5,3.9c3,3.2,4,7.7,2.7,11.8c-0.5,1.8-1.4,2.7-2.6,3C768.9,101.5,767.4,101.3,765.5,100.7
		L765.5,100.7z M753.1,92.5l12.7,4c0.6-2.4,0.5-4.4-0.3-6c-0.8-1.5-2-2.6-3.9-3.2c-1.6-0.5-3.4-0.4-4.9,0.5
		C755,88.9,753.8,90.6,753.1,92.5z M797.4,118.1c-0.8,1.8-2,3.2-3.5,4.1c-1.6,0.9-3.5,1.3-5.3,1.2c-2.1-0.1-4.3-0.8-6.8-1.9
		c-2.1-0.9-4.1-2.2-5.7-3.9c-1.2-1.2-2.1-2.8-2.5-4.5c-0.3-1.5-0.2-2.8,0.3-3.9c0.3-0.7,0.9-1.2,1.6-1.5c0.7-0.3,1.6-0.2,2.3,0.1
		c0.7,0.3,1.2,0.7,1.4,1.3c0.2,0.5,0.4,1.2,0.4,1.9c0.1,1.5,0.6,2.8,1.2,3.8c0.7,1,1.8,1.9,3.5,2.7c1.3,0.6,2.6,0.8,3.7,0.6
		c1.1-0.2,1.9-0.7,2.2-1.5c0.5-1.2,0.5-2.2-0.2-3.2c-0.6-0.9-1.9-2.1-3.7-3.5c-1.7-1.3-3.3-2.8-4.8-4.4c-1.1-1.1-1.9-2.6-2.3-4.1
		c-0.4-1.4-0.2-2.9,0.4-4.4c0.6-1.3,1.6-2.4,2.9-3.2c1.3-0.8,3-1.2,4.8-1.2s3.9,0.5,6.1,1.5c1.7,0.8,3.2,1.7,4.4,2.7s2.1,2,2.8,3
		s1,2,1.2,3c0.1,1,0.1,1.8-0.3,2.5c-0.3,0.8-0.9,1.3-1.6,1.5s-1.6,0.2-2.5-0.3c-0.6-0.3-1.2-0.8-1.5-1.4c-0.3-0.6-0.6-1.4-0.8-2.5
		c-0.2-0.9-0.6-1.7-1.1-2.4c-0.7-0.8-1.5-1.5-2.5-1.9c-1.2-0.6-2.3-0.8-3.4-0.6s-1.7,0.6-2.1,1.4c-0.3,0.7-0.3,1.4,0.1,2.1
		c0.5,0.8,1.2,1.6,1.9,2.2c2.7,2.2,5.3,4.6,7.8,7.1c0.9,1.1,1.5,2.4,1.8,3.8C798,115.5,798,116.9,797.4,118.1L797.4,118.1z
		 M816.9,110.7l-10.3,18.5c-0.5,1.1-1.4,1.9-2.5,2.4c-1,0.3-1.9,0.2-2.9-0.3c-0.9-0.5-1.5-1.3-1.7-2.3c-0.2-1.2,0.1-2.4,0.7-3.4
		l10.2-18.3c0.7-1.3,1.5-2.1,2.5-2.4c0.9-0.3,1.9-0.2,2.8,0.3c0.9,0.5,1.5,1.3,1.8,2.3C817.7,108.5,817.5,109.6,816.9,110.7z
		 M817.4,102.3c-0.9-0.5-1.5-1.2-1.8-2.1s-0.2-1.9,0.3-2.9c0.5-0.9,1.2-1.5,2.2-1.7s1.9-0.1,2.8,0.4c0.8,0.5,1.4,1.1,1.8,2
		c0.3,0.9,0.2,1.8-0.3,2.9c-0.5,1-1.3,1.6-2.2,1.8S818.3,102.8,817.4,102.3z M835.5,141.3c-1.1,1.7-2.5,2.9-4.1,3.6
		s-3.4,0.8-5.4,0.4c-2-0.4-4.2-1.4-6.5-2.9c-2.2-1.4-3.9-3-5-4.7c-1-1.4-1.7-3.1-1.8-4.8c-0.1-1.5,0.2-2.8,0.9-3.8
		c0.4-0.6,1.1-1.1,1.8-1.3c0.8-0.2,1.6,0,2.3,0.5c0.6,0.4,1,0.9,1.2,1.4c0.1,0.5,0.2,1.2,0.1,2c-0.1,1.5,0.1,2.8,0.7,3.9
		s1.5,2.2,3.1,3.1c1.2,0.8,2.4,1.2,3.6,1.1c1.1,0,1.9-0.4,2.4-1.1c0.7-1.1,0.8-2.1,0.3-3.2c-0.5-1-1.5-2.4-3.1-4
		c-1.5-1.6-2.9-3.2-4.1-5c-1-1.4-1.5-2.9-1.7-4.4s0.2-2.9,1.1-4.3c0.8-1.3,2-2.2,3.4-2.8c1.6-0.6,3.3-0.8,5-0.5
		c3.8,0.9,7.2,2.8,9.8,5.7c1.1,1.2,1.8,2.3,2.3,3.4s0.7,2.1,0.7,3.1s-0.2,1.8-0.6,2.4c-0.5,0.7-1.1,1.1-1.8,1.3
		c-0.9,0.1-1.8-0.1-2.5-0.6c-0.6-0.4-1-0.9-1.3-1.6c-0.3-0.8-0.4-1.7-0.5-2.6c-0.1-0.9-0.3-1.7-0.7-2.5c-0.5-0.9-1.3-1.7-2.2-2.2
		c-1.1-0.7-2.2-1.1-3.2-1.1s-1.8,0.3-2.3,1c-0.4,0.6-0.5,1.4-0.2,2.1c0.4,0.9,0.9,1.7,1.5,2.4l3.1,3.5c1.6,1.7,2.8,3.3,3.6,4.7
		s1.2,2.8,1.3,4.1C836.6,138.9,836.2,140.2,835.5,141.3L835.5,141.3z M919.5,223.3l-2.6-6.8l-10.4,4c-1.5,0.6-2.8,0.7-3.8,0.2
		c-1-0.4-1.8-1.1-2.2-2.2c-0.4-1.1-0.4-2.2,0.1-3.1c0.5-1,1.5-1.7,3-2.3l28.3-10.9c1.6-0.6,3-0.7,3.9-0.2c1,0.5,1.8,1.5,2.4,3.2
		l3.7,9.6c1.1,2.8,1.7,5.1,1.9,6.8s0,3.2-0.6,4.7c-0.5,1.5-1.4,2.8-2.6,3.9s-2.7,2-4.4,2.7c-3.7,1.4-7,1.4-9.8-0.2
		C923.1,230.5,920.6,227.1,919.5,223.3L919.5,223.3z M935.6,215.1l-1.9-5l-11.2,4.3l1.9,5c0.7,1.8,1.4,3.2,2.2,4.2s1.8,1.7,2.8,2
		c1.1,0.3,2.3,0.2,3.6-0.3c1.5-0.5,2.7-1.6,3.4-3C937.2,220.8,936.9,218.4,935.6,215.1z M923,252.1l-5.9,1.5
		c-1.4,0.4-2.6,0.3-3.5-0.2c-0.9-0.5-1.5-1.3-1.7-2.3c-0.3-1-0.1-2,0.4-2.8c0.8-0.9,1.8-1.6,3-1.8l19.8-5.1c3.2-0.8,5.1-0.1,5.7,2.2
		c0.3,1.2,0.1,2.1-0.5,2.8s-1.6,1.3-3.1,1.7c1.7,0.5,3,1.1,4,1.8c1.1,0.8,1.8,2,2,3.3c0.4,1.5,0.4,3.1,0,4.6
		c-0.4,1.6-1.2,2.6-2.4,2.9c-0.9,0.2-1.7,0.1-2.4-0.3c-0.7-0.5-1.2-1-1.3-1.7v-2c0.1-1.1,0-2-0.2-2.8c-0.3-1-0.8-1.8-1.5-2.3
		s-1.7-0.8-2.8-0.9c-1.2-0.1-2.5,0-4,0.2L923,252.1L923,252.1z M934.9,293c-2.2,0.3-4.2,0.3-6.1-0.1c-3.7-0.7-6.9-3-8.8-6.3
		c-1-1.7-1.6-3.6-1.9-5.8c-0.3-2.2-0.3-4.2,0.2-6.1c0.4-1.9,1.2-3.5,2.4-5c1.1-1.5,2.5-2.7,4.2-3.6c3.7-1.9,7.9-2.6,12-1.8
		c3.7,0.7,6.9,3,8.8,6.3c1,1.7,1.6,3.6,1.9,5.8c0.3,2.2,0.3,4.2-0.2,6.1c-0.4,1.9-1.2,3.6-2.3,5c-1.1,1.5-2.5,2.7-4.2,3.6
		S937.1,292.6,934.9,293L934.9,293z M933.8,285.7c3-0.4,5.2-1.4,6.6-3s2-3.4,1.7-5.6c-0.2-1.3-0.8-2.6-1.7-3.6c-1-1-2.2-1.7-3.6-2
		c-1.5-0.4-3.2-0.4-5.2-0.1c-1.7,0.2-3.3,0.8-4.8,1.6c-1.2,0.7-2.2,1.7-2.9,3c-0.6,1.2-0.8,2.5-0.6,4c0.2,2.1,1.5,3.9,3.3,4.9
		C928.5,285.8,930.9,286.1,933.8,285.7L933.8,285.7z M949.4,299v0.8l4.4-0.2h2.8c0.7,0,1.3,0.2,1.8,0.4c0.5,0.3,0.9,0.7,1.3,1.2
		c0.3,0.5,0.5,1.1,0.6,1.8c0,0.9-0.3,1.8-0.9,2.6c-0.4,0.5-1,0.9-1.7,1c-0.7,0.2-1.6,0.3-2.8,0.3l-5,0.2l0.1,2.7
		c0,1-0.2,1.8-0.6,2.4c-0.5,0.6-1.1,0.9-1.9,0.9c-1,0-1.7-0.3-2.1-1.1c-0.4-0.8-0.7-1.9-0.7-3.3l-0.1-1.4L931,308l-2.6,0.2
		c-0.6,0.1-1.1,0.3-1.5,0.7c-0.4,0.4-0.5,0.9-0.5,1.7l0.3,1.7l0.3,1.7c0,0.6-0.2,1.1-0.6,1.6c-0.5,0.5-1,0.8-1.7,0.8
		c-1.2,0.1-2.1-0.5-2.8-1.8s-1.1-3.1-1.2-5.5c-0.1-2.3,0.2-4,0.9-5.3c0.7-1.2,1.7-2,3.1-2.5c1.3-0.4,3.1-0.7,5.4-0.8l14.1-0.6v-1
		c0-1.1,0.2-1.9,0.6-2.4c0.5-0.6,1.1-0.9,1.9-0.9c0.8,0,1.4,0.2,1.9,0.8C949,297.1,949.3,297.9,949.4,299L949.4,299z M934.2,346.6
		c-4-0.1-7.8-1.7-10.6-4.6c-1.2-1.4-2.2-3-2.8-4.8c-1.2-4-1-8.2,0.7-12c1.7-3.4,4.7-6,8.3-7.1c1.9-0.6,3.9-0.8,6.1-0.6
		c2.2,0.1,4.2,0.6,6,1.4s3.3,1.9,4.5,3.2c1.2,1.4,2.1,3,2.7,4.8c1.2,4,0.9,8.2-0.8,12c-0.8,1.8-1.9,3.2-3.3,4.4
		c-1.4,1.2-3,2.1-4.9,2.6C938.5,346.6,936.4,346.8,934.2,346.6z M934.7,339.3c3,0.2,5.3-0.3,7.1-1.5s2.7-2.9,2.8-5.1
		c0.1-1.4-0.2-2.7-0.9-3.9c-0.7-1.1-1.7-2-3.1-2.7c-1.4-0.7-3.1-1.1-5-1.2s-3.6,0.1-5.1,0.6c-2.7,0.8-4.6,3.2-4.8,6
		c-0.1,2.2,0.6,4,2.2,5.5C929.5,338.3,931.7,339.1,934.7,339.3L934.7,339.3z M947,355.7l-0.1,0.8l4.3,0.8l2.7,0.6
		c0.6,0.2,1.2,0.4,1.6,0.8c0.4,0.4,0.8,0.8,1,1.4s0.3,1.2,0.2,1.9c-0.2,0.9-0.7,1.7-1.5,2.3c-0.5,0.4-1.2,0.6-1.8,0.6l-2.9-0.3
		l-4.9-0.9l-0.5,2.6c-0.2,1-0.6,1.8-1.1,2.2c-0.6,0.5-1.2,0.6-2,0.5c-1-0.2-1.6-0.7-1.8-1.5c-0.3-0.8-0.3-2,0-3.4l0.2-1.3l-13.3-2.3
		l-2.6-0.3c-0.6,0-1.2,0.1-1.6,0.4s-0.7,0.8-0.9,1.6l-0.1,1.8l-0.1,1.7c-0.1,0.6-0.4,1.1-1,1.5s-1.2,0.5-1.9,0.4
		c-1.2-0.2-1.9-1-2.3-2.4s-0.4-3.3,0-5.6s1.1-3.9,2-4.9s2.1-1.6,3.5-1.7s3.2,0,5.5,0.4l13.9,2.4l0.2-1c0.1-0.9,0.6-1.7,1.2-2.3
		c0.6-0.5,1.3-0.6,2-0.5c0.8,0.1,1.3,0.5,1.7,1.2C947.1,353.7,947.2,354.6,947,355.7L947,355.7z"/>
	<path class="st4" d="M912.3,374.6l1.4,1.1l24.3-2.4c1.4-0.2,2.4-0.2,3,0s1.1,0.5,1.5,0.9c0.4,0.5,0.7,1,0.9,1.6s0.1,1.2,0,1.8
		c-0.3,1-0.8,1.7-1.6,2s-1.8,0.5-3.2,0.6l-19.1,1l14.5,10.3c1.2,0.8,2.1,1.5,2.7,2.1c0.6,0.6,1,1.1,1.2,1.6c0.1,0.5,0.1,1.1-0.1,1.8
		c-0.2,0.5-0.5,1-0.9,1.4c-0.4,0.4-0.9,0.7-1.5,0.8c-0.6,0.1-1.1,0.1-1.6,0c-0.4-0.3-0.9-0.5-1.3-0.7l-1.7-1.1l-21.4-16.1
		c-1.5-1.1-3-2.3-4.3-3.7c-1-1.1-1.6-2.4-1.9-3.8c-0.3-1.4-0.1-3.2,0.5-5.3c0.6-2.1,1.3-3.6,2-4.5s1.7-1.2,2.9-0.8
		c0.8,0.2,1.4,0.7,1.7,1.3c0.3,0.6,0.3,1.4,0,2.4l-0.5,1.1l-0.5,1.1c-0.2,0.8-0.3,1.5-0.2,2s0.4,1.1,0.9,1.6L912.3,374.6
		L912.3,374.6z M927.8,412.1l-0.8-0.4c0.9,1.7,1.5,3.5,1.7,5.4c0.2,4-1.7,7.8-5,10.1c-1.8,1.3-4,2-6.5,2.1s-5.1-0.4-7.9-1.7
		c-3.6-1.5-6.7-4.3-8.6-7.7c-1.4-3.1-1.4-6.6-0.1-9.7c0.6-1.7,1.8-3.2,3.3-4.3c1.3-1,3-1.7,5-2.2l-10.1-4.4c-3-1.3-4-3-3-5.2
		c0.6-1.3,1.3-1.9,2.2-2s2.1,0.2,3.6,0.8l29,12.7c1.3,0.6,2.1,1.3,2.5,2.1c0.4,0.8,0.4,1.7-0.1,2.7c-0.4,1-1.1,1.6-2,1.9
		C930.1,412.8,929,412.7,927.8,412.1L927.8,412.1z M912.3,421c1.5,0.7,3.2,1.2,4.9,1.2c1.5,0,2.8-0.3,3.9-1s1.9-1.6,2.4-2.7
		c0.8-1.9,0.8-3.7-0.1-5.6c-0.9-1.9-2.8-3.5-5.6-4.7c-2.7-1.2-5-1.4-7.1-0.8c-2,0.6-3.5,1.9-4.3,3.7c-0.5,1.1-0.6,2.3-0.4,3.5
		c0.2,1.2,0.9,2.4,1.9,3.6C909,419.3,910.5,420.2,912.3,421L912.3,421z M894,450l7.4-12.3c-1.4-0.8-2.9-1.3-4.3-1.4
		s-2.7,0.2-3.8,0.7c-2.5,1.5-4,4.2-4,7.1l0.2,2.3l0.6,3c0.1,0.5-0.1,1-0.4,1.6c-0.4,0.6-0.9,1.1-1.5,1.2c-0.6,0.2-1.2,0.1-1.9-0.3
		c-0.6-0.3-1.1-1-1.6-1.9c-1.1-2.4-1.4-5.1-0.7-7.7c0.4-1.6,1.1-3.3,2.1-5.1c2.4-4,5.5-6.5,9.1-7.3c3.7-0.9,7.4-0.1,11.4,2.3
		c1.9,1.1,3.4,2.4,4.7,3.9c2.5,2.9,3.5,6.7,2.9,10.4c-0.9,4.6-3.6,8.6-7.6,11.1c-3.8,2.1-8.5,2-12.2-0.2c-1.6-1-2.3-2-2.3-3.2
		C892.4,453.1,893,451.7,894,450L894,450z M904.9,439.9l-6.9,11.4c1.8,1,3.9,1.4,5.9,1.2c1.7-0.4,3-1.4,4-3c0.9-1.4,1.2-3.2,0.7-4.8
		C907.9,442.7,906.6,441.1,904.9,439.9L904.9,439.9z"/>
	<path class="st5" d="M328.9,713.4c0,7.4-1,13.8-2.9,19c-3.4,9.9-11.4,17.4-21.5,20.2c-6.1,1.7-12.3,2.5-18.6,2.4h-19.3
		c-1.4,0-2.5-0.4-3.5-1.2s-1.4-2.1-1.4-4v-70.5c0-1.8,0.5-3.2,1.4-4s2.1-1.2,3.5-1.2h20.8c7.2,0,13.3,0.8,18.3,2.5s9.3,4.2,12.7,7.5
		s6.1,7.4,7.8,12.3C328.1,701.9,329,707.6,328.9,713.4z M311.9,714c0-3.8-0.4-7.4-1.3-10.7c-1.5-6.4-5.9-11.7-11.9-14.3
		c-3.1-1.4-7.2-2-12.2-2H278v55h8.6c4.5,0,8.3-0.6,11.4-1.8s5.7-2.9,7.7-5.3c2.1-2.4,3.6-5.3,4.6-8.8
		C311.3,722.7,311.9,718.6,311.9,714L311.9,714z M392.9,723.4c0,1.9-0.4,3.3-1.3,4.3c-0.9,0.9-2,1.4-3.5,1.4h-33.9
		c0,2.4,0.3,4.5,0.8,6.5s1.5,3.6,2.7,4.9c1.2,1.4,2.8,2.4,4.8,3.1c1.9,0.7,4.3,1.1,7,1.1c4.3,0.1,8.6-0.6,12.7-1.9l3.8-1.3
		c0.8-0.3,1.6-0.5,2.4-0.6l0.9,0.2c0.3,0.1,0.5,0.4,0.6,0.8c0.2,0.4,0.3,0.9,0.3,1.6l0.1,2.6l-0.1,2.3l-0.2,1.7l-0.4,1.2l-0.7,0.9
		c-0.3,0.3-1,0.7-2.2,1.2c-3.5,1.4-7.2,2.4-11,2.8c-7,1.1-14.1,0.6-20.8-1.4c-3.5-1.1-6.7-3.1-9.3-5.7c-2.6-2.7-4.5-6-5.6-9.6
		c-1.3-4.4-1.9-9-1.8-13.6c0-5,0.6-9.4,1.9-13.4s3.2-7.4,5.6-10.1c2.4-2.8,5.5-5,9-6.3c3.8-1.5,7.8-2.3,11.9-2.2
		c4.7,0,8.7,0.7,12,2.1s6,3.3,8.2,5.7s3.7,5.3,4.7,8.7c1,3.3,1.5,7,1.5,10.9v2.1H392.9z M377.7,718.9c0.1-4.4-0.8-7.9-2.7-10.4
		c-1.9-2.5-4.8-3.8-8.8-3.8c-2,0-3.7,0.4-5.2,1.1c-1.5,0.8-2.7,1.8-3.7,3c-1,1.4-1.8,2.9-2.3,4.5c-0.5,1.7-0.8,3.6-0.9,5.5h23.6
		V718.9z M456.5,697.1v0.8l-0.1,1l-0.3,1.2l-0.4,1.6L439,752c-0.2,0.7-0.5,1.3-0.8,1.7c-0.4,0.4-0.9,0.8-1.8,1s-1.9,0.4-3.3,0.5
		l-5.5,0.1c-2.9-0.1-5.8-0.3-8.7-0.7c-0.8-0.3-1.4-0.6-1.7-1c-0.4-0.4-0.6-1-0.8-1.7l-16.8-50.4l-0.6-2.3l-0.3-1.4V697
		c0-0.4,0.1-0.8,0.3-1.1c0.2-0.3,0.6-0.6,1.2-0.8s1.4-0.4,2.4-0.4l3.8-0.1l4.1,0.2l2.5,0.4c0.6,0.2,1,0.5,1.3,0.8
		c0.3,0.4,0.5,0.8,0.6,1.3l12.7,40.9l0.4,1.6l0.4-1.6l12.5-40.9c0.1-0.5,0.3-0.9,0.6-1.3s0.7-0.6,1.3-0.8c4-0.7,8.2-0.7,12.2-0.1
		c0.5,0.2,0.9,0.5,1.1,0.8C456.4,696.3,456.5,696.7,456.5,697.1L456.5,697.1z M1028,713.7c0,6.7-0.8,12.7-2.5,18
		c-1.5,5-4,9.6-7.4,13.5c-3.3,3.7-7.5,6.6-12.2,8.4c-5.4,2-11.1,3-16.8,2.9c-6.3,0-11.8-0.8-16.5-2.5s-8.6-4.2-11.7-7.5
		s-5.5-7.7-7-12.9c-1.7-6-2.4-12.3-2.3-18.5c0-6.5,0.8-12.4,2.5-17.7c1.7-5.2,4.1-9.7,7.4-13.3c3.3-3.7,7.4-6.5,12.2-8.4
		c4.9-2,10.5-2.9,16.9-2.9c6.1,0,11.5,0.8,16.2,2.4c9.4,3,16.5,10.7,18.9,20.3C1027.3,701.4,1028.1,707.6,1028,713.7L1028,713.7z
		 M1010.7,714.5c0-3.9-0.3-7.8-1-11.6c-0.7-3.5-1.8-6.5-3.4-8.9c-1.6-2.5-3.8-4.5-6.4-5.8c-2.7-1.4-6-2-10-2s-7.4,0.8-10.1,2.3
		c-2.6,1.5-4.9,3.6-6.6,6.1c-1.7,2.7-2.9,5.7-3.5,8.9c-1.4,7.5-1.4,15.2,0,22.7c0.6,3.2,1.7,6.2,3.4,9c1.6,2.5,3.7,4.4,6.4,5.7
		s6,2,10.1,2c4,0,7.4-0.8,10.1-2.3c2.7-1.5,4.9-3.5,6.6-6.1c1.7-2.6,2.8-5.6,3.5-9S1010.7,718.4,1010.7,714.5L1010.7,714.5z
		 M1097,724.2c0,5-0.5,9.4-1.6,13.4c-0.9,3.7-2.5,7.1-4.7,10.2c-2,2.8-4.6,4.9-7.6,6.4c-4.6,2.2-9.9,2.9-14.9,1.8
		c-2.8-0.7-5.4-2-7.7-3.8c-1.3-1-2.5-2.1-3.9-3.4V775c0,0.4-0.1,0.8-0.4,1.1s-0.7,0.6-1.3,0.8c-3.3,0.6-6.7,0.8-10,0.5
		c-0.8-0.1-1.6-0.2-2.4-0.5c-0.6-0.2-1-0.5-1.3-0.8s-0.4-0.7-0.4-1.1v-77.9c0-0.4,0.1-0.8,0.3-1.1c0.2-0.3,0.6-0.6,1.1-0.8
		c0.7-0.3,1.4-0.4,2.1-0.5c2.1-0.3,4.3-0.3,6.4,0c0.9,0.1,1.5,0.3,2.1,0.5c0.5,0.2,0.9,0.5,1.1,0.8s0.3,0.7,0.3,1.1v6.6
		c2.9-2.9,6.1-5.5,9.6-7.6c1.6-0.9,3.3-1.5,5-1.9c5.4-1.2,11-0.6,15.9,1.8c2.9,1.6,5.2,3.8,7,6.6c1.9,3,3.2,6.3,4,9.8
		C1096.6,716.1,1097,720,1097,724.2L1097,724.2z M1080.6,725.3c0-2.4-0.2-4.7-0.5-6.8c-0.4-2.2-1-4.1-1.8-5.8
		c-0.9-1.7-2-3.1-3.4-4.1c-1.5-1-3.4-1.6-5.2-1.5c-2.2,0-4.4,0.7-6.2,2c-1.1,0.7-2.2,1.6-3.3,2.8s-2.3,2.5-3.6,4.2v18.4
		c2.2,2.8,4.3,4.9,6.3,6.5c2,1.5,4.1,2.3,6.3,2.3c2,0,3.8-0.5,5.2-1.6c1.4-1,2.6-2.4,3.5-4.1c0.9-1.7,1.6-3.6,2-5.7
		S1080.6,727.5,1080.6,725.3L1080.6,725.3z M1148.2,737.2c0,3.2-0.6,6-1.8,8.4c-1.2,2.4-2.9,4.5-5,6.1c-2.3,1.7-4.9,2.9-7.7,3.7
		c-8.2,2.1-16.8,1.4-24.5-2c-1-0.5-1.7-1-2.2-1.4s-0.8-1.1-1.1-2.1s-0.4-2.3-0.4-4.2l0.1-2.9c0.1-0.6,0.2-1.2,0.4-1.8l0.6-0.9
		l0.9-0.2c0.5,0,1.1,0.3,2,0.8c2.6,1.4,5.2,2.6,8,3.5c3.2,0.9,6.5,1,9.8,0.4c1.1-0.3,2.1-0.7,2.9-1.3c0.8-0.5,1.4-1.2,1.8-2.1
		c0.4-0.8,0.6-1.8,0.6-2.9c0-1.3-0.4-2.3-1.2-3.2c-0.9-1-1.9-1.8-3.1-2.3c-1.3-0.7-2.7-1.3-4.3-1.9l-4.9-1.9
		c-1.7-0.7-3.3-1.5-4.9-2.4c-3.3-1.9-5.9-4.7-7.4-8.2c-0.8-1.9-1.2-4.1-1.2-6.8s0.5-5.1,1.6-7.3c1-2.2,2.5-4.1,4.5-5.7
		c2-1.6,4.3-2.8,7.2-3.7c4.7-1.4,9.7-1.7,14.6-0.9l4.5,0.9l3.4,1.2l2,1.1c0.4,0.3,0.7,0.6,0.8,0.9l0.4,1.1l0.2,1.6l0.1,2.4l-0.1,2.8
		l-0.3,1.7c-0.1,0.4-0.3,0.7-0.6,0.8l-0.9,0.2c-0.4,0-1-0.2-1.8-0.7c-2.3-1.1-4.7-2.1-7.1-2.8c-2.9-0.8-6-0.9-9-0.3
		c-0.9,0.2-1.8,0.7-2.6,1.3c-0.7,0.5-1.2,1.2-1.5,1.9c-0.3,0.7-0.5,1.5-0.5,2.3c0,1.3,0.4,2.4,1.2,3.3c0.8,0.9,1.8,1.6,3.1,2.3
		c1.3,0.7,2.8,1.3,4.4,1.9l5,1.9c1.7,0.7,3.4,1.5,5,2.4s3.1,2,4.4,3.4c1.3,1.3,2.3,2.9,3.1,4.8
		C1147.8,732.4,1148.2,734.6,1148.2,737.2L1148.2,737.2z"/>
	<path class="st0" d="M459,462.1l37.4,46.7l43.4,54.3h-140c-109.5,0-153.8,23.7-180.5,27.1l17-65L161,508.5
		c21.9-10.6,82.2-46.4,238.8-46.4H459z"/>
	<path class="st4" d="M278.3,524.4l-2.8,0.3l1.2,12.6c0.2,1.7-0.1,2.9-0.7,3.8c-0.7,0.9-1.6,1.3-2.7,1.4c-1.1,0.1-2.2-0.2-3.1-0.9
		c-0.8-0.8-1.2-1.9-1.4-3.5l-2.9-30.2c-0.2-1.7,0.1-3,0.8-3.8c0.7-0.8,1.9-1.3,3.6-1.5l12.9-1.2c1.8-0.2,3.3-0.2,4.6-0.2
		c1.3,0,2.4,0.2,3.5,0.6c4.1,1.2,6.9,4.9,7.1,9.1c0.3,2.9-0.3,5.3-1.8,7.2c-1.9,2.1-4.3,3.7-7.1,4.4c1.5,0.6,2.9,1.6,4.4,2.9
		c2.6,2.5,4.9,5.4,6.7,8.5c0.5,0.8,0.9,1.7,1.1,2.7l-0.3,1.6c-0.3,0.5-0.7,1-1.2,1.3s-1.2,0.6-1.9,0.6c-0.9,0.1-1.7-0.1-2.3-0.4
		c-0.6-0.4-1.2-0.8-1.7-1.4l-2-2.7l-3.7-5c-1-1.5-2.2-2.9-3.5-4.1c-1-0.9-2-1.5-2.9-1.8C280.9,524.3,279.7,524.3,278.3,524.4
		L278.3,524.4z M281.3,507.5l-7.3,0.7l1,10.8l7.1-0.7c1.9-0.2,3.5-0.5,4.8-1c1.1-0.4,2.1-1.1,2.8-2c0.6-0.9,0.8-2,0.7-3.4
		c-0.1-1.1-0.5-2-1.1-2.8c-0.6-0.8-1.5-1.4-2.5-1.6C285.8,507.3,284,507.2,281.3,507.5L281.3,507.5z M326,524.4l-14.3,1.3
		c0.2,1.7,0.6,3.1,1.4,4.3c0.7,1.1,1.7,2,2.9,2.6c1.1,0.5,2.4,0.8,3.7,0.6l2.4-0.5c0.7-0.3,1.4-0.7,2-1.2l1.7-1.6l2-2.2
		c0.3-0.4,0.9-0.6,1.6-0.6c0.7-0.1,1.4,0.1,1.9,0.5s0.8,0.9,0.9,1.7c0.1,0.7-0.1,1.5-0.6,2.4c-0.4,0.9-1.1,1.8-2.1,2.8
		c-1,0.9-2.2,1.7-3.8,2.4c-1.5,0.7-3.3,1.1-5.4,1.3c-4.7,0.4-8.5-0.6-11.3-3s-4.5-6-4.9-10.5c-0.2-2.2,0-4.2,0.4-6.1
		c0.5-1.9,1.3-3.6,2.4-5s2.5-2.6,4.3-3.4c1.7-0.9,3.7-1.4,5.9-1.6c4.9-0.7,9.7,1.4,12.5,5.5c1.2,1.8,1.9,3.7,2,5.7
		c0.2,1.8-0.3,3.1-1.3,3.7C329.3,523.9,327.9,524.3,326,524.4L326,524.4z M311.3,521.6l13.2-1.2c-0.4-2.5-1.2-4.3-2.5-5.4
		c-1.3-1.1-3.1-1.6-4.8-1.4c-1.8,0.2-3.3,0.9-4.3,2.3S311.3,519.1,311.3,521.6L311.3,521.6z M338.9,532l-2.7-31.7
		c-0.1-1.5,0.1-2.6,0.7-3.4c0.6-0.8,1.5-1.3,2.5-1.3c1.1-0.1,2,0.2,2.8,0.9c0.8,0.9,1.3,2,1.3,3.2l2.7,31.7c0.1,1.5-0.1,2.6-0.7,3.4
		c-0.6,0.8-1.5,1.2-2.6,1.3s-2-0.2-2.7-0.9C339.4,534.5,339,533.4,338.9,532L338.9,532z M373.4,520.4l-14.3,1.2
		c0.2,1.7,0.6,3.1,1.4,4.3c1.4,2.2,3.9,3.5,6.5,3.3c1.6-0.1,3.1-0.7,4.4-1.6l1.8-1.6l2.1-2.2c0.3-0.4,0.9-0.6,1.6-0.6
		c0.7-0.1,1.4,0.1,1.9,0.5s0.8,0.9,0.8,1.7c0.1,0.7-0.1,1.5-0.6,2.4c-0.5,1-1.3,1.9-2.1,2.7c-2.6,2.1-5.8,3.4-9.2,3.6
		c-4.7,0.4-8.5-0.6-11.3-3.1s-4.4-6-4.8-10.6c-0.2-2.2,0-4.2,0.5-6.1c0.8-3.7,3.3-6.8,6.7-8.4c1.7-0.9,3.7-1.4,5.9-1.6
		c2.9-0.2,5.4,0.2,7.5,1.2c3.9,1.9,6.6,5.7,7,10c0.2,1.8-0.3,3.1-1.3,3.7C376.5,520,375,520.4,373.4,520.4L373.4,520.4z
		 M358.8,517.5l13.2-1.1c-0.4-2.5-1.2-4.3-2.5-5.4c-1.3-1.1-3.1-1.7-4.8-1.5c-1.8,0.2-3.3,0.9-4.3,2.3
		C359.3,513.5,358.7,515.5,358.8,517.5L358.8,517.5z M404.7,527.2c-1.5,1.3-3.1,2.5-4.9,3.4c-3.3,1.6-7.1,1.8-10.5,0.6
		c-1.4-0.6-2.6-1.6-3.5-2.8c-0.8-1.2-1.3-2.6-1.4-4.1c-0.1-2,0.4-3.7,1.6-5.2s2.9-2.5,5-3.2c1.1-0.3,2.3-0.6,3.4-0.9l4.7-1.3
		l4.2-1.4c-0.1-1.5-0.6-3-1.4-4.2c-0.7-0.9-2.2-1.2-4.4-1.1c-1.9,0.1-3.2,0.5-4.1,1c-1,0.6-1.8,1.5-2.3,2.5l-1.3,2.1
		c-0.3,0.3-0.8,0.5-1.8,0.6c-0.8,0.1-1.5-0.2-2.2-0.7c-0.6-0.5-1-1.1-1-2c-0.1-1.4,0.3-2.7,1.1-3.8c1-1.5,2.4-2.6,4.1-3.3
		c1.9-0.9,4.3-1.4,7.1-1.6c3.2-0.2,5.8,0,7.7,0.7c1.9,0.6,3.3,1.8,4.1,3.4c0.9,1.6,1.4,3.8,1.5,6.5l0.3,4.4l0.2,4
		c0.1,1.5,0.4,2.9,1,4.3l0.9,2.8c0,0.8-0.3,1.5-0.9,2.1c-0.7,0.7-1.4,1-2.3,1.1c-0.8,0-1.5-0.3-2.3-0.9
		C406.3,529.3,405.5,528.3,404.7,527.2L404.7,527.2z M403.5,516.6c-2.9,1-5.8,1.9-8.8,2.7c-0.8,0.3-1.5,0.7-2.2,1.3s-1,1.5-0.9,2.6
		s0.5,2,1.4,2.7s2,1,3.4,1c1.4-0.1,2.8-0.5,3.9-1.2c1.2-0.7,2-1.6,2.5-2.6c0.6-1.1,0.8-3,0.6-5.5L403.5,516.6z M442,520.3
		c0.1,2-0.4,3.8-1.3,5.2c-1,1.6-2.5,2.8-4.3,3.4c-1.9,0.8-4.2,1.2-7,1.3c-2.6,0.1-4.9-0.3-6.8-1c-1.6-0.6-3.1-1.6-4.2-2.9
		c-0.9-1-1.3-2.3-1.4-3.6c0-0.8,0.2-1.5,0.8-2.1c0.6-0.6,1.4-0.9,2.2-0.9c0.6,0,1.3,0.1,1.8,0.5c0.4,0.4,0.8,0.9,1.2,1.6
		c0.7,1.2,1.7,2.2,2.8,2.9c1.1,0.6,2.5,0.9,4.3,0.9c1.5,0,2.7-0.4,3.6-1.1c0.9-0.7,1.4-1.4,1.3-2.3c0-1.3-0.5-2.2-1.5-2.8
		s-2.6-1.1-4.9-1.6c-2.5-0.6-4.6-1.2-6.2-1.8s-2.9-1.5-3.9-2.6c-1-1.1-1.5-2.6-1.5-4.1c0-1.5,0.4-2.9,1.2-4.2s2.1-2.4,3.8-3.2
		s3.7-1.3,6.2-1.3c3.1-0.2,6.2,0.5,8.9,2c1,0.6,1.8,1.3,2.4,2.1c0.5,0.8,0.8,1.6,0.9,2.3c0,0.8-0.2,1.5-0.8,2.1
		c-0.5,0.6-1.3,0.8-2.4,0.9c-0.8,0-1.4-0.2-1.9-0.6s-1.2-1-1.9-1.9c-0.5-0.7-1.2-1.3-2-1.7c-0.8-0.4-1.8-0.6-3.1-0.6
		s-2.4,0.3-3.3,0.9s-1.3,1.3-1.3,2.1s0.4,1.4,1,1.9c0.7,0.5,1.5,0.9,2.6,1.2l4.5,1.1c2.3,0.5,4.2,1.1,5.6,1.8
		c1.5,0.7,2.6,1.6,3.3,2.6C441.6,517.8,442,519,442,520.3L442,520.3z M468.8,517.2l-14.3-0.3c0,1.7,0.3,3.1,0.9,4.4
		c1.1,2.4,3.5,3.9,6.1,3.9c1.6,0,3.1-0.4,4.5-1.2l1.9-1.4l2.3-2c0.5-0.4,1-0.5,1.6-0.4c0.8,0,1.4,0.2,1.8,0.7c0.5,0.4,0.7,1,0.7,1.8
		c0,0.7-0.3,1.4-0.8,2.3c-0.6,1-1.4,1.9-2.4,2.5c-1.1,0.8-2.4,1.4-4,1.9s-3.4,0.7-5.5,0.7c-4.7-0.1-8.3-1.5-10.9-4.3
		c-2.7-3-4-7-3.7-11c0-2.2,0.4-4.2,1.1-6s1.7-3.4,2.9-4.7c1.3-1.3,2.8-2.3,4.6-2.9s3.8-1,6-0.9c2.9,0.1,5.3,0.7,7.3,2
		c3.7,2.3,6,6.3,5.9,10.7c0,1.8-0.6,3-1.7,3.5C472.2,517,470.7,517.3,468.8,517.2L468.8,517.2z M454.5,512.7l13.3,0.3
		c0-2.1-0.6-4.1-1.9-5.7c-1.2-1.3-2.9-2-4.6-2c-1.8,0-3.3,0.6-4.5,1.8C455.5,508.7,454.7,510.6,454.5,512.7L454.5,512.7z"/>
</g>
<g id="Layer_2">
	<path class="st6" d="M698.8,254.6c0-0.6-0.2-1.1-0.5-1.6c-0.4-0.5-1-0.9-1.9-1.2c-6.1-1.3-12.5-1.3-18.6,0
		c-0.9,0.3-1.5,0.7-1.9,1.2s-0.5,1-0.5,1.6v70.3c0,4.1-0.6,7.7-1.7,11c-1,3-2.6,5.8-4.7,8.1c-2,2.2-4.5,3.9-7.5,5s-6.3,1.7-10,1.7
		s-7-0.6-10-1.7c-2.9-1.1-5.5-2.8-7.7-5c-2.1-2.2-3.8-5-4.9-8.4c-1.2-3.9-1.8-8-1.7-12.1v-69c0-0.6-0.2-1.1-0.6-1.6
		c-0.4-0.5-1-0.9-1.9-1.2c-6.2-1.3-12.6-1.3-18.8,0c-0.9,0.3-1.6,0.7-1.9,1.2c-0.4,0.5-0.5,1-0.5,1.6v71c0,7.5,1.1,14,3.2,19.5
		c1.9,5.3,5.1,10.1,9.3,13.9c4,3.7,9,6.5,14.8,8.3c6.4,1.9,13.1,2.9,19.8,2.8c7.8,0,14.7-1,20.8-3.1c11.4-3.4,20.5-12.1,24.5-23.3
		c2.2-6.2,3.3-12.7,3.2-19.2v-69.8L698.8,254.6z M777.1,307.9l26-47.7c0.8-1.6,1.5-3.3,2-5.1c0.3-1.3,0.2-2.2-0.5-2.9
		s-1.9-1.1-3.6-1.2c-4.5-0.3-9-0.3-13.5,0c-1.5,0.1-2.7,0.3-3.6,0.6c-0.9,0.3-1.5,0.6-1.9,1.1s-0.8,1.1-1.1,1.8l-20,38.6l-20.5-38.6
		l-1.1-1.8c-0.4-0.5-1.1-0.9-2-1.1c-1-0.3-2.3-0.5-3.9-0.6c-4.9-0.3-9.7-0.3-14.6,0c-1.9,0.2-3.1,0.5-3.8,1.2
		c-0.7,0.6-0.8,1.6-0.5,2.9c0.4,1.3,1.1,3,2.2,5.2l26,47.9l-28,51c-0.9,1.6-1.7,3.3-2.3,5.1c-0.4,1.3-0.2,2.2,0.4,2.9
		c0.6,0.7,1.8,1.1,3.5,1.3c4.6,0.5,9.2,0.5,13.8,0.1c1.7-0.1,2.9-0.3,3.9-0.6c0.9-0.3,1.6-0.6,2-1.1l1.2-1.8l21.9-42.2l21.9,42.2
		c0.3,0.7,0.7,1.3,1.1,1.8c0.4,0.5,1.1,0.9,2,1.1c0.9,0.3,2.2,0.5,3.8,0.6c4.9,0.3,9.7,0.3,14.6-0.1c1.9-0.2,3.2-0.6,3.9-1.3
		c0.7-0.7,0.9-1.6,0.6-2.9c-0.5-1.8-1.2-3.5-2.1-5.1L777.1,307.9L777.1,307.9z"/>
	<path id="_xA9_" class="st7" d="M689.2,909.5c-5-4.8-11.1-8.4-18.3-10.8c-8.6-2.6-17.5-3.9-26.5-3.7h-30c-2,0-3.7,0.6-5,1.8
		c-1.4,1.2-2,3.1-2,5.7v101.8c0,2.6,0.7,4.6,2,5.7c1.4,1.2,3,1.8,5,1.8h27.9c9.1,0.2,18.1-1,26.8-3.4c7.1-2,13.6-5.7,19.1-10.6
		c5.5-5.1,9.6-11.5,12.1-18.6c3-8.9,4.4-18.2,4.2-27.5c0-9.3-1.3-17.4-3.9-24.5C697.9,920.2,694.2,914.3,689.2,909.5L689.2,909.5z
		 M677.6,970.2c-1.3,4.7-3.6,9-6.7,12.7c-3,3.4-6.7,5.9-11.2,7.6c-5.3,1.8-10.8,2.7-16.4,2.5H631v-79.4h12c6-0.2,12,0.8,17.7,2.9
		c4.5,2,8.2,4.7,11,8.2c2.9,3.5,4.9,7.6,6.2,12.4c1.3,4.8,1.9,9.9,1.9,15.4C679.9,958.5,679.2,964.4,677.6,970.2L677.6,970.2z
		 M803,1007.9c-0.5-1.8-1.2-3.5-2.1-5.1l-27.7-51.3l26-47.7c0.8-1.6,1.5-3.3,2-5.1c0.3-1.3,0.2-2.2-0.5-2.9s-1.9-1.1-3.6-1.2
		c-4.5-0.3-9-0.3-13.5,0c-1.5,0.1-2.7,0.3-3.6,0.6c-0.9,0.3-1.5,0.6-1.9,1.1s-0.8,1.1-1.1,1.8l-20,38.6l-20.5-38.6l-1.1-1.8
		c-0.4-0.5-1.1-0.9-2-1.1c-1-0.3-2.3-0.5-3.9-0.6c-4.9-0.3-9.7-0.3-14.6,0c-1.9,0.2-3.1,0.5-3.8,1.2c-0.7,0.6-0.8,1.6-0.5,2.9
		c0.4,1.3,1.1,3,2.2,5.2l26,47.9l-28,51c-0.9,1.6-1.7,3.3-2.3,5.1c-0.4,1.3-0.2,2.2,0.4,2.9c0.6,0.7,1.8,1.1,3.5,1.3
		c4.6,0.5,9.2,0.5,13.8,0.1c1.7-0.1,2.9-0.3,3.9-0.6c0.9-0.3,1.6-0.6,2-1.1l1.2-1.8l21.9-42.2l21.9,42.2c0.3,0.7,0.7,1.3,1.1,1.8
		c0.4,0.5,1.1,0.9,2,1.1c0.9,0.3,2.2,0.5,3.8,0.6c4.9,0.3,9.7,0.3,14.6-0.1c1.9-0.2,3.2-0.6,3.9-1.3S803.3,1009.2,803,1007.9
		L803,1007.9z"/>
</g>
</svg>
