<svg xmlns="http://www.w3.org/2000/svg" xmlns:xlink="http://www.w3.org/1999/xlink" viewBox="0 0 382.7 311.8"><text transform="translate(317.7 99.1)"><tspan x="0" y="0" font-family="'ArialMT'" font-size="10">Ireland: </tspan><tspan x="0" y="12" font-family="'ArialMT'" font-weight="bold" font-size="10">36%</tspan></text><text transform="translate(244 276.1)"><tspan x="0" y="0" font-family="'ArialMT'" font-size="10">UK: </tspan><tspan x="19.4" y="0" font-family="'ArialMT'" font-weight="bold" font-size="10">18%</tspan></text><text transform="translate(112.7 271.5)"><tspan x="0" y="0" font-family="'ArialMT'" font-size="10">US: </tspan><tspan x="19.4" y="0" font-family="'ArialMT'" font-weight="bold" font-size="10">7%</tspan></text><text transform="translate(41.3 242.1)"><tspan x="0" y="0" font-family="'ArialMT'" font-size="10">Finland: </tspan><tspan x="38.4" y="0" font-family="'ArialMT'" font-weight="bold" font-size="10">7%</tspan></text><text transform="translate(16 184.5)"><tspan x="0" y="0" font-family="'ArialMT'" font-size="10">Netherlands:</tspan><tspan x="56.7" y="0" font-family="'ArialMT'" font-weight="bold" font-size="10"> </tspan><tspan x="0" y="12" font-family="'ArialMT'" font-weight="bold" font-size="10">6%</tspan></text><text transform="translate(14 149.7)"><tspan x="0" y="0" font-family="'ArialMT'" font-size="10">Germany: </tspan><tspan x="46.7" y="0" font-family="'ArialMT'" font-weight="bold" font-size="10">5%</tspan></text><text transform="translate(26 123.8)"><tspan x="0" y="0" font-family="'ArialMT'" font-size="10">France: </tspan><tspan x="36.7" y="0" font-family="'ArialMT'" font-weight="bold" font-size="10">2%</tspan></text><text transform="translate(74.8 58.5)"><tspan x="0" y="0" font-family="'ArialMT'" font-size="10">Other: </tspan><tspan x="30.6" y="0" font-family="'ArialMT'" font-weight="bold" font-size="10">19%</tspan></text><defs><path id="a" d="M178.7 35.3a38.5 38.5 0 0 1 38.5 0L292.8 79a38.4 38.4 0 0 1 19.2 33.3v87.2c0 13.8-7.3 26.5-19.2 33.3l-75.6 43.7a38.5 38.5 0 0 1-38.5 0L103 232.8a38.4 38.4 0 0 1-19.3-33.3v-87.2c0-13.8 7.4-26.5 19.3-33.3l75.6-43.7z"/></defs><clipPath id="b"><use xlink:href="#a" overflow="visible"/></clipPath><g clip-path="url(#b)"><g stroke="#FFF" stroke-linejoin="round"><path fill="#4B9FD8" d="M198.1 29.2a127 127 0 0 1 98 207.7l-98-80.8V29.2z"/><path fill="#9169AD" d="M296 237a127 127 0 0 1-129.3 42l31.5-122.9 97.8 81z"/><path fill="#6E84C3" d="M166.6 279a127 127 0 0 1-49.3-25l80.9-97.9-31.6 123z"/><path fill="#44B0CE" d="M117.3 254a127 127 0 0 1-34-43.7L198.3 156l-81 97.8z"/><path fill="#7E69AF" d="M83.3 210.1a127 127 0 0 1-11.8-45.9l126.7-8-114.9 54z"/><path fill="#686868" d="M71.5 164a127 127 0 0 1 3.7-39.3l123 31.4-126.7 8z"/><path fill="#4689CC" d="M75.2 124.6a127 127 0 0 1 5-15.1l118 46.6-123-31.5z"/><path fill="#3CC0C4" d="M80.2 109.4A127 127 0 0 1 198 29.2l.2 127-118-46.8z"/></g></g></svg>