<?xml version="1.0" encoding="utf-8"?>
<!-- Generator: Adobe Illustrator 21.1.0, SVG Export Plug-In . SVG Version: 6.00 Build 0)  -->
<svg version="1.1" id="Layer_1" xmlns="http://www.w3.org/2000/svg" xmlns:xlink="http://www.w3.org/1999/xlink" x="0px" y="0px"
	 viewBox="0 0 2500 947.8" style="enable-background:new 0 0 2500 947.8;" xml:space="preserve">
<g>
	<path d="M2463.2,838.2V116.9h-752.1v721.3H2463.2z M2291.8,324c-57.9-33.3-115.9-50.6-170.2-50.6c-57.9,0-106,18.5-143,55.5
		c-38.2,35.8-57.9,80.1-57.9,135.6c0,53,19.7,98.6,56.7,135.6c39.4,34.5,86.3,51.8,143,51.8c60.4,0,119.6-18.5,177.5-55.5v77.7
		c-54.3,29.6-114.7,44.4-181.3,44.4c-56.7,0-103.6-11.1-143-33.3c-37.8-23-69.5-54.7-92.5-92.5c-22.2-41.9-34.5-83.8-34.5-128.2
		c0-74,25.9-134.4,78.9-183.7c51.8-49.3,115.9-75.2,191.1-75.2c54.2,0,112.2,13.6,175.1,41.9L2291.8,324L2291.8,324L2291.8,324z
		 M1627.3,116.9H875.2v721.3h752.1L1627.3,116.9L1627.3,116.9z M1105.8,224.2h130.7c41.9,0,74,4.9,97.4,16
		c23.4,12.3,40.7,27.1,51.8,45.6c12.3,19.7,18.5,41.9,18.5,67.8c0,49.3-24.7,83.8-76.5,104.8c37,6.2,66.6,21,87.5,45.6
		c20.9,22.2,30.8,50.6,32,82.6c-1.2,24.7-7.4,48.1-19.7,67.8c-13.6,19.7-32.1,35.8-58,49.3c-25.9,12.3-56.7,18.5-94.9,18.5h-168.9
		V224.2L1105.8,224.2z"/>
	<path d="M1224.1,437.5c38.2,0,65.3-7.4,81.4-21c16-16,24.6-34.5,24.6-57.9c0-46.8-30.8-71.5-91.2-71.5h-61.6v150.4H1224.1
		L1224.1,437.5z M1243.8,501.6h-66.6v156.6h71.5c33.3,0,60.4-2.5,77.7-7.4c16-8.6,27.1-18.5,34.5-29.6c7.4-12.3,12.3-25.9,12.3-40.7
		c-1.2-14.8-4.9-28.4-13.6-40.7c-7.4-13.6-19.7-23.4-37-29.6C1306.7,504,1279.6,500.3,1243.8,501.6z M788.9,116.9H36.8v721.3h752.1
		V116.9z M266.1,722.3V224.2h130.7c41.9,0,72.7,4.9,96.2,16c23.4,11.1,41.9,27.1,53,46.8c12.3,18.5,18.5,40.7,19.7,66.6
		c-1.2,49.3-25.9,83.8-77.7,106c38.2,6.2,66.6,21,87.5,44.4c21,22.2,32.1,50.6,32.1,82.6c0,25.9-6.2,49.3-19.7,67.8
		c-13.6,20.9-32.1,37-56.7,49.3c-25.9,12.3-57.9,18.5-96.2,18.5L266.1,722.3L266.1,722.3L266.1,722.3z"/>
	<path d="M399.3,287h-61.6v150.4h48.1c37,0,64.1-7.4,80.2-21c16-14.8,24.7-34.5,24.7-56.7C490.5,311.7,459.7,287,399.3,287z
		 M404.2,501.6h-66.6v156.6h70.3c37,0,64.1-2.5,80.1-7.4c13.6-6.2,24.7-14.8,33.3-27.1c7.4-13.6,11.1-27.1,12.3-43.1
		c-1.2-17.3-6.2-30.8-13.6-40.7c-8.5-13.7-21.6-23.7-37-28.4C465.8,504,438.7,501.6,404.2,501.6L404.2,501.6z"/>
</g>
</svg>
