<?xml version="1.0" encoding="utf-8"?>
<!-- Generator: Adobe Illustrator 22.1.0, SVG Export Plug-In . SVG Version: 6.00 Build 0)  -->
<svg version="1.1" id="Layer_1" xmlns="http://www.w3.org/2000/svg" xmlns:xlink="http://www.w3.org/1999/xlink" x="0px" y="0px"
	 viewBox="0 0 55.4 66.7" style="enable-background:new 0 0 55.4 66.7;" xml:space="preserve">
<style type="text/css">
	.st0{fill:#FF0000;}
</style>
<g>
	<polygon class="st0" points="33.8,2.3 50.7,2.3 50.7,42.7 	"/>
	<polygon class="st0" points="21.9,2.3 5,2.3 5,42.7 	"/>
	<polygon class="st0" points="27.9,17.2 38.6,42.7 31.6,42.7 28.4,34.6 20.5,34.6 	"/>
	<g>
		<path d="M8.2,61.4l-0.7,3.5c0,0.1-0.1,0.2-0.2,0.2H5.1c-0.1,0-0.2,0-0.2-0.2l3-12.7C8,51.7,8,51.5,8,50.9c0-0.1,0-0.1,0.1-0.1h3.1
			c0.1,0,0.2,0,0.2,0.2l3.5,14c0,0.1,0,0.2-0.1,0.2h-2.4c-0.1,0-0.2-0.1-0.2-0.2l-0.8-3.5H8.2z M10.9,59c-0.3-1.6-0.9-4.1-1.1-5.7h0
			c-0.2,1.6-0.7,3.7-1,5.7H10.9z"/>
		<path d="M15.2,59.6c0-3.3,1.9-5.8,5-5.8h0.4V50c0-0.1,0-0.1,0.1-0.1h2.4c0.1,0,0.1,0,0.1,0.1v12.8c0,0.3,0,0.8,0.1,1.5
			c0,0.1,0,0.1-0.1,0.2c-0.9,0.5-2.1,0.8-3.2,0.8C17.1,65.3,15.2,63.4,15.2,59.6z M20.5,56.2c-0.1,0-0.2-0.1-0.5-0.1
			c-1.2,0-2.2,1.1-2.2,3.4c0,2.4,0.9,3.3,2.2,3.3c0.2,0,0.4,0,0.5-0.1V56.2z"/>
		<path d="M32.7,59.5c0,3.5-1.5,5.8-4.1,5.8c-2.9,0-4.1-2.5-4.1-5.8c0-3.3,1.5-5.7,4.1-5.7C31.2,53.8,32.7,55.9,32.7,59.5z
			 M27.2,59.5c0,2.1,0.4,3.4,1.4,3.4c1,0,1.4-1.2,1.4-3.4c0-2.1-0.4-3.4-1.4-3.4C27.8,56.1,27.2,57.2,27.2,59.5z"/>
		<path d="M36.6,49.9c0.1,0,0.1,0,0.1,0.1V54c0.3-0.1,0.7-0.1,1.2-0.1c2.3,0,4.1,1.8,4.1,5.2c0,4-2.3,6.2-5.2,6.2
			c-0.8,0-1.7-0.1-2.6-0.4c-0.1,0-0.1-0.1-0.1-0.2V50c0-0.1,0-0.1,0.1-0.1H36.6z M37.6,56.2c-0.2,0-0.6,0-0.8,0.1v6.6
			c0.2,0,0.3,0,0.5,0c1,0,2.2-1,2.2-3.8C39.4,57,38.6,56.2,37.6,56.2z"/>
		<path d="M45.6,60.1c0,1.7,0.6,2.8,2.5,2.8c0.6,0,1.1-0.1,1.7-0.3c0.1,0,0.2,0,0.2,0.1v1.9c0,0.2,0,0.2-0.2,0.3
			c-0.6,0.3-1.5,0.4-2.2,0.4c-3.3,0-4.5-2.4-4.5-5.6c0-3.3,1.5-5.9,4.1-5.9c2.7,0,3.5,2.4,3.5,4.4c0,0.7-0.1,1.4-0.1,1.7
			c0,0.1-0.1,0.2-0.2,0.2c-0.2,0-0.9,0.1-2.1,0.1H45.6z M47.5,58.1c0.4,0,0.6,0,0.7,0c0-0.1,0-0.2,0-0.2c0-0.8-0.3-1.7-1.2-1.7
			c-0.9,0-1.2,0.9-1.4,2H47.5z"/>
	</g>
</g>
</svg>
