<?xml version="1.0" encoding="utf-8"?>
<!-- Generator: Adobe Illustrator 16.0.0, SVG Export Plug-In . SVG Version: 6.00 Build 0)  -->
<!DOCTYPE svg PUBLIC "-//W3C//DTD SVG 1.1//EN" "http://www.w3.org/Graphics/SVG/1.1/DTD/svg11.dtd">
<svg version="1.1" xmlns="http://www.w3.org/2000/svg" xmlns:xlink="http://www.w3.org/1999/xlink" x="0px" y="0px"
	 width="1190.55px" height="841.89px" viewBox="0 0 1190.55 841.89" enable-background="new 0 0 1190.55 841.89"
	 xml:space="preserve">
<g id="RGB">
	<path fill="#585857" d="M547.075,101.471h-15.999V67.923h-24.1v33.548h-15.81v21.396h15.81v82.132h24.1v-82.132h15.999V101.471z
		 M597.811,98.386c-14.073,0-27.574,5.789-37.982,16.199c-10.214,10.216-15.617,23.709-15.617,38.17
		c0,14.648,5.403,27.763,15.234,38.367c10.604,11.182,23.324,16.58,38.753,16.58c15.422,0,28.725-5.398,39.135-16.195
		c10.407-10.602,15.42-23.715,15.42-39.329c0-14.268-6.168-28.534-16.965-38.945C625.382,103.401,612.845,98.386,597.811,98.386z
		 M598.389,183.794c-17.738,0-29.305-11.757-29.305-31.232c0-17.932,11.949-30.458,29.305-30.458
		c16.579,0,29.303,12.144,29.303,29.879C627.691,171.843,615.934,183.794,598.389,183.794z M317.196,68.678l-57.548,138.269h28.216
		l15.24-36.863l49.533,0.021l14.264,36.842h28.215L337.189,68.678H317.196z M311.646,146.217l15.267-41.479h0.372l15.934,41.479
		H311.646z M460.101,146.392c0,25.064-5.011,37.982-22.555,37.982c-17.735,0-21.398-11.955-21.398-36.438v-46.464h-24.294v59.959
		c0,30.075,14.653,46.271,40.297,46.271c11.759,0,20.624-4.434,27.759-13.884v11.182h23.908V101.471h-23.717V146.392z
		 M1050.098,98.386c-14.265,0-27.954,6.17-38.552,17.354c-9.641,10.219-14.656,23.133-14.656,37.593
		c0,13.879,5.591,27.956,15.425,38.173c10.41,10.797,23.519,16.195,38.752,16.195c22.944,0,41.258-12.915,50.125-35.665h-26.028
		c-5.013,8.286-14.073,12.916-24.68,12.916c-16.384,0-27.181-9.252-28.724-24.1h82.903c0-1.732,0.191-3.476,0.191-5.206
		c0-13.69-2.891-24.677-9.834-33.933C1084.227,106.868,1068.031,98.386,1050.098,98.386z M1022.53,141.765
		c3.661-12.917,14.844-21.207,27.567-21.207c14.655,0,24.684,7.324,28.73,21.207H1022.53z M1132.544,113.425v-11.954h-22.556
		v103.528h24.099v-52.822c0-19.279,4.434-28.153,25.065-29.692V99.927C1147.968,99.927,1139.678,104.361,1132.544,113.425z
		 M967.492,109.764c-9.25-7.713-19.281-10.797-32.193-10.797c-13.495,0-26.031,4.625-35.668,13.686
		c-11.374,10.413-17.735,25.062-17.735,40.3c0,16.577,6.938,31.804,19.466,42.598c9.062,7.909,20.828,12.15,33.938,12.15
		c12.147,0,22.554-3.473,32.193-11.183v8.481h23.718V67.923h-23.718V109.764z M938.188,183.794
		c-18.319,0-31.231-13.304-31.231-30.461c0-16.576,13.3-30.653,30.073-30.653c16.774,0,29.497,13.303,29.497,31.037
		C966.527,170.877,953.612,183.794,938.188,183.794z M849.763,114.007c-6.746-10.223-17.541-15.239-32.582-15.239
		c-15.615,0-27.952,5.016-38.366,16.002c-9.636,10.03-14.842,23.523-14.842,37.984c0,30.847,22.94,54.557,53.784,54.557
		c16.005,0,26.416-4.622,32.201-15.035v12.723h23.324V101.471h-23.52V114.007z M818.532,183.025
		c-16.193,0-29.885-12.729-29.885-30.66c0-16.767,13.496-29.686,29.497-29.686c15.235,0,29.112,13.497,29.112,30.849
		C847.257,169.53,833.571,183.025,818.532,183.025z M724.494,67.923h-94.613v24.102h33.903v112.975h26.804V92.024h33.906V67.923z
		 M763.973,99.927c-11.187,0-19.477,4.434-26.609,13.498v-11.954h-22.555v103.528h24.099v-52.822
		c0-19.279,4.434-28.153,25.065-29.692V99.927z"/>
</g>
<g id="CMYK">
	<path fill="#6C6A6C" d="M546.906,101.495h-16.003V67.939h-24.105v33.555h-15.812v21.401h15.812v82.149h24.105v-82.149h16.003
		V101.495z M597.65,98.409c-14.074,0-27.579,5.79-37.987,16.202c-10.217,10.219-15.621,23.713-15.621,38.177
		c0,14.651,5.404,27.771,15.237,38.375c10.604,11.186,23.329,16.585,38.76,16.585c15.426,0,28.731-5.4,39.143-16.199
		c10.409-10.604,15.424-23.72,15.424-39.336c0-14.272-6.169-28.542-16.969-38.956C625.229,103.425,612.69,98.409,597.65,98.409z
		 M598.23,183.835c-17.743,0-29.312-11.759-29.312-31.239c0-17.936,11.952-30.464,29.312-30.464
		c16.583,0,29.311,12.146,29.311,29.886C627.541,171.882,615.78,183.835,598.23,183.835z M316.978,68.694l-57.561,138.301h28.223
		l15.243-36.872l49.543,0.02l14.267,36.853h28.221L336.976,68.694H316.978z M311.427,146.251l15.27-41.488h0.373l15.937,41.488
		H311.427z M459.913,146.425c0,25.07-5.013,37.991-22.56,37.991c-17.74,0-21.403-11.96-21.403-36.446v-46.476h-24.299v59.973
		c0,30.083,14.656,46.282,40.305,46.282c11.762,0,20.629-4.435,27.765-13.888v11.184h23.913V101.495h-23.722V146.425z
		 M1050.037,98.409c-14.268,0-27.96,6.172-38.561,17.357c-9.642,10.221-14.659,23.138-14.659,37.6
		c0,13.884,5.594,27.963,15.428,38.184c10.412,10.799,23.524,16.199,38.762,16.199c22.949,0,41.268-12.919,50.138-35.672h-26.036
		c-5.016,8.287-14.076,12.917-24.686,12.917c-16.389,0-27.188-9.254-28.731-24.106h82.922c0-1.731,0.191-3.474,0.191-5.205
		c0-13.695-2.891-24.684-9.834-33.942C1084.175,106.893,1067.977,98.409,1050.037,98.409z M1022.463,141.797
		c3.664-12.919,14.849-21.21,27.574-21.21c14.658,0,24.69,7.326,28.738,21.21H1022.463z M1132.502,113.451v-11.957h-22.56v103.551
		h24.103v-52.832c0-19.285,4.436-28.162,25.073-29.7V99.95C1147.928,99.95,1139.637,104.386,1132.502,113.451z M967.415,109.789
		c-9.253-7.714-19.286-10.799-32.202-10.799c-13.498,0-26.037,4.626-35.676,13.688c-11.376,10.415-17.738,25.067-17.738,40.309
		c0,16.581,6.939,31.811,19.469,42.606c9.064,7.912,20.833,12.155,33.945,12.155c12.15,0,22.56-3.474,32.202-11.187v8.483h23.722
		V67.939h-23.722V109.789z M938.104,183.835c-18.325,0-31.238-13.306-31.238-30.469c0-16.578,13.302-30.658,30.079-30.658
		c16.779,0,29.505,13.306,29.505,31.043C966.45,170.917,953.531,183.835,938.104,183.835z M849.66,114.034
		c-6.749-10.226-17.546-15.243-32.59-15.243c-15.619,0-27.959,5.017-38.375,16.006c-9.638,10.033-14.844,23.527-14.844,37.991
		c0,30.854,22.945,54.57,53.795,54.57c16.009,0,26.421-4.622,32.208-15.038v12.725h23.329V101.495H849.66V114.034z M818.422,183.068
		c-16.197,0-29.892-12.733-29.892-30.667c0-16.771,13.5-29.693,29.505-29.693c15.237,0,29.117,13.499,29.117,30.854
		C847.152,169.568,833.464,183.068,818.422,183.068z M724.363,67.939h-94.634v24.106h33.91v113h26.81v-113h33.914V67.939z
		 M763.852,99.95c-11.189,0-19.481,4.436-26.615,13.501v-11.957h-22.559v103.551h24.103v-52.832c0-19.285,4.433-28.162,25.071-29.7
		V99.95z"/>
	<g>
		
			<linearGradient id="SVGID_1_" gradientUnits="userSpaceOnUse" x1="-3543.3894" y1="2839.1572" x2="-3738.9712" y2="2891.9292" gradientTransform="matrix(-1 0 0 -1 -3490.5527 3040.3359)">
			<stop  offset="0" style="stop-color:#2973A4"/>
			<stop  offset="0.37" style="stop-color:#2E7EC1"/>
			<stop  offset="1" style="stop-color:#25A3DD"/>
		</linearGradient>
		<path fill="url(#SVGID_1_)" d="M207.36,206.892l0.049-0.031c0.401,0.018,0.804,0.031,1.209,0.031
			c12.21,0,22.626-7.661,26.718-18.438l17.589-42.22H75.708l-25.361,60.658H207.36z"/>
	</g>
	<g>
		<linearGradient id="SVGID_2_" gradientUnits="userSpaceOnUse" x1="282.4219" y1="74.4326" x2="86.8406" y2="127.2045">
			<stop  offset="0" style="stop-color:#E40428"/>
			<stop  offset="0.3189" style="stop-color:#E10627"/>
			<stop  offset="0.572" style="stop-color:#D80D23"/>
			<stop  offset="0.8016" style="stop-color:#C9141E"/>
			<stop  offset="1" style="stop-color:#B71918"/>
		</linearGradient>
		<path fill="url(#SVGID_2_)" d="M127.899,68.72l-0.049,0.031c-0.401-0.018-0.804-0.031-1.209-0.031
			c-12.211,0-22.627,7.661-26.718,18.438l-17.589,42.22h177.218l25.361-60.657H127.899z"/>
	</g>
	<g>
		
			<linearGradient id="SVGID_3_" gradientUnits="userSpaceOnUse" x1="-3543.1152" y1="2839.1113" x2="-3738.7375" y2="2891.8943" gradientTransform="matrix(-1 0 0 -1 -3490.5527 3040.3359)">
			<stop  offset="0" style="stop-color:#004884"/>
			<stop  offset="0.0766" style="stop-color:#004C89"/>
			<stop  offset="0.4219" style="stop-color:#005B9B"/>
			<stop  offset="0.7391" style="stop-color:#0065A6"/>
			<stop  offset="1" style="stop-color:#0068AA"/>
		</linearGradient>
		<path fill="url(#SVGID_3_)" d="M207.118,206.938l0.049-0.029c0.402,0.016,0.804,0.029,1.209,0.029
			c12.214,0,22.632-7.664,26.725-18.444l17.591-42.227H75.438l-25.367,60.671H207.118z"/>
	</g>
	<g>
		<linearGradient id="SVGID_4_" gradientUnits="userSpaceOnUse" x1="282.1963" y1="74.4507" x2="86.5721" y2="127.2341">
			<stop  offset="0" style="stop-color:#E40428"/>
			<stop  offset="0.3189" style="stop-color:#E10627"/>
			<stop  offset="0.572" style="stop-color:#D80D23"/>
			<stop  offset="0.8016" style="stop-color:#C9141E"/>
			<stop  offset="1" style="stop-color:#B71918"/>
		</linearGradient>
		<path fill="url(#SVGID_4_)" d="M127.64,68.736l-0.05,0.031c-0.402-0.018-0.804-0.031-1.209-0.031
			c-12.213,0-22.632,7.663-26.723,18.442l-17.594,42.229H259.32l25.367-60.67H127.64z"/>
	</g>
</g>
</svg>
