<?xml version="1.0" encoding="utf-8"?>
<!-- Generator: Adobe Illustrator 21.1.0, SVG Export Plug-In . SVG Version: 6.00 Build 0)  -->
<svg version="1.1" id="layer" xmlns="http://www.w3.org/2000/svg" xmlns:xlink="http://www.w3.org/1999/xlink" x="0px" y="0px"
	 viewBox="0 0 652 211.9" style="enable-background:new 0 0 652 211.9;" xml:space="preserve">
<style type="text/css">
	.st0{fill:#26292C;}
</style>
<g id="Page-1">
	<path id="Fill-1" class="st0" d="M50.7,104.1c0-16.2,8.8-22,17-22c10.1,0,16.9,8.8,16.9,21.8c0,14.9-8.6,21.6-17.1,21.6
		C56,125.5,50.7,114.4,50.7,104.1z M71.8,63c-12,0-18.9,5.4-22.3,9.2c-0.4-3.2-2.5-7.4-10.8-7.4H20.8v18.9h7.3
		c1.2,0,1.6,0.4,1.6,1.7v86.4h21.4v-32.4c0-0.9,0-1.7,0-2.4c3.3,3.1,9.7,7.3,19.7,7.3c20.9,0,35.5-16.7,35.5-40.6
		C106.3,79.4,92.4,63,71.8,63"/>
	<path id="Fill-4" class="st0" d="M135,122.1V76.3c0-7.7-3.7-11.5-11.3-11.5h-19.1v18.9h7.4c1.2,0,1.6,0.4,1.6,1.7V131
		c0,7.9,3.6,11.5,11.2,11.5h19.1v-18.8h-7.4C135.4,123.7,135,123.3,135,122.1"/>
	<path id="Fill-6" class="st0" d="M186.4,125.5c-11.5,0-16.7-11.1-16.7-21.4c0-16.2,8.8-22,17-22c10.1,0,16.9,8.8,16.9,21.8
		C203.6,118.8,194.9,125.5,186.4,125.5 M190.8,63c-12,0-18.9,5.4-22.3,9.2c-0.4-3.2-2.5-7.4-10.7-7.4h-17.9v18.9h7.3
		c1.2,0,1.6,0.4,1.6,1.7v86.4h21.4v-32.4c0-0.9,0-1.7,0-2.4c3.3,3.1,9.7,7.3,19.7,7.3c20.9,0,35.5-16.7,35.5-40.6
		C225.2,79.4,211.4,63,190.8,63"/>
	<path id="Fill-9" class="st0" d="M249.3,92.4c2.3-7.6,8.1-11.9,16.1-11.9c6.4,0,11.4,4.9,12.3,11.9H249.3z M265.4,63
		c-23,0-39.1,16.7-39.1,40.6c0,23.5,17.4,40.6,41.3,40.6c18.8,0,30.3-11.2,30.8-11.7l0.9-0.9L290,116l-1.4,1.3
		c-0.1,0.1-8.5,7.9-19.7,7.9c-10.7,0-18.5-6.6-20.4-16.9h50.7l0.1-1.4c0-0.2,0.5-4.8,0.5-7C299.7,77.9,285.9,63,265.4,63L265.4,63z"
		/>
	<path id="Fill-11" class="st0" d="M339.3,125.5c-10.2,0-16.7-8.6-16.7-21.8c0-12.9,6.8-21.5,17-21.5c11.5,0,16.7,10.7,16.7,21.4
		C356.3,119.7,347.5,125.5,339.3,125.5 M377.4,122.1v-75c0-7.7-3.7-11.5-11.4-11.5h-19.1v18.9h7.4c1.2,0,1.6,0.4,1.6,1.7v13.6
		c-3.2-2.9-9.3-6.6-19.9-6.6c-20.7,0-35.2,16.7-35.2,40.6c0,24.3,13.9,40.6,34.5,40.6c11.8,0,18.6-5.5,21.9-9.4
		c0.4,3.4,2.6,7.6,10.6,7.6h18.5v-18.8h-7.2C377.9,123.7,377.4,123.3,377.4,122.1"/>
	<path id="Fill-14" class="st0" d="M433.8,63.8c-8.9,0-17.1,5.2-21.9,13.4v-1.8c0-7-3.9-10.6-11.4-10.6h-18.4v18.9h7.3
		c1.2,0,1.6,0.4,1.6,1.7v57.1h21.4v-31.1c0-4.1,0.5-8,1.5-11.7c3.2-10.7,11.8-14.5,18.7-14.5c2.5,0,4.2,0.3,4.3,0.3l1.8,0.3V64.4
		l-1.3-0.2C437.3,64.1,435.5,63.8,433.8,63.8"/>
	<path id="Fill-16" class="st0" d="M469.1,122.1V76.3c0-7.7-3.7-11.5-11.3-11.5h-17.3v18.9h5.5c1.2,0,1.6,0.4,1.6,1.7V131
		c0,7.9,3.6,11.5,11.3,11.5H478v-18.8h-7.4C469.5,123.7,469.1,123.3,469.1,122.1"/>
	<path id="Fill-18" class="st0" d="M549.7,64.8h-11.4c-6.7,0-10.2,2.3-12.3,8l-14,39.3c-0.5,1.5-0.9,3.1-1.3,4.7
		c-0.4-1.6-0.9-3.2-1.4-4.7l-13.9-39.3c-2.1-5.8-5.6-8-12.3-8H471v18.9h3.1c1.7,0,2.2,0.6,2.6,1.6l21.6,57.2h24l21.6-57.2
		c0.4-1,0.9-1.6,2.6-1.6h3.3L549.7,64.8L549.7,64.8z"/>
	<path id="Fill-20" class="st0" d="M570.4,92.4c2.3-7.6,8.1-11.9,16.1-11.9c6.4,0,11.4,4.9,12.3,11.9H570.4z M586.5,63
		c-23,0-39.1,16.7-39.1,40.6c0,23.5,17.3,40.6,41.3,40.6c18.8,0,30.3-11.2,30.8-11.7l0.9-0.9l-9.3-15.6l-1.4,1.3
		c-0.1,0.1-8.6,7.9-19.7,7.9c-10.7,0-18.5-6.6-20.4-16.9h50.7l0.1-1.4c0-0.2,0.5-4.8,0.5-7C620.8,77.9,607,63,586.5,63L586.5,63z"/>
	<polygon id="Fill-22" class="st0" points="133.5,35.5 114.5,35.5 114.5,55.8 133.5,55.8 	"/>
	<polygon id="Fill-24" class="st0" points="467.6,35.5 448.6,35.5 448.6,55.8 467.6,55.8 	"/>
</g>
</svg>
