<?xml version="1.0" encoding="utf-8"?>
<!-- Generator: Adobe Illustrator 21.1.0, SVG Export Plug-In . SVG Version: 6.00 Build 0)  -->
<svg version="1.1" id="Layer_1" xmlns="http://www.w3.org/2000/svg" xmlns:xlink="http://www.w3.org/1999/xlink" x="0px" y="0px"
	 viewBox="0 0 510.24 510.24" enable-background="new 0 0 510.24 510.24" xml:space="preserve">
<path fill="#4B9FD8" d="M61.253,112.947C120.645,34.985,234.75,12.199,321.65,40.955
	c137.202,45.401,222.101,224.422,145.338,342.452c-62.422,95.979-214.833,125.626-322.973,64.21
	C24.958,380-16.815,215.423,61.253,112.947z"/>
<g>
	<g>
		<path fill="#FFFFFF" d="M382.867,329.277l-52.936-79.533c-1.448-2.174-3.961-3.473-6.723-3.473c-2.761,0-5.275,1.299-6.721,3.473
			l-6.873,10.326c-1.069,1.606-0.527,3.71,1.211,4.699c1.739,0.988,4.014,0.487,5.084-1.119l6.873-10.326
			c0.036-0.055,0.147-0.221,0.428-0.221c0.281,0,0.392,0.166,0.428,0.221l52.936,79.533c0.042,0.063,0.154,0.232,0.011,0.47
			c-0.144,0.238-0.358,0.238-0.439,0.238H346.83l-81.994-123.188c-0.736-1.107-1.75-1.985-2.931-2.582
			c0.001,0,0.003,0.001,0.004,0.002v-23.181c3.075,0.771,6.07,1.1,9,1.1c8.427,0,16.318-2.708,24.039-5.357
			c10.698-3.671,20.802-7.138,31.731-3.087c1.409,0.522,3.002,0.365,4.26-0.422c1.26-0.788,2.011-2.097,2.011-3.502v-38.585
			c0-1.701-1.091-3.229-2.779-3.893c-13.873-5.469-26.034-1.296-37.795,2.739c-11.017,3.78-21.423,7.351-32.754,2.67
			c-1.144-0.472-2.467-0.377-3.518,0.252c-1.051,0.63-1.685,1.708-1.685,2.866v0.127c-0.063,0.254-0.1,0.517-0.1,0.789v67.482
			c-1.179,0.597-2.191,1.475-2.927,2.58l-38.927,58.485l-12.724-19.117c-1.447-2.174-3.96-3.473-6.722-3.473
			c-2.761,0-5.275,1.298-6.722,3.473l-52.936,79.532c-1.497,2.249-1.561,5.077-0.168,7.382c1.393,2.305,4.033,3.737,6.889,3.737
			h236.064c2.856,0,5.496-1.432,6.889-3.737C384.429,334.354,384.364,331.525,382.867,329.277z M261.809,144.248
			c11.961,3.033,22.705-0.653,33.138-4.234c10.322-3.542,20.102-6.897,30.612-3.475v33.187c-11.997-3.041-22.751,0.649-33.184,4.229
			c-10.305,3.536-20.075,6.888-30.567,3.477V144.248z M178.075,333.564l12.676-19.045c1.069-1.606,0.527-3.71-1.211-4.699
			c-1.738-0.988-4.014-0.487-5.083,1.119l-15.059,22.625h-29.317c-0.081,0-0.295,0-0.439-0.238c-0.144-0.238-0.032-0.406,0.011-0.47
			l52.936-79.532c0.036-0.055,0.147-0.221,0.428-0.221s0.392,0.166,0.428,0.221l14.68,22.055l-14.658,22.022
			c-1.069,1.606-0.527,3.71,1.211,4.699c1.739,0.989,4.014,0.487,5.083-1.119l57.924-87.025c0.036-0.055,0.147-0.221,0.428-0.221
			c0.28,0,0.391,0.166,0.428,0.221l79.611,119.609H178.075z"/>
	</g>
</g>
</svg>
