<svg id="Layer_1" data-name="Layer 1" xmlns="http://www.w3.org/2000/svg" viewBox="0 0 161 69"><defs><style>.cls-1{fill:#b92542;}</style></defs><title>Artboard 1</title><path d="M11.5,36.06c0,2.64-1.08,6.18-4.28,6.18a2.26,2.26,0,0,1-2.55-2.47c0-3.1,4.54-3.71,6.83-3.71m4.59,9.07V30.49c0-4.75-3.12-6.39-7.48-6.39S.77,25.91.77,30.62H5.45A2.83,2.83,0,0,1,8.6,27.47c2.37,0,2.9,1.72,2.9,3.75v2C6.83,33.39,0,34,0,40.22c0,3.5,2.77,5.4,6,5.4,2.25,0,4.32-.74,5.36-2.85h.08v2.37h4.59M30.3,31.61h5.1c0-5.06-2.8-7.52-7.82-7.52-6.17,0-9.42,3.88-9.42,9.84,0,7.17,3.67,11.67,11,11.67a20.13,20.13,0,0,0,6-1V41.73a10.56,10.56,0,0,1-3.45.51c-5.46,0-8.47-4-8.47-9.16,0-2.46.91-5.61,3.93-5.61,2.5,0,3.11,2,3.11,4.14m18.42,0h5.1c0-5.06-2.81-7.52-7.82-7.52-6.18,0-9.42,3.88-9.42,9.84,0,7.17,3.67,11.67,11,11.67a20.09,20.09,0,0,0,6-1V41.73a10.53,10.53,0,0,1-3.46.51c-5.44,0-8.47-4-8.47-9.16,0-2.46.92-5.61,3.94-5.61,2.5,0,3.11,2,3.11,4.14m18.8-.91H60a3.83,3.83,0,0,1,3.87-3.55,3.35,3.35,0,0,1,3.65,3.55m4.54,2.9V32.44c0-5-2.59-8.34-7.82-8.34-6.13,0-8.82,3.84-8.82,9.68,0,6.78,3.07,11.84,10.37,11.84a18.22,18.22,0,0,0,5.74-.82V41.47a12.27,12.27,0,0,1-3.92.77c-4.66,0-7.74-4.27-7.74-8.63h12.2M86.27,45.14h4.81V30.88c0-3.54-1.66-6.78-5.58-6.78a6.38,6.38,0,0,0-6.09,4.32h-.08V24.56H74.51V45.14h4.81v-8.9c0-2.77,1.38-7.65,4.83-7.65a1.92,1.92,0,0,1,1.39.39c.81.77.73,3.41.73,4.4V45.14M101,27.9h6.11V24.56H101V17.74l-4.77,1.94v4.87h-4V27.9h4V40c0,4.28,2.09,5.66,6.3,5.66a23.82,23.82,0,0,0,3.92-.34V41.9a9.16,9.16,0,0,1-2.2.34c-3,0-3.25-2.2-3.25-4.62V27.9m20,17.24h4.8V24.56H121v8.91c0,2.77-1.38,7.65-4.85,7.65a1.93,1.93,0,0,1-1.38-.38c-.83-.78-.73-3.42-.73-4.41V24.56h-4.79V38.83c0,3.54,1.63,6.78,5.57,6.78a6.49,6.49,0,0,0,6.1-4.32H121v3.84m12.62-9c0-4.84,1.81-7,6.73-7v-5c-3.45,0-5.06,1.43-6.65,4.27h-.08V24.56h-4.8V45.14h4.8v-9m19.8-5.4h-7.52a3.84,3.84,0,0,1,3.88-3.55,3.35,3.35,0,0,1,3.64,3.55m4.54,2.9V32.44c0-5-2.59-8.34-7.82-8.34-6.13,0-8.81,3.84-8.81,9.68,0,6.78,3.07,11.84,10.36,11.84a18.35,18.35,0,0,0,5.75-.82V41.47a12.3,12.3,0,0,1-3.92.77c-4.68,0-7.75-4.27-7.75-8.63H158"/><path class="cls-1" d="M92.24.43V3.82l10.95,4.25L92.24,12.28v3.38L107.16,9.6V6.5L92.24.43"/><path d="M6.57,65.14V59.93H2v5.21H.76v-11H2v4.78H6.57V54.11H7.82v11Zm3-9.59V54.11H11v1.44Zm.18,9.59V57.53H10.8v7.61Zm4.74,3.33a9.81,9.81,0,0,1-2.06-.26v-1.1a4.38,4.38,0,0,0,1.9.45c1.76,0,2.3-.9,2.3-2.53V63.69h0a2,2,0,0,1-2,1.45c-2.09,0-2.57-2-2.57-3.75s.53-4,2.61-4a2,2,0,0,1,2,1.43h0V57.53h1.09v7.63C17.68,67.32,16.64,68.47,14.45,68.47Zm.35-10.2c-1.39,0-1.58,2.14-1.58,3.13s.19,2.83,1.55,2.83,1.82-2,1.82-3S16.16,58.27,14.8,58.27Zm8.87,6.87V60.92c0-.86.13-2.48-1.12-2.48C21,58.44,20.4,60.81,20.4,62v3.13H19.31v-11H20.4v5.18h0a2.37,2.37,0,0,1,2.38-1.93c1.34,0,2,1.15,2,2.35v5.43Zm9,.18a2,2,0,0,1-2-1.42h0v4.67H29.55v-11h1.09v1.3h0a2.06,2.06,0,0,1,2-1.47c2.19,0,2.61,2.14,2.61,3.92S34.74,65.32,32.67,65.32Zm-.24-7c-1.37,0-1.79,2-1.79,3s.32,3.11,1.76,3.11S34,62.12,34,61.07,33.82,58.27,32.43,58.27Zm5,2.35v.45c0,1.66.83,3.34,2.7,3.34a5.9,5.9,0,0,0,1.5-.21v.9a5.83,5.83,0,0,1-1.74.22c-2.64,0-3.71-1.77-3.71-4.24,0-2,.74-3.73,3-3.73,1.77,0,2.65,1.22,2.65,2.89v.37Zm1.68-2.35a1.6,1.6,0,0,0-1.6,1.44h3.06A1.41,1.41,0,0,0,39.06,58.27ZM44.16,62v3.15H43.07V57.53h1.09V59h0a2.55,2.55,0,0,1,2.54-1.65v1.17C44.77,58.52,44.16,60.33,44.16,62Zm7.37-7c-1.73,0-1.6,1.25-1.6,2.56h2.19v.91H49.93v6.7H48.85v-6.7H47.57v-.91h1.28V56.48a2.21,2.21,0,0,1,2.49-2.41,6,6,0,0,1,1.29.14v1A3.31,3.31,0,0,0,51.53,55Zm4,10.34c-2.35,0-3.1-1.92-3.1-4s.75-4,3.1-4,3.13,1.93,3.13,4S57.93,65.32,55.56,65.32Zm0-7c-1.58,0-1.85,1.86-1.85,3.07s.27,3.07,1.85,3.07,1.89-1.84,1.89-3.07S57.15,58.27,55.56,58.27ZM61.11,62v3.15H60V57.53h1.09V59h0a2.56,2.56,0,0,1,2.54-1.65v1.17C61.72,58.52,61.11,60.33,61.11,62Zm11.72,3.15V60.92c0-.86.13-2.48-1.12-2.48-1.41,0-1.9,2.51-1.9,3.57v3.13H68.73V60.92c0-.86.13-2.48-1.12-2.48S65.71,61,65.71,62v3.13H64.62V57.53h1.09v1.76h0c.3-1.09.88-1.93,2.13-1.93a1.74,1.74,0,0,1,1.92,1.74h0A2.31,2.31,0,0,1,72,57.36c1.34,0,2,1.15,2,2.35v5.43Zm6.78,0v-1h0a2.69,2.69,0,0,1-2.33,1.18,1.92,1.92,0,0,1-2-2.12c0-1.74,2.22-2.37,3.63-2.37a3.88,3.88,0,0,0,.75,0v-.16c0-1.13.08-2.35-1.44-2.35-.89,0-1.44.3-1.55,1.21H75.38c0-1.54,1.38-2.13,2.74-2.13,1.73,0,2.56.75,2.56,2.45v5.34Zm-.67-3.45c-1,0-2.49.4-2.49,1.62a1,1,0,0,0,1.07,1.1,2,2,0,0,0,1.78-1.18,3.17,3.17,0,0,0,.29-1.54Zm7.8,3.45V60.92c0-.86.13-2.48-1.12-2.48-1.52,0-2.16,2.37-2.16,3.57v3.13H82.38V57.53h1.09v1.76h0a2.37,2.37,0,0,1,2.38-1.93c1.34,0,1.95,1.15,1.95,2.35v5.43Zm6.82-5.29c0-.88-.38-1.58-1.36-1.58-1.39,0-1.8,1.52-1.8,2.66,0,2,.86,3.49,3,3.49a4,4,0,0,0,1.23-.16v.86a5.18,5.18,0,0,1-1.58.21c-2.62,0-3.92-1.62-3.92-4.16,0-2.08.77-3.81,3.1-3.81a2.31,2.31,0,0,1,2.61,2.5Zm3,.77v.45c0,1.66.83,3.34,2.7,3.34a5.9,5.9,0,0,0,1.5-.21v.9a5.83,5.83,0,0,1-1.75.22c-2.64,0-3.71-1.77-3.71-4.24,0-2,.73-3.73,3-3.73,1.77,0,2.65,1.22,2.65,2.89v.37Zm1.68-2.35a1.59,1.59,0,0,0-1.6,1.44h3.05A1.41,1.41,0,0,0,98.26,58.27Zm3.57,6.87v-1.6h1.6v1.6Zm10.35-.3a7,7,0,0,1-2.3.3h-2.08v-11h2.48c3.55,0,4.53,2.3,4.53,5.48C114.81,61.69,114.43,64.07,112.19,64.84Zm-.62-9.45a5.29,5.29,0,0,0-1.81-.24h-.7v9h.85a4.67,4.67,0,0,0,1.87-.3c1.53-.7,1.68-2.74,1.68-4.19S113.29,56,111.57,55.39Zm5.48,5.23v.45c0,1.66.83,3.34,2.71,3.34a5.86,5.86,0,0,0,1.5-.21v.9a5.81,5.81,0,0,1-1.74.22c-2.64,0-3.71-1.77-3.71-4.24,0-2,.74-3.73,3-3.73,1.78,0,2.66,1.22,2.66,2.89v.37Zm1.68-2.35a1.6,1.6,0,0,0-1.6,1.44h3.06A1.41,1.41,0,0,0,118.73,58.27Zm4.12,6.87v-11h1.09v11Zm2.85-9.59V54.11h1.44v1.44Zm.18,9.59V57.53H127v7.61Zm5.93,0h-1.1l-2.88-7.61H129l2.24,6h0l2-6h1.17Zm4.06-4.52v.45c0,1.66.83,3.34,2.7,3.34a5.88,5.88,0,0,0,1.5-.21v.9a5.83,5.83,0,0,1-1.74.22c-2.64,0-3.71-1.77-3.71-4.24,0-2,.74-3.73,3-3.73,1.77,0,2.66,1.22,2.66,2.89v.37Zm1.68-2.35a1.6,1.6,0,0,0-1.6,1.44H139A1.4,1.4,0,0,0,137.54,58.27ZM142.72,62v3.15h-1.08V57.53h1.08V59h0a2.56,2.56,0,0,1,2.54-1.65v1.17C143.33,58.52,142.72,60.33,142.72,62ZM147,60.62v.45c0,1.66.84,3.34,2.71,3.34a5.86,5.86,0,0,0,1.5-.21v.9a5.81,5.81,0,0,1-1.74.22c-2.64,0-3.71-1.77-3.71-4.24,0-2,.74-3.73,3-3.73,1.77,0,2.66,1.22,2.66,2.89v.37Zm1.68-2.35a1.6,1.6,0,0,0-1.6,1.44h3.06A1.41,1.41,0,0,0,148.65,58.27Zm8.25,6.87V63.85h0a2.06,2.06,0,0,1-2,1.47c-2.19,0-2.6-2.14-2.6-3.92s.51-4,2.59-4a2,2,0,0,1,2,1.43h0V54.11H158v11Zm-1.77-6.87c-1.49,0-1.62,2.29-1.62,3.34s.17,2.8,1.58,2.8,1.79-2,1.79-3S156.57,58.27,155.13,58.27Zm4.27,6.87v-1.6H161v1.6Z"/></svg>