<svg xmlns="http://www.w3.org/2000/svg" xmlns:xlink="http://www.w3.org/1999/xlink" viewBox="0 0 4780 1800"><style>.st2{clip-path:url(#SVGID_2_)}.st3{fill:#45d1de}.st4{fill:#5e2d00}.st6{opacity:.15}.st10{fill:#ffcd85}.st11{fill:#842000}.st12{fill:#e07108}.st13{opacity:.1}.st15{fill:#ffc36c}.st16{fill:#f0b766}.st17{fill:#e3ac30}.st20{fill:#a05f00}.st22{fill:#008bae}.st23{fill:#ffd69c}</style><g id="OBJECTS"><defs><path id="SVGID_1_" d="M0 2h4780v1800H0z"/></defs><clipPath id="SVGID_2_"><use xlink:href="#SVGID_1_" overflow="visible"/></clipPath><path d="M4780 1236.65c-191.33-69.83-425.02-118.9-675.23-127.91-510.38-18.38-995.99 127.62-1505.74 106.32-299.43-12.51-568.83-81.84-805.82-160.3-236.99-78.47-455.08-168.23-714.07-233.06s-574.56-103.04-862.8-66.5C139.14 764.98 66.87 779.79 0 798.4V1800h4780v-563.35z" clip-path="url(#SVGID_2_)" fill="#50f0ff"/><path d="M4780 1338.03c-64.55-32.09-129.11-64.18-193.66-96.27-234.77-116.71-489.58-238.63-795.82-257.39-251.58-15.41-500.22 42.36-718.98 116.76-218.75 74.39-420.2 166.48-648.33 230.48s-496.17 98.08-734.44 48.34c-254.94-53.22-427.07-189.66-639.41-287.97C781.02 967.75 434.23 903.09 92.68 913.62c-30.98.96-61.9 2.54-92.68 4.71V1800h4780v-461.97z" clip-path="url(#SVGID_2_)" fill="#4adfed"/><g class="st2"><path class="st3" d="M1433.37 1593.21c-102.39-92.29-181.99-193.46-298.44-279.85-224.67-166.67-585.79-267.15-948.28-263.86-62.65.57-125.1 4.24-186.65 10.8V1800h1815.57c-162.14-38.37-286.21-120.26-382.2-206.79zM2531.67 1722.56c-82.74 31.84-174.2 59.25-269.12 77.44H4780v-324.34c-178.8-69.28-381.9-117.12-593.34-137.95-370.59-36.51-763.28 10.23-1080.15 128.57-203.17 75.87-373.46 178.79-574.84 256.28z"/></g><g class="st2"><path class="st4" d="M3558.53 1147.61c-27.42 8.27-56.11 14.3-84.58 11.24s-56.91-16.35-72.92-40.09c-16.01-23.74-21.54-65.04-2.09-86.05-24.97-6.51-43.52-32.08-41.96-57.84 1.55-25.76 12.75-48.68 38.32-52.14-18.09-20.17-21.3-52.27-7.55-75.63s47.28-33.22 73.7-27.19c-12.24-11.68-12.69-32.58-3.18-46.57 9.51-13.99 26.97-21.24 43.89-21.32 16.92-.08 33.33 6.21 47.95 14.74-4.71-11.93 14.51-22.66 25.22-29.74a209.655 209.655 0 0 1 51.12-24.58c14.02-4.53 29.25-7.55 43.41-3.45 13.1 3.8 23.91 13.41 31.73 24.6 7.81 11.18 12.99 23.96 18.09 36.61 17.99-16.87 56.95-14.87 78.23-2.4 21.28 12.47 34.36 36.38 37.37 60.86 3.01 24.48-3.13 49.4-13.43 71.81 14.25-6.91 49.97-11.54 63.03-2.58s22.23 22.5 29.89 36.35c8.9 16.08 16.35 33.66 16.35 52.04 0 18.38-8.91 37.69-25.47 45.65 21.12 64.48 3.14 141.43-60.01 166.25-46.79 18.39-104.5 8.38-144.03 39.44-14.86 11.68-29.98 29.67-48.27 24.94-10.18-2.63-17.13-11.83-22.77-20.71-19.83-31.23-33.93-66.09-41.38-102.33-12.33 1.28-18.79 4.52-30.66 8.09z"/><path d="M3256.18 2317.91c-4.48-124.03-8.95-248.05-13.43-372.08-3.51-97.2-6.98-195.08 7.69-291.23 14.66-96.15 48.74-191.55 112.4-265.08 63.66-73.53 159.76-122.53 256.71-114.78 123.49 9.87 257.75 40.51 334.93 137.41 77.86 97.75 90.05 231.59 88.24 356.55-2.97 205.38-35.27 410.31-95.6 606.65-153.55-47.8-259.43 123.95-418.53 100.55-39.24-5.77-89.06-4.87-128.43 0s-119.11-188.88-143.98-157.99z" fill="#ffd525"/><path class="st6" d="M3619.55 1274.75c-45.47-3.63-90.74 5.21-132.58 23.21-6.11 24.54-16.68 47.96-31.32 68.58-17.36 24.46-39.99 44.9-56.57 69.89-16.58 24.99-26.65 57.34-15.13 85.03 8.2 19.72 26.38 34.09 46.37 41.62 19.99 7.53 41.76 8.93 63.12 8.54 11.05 20.35 30.89 34.63 53.93 36.99 80.68 8.25 163.96-40.82 195.84-115.39 61.52 25.79 139.04-7.64 185.14-55.86 8.57-8.96 16.32-18.54 23.36-28.61-77.6-94.2-210.14-124.25-332.16-134z"/><path d="M3544.91 1101.36c2.35 75.11-3.15 150.47-16.38 224.45 51.8 32.36 117.03 41.99 172.01 15.4 5.78-82.62 7.88-164.19 13.66-246.8-63.78-14.15-108.43-16.8-169.29 6.95z" fill="#5c4a31"/><path d="M3704.52 1275.17c3.18-60.24 5.44-120.23 9.68-180.77-63.78-14.14-108.43-16.79-169.29 6.96 1.92 61.36-1.41 122.87-9.89 183.67 56.52 5.69 113.97 2.28 169.5-9.86z" fill="#4f402a"/><path d="M3516.9 889.94c-65.39 105.63-75.87 243.3-27.21 357.6 50.73-3.28 102.86-9.89 148.99-31.26 46.13-21.37 85.67-64.8 87.16-115.61 11.13-.56 21.89-6.42 28.97-15.02 7.07-8.6 11.52-19.03 15.57-29.4 3.52-9.03 6.86-18.33 7.29-28.01.43-9.68-2.44-19.95-9.64-26.44-10.85-9.78-28.49-8.11-40.74-.14-12.25 7.97-20.36 20.76-28.09 33.16 14.81-30.04 24.3-65.41 11.68-96.44-10.82-26.61-38.85-42.09-66.39-50.22-41.75-12.35-85.76-10.32-127.59 1.78z" fill="#705a3b"/><path class="st6" d="M3773.71 2329.36c60.43-235.61 53.1-488.6-22.8-719.81 28.86 230.52-6.27 477.98-93.25 696.38 38.88 7.09 77.51 14.81 116.05 23.43z"/><path class="st4" d="M3466.89 877.83c-14.38 21.65-11.03 53.34 7.56 71.51s50.34 20.8 71.66 5.94c10.84 21.82 34.9 36.13 58.64 41.6 23.74 5.47 49.81-.23 69.11-15.11 2.19 39.05 2.32 74.98-10.47 111.94 13.48.27 25.59 1.78 37.81-3.91 5.74-58.82 35.19-108.13 84.6-140.55-21.62-47.84-39.89-109.82-88.43-129.83-30.09-12.4-64.02-10.1-96.31-6.09-50.07 6.22-106.27 22.47-134.17 64.5z"/><g><path class="st10" d="M2213.81 1478.53c-5.37-26.57 8.62-52.63 17.22-78.34a203.045 203.045 0 0 0 10.45-61.37c.25-17.09-3.18-36.72-17.83-45.52-13.55-8.14-30.84-3.56-45.91 1.24-25.27-31.9.15-88.38-23.43-121.55-15.88-22.34-49.93-24.4-74.53-12.31-28.85 14.18-48.26 43.46-56.45 74.54-8.19 31.08-6.36 63.96-1.51 95.74 6.38 41.81 18.16 83.42 40.56 119.3 22.4 35.87 56.29 65.71 96.92 77.45 25.73 7.43 59.82-22.93 54.51-49.18z"/><path class="st11" d="M2900.75 740.79c67.98 32.49 143.14 49.83 218.48 50.41 33.03.25 66.26-2.65 98.99 1.78 32.73 4.43 65.93 17.35 86.47 43.22 20.54 25.87 24.32 66.55 2.24 91.12-31.02-28.82-75.67-29.85-117.7-34.97s-84.61-3.22-126.8-6.76-85.33-13.17-119.37-38.33c-34.05-25.17-51.08-65.05-42.31-106.47z"/><path class="st11" d="M2998.35 1041.62c-21.45 14.31-47.49 21.6-73.26 20.52-25.89-1.09-52.75-11.74-67.01-33.38-14.25-21.65-10.36-55.7 11.31-69.9-30.17-23.15-57.82-50.96-74.08-85.34-16.26-34.38-19.85-76.14-2.93-110.2s56.75-57.3 93.84-48.92c42.06 9.5 66.72 51.94 100.46 78.79 90.35 71.88 236.71 26.01 327.02 97.94 18.08-11.84 43.95 17.57 48.01 38.8 4.06 21.23-5.92 42.36-15.61 61.69-32.19 64.16-64.38 128.31-96.57 192.47-7.22 14.39-14.67 29.09-26.34 40.17-11.68 11.08-28.64 18-44.1 13.53-38.87-11.24-77.9-23.84-95.07-60.48-8.52-18.18-11.77-38.29-16.49-57.81-4.72-19.52-11.38-39.35-25.11-53.99-13.72-14.66-27.36-35.03-44.07-23.89z"/><path class="st12" d="M2998.72 1334.88l-34.77 274.8c-5.79 45.8-11.59 91.6-17.38 137.4-3.83 30.28-.84 70.35-10.77 99.01-11.23 32.43-48.67 64.89-71.15 90.18a1474.051 1474.051 0 0 1-81.83 84.94c-57.74 55.33-119.97 106.04-186.19 150.89-99.53-46.41-172.76-134.73-234.72-225.41-89.54-131.04-158.41-281.13-213.63-429.92 5.56-32.58 31.64-58.53 62.66-69.94 129.92 102.71 231.5 250.42 285.62 406.95 56.56-110.34 116.19-220.25 195.55-315.52 79.36-95.27 180.38-175.95 298.68-213.11l7.93 9.73z"/><path class="st13" d="M2990.78 1325.15c-73.82 23.19-140.91 63.33-200.21 113.38-111.66 166.85-179.38 363.32-194.73 563.53-87.48-46.45-166.23-110.86-232.29-184.96-85.99-96.48-152.03-208.72-205.75-326.62-4.63 8.09-7.94 16.91-9.54 26.29 55.22 148.8 124.09 298.88 213.63 429.92 61.96 90.67 135.18 179 234.72 225.41 3.74-2.53 7.46-5.09 11.17-7.66 1.14-.79 2.28-1.59 3.43-2.38 2.63-1.83 5.25-3.67 7.86-5.51 1.25-.89 2.5-1.77 3.75-2.66 2.82-2.01 5.64-4.03 8.45-6.07.88-.64 1.77-1.27 2.66-1.92 3.47-2.53 6.93-5.07 10.38-7.63 1.43-1.06 2.85-2.13 4.28-3.19 2.12-1.59 4.24-3.18 6.36-4.78 1.65-1.25 3.3-2.5 4.95-3.76 1.89-1.45 3.78-2.9 5.67-4.36 1.7-1.31 3.4-2.62 5.1-3.94 3.07-2.39 6.13-4.79 9.17-7.21 2.04-1.61 4.06-3.24 6.09-4.87 1.35-1.08 2.7-2.16 4.04-3.24 2.13-1.72 4.24-3.44 6.36-5.17 1.14-.93 2.28-1.87 3.42-2.81 7.74-6.36 15.42-12.81 23.03-19.33.55-.47 1.1-.94 1.64-1.41 2.43-2.09 4.85-4.19 7.27-6.3.74-.64 1.48-1.29 2.22-1.94 2.47-2.16 4.94-4.33 7.4-6.51l.03-.03c14.07-12.48 27.9-25.22 41.47-38.23 28.39-27.21 55.7-55.55 81.83-84.94 22.48-25.29 59.92-57.75 71.15-90.18 9.93-28.67 6.94-68.74 10.77-99.01 5.79-45.8 11.59-91.6 17.38-137.4l34.77-274.8-7.93-9.71z"/><path d="M2737.04 2390.39c-4.69-129.85-9.37-259.7-14.06-389.56-3.67-101.76-7.31-204.24 8.05-304.9 15.35-100.66 51.03-200.54 117.68-277.53 66.65-76.99 167.26-128.28 268.76-120.17 129.29 10.33 269.85 42.41 350.66 143.86 81.51 102.34 94.28 242.47 92.39 373.29-3.11 215.02-36.92 429.58-100.09 635.14-160.76-50.05-271.61 129.77-438.19 105.27-41.09-6.04-93.24-5.1-134.46 0-41.21 5.1-124.7-197.75-150.74-165.4z" fill="#ff8009"/><path class="st6" d="M3117.47 1298.23c-47.6-3.8-95.01 5.46-138.8 24.3-6.39 25.69-17.47 50.21-32.79 71.8-18.17 25.61-41.87 47.01-59.23 73.17-17.36 26.17-27.9 60.03-15.84 89.02 8.59 20.65 27.61 35.7 48.54 43.58 20.93 7.88 43.72 9.34 66.08 8.94 11.57 21.3 32.34 36.26 56.46 38.72 84.47 8.64 171.66-42.74 205.04-120.81 64.41 27 145.57-8 193.84-58.48 8.97-9.38 17.09-19.41 24.46-29.95-81.24-98.62-220-130.07-347.76-140.29z"/><path class="st15" d="M3039.33 1116.7c2.46 78.64-3.3 157.54-17.15 234.99 54.23 33.88 122.52 43.96 180.09 16.12 6.05-86.5 8.25-171.9 14.3-258.39-66.78-14.81-113.52-17.58-177.24 7.28z"/><path class="st16" d="M3206.44 1298.68c3.33-63.07 5.7-125.87 10.13-189.26-66.78-14.8-113.52-17.58-177.24 7.28 2.01 64.24-1.47 128.64-10.36 192.3 59.18 5.95 119.33 2.38 177.47-10.32z"/><path class="st10" d="M3010.01 895.35c-68.46 110.59-79.43 254.72-28.48 374.4 53.12-3.44 107.7-10.35 155.99-32.73 48.3-22.37 89.69-67.84 91.25-121.04 11.65-.58 22.92-6.72 30.33-15.73s12.06-19.92 16.3-30.78c3.69-9.45 7.18-19.19 7.63-29.33.45-10.14-2.55-20.89-10.09-27.68-11.36-10.24-29.83-8.49-42.66-.15-12.82 8.34-21.32 21.74-29.41 34.72 15.51-31.45 25.44-68.49 12.23-100.97-11.33-27.86-40.67-44.06-69.51-52.58-43.72-12.92-89.79-10.8-133.58 1.87z"/><path class="st11" d="M2907.7 901.19c24.7 38.95 62.61 69.35 105.99 85.02 43.38 15.66 91.96 16.49 135.85 2.31.49 37.71 9.88 77.43 25.89 111.57 20.97-49.36 61.04-92.07 107.83-118.28-16.19-57.48-64.84-102.31-121.04-122.49-56.2-20.19-117.66-20.16-177.07-14.14-20.13 2.04-40.59 4.85-58.79 13.68-18.2 8.83-34.03 24.71-37.98 44.55 3.95-1.11 15.36-1.11 19.32-2.22z"/><path class="st12" d="M3278.87 2402.38c63.27-246.68 55.6-511.55-23.87-753.61 30.21 241.34-6.56 500.43-97.63 729.09 40.72 7.41 81.16 15.48 121.5 24.52z"/></g><g><path class="st17" d="M1314.25 1373.87c34.25-58.7 41.03-140.19 27.15-206.72 35.87-29.9 41.91-87.13 18.58-127.58s-70.8-63.55-117.48-64.35c-46.69-.8-92.12 18.42-129.43 46.49-37.32 28.07-67.37 64.61-94.97 102.28-38.32 14.24-72.06 63.12-68.26 103.83 3.8 40.71 27.39 77.11 55.4 106.89s60.89 54.62 89.37 83.95c28.48 29.33 53.13 64.78 58.86 105.26 61.23-18.2 128.59-94.89 160.78-150.05z"/><path d="M1509.9 2353.86c3.78-104.72 7.56-209.43 11.33-314.15 2.96-82.06 5.89-164.7-6.49-245.88-12.38-81.18-41.15-161.72-94.9-223.81-53.75-62.08-134.88-103.45-216.74-96.91-104.26 8.33-217.62 34.2-282.78 116.02-65.73 82.53-76.03 195.53-74.5 301.03 2.51 173.4 29.78 346.42 80.71 512.19 129.64-40.36 219.03 104.65 353.37 84.89 33.13-4.87 75.19-4.11 108.43 0s100.57-159.47 121.57-133.38z" fill="#9f46b3"/><path class="st6" d="M1203.11 1473.11c38.39-3.07 76.61 4.4 111.93 19.6 5.15 20.71 14.08 40.49 26.44 57.9 14.65 20.65 33.76 37.91 47.76 59.01s22.5 48.41 12.78 71.79c-6.92 16.65-22.27 28.79-39.15 35.14-16.88 6.36-35.26 7.54-53.29 7.21-9.33 17.18-26.08 29.24-45.53 31.23-68.12 6.97-138.43-34.46-165.35-97.43-51.94 21.78-117.39-6.45-156.31-47.16-7.23-7.56-13.78-15.65-19.72-24.15 65.51-79.54 177.41-104.9 280.44-113.14z"/><path class="st15" d="M1266.13 1326.72a915.164 915.164 0 0 0 13.83 189.5c-43.73 27.32-98.8 35.45-145.23 13-4.88-69.75-6.65-138.62-11.53-208.38 53.84-11.93 91.54-14.17 142.93 5.88z"/><path class="st16" d="M1131.36 1473.47c-2.68-50.86-4.59-101.51-8.17-152.62 53.85-11.94 91.55-14.18 142.93 5.87a915.922 915.922 0 0 0 8.35 155.07c-47.71 4.81-96.22 1.93-143.11-8.32z"/><path class="st10" d="M1289.77 1148.22c55.21 89.18 64.05 205.42 22.97 301.92-42.83-2.77-86.85-8.35-125.79-26.39-38.95-18.04-72.33-54.71-73.59-97.61-9.39-.47-18.48-5.42-24.46-12.68-5.97-7.26-9.73-16.06-13.15-24.82-2.98-7.62-5.79-15.47-6.16-23.65-.36-8.18 2.06-16.84 8.14-22.32 9.16-8.26 24.06-6.85 34.4-.12 10.34 6.73 17.19 17.53 23.72 28-12.51-25.37-20.52-55.23-9.86-81.43 9.14-22.46 32.8-35.53 56.06-42.4 35.25-10.42 72.4-8.71 107.72 1.5z"/><path d="M1072.95 2363.52c-51.02-198.93-44.84-412.52 19.25-607.73-24.36 194.63 5.29 403.56 78.73 587.95-32.83 5.99-65.44 12.5-97.98 19.78z" fill="#7a368a"/><path class="st17" d="M1061.2 1193.68c32.23 32.01 56.85 71.63 71.29 114.7 8.14-1.93 15.51-7.26 19.44-14.64-10.05-29.02-9.66-60.94-1.37-90.51 29.73 6.85 63.04 6.18 93.54 5.57 30.5-.61 61.95-9.51 84.08-30.51 5.66-36 6.84-77.65-18.46-103.87-20.28-21.02-52.8-24.18-81.88-21.44-42 3.95-83.76 17.97-116.49 44.59-32.73 26.6-48.97 53.94-50.15 96.11z"/></g><g><path class="st20" d="M1755.74 1253.25c-1.08 19.44-11.17 38.19-26.79 49.8s-43.18 20.24-62.11 15.67c-51.35 28.1-119.4 21.97-164.9-14.86s-62.04-105.71-45.25-161.79c-27.72-4.76-49.64-27.86-60-54.01s-10.95-55.07-9.7-83.17c1.02-22.91 3.24-46.04 10.83-67.67 7.59-21.64 19.31-39.56 38.82-51.61-23.48-1.02-46.88 4.85-68.44 14.22-.58-13.16.93-26.26.35-39.41 29.36-4.16 60.16-5.2 88.53 3.44 2.34-39.29 27.48-76.41 63.11-93.15 35.62-16.74 80.24-12.42 111.99 10.85 14.82-27.39 53.58-42.21 83.69-50.19 29.25-7.75 60.23-13.2 89.61-5.98s56.74 29.95 61.02 59.9c23.69-1.78 41.46 11.78 56.45 30.22 33.27 40.95 30.85 101.7 10.08 150.2-20.77 48.5-56.82 88.49-88.62 130.6-31.8 42.1-60.71 89.79-63.07 142.5-12.47 1.19-16.03 6.37-25.6 14.44z"/><path d="M1728.03 1420.76c75.98 21.35 156.25 45.3 208.94 104.05 63.35 70.64 71.43 174.23 67.4 269.02-9.8 230.52-71.58 455.28-132.98 677.69-44.3-21.61-95.47-30.31-139.76-51.91 17.67-54.77 11.35-113.98 5.84-171.26-26.04-270.81-28.31-556.19-9.44-827.59z" fill="#00728f"/><path class="st22" d="M1884.73 2446.03c61.33-241.42 89.77-491.17 84.28-740.2-1.56-70.56-7.46-145.77-50.15-201.98-28.13-37.04-69.88-61.95-113.85-77.13-43.97-15.18-90.46-21.36-136.64-26.85-54.79-6.5-118.29.35-171.71 14.17s-105.26 38.68-142.96 78.96c-36.31 38.8-57.55 89.89-67.39 142.11-9.84 52.22-8.93 105.86-5.54 158.88 16 249.96 87.18 496.24 206.99 716.2 143.91-6.92 283.77-39.2 417.48-92.85"/><path class="st22" d="M1570.09 1799.84c-125.08 71.83-222.21 184.61-299.52 306.37-63.6 100.17-116.11 209.85-132.89 327.31-16.78 117.46 7.1 258.56 80.14 352.07-34.27 16.85-66.61 21.59-104.36 27.4-57.56-131.64-113.4-264.8-147.85-404.28-34.44-139.48-46.91-286.46-17.08-427 56.02-263.92 270.65-487.55 532.04-554.37 59.57 1.06 102.52 42.32 124.48 97.71 21.96 55.39 21.41 116.75 20.55 176.33-.63 43.05-18.18 77.03-55.51 98.46z"/><path class="st13" d="M1805.02 1426.72c-43.97-15.18-90.46-21.36-136.64-26.85-54.79-6.5-118.29.35-171.71 14.17-31.68 8.2-62.81 20.28-90.76 37.16.52 18.57 5.22 36.92 15.08 52.57 14.55 23.08 41.26 39.13 68.48 37.21-5.79 21.54 8.55 43.74 26 57.63s43.26 16.25 62.95 5.77c84.46 61.95 206.19 72.08 287.51 6.06 29.02-23.56 50.09-53.48 66.04-86.82-3.93-6.81-8.27-13.42-13.1-19.78-28.13-37.04-69.89-61.95-113.85-77.12z"/><path class="st10" d="M1579.25 1115.41c2.09 103.25 4.19 206.51 6.28 309.76 44.53 18.48 95.81 19.28 138.35-3.4 6.29-53.88 13.81-104.23 20.11-158.12-50.39-53.71-101.08-111.17-164.74-148.24z"/><path class="st23" d="M1777.25 964.59c27.78 57.44 44.67 120.13 49.51 183.75-9.1 5.92-15.67 10.8-24.77 16.72 2.16 69.14 7.99 144.84 19.74 213.01-50.36 12.71-106.78 5.05-151.43-21.5-44.65-26.55-78.12-71.27-91-121.59-28.65-14.65-35.98-53.02-44.56-84.04-3.87-14.01-7.78-28.37-6.54-42.85 1.24-14.48 8.72-29.32 21.99-35.25 13.27-5.93 31.89.81 34.99 15-32.5-4.86-48.77-50.82-50.04-83.66-1.27-32.84 18.38-64.46 46.1-82.12 27.71-17.65 62.3-22.44 94.86-18.07 42.93 5.77 82.3 21.62 101.15 60.6z"/><path d="M1807.24 1259.74c-2.6-32.03-4.29-64-5.24-94.68 9.1-5.92 15.67-10.8 24.77-16.72-4.84-63.62-21.73-126.31-49.51-183.75-8.5-17.56-21.17-30.42-36.44-39.78-15.58 3.68-30.04 12.21-39.02 24.66 40.07 57.37 69.4 122.23 86 190.21-11.96 4.01-26.22 9.07-38.18 13.09 12.82 30.31 19.27 68.72 18.68 101.63 10.35 12.92 23.13 9.23 38.94 5.34z" fill="#f0ca93"/><path class="st20" d="M1788.54 1191.81c20.39 9.02 35.63 27.32 44.8 47.64 9.17 20.32 12.83 42.68 15.07 64.86 2.7 26.62 2.89 55.6-12.48 77.5-17.42 24.82-50.49 33.72-80.8 33.1-53.48-1.08-105.92-27.35-138.8-69.54s-45.56-99.45-33.55-151.58c7.78-1.19 11.22-4 18.99-5.19 5.02 37 20.23 74.15 46.04 101.14 26.81-52.61 81.72-95.88 140.73-97.93zM1506.41 1023.91c35.8 33.04 64.5 73.73 83.6 118.55 7.31-.02 10.1-6.55 13.69-12.93-21.7-38.89-33.21-85.43-25.96-129.37 37.7 26.31 92.95 22.07 129.92-5.25 14.44 18.97 23.66 38 38.27 56.83s33.78 35.63 57.11 40.51 50.92-5.51 59.69-27.68c19.14-48.4 30-104.23 12.35-153.19-17.65-48.97-58.46-88.27-106.88-107.36-48.42-19.09-103.63-18.59-152.96-2-46.14 15.51-88.5 45.99-111.41 88.94-22.92 42.96-33.19 99.95 2.58 132.95z"/><path class="st13" d="M1487.77 2510.2c59.45-2.86 118.21-10.06 176.14-21.3-72.05-68.88-129.37-153.21-166.14-245.87-52.01-131.06-62.69-278.19-30.16-415.39a721.998 721.998 0 0 0-72.09 78.4c6.17-62.93 2.01-122.67 8.18-185.6-219.66 185.56-343.16 479.34-322.06 766.11 8.13 110.56 38.71 223.04 102.89 312.15 11.06-3.38 22.07-7.59 33.29-13.11-73.03-93.51-96.92-234.62-80.14-352.07 16.78-117.46 69.29-227.14 132.89-327.31 14.05-22.13 28.76-43.96 44.17-65.3 34.67 163.68 93 322.36 173.03 469.29z"/><path class="st23" d="M1725.79 1275.76c-3.34 5.84-5.71 13.32-2.24 19.08 3.04 5.04 9.35 6.82 15.07 8.18 11.52 2.75 23.85 5.46 34.96 1.34 12.96-4.8 21.44-19.08 20.26-32.85-4.08-47.26-53.74-20.73-68.05 4.25z"/></g></g><path d="M2929.13 33.23c-84.65 1.3-170.71 3.76-251.17 30.09-80.46 26.33-155.89 80.22-188.52 158.34-33.98 81.36-15.58 179.16 36.29 250.46 51.87 71.3 133.39 117.49 219.07 138.31 60.39 14.68 123.04 17.69 183.86 30.46 60.82 12.77 122.24 37.18 161.97 84.98 91.58-76.24 185.53-163.48 222.97-276.61 37.08-112.05 5.96-243.77-77.34-327.37-83.3-83.59-189.12-90.47-307.13-88.66z" clip-path="url(#SVGID_2_)" fill="#ffcf50"/><path d="M1683.97 711.04a494.566 494.566 0 0 1-84.21-91.12c-38.65-54.14-115.58-81.87-137.22-144.77-21.63-62.9-14.77-135.79 21.45-191.58 34.9-53.76 92.82-88.22 151.8-113.31 92.66-39.42 193.14-60.35 293.83-61.21 90.81-.78 183.55 15.37 262.42 60.39s142.42 121.48 158.7 210.82-21.17 189.61-99.32 235.88c-67.49 39.97-151.22 36.09-229.49 30.99l-306.59-19.98c-13.74 29.62-28.35 51.38-31.37 83.89z" clip-path="url(#SVGID_2_)" fill="#65c3db"/><g class="st2"><path d="M1735.1 266.8h9.19V339h-9.19v-72.2zM1764.77 322.47V292.9h-7.96v-6.85l8.36-.52 1.09-15h7.56v15h14.49v7.37h-14.49v29.73c0 6.54 2.11 10.32 8.27 10.32 1.9 0 4.35-.72 6.09-1.44l1.75 6.83c-3 1.02-6.58 1.98-9.92 1.98-11.39 0-15.24-7.21-15.24-17.85zM1823.95 322.47V292.9h-7.96v-6.85l8.36-.52 1.09-15h7.56v15h14.49v7.37H1833v29.73c0 6.54 2.11 10.32 8.27 10.32 1.9 0 4.35-.72 6.09-1.44l1.75 6.83c-3 1.02-6.58 1.98-9.92 1.98-11.39 0-15.24-7.21-15.24-17.85zM1853.92 325.12c0-11.65 10.05-17.47 32.84-19.95-.02-6.88-2.3-13.51-11.04-13.51-6.19 0-11.76 2.93-15.95 5.73l-3.54-6.2c4.92-3.23 12.42-6.98 21-6.98 13.05 0 18.57 8.67 18.57 21.99V339h-7.47l-.76-6.39h-.3c-5.1 4.24-11.05 7.71-17.68 7.71-8.95 0-15.67-5.56-15.67-15.2zm32.84.83V311.1c-17.92 2.15-23.98 6.54-23.98 13.38 0 6.08 4.12 8.55 9.37 8.55 5.17 0 9.43-2.51 14.61-7.08zM1912.67 260.63h8.89v53.08h.3l22.83-28.18h10.03l-17.91 21.49 20.26 31.98h-9.89l-15.59-25.7-10.03 11.66V339h-8.89v-78.37zM1961.17 312.33c0-17.4 11.73-28.13 24.04-28.13 13.64 0 21.34 9.79 21.34 25.09 0 1.91-.16 3.82-.42 5.14h-36.01c.65 11.33 7.57 18.67 17.77 18.67 5.13 0 9.35-1.66 13.31-4.27l3.24 5.94c-4.69 3.07-10.38 5.55-17.66 5.55-14.26 0-25.61-10.42-25.61-27.99zm37.38-4.37c0-10.71-4.82-16.54-13.18-16.54-7.52 0-14.24 6.04-15.34 16.54h28.52zM2013.77 332.9l4.47-5.96c4.64 3.74 9.36 6.33 15.78 6.33 7.02 0 10.51-3.74 10.51-8.31 0-5.5-6.31-7.93-12.23-10.13-7.49-2.74-15.95-6.43-15.95-15.45 0-8.56 6.85-15.18 18.44-15.18 6.66 0 12.48 2.73 16.63 6.01l-4.33 5.8c-3.68-2.72-7.46-4.76-12.19-4.76-6.74 0-9.85 3.59-9.85 7.67 0 5.08 5.81 7.02 11.87 9.28 7.71 2.91 16.3 6.04 16.3 16.22 0 8.67-6.89 15.9-19.51 15.9-7.58 0-14.91-3.22-19.94-7.42zM1751.35 457.12c0-11.65 10.05-17.47 32.84-19.95-.02-6.88-2.3-13.51-11.04-13.51-6.19 0-11.76 2.93-15.95 5.73l-3.54-6.2c4.92-3.23 12.42-6.98 21-6.98 13.05 0 18.57 8.67 18.57 21.99V471h-7.47l-.76-6.39h-.3c-5.1 4.24-11.05 7.71-17.68 7.71-8.96 0-15.67-5.56-15.67-15.2zm32.84.83V443.1c-17.92 2.15-23.98 6.54-23.98 13.38 0 6.08 4.12 8.55 9.37 8.55 5.16 0 9.43-2.51 14.61-7.08zM1833.68 454.47V424.9h-7.96v-6.85l8.36-.52 1.09-15h7.56v15h14.49v7.37h-14.49v29.73c0 6.54 2.11 10.32 8.27 10.32 1.9 0 4.35-.72 6.09-1.44l1.75 6.83c-3 1.02-6.58 1.98-9.92 1.98-11.38 0-15.24-7.21-15.24-17.85zM1863.77 444.33c0-17.4 11.73-28.13 24.04-28.13 13.64 0 21.34 9.79 21.34 25.09 0 1.91-.16 3.82-.42 5.14h-36.01c.65 11.33 7.57 18.67 17.77 18.67 5.13 0 9.35-1.66 13.31-4.27l3.24 5.94c-4.69 3.07-10.38 5.55-17.66 5.55-14.27 0-25.61-10.42-25.61-27.99zm37.37-4.37c0-10.71-4.82-16.54-13.18-16.54-7.52 0-14.24 6.04-15.34 16.54h28.52zM1917.44 457.12c0-11.65 10.05-17.47 32.84-19.95-.02-6.88-2.3-13.51-11.04-13.51-6.19 0-11.76 2.93-15.95 5.73l-3.54-6.2c4.92-3.23 12.42-6.98 21-6.98 13.05 0 18.57 8.67 18.57 21.99V471h-7.47l-.76-6.39h-.3c-5.1 4.24-11.05 7.71-17.68 7.71-8.95 0-15.67-5.56-15.67-15.2zm32.84.83V443.1c-17.92 2.15-23.98 6.54-23.98 13.38 0 6.08 4.12 8.55 9.37 8.55 5.17 0 9.44-2.51 14.61-7.08zM1976.2 417.53h7.47l.76 7.75h.3c4.68-5.06 10.27-9.07 16.64-9.07 8.17 0 12.56 3.91 14.76 10.19 5.55-6.01 11.13-10.19 17.64-10.19 10.99 0 16.27 7.27 16.27 20.91V471h-9.05v-32.71c0-9.96-3.15-14.22-9.95-14.22-4.15 0-8.46 2.71-13.4 8.21V471h-9.05v-32.71c0-9.96-3.15-14.22-9.95-14.22-4.01 0-8.46 2.71-13.4 8.21V471h-9.05v-53.47z"/></g><g class="st2"><path d="M2763.79 225.47V195.9h-7.96v-6.85l8.36-.52 1.09-15h7.56v15h14.49v7.37h-14.49v29.73c0 6.54 2.11 10.32 8.27 10.32 1.9 0 4.35-.72 6.09-1.44l1.75 6.83c-3 1.02-6.58 1.98-9.92 1.98-11.39 0-15.24-7.21-15.24-17.85zM2793.87 215.33c0-17.84 11.67-28.13 24.78-28.13 13.11 0 24.78 10.28 24.78 28.13 0 17.7-11.67 27.99-24.78 27.99-13.11 0-24.78-10.28-24.78-27.99zm40.2 0c0-12.25-6.23-20.59-15.43-20.59s-15.43 8.34-15.43 20.59 6.23 20.45 15.43 20.45c9.2.01 15.43-8.19 15.43-20.45zM2887.4 236.48h-.3l-.84 5.52h-7.23v-78.37h9.05v21.44l-.3 9.59c4.89-4.22 10.84-7.45 16.8-7.45 13.81 0 21.24 10.72 21.24 27.2 0 18.27-10.94 28.91-23.16 28.91-4.99 0-10.53-2.56-15.26-6.84zm29.06-21.94c0-11.8-4.03-19.71-14.1-19.71-4.53 0-9.23 2.49-14.29 7.3v28.03c4.7 4.07 9.49 5.56 13.02 5.56 8.85-.01 15.37-7.98 15.37-21.18zM2939.13 222.41v-33.88h9.05v32.71c0 9.96 3.01 14.22 10.09 14.22 5.47 0 9.25-2.71 14.32-9.01v-37.92h9.05V242h-7.47l-.76-8.37h-.3c-4.96 5.84-10.29 9.69-17.64 9.69-11.28 0-16.34-7.27-16.34-20.91zM2998.03 171.69c0-3.55 2.73-5.84 6.25-5.84s6.25 2.29 6.25 5.84c0 3.41-2.73 5.85-6.25 5.85s-6.25-2.43-6.25-5.85zm1.66 16.84h9.05V242h-9.05v-53.47zM3026.75 231.26v-67.63h9.05v68.29c0 2.77 1.2 3.87 2.52 3.87.52 0 .96 0 1.98-.22l1.23 6.91c-1.29.46-2.84.84-5.21.84-6.78 0-9.57-4.33-9.57-12.06zM3050.98 215.33c0-17.34 10.94-28.13 23.13-28.13 6.22 0 10.29 2.34 14.99 6.2l-.38-9.17v-20.6h9.05V242h-7.47l-.76-6.31h-.3c-4.16 4.16-9.85 7.63-16.22 7.63-13.37 0-22.04-10.17-22.04-27.99zm37.74 13.08v-28.03c-4.56-4.07-8.68-5.56-13.04-5.56-8.55 0-15.35 8.25-15.35 20.43 0 12.82 5.3 20.45 14.67 20.45 4.95.01 9.24-2.4 13.72-7.29zM2657.91 360.12c0-11.65 10.05-17.47 32.84-19.95-.02-6.88-2.3-13.51-11.04-13.51-6.18 0-11.75 2.93-15.95 5.73l-3.54-6.2c4.92-3.23 12.42-6.98 21-6.98 13.05 0 18.57 8.67 18.57 21.99V374h-7.47l-.76-6.39h-.3c-5.09 4.24-11.05 7.71-17.68 7.71-8.95 0-15.67-5.56-15.67-15.2zm32.84.83V346.1c-17.92 2.15-23.98 6.54-23.98 13.38 0 6.08 4.12 8.55 9.37 8.55 5.17 0 9.43-2.51 14.61-7.08zM2716.66 320.53h7.47l.76 7.71h.3c5.1-5.01 10.6-9.03 17.94-9.03 11.27 0 16.33 7.27 16.33 20.91V374h-9.05v-32.71c0-9.96-3.01-14.22-10.09-14.22-5.47 0-9.25 2.79-14.62 8.21V374h-9.05v-53.47zM2795.52 360.12c0-11.65 10.05-17.47 32.84-19.95-.02-6.88-2.3-13.51-11.04-13.51-6.19 0-11.76 2.93-15.95 5.73l-3.54-6.2c4.92-3.23 12.42-6.98 21-6.98 13.05 0 18.57 8.67 18.57 21.99V374h-7.47l-.76-6.39h-.3c-5.09 4.24-11.05 7.71-17.68 7.71-8.96 0-15.67-5.56-15.67-15.2zm32.84.83V346.1c-17.92 2.15-23.98 6.54-23.98 13.38 0 6.08 4.12 8.55 9.37 8.55 5.17 0 9.43-2.51 14.61-7.08zM2847.89 320.53h9.25l7.93 30.89c1.16 5.08 2.15 9.89 3.17 14.91h.44c1.16-5.02 2.32-9.91 3.64-14.91l8.26-30.89h8.83l8.34 30.89c1.32 5.08 2.48 9.89 3.72 14.91h.44c1.16-5.02 2.15-9.83 3.31-14.91l7.79-30.89h8.62L2907.28 374h-11.02l-7.71-28.73c-1.3-5.06-2.32-9.98-3.61-15.41h-.44c-1.16 5.42-2.24 10.48-3.67 15.54l-7.49 28.59h-10.58l-14.87-53.46zM2928.84 347.33c0-17.4 11.73-28.13 24.04-28.13 13.64 0 21.34 9.79 21.34 25.09 0 1.91-.16 3.82-.42 5.14h-36.01c.65 11.33 7.57 18.67 17.77 18.67 5.13 0 9.35-1.66 13.31-4.27l3.24 5.94c-4.69 3.07-10.38 5.55-17.66 5.55-14.27 0-25.61-10.42-25.61-27.99zm37.37-4.37c0-10.71-4.82-16.54-13.18-16.54-7.52 0-14.24 6.04-15.33 16.54h28.51zM2981.44 367.9l4.47-5.96c4.64 3.74 9.36 6.33 15.78 6.33 7.02 0 10.51-3.74 10.51-8.31 0-5.5-6.31-7.93-12.23-10.13-7.49-2.74-15.95-6.43-15.95-15.45 0-8.56 6.85-15.18 18.44-15.18 6.66 0 12.48 2.73 16.63 6.01l-4.33 5.8c-3.68-2.72-7.46-4.76-12.19-4.76-6.74 0-9.85 3.59-9.85 7.67 0 5.08 5.81 7.02 11.87 9.28 7.71 2.91 16.3 6.04 16.3 16.22 0 8.67-6.89 15.9-19.51 15.9-7.59 0-14.92-3.22-19.94-7.42zM3029.48 347.33c0-17.84 11.67-28.13 24.78-28.13 13.11 0 24.78 10.28 24.78 28.13 0 17.7-11.67 27.99-24.78 27.99-13.11 0-24.78-10.28-24.78-27.99zm40.21 0c0-12.25-6.23-20.59-15.43-20.59s-15.43 8.34-15.43 20.59 6.23 20.45 15.43 20.45c9.2.01 15.43-8.19 15.43-20.45zM3093.07 320.53h7.47l.76 7.75h.3c4.68-5.06 10.27-9.07 16.64-9.07 8.17 0 12.56 3.91 14.76 10.19 5.55-6.01 11.13-10.19 17.64-10.19 10.99 0 16.27 7.27 16.27 20.91V374h-9.05v-32.71c0-9.96-3.15-14.22-9.95-14.22-4.15 0-8.46 2.71-13.4 8.21V374h-9.05v-32.71c0-9.96-3.15-14.22-9.95-14.22-4.01 0-8.46 2.71-13.4 8.21V374h-9.05v-53.47zM3180.29 347.33c0-17.4 11.73-28.13 24.04-28.13 13.64 0 21.34 9.79 21.34 25.09 0 1.91-.16 3.82-.42 5.14h-36.01c.65 11.33 7.57 18.67 17.77 18.67 5.13 0 9.35-1.66 13.3-4.27l3.24 5.94c-4.69 3.07-10.38 5.55-17.66 5.55-14.25 0-25.6-10.42-25.6-27.99zm37.38-4.37c0-10.71-4.82-16.54-13.18-16.54-7.52 0-14.24 6.04-15.34 16.54h28.52zM2756.59 452.53h7.47l.76 6.17h.3c4.83-4.02 10.85-7.49 17.04-7.49 13.81 0 21.2 10.72 21.2 27.25 0 18.23-10.94 28.87-23.16 28.87-4.9 0-9.91-2.26-14.82-6.19l.24 9.33v18.1h-9.05v-76.04zm37.44 26.01c0-11.8-4.03-19.71-14.1-19.71-4.53 0-9.09 2.49-14.29 7.3v28.03c4.84 4.07 9.49 5.56 13.02 5.56 8.85-.01 15.37-7.98 15.37-21.18zM2817.64 452.53h7.47l.76 9.74h.3c3.72-6.78 9.19-11.06 15.2-11.06 2.37 0 4.03.3 5.71 1.1l-1.69 7.94c-1.84-.58-3.04-.88-5.19-.88-4.52 0-9.91 3.25-13.53 12.3V506h-9.05v-53.47zM2850.73 479.33c0-17.84 11.67-28.13 24.78-28.13 13.11 0 24.78 10.28 24.78 28.13 0 17.7-11.67 27.99-24.78 27.99-13.1 0-24.78-10.28-24.78-27.99zm40.21 0c0-12.25-6.23-20.59-15.43-20.59s-15.43 8.34-15.43 20.59 6.23 20.45 15.43 20.45c9.2.01 15.43-8.19 15.43-20.45zM2910.52 479.33c0-17.34 10.94-28.13 23.14-28.13 6.22 0 10.29 2.34 14.99 6.2l-.38-9.17v-20.6h9.05V506h-7.47l-.76-6.31h-.3c-4.16 4.16-9.85 7.63-16.22 7.63-13.39 0-22.05-10.17-22.05-27.99zm37.73 13.08v-28.03c-4.56-4.07-8.67-5.56-13.04-5.56-8.55 0-15.35 8.25-15.35 20.43 0 12.82 5.3 20.45 14.67 20.45 4.96.01 9.24-2.4 13.72-7.29zM2974.66 486.41v-33.88h9.05v32.71c0 9.96 3.01 14.22 10.09 14.22 5.47 0 9.25-2.71 14.32-9.01v-37.92h9.05V506h-7.47l-.76-8.37h-.3c-4.96 5.84-10.29 9.69-17.64 9.69-11.28 0-16.34-7.27-16.34-20.91zM3031.24 479.33c0-17.84 12.05-28.13 25.73-28.13 7.02 0 11.88 2.9 15.64 6.28l-4.63 5.98c-3.12-2.81-6.4-4.73-10.61-4.73-9.68 0-16.78 8.34-16.78 20.59s6.71 20.45 16.54 20.45c4.89 0 9.22-2.37 12.55-5.33l3.92 6.06c-4.8 4.28-10.87 6.8-17.29 6.8-14.22.02-25.07-10.26-25.07-27.97zM3085.86 489.47V459.9h-7.96v-6.85l8.36-.52 1.09-15h7.55v15h14.49v7.37h-14.49v29.73c0 6.54 2.11 10.32 8.27 10.32 1.9 0 4.35-.72 6.09-1.44l1.75 6.83c-3 1.02-6.58 1.98-9.92 1.98-11.38 0-15.23-7.21-15.23-17.85z"/></g></g></svg>