<?xml version="1.0" encoding="utf-8"?>
<!-- Generator: Adobe Illustrator 21.1.0, SVG Export Plug-In . SVG Version: 6.00 Build 0)  -->
<svg version="1.1" id="Layer_1" xmlns="http://www.w3.org/2000/svg" xmlns:xlink="http://www.w3.org/1999/xlink" x="0px" y="0px"
	 viewBox="0 0 584 228" style="enable-background:new 0 0 584 228;" xml:space="preserve">
<style type="text/css">
	.st0{fill:#FFFFFF;}
</style>
<g>
	<g>
		<path class="st0" d="M27,185c0-48.3,0-96.7,0-145c176.7,0,353.3,0,530,0c0,48.3,0,96.7,0,145C380.3,185,203.7,185,27,185z
			 M42.5,98.5c-0.1,0-0.2-0.1-0.3-0.1c-0.4,2.7-0.6,5.4-1.3,8c-1.4,5.4-1.6,11.9,0.1,17.1c0.7,2,0.8,4,0.9,5
			c1.5,3.4,2.5,5.8,3.7,8.3c0.1,0,0.6,0.2,1.4,0.4c0,0.7-0.3,1.8,0.1,2.2c2.4,2.6,4.5,5.4,6.3,8.4c6.7,3.9,12.3,9.7,20,12.2
			c3.4,1.1,6.4,3.4,10.2,3c2.8,2,6.1,1.5,9.2,2.1c3.2,0.6,6.4,0.8,9.6,0.8c2.7,0,5.3,0.1,8,0c2.7-0.2,5.4-1,8.1-0.9
			c2.5,0.2,4.7-0.9,7.1-1.3c0.9-0.2,2-0.9,3.1-0.8c2.6,0.2,4.9-1.1,7.4-1.5c5.1-0.7,9.6-4,15-3.5c0.3,0,0.6-0.2,0.8-0.4
			c2.9-1.7,6.1-1.7,9.3-1.6c1.6,0,3.2,0,4.8,0c0-10.8,0-21.1,0-31.3c1.5-2,3-3.9,4.4-5.7c3.2-0.4,6.2-0.8,9.5-1.3
			c0.3-0.3,0.9-0.9,1.9-2c-1.1-0.5-1.9-0.8-3.4-1.5c-18.3,0-37.7,0-57.1,0c-0.8,1.8,0,2.9,1.4,3.9c3.3,0,6.6,0,9.4,0
			c4.8,1.9,6.2,5.2,6,9.7c-0.2,7.6-0.1,15.3-0.1,22.7c-1.7,2.9-5.9,6.9-8.5,7.5c-2.3,0.5-4.4,1.7-6.6,2c-2.5,0.3-4.9,1.4-7.6,1.2
			c-2.3-0.2-4.7,0.7-7.1,0.9c-3.7,0.3-7.3-1.7-11.1-1c-1.5-1.1-3.5-0.5-4.9-1.4c-3.2-1.8-7.4-2.1-9.7-5.6c-5.3-2.8-7.6-7.7-9.6-12.9
			c-1.2-3-0.7-6.2-1.9-9.2c-0.6-1.6-1-3.4-1-5.1c-0.1-6.5-0.1-13,0-19.5c0-1-0.1-2,0.2-2.9c1.1-3.2,1.9-6.4,1.8-9.7
			c0-0.8,0-1.7,0.3-2.4c1.6-4.5,3-9.1,5.8-13.1c2.1-3.1,3.9-6.4,7.5-8.4c3.4-2,6.2-4.8,10.4-5.2c2.1-2,4.8-1.6,7.3-1.6
			c3.5,0,7-0.1,10.5,0c3.3,0.1,6.8-0.8,9.7,1.9c0.4,0.3,1.3,0,1.9,0.1c1.4,0.3,3,0.3,4,1.1c1.3,1,2.4,1.9,4.2,2.2
			c1.3,0.2,2.3,2,3.5,2.2c1.8,0.3,1.5,2.8,3.4,2.5c2.5,2.9,6.4,4.6,7.9,8.1c0.7,1.5,2.4,1.5,2.7,3.3c0.3,1.5,2.8,2.2,3,4.2
			c3,2.1,3.5,6.1,6.3,8.4c0.6,0.5,0.5,1.7,0.7,2.6c0.8,0.4,1.6,0.8,2.3,1.1c0.9-0.5,1.7-0.9,2.5-1.3c0-13.4,0-26.7,0-40.2
			c-0.7-0.5-1.5-1-2-1.3c-2.8,2.3-5.2,4.5-7.8,6.3c-2.9,2.1-6.6,2.4-9.7,1.5c-2.9-0.8-6.5-0.1-9-3c-2.1,0.8-4.2-0.1-6.2-1.2
			c-0.4-0.2-0.8-0.6-1.2-0.6c-3.5-0.5-7-0.9-9.3-1.2c-2.7-0.8-4.3-1.7-5.9-1.8c-4.8-0.2-9.7-0.5-14.5,0.1c-4.2,0.5-8.2,2.5-12.7,1.9
			c-0.2,0-0.4,0.5-0.7,0.6c-4.1,1.5-8.3,2.2-12.3,4.2c-2.2,1.1-4.6,1.8-6.7,3.1c-3.2,2-6.6,3.7-9.4,6.2c-3.6,3.3-6.8,7.1-9.9,10.9
			c-1.5,1.8-2.5,3.9-3.5,6C44,94.2,43.3,96.4,42.5,98.5z M444.6,163c22.5,0,44.2,0,66,0c0.5-0.7,1.1-1.4,1.6-2.2
			c-0.7-0.7-1.1-1.2-1.7-1.8c-1.8,0-3.8,0.1-5.8,0c-4.9-0.3-9.5-1.1-11-6.8c-0.1-0.3-0.5-0.5-0.5-0.6c0-28.6,0-57.1,0-85.6
			c6.6,0,13.1,0,19.4,0c6.7,10.6,14.8,20.1,20.9,30.9c0.5,0.9,1.1,1.6,1.9,2.6c1.6-0.8,2.7-1.4,3.5-1.8c0-11.7,0-23.1,0-34.3
			c-0.5-0.5-1-1-1.3-1.3c-39.6,0-79.1,0-118.4,0c-0.5,0.5-0.9,0.9-1.2,1.2c0,11.5,0,23,0,34.8c1.2,0.3,2.3,0.7,3.4,1
			c0.9-1.4,2.2-2.5,2.1-3.5c-0.2-2.1,2-1.4,2.5-3c0.7-2.3,2.5-4.3,4-6.3c3.3-4.7,6.6-9.3,9.9-13.9c1.5-2.2,3-4.4,4.3-6.4
			c6.3,0,12.3,0,17.8,0c2.1,1.8,1.9,3.9,1.9,6c0,12.7,0,25.3,0,38c0,7.3,0.1,14.7,0,22c-0.1,7.2,0.9,14.4-1.1,21.1
			c-1.7,1.7-3.2,3.2-5.2,5.3c-3.4,0.3-7.4,0.6-11.8,0.9C445.5,160.2,445.1,161.4,444.6,163z M297.1,162.8c36.5,0,72.6,0,108.8,0
			c0-12.6,0-25.1,0-37.5c-0.7-0.6-1.2-1.1-2.2-1.9c-5,7-9.7,13.7-14.7,20.8c0,0.1,0,0.8,0,1c-2.2,2.1-3.6,4.4-5,6.8
			c-1.5,2.6-3.6,4.9-5.2,7.1c-5.6,0-10.7,0-15.9,0c-4.2,0-8.5,0.6-12-1.6c-1.3-1-2.6-2-3.7-2.8c0-28.3,0-56.3,0-83.4
			c1.6-1.7,2.7-2.9,3.7-3.9c4.9-2.3,10.1-0.7,15.2-1.5c-0.1-1.3-0.1-2.6-0.2-3.6c-23.1,0-45.9,0-68.7,0c0,1.3,0,2.4,0,3.7
			c4.9,0,9.7,0,14.6,0c1.8,1.5,3.7,3.1,5.2,4.4c0,28.1,0,55.7,0,83.5c-2,1.8-4.1,3.6-6.1,5.3c-4.7,0-9.2,0-13.7,0
			C297.1,160.4,297.1,161.5,297.1,162.8z M204.5,162.7c1.1,0.1,1.7,0.3,2.3,0.3c20.5,0,41,0,61.5,0c0.2,0,0.5-0.4,1-0.8
			c-0.5-1-1-2.2-1.4-3.2c-2.7,0-5,0-7.4,0c-2.1,0.1-3.9-1-5.8-1.7c-2.1-0.8-1.6-3-2.4-4.5c-0.6-1.1-0.4-2.5-0.4-3.8c0-23,0-46,0-69
			c0-3.7-0.3-7.4,0.8-9.6c4.8-5.1,9.9-4.3,14.7-4.3c0.7-0.7,1.2-1.3,2.2-2.3c-1.1-0.5-1.9-0.9-3.3-1.5c-19.3,0-39.8,0-60.6,0
			c-0.3,1.2-0.6,2.3-0.9,3.5c4.5,0.3,8.7,0.6,12.9,1c1.9,2.8,3.6,5.2,5.3,7.6c0,25,0,49.8,0,74.6c0,6.2-3.9,10-10.1,10.1
			c-2.2,0-4.3,0-6.8,0C205.6,160.1,205.1,161.2,204.5,162.7z"/>
		<path d="M42.5,98.5c0.8-2.2,1.6-4.4,2.6-6.4c1-2.1,2-4.3,3.5-6c3.1-3.8,6.3-7.6,9.9-10.9c2.8-2.5,6.2-4.2,9.4-6.2
			c2.1-1.3,4.5-2,6.7-3.1c3.9-2,8.2-2.7,12.3-4.2c0.3-0.1,0.5-0.7,0.7-0.6c4.4,0.6,8.5-1.4,12.7-1.9c4.8-0.6,9.7-0.3,14.5-0.1
			c1.6,0.1,3.2,0.9,5.9,1.8c2.3,0.3,5.8,0.7,9.3,1.2c0.4,0.1,0.8,0.4,1.2,0.6c2,1.1,4.1,1.9,6.2,1.2c2.6,2.9,6.1,2.2,9,3
			c3.2,0.8,6.8,0.6,9.7-1.5c2.6-1.9,5-4.1,7.8-6.3c0.5,0.3,1.3,0.9,2,1.3c0,13.5,0,26.8,0,40.2c-0.7,0.4-1.5,0.8-2.5,1.3
			c-0.6-0.3-1.4-0.7-2.3-1.1c-0.2-0.8-0.2-2.1-0.7-2.6c-2.8-2.3-3.3-6.3-6.3-8.4c-0.2-2-2.7-2.7-3-4.2c-0.4-1.8-2.1-1.8-2.7-3.3
			c-1.5-3.6-5.4-5.2-7.9-8.1c-1.9,0.3-1.6-2.3-3.4-2.5c-1.3-0.2-2.3-2-3.5-2.2c-1.8-0.3-2.8-1.2-4.2-2.2c-1-0.8-2.6-0.8-4-1.1
			c-0.6-0.1-1.6,0.2-1.9-0.1c-2.9-2.7-6.4-1.8-9.7-1.9c-3.5-0.1-7,0-10.5,0c-2.6,0-5.2-0.4-7.3,1.6c-4.2,0.4-7,3.2-10.4,5.2
			c-3.6,2.1-5.3,5.4-7.5,8.4c-2.8,3.9-4.1,8.6-5.8,13.1C72,93,72,93.9,72,94.7c0,3.4-0.8,6.6-1.8,9.7c-0.3,0.9-0.2,2-0.2,2.9
			c0,6.5-0.1,13,0,19.5c0,1.7,0.4,3.5,1,5.1c1.2,3,0.7,6.2,1.9,9.2c2,5.3,4.4,10.1,9.6,12.9c2.3,3.5,6.4,3.8,9.7,5.6
			c1.4,0.8,3.5,0.2,4.9,1.4c3.8-0.8,7.3,1.3,11.1,1c2.4-0.2,4.8-1,7.1-0.9c2.7,0.2,5-0.9,7.6-1.2c2.3-0.3,4.4-1.5,6.6-2
			c2.6-0.6,6.8-4.6,8.5-7.5c0-7.4-0.2-15,0.1-22.7c0.1-4.5-1.2-7.8-6-9.7c-2.8,0-6.1,0-9.4,0c-1.4-0.9-2.1-2.1-1.4-3.9
			c19.4,0,38.8,0,57.1,0c1.5,0.7,2.3,1,3.4,1.5c-1,1.1-1.6,1.6-1.9,2c-3.3,0.4-6.3,0.8-9.5,1.3c-1.4,1.9-2.9,3.8-4.4,5.7
			c0,10.2,0,20.5,0,31.3c-1.6,0-3.2,0-4.8,0c-3.2-0.1-6.4-0.1-9.3,1.6c-0.3,0.2-0.6,0.4-0.8,0.4c-5.4-0.5-9.9,2.8-15,3.5
			c-2.5,0.3-4.8,1.7-7.4,1.5c-1.1-0.1-2.2,0.6-3.1,0.8c-2.3,0.4-4.5,1.4-7.1,1.3c-2.7-0.2-5.4,0.7-8.1,0.9c-2.7,0.2-5.3,0.1-8,0
			c-3.2,0-6.4-0.2-9.6-0.8c-3.1-0.6-6.4-0.1-9.2-2.1c-3.8,0.4-6.8-1.9-10.2-3c-7.7-2.4-13.2-8.2-20-12.2c-1.8-3-3.9-5.9-6.3-8.4
			c-0.4-0.4-0.1-1.5-0.1-2.2c-0.8-0.2-1.3-0.3-1.4-0.4c-1.1-2.6-2.2-5-3.7-8.3c0-1-0.2-2.9-0.9-5c-1.8-5.3-1.5-11.7-0.1-17.1
			c0.7-2.6,0.9-5.3,1.3-8C42.3,98.4,42.4,98.5,42.5,98.5z"/>
		<path d="M444.6,163c0.5-1.6,0.9-2.8,1.2-3.7c4.5-0.3,8.5-0.6,11.8-0.9c2-2,3.5-3.6,5.2-5.3c2-6.7,1-13.9,1.1-21.1
			c0.1-7.3,0-14.7,0-22c0-12.7,0-25.3,0-38c0-2.1,0.2-4.2-1.9-6c-5.5,0-11.5,0-17.8,0c-1.4,2-2.8,4.3-4.3,6.4
			c-3.3,4.7-6.6,9.3-9.9,13.9c-1.4,2.1-3.2,4-4,6.3c-0.5,1.5-2.7,0.9-2.5,3c0.1,1-1.2,2.1-2.1,3.5c-1.1-0.3-2.3-0.7-3.4-1
			c0-11.9,0-23.3,0-34.8c0.3-0.3,0.7-0.7,1.2-1.2c39.3,0,78.7,0,118.4,0c0.3,0.3,0.8,0.8,1.3,1.3c0,11.3,0,22.6,0,34.3
			c-0.9,0.5-1.9,1-3.5,1.8c-0.7-1-1.4-1.7-1.9-2.6c-6.2-10.8-14.3-20.3-20.9-30.9c-6.4,0-12.8,0-19.4,0c0,28.5,0,57,0,85.6
			c0.1,0.1,0.5,0.3,0.5,0.6c1.6,5.7,6.2,6.5,11,6.8c2,0.1,4,0,5.8,0c0.6,0.6,1.1,1.1,1.7,1.8c-0.6,0.8-1.1,1.5-1.6,2.2
			C488.8,163,467.2,163,444.6,163z"/>
		<path d="M297.1,162.8c0-1.3,0-2.4,0-3.7c4.5,0,9,0,13.7,0c2-1.8,4.1-3.6,6.1-5.3c0-27.8,0-55.4,0-83.5c-1.6-1.3-3.4-2.9-5.2-4.4
			c-4.9,0-9.7,0-14.6,0c0-1.3,0-2.4,0-3.7c22.8,0,45.6,0,68.7,0c0.1,1,0.1,2.3,0.2,3.6c-5.2,0.8-10.3-0.8-15.2,1.5
			c-1,1-2.1,2.2-3.7,3.9c0,27.1,0,55.1,0,83.4c1.1,0.8,2.4,1.8,3.7,2.8c3.6,2.2,7.8,1.6,12,1.6c5.2,0,10.3,0,15.9,0
			c1.7-2.2,3.7-4.5,5.2-7.1c1.4-2.4,2.8-4.6,5-6.8c0-0.2,0-0.9,0-1c5-7.1,9.8-13.8,14.7-20.8c1,0.9,1.6,1.4,2.2,1.9
			c0,12.4,0,24.9,0,37.5C369.7,162.8,333.6,162.8,297.1,162.8z"/>
		<path d="M204.5,162.7c0.6-1.5,1.1-2.6,1.5-3.7c2.5,0,4.7,0,6.8,0c6.2-0.1,10.1-3.9,10.1-10.1c0-24.8,0-49.6,0-74.6
			c-1.6-2.4-3.4-4.9-5.3-7.6c-4.2-0.3-8.4-0.6-12.9-1c0.3-1.2,0.6-2.4,0.9-3.5c20.9,0,41.3,0,60.6,0c1.5,0.7,2.2,1,3.3,1.5
			c-1,1-1.5,1.6-2.2,2.3c-4.8,0.1-10-0.8-14.7,4.3c-1.1,2.2-0.8,5.9-0.8,9.6c0,23,0,46,0,69c0,1.3-0.2,2.8,0.4,3.8
			c0.8,1.5,0.3,3.7,2.4,4.5c1.9,0.7,3.6,1.8,5.8,1.7c2.3-0.1,4.7,0,7.4,0c0.5,1,1,2.1,1.4,3.2c-0.6,0.4-0.8,0.8-1,0.8
			c-20.5,0-41,0-61.5,0C206.2,163,205.6,162.8,204.5,162.7z"/>
	</g>
</g>
</svg>
