<svg xmlns="http://www.w3.org/2000/svg" width="178.36mm" height="21.63mm" viewBox="0 0 505.59 61.32"><title>ATLogo_RGB_Blue_Red</title><path d="M363.76,21.73h-.17A20.45,20.45,0,0,0,357.06,17a20.11,20.11,0,0,0-22.43,4.79q-5.81,6.36-5.8,16v1.56q0,9.59,5.84,15.73A19,19,0,0,0,349,61.24a20.06,20.06,0,0,0,8.3-1.64,14.19,14.19,0,0,0,5.87-4.85h.18L365,59.94h8.13V16.72h-7.61Zm-4.11,27.1a11.78,11.78,0,0,1-17.42,0q-3.11-3.84-3.11-10.5t3.11-10.55a11.7,11.7,0,0,1,17.42,0q3.17,3.9,3.16,10.55T359.65,48.83Z" fill="#313c53"/><path d="M413.53,20.17h-.17A13.84,13.84,0,0,0,408,16.59a20.76,20.76,0,0,0-7.39-1.17,20.06,20.06,0,0,0-15.26,6.27q-5.91,6.27-5.92,16.12v1.64a21.71,21.71,0,0,0,6,15.65,19.15,19.15,0,0,0,14.35,6.22,21.62,21.62,0,0,0,8.43-1.51,15.14,15.14,0,0,0,6.09-4.71h.17L416,59.94h8V0H413.53Zm-3,28.66a11.78,11.78,0,0,1-17.42,0Q390,45,390,38.33t3.11-10.55a11.7,11.7,0,0,1,17.42,0q3.15,3.9,3.16,10.55T410.55,48.83Z" fill="#313c53"/><path d="M166.69,42.39q0,4.94-2.12,7.44t-6.27,2.5a7.77,7.77,0,0,1-6.27-2.5q-2.11-2.51-2.11-7.44V17.68H139.54v25.4q0,8.31,5.19,13.27t13.57,5q8.38,0,13.58-5t5.18-13.27V17.68H166.69Z" fill="#313c53"/><path d="M206.49,51.51a9.7,9.7,0,0,1-3,.48,4.82,4.82,0,0,1-3.59-1.21,5.09,5.09,0,0,1-1.16-3.63V23.69h11V15.57h-11V5.8h-4.59a28.52,28.52,0,0,1-4.92,8.13,22.5,22.5,0,0,1-6.92,5v4.75h5.88V46.2q0,7.26,3.54,10.89t10.55,3.63a20,20,0,0,0,4.5-.65A17.53,17.53,0,0,0,211,58.56V50h-1.47A12,12,0,0,1,206.49,51.51Z" fill="#313c53"/><path d="M237,15.42a21.56,21.56,0,0,0-15.78,6.18q-6.27,6.18-6.27,16v1.55q0,9.86,6.27,16A21.64,21.64,0,0,0,237,61.32a22,22,0,0,0,15.9-6.18q6.4-6.18,6.4-16V37.64q0-9.85-6.4-16A22,22,0,0,0,237,15.42Zm8.64,33.33A10.41,10.41,0,0,1,237,52.59a10.28,10.28,0,0,1-8.51-3.84q-3.08-3.86-3.07-10.42t3.07-10.42A10.28,10.28,0,0,1,237,24.06a10.42,10.42,0,0,1,8.56,3.85q3.12,3.86,3.11,10.42T245.6,48.75Z" fill="#313c53"/><polygon points="254.46 12.02 271.06 12.02 271.06 59.94 281.95 59.94 281.95 12.02 297.86 12.02 297.86 2.6 254.46 2.6 254.46 12.02" fill="#313c53"/><path d="M321.59,16.37a13.11,13.11,0,0,0-7.78,2.33A10.13,10.13,0,0,0,309.66,25h-.17l-2.25-8.3H299.8V59.94h10.46V39.28q0-7.26,2.55-9.81t8.35-2.55h3.89V16.63c-.35-.06-.87-.12-1.56-.17S322.16,16.37,321.59,16.37Z" fill="#313c53"/><path d="M452.47,15.42a20.57,20.57,0,0,0-15.35,6.35,22,22,0,0,0-6.18,16v1.39A21.79,21.79,0,0,0,437.12,55a20.72,20.72,0,0,0,15.44,6.31q7.86,0,13.14-3.63a16.6,16.6,0,0,0,6.5-8.86H461.61a8.2,8.2,0,0,1-2.74,2.64,12,12,0,0,1-6,1.3,10.3,10.3,0,0,1-7.61-2.94,13.76,13.76,0,0,1-3.63-8.22H473c.05-.8.1-1.58.13-2.33s0-1.44,0-2.08q0-9.68-5.79-15.73A19.69,19.69,0,0,0,452.47,15.42Zm-10.55,18a12.93,12.93,0,0,1,3.85-7.09A10.46,10.46,0,0,1,452.82,24a9.22,9.22,0,0,1,6.78,2.51,10.11,10.11,0,0,1,2.81,6.91Z" fill="#313c53"/><path d="M504,16.46c-.7-.06-1.33-.09-1.91-.09a13.14,13.14,0,0,0-7.78,2.33A10.17,10.17,0,0,0,490.2,25H490l-2.25-8.3h-7.43V59.94h10.46V39.28q0-7.26,2.55-9.81t8.34-2.55h3.89V16.63C505.25,16.57,504.73,16.51,504,16.46Z" fill="#313c53"/><path d="M102.63,3.75,80.5,58.56v1.38H91.22l4.32-11.4.92-2.45h23.32l.92,2.44h0L125,59.94h11.16V58.56L114,3.75ZM100,36.65l5.11-13.54c.92-2.42,1.59-4.22,2-5.4s.72-2.26,1-3.24h.17c.18.69.39,1.42.65,2.2s1,2.93,2.29,6.44l5,13.54Z" fill="#313c53"/><path d="M0,59.94H50.8A16.93,16.93,0,0,0,66,49.3l5.13-12.7H9.42Z" fill="#313c53"/><path d="M84.38,3.75H33.58A16.92,16.92,0,0,0,18.4,14.38l-5.13,12.7H75Z" fill="#ff4436"/></svg>