<svg xmlns="http://www.w3.org/2000/svg" width="2000.36" height="500.09" version="1"><path d="M1645.75 488.86l-3.9-3.73 11.68-12.72c11.8-12.8 26.58-25.3 39.44-33.4 8.77-5.5 8.35-5 6.46-6.3-2.65-1.7-17.44-6.5-23.6-7.7l-5.8-1-5.33 5c-11.1 10.3-21.1 13.3-44.77 13.3-22.12 0-38.83-3.2-61.67-11.8-9.7-3.6-9.72-3.6-6.5-5 4.33-1.8 25.98-6.9 39.15-9.1 14.4-2.4 53.2-3.3 67.6-1.6 15.7 1.9 29.7 5.1 42.9 9.7l11.3 4 10.6-3.8c12.3-4.5 27.5-7.9 43.4-9.8 14.5-1.7 53-.7 67.7 1.8 13.3 2.2 34.6 7.1 39 9 3.2 1.4 3.2 1.4-6.5 5-22.7 8.6-39.4 11.8-61.6 11.8-23.6.1-32.7-2.6-44.9-13.1l-5.9-5.1-5.4 1.2c-6.7 1.4-21.1 6.3-23.2 7.9-1 .8-1.2 1.4-.4 1.7 3 1.3 23.4 16 29.9 21.6 9.1 7.8 26.9 27.1 26.9 29.2 0 2.3-7.1 7.6-9.5 7.2-1.1-.2-5.8-4.8-10.4-10.3-12.4-14.6-31.2-31.35-45.2-40.2l-4.1-2.6-5.7 3.6c-14.6 9.4-35.8 28.7-46.8 42.76-6.4 8.1-8.6 8.6-14.2 3.2zM86 444.6c-29.53-6.86-52.2-27.75-62.7-57.77-7.25-20.8-6.93-14.95-7.36-132.92l-.4-107H68.6l.32 101.4.34 101.4 2.9 11c8.4 32 25.8 46.1 57.1 46.1 20.2 0 36.84-6.8 49.95-20.4 8.6-8.9 13.9-19.4 17.7-35.3 5.7-23.3 6-29.1 6-119.9V147H256v291.5h-51V417c0-11.8-.4-21.47-.9-21.47s-2.8 2.9-5.14 6.43c-12.86 19.5-33.48 34.05-57.8 40.73-8.64 2.3-13.3 2.8-29.22 3.2-13.8.3-20.85-.1-25.97-1.3zm712.58-.17c-43.24-6.73-70.5-26.7-87.76-64.26-9.48-20.64-14.03-41.1-15.43-69.34-3.8-76.88 20.2-132.7 68-157.75 18.4-9.66 34.8-13.4 59-13.48 27.5-.08 46.2 5.55 66.3 20 21.6 15.6 36.6 43.48 38.8 72.28l.6 8.75h-52.2v-3.45c0-12.66-7.8-32.9-16.3-42.3-15.9-17.5-45.9-21.4-69.9-9.07-8.6 4.5-19.6 15.5-24.5 24.7-11.3 21.2-17 54.8-15.6 92.3 1.5 41.2 9.8 68.4 26.1 85.3 11.9 12.4 25 17.8 43.3 17.8 29.6 0 49.7-17 56.8-48 1.1-5.1 2.1-10.9 2.1-13v-3.6h52.6l-.9 7.6c-4.7 40.4-28.6 73.3-63.8 87.8-14.8 6.1-23.8 7.7-44.8 8.1-10.7.2-21 .1-22.8-.1zm252.14-1.5c-51.62-9.65-83.1-46.34-93.1-108.52-2.4-14.9-3.27-47.4-1.68-63.3 4.13-41.3 17.33-73.6 39.46-96.6 10.24-10.6 19.02-17.1 31.7-23.3 37.43-18.3 91.7-15 126.77 7.8 11.05 7.2 24.36 21.2 31.34 33.1 14.3 24.3 19.7 48.6 19.8 88.5v22.3l-97.6.3-97.6.3-.3 8.5c-.2 4.7.2 13.3.9 19.2 6.1 51.6 35.5 79.1 79.8 74.6 30.3-3 46.8-16.7 54.3-45.3 1.2-4.6 2.2-9.5 2.2-10.9V347h55.2v2.6c0 1.43-1 6.8-2.2 11.96-9.4 38.85-34.8 65.96-72.7 77.4-21.4 6.48-53.9 8.24-76 4.1zm99.25-188.74c-.65-22.7-8.03-43.1-20.26-55.9-23.2-24.3-65.2-26.6-91.4-4.9-15.7 13-26.4 36.4-27.8 60.9l-.6 11 70.3-.3 70.3-.3-.3-10.8zM310 292.6V146.86h50.85v21.47c0 11.8.42 21.47.93 21.47.5 0 2.7-3 4.85-6.65 11.1-18.77 29.65-32.83 53.44-40.47 8.76-2.82 10.98-3.06 28.44-3.1 14.5-.03 21.1.46 28.2 2.05 42.2 9.58 67.7 34.9 74.2 73.82 1.4 8.1 1.6 26.87 1.6 116.3v106.6h-52V342.6c0-103.68-.3-109.52-5.8-124.98-8.7-24.16-28.5-36.87-57.4-36.87-22 0-37.3 6.63-53.1 23.1-8.4 8.78-10.3 11.44-13.2 18.7-8 20.34-8.8 33.55-8.9 134.74v81h-52V292.6zm292.17-.56v-145.2h53.03v290.4h-53.02v-145.2zm663.1 19.5l-.3-125.7-23.52-.3-23.54-.32v-37.2l23.6-.3 23.6-.3.6-39.55c.7-43.8 1-46.03 8.2-61.47 4.7-9.93 16.2-22.7 25.3-28.1 3.3-1.93 10.4-5.04 15.7-6.9 21.1-7.33 43.4-7.55 71.7-.68 2.5.6 2.5.68 2.5 23.24V56.6l-5.1-.84c-2.8-.47-12.2-.87-20.8-.9-19.5-.04-28.7 2.4-36.3 9.68-8.5 8.24-9.1 11.47-9.1 50.15v33.2h63.8v37.3h-63.8v252h-51.9l-.2-125.7zm285.94 99.64c-10.1-1.2-15.7-2.97-24.9-7.95-15-8.1-24.7-18.08-38.1-38.85-6.9-10.85-7.1-11.34-4.6-11.67 4.2-.5 21 5.9 36.5 14 26.1 13.7 46.1 27.3 55.1 37.5l4.7 5.3-3.7.8c-6.8 1.4-17.7 1.8-24.8 1zm309 .44l-8.9-1.03-5.7-.7 1.9-3.3c2.5-4.5 12.8-13 26.5-22 13-8.6 46.4-26.3 55-29.1 7.8-2.6 14.2-3.6 14.2-2.3 0 1.8-12.5 20.9-18.6 28.2-11.6 14.1-29.1 25.6-43.1 28.4-7.5 1.4-16.8 2.2-21.1 1.7zm-254.3-6.15c-15.9-2.4-29.9-13.8-37.9-30.95-6.2-13.46-12.5-40.1-9.5-40.1.6 0 4.4 2.63 8.6 5.85 23.9 18.76 53.4 48.37 58.2 58.55l3 6.2-2.4.74c-3.3 1-11.9.9-19.7-.3zm193.4.45c-2.9-.58-2.5-2.77 1.7-9.93 7.6-12.8 63-64.3 65.9-61.3 1.1 1.1-1.8 16.6-5.1 27.3-5.7 18.8-15.2 31.6-28.6 38.4-9.6 4.9-24.2 7.2-33.8 5.3zm-116.1-20.07c-75.5-12.8-135.3-71.06-152.4-148.6-3.6-16.58-4.8-30.57-4-50.73 1.1-30.52 6.1-51.14 19.2-78.65 4.2-8.7 10.8-20.64 14.9-26.53 9-13.23 28.1-33.46 40.3-42.86C1645.5 4.54 1700-7.36 1753.7 5.2c16.33 3.82 24.75 7 41.7 15.77 51.1 26.45 86.73 74.9 99.2 134.92 2.17 10.4 2.46 15 2.46 38.4 0 29.1-1.3 38.6-8.15 60.4-4.5 14.2-16.9 39.8-25.6 52.5-9.4 13.8-29.4 34.6-42.5 44.3-20.6 15.2-46.1 27-70.9 32.6-14 3.1-52.1 4.1-66.6 1.6zm-37.2-41.53c4.2-1.58 12.7-4.94 19-7.46 15.6-6.24 28.6-10.07 39-11.43 10.6-1.38 13.7-2.83 16.9-7.85 2.9-4.5 3.2-9.33.8-16.6-.9-2.9-2.3-11.23-3.1-18.5-.8-7.26-2.2-15.05-3.2-17.3-2-4.45-8.2-10.8-18.7-19.2-9.1-7.25-11.2-11.03-10.7-18.65.4-4.67 1.1-6.7 3.6-9.37 2.4-2.58 3.3-4.83 3.7-9.3.5-5.22.9-5.92 3.3-6.27 4.4-.7 5.4-2.3 5.4-8.8 0-5.7.2-6.1 2.6-6.1 4.1 0 5.7-2.9 4-7.2-3.8-9.8-2.5-13.2 5.2-13.2 6.9-.1 18.5-2.8 23.6-5.5 2.3-1.3 9.3-7.5 15.6-14 16.5-17 27.8-22.4 47.1-22.4 11.4 0 19.4 1.9 28.9 6.9 25 13.1 42.4 34.4 48.5 59.5 2.9 11.8 2.9 31.7 0 43.8-3.8 15.7-8.7 24.5-20.4 36.6-16.5 17-29.9 23.7-48.2 24.3-12 .3-12.9 1.2-12.2 11.9.7 11.5 7.5 22.4 18.9 30.7 5.7 4.1 5.5 4.2 19.6-9.8 39.9-39.6 60.4-95.1 55.6-150.4-2.3-26.6-10.2-53.5-22.6-76.4-2.6-4.9-5.1-9.1-5.6-9.4-.5-.3-3.2 1-6.2 2.9-2.9 1.9-9.7 6-15 9.1-5.3 3.1-9.8 5.7-10 5.9-.2.1.9 3.1 2.4 6.5l2.7 6.3-4.5-2.1c-2.5-1.2-5.3-3.4-6.2-4.9-1.3-2.2-2.1-2.6-3.5-1.8-1.2.7-4.3.5-9.1-.5-6.1-1.3-6.9-1.7-4.5-2.3 1.6-.4 5.17-1.8 7.9-3l5-2.3-3.5-6.5c-4.5-8.3-15.8-25.7-17.9-27.5-1.3-1.1-3.4-.5-11 3.2-5.2 2.5-12.33 5.7-15.9 7.1-3.54 1.3-6.64 2.6-6.85 2.8-.2.2 1.9 7.5 4.7 16.3 2.8 8.8 4.9 16.2 4.6 16.4s-1.9.8-3.6 1.1l-3.2.6-4.94-15.7c-5.7-18.1-3.5-16.7-22.1-13.6-5.9 1-14.1 2.1-18.1 2.5l-7.3.7V132l8.4-.7c4.67-.34 12.9-1.1 18.4-1.7 5.5-.6 11-1.06 12.37-1.06h2.4l-2.62 2.94c-4.3 4.8-6.3 5.4-22.63 6.6l-15.7 1.2-.3 6.5-.3 6.5h-7.5V95.2l-5.7-.72c-3.1-.4-7.2-.72-9.1-.72-2.8 0-3.9-.78-5.7-3.95l-2.2-3.9 11.3.7 11.3.7v-16c0-11.8-.3-16.1-1.3-16.4-.7-.2-4.74-.9-8.9-1.7-4.2-.7-8.9-1.6-10.5-1.9-2.7-.6-3.2 0-8.4 9.9-3 5.8-5.7 11.1-5.9 11.7-.3 1.1-6-2.7-6.1-4 0-.4 2.4-5.2 5.3-10.7 3.88-7.1 5-10.2 4.1-10.9-.7-.4-4.6-2.9-8.67-5.4l-7.4-4.5L1651 46c-10.1 8.6-10.2 8.7-14.74 7.7l-4.6-.9 11.5-10.1c6.36-5.5 11.44-10.4 11.3-10.8-.15-.4-2.14-2.8-4.4-5.4l-4.15-4.7-5.6 2.5c-21 9.3-46 28.4-61.7 47.2-24 28.8-40.4 67.2-43.5 102-.4 4.1-.9 9.3-1.2 11.6-.3 2.5 0 4.3.6 4.3s4.6-2.8 8.9-6.3c4.3-3.4 11.3-8.3 15.5-10.82 16.4-9.87 17.7-13.1 13.6-33.7-2.4-12.04-2.74-25.17-.94-34.1 3.66-18.2 16.75-33.1 34.6-39.4 5.85-2.05 8.7-2.36 18.3-1.96 9.45.4 12.76 1 19.6 3.9 16.86 6.9 32.98 20.8 39.9 34.2 3.56 6.8 3.8 8 3.8 17.5 0 11.34-1.92 17.16-9.7 28.9-4 6.05-4 6.2-3.32 14.26l.7 8.2-3.3 1.7c-2.53 1.3-3.3 2.5-3.3 5 0 1.8-.7 3.7-1.5 4.2-.84.5-1.7 2.1-1.9 3.7-.26 1.9-1.16 2.9-2.8 3.2-1.35.2-3.7 2-5.2 4.1-5 6.8-10.75 7.6-26.2 3.8-9.5-2.4-10.2-2.4-13.75-.7-5.1 2.55-5.53 5.4-2.9 19.16 2.75 14.4 6.67 43.4 6.67 49.4 0 11.1 4.9 14.2 25.9 16.4l15.17 1.6 6.2-4.6c5.4-3.9 6.9-4.5 11.1-4.2 4.4.3 4.9.6 4.6 2.9-.4 2.5-.1 2.5 5.4 1.9 4.6-.6 6.1-.33 7.2 1.1 2.2 2.8 1 12.95-2.46 20.28-4.9 10.4-12.5 13.6-24.86 10.32-6.5-1.7-7.9-1.7-15.6-.1-17.7 3.6-25 4.5-35.1 4.5-9 0-11.2-.4-16.04-2.9l-5.6-2.9-1.7 2.7c-2.7 4.3-4.6 10.72-4.64 15.9-.04 4.6.2 4.9 9.2 12.4 5.06 4.2 10.3 8 11.6 8.44 1.3.4 8 .6 14.8.43 10.15-.2 13.9-.8 20.05-3.2zM1851.3 90l6.27-4.2-4.9-6.48c-2.68-3.56-9.52-11.3-15.2-17.2-7.8-8.07-10.7-10.44-11.8-9.6-8.6 6.55-17.74 13.33-18.92 14.03-1.1.66.23 3.43 5.53 11.5 3.84 5.83 8.8 14.06 11.04 18.27l4.06 7.66 8.8-4.9c4.86-2.7 11.66-6.8 15.1-9.1zm-108.44-5.95c5-.98 9.7-2.16 10.47-2.6 1.05-.63-.24-4.2-5.18-14.27-8.05-16.44-8.27-16.72-11.8-15.74-1.55.43-6.7 1.37-11.46 2.1l-8.7 1.34-.3 16.2-.3 16.23 9.1-.7c5-.4 13.1-1.5 18.1-2.5zm27.73-7.86c11.6-4.6 21.9-9.8 21.9-11.2 0-1.6-15-16.7-23.1-23.1l-6.1-4.9-3.1 2.2c-1.7 1.2-5.2 3.3-7.9 4.7-2.7 1.4-5.1 2.7-5.3 2.9-.7.6 14.3 31.8 15.2 32 .4 0 4.1-1.2 8.1-2.8zm39.7-21.8c4.7-3.6 8.8-7.1 9-7.9.5-1.9-18.9-15.1-30.7-20.9l-9.4-4.6-4.8 5.4-4.8 5.4 3.5 2.9c7.7 6.3 20.2 18.3 22.9 22.1 1.6 2.2 3.5 4 4.2 3.9.7 0 5.1-3 9.8-6.5zm-102.2-21.7c0-8.1-.4-14.7-.9-14.7s-2.1 1.6-3.5 3.6c-8 11.2-14.1 20.4-14.1 21.2 0 .8 2.6 1.5 13.5 3.7 5 1 4.8 1.4 4.8-14zm20.8 12.2c2.8-.7 5.1-1.7 5.1-2.3 0-1.5-10-16.5-14.6-22l-3.7-4.4-.1 15.6v15.6l4-.7c2.2-.4 6.4-1.2 9.2-1.9zM1686.7 33c2.7-4.2 6.5-9.8 8.4-12.42 1.9-2.65 2.9-4.8 2.3-4.8-3.67 0-29.64 15.44-28.7 17.05.64 1.1 11.33 7.76 12.5 7.78.34 0 2.85-3.4 5.55-7.6zm62.6 4.1c3.54-1.96 6.4-4 6.4-4.56 0-2.22-27.45-17.85-28.83-16.4-.4.32 2.7 5.34 6.6 11.13 4 5.8 7.5 11.17 7.8 11.95.7 1.9.73 1.9 8-2.13zm-83.1-13.26c2.5-1.78 8.45-5.37 13.2-8 10.56-5.8 12.05-7.1 7-6.22-8.75 1.54-20.44 4.3-26.9 6.38l-6.9 2.22 4.17 4.43c2.2 2.44 4.3 4.44 4.5 4.44.2 0 2.4-1.5 4.9-3.3zm102.45-2.05c1.93-2.6 2.04-3.2.72-4-4.1-2.4-35.3-9.6-35.3-8.2 0 .1 4.7 2.9 10.4 6.1 5.7 3.2 12.12 7 14.2 8.5 4.27 3 6.1 2.5 9.9-2.5zm-221.54 347c-8.8-6.2-17-15.9-21.7-25.3-6.2-12.7-7.2-17.7-7.2-35.7 0-12.9.4-17.8 2.5-26.3 1.4-5.8 2.9-10.5 3.3-10.5.4 0 2.3 2.5 4.3 5.6 10.7 17.1 25.2 66.8 25.3 86.7 0 4.6-.2 8.5-.4 8.8-.2.2-2.9-1.3-6-3.5zm324-.5c-2.5-16.4 15-77.5 26.8-93.8l2.8-3.9 1.2 3.2c4.8 13.2 6.7 37.6 3.9 51.3-2.8 13.8-8.2 24-18.4 34.4-4.8 4.9-10.3 9.9-12.1 11l-3.3 1.9-.7-4.4zm-360.4-14.2c-11.3-5.2-19-10.6-28.5-20.2-12.9-13.1-22-26.8-29.1-44.1-3.7-9-7.4-23.1-6.4-24.1 1.1-1.1 14.6 9.6 23.8 18.8 21.5 21.6 43.3 51.7 49.7 68.7 2.3 5.9 1.8 5.9-9.4.8zm394.3-1.8c5.5-15 24.8-41.9 46-63.8 13-13.5 26-24.3 27.4-22.8 1.2 1.2-5.1 21.2-9.5 30.4-9.3 19.5-23.2 37.4-37.4 47.9-6.7 5-19.9 11.9-25.5 13.2l-3 .7 2.1-5.8zm-405.2-48c-2.2-3.7-5.3-10.3-6.8-14.7-2.4-7-2.7-9.8-2.7-22.1 0-12.9.4-15.1 3.5-24.9 3.3-10.1 11.2-26.2 15.2-30.9 1.7-2 1.9-1.9 3.2 2.8 5.1 17.1 1.1 77.4-6 91.9l-2.2 4.5-4.1-6.7zm418.6 1c-5.2-12.8-8.3-40.6-7.6-67.4.3-10.3 1.2-20.7 2-23.7l1.5-5.3 3.1 4.7c14.3 21.9 20.6 47.7 16.6 67.4-1.7 8.6-7.3 22.2-11.1 27l-2.1 2.7-2.2-5.5zM1472.8 275c-9.13-7.06-17.2-17.5-22.76-29.36-7.06-15.07-9.26-25.74-9.95-48.3-.4-10.57-.2-18.9.3-18.9 3.8.06 23.3 37.75 31.2 60.26 6.9 19.8 11.4 41.45 8.4 41.4-.5 0-3.7-2.27-7.3-5.05zm471.28.7c0-5.8 4.23-22.92 9.12-36.84 8.4-23.96 28.2-61.64 31.3-59.64 1.5.96.04 33.7-1.9 42.95-3.5 16.5-10.5 31.6-19.8 42.47-3.8 4.46-16.56 15.47-17.9 15.47-.5 0-.87-1.9-.87-4.3zm-463.44-32.43c-.34-.56-1.4-4.14-2.34-7.96-2.2-8.8-2.2-23.9-.07-32.6 3.66-14.7 13.64-31.9 25.5-44l6.66-6.8-.7 10.2c-1.3 18.9-8.5 44.1-19.1 66.1-5.6 11.6-9.1 16.8-10 15.2zm458.6-5.4c-12.1-19.65-24.47-59.74-24.34-78.82l.03-7.15 8.36 9.2c9.6 10.66 17.5 23.68 21.5 35.56 4.6 13.87 4.6 33-.1 44.5l-1.4 3.4-4.1-6.66zm15.68-40.6c-1-6.1-1.2-15.06-.8-30.94.8-28.6 3.9-49.54 9.3-62.66l2-4.9 3.3 10.74c7.25 23.8 8.33 50.2 2.8 68.4-2.22 7.3-8.24 19.3-12.13 24.2l-3.1 3.8-1.4-8.6zm-491.3 2.36c-11-15.6-15.62-37.4-13.1-61.95 1.27-12.15 5.38-30.4 8.1-35.8 1.5-3 1.54-2.9 4.28 6.14 5.38 17.8 8.3 41.2 8.3 66.75 0 14.72-1.7 29.65-3.35 29.65-.45 0-2.34-2.15-4.2-4.8zm16.8-34.28c-1.5-8.43 1.6-23.2 7.35-34.85 5.5-11.12 15.94-22.44 29.2-31.63 5.23-3.6 9.75-6.36 10.04-6.06 1.2 1.2-6.4 20.3-12.6 32.1-10 18.8-21.8 35.4-29.5 41.6l-3.6 2.9-.7-3.9zm456.3-2.6c-12.46-13.2-29.6-43.45-35.28-62.17-1.42-4.7-2.43-8.74-2.24-8.95.7-.76 16.5 11.03 22.58 16.83 7.78 7.4 15.14 18.06 18.57 26.86 3.26 8.36 5.5 25.2 4.1 30.64l-1 3.92-6.7-7.1zm-461.76-40.06c-1.3-9-.07-21 3-28.8 4.65-12.1 9.54-19.4 21.7-32.4l11.7-12.6-.7 5.6c-1.06 9-5.73 26.4-9.7 35.9-5.3 12.8-9.92 20.4-18.04 29.4l-7.2 8-.8-5.5zm470.6 1.7c-12.54-11.2-24.4-35.3-29.7-60.1-3.5-16.5-3.4-16.6 7.2-5.7 10.4 10.7 20.63 25.8 24.3 35.7 2.7 7.3 4.05 23.3 2.5 29.4l-.9 3.6-3.4-3.1zM597.84 49.1V19.17h61.7v59.88h-61.7V49.12z" fill="#1E90FF"/></svg>