<svg id="Layer_1" xmlns="http://www.w3.org/2000/svg" xmlns:xlink="http://www.w3.org/1999/xlink" viewBox="0 0 382.7 311.8"><style>.st0{font-family:&apos;ArialMT&apos;}.st1{font-size:10px}.st2{font-weight:700}</style><text transform="translate(323 94.3)" class="st0 st1">Design /</text><text transform="translate(323 106.3)" class="st0 st1">UX:</text><text transform="translate(342.5 106.3)" class="st2 st1">34%</text><text transform="translate(243 277.6)" class="st0 st1">Developer:</text><text transform="translate(294.1 277.6)" class="st2 st1">24%</text><text transform="translate(20.3 229)" class="st0 st1">Product:</text><text transform="translate(60.4 229)" class="st2 st1">18%</text><g><text transform="translate(21 94.3)" class="st0 st1">Project:</text><text transform="translate(57.7 94.3)" class="st2 st1">15%</text></g><g><text transform="translate(72.7 52)" class="st0 st1">Marketing:</text><text transform="translate(122.1 52)" class="st2 st1">3%</text></g><g><text transform="translate(127 33.6)" class="st0 st1">Other:</text><text transform="translate(157.5 33.6)" class="st2 st1">6%</text></g><g id="Layer_2"><defs><path id="SVGID_1_" d="M179.9 33.9c12-6.9 26.9-6.9 38.9 0l76.5 44.2a39 39 0 0 1 19.5 33.7v88.3c0 13.9-7.4 26.7-19.5 33.7L218.8 278a39.1 39.1 0 0 1-38.9 0l-76.5-44.2a39 39 0 0 1-19.5-33.7v-88.3c0-13.9 7.4-26.7 19.5-33.7l76.5-44.2z"/></defs><clipPath id="SVGID_2_"><use xlink:href="#SVGID_1_" overflow="visible"/></clipPath><g clip-path="url(#SVGID_2_)"><g stroke="#fff" stroke-linejoin="round"><path d="M188.7 17.1A128.5 128.5 0 0 1 296.2 216l-107.5-70.4V17.1z" fill="#4b9fd8" transform="translate(10 10)"/><path d="M296.1 216.1a128.6 128.6 0 0 1-167.5 43.1l60-113.6 107.5 70.5z" fill="#9169ad" transform="translate(10 10)"/><path d="M128.5 259.2a128.6 128.6 0 0 1-68.2-120l128.3 6.5-60.1 113.5z" fill="#3cc0c4" transform="translate(10 10)"/><path d="M60.4 139a128.2 128.2 0 0 1 59.1-101.6l69.3 108.2L60.4 139z" fill="#6e84c3" transform="translate(10 10)"/><path d="M119.5 37.3c5.6-3.6 11.5-6.7 17.5-9.4l51.6 117.7-69.1-108.3z" fill="#44b0ce" transform="translate(10 10)"/><path d="M137.2 27.9a129.7 129.7 0 0 1 51.3-10.8l.2 128.5-51.5-117.7z" fill="#686868" transform="translate(10 10)"/></g></g></g></svg>