<?xml version="1.0" encoding="utf-8"?>
<!-- Generator: Adobe Illustrator 21.1.0, SVG Export Plug-In . SVG Version: 6.00 Build 0)  -->
<svg version="1.1" id="Layer_1" xmlns="http://www.w3.org/2000/svg" xmlns:xlink="http://www.w3.org/1999/xlink" x="0px" y="0px"
	 viewBox="0 0 2500 600.1" style="enable-background:new 0 0 2500 600.1;" xml:space="preserve">
<style type="text/css">
	.st0{fill:#83BA51;}
	.st1{fill:#1E8F7E;}
</style>
<g>
	<path class="st0" d="M2230.6,85.6c-10.3,11.6-7.1-3.6-14.6,3.6c-6.5,6.3-26.4,23.5-38.8,51.5c-19.6,44-7.4,113.4,31.5,140
		c-1.7,6.5-7.3,23.8-11.2,27.6c-15.4-33.9-29.2-66.5-60.1-84.5c-5.6-3.3-17.4-5.4-17.4-5.4c-9.1-1.1-25.6-3.3-42.3,2.7
		c-8.4,3,1.9,5.9-4.7,8.1c-8.4,3.9-2.8,0.9-11.8,6.6c-6.4,4.3-14.8,12.9-16.5,29.2c-0.2,1.9,0.3,14.9,0.3,14.9
		c-45.3,13.8-55,65.9-48.5,79.9c7.1,15.4,12.1,16,19.6,19.9c7.8,3.3-10,6.3,9.3,9.6c22.4,2.7,39.9-0.5,52.8-3.6
		c18.4-4.5,64.3-21.9,106.3-56.5c-24,45-65.4,87-92.6,105.4c2.3,11.1-8.7,16-7.8,29.8c0.2,3.4-4.5,9.9-6.2,13.3
		c-1.1,1.6,0.9,4.6,4.2,1.9c50-40.3,98.2-90.8,126.7-152.5c60.7,87,115,87.8,138.2,90.1c19.6,1.9,31.6-1.9,37.9-3.4
		c22.1-5.4,38.2-13.2,48.5-20.2c9.3-6.3-5-6.9,3.4-12c4.7-3,11.3-11.5,16.1-21c5-9.8,8.7-36.1-13.7-61.6
		c10.9-4.9,22.1-20.9,23.6-38.6c0.9-11.1-1.4-24.4-21.6-35.2c0,0-6.2-3.7-9.5-4.2c-26.1-3.9-0.3-12.9-23.8-10.1
		c-3.3,0-1.5,0.1-11,1.1c-44.8,4.8-58.4,16.9-96.5,38.6c-35.4,20.1-67.7,47.7-82.5,56.6c3.6-6.3,6.6-13,8.9-19.9
		c4.5-9.2,36.8-27.3,53-37.4c17-10.6,87.1-46,106.7-96.6c3.2-8.3,6.3-17.7,7.1-26.2c1.9-18.4-6.8-5.7-7.1-11.4
		c-1.2-6.2-0.6-9.3-4.4-17.4c-14.6-34-68.4-28.3-86.9-9.9C2288.1,62.7,2245.6,69.6,2230.6,85.6z"/>
	<path class="st1" d="M594.8,212.7h-59.2c3.8,3.5,5.1,5.1,7.1,8.7c1.7,3,3,6.2,3.8,9.5c1.2,5.1,1.7,9.8,1.9,20.9
		c0.1,4.8,0.2,8.6,0.2,11.3v98.7c0,7.7-0.3,17.9-0.6,22.5c-0.2,3.3-0.7,6.5-1.5,9.8c-1.5,6-4.5,11.7-8.5,15.9
		c-0.5,0.6-1.3,1.3-2.4,2.4h74.4c-3.8-3.5-5.1-5.1-7.1-8.7c-1.7-3-3-6.2-3.8-9.5c-1.2-5.1-1.7-9.9-1.9-20.9
		c-0.1-4.1-0.1-8.2-0.1-12.3v-42.6c0-16.4,0.1-18.7,1.3-28.5c1.6-13,4.4-19.8,11.1-27.1c7.3-7.9,12.9-10.4,24.6-11.1
		c5.5-0.4,11,0.3,16.3,2c4.9,1.5,6.8,2.3,11.2,5.3l0.2-47.2c-3.6-1-4.5-1.2-9.7-1.5c-2.7-0.2-5.5-0.3-8.2-0.4
		c-10.3,0-21.2,4.2-30.6,11.6c-6.8,5.4-13.6,13.4-16.5,19.6c-0.6,1.2-1.3,3-2.2,5.4L594.8,212.7L594.8,212.7z M911.4,412.2
		l17.3-52.1c-3.5,2.7-4.6,3.4-9.8,5.7c-4.3,1.9-8.6,3.5-12.9,4.8c-10.4,3-21.8,4.2-40.4,4.2h-42.8V220.1c0-19,0.1-23,0.9-32.7
		c0.5-6.1,1.3-11.3,2.4-15.6c2.1-8,6.3-17,10.8-22.9c0.7-0.9,1.4-1.8,2.1-2.6h-86.1c4.6,4.9,6,7,9,13.3c2.1,4.4,3.8,8.7,4.9,12.8
		c2.1,7.9,3.3,19.5,3.3,33.6v132.7l0.1,14.8c0,3.1-0.2,7.3-0.6,12.7c-0.5,6.8-1.1,12.2-1.8,16.2c-1.1,5.7-2.9,11.2-5.4,16.5
		c-2.8,6.2-4.2,8.4-8.7,13.4L911.4,412.2L911.4,412.2L911.4,412.2z M1014.8,167.9c0-16.7-13.2-30.2-29.4-30.2
		c-16.8,0.1-30.3,13.8-30.3,30.6c0,0,0,0,0,0c0,16.1,13.4,29.2,30,29.2C1001.5,197.5,1014.8,184.2,1014.8,167.9
		C1014.8,167.9,1014.8,167.9,1014.8,167.9z M949.5,412.2h74.4c-3.8-3.5-5.1-5.1-7.1-8.7c-1.7-3-3-6.2-3.8-9.5
		c-1.2-5.1-1.7-9.9-1.9-20.9c-0.1-4.1-0.1-8.2-0.1-12.3V213.3H951c2.5,3.1,3.5,4.4,4.9,6.8c2.6,4.5,4.5,9.9,5.4,15.4
		c0.6,3.9,1,8.6,1.1,17c0,3,0.1,6,0.1,9.2v100.2c0,7.7-0.3,17.9-0.6,22.5c-0.2,3.3-0.7,6.5-1.5,9.8
		C958.7,401.1,954.9,407.4,949.5,412.2L949.5,412.2z M1113.1,212.8h-59.5c3.7,3.5,5.1,5.1,7.1,8.7c1.7,3,3,6.2,3.8,9.5
		c1.2,5.1,1.7,9.8,1.9,20.9c0.1,4.8,0.2,8.6,0.2,11.3v98.6c0,7.7-0.3,17.9-0.6,22.5c-0.2,3.3-0.7,6.5-1.5,9.8
		c-1.7,7-5.5,13.4-10.9,18.2h74.4c-3.8-3.5-5.1-5.1-7.1-8.7c-1.7-3-3-6.2-3.8-9.5c-1.2-5.1-1.7-9.9-1.9-20.9
		c-0.1-4.1-0.1-8.2-0.2-12.3v-20.4c0-27.2,0.1-32.6,0.8-42.1c0.8-10.2,3.3-19.7,7.3-27.6c6.6-12.8,16.3-21.2,30.1-26
		c6-2.1,11.8-3.1,17.4-3.1c9.7,0,19.4,3,25.8,8.1c3.4,2.7,6.5,6.5,9,11c4.6,8.3,5.7,13.4,5.8,28.7l0.2,14.7v57.7
		c0,7.7-0.3,17.9-0.6,22.5c-0.2,3.3-0.7,6.6-1.5,9.8c-1.7,7-5.5,13.4-10.9,18.2h74.7c-3.8-3.5-5.1-5.1-7.1-8.7
		c-1.7-3-2.9-6.2-3.8-9.5c-1.3-5-1.6-9.2-1.8-20.9c-0.1-4.1-0.1-8.2-0.2-12.3v-67.4c0-16.7-0.1-19.1-1.1-27.7c-1.3-10.1-4-19-8-26.4
		c-7.6-14-23.8-25.2-42.8-29.5c-7.9-1.7-16-2.6-24-2.5c-23.6,0-41.4,5.8-56.2,18.4c-7.6,6.4-10.2,9.9-15.1,19.6L1113.1,212.8
		L1113.1,212.8L1113.1,212.8z M1886.1,217.8c-6.5-2.3-13.3-4.1-20.1-5.2c-13.8-2.6-27.9-3.9-42-3.9c-27,0-45.5,4.9-59.5,15.8
		c-12.4,9.6-19.6,24.4-19.7,40c0,10.8,3.7,22.4,9.8,30.8c3.6,4.8,8.3,9.3,14.1,13.2c6.7,4.6,13.9,8.5,21.4,11.6
		c4.1,1.7,11,4.5,20.7,8.4c17.2,6.8,25.1,10.7,30.7,14.9c5.2,3.9,8.9,10.6,8.9,16c0,4.7-3.2,11.9-6.6,15.2c-2.4,2.2-6,4.1-10.5,5.6
		c-5.8,1.9-11.9,2.8-18,2.7c-15,0-32.1-3.5-47.1-9.8c-5.8-2.5-11.6-5.3-17.2-8.2c-4.5-2.2-8.8-4.6-12.9-7.3c-1.4-0.9-2.7-1.9-4-3
		l16.3,51c9.9,3.5,13.2,4.4,26.3,6.8c20.3,3.7,33.6,5.2,45.9,5.2c17.1,0,31.3-2.9,44.5-9.2c7.8-3.6,14.7-8.9,20.4-15.4
		c8.5-10.3,13.2-23.3,13.3-36.7c0-13.9-5.2-27.2-14.6-37.5c-5.8-6.2-12.5-11.5-19.9-15.7c-11.1-6.4-22.9-11.7-40.8-18.3
		c-12.2-4.6-16.1-6.4-21.1-10c-5.7-4.1-8.4-8.6-8.4-14.1c0-5.1,2.8-9.9,7.4-12.6c5.7-3.4,13.1-5,23.2-5c11.5,0,26.5,2.4,40.4,6.4
		c7.7,2.2,11.1,3.5,19.2,7.1L1886.1,217.8L1886.1,217.8L1886.1,217.8z M289.2,331l6.2,15c1.3,3.1,4.4,9.7,9.2,19.8
		c3.7,7.7,6.6,13.3,8.6,17c3,5.4,6.5,10.6,10.4,15.4c5.4,6.7,7.7,8.9,14.7,13.8h-96.8c4.9-3.2,6.6-4.7,9.7-8.4
		c3.5-4.3,4.8-7.9,4.8-12.9c0-4.3-0.2-5-4.3-16l-4.1-11.1l-3.3-8.7l-16.3-42.4l-99.1,0.2l-15.1,38.7c-5.4,13.8-6.2,16.1-8.1,22.6
		c-2,6.7-2.9,11.7-2.9,15.6c0,4.3,1.1,8,3.4,11.8c1.3,2,2.8,4,4.5,5.7c1.5,1.5,2.7,2.5,6,5.2l-79.7-0.1l3.9-3.2
		C48,402.7,51.7,397.7,57,387c6.6-13.4,12.7-27,18.3-40.9l80.5-201h54.6L289.2,331L289.2,331z M215.2,280.6l-37.8-96l-36.7,96H215.2
		z M378.5,313.6c1.1,15.9,2.1,20.9,6.4,32.1c3.2,8.4,8.3,16,14.8,22.2c11.7,11.4,26.2,16.7,45.8,16.7c15.7,0,25.8-2.3,44.3-10.3
		c9.1-4,11.2-5.1,16.8-9.4L492,405.9c-7,3.3-9.7,4.2-17.8,6.3c-12.6,3.2-25.6,4.9-38.6,4.8c-13,0-24.8-1.5-36.5-4.6
		c-12.8-3.5-24.8-9.6-35.1-18.1c-23.7-19.5-37.3-50.5-37.3-85.3c0-32.3,11.6-59.6,33.3-78.3c17.3-15,38.8-22.4,64.6-22.4
		c25.3,0,45.9,7.3,60.8,21.6c9.5,9.1,16.7,20.3,21,32.7c4.7,13.2,7.7,30.5,7.7,44c0,2-0.1,3.6-0.2,7L378.5,313.6L378.5,313.6
		L378.5,313.6z M462,260.2c-2.5-5.1-6.1-9.7-10.5-13.4c-7.1-5.9-15.3-8.7-25.7-8.7c-11.9,0-22.1,3.7-30,10.8c-4,3.7-7.3,8-9.8,12.8
		c-3.9,7.1-5,10.4-6.3,19.2h87.6C466.8,271.4,465.8,267.7,462,260.2L462,260.2z M1657.8,412.2v-31.1c-4.7,8-7,10.8-13.4,16.7
		c-5.6,5.1-11.4,9.1-17.2,11.9c-10.2,4.9-24.7,7.8-38.7,7.8c-20.8,0-39.9-6-53.2-16.8c-7.3-5.9-12.7-13.9-15.6-22.9
		c-3.1-9.9-4.8-24.2-4.8-40.7l0.1-20.8l0.1-38.2l-0.1-11.6c0-3.6-0.1-7.3-0.2-10.9c-0.2-2.8-0.9-5.5-2.1-8c-1.2-2.5-3.1-4.8-5.3-6.5
		c-5.1-3.9-11.7-5.8-19.9-5.8c-7.3,0-14.7,1.6-20.5,4.3c-4,1.9-6.1,3.4-11,7.7c4.5,7.5,5.6,9.7,7.2,14.2c2.3,6.4,4,16.9,4,25.2
		c0,18.4-7.7,37.2-20.2,49.2c-14.2,13.6-37.6,21.4-64.2,21.4c-3.2,0-6.7-0.1-10.5-0.3c-6.6-0.4-7.9-0.6-12.3-1.6
		c-0.9,0.8-1.6,1.5-2,1.9c-1.8,2.1-2.8,4.7-2.9,7.4c0,3.1,2,6.7,4.5,8.2c1.8,1,4.3,1.8,7.5,2.2c8.8,1.1,15.4,1.5,35.3,2.1
		c28.8,0.9,39.2,2.2,51.8,6.4c9,3,17.2,8.8,24,16.6c9,10.5,13.8,24.1,13.8,38.9c0,14.6-4.7,28.9-13.2,40c-6.5,8.6-15,15.6-24.8,20.2
		c-18.8,8.8-43.3,13.7-69.1,13.7c-23.2,0-49.9-4.3-68.6-11.1c-8-3-15.5-7.2-22.3-12.4c-12-9.4-17.3-19.2-17.3-32
		c0-9.8,3.6-17.7,10.6-23.2c6.5-5.1,14.9-7.8,24.5-7.8c3.3,0,6.7,0.2,10.2,0.6c5,0.6,7,0.9,12.2,2.2c-3,2.8-3.7,3.8-6,8.4
		c-2.5,5-3.4,8.5-3.4,12.5c0,8.5,4.7,17.5,12,22.9c4.7,3.5,10.2,6.1,16.1,7.8c10.1,2.9,21.8,4.4,34,4.4c17.7,0,33.6-3.2,45.6-9.2
		c5.2-2.6,9.9-6.2,13.8-10.6c5.3-6,7.8-12.2,7.8-19.2c0-9.3-4.6-17.6-12-21.9c-4.9-2.8-10.3-4.6-16-5.4c-10.8-1.5-15.6-1.9-48.3-3
		c-26.3-0.9-35.9-2.4-44.7-7.1c-9.3-4.9-15.4-15.8-15.4-27.7c0-8.1,2.4-15,8.1-23c3.2-4.5,4.7-6.3,9.1-10.4
		c-10.1-4.5-13.8-6.9-20.3-13c-13.5-12.7-20.8-30.3-20.8-50.8c0-24,10.4-45.5,28.5-59c14.6-10.8,34.9-16.4,60-16.4
		c17.5,0,29.3,2.6,43.2,9.5c7.8,3.9,10.4,5.7,16.5,11.4l10-16.6h112v100.6c0,11.6,0,20.1,0.1,25.8c0,6.5,0.7,12.9,2,19.3
		c1.3,5.9,4.3,11.2,8.6,15.4c6.4,6.1,16.2,9.7,26.6,9.7c5.2,0,10.6-0.9,16-2.7c12.6-4.2,22.4-12.4,29-24.4c2.3-4.1,4-8.4,5.3-12.8
		c2.7-9.7,3.8-20.6,3.8-39.2v-41.2c0-1.7-0.1-5.5-0.2-11.3c-0.2-11.9-0.5-16-1.8-20.9c-0.9-3.3-2.2-6.5-3.9-9.5
		c-2.2-3.9-3.4-5.4-7.1-8.7h61.6l-0.1,147.8c0,1.9,0,6,0.1,12.3c0.2,11.7,0.6,15.9,1.8,20.9c0.9,3.4,2.1,6.6,3.8,9.5
		c2,3.6,3.4,5.2,7.1,8.7L1657.8,412.2L1657.8,412.2L1657.8,412.2z M1409.5,249.4c-7.2-6.2-17-9.5-28.3-9.5
		c-12.3,0-23.3,4.1-30.5,11.5c-7.4,7.5-11.3,18.4-11.3,31.6c0,6.1,1,12.5,2.8,18.2c1.8,5.7,4.7,10.7,8.3,14.5
		c7.1,7.6,18.5,12,30.9,12c12.4,0,23.8-4.4,31-11.9c7.1-7.4,11.1-18.9,11.1-31.5C1423.5,268.9,1418.8,257.4,1409.5,249.4
		L1409.5,249.4z"/>
</g>
</svg>
