<?xml version="1.0" encoding="UTF-8"?>
<svg width="318px" height="281px" viewBox="0 0 318 281" version="1.1" xmlns="http://www.w3.org/2000/svg" xmlns:xlink="http://www.w3.org/1999/xlink">
    <!-- Generator: Sketch 54 (76480) - https://sketchapp.com -->
    <title>Desktop</title>
    <desc>Created with Sketch.</desc>
    <g id="Desktop" stroke="none" stroke-width="1" fill="none" fill-rule="evenodd">
        <g id="thinking" transform="translate(11.000000, 0.000000)" fill-rule="nonzero">
            <path d="M0.74782114,127.000511 C8.96335748,54.5665435 83.7969957,-2.11763691 145.412264,0.0607386804 C248.876714,3.71875378 339.081396,174.20283 274.003158,243.88576 C235.604401,285.000796 138.103711,296.422057 69.4270203,255.197256 C21.5639003,226.465655 -4.87911247,176.617045 0.74782114,127.000511 Z" id="Path" fill="#856CB0"></path>
            <path d="M92.8503418,154.667146 C91.4654214,153.891804 90.4531788,152.597558 90.0412008,151.075401 C89.7335883,149.101283 91.2039376,147.129081 92.6046387,145.436706 C95.9158154,141.210303 98.7544569,136.640548 101.070755,131.807624 C101.218552,131.546691 101.329231,131.266771 101.399649,130.975811 C101.39191,130.446824 100.767012,129.841172 99.8190236,128.98061 C98.3925539,127.938007 97.3888046,126.42502 96.9886012,124.714215 C96.893762,123.61498 97.0745279,122.50956 97.5148315,121.49621 C97.8630721,120.589649 98.2616142,119.717587 98.6485482,118.845525 C99.3392291,117.443798 99.8950028,115.980697 100.308495,114.475632 C100.79359,112.128761 101.430113,109.815125 102.214145,107.548969 C103.919591,102.892216 106.56004,98.6261968 109.976042,95.0085268 C114.301964,90.477638 120.641878,87.4474624 129.365306,85.7225047 C135.528703,84.3840608 141.782831,83.4949232 148.077435,83.0622366 C150.319387,82.9473593 152.566764,82.9915544 154.802348,83.1944834 C155.492157,83.2581644 156.095273,83.6815831 156.384509,84.3052418 C156.673744,84.9289005 156.605158,85.6580506 156.204584,86.2180283 C155.804011,86.7780059 155.132308,87.0837372 154.4425,87.0200562 C152.394447,86.8284007 150.335019,86.784842 148.280575,86.8897261 C142.174609,87.3145895 136.108116,88.1806495 130.1295,89.4809958 C122.313433,91.0181248 116.490076,93.7627241 112.790987,97.6438788 C109.735582,100.88584 107.374292,104.707021 105.84939,108.877187 C105.13311,110.951633 104.551522,113.069351 104.108187,115.217364 C103.637373,117.008172 102.989344,118.748589 102.173517,120.41332 C101.809799,121.220217 101.444147,122.025197 101.128795,122.84551 C100.939414,123.276398 100.833112,123.738594 100.815379,124.208227 C100.89857,124.77363 101.639548,125.444447 102.42309,126.157429 C104.023666,127.273224 105.058633,129.020515 105.261251,130.948978 C105.225116,131.859475 104.969023,132.748097 104.514468,133.540248 C102.093037,138.593434 99.1252974,143.371418 95.6633522,147.790315 C94.1910682,149.567021 93.875717,150.270421 93.875717,150.561747 C94.2333909,150.90641 94.6219204,151.218183 95.0365191,151.493224 C95.5414997,151.842185 96.0747002,152.149249 96.6306873,152.411285 C98.2809609,153.246931 100.54259,154.39307 101.004976,156.731346 C101.283205,158.178905 101.103478,159.676265 100.490354,161.018824 C100.153722,161.722223 99.8054809,162.343208 99.5017377,162.872195 C99.4030695,163.037024 99.3024667,163.22102 99.2096025,163.387766 C100.022164,164.027916 101.107514,164.840563 101.5699,165.177888 C101.991948,165.485583 102.269955,165.94972 102.340333,166.464144 C102.410711,166.978567 102.267441,167.499269 101.943291,167.907155 C101.655206,168.277745 101.405047,168.675806 101.196509,169.095459 L101.612463,169.331203 C103.318992,170.060683 104.622005,171.487897 105.183864,173.243024 C105.46865,174.612908 105.402132,176.031671 104.990397,177.369506 C104.901402,177.760496 104.810473,178.162986 104.754367,178.54631 C104.652769,179.699616 104.816143,180.860741 105.232231,181.94256 C105.663947,183.707968 107.415638,184.829206 109.217651,184.493581 C114.851959,183.150655 120.403368,181.48682 125.844206,179.51037 L125.857749,179.51037 C127.869806,178.833803 129.692265,178.201319 131.129725,177.704914 C132.466582,177.239176 133.488088,176.888434 134.014318,176.721688 C142.056742,174.184084 143.687669,171.312988 143.641236,169.352286 C143.616368,168.294388 144.461625,167.416694 145.529474,167.391584 C146.042613,167.371351 146.542163,167.557777 146.914291,167.90838 C147.28642,168.258983 147.499426,168.743896 147.504773,169.252622 C147.618918,174.015421 143.474855,177.75283 135.190597,180.369015 C134.683714,180.537678 133.702836,180.87692 132.402738,181.327325 L130.661535,181.927227 C133.855968,185.431078 136.187583,189.620447 137.473508,194.16676 L181.355696,194.03643 L181.226073,193.844768 C180.668785,193.049542 180.167796,192.217013 179.726703,191.353163 C178.764299,189.419628 177.961372,187.412129 177.325778,185.35031 C176.148825,181.423601 175.332301,177.399601 174.886159,173.327355 C174.123224,166.915353 175.102357,160.417831 177.722385,154.50615 C179.267041,151.306958 181.17747,148.294097 183.416119,145.526787 C184.540163,144.027991 185.700965,142.479362 186.705059,140.905817 C188.329246,138.408774 189.507261,135.653301 190.187465,132.760184 C190.442467,131.744374 191.472971,131.119127 192.502237,131.355723 C193.531502,131.592318 194.178787,132.603234 193.956202,133.626496 C193.178442,136.941389 191.830268,140.098839 189.970782,142.960433 C188.889301,144.648975 187.684002,146.257019 186.5232,147.809481 C184.461757,150.345441 182.698854,153.105946 181.268636,156.037529 C178.924913,161.323502 178.047344,167.13327 178.726479,172.867366 C179.145659,176.707127 179.911632,180.501904 181.015194,184.206088 C181.594181,186.080117 182.324624,187.904892 183.199436,189.662704 C183.56953,190.380014 183.988383,191.071589 184.453103,191.732653 C185.274772,192.849925 185.934452,194.075688 186.412923,195.374231 C186.597548,195.955817 186.491858,196.589728 186.128258,197.081608 C185.764658,197.573488 185.186526,197.864654 184.571117,197.865836 L136.010898,197.999999 C135.12222,198.000637 134.347393,197.40142 134.132333,196.547202 C133.41457,193.655023 130.6596,185.950212 126.302723,183.416441 C120.964753,185.339838 115.518513,186.954435 109.991519,188.252072 C109.471608,188.359713 108.942033,188.414938 108.410894,188.416901 C105.210595,188.363168 102.424638,186.236524 101.556357,183.18453 C100.934625,181.537546 100.710678,179.769252 100.902439,178.021156 C100.974022,177.511336 101.084298,177.014931 101.198443,176.51661 C101.44261,175.768216 101.515311,174.975313 101.411257,174.195584 C101.252614,173.603348 100.80764,173.304356 99.670054,172.662288 C99.2173412,172.403544 98.7510857,172.135218 98.3157849,171.828558 C97.6925422,171.383881 97.2817576,170.704472 97.1801336,169.950271 C97.1063343,168.986629 97.3260376,168.023212 97.810836,167.184589 C97.1511135,166.684351 96.4294816,166.130448 96.0115928,165.747124 C94.2239576,164.29816 95.4079757,162.222461 96.1179997,160.984324 C96.3772455,160.528169 96.6809887,160.001099 96.9692545,159.38778 C97.2398589,158.778497 97.3187439,158.102541 97.1956109,157.448161 C97.0969428,156.94984 95.6962416,156.240691 94.8585294,155.817118 C94.1585872,155.488709 93.4869495,155.104102 92.8503418,154.667146 Z M113.354896,111.575136 C112.750463,113.352571 112.256676,115.164176 111.876246,117 L108,116.159583 C108.417134,114.154551 108.961348,112.176823 109.629492,110.237844 C111.008714,106.50064 113.147617,103.075298 115.917228,100.168364 C119.140487,96.8377501 124.425916,94.4387762 131.628629,93.0374339 C132.703957,92.8289418 133.748518,93.5123932 133.96172,94.5639654 C134.174923,95.6155376 133.476031,96.6370216 132.400703,96.8455138 C126.021667,98.08576 121.446784,100.102373 118.801092,102.841008 C116.402601,105.363907 114.550135,108.334729 113.354896,111.575136 Z M153.753568,93.7333516 C154.119669,91.9475923 155.697985,90.6654027 157.528492,90.6666859 L162.07149,90.6666859 C162.325744,90.6698146 162.579097,90.6974152 162.828015,90.7491025 L164.560514,89.0241031 C165.712493,87.875496 167.510631,87.6763908 168.887913,88.5449366 L172.647437,91.0557691 C173.370996,90.6957128 174.118341,90.3851333 174.884286,90.1261861 L175.75631,85.7696042 C176.08267,84.1542928 177.510659,82.9942074 179.165484,83.0000218 L182.784483,83.0000218 C184.444789,82.9947301 185.875519,84.1628179 186.195582,85.7849375 L187.065682,90.1223527 C187.831278,90.3814645 188.57857,90.6913813 189.302531,91.0500191 L193.01778,88.5775199 C194.399623,87.6778788 196.225335,87.8641362 197.395228,89.0241031 L199.955477,91.5732689 C201.110459,92.7195986 201.310543,94.5109587 200.436727,95.8819342 L197.914978,99.625183 C198.274631,100.345762 198.58463,101.089868 198.842828,101.852349 L203.218351,102.720599 C204.840686,103.045546 206.005815,104.467353 205.999975,106.115014 L205.999975,109.718346 C206.006214,111.372185 204.832837,112.797781 203.202951,113.116595 L198.846678,113.981012 C198.586439,114.743294 198.275175,115.48735 197.914978,116.208177 L200.398227,119.907343 C201.30102,121.283388 201.114006,123.100679 199.949702,124.265842 L197.389453,126.815007 C196.738856,127.466653 195.854061,127.832975 194.931229,127.832757 C194.269683,127.831938 193.621797,127.645256 193.062055,127.294174 L190.161081,125.358341 C189.628297,126.390597 188.652873,127.125523 187.510356,127.355507 L181.758458,128.505507 C181.392832,129.614115 180.942344,130.693168 180.410959,131.733172 L183.668058,136.576587 C184.691247,138.107844 184.477977,140.146853 183.159858,141.435336 L179.966284,144.615085 C178.677367,145.902185 176.657827,146.111109 175.130686,145.115335 L170.243112,141.857002 C169.198586,142.386087 168.114842,142.834625 167.001413,143.198669 L165.846414,148.933333 C165.480313,150.719093 163.901997,152.001282 162.07149,151.999999 L157.528492,151.999999 C155.694304,152.001272 154.113894,150.714026 153.751643,148.92375 L152.596643,143.196752 C151.483215,142.832708 150.399471,142.38417 149.354944,141.855086 L144.490471,145.098085 C142.952254,146.111586 140.908911,145.900428 139.612523,144.594001 L136.417024,141.412336 C135.124328,140.128999 134.914495,138.118201 135.914599,136.597671 L139.187098,131.731256 C138.655713,130.691251 138.205225,129.612198 137.839598,128.50359 L132.08,127.35359 C130.286477,126.989074 128.998712,125.417591 129.000001,123.595008 L129.000001,119.071677 C128.998538,117.246019 130.290406,115.672658 132.0877,115.311178 L137.839598,114.161178 C138.205225,113.05257 138.655713,111.973517 139.187098,110.933513 L135.929999,106.090097 C134.90681,104.558841 135.12008,102.519832 136.438199,101.231349 L139.633698,98.0516001 C140.922614,96.7645002 142.942155,96.5555758 144.469296,97.5513503 L149.356869,100.809683 C150.401396,100.280598 151.48514,99.8320603 152.598568,99.4680163 L153.753568,93.7333516 Z M183.182958,101.246682 L183.182958,101.252432 C184.475834,102.537799 184.683327,104.550896 183.679608,106.070931 L180.407109,110.937346 C180.938494,111.97735 181.388982,113.056403 181.754608,114.165011 L184.676757,114.740011 C187.691331,113.248227 189.374312,109.971555 188.824399,106.664778 C188.274486,103.358001 185.620594,100.796315 182.283983,100.351599 L183.182958,101.246682 Z M167.070713,91.9393521 L165.715514,93.288685 C165.769902,93.4363346 165.814276,93.5874519 165.848339,93.7410182 L167.003338,99.4680163 C168.116767,99.8320603 169.200511,100.280598 170.245037,100.809683 L175.105661,97.5666836 C175.901863,97.0498105 176.860104,96.83991 177.80066,96.9763505 C178.905811,96.6128155 180.061354,96.423969 181.225234,96.416684 C185.931006,96.4033642 190.172093,99.240413 191.938461,103.58323 C193.704828,107.926048 192.641519,112.901931 189.252481,116.152594 C190.107975,116.883198 190.600189,117.949478 190.59998,119.071677 L190.59998,121.030509 L194.890804,123.888258 L197.027553,121.760759 L194.074604,117.37926 C193.660793,116.764833 193.639066,115.968142 194.018779,115.332261 C194.667315,114.235087 195.162743,113.055076 195.491404,111.824762 C195.682083,111.121758 196.256398,110.587061 196.973653,110.444763 L202.161527,109.415513 L202.161527,106.417847 L196.964028,105.388598 C196.246773,105.246299 195.672458,104.711602 195.481779,104.008598 C195.153118,102.778285 194.65769,101.598274 194.009154,100.501099 C193.629441,99.8652184 193.651168,99.0685272 194.064979,98.4541 L197.016003,94.0706848 L194.879254,91.9431855 L190.478705,94.8833512 C189.863861,95.2989613 189.063661,95.3250716 188.422806,94.9504345 C187.320862,94.3047065 186.13572,93.8114231 184.900057,93.484185 C184.193997,93.294331 183.656975,92.722502 183.514058,92.0083521 L182.480333,86.8333538 L179.469634,86.8333538 L178.43591,91.9968521 C178.292992,92.711002 177.75597,93.282831 177.04991,93.472685 C175.814247,93.7999231 174.629106,94.2932065 173.527161,94.9389345 C172.888516,95.3170044 172.08836,95.2953714 171.471262,94.8833512 L167.070713,91.9393521 Z M156.142492,101.355932 C155.999862,102.066105 155.467377,102.635585 154.766118,102.827932 C153.175637,103.254839 151.647802,103.886265 150.221194,104.706265 C149.585477,105.073414 148.795275,105.04813 148.184545,104.641098 L142.353722,100.750266 L139.144748,103.962598 L143.040946,109.76243 C143.449748,110.370516 143.475142,111.157297 143.106396,111.790262 C142.282832,113.210694 141.648661,114.731915 141.219897,116.315511 C141.029211,117.016709 140.45677,117.550307 139.741498,117.693594 L132.85,119.071677 L132.85,123.595008 L139.735723,124.967341 C140.450995,125.110628 141.023436,125.644226 141.214122,126.345424 C141.642886,127.92902 142.277057,129.450241 143.100621,130.870673 C143.469367,131.503638 143.443973,132.290419 143.035172,132.898505 L139.127423,138.704087 L142.353722,141.899169 L148.17877,138.019837 C148.7895,137.612805 149.579702,137.587521 150.215419,137.95467 C151.642027,138.77467 153.169862,139.406096 154.760343,139.833003 C155.464589,140.022863 156.000508,140.592827 156.144417,141.305003 L157.528492,148.166667 L162.07149,148.166667 L163.44979,141.310753 C163.593699,140.598577 164.129617,140.028613 164.833864,139.838753 C166.424345,139.411846 167.95218,138.78042 169.378788,137.96042 C170.014505,137.593271 170.804707,137.618555 171.415437,138.025587 L177.24626,141.916419 L180.455234,138.704087 L176.559035,132.904255 C176.150234,132.296169 176.12484,131.509388 176.493585,130.876423 C177.31715,129.455991 177.951321,127.93477 178.380085,126.351174 C178.57077,125.649976 179.143212,125.116378 179.858484,124.973091 L186.749982,123.595008 L186.749982,119.06976 L179.864259,117.699344 C179.148987,117.556057 178.576545,117.022459 178.38586,116.321261 C177.957096,114.737665 177.322925,113.216444 176.49936,111.796012 C176.130615,111.163047 176.156009,110.376266 176.56481,109.76818 L180.472559,103.962598 L177.24626,100.767516 L171.421212,104.646848 C170.810482,105.05388 170.02028,105.079164 169.384563,104.712015 C167.957955,103.892015 166.43012,103.260589 164.839639,102.833682 C164.135392,102.643822 163.599474,102.073858 163.455565,101.361682 L162.07149,94.500018 L157.528492,94.500018 L156.142492,101.355932 Z M159.5,135 C152.04768,134.991498 146.008502,128.95232 146,121.5 C146,114.044156 152.044156,108 159.5,108 C166.955844,108 173,114.044156 173,121.5 C173,128.955844 166.955844,135 159.5,135 Z M159.5,111.857143 C154.17704,111.863519 149.863519,116.17704 149.857143,121.5 C149.857143,126.825603 154.174397,131.142857 159.5,131.142857 C164.825603,131.142857 169.142857,126.825603 169.142857,121.5 C169.142857,116.174397 164.825603,111.857143 159.5,111.857143 Z M160,124 C158.895431,124 158,123.104569 158,122 C158,120.895431 158.895431,120 160,120 C161.104569,120 162,120.895431 162,122 C162,123.104569 161.104569,124 160,124 Z M107,125 C105.895431,125 105,124.104569 105,123 C105,121.895431 105.895431,121 107,121 C108.104569,121 109,121.895431 109,123 C109,124.104569 108.104569,125 107,125 Z" id="Combined-Shape" stroke="#FFFFFF" fill="#FFFFFF"></path>
        </g>
    </g>
</svg>