<svg id="Layer_1" xmlns="http://www.w3.org/2000/svg" viewBox="0 0 510.2 510.2"><style>.st1{fill:#fff}</style><path d="M61.3 112.9c59.4-78 173.5-100.7 260.4-72C458.9 86.4 543.8 265.4 467 383.4c-62.4 96-214.8 125.6-323 64.2C25 380-16.8 215.4 61.3 112.9z" fill="#4b9fd8" id="Layer_1_1_"/><g id="Layer_5"><path class="st1" d="M208.5 186.8c-7.5 2.8-12.9 10-12.9 18.5 0 3.3.9 6.3 2.3 9-6 2.3-10.2 8-10.2 14.8s4.3 12.5 10.2 14.8c-1.4 2.7-2.3 5.8-2.3 9 0 8.5 5.4 15.7 12.9 18.5-.6 1.7-1 3.4-1 5.3 0 8.8 7.1 15.9 15.9 15.9 2 0 3.9-.4 5.6-1.1 2.6 5.3 8 9 14.3 9 8.8 0 15.9-7.1 15.9-15.9v-111c0-8.8-7.1-15.9-15.9-15.9-6.3 0-11.7 3.7-14.3 9-1.7-.7-3.6-1.1-5.6-1.1-8.8 0-15.9 7.1-15.9 15.9 0 1.9.4 3.6 1 5.3zm14.9-13.2c4.4 0 7.9 3.6 7.9 7.9h7.9c0-3.8-1.4-7.3-3.7-10 .9-3.4 4-5.9 7.6-5.9 4.4 0 7.9 3.6 7.9 7.9v111.2c0 4.4-3.6 7.9-7.9 7.9-3.7 0-6.7-2.5-7.6-5.9 2.3-2.7 3.7-6.2 3.7-10h-7.9c0 4.4-3.6 7.9-7.9 7.9-4.4 0-7.9-3.6-7.9-7.9 0-4.4 3.6-7.9 7.9-7.9v-7.9c-3.9 0-7.4 1.4-10.1 3.7-5.5-1-9.7-5.9-9.7-11.7 0-6.6 5.3-11.9 11.9-11.9 6.6 0 11.9 5.3 11.9 11.9h7.9c0-10.9-8.9-19.9-19.9-19.9-4.5 0-8.6 1.6-11.9 4.1v-.1c-4.4 0-7.9-3.6-7.9-7.9s3.6-7.9 7.9-7.9v-.1c3.3 2.5 7.4 4.1 11.9 4.1 10.9 0 19.9-8.9 19.9-19.9h-7.9c0 6.6-5.3 11.9-11.9 11.9-6.6 0-11.9-5.3-11.9-11.9 0-5.8 4.2-10.7 9.7-11.7 2.8 2.3 6.3 3.7 10.1 3.7v-7.9c-4.4 0-7.9-3.6-7.9-7.9s3.5-7.9 7.9-7.9zM302.8 165.6c-2 0-3.9.4-5.6 1.1-2.6-5.3-8-9-14.3-9-8.8 0-15.9 7.1-15.9 15.9v111.2c0 8.8 7.1 15.9 15.9 15.9 6.3 0 11.7-3.7 14.3-9 1.7.7 3.6 1.1 5.6 1.1 8.8 0 15.9-7.1 15.9-15.9 0-1.9-.4-3.6-1-5.3 7.5-2.8 12.9-10 12.9-18.5 0-3.3-.9-6.3-2.3-9 6-2.3 10.2-8 10.2-14.8s-4.3-12.5-10.2-14.8c1.4-2.7 2.3-5.8 2.3-9 0-8.5-5.4-15.7-12.9-18.5.6-1.7 1-3.4 1-5.3 0-9-7.1-16.1-15.9-16.1zm19.9 39.7c0 6.6-5.3 11.9-11.9 11.9s-11.9-5.3-11.9-11.9H291c0 10.9 8.9 19.9 19.9 19.9 4.5 0 8.6-1.6 11.9-4.1v.1c4.4 0 7.9 3.6 7.9 7.9s-3.6 7.9-7.9 7.9v.1c-3.3-2.5-7.4-4.1-11.9-4.1-10.9 0-19.9 8.9-19.9 19.9h7.9c0-6.6 5.3-11.9 11.9-11.9s11.9 5.3 11.9 11.9c0 5.8-4.2 10.7-9.7 11.7-2.8-2.3-6.3-3.7-10.1-3.7v7.9c4.4 0 7.9 3.6 7.9 7.9 0 4.4-3.6 7.9-7.9 7.9s-7.9-3.6-7.9-7.9h-7.9c0 3.8 1.4 7.3 3.7 10-.9 3.4-4 5.9-7.6 5.9-4.4 0-7.9-3.6-7.9-7.9V173.6c0-4.4 3.6-7.9 7.9-7.9 3.7 0 6.7 2.5 7.6 5.9a15.4 15.4 0 0 0-3.7 10h7.9c0-4.4 3.6-7.9 7.9-7.9s7.9 3.6 7.9 7.9-3.6 7.9-7.9 7.9v7.9c3.9 0 7.4-1.4 10.1-3.7 5.5 1 9.7 5.8 9.7 11.6z"/><path class="st1" d="M325.6 162.6c-18.6-17.4-42.9-26.2-68.4-24.6l.5 7.9c23.3-1.4 45.5 6.5 62.4 22.4 17 15.9 26.3 37.5 26.3 60.8 0 28-14 54-37.4 69.5-8.1 5.4-14.2 13-17.9 21.8h-56.3c-3.8-8.9-9.9-16.6-18-22-24.1-16.1-38-43-37.1-72l-7.9-.2c-1 31.7 14.2 61.2 40.6 78.9 5.8 3.9 10.5 9.2 13.7 15.4h-10.7v7.9h13.9c.8 2.6 1.4 5.2 1.7 7.9h-7.6v7.9h7.9v11.9c0 2.2 1.8 4 4 4h4c0 13.1 10.7 23.8 23.8 23.8s23.8-10.7 23.8-23.8h4c2.2 0 4-1.8 4-4v-11.9h7.9v-7.9h-7.7c.3-2.7.8-5.4 1.6-7.9h14v-7.9h-10.9c3.2-6.1 7.8-11.3 13.6-15.2 25.6-17 40.9-45.5 40.9-76.1.1-25.2-10.4-49.4-28.7-66.6zm-62.5 213.5c-8.8 0-15.9-7.1-15.9-15.9H279c0 8.7-7.1 15.9-15.9 15.9zm23.8-23.9h-47.6v-7.9h47.6v7.9zm.3-15.8H239c-.3-2.7-.7-5.4-1.3-7.9h50.8c-.7 2.5-1.1 5.2-1.3 7.9zM167.8 165.6c8.8 0 15.9 7.1 15.9 15.9 0 2.2 1.8 4 4 4s4-1.8 4-4c0-8.8 7.1-15.9 15.9-15.9 2.2 0 4-1.8 4-4s-1.8-4-4-4c-8.8 0-15.9-7.1-15.9-15.9 0-2.2-1.8-4-4-4s-4 1.8-4 4c0 8.8-7.1 15.9-15.9 15.9-2.2 0-4 1.8-4 4s1.8 4 4 4zm19.9-10.7c1.8 2.7 4 4.9 6.7 6.7-2.7 1.8-4.9 4-6.7 6.7-1.8-2.7-4-4.9-6.7-6.7 2.6-1.7 4.9-4 6.7-6.7zM183.7 205.3c2.2 0 4-1.8 4-4s-1.8-4-4-4c-8.8 0-15.9-7.1-15.9-15.9 0-2.2-1.8-4-4-4s-4 1.8-4 4c0 8.8-7.1 15.9-15.9 15.9-2.2 0-4 1.8-4 4s1.8 4 4 4c8.8 0 15.9 7.1 15.9 15.9 0 2.2 1.8 4 4 4s4-1.8 4-4c0-8.8 7.1-15.9 15.9-15.9zm-19.9 2.8c-1.8-2.7-4-4.9-6.7-6.7 2.7-1.8 4.9-4 6.7-6.7 1.8 2.7 4 4.9 6.7 6.7-2.6 1.7-4.9 4-6.7 6.7z"/></g></svg>