<svg xmlns="http://www.w3.org/2000/svg" viewBox="0 0 1128 1028.01">
  <path fill="#40C1C4" d="M132.22 505.37c2.82-2.35 0 0 0 0l56.3 13.1-12.86 50.88-.55.47a144.9 144.9 0 0 0-40.07 154.94 142.7 142.7 0 0 0 73.32 81.86c25.48 12.24 33.95 12.78 63.28 14.5l-38.97 34.9 25.32 44.07a248.17 248.17 0 0 1-83.9-22.03A221.27 221.27 0 0 1 60.4 751.03c-29.63-84.29 3.14-185.75 71.83-245.66z"/>
  <path fill="#40C1C4" d="M284.1 820.5c7.06-1.33 27.13-5.4 33.95-7.84 56.7-19.92 91.98-61.79 132.83-110.32l128.2-145.92 10.5 49.63 52-1.02L511.48 753.3c-44.3 52.62-90.1 107.03-167.17 134.09A221.37 221.37 0 0 1 266 900l-25.25-42.26 43.36-37.25z"/>
  <path fill="none" d="M568.89 568.96l-2.9 3.37.15.08 2.75-3.45z"/>
  <path fill="#4C9FD8" d="M423.83 316.48a143.65 143.65 0 0 1 137.45-109.54c38.82-.47 71.36 14.5 101.78 38.42 3.84 2.44 9.17 6.51 9.17 6.51l48.85-.23 22.35-34.03c-13.02-15.68-4.86-7.22-23.68-25.72-87.76-86.34-228.9-85.2-315.25 2.57a222.92 222.92 0 0 0-52.1 84.46l50.65-12.23 20.78 49.8z"/>
  <path fill="#4C9FD8" d="M676.08 259.87c5.4 15.21 30.81 73.94 30.81 90.56.03 25.56-6.8 50.66-19.76 72.69l-33.8 41.64H754.5l1.17-1.96a222.29 222.29 0 0 0 30.42-112.37c0-30.5-22.66-100.91-38.42-127.26l-22.97 36.7h-48.62z"/>
  <path fill="#926AAD" d="M643.46 464.83h-87.12l28.3 33.25-21.08 45.95h237.27c35.36 0 62.65 1.8 83.58 4.55l43.05-31.13-21.25-45.72a683.72 683.72 0 0 0-105.38-6.9H643.46z"/>
  <path fill="#4C9FD8" d="M584.5 549.83l12.62 48.77h49.7l44.31-54.57H589.2l-4.7 5.8z"/>
  <path fill="#40C1C4" d="M544.11 544.03h11.76l20.55-44.77-29.33-34.43h-71.51c4.63 22.43 59.04 70.89 68.53 79.2z"/>
  <path fill="#4C9FD8" d="M434.8 544.03l45.1 49 8-49.7 59.98 5.32-3.77-4.62c-9.49-8.31-68.84-79.2-68.53-79.2h-.31l-5.34-6.27a323.38 323.38 0 0 0-12.78-14.11c-6.74-7.22-13.72-14.67-17.25-20.62a143.26 143.26 0 0 1-18.35-95.66l-22.73-51.44-49.4 11.6a222.22 222.22 0 0 0 20.62 172.74l64.77 82.96z"/>
  <path fill="#926AAD" d="M842.62 820.5c-7.06-1.33-27.13-5.4-33.95-7.84-56.7-19.92-91.98-61.79-132.83-110.32l-58.26-69.79-53.32 60.77 51.05 60.06C659.6 806 705.4 860.41 782.48 887.46a221.37 221.37 0 0 0 78.33 12.63l-46.9-34.11 28.7-45.48zM551.79 555.48l-58.88-4.7-6.74 49.78 27.05 32 52.77-60.23-14.2-16.85z"/>
  <path fill="#926AAD" d="M1004.38 510.86c-21.49-19.6-53.63-30.97-88.53-37.48l22.27 45.09-43.52 31.52c37.01 5.88 51.2 14.58 56.38 19.36l.55.47a144.9 144.9 0 0 1 40.07 154.94 142.7 142.7 0 0 1-73.32 81.86c-25.48 12.23-37.8 17.8-65.23 14.2l-28.78 44.06 48.85 34.58a223.47 223.47 0 0 0 193.12-148.43 224.8 224.8 0 0 0-61.86-240.17z"/>
  <path fill="#FFF" d="M672.63 490.24h8.15c2.12 0 3.92.23 5.49.63a10.2 10.2 0 0 1 4.16 2.2c3.21 2.73 4.78 6.9 4.78 12.54 0 1.88-.16 3.52-.47 5.1a13.72 13.72 0 0 1-4.08 7.44 11.13 11.13 0 0 1-5.88 2.75c-1.1.15-2.43.23-3.84.23h-8.16a4.71 4.71 0 0 1-2.58-.55 2.3 2.3 0 0 1-1.1-1.49c-.18-.8-.26-1.61-.24-2.43V494c0-1.33.32-2.35.94-2.9.47-.63 1.5-.86 2.83-.86zm2.42 4.94v20.93h4.71l2.43-.07 1.8-.4a5.65 5.65 0 0 0 1.65-.94c2.12-1.8 3.14-4.78 3.14-9.17 0-3.06-.47-5.33-1.41-6.82-.94-1.5-2.04-2.51-3.38-2.9s-2.98-.63-4.86-.63h-4.08zm41.25 16.15h-11.21c0 1.33.31 2.43.78 3.45.55 1.02 1.18 1.73 2.04 2.28s1.8.78 2.82.78c.7 0 1.33-.08 1.88-.24s1.1-.39 1.65-.78l1.5-1.1 1.72-1.57a2 2 0 0 1 1.25-.39c.63 0 1.1.16 1.41.47.4.32.55.79.55 1.34s-.23 1.1-.63 1.8c-.39.7-1.01 1.33-1.8 2.04-.92.69-1.96 1.22-3.06 1.57-1.25.39-2.66.62-4.31.62-3.69 0-6.59-1.02-8.63-3.13s-3.05-4.94-3.05-8.55c-.06-3.09 1-6.1 2.98-8.47a9.61 9.61 0 0 1 3.6-2.35 12.86 12.86 0 0 1 10.51.55 9.57 9.57 0 0 1 4.78 8.3c0 1.42-.39 2.36-1.25 2.83-.87.32-2.04.55-3.53.55zm-11.21-3.3h10.42a7.3 7.3 0 0 0-1.56-4.38 4.94 4.94 0 0 0-3.61-1.5c-1.41 0-2.59.48-3.53 1.5a6.82 6.82 0 0 0-1.72 4.39zm25.56-6.58v.7a11.3 11.3 0 0 1 3.37-2.9 8.27 8.27 0 0 1 3.92-.93c1.8 0 3.37.47 4.86 1.33 1.5.94 2.67 2.27 3.53 4s1.33 3.84 1.33 6.2c.07 3.1-.93 6.14-2.82 8.62-.84 1-1.88 1.8-3.06 2.35a8.87 8.87 0 0 1-3.84.78 7.6 7.6 0 0 1-4.16-1.02c-1.1-.62-2.2-1.64-3.21-2.9v8.63c0 2.5-.94 3.76-2.75 3.76-1.1 0-1.8-.31-2.11-.94a6.39 6.39 0 0 1-.55-2.82v-24.78c0-1.1.23-1.88.7-2.43s1.1-.79 1.96-.79c.79 0 1.5.32 1.96.87.56.47.87 1.25.87 2.27zm11.21 8.4a10 10 0 0 0-.7-3.93 5.33 5.33 0 0 0-1.96-2.5 4.7 4.7 0 0 0-2.75-.87c-1.57 0-2.9.62-4 1.88-1.1 1.25-1.65 3.06-1.65 5.49 0 2.27.55 4.08 1.65 5.33a4.9 4.9 0 0 0 6.67 1.02 5.32 5.32 0 0 0 1.96-2.5c.55-1.03.78-2.36.78-3.93zm10.43 8.22v-24.93c0-1.18.23-2.04.78-2.59s1.18-.86 2.04-.86 1.57.31 2.12.86.78 1.5.78 2.59v24.93c0 1.18-.23 2.04-.78 2.6s-1.26.85-2.12.85-1.49-.31-2.04-.94c-.55-.47-.78-1.33-.78-2.5zm33.17-8.15c.12 3.13-1 6.17-3.14 8.47a9.32 9.32 0 0 1-3.6 2.35 12.86 12.86 0 0 1-9.41 0 9.4 9.4 0 0 1-3.61-2.43 11.37 11.37 0 0 1-3.14-8.4c-.15-3.11.95-6.16 3.06-8.46 1.02-1.02 2.2-1.8 3.6-2.35a12.86 12.86 0 0 1 9.42 0 8.92 8.92 0 0 1 3.6 2.43 9.41 9.41 0 0 1 2.28 3.68c.7 1.42.94 2.98.94 4.7zm-5.73 0c0-2.35-.55-4.16-1.57-5.49a4.94 4.94 0 0 0-4.15-1.96c-1.06 0-2.1.3-2.98.86a5.17 5.17 0 0 0-1.96 2.6c-.47 1.17-.7 2.42-.7 3.99a10 10 0 0 0 .7 3.92 6 6 0 0 0 1.96 2.59c.86.63 1.88.86 2.98.86 1.72 0 3.14-.63 4.16-1.96 1.01-1.25 1.56-3.14 1.56-5.41zm14.98 12.39l.55-1.26-7.06-17.8a5.86 5.86 0 0 1-.63-2.2c0-.46.16-.93.4-1.32.23-.4.62-.79 1.01-1.02.44-.24.92-.38 1.42-.4.86 0 1.49.24 1.88.79s.78 1.25 1.1 2.27l4.86 14.12 4.62-13.18 1.02-2.5c.32-.63.63-1.02.94-1.26.32-.24.79-.31 1.41-.31.44-.02.88.09 1.26.31.4.23.7.55.94.94s.31.78.31 1.26l-.23 1.17-.47 1.5-7.53 19.6a22.51 22.51 0 0 1-1.88 4.07 6.12 6.12 0 0 1-2.43 2.28c-1.02.54-2.35.78-4.16.78-1.64 0-2.98-.16-3.76-.55s-1.26-1.02-1.26-2.04c0-.63.24-1.17.63-1.49.4-.39 1.02-.55 1.8-.55l.94.16.95.16c.54.03 1.08-.08 1.56-.32.42-.25.77-.6 1.02-1.02.08-.54.4-1.25.79-2.2zm252.56 106.32c.85 2.75.93 5.68.23 8.47a12.35 12.35 0 0 1-4 6.5 21.41 21.41 0 0 1-14.19 4.71 13.7 13.7 0 0 1-5.64-1.49 11.92 11.92 0 0 1-4.4-3.76 16.68 16.68 0 0 1-2.74-5.96 17.6 17.6 0 0 1-.55-6.58 13.17 13.17 0 0 1 6.12-9.65 18.59 18.59 0 0 1 5.96-2.59c2.27-.62 4.47-.86 6.58-.7 3.95.19 7.61 2.15 9.96 5.33a17.58 17.58 0 0 1 2.67 5.72zm-13.02 12.7a13.31 13.31 0 0 0 5.41-2.58c1.35-1 2.33-2.4 2.82-4a8.54 8.54 0 0 0 0-4.86 7.84 7.84 0 0 0-4.23-5.26c-1.1-.47-2.35-.78-3.76-.86a16.7 16.7 0 0 0-9.1 2.43 8.78 8.78 0 0 0-4.23 5.96 7.84 7.84 0 0 0 .23 3.53 8 8 0 0 0 6.67 6.04c1.72.39 3.76.23 6.2-.4zm7.14 17.02l-.7.08c1.4.94 2.58 1.96 3.28 2.98a9.17 9.17 0 0 1-2.98 12.86 14.12 14.12 0 0 1-6.03 2.04 14.8 14.8 0 0 1-4.94-.16 10.38 10.38 0 0 1-3.92-1.65 9.17 9.17 0 0 1-3.45-10.74 12.3 12.3 0 0 1 2.5-3.53l-8.54 1.02c-2.5.31-3.84-.47-4.08-2.27-.15-1.1.16-1.8.7-2.28a7.05 7.05 0 0 1 2.75-.86l24.62-2.82c1.1-.16 1.96 0 2.51.39.63.4.94 1.02 1.02 1.88.08.79-.08 1.5-.63 2.04-.3.55-1.1.94-2.11 1.02zm-7.06 12.15a8.88 8.88 0 0 0 3.76-1.17 5.57 5.57 0 0 0 2.28-2.2c.47-.86.7-1.8.55-2.82a4.96 4.96 0 0 0-2.35-3.76c-1.34-.95-3.3-1.26-5.65-1.02a7.84 7.84 0 0 0-5.1 2.2 4.78 4.78 0 0 0-1.4 4.23c.07.94.46 1.8 1.09 2.5.63.71 1.57 1.34 2.67 1.65 1.25.47 2.58.63 4.15.4zm-.94 26.9l.16-11.21c-1.34 0-2.43.23-3.45.7s-1.8 1.18-2.28 2.04-.78 1.8-.78 2.82c-.01 1.24.32 2.46.94 3.53l1.1 1.5 1.57 1.8c.23.3.39.7.39 1.25 0 .63-.16 1.1-.47 1.41-.32.4-.79.55-1.41.55-.55 0-1.1-.24-1.8-.63a6.28 6.28 0 0 1-1.97-1.88 12.23 12.23 0 0 1-2.11-7.45c.07-3.68 1.17-6.5 3.29-8.55 2.12-2.03 5.02-2.98 8.62-2.98 1.73 0 3.3.32 4.71.87 1.41.55 2.67 1.25 3.68 2.27s1.8 2.2 2.36 3.6c1.25 3.43 1 7.22-.7 10.44a9.05 9.05 0 0 1-3.77 3.52 8.95 8.95 0 0 1-4.63 1.1c-1.41 0-2.35-.47-2.82-1.25-.47-.79-.63-1.96-.63-3.45zm3.45-11.21l-.16 10.42c1.96-.07 3.45-.62 4.47-1.49 1-.92 1.55-2.24 1.5-3.6 0-1.41-.48-2.59-1.42-3.53a7.52 7.52 0 0 0-4.39-1.8zm-6.82 26.42l-4.78-.63c-1.18-.15-1.96-.55-2.51-1.17a3.04 3.04 0 0 1-.63-2.2c.05-.78.5-1.49 1.18-1.88.62-.47 1.56-.63 2.66-.47l15.84 2.12c2.59.31 3.69 1.4 3.45 3.29-.16.94-.55 1.57-1.18 1.96-.62.31-1.56.47-2.74.31 1.1.87 1.88 1.65 2.35 2.43s.7 1.8.55 2.98a7.84 7.84 0 0 1-1.33 3.38c-.79 1.02-1.65 1.49-2.59 1.4-.7-.07-1.25-.38-1.65-.93s-.55-1.1-.47-1.65c0-.24.24-.7.55-1.49.4-.78.55-1.49.63-2.04.08-.86 0-1.57-.4-2.12a4.4 4.4 0 0 0-1.8-1.49 28.19 28.19 0 0 0-7.13-1.8zm-10.12 24.93a20.61 20.61 0 0 1-1.4-4.46c-.24-1.5-.16-3.02.23-4.47.39-1.42.94-2.6 1.8-3.53a7.05 7.05 0 0 1 2.9-1.96c1.1-.32 2.2-.4 3.37-.08a5.71 5.71 0 0 1 3.53 2.43 7.22 7.22 0 0 1 1.18 4.55l-.08 2.74-.08 3.77.08 3.45c1.49.31 2.67.23 3.45-.08.78-.4 1.41-1.33 1.88-2.98.4-1.41.4-2.51.24-3.37a5.27 5.27 0 0 0-1.34-2.28c-.62-.7-1.1-1.17-1.25-1.49-.24-.23-.24-.78-.08-1.49.16-.62.47-1.1 1.02-1.49.55-.39 1.1-.47 1.72-.31a4.7 4.7 0 0 1 2.6 1.72c.78.94 1.25 2.2 1.48 3.85s.08 3.52-.47 5.72a18.03 18.03 0 0 1-2.27 5.57 5.49 5.49 0 0 1-3.53 2.27c-1.41.24-3.14.16-5.18-.4l-3.29-.85-3.06-.79c-1.1-.26-2.23-.37-3.37-.31a11 11 0 0 1-2.35 0c-.55-.16-1.02-.55-1.33-1.18s-.4-1.33-.24-2.04a2.5 2.5 0 0 1 1.26-1.49l2.58-1.02zm8.16 1.65l-.08-3.76.08-3.45a4.7 4.7 0 0 0-.47-1.96 2.36 2.36 0 0 0-1.73-1.26 2.98 2.98 0 0 0-2.43.4 3.38 3.38 0 0 0-1.49 2.27 6.35 6.35 0 0 0 1.33 5.72 8.62 8.62 0 0 0 4 1.8l.79.24zm7.37 14.5l-.24.63 3.22 1.18 2.04.78c.47.24.86.47 1.1.87.31.31.47.78.55 1.25.07.47.07.94-.16 1.5-.24.7-.7 1.17-1.41 1.56a2.5 2.5 0 0 1-1.5.23l-2.19-.62-3.68-1.34-.71 1.96a3.13 3.13 0 0 1-1.18 1.57c-.47.24-1.01.32-1.64.08-.7-.23-1.1-.7-1.18-1.41-.08-.7.08-1.57.47-2.59l.4-1.02-9.96-3.6-1.96-.63a2.2 2.2 0 0 0-1.26.08c-.4.15-.7.55-.86 1.1l-.32 1.33c-.03.45-.14.9-.31 1.33-.16.47-.47.78-.94 1.02s-.94.23-1.5.08c-.85-.32-1.32-1.02-1.48-2.12s.16-2.59.78-4.31 1.34-2.9 2.28-3.53a4.45 4.45 0 0 1 2.98-.86c1.1.08 2.5.47 4.15 1.02l10.35 3.76.24-.7c.31-.79.7-1.34 1.17-1.57.55-.24 1.1-.32 1.65-.08s.94.63 1.18 1.17c.31.32.23 1.02-.08 1.89zM1011.28 778l4.94-10.11a7.06 7.06 0 0 0-3.45-.78c-1.1 0-2.12.3-2.9.86a5.33 5.33 0 0 0-1.96 2.2 5.48 5.48 0 0 0-.63 1.8c-.08.55-.16 1.17-.08 1.8l.32 1.8.62 2.28c.08.39 0 .78-.23 1.33s-.63.86-1.1 1.1c-.47.15-.94.15-1.49-.08a3.6 3.6 0 0 1-1.33-1.33 6 6 0 0 1-.94-2.51c-.24-1.02-.24-2.2-.08-3.45.16-1.34.63-2.67 1.33-4.16 1.65-3.3 3.84-5.4 6.67-6.35s5.8-.55 9.01 1.02c1.5.78 2.83 1.65 3.92 2.74a9.57 9.57 0 0 1 2.9 7.84 13.34 13.34 0 0 1-1.33 4.63 11.13 11.13 0 0 1-3.84 4.55 9.75 9.75 0 0 1-4.86 1.65 9.1 9.1 0 0 1-4.63-.95c-1.33-.62-1.96-1.4-1.96-2.35 0-.94.4-2.2 1.1-3.53zm7.92-8.62l-4.63 9.33c1.8.7 3.37.94 4.63.55a4.7 4.7 0 0 0 2.9-2.59 4.7 4.7 0 0 0 .23-3.84 7.14 7.14 0 0 0-3.13-3.45zM607.54 701.4l10.98-17.1L603 698.9c-.87.78-1.65 1.25-2.51 1.25-.79 0-1.5-.31-2.12-.94a2.74 2.74 0 0 1-.78-2.12c.07-.78.54-1.56 1.4-2.43l17.88-16.62c1.02-.94 1.89-1.25 2.75-1.1.95.26 1.8.8 2.43 1.57l1.33 1.41a7.45 7.45 0 0 1 1.5 2.04c.23.55.23 1.1 0 1.65l-1.34 2.43-9.25 14.82 15.37-8.31c1.1-.63 1.96-1.02 2.5-1.18a2.35 2.35 0 0 1 1.65.08 6.5 6.5 0 0 1 1.96 1.65l1.33 1.4c.79.87 1.34 1.73 1.42 2.6.15.86-.32 1.72-1.26 2.66l-17.8 16.7c-.86.79-1.65 1.26-2.5 1.26a2.9 2.9 0 0 1-2.9-3.06c.07-.78.54-1.57 1.4-2.43L631 697.63l-17.72 9.88-2.6 1.34c-.6.27-1.28.38-1.95.31a3.63 3.63 0 0 1-2.12-1.17 4.45 4.45 0 0 1-.94-1.65c-.08-.55-.08-1.18.08-1.73s.39-1.1.7-1.56l1.1-1.65zm36.7 29.56a14.28 14.28 0 0 1-4 2.66 10.35 10.35 0 0 1-8.55-.15 11.84 11.84 0 0 1-3.84-2.9 12.48 12.48 0 0 1-2.59-4 10.2 10.2 0 0 1-.7-4.32c.08-1.49.47-2.9 1.1-4.23a14.58 14.58 0 0 1 6.9-6.5 10.2 10.2 0 0 1 8.46.15 14.27 14.27 0 0 1 6.51 6.82c.55 1.41.79 2.82.79 4.31a12.07 12.07 0 0 1-1.1 4.24 15.64 15.64 0 0 1-2.98 3.92zm-3.92-4.24c1.73-1.56 2.67-3.21 2.9-4.86a5.12 5.12 0 0 0-1.41-4.39 5.1 5.1 0 0 0-5.88-1.25 10.8 10.8 0 0 0-3.37 2.2c-1 .9-1.82 2-2.43 3.2-.48 1-.67 2.12-.55 3.22a5.38 5.38 0 0 0 1.4 2.83 4.94 4.94 0 0 0 4.32 1.64c1.65-.16 3.3-1.02 5.02-2.59zm16.78 5.5l-.47.46a9.92 9.92 0 0 1 4.4.4 9.95 9.95 0 0 1 3.52 2.35 8.4 8.4 0 0 1 2.04 3.6 6.42 6.42 0 0 1-.24 3.85 5.64 5.64 0 0 1-1.17 2.11l-2.12 2.28-7.76 7.29c-.86.78-1.65 1.17-2.43 1.17s-1.5-.31-2.04-.86a2.74 2.74 0 0 1-.79-2.11c.08-.79.55-1.57 1.34-2.36l6.98-6.58a10.34 10.34 0 0 0 2.66-3.53c.4-1.1 0-2.2-1.1-3.3a4.26 4.26 0 0 0-2.58-1.4 5.54 5.54 0 0 0-3.14.39c-.78.39-2.12 1.4-3.76 2.98l-5.26 4.94c-.86.78-1.64 1.17-2.43 1.17-.78 0-1.49-.31-2.04-.94-.55-.63-.78-1.33-.7-2.12s.55-1.56 1.33-2.35l12.07-11.37a3.76 3.76 0 0 1 2.28-1.17c.7 0 1.33.23 1.96.86.31.4.55.78.7 1.25.08.47.08.95-.07 1.42-.16.46-.63 1.1-1.18 1.56zm18.11 19.44l-12.07 11.37c-.87.78-1.65 1.17-2.43 1.17-.79 0-1.5-.31-2.04-.94a2.74 2.74 0 0 1-.79-2.11c.08-.79.55-1.57 1.34-2.36l12-11.29c.85-.78 1.64-1.17 2.42-1.17.79 0 1.5.31 2.04.94.55.63.86 1.33.79 2.12a3.54 3.54 0 0 1-1.26 2.27zm2.43-6.2a2.74 2.74 0 0 1 .08-4.07c.63-.55 1.26-.79 2.04-.7s1.41.38 1.96.93c.47.55.78 1.18.86 1.96s-.23 1.41-.94 2.04a2.5 2.5 0 0 1-2.12.79c-.7 0-1.33-.32-1.88-.95zm3.92 8.86l.47.47 2.51-2.35 1.65-1.4c.36-.31.8-.52 1.25-.64.47-.07.87-.07 1.34.08.47.16.9.43 1.25.79.47.55.79 1.17.79 2.04 0 .54-.16 1.01-.47 1.49a8.8 8.8 0 0 1-1.5 1.64l-2.82 2.67 1.41 1.57c.55.62.87 1.17.87 1.72s-.24 1.1-.63 1.5c-.55.54-1.18.7-1.8.46a6.61 6.61 0 0 1-2.12-1.57l-.7-.78-7.69 7.21-1.41 1.5c-.31.39-.47.78-.55 1.17 0 .4.16.86.55 1.25.23.24.55.55 1.1.87l1.02.86c.31.31.47.78.47 1.33s-.24.94-.63 1.33c-.7.63-1.57.79-2.59.32a11.5 11.5 0 0 1-3.53-2.67c-1.25-1.33-1.96-2.5-2.11-3.6s0-2.12.55-3.06 1.49-2.04 2.82-3.22l8.07-7.52-.54-.55c-.55-.63-.87-1.18-.87-1.8 0-.56.24-1.1.63-1.5.47-.39.94-.55 1.57-.55.62 0 1.02.32 1.64.94zm16.78 34.2a14.28 14.28 0 0 1-4 2.66 10.35 10.35 0 0 1-8.54-.16 11.84 11.84 0 0 1-3.85-2.9 12.46 12.46 0 0 1-2.58-4 10.2 10.2 0 0 1-.7-4.31c.07-1.5.46-2.9 1.09-4.24a14.58 14.58 0 0 1 6.9-6.5 10.2 10.2 0 0 1 8.47.15 14.27 14.27 0 0 1 6.5 6.82c.55 1.42.79 2.83.79 4.32a12.07 12.07 0 0 1-4.08 8.15zm-3.92-4.16c1.73-1.57 2.67-3.22 2.9-4.87a5.12 5.12 0 0 0-1.4-4.39 5.1 5.1 0 0 0-5.88-1.25c-1.18.47-2.28 1.18-3.38 2.2s-1.88 2.11-2.43 3.2-.7 2.2-.55 3.22a5.38 5.38 0 0 0 1.41 2.83 4.94 4.94 0 0 0 4.31 1.64c1.65-.15 3.3-1.02 5.02-2.59zm8.47 13.95l-3.53 3.3c-.86.78-1.64 1.17-2.5 1.17-.79 0-1.5-.31-2.05-.94a3.14 3.14 0 0 1-.78-2.12c.08-.78.55-1.56 1.33-2.35l11.69-10.98c1.88-1.8 3.45-1.96 4.7-.62.63.7.94 1.4.79 2.11s-.63 1.5-1.5 2.36c1.34-.32 2.44-.4 3.38-.32s1.8.63 2.66 1.5 1.41 1.95 1.73 3.2c.31 1.26.16 2.2-.55 2.9-.55.48-1.1.71-1.8.64-.63-.08-1.18-.24-1.57-.71l-.78-1.41a7.16 7.16 0 0 0-1.18-1.8 2.82 2.82 0 0 0-1.88-1.02c-.7-.08-1.41.07-2.28.47s-1.72.94-2.66 1.64l-3.22 2.98zm-260.8-6.58l-6.42 6.9c-.94 1.01-1.8 1.49-2.67 1.49-.86 0-1.72-.47-2.74-1.34l-17.02-15.76c-1.02-.94-1.49-1.8-1.56-2.66 0-.87.39-1.73 1.33-2.75l6.82-7.37a20.18 20.18 0 0 1 2.82-2.59 7.06 7.06 0 0 1 2.75-1.4 7.45 7.45 0 0 1 7.21 1.65c2.28 2.1 2.9 4.77 1.8 7.99 3.69-2.12 6.9-1.88 9.65.62a8.55 8.55 0 0 1 2.35 8.86 12.2 12.2 0 0 1-1.57 2.98 40.63 40.63 0 0 1-2.74 3.38zm-23.9-12.7l5.88 5.4 3.92-4.23a9.61 9.61 0 0 0 2.11-2.98c.4-.86.4-1.65.08-2.59a3.43 3.43 0 0 0-1.1-1.72c-1.17-1.1-2.27-1.34-3.37-.87-1.1.47-2.43 1.57-4 3.22l-3.53 3.76zm13.56 3.68l-4.4 4.78 6.6 6.12 4.54-4.94c2.9-3.14 3.22-5.73.94-7.77-1.17-1.1-2.35-1.4-3.6-1.1a9.4 9.4 0 0 0-4.08 2.9zm30.34-16.62l-.55-.47c.16 1.1.24 2.11.16 3.05a8.31 8.31 0 0 1-2.5 5.34 7.96 7.96 0 0 1-3.14 2.11c-1.1.4-2.36.47-3.45.24-1.42-.32-2.9-1.26-4.63-2.83l-8.39-7.76c-.86-.78-1.33-1.57-1.33-2.35s.15-1.49.78-2.12c.63-.62 1.26-.94 2.04-.94s1.57.4 2.43 1.18l6.74 6.27c.94.94 1.89 1.57 2.67 2.04.7.43 1.53.62 2.35.55a3.6 3.6 0 0 0 2.2-1.18 5.02 5.02 0 0 0 .86-5.49c-.4-.78-1.57-2.11-3.6-4l-5.1-4.78c-.87-.78-1.26-1.57-1.34-2.35s.24-1.49.79-2.12 1.25-.94 2.03-.94 1.57.4 2.44 1.18L465.78 762c.78.7 1.25 1.49 1.33 2.2.08.72-.18 1.45-.7 1.95-.55.55-1.18.87-1.97.87-.86.15-1.56-.24-2.35-.94zm-7.21-25.8c-.5.57-1.2.93-1.96 1.02-.78.08-1.41-.16-2.12-.79a2.59 2.59 0 0 1-.86-2.03c.01-.76.29-1.48.78-2.04a2.74 2.74 0 0 1 4-.16c1.15 1 1.27 2.73.28 3.87l-.12.13zm6.27 1.96l12.16 11.29c.86.78 1.33 1.57 1.33 2.35a2.5 2.5 0 0 1-.78 2.12c-.5.6-1.26.93-2.04.86-.79 0-1.65-.4-2.43-1.18l-12.08-11.2c-.86-.8-1.25-1.58-1.33-2.36s.15-1.49.78-2.12a2.64 2.64 0 0 1 2.04-.94c.86.16 1.65.47 2.35 1.18zm16.23 6.98l-18.27-16.94c-.86-.78-1.33-1.57-1.4-2.35s.15-1.5.78-2.12 1.25-.94 2.03-.94 1.65.4 2.44 1.18l18.27 16.93c.86.79 1.33 1.57 1.4 2.36s-.23 1.49-.78 2.11c-.49.61-1.26.93-2.04.86-.78 0-1.56-.39-2.43-1.1zm18.82-20l-.39-.39c.16 1.18.16 2.2 0 3.14a7.84 7.84 0 0 1-.7 2.66c-.4.86-.95 1.65-1.65 2.43a8.7 8.7 0 0 1-7.14 2.75 10.4 10.4 0 0 1-4.15-1.18 17.83 17.83 0 0 1-3.93-2.74 12.47 12.47 0 0 1-4.39-7.6 8.62 8.62 0 0 1 2.51-7.14 9.91 9.91 0 0 1 3.45-2.51 9.88 9.88 0 0 1 4.16-.63l-6.2-5.8a4.4 4.4 0 0 1-1.49-2.35c-.15-.79.08-1.5.71-2.12.63-.63 1.26-.94 1.96-.94s1.5.4 2.27 1.18l18.59 17.25c.78.7 1.25 1.49 1.25 2.19s-.15 1.41-.7 1.96c-.55.55-1.18.86-1.96.86-.63.08-1.41-.31-2.2-1.02zm-13.88 2.51a9.4 9.4 0 0 0 3.45 2.2c1 .38 2.1.46 3.14.23a4.9 4.9 0 0 0 2.5-1.49 5.1 5.1 0 0 0 .95-5.72 9.21 9.21 0 0 0-2.51-3.3 10.01 10.01 0 0 0-3.37-2.11 5.7 5.7 0 0 0-3.22-.24c-1.02.24-1.88.7-2.5 1.5-.71.78-1.1 1.64-1.26 2.66a5.69 5.69 0 0 0 .55 3.14 7.62 7.62 0 0 0 2.27 3.13zM97.41 743.82l4.08 5.49 18.03-13.25c1.02-.79 1.96-1.1 2.82-1.02.86.07 1.57.47 2.04 1.25.55.79.7 1.57.55 2.35-.16.87-.78 1.65-1.8 2.43l-18.04 13.26 4.08 5.48c.63.87.94 1.65.86 2.36-.06.7-.44 1.33-1.02 1.72-.62.47-1.33.63-2.03.47-.71-.16-1.34-.63-1.96-1.49l-11.77-16c-.62-.86-.94-1.64-.86-2.35.07-.7.44-1.33 1.02-1.72a2.27 2.27 0 0 1 1.96-.47c.7.15 1.41.62 2.04 1.49zm4-27.76l4.62 10.27a7.88 7.88 0 0 0 2.83-2.12c.7-.86 1.1-1.8 1.17-2.82a6.28 6.28 0 0 0-2.82-5.72l-1.65-.86-2.2-.94c-.3-.16-.62-.47-.86-1.02s-.31-1.02-.15-1.5c.15-.46.47-.78 1.02-1.1a2.9 2.9 0 0 1 1.88-.15c.78.08 1.65.4 2.59.86.94.47 1.8 1.18 2.74 2.2.86.94 1.65 2.2 2.35 3.6 1.5 3.38 1.73 6.43.7 9.18a12 12 0 0 1-6.5 6.35c-1.57.7-3.06 1.1-4.63 1.25a9.8 9.8 0 0 1-8-2.74 12.82 12.82 0 0 1-2.66-3.92c-.94-2.04-1.25-4-1.1-5.88a8.38 8.38 0 0 1 1.88-4.78 9.57 9.57 0 0 1 3.69-2.98c1.33-.63 2.35-.63 3.06 0 .7.62 1.4 1.4 2.04 2.82zm1.64 11.53l-4.31-9.5a7.22 7.22 0 0 0-3.37 3.3 4.6 4.6 0 0 0 .15 3.92 4.4 4.4 0 0 0 2.83 2.59c1.56.44 3.22.33 4.7-.31zm-5.4-39.92a6.94 6.94 0 0 1 4.23.47 7.37 7.37 0 0 1 3.13 2.9 15.3 15.3 0 0 1 1.8 5.26c.32 2.04.32 3.84 0 5.41a7.46 7.46 0 0 1-1.8 3.6c-.7.8-1.63 1.32-2.66 1.5-.6.1-1.23-.05-1.73-.4a2.12 2.12 0 0 1-.94-1.56c-.08-.63 0-1.1.24-1.41l1.1-1.1a5.6 5.6 0 0 0 1.88-2.51c.39-.86.39-2.04.15-3.45a5.32 5.32 0 0 0-1.25-2.67c-.63-.62-1.26-.86-1.96-.78-1.02.16-1.65.7-1.96 1.49-.32.78-.55 2.12-.63 3.92-.16 2.04-.4 3.68-.7 5.02s-.87 2.43-1.57 3.3c-.78.9-1.87 1.48-3.06 1.64-1.1.23-2.27.08-3.37-.47a6.47 6.47 0 0 1-2.9-2.59 12.4 12.4 0 0 1-1.73-4.63c-.23-1.49-.31-2.82-.23-4a8.8 8.8 0 0 1 .7-3.13c.34-.79.82-1.5 1.41-2.12.55-.55 1.1-.86 1.73-.94.63-.08 1.25 0 1.72.4s.79.93.94 1.72c.08.55 0 1.1-.23 1.57s-.7 1.02-1.26 1.64c-.47.55-.86 1.1-1.1 1.73a4.94 4.94 0 0 0-.07 2.43c.12.9.5 1.74 1.1 2.43.55.63 1.17.86 1.8.7.63-.07 1.02-.46 1.33-1.01s.47-1.26.63-2.2l.31-3.6c.16-1.8.4-3.38.79-4.55a6.9 6.9 0 0 1 1.64-2.9 4.95 4.95 0 0 1 2.51-1.1zm-15.14-5.72v-.63l-3.45-.15-2.2-.16a3.35 3.35 0 0 1-1.33-.47c-.4-.24-.73-.6-.94-1.02a2.9 2.9 0 0 1 .55-3.37c.4-.4.86-.63 1.33-.7l2.28-.09 3.92.16.08-2.11c0-.79.23-1.42.62-1.8.4-.4.94-.63 1.5-.56.78 0 1.33.4 1.56 1.02.32.63.4 1.5.4 2.67l-.08 1.1 10.58.39h2.04c.47 0 .86-.24 1.18-.47.3-.24.47-.7.47-1.33 0-.32 0-.79-.16-1.42l-.16-1.33c0-.47.24-.86.63-1.25.36-.39.89-.56 1.4-.47.95 0 1.66.55 2.05 1.56.47 1.02.63 2.51.55 4.4-.08 1.8-.4 3.13-1.1 4.07a3.92 3.92 0 0 1-2.59 1.73c-1.1.23-2.5.31-4.31.23l-11.06-.47v.79c0 .86-.23 1.49-.62 1.88s-.95.63-1.5.63c-.62 0-1.1-.24-1.48-.71l-.16-2.12zM465.7 512.9l1.65 1.49 6.66-7.3c.86-.93 1.73-1.48 2.59-1.56s1.57.23 2.27.86c.71.7 1.1 1.41 1.1 2.28 0 .86-.47 1.72-1.33 2.66l-16 17.57c-.94 1.01-1.8 1.49-2.66 1.56-.87.08-1.8-.39-2.75-1.33l-7.52-6.82c-.9-.8-1.74-1.67-2.51-2.59a9.8 9.8 0 0 1-1.5-2.35c-.46-.95-.7-2-.7-3.06 0-2.15.8-4.23 2.27-5.8a7.72 7.72 0 0 1 5.18-2.75c1.88-.15 4 .47 6.35 1.8-.4-1.17-.63-2.5-.63-4.07s.16-3.06.47-4.55c.26-1.3.6-2.58 1.02-3.84.4-1.1.7-1.72.94-2.04.32-.31.63-.55 1.1-.63.47-.15.94-.07 1.41 0s.94.4 1.41.79c.55.47.87 1.02.95 1.57.15.55.15 1.17.07 1.72l-.47 2.59-.94 4.78c-.39 1.73-.55 3.14-.55 4.24s.16 1.96.47 2.66c.32.63.87 1.41 1.65 2.12zm-11.37 7.21l4.24 3.92 5.72-6.27-4.16-3.76c-.9-.9-1.94-1.66-3.06-2.28a4.94 4.94 0 0 0-2.66-.63c-.79.08-1.57.55-2.35 1.34a3.83 3.83 0 0 0-1.02 2.12c-.16.78 0 1.56.31 2.27.47.7 1.41 1.8 2.98 3.3zm-12.62-36.22l7.6 8.3c.9-.8 1.6-1.78 2.04-2.9.4-1.01.47-2.03.32-3.05a5.88 5.88 0 0 0-1.34-2.59c-.47-.47-.94-.94-1.49-1.25a7.92 7.92 0 0 0-3.45-1.02l-2.35-.24a1.57 1.57 0 0 1-1.1-.7c-.39-.48-.62-.87-.62-1.42 0-.47.23-.94.62-1.33.4-.31.94-.63 1.73-.78.78-.16 1.72-.16 2.74 0s2.12.55 3.3 1.17c1.17.63 2.27 1.57 3.37 2.75 2.5 2.74 3.68 5.56 3.45 8.46a11.76 11.76 0 0 1-4.24 8.08 14.28 14.28 0 0 1-4 2.67c-1.4.62-2.82.94-4.23.86s-2.82-.4-4.16-1.02a13.1 13.1 0 0 1-6.58-8.15 9.64 9.64 0 0 1 2.82-9.18c1.1-.94 2.04-1.33 2.9-1.02.7.55 1.65 1.26 2.67 2.36zm5.17 10.5l-7.05-7.68c-1.34 1.41-2.12 2.82-2.2 4.16s.4 2.58 1.41 3.68c.94 1.02 2.12 1.57 3.45 1.57s2.82-.55 4.4-1.73zm-20.62-34.34a7.29 7.29 0 0 1 3.92-1.57c1.33-.08 2.74.32 4.16 1.18s2.74 2.12 4 3.84c1.25 1.65 2.04 3.22 2.43 4.78s.39 2.9.08 4a4.94 4.94 0 0 1-1.65 2.6c-.47.38-1.1.54-1.73.46a2.22 2.22 0 0 1-1.57-.94c-.39-.47-.54-.94-.47-1.41.08-.47.16-.94.4-1.5.47-1.09.62-2.1.55-3.05s-.55-2.04-1.42-3.13a5.02 5.02 0 0 0-2.35-1.8c-.86-.32-1.57-.24-2.04.15-.78.63-1.17 1.33-1.1 2.27.08.87.48 2.2 1.26 3.85.78 1.88 1.41 3.45 1.73 4.78s.39 2.5.07 3.68a4.94 4.94 0 0 1-1.88 2.9 5.72 5.72 0 0 1-3.21 1.18 6.73 6.73 0 0 1-3.77-.94 14.66 14.66 0 0 1-5.72-6.74c-.47-1.1-.7-2.2-.79-3.14-.07-.94 0-1.8.32-2.5.23-.71.63-1.26 1.1-1.66.49-.37 1.1-.54 1.72-.47.63.08 1.18.47 1.65 1.1.4.47.55.94.55 1.5s-.16 1.25-.32 2.03c-.15.7-.23 1.33-.15 2.04s.47 1.41 1.02 2.2c.5.76 1.24 1.34 2.11 1.64.79.32 1.41.24 1.96-.15.47-.4.7-.87.7-1.5 0-.62-.15-1.33-.46-2.19l-1.41-3.37a21.5 21.5 0 0 1-1.41-4.4 6.88 6.88 0 0 1 .15-3.36c.16-.87.7-1.65 1.57-2.36zm-13.49-16.23l5.88 9.64a7.45 7.45 0 0 0 2.51-2.43c.54-.87.84-1.87.86-2.9 0-1.02-.3-1.88-.78-2.82l-1.17-1.5-1.5-1.01c-.54-.31-1.17-.47-1.72-.7l-2.27-.63c-.4-.16-.71-.4-1.02-.87a2.08 2.08 0 0 1-.32-1.49c.08-.47.4-.86.87-1.17.47-.24 1.1-.4 1.88-.4s1.72.16 2.66.55c2.46 1 4.5 2.83 5.73 5.18 1.8 2.64 2.45 5.9 1.8 9.02a11.77 11.77 0 0 1-5.72 7.05 14.49 14.49 0 0 1-4.47 1.8c-1.5.32-2.98.32-4.32.09a9.34 9.34 0 0 1-3.92-1.8c-1.26-1-2.32-2.23-3.13-3.62a10.82 10.82 0 0 1-1.8-5.64 9.72 9.72 0 0 1 4.54-8.47c1.26-.78 2.28-.86 3.06-.4.78.4 1.57 1.26 2.35 2.52zm3.06 11.3l-5.4-8.95c-1.58 1.18-2.6 2.35-2.99 3.69a4.56 4.56 0 0 0 .63 3.84 4.7 4.7 0 0 0 3.13 2.27c1.34.32 2.9 0 4.63-.86zm-7.3-36.08c1.58.86 2.83 1.73 3.85 2.75 1.02.94 1.88 2.2 2.51 3.68.63 1.33.86 2.67.78 3.92s-.47 2.35-1.1 3.3a6.72 6.72 0 0 1-2.58 2.11c-1.41.63-2.9.7-4.32.24a7.44 7.44 0 0 1-3.68-2.83l-1.65-2.27-2.27-3.06c-.7-.94-1.43-1.85-2.2-2.74-1.33.7-2.27 1.4-2.66 2.2s-.32 1.95.39 3.52a7.45 7.45 0 0 0 1.88 2.75c.7.47 1.5.86 2.43 1.01l1.96.4c.32.07.63.47.94 1.1.24.62.32 1.17.08 1.8a1.73 1.73 0 0 1-1.17 1.25c-.95.4-1.96.47-3.14.24a7.06 7.06 0 0 1-3.53-2.12 16.3 16.3 0 0 1-3.13-4.78c-1.02-2.28-1.57-4.24-1.57-5.8a5.49 5.49 0 0 1 1.33-3.93 11.75 11.75 0 0 1 4.31-2.9l3.14-1.4 2.9-1.26a10.77 10.77 0 0 0 2.9-1.88l1.88-1.42a2.1 2.1 0 0 1 1.8.08c.71.32 1.18.79 1.42 1.41.23.55.23 1.18-.08 1.96-.24.79-.7 1.65-1.41 2.67zm-7.44 3.77c.63.62 1.41 1.64 2.35 2.98.65.93 1.33 1.85 2.04 2.74.4.47.94.94 1.57 1.26.63.3 1.33.3 2.12 0s1.33-.95 1.64-1.8c.32-.87.24-1.73-.23-2.75a7.06 7.06 0 0 0-1.96-2.59 4.78 4.78 0 0 0-2.59-1.18c-1.02-.15-2.43.24-4.23 1.02l-.71.32zm-2.74-17.57l4.62-1.33c1.1-.32 2.04-.32 2.75.08.7.39 1.17.94 1.4 1.72a2.4 2.4 0 0 1-.3 2.2c-.4.7-1.18 1.17-2.28 1.49l-15.37 4.47c-2.5.7-4 .15-4.47-1.65-.23-.94-.15-1.65.32-2.2a5.48 5.48 0 0 1 2.35-1.4 10.83 10.83 0 0 1-3.14-1.26c-.78-.55-1.33-1.34-1.65-2.51s-.39-2.35-.07-3.6c.23-1.26.86-2.05 1.8-2.28.7-.16 1.33-.16 1.88.23.52.3.92.77 1.1 1.34l.08 1.56c0 .87.08 1.57.23 2.2.24.78.63 1.41 1.18 1.8.68.44 1.47.66 2.27.63.94.08 1.96-.08 3.14-.32l4.16-1.17zm-4.94-32.3c.7-.08 1.49 0 2.35.31s1.72.86 2.59 1.65 1.56 1.8 2.2 3.06 1.01 2.74 1.25 4.39c.47 3.53-.16 6.43-1.96 8.7a11.44 11.44 0 0 1-7.84 4.08c-2.36.31-4.47.16-6.36-.47a10.09 10.09 0 0 1-4.7-3.37c-1.26-1.57-1.96-3.53-2.35-5.96-.24-1.5-.16-2.83.08-4.16.23-1.25.7-2.43 1.25-3.37a7.84 7.84 0 0 1 1.88-2.28 4.3 4.3 0 0 1 2.04-.94c.7-.07 1.26.08 1.8.55.55.47.87 1.02.95 1.73.07.47 0 .86-.24 1.25l-1.02 1.26a8.22 8.22 0 0 0-2.04 2.5c-.39.87-.55 1.81-.39 2.99.23 1.64 1.1 2.98 2.5 3.76s3.3 1.1 5.58.79c1.1-.16 2.03-.4 2.9-.79.86-.4 1.57-.86 2.11-1.49a5.33 5.33 0 0 0 1.34-4.47 5.18 5.18 0 0 0-1.18-2.82 7.26 7.26 0 0 0-2.74-1.8 4.14 4.14 0 0 1-1.65-.94c-.42-.37-.7-.87-.78-1.42a2.1 2.1 0 0 1 .55-1.8 5.2 5.2 0 0 1 1.88-.94zm-21.18-10.35l8.55.39c-.7-.67-1.32-1.4-1.88-2.2a7.93 7.93 0 0 1-1.25-5.1 8.47 8.47 0 0 1 1.1-3.83 6.27 6.27 0 0 1 2.82-2.51 5.9 5.9 0 0 1 2.35-.71c.86-.08 1.8-.16 2.98-.08l10.98.47c1.17.08 2.03.4 2.58.94s.87 1.26.79 2.12c-.08 1.88-1.34 2.82-3.61 2.67l-9.72-.47c-1.8-.08-3.3.15-4.32.62-1.02.47-1.56 1.5-1.64 3.06a4.55 4.55 0 0 0 .78 2.82 5.48 5.48 0 0 0 2.27 1.96c.87.32 2.36.55 4.55.71l7.6.31c1.1.08 1.97.32 2.6.87.55.55.86 1.25.78 2.2-.08 1.87-1.33 2.82-3.6 2.66L372 368.3c-1.18-.08-2.04-.31-2.59-.86s-.78-1.26-.78-2.12c.08-.94.39-1.65 1.02-2.12.55-.47 1.49-.7 2.59-.62zm77.4-167.17l5.48 6.9 10.59-8.4-5.49-6.9c-.78-1.01-1.18-1.88-1.1-2.74.08-.86.47-1.57 1.18-2.12.7-.54 1.49-.78 2.35-.7.86.16 1.65.7 2.43 1.72l15.06 19.06c.78 1.02 1.17 1.96 1.1 2.82a2.92 2.92 0 0 1-1.18 2.12c-.7.55-1.5.78-2.35.62s-1.65-.7-2.43-1.72l-6.43-8.15-10.59 8.39 6.43 8.15c.78 1.02 1.18 1.96 1.1 2.82s-.47 1.57-1.18 2.12c-.7.55-1.49.78-2.35.63s-1.65-.7-2.43-1.73l-15.05-19.05c-.79-1.02-1.18-1.88-1.1-2.75.08-.86.47-1.56 1.17-2.11.7-.55 1.57-.79 2.36-.7.86.15 1.64.7 2.43 1.72zm42.34 5.56l-.16-1.4-14.66-12.4a7.84 7.84 0 0 1-1.65-1.64c-.23-.47-.31-.87-.31-1.41s.15-.95.47-1.42c.31-.47.62-.78 1.02-1.02.7-.39 1.4-.47 2.04-.15.62.23 1.33.78 2.03 1.49l10.98 10.2-2.12-13.8-.31-2.68c0-.7.08-1.17.23-1.49s.55-.62 1.1-.94c.4-.23.79-.31 1.26-.31s.86.16 1.25.4c.4.23.7.54.87.93l.31 1.1.31 1.57 2.6 20.86c.23 1.8.3 3.29.23 4.47a6.27 6.27 0 0 1-1.1 3.13c-.63.94-1.73 1.8-3.3 2.67-1.48.78-2.66 1.25-3.6 1.33-.94.08-1.57-.31-2.04-1.18-.31-.54-.4-1.1-.16-1.64.16-.47.63-.94 1.34-1.34l.86-.31.86-.31a3.4 3.4 0 0 0 1.26-1.02c.23-.32.39-.79.39-1.41v-2.28zm13.17-29.16l.24.62c.62-1.57 1.33-2.9 2.27-3.84a9.4 9.4 0 0 1 13.17.31 13.95 13.95 0 0 1 3.22 5.5c.55 1.64.86 3.29.86 4.85a9.8 9.8 0 0 1-2.98 7.3 8.5 8.5 0 0 1-3.37 1.96 8.12 8.12 0 0 1-4.24.39 11.35 11.35 0 0 1-3.92-1.73l2.75 8.16c.78 2.43.31 3.92-1.41 4.47-1.02.31-1.8.23-2.36-.24a5.72 5.72 0 0 1-1.4-2.5l-7.85-23.53c-.31-1.02-.39-1.88-.08-2.59s.79-1.1 1.57-1.4c.79-.24 1.5-.24 2.12.15.63.47 1.1 1.17 1.41 2.12zm13.33 4.39a9.62 9.62 0 0 0-1.88-3.45c-.79-.87-1.65-1.5-2.59-1.8s-1.88-.32-2.9 0a4.98 4.98 0 0 0-3.22 3.05c-.62 1.57-.54 3.45.24 5.73a7.84 7.84 0 0 0 3.21 4.54 5.18 5.18 0 0 0 4.4.55c.9-.3 1.7-.88 2.27-1.65.63-.78.94-1.8 1.1-2.98.08-1.17-.16-2.5-.63-4zm32.07-5.73c.23 1.73.16 3.3-.16 4.79s-.94 2.82-1.8 4a9.57 9.57 0 0 1-3.3 2.82 13.5 13.5 0 0 1-9.32 1.25 11.35 11.35 0 0 1-3.92-1.88 9.89 9.89 0 0 1-2.83-3.37 14.04 14.04 0 0 1-1.25-9.41c.31-1.5.94-2.82 1.8-4s1.96-2.12 3.3-2.82a13.49 13.49 0 0 1 9.33-1.34 10.7 10.7 0 0 1 3.92 1.89c1.17.86 2.03 2.03 2.82 3.37.7 1.49 1.17 3.06 1.41 4.7zm-5.72.79c-.32-2.36-1.1-4.08-2.28-5.26a4.97 4.97 0 0 0-4.39-1.4c-1.1.15-2.04.54-2.82 1.25s-1.33 1.64-1.65 2.82a9.6 9.6 0 0 0-.16 4c.24 1.49.63 2.74 1.18 3.84a5.72 5.72 0 0 0 2.27 2.27c.95.47 1.96.63 3.06.47a5.1 5.1 0 0 0 3.84-2.5c1.02-1.34 1.26-3.14.95-5.5zm11.2-11.77h.64v-3.45l.07-2.2c.08-.54.16-.93.4-1.32a2.67 2.67 0 0 1 2.35-1.34c.7 0 1.4.32 1.96.87.39.39.62.78.7 1.33l.16 2.27v3.92h2.12c.78 0 1.4.24 1.88.63s.63.86.63 1.5c0 .78-.32 1.32-.94 1.64-.63.31-1.5.47-2.6.47h-1.09l-.08 10.58.08 2.04c.08.47.23.87.47 1.18.23.31.7.47 1.33.47l1.34-.16 1.33-.16c.47 0 .86.16 1.25.55.4.4.55.87.55 1.41 0 .94-.55 1.65-1.57 2.12s-2.43.7-4.39.7c-1.8 0-3.13-.3-4.07-.93a4.47 4.47 0 0 1-1.8-2.51 16.45 16.45 0 0 1-.4-4.32l.08-11.05h-.78c-.87 0-1.5-.24-1.89-.63-.47-.4-.62-.86-.62-1.49s.23-1.1.7-1.49a3.6 3.6 0 0 1 2.2-.63zm23.45-4.3l-1.25 8.46a13.3 13.3 0 0 1 2.43-1.65c.78-.39 1.57-.62 2.43-.78.86-.16 1.8-.08 2.74 0 1.42.23 2.67.7 3.69 1.49 1.02.78 1.8 1.8 2.27 3.06.32.7.47 1.57.47 2.43l-.23 2.9-1.57 10.9c-.16 1.17-.55 1.96-1.18 2.43-.62.47-1.33.7-2.2.55-1.87-.32-2.66-1.57-2.27-3.84l1.42-9.57a9.4 9.4 0 0 0-.16-4.31c-.4-1.1-1.33-1.73-2.9-1.96-1-.16-2.01 0-2.9.47a5.64 5.64 0 0 0-2.2 2.11c-.39.79-.78 2.28-1.1 4.47l-1.1 7.53c-.15 1.1-.54 1.96-1.17 2.43-.63.55-1.33.7-2.27.55-1.89-.31-2.67-1.57-2.28-3.84l3.6-24.7a4.16 4.16 0 0 1 1.1-2.51c.56-.47 1.34-.7 2.2-.55.94.16 1.57.55 1.96 1.18.47.7.63 1.57.47 2.74zm33.1 26.26l-10.75-3.37a6.88 6.88 0 0 0-.23 3.52c.23 1.1.62 2.04 1.25 2.75.63.7 1.5 1.25 2.43 1.57.63.23 1.26.31 1.88.31.61 0 1.22-.08 1.8-.23l1.73-.63 2.12-1.02c.4-.16.78-.16 1.33 0s.94.47 1.26.86c.31.4.31.94.07 1.5a4.42 4.42 0 0 1-1.1 1.56 6.84 6.84 0 0 1-2.35 1.33c-.94.4-2.11.55-3.45.63a12.7 12.7 0 0 1-4.3-.7 11.6 11.6 0 0 1-7.3-5.57 11.6 11.6 0 0 1-.4-9.1 13.03 13.03 0 0 1 2.12-4.31 10.18 10.18 0 0 1 3.22-2.9 10.3 10.3 0 0 1 4.16-1.26 13 13 0 0 1 4.78.63c2.12.7 3.84 1.73 5.1 3.06a9.4 9.4 0 0 1 2.11 9.25c-.39 1.41-1.1 2.12-2.04 2.35-.78.4-1.96.24-3.45-.23zm-9.73-6.43l9.96 3.14c.47-1.89.39-3.45-.24-4.7a4.97 4.97 0 0 0-3.05-2.52 4.7 4.7 0 0 0-3.85.4c-1.3.9-2.3 2.18-2.82 3.68zm34.74 20.07a6.96 6.96 0 0 1-2.75 3.22 7.3 7.3 0 0 1-4.16.94 15.26 15.26 0 0 1-5.33-1.5 14.04 14.04 0 0 1-4.47-3.05 7.29 7.29 0 0 1-1.96-3.53 4.93 4.93 0 0 1 .24-3.05c.25-.54.7-.96 1.25-1.18a2.35 2.35 0 0 1 1.8.08c.56.23.95.55 1.1 1.02.16.39.32.94.32 1.49.08 1.17.47 2.2.94 2.98a6.67 6.67 0 0 0 2.74 2.11c1.02.47 2.04.63 2.9.47s1.5-.55 1.73-1.17c.4-.94.4-1.73-.16-2.51-.47-.7-1.49-1.65-2.9-2.75a34.53 34.53 0 0 1-3.76-3.45c-.87-.9-1.49-2-1.8-3.21a5.3 5.3 0 0 1 .3-3.45 5.8 5.8 0 0 1 2.28-2.51c1.02-.63 2.35-.94 3.77-.94s3.05.4 4.78 1.18c1.33.62 2.5 1.33 3.45 2.11s1.65 1.57 2.2 2.35c.54.79.78 1.57.94 2.36.07.78.07 1.4-.24 1.96-.23.62-.7 1.02-1.25 1.17s-1.26.16-1.96-.23c-.51-.22-.93-.6-1.18-1.1a7.2 7.2 0 0 1-.63-1.96 5.17 5.17 0 0 0-.86-1.88 5.1 5.1 0 0 0-1.96-1.5 4.15 4.15 0 0 0-2.67-.46c-.86.15-1.33.47-1.64 1.1-.24.54-.24 1.1.08 1.64.4.65.9 1.24 1.49 1.73a73.26 73.26 0 0 1 6.11 5.56c.68.89 1.16 1.9 1.41 2.98.35.98.29 2.05-.15 2.98zm15.28-5.8l-8.07 14.5c-.4.86-1.1 1.53-1.96 1.89a2.9 2.9 0 0 1-2.28-.24 2.59 2.59 0 0 1-1.33-1.8c-.14-.93.05-1.87.55-2.67l8-14.34c.55-1.02 1.18-1.65 1.96-1.89.7-.23 1.49-.15 2.2.24.7.39 1.17 1.02 1.4 1.8.16.78 0 1.65-.47 2.51zm.4-6.59a2.9 2.9 0 0 1-1.41-1.64c-.24-.7-.16-1.5.23-2.28.4-.7.94-1.17 1.73-1.33s1.49-.08 2.2.31c.62.4 1.09.87 1.4 1.57.24.7.16 1.41-.23 2.28a2.54 2.54 0 0 1-1.73 1.4c-.7.16-1.49.09-2.2-.3zm14.19 30.58c-.86 1.34-1.96 2.28-3.21 2.83s-2.67.62-4.24.31c-1.57-.31-3.3-1.1-5.1-2.27a12.75 12.75 0 0 1-3.92-3.69 7.2 7.2 0 0 1-1.4-3.76c-.08-1.18.15-2.2.7-2.98.32-.51.83-.87 1.41-1.02.63-.16 1.25 0 1.8.4.47.3.79.7.94 1.09.08.4.16.94.08 1.57a5.5 5.5 0 0 0 .55 3.06 5.99 5.99 0 0 0 2.43 2.43c.94.62 1.88.94 2.83.86.86 0 1.49-.31 1.88-.86.55-.87.62-1.65.23-2.51a13 13 0 0 0-2.43-3.14 35.84 35.84 0 0 1-3.21-3.92c-.79-1.1-1.18-2.27-1.34-3.45s.16-2.27.86-3.37a5.71 5.71 0 0 1 2.67-2.2c1.24-.5 2.6-.63 3.92-.39a14.9 14.9 0 0 1 7.69 4.47 10 10 0 0 1 1.8 2.67c.4.86.55 1.64.55 2.43s-.16 1.4-.47 1.88c-.4.55-.86.86-1.41 1.02-.69.06-1.38-.1-1.96-.47a2.7 2.7 0 0 1-1.02-1.26 9.37 9.37 0 0 1-.4-2.04 5.6 5.6 0 0 0-.54-1.96c-.41-.72-1-1.31-1.73-1.72-.86-.55-1.72-.86-2.5-.86s-1.42.23-1.81.78c-.31.47-.4 1.1-.16 1.65.28.69.68 1.33 1.18 1.88l2.43 2.74a20.17 20.17 0 0 1 2.82 3.69c.63 1.1.94 2.2 1.02 3.21a7.09 7.09 0 0 1-.94 2.9zm65.86 64.3l-2.03-5.33-8.16 3.13c-1.18.47-2.2.55-2.98.16a2.89 2.89 0 0 1-1.73-1.72 2.9 2.9 0 0 1 .08-2.44c.4-.78 1.18-1.33 2.35-1.8l22.2-8.54c1.25-.48 2.35-.55 3.05-.16.79.39 1.41 1.17 1.88 2.5l2.9 7.53c.87 2.2 1.34 4 1.5 5.34s0 2.5-.47 3.68c-.4 1.18-1.1 2.2-2.04 3.06s-2.12 1.57-3.45 2.12c-2.9 1.1-5.5 1.1-7.69-.16a13.48 13.48 0 0 1-5.4-7.37zm12.63-6.43l-1.5-3.92-8.77 3.37 1.49 3.92c.54 1.41 1.1 2.51 1.72 3.3a4.6 4.6 0 0 0 2.2 1.56c.86.24 1.8.16 2.82-.23a4.47 4.47 0 0 0 2.67-2.35c.62-1.18.39-3.06-.63-5.65zm-9.88 29.01l-4.63 1.18c-1.1.31-2.04.23-2.74-.16a2.59 2.59 0 0 1-1.33-1.8 2.67 2.67 0 0 1 .31-2.2 3.92 3.92 0 0 1 2.35-1.4l15.53-4c2.5-.63 4-.09 4.47 1.72.23.94.07 1.65-.4 2.2a4.72 4.72 0 0 1-2.43 1.33c1.34.39 2.35.86 3.14 1.4a3.92 3.92 0 0 1 1.57 2.6 7.07 7.07 0 0 1 0 3.6c-.32 1.26-.94 2.04-1.89 2.28-.7.15-1.33.07-1.88-.24-.55-.4-.94-.78-1.02-1.33v-1.57c.08-.86 0-1.57-.15-2.2-.24-.78-.63-1.4-1.18-1.8s-1.33-.62-2.2-.7c-.94-.08-1.95 0-3.13.15l-4.4.94zm9.33 32.07c-1.73.24-3.3.24-4.78-.08a10.2 10.2 0 0 1-6.9-4.94c-.79-1.33-1.26-2.82-1.5-4.54s-.23-3.3.16-4.79a9.13 9.13 0 0 1 1.89-3.92 9.58 9.58 0 0 1 3.29-2.82 14.34 14.34 0 0 1 9.4-1.41 10.2 10.2 0 0 1 6.9 4.94c.8 1.33 1.26 2.82 1.5 4.55s.23 3.29-.16 4.78a9.5 9.5 0 0 1-1.8 3.92 9.58 9.58 0 0 1-3.3 2.82 16.6 16.6 0 0 1-4.7 1.5zm-.86-5.72c2.35-.32 4.07-1.1 5.17-2.35a5.24 5.24 0 0 0 1.33-4.4 5.25 5.25 0 0 0-1.33-2.82 5.49 5.49 0 0 0-2.82-1.57 10 10 0 0 0-4.08-.07c-1.32.16-2.6.59-3.76 1.25a5.24 5.24 0 0 0-2.74 5.49 5.02 5.02 0 0 0 2.58 3.84c1.5.7 3.37.94 5.65.63zm12.23 10.43v.62l3.45-.15h2.2c.54 0 1.01.15 1.4.31.4.24.71.55 1.02.94.24.4.4.87.47 1.41 0 .7-.23 1.41-.7 2.04-.32.4-.79.7-1.33.79-.55.15-1.26.23-2.2.23l-3.92.16.08 2.11c0 .79-.16 1.42-.47 1.89-.4.47-.87.7-1.5.7-.78 0-1.33-.23-1.64-.86a5.77 5.77 0 0 1-.55-2.59l-.08-1.1-10.66.55-2.04.16c-.47.08-.86.23-1.18.55-.31.31-.39.7-.39 1.33l.24 1.33.23 1.34c0 .47-.16.86-.47 1.25-.39.4-.78.63-1.33.63-.94.08-1.65-.4-2.2-1.41a10.06 10.06 0 0 1-.94-4.31c-.08-1.8.16-3.14.7-4.16a4.35 4.35 0 0 1 2.44-1.96 17.3 17.3 0 0 1 4.23-.63l11.06-.47v-.78c0-.86.16-1.5.47-1.88.4-.47.86-.7 1.49-.7s1.1.15 1.49.62c.32.55.55 1.17.63 2.04zm-11.92 37.32a11.91 11.91 0 0 1-8.31-3.6 11.3 11.3 0 0 1-2.2-3.77c-.97-3.1-.77-6.45.55-9.41 1.3-2.68 3.66-4.7 6.51-5.57 1.5-.47 3.06-.62 4.78-.47 1.73.08 3.3.47 4.7 1.1 1.42.63 2.6 1.5 3.54 2.51.94 1.1 1.65 2.35 2.12 3.76.95 3.11.73 6.46-.63 9.41-.63 1.41-1.5 2.51-2.59 3.45s-2.35 1.65-3.84 2.04a9.7 9.7 0 0 1-4.63.55zm.4-5.72c2.34.15 4.15-.24 5.56-1.18s2.12-2.27 2.2-4a5.2 5.2 0 0 0-.71-3.06c-.55-.86-1.33-1.57-2.43-2.11s-2.43-.87-3.92-.95-2.83.08-4 .47a5.26 5.26 0 0 0-3.77 4.71 5.26 5.26 0 0 0 1.73 4.31c1.25 1.02 2.98 1.65 5.33 1.8zm9.64 12.85l-.08.63 3.37.63 2.12.47c.47.16.94.31 1.25.63a2.81 2.81 0 0 1 .94 2.58c-.15.71-.55 1.34-1.17 1.8-.4.31-.9.48-1.41.48l-2.28-.24-3.84-.7-.4 2.04a2.99 2.99 0 0 1-.85 1.72c-.47.4-.94.47-1.57.4-.79-.16-1.26-.56-1.41-1.18a5.04 5.04 0 0 1 0-2.67l.16-1.02-10.43-1.8-2.04-.24c-.47 0-.94.08-1.26.32-.31.23-.55.62-.7 1.25l-.08 1.41-.08 1.34c-.08.47-.31.86-.78 1.17a2 2 0 0 1-1.5.32c-.93-.16-1.48-.79-1.8-1.89a10.2 10.2 0 0 1 0-4.39c.32-1.8.87-3.05 1.57-3.84s1.65-1.25 2.75-1.33c1.1-.08 2.5 0 4.3.31l10.9 1.88.16-.78c.1-.69.44-1.32.95-1.8.47-.4 1.01-.47 1.56-.4.63.08 1.02.4 1.34.95.39.39.46 1.1.3 1.95z"/>
  <path fill="#FFF" d="M727.67 396.23l1.1.86 19.05-1.88c1.1-.16 1.88-.16 2.35 0s.86.39 1.18.7c.31.4.55.79.7 1.26.16.47.08.94 0 1.4-.23.8-.62 1.34-1.25 1.58-.63.23-1.41.39-2.5.47l-14.99.78 11.37 8.08c.95.62 1.65 1.17 2.12 1.64s.78.87.94 1.26c.08.39.08.86-.08 1.4-.12.43-.37.82-.7 1.1-.32.32-.7.56-1.18.63-.47.08-.86.08-1.25 0-.33-.2-.67-.38-1.02-.54l-1.34-.87-16.78-12.62a23.2 23.2 0 0 1-3.37-2.9 6.27 6.27 0 0 1-1.49-2.98c-.23-1.1-.07-2.51.4-4.16.47-1.65 1.01-2.82 1.56-3.53s1.34-.94 2.28-.62c.62.15 1.1.54 1.33 1.01s.23 1.1 0 1.89l-.4.86-.38.86c-.16.63-.24 1.18-.16 1.57s.31.86.7 1.26l1.8 1.49zm12.15 29.4l-.63-.31c.73 1.3 1.19 2.74 1.34 4.23a9.18 9.18 0 0 1-9.02 9.57c-1.96.07-4-.32-6.2-1.34a14.03 14.03 0 0 1-6.74-6.04 9.4 9.4 0 0 1-.08-7.6 7.21 7.21 0 0 1 2.6-3.37 10.61 10.61 0 0 1 3.91-1.73l-7.91-3.45c-2.36-1.02-3.14-2.35-2.36-4.08.47-1.02 1.02-1.49 1.73-1.56s1.65.15 2.82.62l22.74 9.96c1.02.47 1.65 1.02 1.96 1.65.31.62.31 1.33-.08 2.11a2.46 2.46 0 0 1-1.57 1.5c-.7.39-1.57.3-2.5-.16zm-12.15 6.98c1.2.58 2.5.9 3.84.94 1.18 0 2.2-.24 3.06-.79s1.49-1.25 1.88-2.11c.63-1.5.63-2.9-.08-4.4s-2.2-2.74-4.39-3.68c-2.12-.94-3.92-1.1-5.57-.63a5.22 5.22 0 0 0-3.37 2.9 4.7 4.7 0 0 0-.31 2.75c.16.94.7 1.88 1.49 2.82.86.86 2.04 1.57 3.45 2.2zm-14.35 22.74l5.8-9.65a8.13 8.13 0 0 0-3.37-1.1 6.15 6.15 0 0 0-2.98.55 6.59 6.59 0 0 0-3.14 5.57l.16 1.8.47 2.35c.08.4-.08.79-.31 1.26-.32.47-.7.86-1.18.94-.47.16-.94.08-1.49-.23-.47-.24-.86-.79-1.25-1.5a8.86 8.86 0 0 1-.55-6.03 16.6 16.6 0 0 1 1.64-4c1.89-3.14 4.32-5.1 7.14-5.73 2.9-.7 5.8-.07 8.94 1.8a14.2 14.2 0 0 1 3.68 3.07 9.88 9.88 0 0 1 2.28 8.15 13.17 13.17 0 0 1-5.96 8.7 9.64 9.64 0 0 1-9.57-.15c-1.25-.79-1.8-1.57-1.8-2.51.24-.86.7-1.96 1.49-3.3zm8.55-7.92l-5.41 8.94a7.6 7.6 0 0 0 4.62.94 4.94 4.94 0 0 0 3.14-2.35c.7-1.13.9-2.5.55-3.77a7.45 7.45 0 0 0-2.9-3.76z"/>
  <path fill="#DDD" d="M270.22 661.88c0 5.8-.78 10.82-2.27 14.9a24.86 24.86 0 0 1-16.86 15.84 53.17 53.17 0 0 1-14.58 1.88h-15.14c-1.1 0-1.96-.32-2.74-.94s-1.1-1.65-1.1-3.14v-55.28c0-1.41.4-2.5 1.1-3.13s1.65-.95 2.74-.95h16.31c5.65 0 10.43.63 14.35 1.96 3.92 1.34 7.3 3.3 9.96 5.89a24.51 24.51 0 0 1 6.12 9.64c1.48 4.28 2.2 8.8 2.11 13.33zm-13.33.47c0-2.98-.31-5.8-1.01-8.4-1.19-4.98-4.64-9.13-9.34-11.2-2.43-1.1-5.64-1.57-9.56-1.57h-6.67v43.12h6.75c3.52 0 6.5-.47 8.94-1.4s4.46-2.28 6.03-4.16a17.56 17.56 0 0 0 3.61-6.9 33.97 33.97 0 0 0 1.25-9.5zm63.52 7.37c0 1.49-.32 2.59-1.02 3.37-.7.7-1.57 1.1-2.75 1.1h-26.58c0 1.88.24 3.53.63 5.1a8.73 8.73 0 0 0 2.12 3.84 8.48 8.48 0 0 0 3.76 2.43c1.49.55 3.37.86 5.49.86 3.38.06 6.74-.45 9.96-1.49l2.98-1.02c.6-.27 1.23-.43 1.88-.47l.7.16c.24.08.4.31.48.63.15.31.23.7.23 1.25l.08 2.04-.08 1.8-.16 1.34-.31.94-.55.7c-.23.24-.78.55-1.72.94a32.67 32.67 0 0 1-8.63 2.2c-5.45.83-11.02.46-16.3-1.1a18.2 18.2 0 0 1-7.3-4.47 18.43 18.43 0 0 1-4.4-7.53 36.2 36.2 0 0 1-1.4-10.66c0-3.92.47-7.37 1.49-10.5 1.02-3.14 2.5-5.8 4.39-7.92a18.05 18.05 0 0 1 7.06-4.94 23.52 23.52 0 0 1 9.33-1.73c3.68 0 6.82.55 9.4 1.65a18.2 18.2 0 0 1 6.44 4.47 16.9 16.9 0 0 1 3.68 6.82 29.64 29.64 0 0 1 1.18 8.55v1.64h-.08zm-11.92-3.53c.08-3.45-.63-6.2-2.12-8.15-1.49-1.96-3.76-2.98-6.9-2.98-1.57 0-2.9.31-4.08.86a9.56 9.56 0 0 0-2.9 2.35 12.54 12.54 0 0 0-1.8 3.53 19.1 19.1 0 0 0-.7 4.31h18.5v.08zm61.78-17.1v.63l-.07.79-.24.94-.31 1.25-13.1 39.44c-.15.55-.39 1.02-.62 1.34-.32.31-.71.62-1.42.78-.7.16-1.49.32-2.58.4l-4.32.07a58.12 58.12 0 0 1-6.82-.55c-.63-.23-1.1-.47-1.33-.78a3.02 3.02 0 0 1-.63-1.33l-13.17-39.52-.47-1.8-.24-1.1v-.63c0-.31.08-.63.24-.86.16-.24.47-.47.94-.63.47-.16 1.1-.31 1.88-.31l2.98-.08 3.22.16 1.96.3c.47.17.78.4 1.02.64.23.31.39.62.47 1.02l9.95 32.07.32 1.25.31-1.25 9.8-32.07c.08-.4.24-.71.47-1.02.24-.32.55-.47 1.02-.63 3.17-.54 6.4-.57 9.57-.08.39.16.7.4.86.63.24.31.31.62.31.94zm448.12 13.02c0 5.26-.63 9.96-1.96 14.12a28.78 28.78 0 0 1-5.8 10.58 24.92 24.92 0 0 1-9.57 6.59 36.21 36.21 0 0 1-13.17 2.27c-4.94 0-9.25-.62-12.94-1.96a23.15 23.15 0 0 1-9.17-5.88 24.64 24.64 0 0 1-5.5-10.11 49.87 49.87 0 0 1-1.8-14.5c0-5.1.63-9.73 1.96-13.89 1.34-4.07 3.22-7.6 5.8-10.43 2.6-2.9 5.8-5.1 9.57-6.58 3.84-1.57 8.24-2.28 13.25-2.28 4.79 0 9.02.63 12.7 1.89a22.35 22.35 0 0 1 14.82 15.91 50.92 50.92 0 0 1 1.8 14.27zm-13.57.63c.04-3.05-.22-6.1-.78-9.1a19.36 19.36 0 0 0-2.67-6.97 12.78 12.78 0 0 0-5.01-4.55c-2.12-1.1-4.7-1.57-7.85-1.57s-5.8.63-7.91 1.8a15.14 15.14 0 0 0-5.18 4.79 19.12 19.12 0 0 0-2.74 6.97 48.24 48.24 0 0 0 0 17.8c.44 2.5 1.34 4.9 2.66 7.06 1.26 1.96 2.9 3.45 5.02 4.47s4.7 1.57 7.92 1.57c3.14 0 5.8-.63 7.92-1.8 2.12-1.18 3.84-2.75 5.17-4.79s2.2-4.39 2.75-7.05c.55-2.67.7-5.57.7-8.63zm67.67 7.6c0 3.93-.39 7.38-1.25 10.51a23.52 23.52 0 0 1-3.69 8 15.99 15.99 0 0 1-5.96 5.02 18.03 18.03 0 0 1-11.68 1.41 15.68 15.68 0 0 1-6.04-2.98 43.77 43.77 0 0 1-3.06-2.67v20.55c0 .31-.07.62-.31.86-.23.23-.55.47-1.02.63-2.58.47-5.22.6-7.84.39a8.64 8.64 0 0 1-1.88-.4c-.47-.15-.79-.39-1.02-.62s-.31-.55-.31-.86V649.1c0-.32.07-.63.23-.87s.47-.47.86-.62c.53-.2 1.09-.34 1.65-.4 1.67-.2 3.35-.2 5.02 0 .7.08 1.17.24 1.64.4.4.15.71.39.87.62s.23.55.23.87v5.17c2.25-2.3 4.78-4.3 7.53-5.96a14.9 14.9 0 0 1 3.92-1.49c4.2-.94 8.59-.45 12.47 1.41a15.11 15.11 0 0 1 5.48 5.18 24.31 24.31 0 0 1 3.14 7.68c.7 2.9 1.02 5.96 1.02 9.26zm-12.86.87c0-1.88-.15-3.69-.39-5.33a18.25 18.25 0 0 0-1.41-4.55 9.03 9.03 0 0 0-2.67-3.22 6.74 6.74 0 0 0-4.07-1.17 8.77 8.77 0 0 0-4.86 1.57c-.87.54-1.73 1.25-2.6 2.2s-1.8 1.95-2.81 3.28v14.43a30.9 30.9 0 0 0 4.94 5.1 8.16 8.16 0 0 0 4.94 1.8c1.56 0 2.98-.4 4.07-1.25a9.2 9.2 0 0 0 2.75-3.22c.7-1.33 1.25-2.82 1.56-4.47s.55-3.45.55-5.17zm53 9.33c0 2.5-.46 4.7-1.4 6.59a14.42 14.42 0 0 1-3.92 4.78 19.59 19.59 0 0 1-6.04 2.9 29.1 29.1 0 0 1-19.21-1.57 9.48 9.48 0 0 1-1.73-1.1c-.39-.31-.63-.86-.86-1.64-.23-.79-.31-1.8-.31-3.3l.07-2.27c.05-.48.16-.95.32-1.41l.47-.7.7-.16c.4 0 .87.23 1.57.62 2 1.1 4.1 2.02 6.28 2.75 2.5.67 5.13.78 7.68.31a6.71 6.71 0 0 0 2.27-1.02c.63-.39 1.1-.94 1.41-1.65.32-.62.47-1.4.47-2.27 0-1.02-.31-1.8-.94-2.5a7.27 7.27 0 0 0-2.43-1.81 27.16 27.16 0 0 0-3.37-1.5l-3.84-1.48a34.75 34.75 0 0 1-3.84-1.88 13.64 13.64 0 0 1-5.8-6.43 13.52 13.52 0 0 1-.95-5.34c0-2.11.4-4 1.26-5.72a12.07 12.07 0 0 1 3.53-4.47 16.68 16.68 0 0 1 5.64-2.9 24.79 24.79 0 0 1 11.45-.7l3.53.7 2.67.94 1.56.86c.32.24.55.47.63.71l.31.86.16 1.26.08 1.88-.08 2.2-.23 1.33c-.08.31-.24.55-.47.62l-.7.16c-.32 0-.8-.16-1.42-.55a36.13 36.13 0 0 0-5.57-2.2c-2.3-.6-4.71-.67-7.05-.23a5.5 5.5 0 0 0-2.04 1.02c-.55.4-.94.94-1.18 1.5a4.7 4.7 0 0 0-.4 1.8c0 1.01.32 1.88.95 2.58a8.5 8.5 0 0 0 2.43 1.8 28.5 28.5 0 0 0 3.45 1.5l3.92 1.48c1.33.55 2.67 1.18 3.92 1.89s2.43 1.56 3.45 2.66a11.56 11.56 0 0 1 2.43 3.77 10.7 10.7 0 0 1 1.18 5.33z"/>
  <path fill="#40C1C4" d="M483.26 464.83H372.24l29.32 36.62 34.03 42.58h103.97-213.74c-85.86 0-120.6 18.58-141.53 21.25l13.33-50.97-59.05-13.1c17.17-8.3 64.46-36.38 187.25-36.38h157.44z"/>
  <path fill="#FFF" d="M230.55 513.68l-2.2.24.94 9.88a4.26 4.26 0 0 1-.54 2.98 2.84 2.84 0 0 1-2.12 1.1 3.13 3.13 0 0 1-2.43-.71c-.63-.63-.94-1.49-1.1-2.74l-2.28-23.68c-.15-1.34.08-2.36.63-2.98.55-.63 1.5-1.02 2.83-1.18l10.11-.94c1.41-.16 2.59-.16 3.6-.16s1.89.16 2.75.47a7.84 7.84 0 0 1 5.57 7.14c.23 2.27-.24 4.15-1.41 5.64a11.14 11.14 0 0 1-5.57 3.45c1.18.47 2.27 1.26 3.45 2.28a31.19 31.19 0 0 1 5.25 6.66c.42.65.72 1.36.87 2.12l-.24 1.25c-.23.4-.55.79-.94 1.02s-.94.47-1.49.47c-.7.08-1.33-.08-1.8-.31-.47-.31-.94-.63-1.34-1.1l-1.56-2.12-2.9-3.92a21.1 21.1 0 0 0-2.75-3.21 6.66 6.66 0 0 0-2.27-1.41 8 8 0 0 0-3.06-.24zm2.35-13.25l-5.72.55.78 8.47 5.57-.55c1.49-.16 2.74-.4 3.76-.78a4.3 4.3 0 0 0 2.2-1.57c.47-.7.62-1.57.55-2.67a4.18 4.18 0 0 0-.87-2.2 3.69 3.69 0 0 0-1.96-1.25c-.78-.16-2.2-.23-4.31 0zm35.05 13.25l-11.21 1.02a7.45 7.45 0 0 0 1.1 3.37c.53.9 1.32 1.6 2.27 2.04.86.4 1.88.63 2.9.47l1.88-.39a6.4 6.4 0 0 0 1.57-.94l1.33-1.26 1.57-1.72c.24-.31.7-.47 1.26-.47.54-.08 1.1.08 1.49.4s.62.7.7 1.32c.08.55-.08 1.18-.47 1.89-.31.7-.86 1.4-1.64 2.2a10.8 10.8 0 0 1-2.98 1.87c-1.18.55-2.6.87-4.24 1.02-3.68.32-6.66-.47-8.86-2.35-2.2-1.88-3.53-4.7-3.84-8.23-.16-1.73 0-3.3.31-4.79.4-1.49 1.02-2.82 1.88-3.92s1.96-2.04 3.38-2.66c1.33-.7 2.9-1.1 4.62-1.26a10.2 10.2 0 0 1 9.8 4.32 8.79 8.79 0 0 1 1.57 4.46c.16 1.42-.23 2.44-1.02 2.9-.78.32-1.88.63-3.37.71zm-11.53-2.2l10.35-.93c-.31-1.96-.94-3.37-1.96-4.24a4.79 4.79 0 0 0-3.76-1.1c-1.41.16-2.59.71-3.37 1.8a7.4 7.4 0 0 0-1.26 4.48zm21.64 8.16l-2.11-24.85c-.08-1.18.08-2.04.55-2.67a2.35 2.35 0 0 1 1.96-1.02c.86-.08 1.56.16 2.2.7.62.7.98 1.59 1.01 2.52l2.12 24.85c.08 1.18-.08 2.04-.55 2.67-.47.63-1.18.94-2.04 1.02s-1.57-.16-2.12-.7c-.62-.56-.94-1.42-1.01-2.52zm27.06-9.1l-11.22.95a7.45 7.45 0 0 0 1.1 3.37 5.41 5.41 0 0 0 5.1 2.59 6.66 6.66 0 0 0 3.45-1.26l1.4-1.25 1.66-1.73c.23-.31.7-.47 1.25-.47.55-.08 1.1.08 1.5.4s.62.7.62 1.33c.08.55-.08 1.17-.47 1.88-.43.8-.98 1.51-1.65 2.12a12.93 12.93 0 0 1-7.21 2.82c-3.69.31-6.67-.47-8.86-2.43-2.2-1.96-3.45-4.7-3.77-8.31-.15-1.73 0-3.3.4-4.79a9.4 9.4 0 0 1 5.25-6.58c1.33-.7 2.9-1.1 4.62-1.26 2.28-.15 4.24.16 5.89.94a9.72 9.72 0 0 1 5.48 7.85c.16 1.4-.23 2.43-1.01 2.9a7.3 7.3 0 0 1-3.53.94zm-11.45-2.27l10.35-.86c-.32-1.96-.94-3.37-1.96-4.23a5.18 5.18 0 0 0-3.77-1.18c-1.4.16-2.58.7-3.37 1.8a7.22 7.22 0 0 0-1.25 4.47zm35.99 7.6a17.97 17.97 0 0 1-3.84 2.68 10.58 10.58 0 0 1-8.24.47 6.98 6.98 0 0 1-2.74-2.2 6.59 6.59 0 0 1-1.1-3.21c-.08-1.57.32-2.9 1.26-4.08s2.27-1.96 3.92-2.51c.9-.21 1.78-.45 2.66-.7l3.69-1.03 3.3-1.1a6.5 6.5 0 0 0-1.1-3.29c-.56-.7-1.73-.94-3.46-.86-1.49.08-2.5.4-3.21.78a5.49 5.49 0 0 0-1.8 1.96l-1.02 1.65c-.24.24-.63.4-1.41.47-.63.08-1.18-.16-1.73-.55-.47-.39-.78-.86-.78-1.57a4.7 4.7 0 0 1 .86-2.98 7.29 7.29 0 0 1 3.21-2.58c1.5-.71 3.38-1.1 5.57-1.26 2.51-.16 4.55 0 6.04.55a5.25 5.25 0 0 1 3.21 2.67c.71 1.25 1.1 2.98 1.18 5.1l.24 3.44.15 3.14c.08 1.16.35 2.3.79 3.37l.7 2.2c0 .62-.23 1.17-.7 1.64a2.8 2.8 0 0 1-1.8.86c-.63 0-1.18-.23-1.8-.7-.77-.71-1.45-1.5-2.05-2.35zm-.94-8.3c-2.27.8-4.57 1.5-6.9 2.11-.63.24-1.18.55-1.73 1.02s-.78 1.18-.7 2.04c.08.86.39 1.57 1.1 2.12s1.56.78 2.66.78c1.1-.07 2.2-.39 3.06-.94a4.86 4.86 0 0 0 1.96-2.04c.47-.86.63-2.35.47-4.31l.08-.78zm30.19 2.9a6.89 6.89 0 0 1-1.02 4.07 6.9 6.9 0 0 1-3.37 2.67c-1.5.63-3.3.94-5.5 1.02a13.9 13.9 0 0 1-5.33-.78 7.68 7.68 0 0 1-3.29-2.28 4.7 4.7 0 0 1-1.1-2.82c0-.63.16-1.18.63-1.65a2.35 2.35 0 0 1 1.73-.7c.5-.03.99.11 1.4.39.32.31.63.7.95 1.25.54.92 1.3 1.7 2.2 2.28.86.47 1.95.7 3.36.7a4.5 4.5 0 0 0 2.83-.86c.7-.55 1.1-1.1 1.02-1.8 0-1.02-.4-1.73-1.18-2.2s-2.04-.86-3.84-1.25a43 43 0 0 1-4.86-1.41 7.76 7.76 0 0 1-3.06-2.04 4.7 4.7 0 0 1-1.18-3.22c0-1.17.32-2.27.94-3.29s1.65-1.88 2.98-2.5 2.9-1.03 4.87-1.03c2.42-.15 4.84.4 6.97 1.57a6.47 6.47 0 0 1 1.89 1.65c.39.62.62 1.25.7 1.8 0 .63-.16 1.18-.63 1.65-.39.47-1.01.62-1.88.7-.62 0-1.1-.15-1.49-.47-.39-.31-.94-.78-1.49-1.49a5.1 5.1 0 0 0-1.57-1.33c-.62-.31-1.4-.47-2.43-.47s-1.88.24-2.58.7-1.02 1.03-1.02 1.65.31 1.1.78 1.5c.55.39 1.18.7 2.04.93l3.53.87c1.8.39 3.29.86 4.39 1.4a6.39 6.39 0 0 1 2.59 2.05 3.91 3.91 0 0 1 1.02 2.74zm21-2.43l-11.2-.24c0 1.34.23 2.43.7 3.45a5.18 5.18 0 0 0 4.78 3.06 6.9 6.9 0 0 0 3.53-.94l1.5-1.1 1.8-1.57c.35-.28.8-.39 1.25-.31.63 0 1.1.16 1.41.55.4.31.55.78.55 1.41 0 .55-.23 1.1-.63 1.8a6.28 6.28 0 0 1-1.88 1.96c-.86.63-1.88 1.1-3.13 1.5-1.26.39-2.67.54-4.32.54-3.68-.08-6.5-1.17-8.54-3.37a11.53 11.53 0 0 1-2.9-8.62c0-1.73.3-3.3.86-4.71s1.33-2.67 2.27-3.68a9.13 9.13 0 0 1 3.6-2.28c1.42-.47 2.99-.78 4.71-.7 2.28.07 4.16.54 5.73 1.56a9.57 9.57 0 0 1 4.62 8.4c0 1.4-.47 2.35-1.33 2.74-.7.4-1.88.63-3.37.55zm-11.2-3.53l10.43.23a7.2 7.2 0 0 0-1.5-4.46 4.86 4.86 0 0 0-3.6-1.57c-1.41 0-2.59.47-3.53 1.4a7.84 7.84 0 0 0-1.8 4.4z"/>
  <g>
    <path fill="#0D8F99" d="M560.26 302.13c0-.44-.14-.88-.39-1.25-.31-.4-.78-.7-1.49-.94a34.41 34.41 0 0 0-14.58 0c-.7.23-1.18.55-1.5.94s-.38.78-.38 1.25v55.12c0 3.22-.47 6.04-1.34 8.63a18.04 18.04 0 0 1-3.68 6.35 14.66 14.66 0 0 1-5.88 3.92c-2.36.87-4.94 1.34-7.84 1.34s-5.5-.47-7.85-1.34a16.47 16.47 0 0 1-6.03-3.92 17.01 17.01 0 0 1-3.85-6.59 30.73 30.73 0 0 1-1.33-9.48v-54.1c0-.48-.16-.87-.47-1.26-.31-.4-.78-.7-1.49-.94a34.89 34.89 0 0 0-14.74 0c-.7.23-1.25.55-1.49.94-.31.4-.4.78-.4 1.25v55.67c0 5.89.87 10.98 2.52 15.3a27.3 27.3 0 0 0 7.29 10.9 30 30 0 0 0 11.6 6.5 52.2 52.2 0 0 0 15.53 2.2c6.12 0 11.53-.79 16.3-2.43A29.33 29.33 0 0 0 558 371.92a43.3 43.3 0 0 0 2.5-15.06v-54.73h-.23zm61.4 41.8l20.39-37.4a26.69 26.69 0 0 0 1.56-4c.24-1.02.16-1.73-.39-2.28s-1.49-.86-2.82-.94c-3.53-.2-7.06-.2-10.59 0-1.17.08-2.11.23-2.82.47s-1.18.47-1.49.86-.63.87-.86 1.41l-15.68 30.27-16.08-30.27-.86-1.4c-.31-.4-.86-.71-1.57-.87-.78-.24-1.8-.4-3.06-.47a87.12 87.12 0 0 0-11.44 0c-1.5.16-2.43.4-2.98.94-.55.47-.63 1.25-.4 2.27.32 1.02.87 2.36 1.73 4.08l20.39 37.56-21.96 39.99a25.96 25.96 0 0 0-1.8 4c-.32 1.02-.16 1.72.31 2.27s1.41.86 2.75 1.02c3.59.4 7.22.43 10.82.08a13.2 13.2 0 0 0 3.06-.47c.7-.24 1.25-.47 1.56-.87l.94-1.4 17.18-33.1 17.17 33.1c.23.54.55 1.01.86 1.4.31.4.86.71 1.57.87.7.23 1.72.39 2.98.47 3.81.23 7.64.2 11.45-.08 1.49-.16 2.5-.47 3.05-1.02s.71-1.25.47-2.27a19.6 19.6 0 0 0-1.64-4l-21.8-40.22z"/>
    <path fill="#69366E" d="M552.74 815.64a37.5 37.5 0 0 0-14.35-8.47 66.65 66.65 0 0 0-20.78-2.9h-23.53a5.6 5.6 0 0 0-3.92 1.41c-1.1.94-1.56 2.43-1.56 4.47v79.82c0 2.04.54 3.61 1.56 4.47a5.73 5.73 0 0 0 3.92 1.41h21.88c7.1.15 14.18-.74 21.01-2.66a38.27 38.27 0 0 0 14.98-8.31 36.86 36.86 0 0 0 9.49-14.59 62.72 62.72 0 0 0 3.3-21.56c0-7.3-1.03-13.64-3.07-19.21-2.11-5.49-5.01-10.12-8.93-13.88zm-9.1 47.6c-1 3.66-2.79 7.06-5.25 9.95a21.61 21.61 0 0 1-8.79 5.96 36.36 36.36 0 0 1-12.85 1.96h-9.65v-62.25h9.41c4.73-.16 9.45.6 13.88 2.27a22.48 22.48 0 0 1 8.62 6.43 25.23 25.23 0 0 1 4.87 9.72 45.92 45.92 0 0 1 1.49 12.08c.08 4.68-.5 9.36-1.73 13.88zm98.33 29.56a19.6 19.6 0 0 0-1.65-4l-21.72-40.23 20.39-37.4a26.69 26.69 0 0 0 1.56-4c.24-1.02.16-1.72-.39-2.27s-1.49-.86-2.82-.94c-3.53-.2-7.06-.2-10.59 0-1.17.07-2.11.23-2.82.47s-1.18.47-1.49.86-.63.86-.86 1.41l-15.68 30.27-16.08-30.27-.86-1.41c-.31-.4-.86-.7-1.57-.86-.78-.24-1.8-.4-3.05-.47a87.12 87.12 0 0 0-11.45 0c-1.5.15-2.43.39-2.98.94-.55.47-.63 1.25-.4 2.27.32 1.02.87 2.35 1.73 4.08l20.39 37.56-21.96 39.99a25.96 25.96 0 0 0-1.8 4c-.32 1.02-.16 1.72.31 2.27s1.41.86 2.75 1.02c3.6.4 7.22.43 10.82.08a13.2 13.2 0 0 0 3.06-.47c.7-.24 1.25-.47 1.56-.87l.94-1.4 17.18-33.1 17.17 33.1c.23.54.55 1.01.86 1.4.31.4.86.71 1.57.87.7.23 1.72.39 2.98.47 3.81.23 7.64.2 11.45-.08 1.49-.16 2.5-.47 3.05-1.02s.63-1.25.4-2.27z"/>
  </g>
</svg>
