<?xml version="1.0" encoding="utf-8"?>
<!-- Generator: Adobe Illustrator 21.1.0, SVG Export Plug-In . SVG Version: 6.00 Build 0)  -->
<svg version="1.1" xmlns="http://www.w3.org/2000/svg" xmlns:xlink="http://www.w3.org/1999/xlink" x="0px" y="0px"
	 viewBox="0 0 1400 980" enable-background="new 0 0 1400 980" xml:space="preserve">
<g id="Shapes">
	<path opacity="0.11" fill="#58595B" d="M1014.053,373.88c0.047-2.195,0.083-4.392,0.083-6.598
		c0-166.753-135.18-301.932-301.932-301.932c-166.752,0-301.932,135.18-301.932,301.932c0,1,0.028,1.994,0.038,2.992
		c-94.77,50.933-159.209,150.997-159.209,266.121c0,166.753,135.18,301.932,301.932,301.932c57.041,0,110.383-15.825,155.889-43.313
		c45.505,27.488,98.848,43.313,155.889,43.313c166.753,0,301.932-135.18,301.932-301.932
		C1166.744,523.93,1105.248,425.836,1014.053,373.88z M854.928,633.403c-42.5,22.841-91.095,35.811-142.724,35.811
		c-54.287,0-105.222-14.337-149.242-39.417c2.294-106.955,60.196-200.213,145.96-252.02
		C795.648,430.164,853.873,524.942,854.928,633.403z"/>
	<path fill="#3CC0C4" d="M562.879,612.719c0-2.206,0.036-4.404,0.083-6.598C472.58,554.626,411.392,457.806,410.31,346.597
		c-94.77,50.933-159.209,150.997-159.209,266.121c0,166.753,135.18,301.932,301.932,301.932c57.041,0,110.383-15.825,155.889-43.313
		C621.399,818.467,562.879,722.43,562.879,612.719z"/>
	<path fill="#856CB0" d="M1014.053,350.204c-2.41,112.34-66.172,209.566-159.125,259.523c0.01,0.998,0.038,1.992,0.038,2.992
		c0,109.711-58.52,205.748-146.043,258.619c45.505,27.488,98.848,43.313,155.889,43.313c166.753,0,301.932-135.18,301.932-301.932
		C1166.744,500.253,1105.248,402.16,1014.053,350.204z"/>
	<path fill="#589BD4" d="M854.966,612.719c0-1-0.028-1.994-0.038-2.992c-42.5,22.841-91.095,35.811-142.724,35.811
		c-54.287,0-105.222-14.338-149.242-39.417c-0.047,2.195-0.083,4.392-0.083,6.598c0,109.711,58.52,205.748,146.043,258.619
		C796.446,818.467,854.966,722.43,854.966,612.719z"/>
	<path fill="#4B9FD8" d="M708.923,354.1c45.505-27.488,98.848-43.313,155.889-43.313c54.287,0,105.222,14.338,149.242,39.417
		c0.047-2.195,0.083-4.392,0.083-6.599c0-166.753-135.18-301.932-301.932-301.932c-166.752,0-301.932,135.18-301.932,301.932
		c0,1,0.028,1.994,0.038,2.992c42.5-22.841,91.095-35.811,142.724-35.811C610.075,310.786,663.417,326.611,708.923,354.1z"/>
	<path fill="#039EA5" d="M562.963,606.12c2.294-106.955,60.196-200.213,145.96-252.02c-45.506-27.488-98.848-43.313-155.889-43.313
		c-51.628,0-100.223,12.969-142.724,35.811C411.392,457.806,472.58,554.626,562.963,606.12z"/>
	<path fill="#7181BF" d="M708.923,354.1c86.725,52.388,144.951,147.165,146.005,255.627
		c92.954-49.957,156.715-147.183,159.125-259.523c-44.02-25.08-94.954-39.417-149.242-39.417
		C807.77,310.786,754.428,326.611,708.923,354.1z"/>
	<g transform="translate(-1 -1)">
		<g>
			<g>
				<path fill="#FDFEFE" d="M1038.343,605.28c2.887-15.68-1.826-37.235-18.999-47.506c-10.846-6.084-23.639-7.694-35.655-4.487
					c-16.644,4.451-28.878,16.394-32.725,31.948c-0.858,3.155-1.221,6.424-1.077,9.69c0.184,2.026,0.558,4.031,1.117,5.988
					c0.752,2.49,1.124,5.079,1.104,7.68c-0.078,3.096-2.21,6.309-4.094,9.144c-2.054,3.094-3.827,5.765-2.799,8.229
					c0.976,1.67,2.694,2.771,4.619,2.959c0.111,0.02,0.223,0.031,0.336,0.034c0.514-0.063,1.03,0.108,1.406,0.465
					c0.375,0.358,0.571,0.865,0.532,1.381c0,3.84,0.096,5.821,1.682,6.729c-0.138,0.289-0.235,0.596-0.287,0.912
					c-0.159,1.084,0.231,2.176,1.041,2.913c0.805,0.78,1.826,1.301,2.93,1.496c0.078,0.018,0.152,0.032,0.224,0.049
					c0.044,0.275,0.063,0.553,0.058,0.831c-0.013,0.687-0.062,1.373-0.146,2.055c-0.307,2.956-0.727,7.004,5.186,8.936
					c1.187,0.332,2.417,0.481,3.648,0.444c5.599-0.249,11.132-1.309,16.426-3.149c1.529,2.665,2.45,5.635,2.698,8.698
					c0,0.49,0.194,0.96,0.541,1.307c0.346,0.346,0.817,0.541,1.307,0.541h46.193c0.79-0.01,1.485-0.524,1.725-1.278
					c0.243-0.763-0.022-1.597-0.66-2.081c-1.912-1.452-8.243-16.745-8.437-22.239c0.558-1.267,1.305-2.69,2.191-4.342
					C1033.248,624.136,1036.6,614.889,1038.343,605.28z M1022.528,636.786c0.047,4.419,4.031,16.095,7.453,22.087h-40.873
					c-0.46-2.831-1.377-5.568-2.716-8.105c5.353-2.098,10.069-4.796,12.333-7.756c0.616-0.811,0.46-1.968-0.35-2.587
					c-0.809-0.619-1.967-0.466-2.588,0.342c-5.229,6.842-26.987,12.037-31.844,10.448c-3.076-1.006-2.954-2.187-2.658-5.041
					c0.098-0.809,0.154-1.623,0.166-2.438c0-3.113-1.256-4.043-3.143-4.48c-0.356-0.051-0.696-0.182-0.994-0.384
					c0.363-0.347,0.774-0.638,1.222-0.865c0.771-0.379,1.18-1.239,0.985-2.077c-0.194-0.837-0.94-1.43-1.799-1.43
					c-0.668,0-1.409,0-1.799-0.049c-0.117-1.211-0.157-2.429-0.119-3.645c0.036-1.457-0.518-2.867-1.536-3.91
					c-1.018-1.043-2.415-1.63-3.872-1.629c-1.332-0.281-1.736-0.642-1.77-0.725c-0.269-0.641,1.512-3.321,2.468-4.761
					c2.052-3.089,4.605-6.934,4.709-11.094c0.052-2.308-0.205-4.613-0.764-6.854c2.015-1.773,4.392-3.084,6.967-3.842
					c0.917-0.16,1.86-0.094,2.746,0.192c0.984,0.271,2.001-0.307,2.272-1.29c0.271-0.984-0.307-2.001-1.29-2.272
					c-1.455-0.448-2.998-0.532-4.493-0.246c-2.611,0.665-5.051,1.877-7.159,3.556c-0.253-1.076-0.423-2.17-0.511-3.272
					c-0.125-2.879,0.206-5.76,0.98-8.537c3.573-14.44,14.54-25.106,30.094-29.266c11.049-2.963,22.818-1.496,32.801,4.09
					c15.66,9.366,19.926,29.2,17.263,43.665c-1.661,9.238-4.886,18.124-9.538,26.276c-1.016,1.896-1.893,3.532-2.526,5.047
					C1022.537,636.204,1022.497,636.497,1022.528,636.786z"/>
				<path fill="#FDFEFE" d="M1026.195,609.501c0.264-2.85-1.687-5.432-4.501-5.956l-3.538-4.905c0.217-0.4,0.383-0.826,0.495-1.267
					l3.427-1.37c1.583,1.802,4.146,2.378,6.347,1.427c2.201-0.951,3.539-3.212,3.313-5.599c-0.226-2.387-1.966-4.356-4.307-4.876
					l-2.776-5.537c1.947-1.984,2.115-5.107,0.392-7.288c-1.723-2.182-4.799-2.742-7.181-1.307l-3.096-2.57
					c0.234-0.612,0.357-1.262,0.362-1.917c0.005-2.264-1.37-4.302-3.471-5.145c-2.101-0.843-4.504-0.321-6.065,1.319l-5.478-1.369
					c-0.656-2.376-2.811-4.027-5.276-4.042c-2.465-0.015-4.64,1.61-5.325,3.978l-7.321,1.464c-1.91-2.059-5.061-2.355-7.321-0.687
					c-2.259,1.668-2.905,4.767-1.501,7.198l-3.587,4.777c-2.571,0.465-4.465,2.666-4.541,5.277
					c-0.076,2.611,1.686,4.919,4.225,5.533l2.966,7.323c-1.627,1.598-2.108,4.03-1.21,6.127c0.898,2.096,2.99,3.427,5.269,3.352
					c2.279-0.075,4.279-1.541,5.036-3.693h9.92c0.828,2.548,3.413,4.09,6.048,3.61l6.134,9.33c-1.574,1.745-1.873,4.293-0.746,6.355
					c1.127,2.062,3.434,3.186,5.752,2.803c2.318-0.383,4.141-2.188,4.546-4.503l4.579-3.66c0.871,0.549,1.88,0.843,2.91,0.846
					C1023.538,614.531,1025.931,612.351,1026.195,609.501z M1026.219,590.508c0.924-0.002,1.708,0.679,1.834,1.595
					c0.127,0.915-0.443,1.784-1.332,2.033c-0.89,0.249-1.827-0.198-2.194-1.046c-0.006-0.017-0.003-0.034-0.01-0.051l-0.012-0.018
					c-0.086-0.211-0.132-0.436-0.134-0.664C1024.373,591.336,1025.199,590.509,1026.219,590.508z M1018.867,577.198
					c0.177-0.858,0.933-1.473,1.809-1.472c1.021,0,1.848,0.827,1.848,1.848s-0.827,1.848-1.848,1.848
					c-0.229-0.003-0.454-0.049-0.666-0.135l-0.016-0.01c-0.016-0.007-0.033-0.003-0.05-0.009
					C1019.139,578.92,1018.69,578.056,1018.867,577.198z M1017.029,581.715L1017.029,581.715l-3.414,8.537l-5.985-4.788
					c0.812-0.693,1.405-1.606,1.708-2.63l7.321-1.464C1016.775,581.494,1016.902,581.603,1017.029,581.715z M1015.062,596.55
					c-0.249,0.889-1.116,1.457-2.03,1.331c-0.914-0.126-1.595-0.907-1.594-1.831c0.001-1.02,0.828-1.847,1.848-1.848
					c0.229,0.003,0.455,0.049,0.666,0.135l0.016,0.01c0.017,0.007,0.034,0.004,0.051,0.01
					C1014.865,594.726,1015.311,595.661,1015.062,596.55z M1009.59,566.488c1.021,0,1.848,0.827,1.848,1.848
					s-0.827,1.848-1.848,1.848c-1.02,0-1.848-0.827-1.848-1.848C1007.743,567.315,1008.57,566.489,1009.59,566.488z
					 M999.866,566.885l4.22,1.055c-0.01,0.133-0.04,0.26-0.04,0.395c0.003,3.06,2.483,5.54,5.543,5.543
					c0.991-0.005,1.962-0.279,2.81-0.792l3.096,2.57c-0.234,0.612-0.357,1.261-0.362,1.917c0,0.112,0.027,0.216,0.033,0.327
					l-6.018,1.203c-0.755-1.756-2.361-3-4.25-3.292l-6.765-6.765C998.884,568.484,999.48,567.741,999.866,566.885z
					 M1005.894,581.269c0,1.021-0.827,1.848-1.848,1.848c-1.02-0.001-1.847-0.828-1.848-1.848c0-1.02,0.827-1.848,1.848-1.848
					C1005.067,579.422,1005.894,580.249,1005.894,581.269z M994.808,562.792c1.021,0,1.848,0.827,1.848,1.848
					s-0.827,1.848-1.848,1.848s-1.848-0.827-1.848-1.848C992.961,563.62,993.788,562.793,994.808,562.792z M995.174,571.315
					l5.547,5.547c-0.862,0.651-1.515,1.541-1.878,2.559h-4.376c-0.436-1.223-1.289-2.254-2.409-2.912L995.174,571.315z
					 M983.689,568.009l6.018-1.203c0.472,1.089,1.281,1.999,2.308,2.595l-3.354,5.59l-5.798-3.72
					c0.559-0.877,0.857-1.895,0.86-2.935C983.722,568.224,983.695,568.119,983.689,568.009z M991.113,581.269
					c0,1.021-0.827,1.848-1.848,1.848c-1.02-0.001-1.847-0.828-1.848-1.848c0-1.02,0.827-1.848,1.848-1.848
					C990.286,579.422,991.113,580.249,991.113,581.269z M978.179,566.488c1.021,0,1.848,0.827,1.848,1.848s-0.827,1.848-1.848,1.848
					s-1.848-0.827-1.848-1.848C976.332,567.315,977.159,566.489,978.179,566.488z M976.168,573.487
					c1.126,0.464,2.379,0.517,3.54,0.15l5.705,3.66c-0.607,0.595-1.069,1.322-1.35,2.124h-8.072c-0.403-1.144-1.17-2.124-2.184-2.79
					L976.168,573.487z M970.788,583.117c-1.02,0-1.848-0.827-1.848-1.848c0.001-1.02,0.828-1.847,1.848-1.848
					c1.021,0,1.848,0.827,1.848,1.848C972.635,582.29,971.808,583.117,970.788,583.117z M976.331,599.746
					c-1.021,0-1.848-0.827-1.848-1.848c0-1.021,0.827-1.848,1.848-1.848s1.848,0.827,1.848,1.848
					C978.178,598.919,977.351,599.745,976.331,599.746z M977.382,592.462c-0.346-0.069-0.698-0.104-1.051-0.106
					c-0.183,0-0.356,0.037-0.534,0.054l-2.518-6.216c1.264-0.641,2.235-1.742,2.711-3.077h8.072
					c0.333,0.931,0.909,1.755,1.669,2.387L977.382,592.462z M991.453,596.051h-9.92c-0.197-0.553-0.482-1.072-0.843-1.535
					l9.074-7.562l3.09,6.931C992.223,594.486,991.743,595.228,991.453,596.051z M994.468,583.117h4.377
					c0.436,1.223,1.289,2.254,2.409,2.913l-3.842,6.403c-0.25-0.043-0.502-0.068-0.755-0.076c-0.143,0-0.278,0.032-0.418,0.042
					l-3.172-7.114C993.697,584.682,994.178,583.94,994.468,583.117z M996.656,599.746c-1.021,0-1.848-0.827-1.848-1.848
					c0-1.021,0.827-1.848,1.848-1.848c1.021,0,1.848,0.827,1.848,1.848C998.503,598.919,997.676,599.745,996.656,599.746z
					 M1004.543,587.728l5.16,4.128c-0.812,0.693-1.405,1.606-1.708,2.63l-6.237,1.247c-0.257-0.59-0.615-1.132-1.057-1.599
					L1004.543,587.728z M1007.742,618.223c-1.021,0-1.848-0.827-1.848-1.848c0-1.021,0.827-1.848,1.848-1.848
					c1.02,0,1.848,0.827,1.848,1.848C1009.589,617.396,1008.762,618.223,1007.742,618.223z M1015.133,608.985
					c0.007,0.617,0.118,1.229,0.328,1.809l-3.119,2.493c-1.166-1.822-3.318-2.758-5.446-2.37l-6.134-9.33
					c0.548-0.611,0.953-1.337,1.184-2.124l6.237-1.247c1.189,2.809,4.426,4.126,7.238,2.947l2.279,3.16
					C1016.105,605.336,1015.136,607.094,1015.133,608.985z M1016.932,591.91l3.526-8.815c0.074,0.003,0.143,0.022,0.218,0.022
					c0.223-0.009,0.445-0.031,0.664-0.067l2.237,4.463c-1.781,0.961-2.895,2.819-2.902,4.843c0,0.075,0.019,0.144,0.022,0.219
					l-2.484,0.993C1017.896,592.939,1017.461,592.376,1016.932,591.91z M1020.676,610.833c-1.021,0-1.848-0.827-1.848-1.848
					c0.001-1.02,0.828-1.847,1.848-1.848c1.02,0,1.848,0.827,1.848,1.848C1022.524,610.006,1021.696,610.833,1020.676,610.833z"/>
			</g>
		</g>
	</g>
	<path fill="#FFFFFF" d="M489.378,583.828c-0.398-0.544-1.011-0.905-1.68-0.988l-23.553-2.954c-0.971-0.122-1.921,0.343-2.421,1.183
		c-0.5,0.841-0.456,1.898,0.114,2.693l5.432,7.574l-24.972,14.822l-13.798-24.096c-0.475-0.828-1.287-1.391-2.23-1.543
		s-1.891,0.126-2.602,0.764l-24.431,21.91c-0.701,0.629-0.759,1.705-0.131,2.406c0.628,0.7,1.704,0.758,2.406,0.13l24.191-21.695
		l14.275,24.928c0.287,0.503,0.755,0.861,1.316,1.009c0.56,0.148,1.143,0.067,1.642-0.23l27.196-16.142
		c0.531-0.315,0.908-0.842,1.034-1.446c0.127-0.604-0.006-1.238-0.366-1.74l-4.933-6.879l20.413,2.56l-3.779,20.478l-4.953-6.981
		c-0.666-0.939-1.919-1.209-2.912-0.629l-8.857,5.165c-0.311,0.109-0.616,0.246-0.908,0.415l-3.61,2.085
		c-0.334,0.193-0.638,0.418-0.912,0.668l-3.26,1.901c-0.235,0.035-0.47,0.088-0.703,0.16c-0.133,0.04-0.26,0.097-0.379,0.168
		l-18.566,11.11l-12.74-20.168c-0.913-1.444-2.777-1.891-4.246-1.017l-16.616,9.903c-0.004,0.002-0.007,0.002-0.011,0.004
		c-0.132,0.04-0.259,0.097-0.378,0.168l-18.535,11.092l11.816-10.597c0.701-0.628,0.759-1.705,0.131-2.405
		c-0.628-0.701-1.705-0.759-2.406-0.13l-20.095,18.021c-0.899,0.806-1.038,2.148-0.322,3.121c0.456,0.62,1.159,0.954,1.877,0.954
		c0.409,0,0.822-0.107,1.198-0.332l1.01-0.602c0.57,0.828,1.351,1.504,2.289,1.956c1.633,0.789,3.506,0.783,5.135-0.014l7.627-3.73
		l-3.968,19.382c-0.059,0.295-0.22,0.565-0.449,0.761c-0.717,0.609-0.804,1.685-0.194,2.4c0.337,0.397,0.816,0.6,1.298,0.6
		c0.39,0,0.782-0.133,1.103-0.405c0.808-0.687,1.369-1.637,1.58-2.671l0.983-4.764c0.962,1.56,2.274,2.922,3.884,3.966l-1.473,3.633
		c-0.216,0.438-0.705,0.739-1.537,1.224c-0.106,0.063-0.216,0.126-0.325,0.191l-9.693,5.553l-0.891-0.734l2.167-1.856
		c0.714-0.612,0.797-1.687,0.185-2.401c-0.611-0.715-1.686-0.798-2.401-0.186l-3.022,2.589c-0.554,0.472-0.869,1.161-0.862,1.889
		c0.005,0.728,0.332,1.411,0.892,1.872l2.171,1.792c0.482,0.396,1.082,0.599,1.685,0.599c0.452,0,0.908-0.114,1.316-0.346
		l10.158-5.819c0.007-0.004,0.014-0.009,0.021-0.013c0.106-0.063,0.212-0.124,0.316-0.185c1.057-0.618,2.257-1.317,2.926-2.768
		c0.012-0.025,0.022-0.05,0.032-0.075l1.308-3.224l3.725,2.141c0.754,0.433,1.19,1.273,1.112,2.14l-0.656,7.206
		c-0.051,0.557,0.137,1.113,0.514,1.527c0.378,0.412,0.915,0.649,1.473,0.649h4.083c0.932,0,1.732-0.634,1.943-1.54l2.525-10.774
		c0.431-1.337,0.26-2.784-0.475-3.985c-0.02-0.033-0.042-0.065-0.064-0.097l-8.332-11.756l4.57-12.345
		c0.003-0.008,0.005-0.015,0.008-0.023c0.372-1.049,0.568-2.127,0.597-3.201c0.251,0.036,0.503,0.057,0.754,0.057
		c0.91,0,1.808-0.239,2.617-0.706l3.61-2.085c2.507-1.448,3.369-4.665,1.921-7.172l-0.825-1.429
		c-0.371-0.642-0.866-1.185-1.447-1.61l3.925-2.339l12.552,19.869l-3.946,2.361c-0.629,0.376-0.947,1.112-0.789,1.828
		c0.391,1.771,1.553,3.24,3.187,4.027c1.633,0.789,3.506,0.783,5.135-0.014l15.057-7.365c0.844-0.413,1.195-1.434,0.782-2.278
		c-0.413-0.845-1.434-1.195-2.279-0.781l-15.056,7.365c-0.686,0.335-1.473,0.337-2.16,0.005c-0.324-0.156-0.604-0.376-0.827-0.644
		l4.149-2.483l20.289-11.833c0.352,0.06,0.678,0.244,0.912,0.538l0.072,0.09c0.085,0.203,0.182,0.403,0.294,0.598l0.825,1.429
		c0.001,0.002,0.002,0.004,0.004,0.005c0.518,1.473,0.532,3.093-0.006,4.62l-4.413,11.921l-6.519-0.754l-0.837-0.098l0.043-0.213
		c0.185-0.923-0.413-1.82-1.336-2.005c-0.923-0.183-1.82,0.413-2.005,1.336l-3.328,16.191c-0.062,0.3-0.222,0.572-0.455,0.77
		l-8.332,7.134c-0.554,0.473-0.868,1.161-0.861,1.89c0.006,0.727,0.332,1.41,0.892,1.871l2.166,1.787
		c0.482,0.398,1.083,0.603,1.689,0.603c0.452,0,0.908-0.114,1.318-0.347l10.157-5.819c0.007-0.004,0.014-0.008,0.021-0.012
		c0.106-0.063,0.211-0.124,0.315-0.185c1.058-0.618,2.258-1.317,2.927-2.769c0.012-0.024,0.022-0.049,0.032-0.074l1.308-3.224
		l3.725,2.14c0.754,0.434,1.19,1.274,1.112,2.141l-0.655,7.206c-0.051,0.557,0.137,1.113,0.514,1.526
		c0.377,0.413,0.915,0.65,1.473,0.65h4.083c0.931,0,1.73-0.633,1.943-1.54l2.525-10.774c0.43-1.337,0.259-2.784-0.475-3.986
		c-0.02-0.032-0.042-0.065-0.064-0.096l-8.332-11.756l4.57-12.345c0.003-0.008,0.005-0.015,0.008-0.023
		c0.372-1.049,0.569-2.128,0.597-3.201c0.251,0.036,0.503,0.057,0.754,0.057c0.91,0,1.808-0.239,2.617-0.706l3.61-2.085
		c2.507-1.448,3.369-4.665,1.921-7.172l-0.825-1.429c-0.306-0.53-0.698-0.989-1.151-1.375l4.513-2.631l5.613,7.91
		c0.573,0.809,1.57,1.192,2.538,0.979c0.968-0.214,1.71-0.981,1.89-1.957l4.366-23.662
		C489.935,585.065,489.777,584.373,489.378,583.828z M411.853,648.188c-0.019,0.054-0.035,0.109-0.047,0.166l-2.288,9.759h-1.419
		l0.515-5.667c0.199-2.187-0.903-4.308-2.808-5.401l-6.105-3.508c-3.302-1.897-5.063-5.548-4.543-9.261l1.3,0.15l6.916,0.801
		l8.373,11.812C411.946,647.389,411.985,647.805,411.853,648.188z M407.605,619.853l-4.414,11.921l-6.824-0.789l-0.531-0.062
		l1.191-5.951l3.579-1.751c0.844-0.413,1.195-1.433,0.782-2.278c-0.413-0.845-1.434-1.195-2.279-0.782l-4.32,2.113
		c-0.01,0.004-0.019,0.009-0.027,0.013l-10.709,5.238c-0.685,0.335-1.472,0.337-2.159,0.005c-0.324-0.156-0.603-0.375-0.826-0.641
		l24.045-14.332c0.495-0.049,0.985,0.151,1.304,0.552l0.071,0.09c0.085,0.202,0.182,0.403,0.294,0.598l0.825,1.43
		c0.002,0.002,0.003,0.004,0.004,0.005C408.129,616.706,408.143,618.326,407.605,619.853z M416.687,612.115l-3.61,2.085
		c-0.427,0.247-0.923,0.312-1.399,0.184c-0.409-0.109-0.759-0.35-1.006-0.687c-0.295-0.734-0.672-1.442-1.138-2.107
		c-0.178-0.769,0.155-1.599,0.874-2.013l3.61-2.085c0.285-0.164,0.6-0.248,0.919-0.248c0.161,0,0.321,0.021,0.481,0.064
		c0.475,0.128,0.873,0.433,1.119,0.859l0.825,1.429C417.87,610.477,417.567,611.607,416.687,612.115z M448.497,649.757
		c-0.217,0.439-0.705,0.739-1.538,1.225c-0.106,0.062-0.215,0.125-0.324,0.19l-9.693,5.553l-0.891-0.734l7.472-6.398
		c0.803-0.683,1.364-1.631,1.58-2.671l0.982-4.763c0.962,1.56,2.274,2.921,3.884,3.965L448.497,649.757z M464.411,648.188
		c-0.019,0.054-0.035,0.109-0.048,0.166l-2.288,9.759h-1.419l0.515-5.667c0.199-2.187-0.903-4.308-2.807-5.401l-6.105-3.508
		c-3.302-1.897-5.063-5.548-4.544-9.261l1.638,0.189l6.578,0.762l8.373,11.812C464.503,647.389,464.542,647.805,464.411,648.188z
		 M467.493,607.244c0.161,0,0.322,0.021,0.481,0.064c0.475,0.128,0.873,0.433,1.12,0.859l0.825,1.429
		c0.508,0.881,0.206,2.011-0.675,2.519l-3.61,2.085c-0.426,0.247-0.923,0.312-1.399,0.184c-0.409-0.109-0.759-0.35-1.006-0.687
		c-0.294-0.734-0.672-1.442-1.137-2.106c-0.13-0.558,0.012-1.145,0.371-1.585l4.664-2.72
		C467.247,607.261,467.37,607.244,467.493,607.244z"/>
	<g>
		<path fill="#66499E" d="M650.769,514.345C651.141,514.021,650.769,514.345,650.769,514.345l7.584,1.761l-1.728,6.855l0,0
			l-0.072,0.065c-5.8,5.155-7.971,13.539-5.401,20.862c1.71,4.872,5.215,8.787,9.869,11.023c3.436,1.651,4.572,1.72,8.525,1.953
			l-5.254,4.699l3.406,5.933c-3.665-0.282-7.883-1.333-11.296-2.972c-7.222-3.47-12.661-9.544-15.314-17.105
			C637.106,536.073,641.51,522.412,650.769,514.345z"/>
		<path fill="#66499E" d="M671.217,556.778c0.949-0.181,3.649-0.725,4.578-1.051c7.633-2.679,12.386-8.324,17.891-14.861
			l17.264-19.648l1.418,6.686l7-0.133l-17.523,19.965c-5.966,7.085-12.135,14.411-22.517,18.055c-3.445,1.209-7.01,1.772-10.554,1.7
			l-3.397-5.69L671.217,556.778z"/>
		<polygon fill="none" points="709.578,522.909 709.186,523.355 709.201,523.373 		"/>
		<path fill="#0BBCD4" d="M690.038,488.906c2.034-8.398,9.558-14.627,18.511-14.752c5.223-0.066,9.606,1.958,13.71,5.174
			c0.519,0.324,1.232,0.88,1.232,0.88l6.582-0.035l3.008-4.584c-1.749-2.117-0.659-0.967-3.193-3.465
			c-5.761-5.681-13.398-8.758-21.489-8.634c-12.971,0.181-24.008,8.623-27.986,20.352l6.821-1.644L690.038,488.906z"/>
		<path fill="#0BBCD4" d="M724.009,481.281c0.726,2.05,4.149,9.96,4.149,12.202c0,3.434-0.91,6.805-2.625,9.734
			c-0.007,0.011-0.018,0.03-0.032,0.053l-4.549,5.61h13.621c0.07-0.117,0.14-0.234,0.156-0.262c2.678-4.576,4.094-9.81,4.094-15.136
			c0-4.104-3.049-13.592-5.179-17.139l-3.089,4.937H724.009z"/>
		<path fill="#903E97" d="M719.617,508.881h-11.728l3.815,4.482l-2.84,6.183h3.167h0.273h13.731h0.533h14.254
			c4.768,0,8.435,0.245,11.261,0.611l5.794-4.196l-2.864-6.154c-4.823-0.776-9.925-0.927-14.191-0.927h-5.913h-0.337h-13.621
			H719.617z"/>
		<polygon fill="#0BBCD4" points="711.674,520.324 713.37,526.9 720.073,526.9 726.036,519.546 712.304,519.546 		"/>
		<path fill="#66499E" d="M706.235,519.546h1.579l2.769-6.029l-3.946-4.637h-9.633C697.633,511.899,704.955,518.424,706.235,519.546
			z"/>
		<path fill="#0BBCD4" d="M691.513,519.546l6.067,6.596l1.074-6.699l8.086,0.729l-0.504-0.626l0,0
			c-1.28-1.122-9.273-10.666-9.231-10.666h-0.042l-0.717-0.849c-0.562-0.666-1.152-1.296-1.722-1.905
			c-0.907-0.968-1.844-1.97-2.323-2.773c-1.924-3.233-2.853-6.95-2.686-10.75c0.032-0.721,0.107-1.43,0.216-2.128l-3.059-6.923
			l-6.658,1.559c-0.65,2.243-1.047,4.594-1.154,7.023c-0.252,5.715,1.108,11.315,3.926,16.237L691.513,519.546L691.513,519.546z"/>
		<path fill="#903E97" d="M746.44,556.778c-0.949-0.181-3.649-0.725-4.578-1.051c-7.633-2.679-12.386-8.324-17.891-14.861
			l-7.847-9.401l-7.185,8.187l6.874,8.084c5.966,7.085,12.135,14.411,22.517,18.055c3.445,1.209,7.01,1.772,10.554,1.7l-6.317-4.599
			L746.44,556.778z"/>
		<polygon fill="#903E97" points="707.268,521.084 699.343,520.459 698.436,527.156 702.075,531.464 709.186,523.355 		"/>
		<path fill="#903E97" d="M768.223,515.084c-2.889-2.642-7.22-4.172-11.92-5.052l3.001,6.074l-5.863,4.246
			c4.986,0.79,6.894,1.966,7.591,2.609l0.072,0.065c5.8,5.155,7.971,13.539,5.401,20.862c-1.71,4.872-5.215,8.787-9.869,11.023
			c-3.436,1.651-5.095,2.401-8.787,1.909l-3.872,5.932l6.583,4.659c3.665-0.282,7.283-1.247,10.695-2.886
			c7.222-3.47,12.661-9.544,15.314-17.105C780.551,536.073,777.198,523.084,768.223,515.084z"/>
		<text transform="matrix(1 0 0 1 661.3204 539.8152)" fill="#DDDDDD" font-family="'Calibri-Bold'" font-size="13.5167px">Dev</text>
		<text transform="matrix(1 0 0 1 734.5616 539.8152)" fill="#DDDDDD" font-family="'Calibri-Bold'" font-size="13.5167px">Ops</text>
		<path fill="#66499E" d="M698.04,508.881h-14.956l3.953,4.935l4.585,5.731h14.005h-0.273h-13.731h-0.533h-14.254
			c-11.565,0-16.237,2.5-19.063,2.866l1.795-6.864l-7.946-1.766c2.314-1.121,8.685-4.902,25.214-4.902h5.913h0.337h13.621H698.04z"
			/>
	</g>
	<g>
		<path fill="#0B8F99" d="M708.413,486.969c0-0.063-0.019-0.121-0.057-0.172c-0.038-0.051-0.105-0.092-0.2-0.124
			c-0.095-0.032-0.221-0.057-0.377-0.076c-0.156-0.019-0.354-0.029-0.596-0.029c-0.242,0-0.443,0.01-0.606,0.029
			c-0.162,0.019-0.291,0.045-0.386,0.076c-0.095,0.032-0.162,0.073-0.2,0.124c-0.038,0.051-0.057,0.108-0.057,0.172v7.425
			c0,0.432-0.059,0.818-0.176,1.158c-0.118,0.34-0.285,0.626-0.501,0.858c-0.216,0.232-0.48,0.408-0.792,0.529
			c-0.312,0.121-0.664,0.181-1.058,0.181c-0.388,0-0.739-0.059-1.054-0.176c-0.315-0.118-0.585-0.294-0.81-0.529
			c-0.226-0.235-0.399-0.532-0.52-0.891c-0.121-0.359-0.181-0.783-0.181-1.273v-7.282c0-0.063-0.021-0.121-0.062-0.172
			c-0.041-0.051-0.11-0.092-0.205-0.124c-0.095-0.032-0.223-0.057-0.381-0.076c-0.159-0.019-0.359-0.029-0.601-0.029
			c-0.248,0-0.452,0.01-0.61,0.029c-0.159,0.019-0.288,0.045-0.386,0.076c-0.099,0.032-0.167,0.073-0.205,0.124
			c-0.038,0.051-0.057,0.108-0.057,0.172v7.502c0,0.788,0.113,1.476,0.339,2.064c0.226,0.588,0.551,1.079,0.977,1.473
			c0.426,0.394,0.947,0.688,1.564,0.882c0.617,0.194,1.313,0.291,2.088,0.291c0.826,0,1.557-0.108,2.193-0.324
			c0.636-0.216,1.17-0.53,1.602-0.944c0.432-0.413,0.76-0.918,0.982-1.516c0.222-0.597,0.334-1.274,0.334-2.03V486.969z"/>
		<path fill="#0B8F99" d="M716.685,492.602l2.746-5.033c0.108-0.229,0.18-0.41,0.215-0.543c0.035-0.133,0.017-0.235-0.052-0.305
			c-0.07-0.07-0.197-0.113-0.381-0.129c-0.185-0.016-0.435-0.024-0.753-0.024c-0.286,0-0.51,0.006-0.672,0.019
			c-0.162,0.013-0.289,0.033-0.381,0.062c-0.092,0.029-0.159,0.068-0.2,0.119c-0.041,0.051-0.081,0.114-0.119,0.191l-2.107,4.08
			l-2.165-4.08c-0.038-0.076-0.078-0.14-0.119-0.191c-0.041-0.051-0.113-0.091-0.215-0.119c-0.102-0.029-0.24-0.049-0.415-0.062
			c-0.175-0.013-0.412-0.019-0.71-0.019c-0.362,0-0.642,0.008-0.839,0.024c-0.197,0.016-0.332,0.057-0.405,0.124
			c-0.073,0.067-0.089,0.168-0.048,0.305c0.041,0.137,0.119,0.319,0.234,0.548l2.746,5.061l-2.956,5.385
			c-0.121,0.223-0.2,0.4-0.238,0.534c-0.038,0.133-0.025,0.235,0.038,0.305c0.064,0.07,0.186,0.114,0.367,0.133
			c0.181,0.019,0.437,0.029,0.768,0.029c0.286,0,0.516-0.007,0.691-0.019c0.175-0.013,0.311-0.033,0.41-0.062
			c0.099-0.029,0.17-0.068,0.215-0.119c0.044-0.051,0.086-0.114,0.124-0.191l2.308-4.451l2.317,4.451
			c0.032,0.076,0.07,0.14,0.115,0.191c0.044,0.051,0.116,0.091,0.214,0.119c0.099,0.029,0.234,0.049,0.405,0.062
			c0.172,0.013,0.407,0.019,0.706,0.019c0.356,0,0.634-0.01,0.834-0.029c0.2-0.019,0.339-0.063,0.415-0.133
			c0.076-0.07,0.097-0.172,0.062-0.305c-0.035-0.134-0.11-0.311-0.224-0.534L716.685,492.602z"/>
	</g>
	<g id="_xA9_">
		<g>
			<path fill="#68356D" d="M707.397,556.123c-0.525-0.505-1.17-0.886-1.936-1.144c-0.766-0.257-1.699-0.386-2.799-0.386h-3.166
				c-0.21,0-0.386,0.062-0.529,0.186c-0.143,0.124-0.214,0.326-0.214,0.605v10.752c0,0.28,0.071,0.481,0.214,0.605
				s0.32,0.186,0.529,0.186h2.947c1.093,0,2.036-0.119,2.827-0.357c0.792-0.238,1.464-0.611,2.017-1.12
				c0.553-0.508,0.978-1.164,1.273-1.968c0.295-0.804,0.443-1.771,0.443-2.902c0-0.979-0.137-1.84-0.41-2.583
				C708.321,557.253,707.922,556.629,707.397,556.123z M706.177,562.534c-0.156,0.534-0.391,0.98-0.706,1.339
				c-0.315,0.359-0.707,0.628-1.177,0.805c-0.471,0.178-1.049,0.267-1.736,0.267h-1.306v-8.388h1.268
				c0.769,0,1.391,0.103,1.864,0.31c0.474,0.207,0.861,0.494,1.163,0.863c0.302,0.369,0.521,0.804,0.658,1.306
				c0.137,0.502,0.205,1.045,0.205,1.63C706.41,561.377,706.332,562,706.177,562.534z M719.417,566.518
				c-0.035-0.134-0.11-0.311-0.224-0.534l-2.927-5.414l2.746-5.033c0.108-0.229,0.179-0.41,0.215-0.543
				c0.035-0.134,0.017-0.235-0.052-0.305c-0.07-0.07-0.197-0.113-0.381-0.129c-0.184-0.016-0.435-0.024-0.753-0.024
				c-0.286,0-0.51,0.006-0.672,0.019c-0.162,0.013-0.289,0.033-0.381,0.062c-0.092,0.029-0.159,0.068-0.2,0.119
				c-0.042,0.051-0.081,0.114-0.119,0.191l-2.107,4.08l-2.165-4.08c-0.038-0.076-0.078-0.14-0.119-0.191
				c-0.042-0.051-0.113-0.091-0.215-0.119c-0.102-0.029-0.24-0.049-0.415-0.062c-0.175-0.013-0.412-0.019-0.71-0.019
				c-0.362,0-0.642,0.008-0.839,0.024c-0.197,0.016-0.332,0.057-0.405,0.124c-0.073,0.067-0.089,0.168-0.048,0.305
				c0.041,0.137,0.119,0.319,0.233,0.548l2.747,5.062l-2.956,5.385c-0.121,0.223-0.2,0.4-0.238,0.534
				c-0.038,0.133-0.026,0.235,0.038,0.305c0.063,0.07,0.186,0.114,0.367,0.133c0.181,0.019,0.437,0.029,0.768,0.029
				c0.286,0,0.516-0.007,0.691-0.019c0.175-0.013,0.311-0.033,0.41-0.062s0.17-0.068,0.215-0.119
				c0.044-0.051,0.086-0.114,0.124-0.191l2.308-4.451l2.317,4.451c0.032,0.076,0.07,0.14,0.114,0.191
				c0.044,0.051,0.116,0.091,0.215,0.119c0.099,0.029,0.234,0.049,0.405,0.062c0.172,0.013,0.407,0.019,0.706,0.019
				c0.356,0,0.634-0.01,0.834-0.029c0.2-0.019,0.339-0.063,0.415-0.133C719.432,566.753,719.452,566.651,719.417,566.518z"/>
		</g>
	</g>
	<g>
		<g>
			<path fill="#FFFFFF" d="M766.354,203.23l-24.808-40.32c-0.678-1.102-1.856-1.76-3.151-1.76c-1.294,0-2.472,0.658-3.15,1.76
				l-3.221,5.235c-0.501,0.814-0.247,1.881,0.567,2.382c0.815,0.501,1.881,0.247,2.382-0.567l3.221-5.235
				c0.017-0.028,0.069-0.112,0.201-0.112c0.132,0,0.184,0.084,0.201,0.112l24.808,40.32c0.02,0.032,0.072,0.118,0.005,0.238
				s-0.168,0.121-0.206,0.121h-13.739l-38.426-62.452c-0.345-0.561-0.82-1.006-1.373-1.309c0.001,0,0.001,0.001,0.002,0.001v-11.752
				c1.441,0.391,2.845,0.558,4.218,0.558c3.949,0,7.647-1.373,11.265-2.716c5.013-1.861,9.749-3.619,14.87-1.565
				c0.66,0.265,1.407,0.185,1.996-0.214c0.59-0.399,0.943-1.063,0.943-1.775v-19.561c0-0.862-0.512-1.637-1.302-1.973
				c-6.501-2.772-12.201-0.657-17.712,1.388c-5.163,1.917-10.04,3.727-15.35,1.354c-0.536-0.24-1.156-0.191-1.649,0.128
				c-0.492,0.319-0.789,0.866-0.789,1.453v0.064c-0.03,0.129-0.047,0.262-0.047,0.4v34.211c-0.553,0.303-1.027,0.748-1.372,1.308
				l-18.243,29.65l-5.963-9.692c-0.678-1.102-1.856-1.76-3.15-1.76c-1.294,0-2.472,0.658-3.15,1.76l-24.808,40.32
				c-0.701,1.14-0.731,2.574-0.079,3.742c0.653,1.169,1.89,1.894,3.229,1.894h110.63c1.339,0,2.576-0.726,3.229-1.894
				C767.086,205.804,767.055,204.37,766.354,203.23z M709.621,109.427c5.606,1.538,10.64-0.331,15.53-2.146
				c4.837-1.796,9.421-3.497,14.346-1.762v16.824c-5.622-1.542-10.662,0.329-15.551,2.144c-4.829,1.793-9.408,3.492-14.325,1.763
				V109.427z M670.38,205.404l5.941-9.655c0.501-0.814,0.247-1.881-0.567-2.382c-0.815-0.501-1.881-0.247-2.382,0.567l-7.057,11.47
				h-13.739c-0.038,0-0.138,0-0.206-0.121c-0.067-0.121-0.015-0.206,0.005-0.238l24.808-40.32c0.017-0.028,0.069-0.112,0.201-0.112
				c0.132,0,0.184,0.084,0.201,0.112l6.88,11.181l-6.869,11.164c-0.501,0.814-0.247,1.881,0.567,2.382
				c0.815,0.501,1.881,0.247,2.382-0.567l27.145-44.119c0.017-0.028,0.069-0.112,0.201-0.112c0.131,0,0.183,0.084,0.201,0.112
				l37.309,60.637H670.38z"/>
		</g>
	</g>
</g>
<g id="Text" display="none">
	<rect x="898.141" y="686.494" display="inline" fill="none" width="201.587" height="115.7"/>
	<text transform="matrix(1 0 0 1 908.1313 721.8937)" display="inline"><tspan x="0" y="0" fill="#FFFFFF" font-family="'Lato-Regular'" font-size="48px">Personal </tspan><tspan x="17.293" y="57.6" fill="#FFFFFF" font-family="'Lato-Regular'" font-size="48px">Abililty</tspan></text>
	<rect x="561.248" y="230.897" display="inline" fill="none" width="295.349" height="115.7"/>
	
		<text transform="matrix(1 0 0 1 592.1519 266.296)" display="inline" fill="#FFFFFF" font-family="'Lato-Regular'" font-size="48px">Motivation</text>
	<rect x="268.997" y="686.494" display="inline" fill="none" width="317.252" height="115.7"/>
	<text transform="matrix(1 0 0 1 292.0132 721.8937)" display="inline"><tspan x="0" y="0" fill="#FFFFFF" font-family="'Lato-Regular'" font-size="48px">Organisation </tspan><tspan x="62.1" y="57.6" fill="#FFFFFF" font-family="'Lato-Regular'" font-size="48px">Abililty</tspan></text>
	<rect x="561.411" y="708.04" display="inline" fill="none" width="301.587" height="188.093"/>
	<text transform="matrix(1 0 0 1 654.7697 730.1646)" display="inline"><tspan x="0" y="0" fill="#FFFFFF" font-family="'Lato-Regular'" font-size="30px">Business </tspan><tspan x="5.43" y="36" fill="#FFFFFF" font-family="'Lato-Regular'" font-size="30px">as usual</tspan></text>
	<rect x="397.367" y="418.19" display="inline" fill="none" width="248.876" height="43.078"/>
	
		<text transform="matrix(1 0 0 1 455.1384 440.3147)" display="inline" fill="#FFFFFF" font-family="'Lato-Regular'" font-size="30px">Top down</text>
	<rect x="773.703" y="418.19" display="inline" fill="none" width="248.876" height="43.078"/>
	
		<text transform="matrix(1 0 0 1 825.5716 440.3147)" display="inline" fill="#FFFFFF" font-family="'Lato-Regular'" font-size="30px">Bottom Up</text>
</g>
<g id="Description" display="none">
	<rect x="380.006" y="358.27" display="inline" fill="none" width="301.587" height="188.093"/>
	<text transform="matrix(1 0 0 1 442.3528 380.3947)" display="inline"><tspan x="0" y="0" fill="#FFFFFF" font-family="'Lato-Regular'" font-size="30px">A bad system </tspan><tspan x="4.455" y="36" fill="#FFFFFF" font-family="'Lato-Regular'" font-size="30px">beats a good </tspan><tspan x="43.29" y="72" fill="#FFFFFF" font-family="'Lato-Regular'" font-size="30px">person</tspan><tspan x="51.674" y="108" fill="#FFFFFF" font-family="'Lato-Regular'" font-size="30px">every</tspan><tspan x="58.949" y="144" fill="#FFFFFF" font-family="'Lato-Regular'" font-size="30px">time</tspan></text>
	<rect x="743.781" y="380.954" display="inline" fill="none" width="301.587" height="188.093"/>
	<text transform="matrix(1 0 0 1 845.7509 403.0784)" display="inline"><tspan x="0" y="0" fill="#FFFFFF" font-family="'Lato-Regular'" font-size="30px">Agile in </tspan><tspan x="12.742" y="36" fill="#FFFFFF" font-family="'Lato-Regular'" font-size="30px">name </tspan><tspan x="20.677" y="72" fill="#FFFFFF" font-family="'Lato-Regular'" font-size="30px">only</tspan></text>
</g>
<g id="Layer_4">
	<g>
		<path fill="#FFFFFF" d="M923.383,687.502c2.176,0,4.068,0.252,5.676,0.756c1.608,0.504,2.94,1.22,3.996,2.147
			c1.057,0.929,1.844,2.049,2.364,3.36c0.52,1.313,0.78,2.776,0.78,4.392c0,1.601-0.28,3.064-0.84,4.393
			c-0.561,1.328-1.381,2.472-2.461,3.432s-2.416,1.708-4.008,2.244s-3.428,0.804-5.508,0.804h-5.52v12.864h-4.633v-34.392H923.383z
			 M923.383,705.334c1.328,0,2.5-0.177,3.516-0.528s1.873-0.844,2.568-1.477c0.696-0.632,1.22-1.388,1.572-2.268
			c0.352-0.88,0.527-1.848,0.527-2.904c0-2.191-0.676-3.903-2.027-5.136c-1.353-1.231-3.404-1.848-6.156-1.848h-5.52v14.16H923.383z
			"/>
		<path fill="#FFFFFF" d="M959.503,718.485c-0.528,0.641-1.16,1.196-1.896,1.668c-0.736,0.473-1.524,0.86-2.364,1.164
			c-0.84,0.305-1.708,0.532-2.604,0.685c-0.896,0.151-1.783,0.228-2.664,0.228c-1.68,0-3.228-0.284-4.644-0.852
			c-1.416-0.568-2.64-1.4-3.672-2.496s-1.836-2.452-2.412-4.068s-0.864-3.472-0.864-5.568c0-1.695,0.26-3.279,0.78-4.752
			c0.521-1.472,1.269-2.748,2.244-3.827c0.976-1.08,2.168-1.929,3.575-2.545c1.408-0.615,2.992-0.924,4.753-0.924
			c1.456,0,2.804,0.244,4.044,0.732s2.312,1.192,3.216,2.112c0.903,0.92,1.612,2.056,2.124,3.407
			c0.512,1.353,0.768,2.893,0.768,4.62c0,0.672-0.072,1.12-0.216,1.344c-0.144,0.225-0.416,0.337-0.815,0.337h-16.248
			c0.048,1.535,0.26,2.872,0.636,4.008s0.899,2.084,1.571,2.844c0.673,0.76,1.473,1.328,2.4,1.704s1.969,0.563,3.12,0.563
			c1.071,0,1.996-0.123,2.772-0.372c0.775-0.247,1.443-0.516,2.004-0.804c0.56-0.288,1.027-0.556,1.404-0.804
			c0.375-0.248,0.699-0.372,0.972-0.372c0.352,0,0.624,0.136,0.815,0.408L959.503,718.485z M956.047,707.086
			c0-0.992-0.141-1.9-0.42-2.725c-0.279-0.823-0.688-1.536-1.224-2.136s-1.188-1.063-1.956-1.392s-1.641-0.492-2.616-0.492
			c-2.048,0-3.668,0.596-4.86,1.788c-1.191,1.191-1.932,2.844-2.22,4.956H956.047z"/>
		<path fill="#FFFFFF" d="M969.175,702.453c0.769-1.663,1.712-2.964,2.832-3.899c1.12-0.937,2.487-1.404,4.104-1.404
			c0.512,0,1.004,0.057,1.476,0.168c0.472,0.112,0.892,0.288,1.26,0.528l-0.312,3.191c-0.096,0.4-0.336,0.601-0.721,0.601
			c-0.224,0-0.552-0.048-0.983-0.145c-0.433-0.096-0.921-0.144-1.464-0.144c-0.769,0-1.452,0.112-2.053,0.336
			c-0.6,0.225-1.136,0.556-1.607,0.996c-0.473,0.44-0.896,0.984-1.271,1.632c-0.377,0.648-0.717,1.389-1.021,2.22v15.36h-4.296
			v-24.312h2.447c0.465,0,0.784,0.088,0.961,0.264c0.176,0.176,0.295,0.479,0.359,0.912L969.175,702.453z"/>
		<path fill="#FFFFFF" d="M996.607,701.59c-0.192,0.352-0.488,0.527-0.889,0.527c-0.24,0-0.512-0.087-0.816-0.264
			c-0.304-0.176-0.676-0.372-1.115-0.588c-0.44-0.216-0.965-0.416-1.572-0.6c-0.607-0.185-1.328-0.276-2.16-0.276
			c-0.72,0-1.367,0.092-1.943,0.276c-0.576,0.184-1.068,0.436-1.477,0.756s-0.72,0.692-0.936,1.115
			c-0.217,0.425-0.324,0.885-0.324,1.381c0,0.624,0.18,1.144,0.54,1.56s0.836,0.776,1.428,1.08s1.265,0.572,2.017,0.804
			c0.752,0.232,1.523,0.48,2.315,0.744s1.563,0.557,2.316,0.876c0.751,0.32,1.424,0.72,2.016,1.2
			c0.592,0.479,1.068,1.068,1.429,1.764c0.359,0.696,0.539,1.532,0.539,2.508c0,1.12-0.199,2.156-0.6,3.108
			s-0.992,1.776-1.775,2.472c-0.785,0.696-1.744,1.244-2.881,1.645c-1.137,0.399-2.447,0.6-3.936,0.6
			c-1.696,0-3.232-0.275-4.608-0.828c-1.376-0.552-2.544-1.26-3.504-2.124l1.009-1.632c0.127-0.208,0.279-0.368,0.455-0.479
			c0.176-0.112,0.4-0.168,0.672-0.168c0.289,0,0.592,0.111,0.912,0.336c0.32,0.224,0.708,0.472,1.164,0.744
			c0.456,0.271,1.012,0.52,1.668,0.743c0.656,0.225,1.473,0.336,2.448,0.336c0.831,0,1.56-0.107,2.185-0.323
			c0.623-0.216,1.143-0.508,1.56-0.876c0.415-0.368,0.724-0.792,0.924-1.272c0.2-0.479,0.3-0.992,0.3-1.536
			c0-0.672-0.18-1.228-0.54-1.668c-0.36-0.439-0.836-0.815-1.428-1.128c-0.593-0.312-1.269-0.584-2.028-0.815
			c-0.76-0.232-1.535-0.477-2.328-0.732c-0.791-0.256-1.568-0.548-2.328-0.876s-1.436-0.74-2.027-1.236
			c-0.592-0.495-1.068-1.107-1.428-1.836c-0.36-0.728-0.541-1.611-0.541-2.651c0-0.928,0.193-1.82,0.576-2.677
			c0.385-0.855,0.944-1.607,1.681-2.256c0.735-0.647,1.64-1.164,2.712-1.548s2.295-0.576,3.672-0.576c1.6,0,3.036,0.252,4.309,0.756
			c1.271,0.505,2.371,1.196,3.299,2.076L996.607,701.59z"/>
		<path fill="#FFFFFF" d="M1013.479,697.197c1.777,0,3.377,0.297,4.801,0.889s2.64,1.432,3.648,2.52
			c1.008,1.088,1.779,2.404,2.315,3.948s0.804,3.268,0.804,5.172c0,1.92-0.268,3.648-0.804,5.184
			c-0.536,1.536-1.308,2.849-2.315,3.937c-1.009,1.088-2.225,1.924-3.648,2.508s-3.023,0.876-4.801,0.876
			c-1.791,0-3.404-0.292-4.836-0.876s-2.651-1.42-3.659-2.508c-1.009-1.088-1.78-2.4-2.316-3.937
			c-0.536-1.535-0.804-3.264-0.804-5.184c0-1.904,0.268-3.628,0.804-5.172s1.308-2.86,2.316-3.948
			c1.008-1.088,2.228-1.928,3.659-2.52S1011.688,697.197,1013.479,697.197z M1013.479,718.894c2.4,0,4.192-0.804,5.377-2.412
			c1.184-1.607,1.775-3.852,1.775-6.731c0-2.896-0.592-5.152-1.775-6.769c-1.185-1.616-2.977-2.424-5.377-2.424
			c-1.215,0-2.275,0.208-3.18,0.624s-1.656,1.017-2.256,1.8c-0.6,0.784-1.048,1.748-1.344,2.893
			c-0.297,1.144-0.443,2.436-0.443,3.876c0,2.88,0.596,5.124,1.787,6.731C1009.234,718.09,1011.047,718.894,1013.479,718.894z"/>
		<path fill="#FFFFFF" d="M1034.479,701.109c0.527-0.592,1.088-1.128,1.68-1.607c0.592-0.48,1.221-0.893,1.885-1.236
			c0.663-0.344,1.367-0.608,2.111-0.792s1.549-0.276,2.412-0.276c1.328,0,2.5,0.221,3.516,0.66c1.016,0.44,1.864,1.064,2.545,1.872
			c0.68,0.809,1.195,1.78,1.547,2.916c0.353,1.137,0.529,2.393,0.529,3.768v15.48h-4.297v-15.48c0-1.839-0.42-3.268-1.26-4.283
			c-0.84-1.017-2.116-1.524-3.828-1.524c-1.264,0-2.444,0.305-3.54,0.912c-1.096,0.608-2.108,1.432-3.036,2.472v17.904h-4.296
			v-24.312h2.568c0.608,0,0.983,0.296,1.128,0.888L1034.479,701.109z"/>
		<path fill="#FFFFFF" d="M1056.605,701.014c1.345-1.296,2.793-2.264,4.345-2.904c1.552-0.64,3.272-0.96,5.16-0.96
			c1.359,0,2.567,0.225,3.624,0.672c1.056,0.448,1.943,1.072,2.664,1.872c0.72,0.801,1.264,1.769,1.632,2.904
			s0.552,2.384,0.552,3.744v15.552h-1.896c-0.416,0-0.735-0.068-0.959-0.204c-0.225-0.136-0.4-0.403-0.528-0.804l-0.479-2.304
			c-0.641,0.592-1.265,1.115-1.873,1.571c-0.607,0.456-1.248,0.84-1.92,1.152c-0.672,0.312-1.388,0.552-2.147,0.72
			c-0.761,0.168-1.604,0.252-2.532,0.252c-0.944,0-1.832-0.132-2.664-0.396c-0.832-0.265-1.557-0.66-2.172-1.188
			c-0.616-0.527-1.104-1.195-1.464-2.004c-0.36-0.808-0.54-1.764-0.54-2.868c0-0.96,0.264-1.884,0.792-2.771
			c0.528-0.889,1.384-1.676,2.567-2.364c1.185-0.688,2.729-1.252,4.633-1.692c1.904-0.439,4.24-0.691,7.008-0.756v-1.896
			c0-1.888-0.408-3.316-1.225-4.284c-0.815-0.968-2.008-1.452-3.576-1.452c-1.055,0-1.939,0.132-2.651,0.396
			c-0.712,0.264-1.328,0.56-1.849,0.888c-0.52,0.328-0.967,0.624-1.344,0.888c-0.375,0.265-0.748,0.396-1.115,0.396
			c-0.288,0-0.537-0.076-0.744-0.229c-0.209-0.151-0.385-0.34-0.528-0.563L1056.605,701.014z M1070.406,710.949
			c-1.969,0.064-3.645,0.221-5.027,0.469c-1.385,0.248-2.513,0.572-3.385,0.972c-0.872,0.4-1.504,0.872-1.896,1.416
			c-0.392,0.544-0.588,1.152-0.588,1.824c0,0.64,0.104,1.191,0.313,1.655c0.207,0.465,0.492,0.845,0.852,1.141
			c0.36,0.296,0.784,0.512,1.272,0.647c0.487,0.137,1.012,0.204,1.571,0.204c0.752,0,1.44-0.075,2.064-0.228s1.213-0.372,1.764-0.66
			c0.553-0.288,1.08-0.632,1.584-1.032c0.504-0.399,0.996-0.855,1.477-1.368V710.949z"/>
		<path fill="#FFFFFF" d="M1085.502,686.542v35.352h-4.272v-35.352H1085.502z"/>
		<path fill="#FFFFFF" d="M958.412,779.493h-3.6c-0.416,0-0.753-0.104-1.008-0.312c-0.257-0.208-0.449-0.473-0.576-0.792
			l-3.217-8.305H934.58l-3.216,8.305c-0.097,0.287-0.28,0.544-0.552,0.768c-0.272,0.225-0.609,0.336-1.008,0.336h-3.601
			l13.752-34.392h4.704L958.412,779.493z M948.716,766.726l-5.399-13.992c-0.16-0.416-0.328-0.9-0.504-1.452
			c-0.177-0.552-0.345-1.14-0.504-1.764c-0.336,1.296-0.681,2.376-1.033,3.239l-5.399,13.969H948.716z"/>
		<path fill="#FFFFFF" d="M966.14,758.686c1.023-1.185,2.18-2.128,3.468-2.832c1.287-0.704,2.771-1.057,4.452-1.057
			c1.424,0,2.708,0.272,3.853,0.816c1.143,0.544,2.115,1.332,2.916,2.364c0.799,1.031,1.411,2.284,1.836,3.756
			c0.424,1.472,0.635,3.128,0.635,4.968c0,1.968-0.239,3.76-0.719,5.376c-0.48,1.616-1.173,2.996-2.076,4.14
			c-0.904,1.145-2.004,2.032-3.301,2.664c-1.295,0.632-2.752,0.948-4.367,0.948c-1.601,0-2.949-0.3-4.045-0.9
			c-1.096-0.6-2.052-1.451-2.867-2.556l-0.217,2.208c-0.128,0.608-0.496,0.912-1.104,0.912h-2.76v-35.352h4.296V758.686z
			 M966.14,773.637c0.784,1.057,1.644,1.801,2.579,2.232c0.937,0.432,1.965,0.648,3.085,0.648c2.288,0,4.04-0.809,5.256-2.425
			c1.216-1.615,1.823-4.023,1.823-7.224c0-2.976-0.539-5.164-1.619-6.564c-1.08-1.399-2.62-2.1-4.62-2.1
			c-1.392,0-2.604,0.32-3.636,0.96c-1.032,0.641-1.988,1.544-2.868,2.712V773.637z"/>
		<path fill="#FFFFFF" d="M994.147,747.549c0,0.417-0.084,0.805-0.252,1.164c-0.168,0.36-0.393,0.681-0.673,0.96
			c-0.279,0.28-0.607,0.501-0.983,0.66c-0.376,0.16-0.772,0.24-1.188,0.24s-0.803-0.08-1.164-0.24
			c-0.359-0.159-0.676-0.38-0.947-0.66c-0.272-0.279-0.488-0.6-0.648-0.96c-0.16-0.359-0.24-0.747-0.24-1.164
			c0-0.416,0.08-0.812,0.24-1.188s0.376-0.704,0.648-0.984c0.271-0.279,0.588-0.5,0.947-0.66c0.361-0.159,0.748-0.239,1.164-0.239
			s0.813,0.08,1.188,0.239c0.376,0.16,0.704,0.381,0.983,0.66c0.28,0.28,0.505,0.608,0.673,0.984S994.147,747.133,994.147,747.549z
			 M993.235,755.182v24.312h-4.272v-24.312H993.235z"/>
		<path fill="#FFFFFF" d="M1004.658,744.142v35.352h-4.271v-35.352H1004.658z"/>
		<path fill="#FFFFFF" d="M1016.994,747.549c0,0.417-0.084,0.805-0.252,1.164c-0.168,0.36-0.393,0.681-0.672,0.96
			c-0.28,0.28-0.608,0.501-0.984,0.66c-0.376,0.16-0.771,0.24-1.188,0.24s-0.805-0.08-1.164-0.24c-0.36-0.159-0.676-0.38-0.948-0.66
			c-0.272-0.279-0.488-0.6-0.647-0.96c-0.16-0.359-0.24-0.747-0.24-1.164c0-0.416,0.08-0.812,0.24-1.188
			c0.159-0.376,0.375-0.704,0.647-0.984c0.272-0.279,0.588-0.5,0.948-0.66c0.359-0.159,0.748-0.239,1.164-0.239
			s0.812,0.08,1.188,0.239c0.376,0.16,0.704,0.381,0.984,0.66c0.279,0.28,0.504,0.608,0.672,0.984
			S1016.994,747.133,1016.994,747.549z M1016.082,755.182v24.312h-4.271v-24.312H1016.082z"/>
		<path fill="#FFFFFF" d="M1027.506,744.142v35.352h-4.272v-35.352H1027.506z"/>
		<path fill="#FFFFFF" d="M1041.882,779.877c-1.92,0-3.396-0.536-4.429-1.607c-1.031-1.072-1.547-2.616-1.547-4.633v-14.88h-2.929
			c-0.256,0-0.472-0.075-0.647-0.228c-0.177-0.152-0.264-0.388-0.264-0.708v-1.704l3.983-0.504l0.983-7.512
			c0.049-0.24,0.156-0.437,0.324-0.589c0.168-0.151,0.389-0.228,0.66-0.228h2.16v8.376h7.031v3.096h-7.031v14.593
			c0,1.023,0.248,1.784,0.744,2.279c0.496,0.496,1.136,0.744,1.92,0.744c0.447,0,0.836-0.06,1.164-0.18s0.611-0.252,0.852-0.396
			c0.24-0.144,0.444-0.275,0.612-0.396s0.315-0.181,0.444-0.181c0.224,0,0.424,0.137,0.6,0.408l1.248,2.04
			c-0.736,0.688-1.624,1.229-2.664,1.62S1042.986,779.877,1041.882,779.877z"/>
		<path fill="#FFFFFF" d="M1072.601,755.182l-13.56,31.487c-0.145,0.32-0.324,0.576-0.541,0.769
			c-0.215,0.191-0.547,0.288-0.995,0.288h-3.168l4.44-9.648l-10.033-22.896h3.697c0.367,0,0.659,0.092,0.875,0.275
			c0.217,0.185,0.364,0.389,0.444,0.612l6.504,15.312c0.256,0.672,0.472,1.377,0.647,2.112c0.225-0.752,0.465-1.464,0.721-2.136
			l6.313-15.288c0.096-0.256,0.26-0.468,0.491-0.636s0.492-0.252,0.78-0.252H1072.601z"/>
	</g>
	<g>
		<path fill="#FFFFFF" d="M633.334,231.904v34.392h-4.08v-25.272c0-0.336,0.012-0.695,0.036-1.079
			c0.024-0.385,0.052-0.776,0.084-1.177l-11.808,21.504c-0.369,0.721-0.928,1.08-1.68,1.08h-0.672c-0.752,0-1.313-0.359-1.68-1.08
			l-12.048-21.6c0.096,0.849,0.144,1.632,0.144,2.352v25.272h-4.08v-34.392h3.432c0.416,0,0.735,0.04,0.96,0.119
			c0.224,0.081,0.439,0.305,0.648,0.673l11.88,21.168c0.192,0.384,0.38,0.784,0.564,1.199c0.184,0.417,0.356,0.841,0.516,1.272
			c0.16-0.432,0.328-0.86,0.504-1.284c0.176-0.424,0.368-0.828,0.576-1.212l11.664-21.144c0.192-0.368,0.404-0.592,0.636-0.673
			c0.232-0.079,0.556-0.119,0.972-0.119H633.334z"/>
		<path fill="#FFFFFF" d="M650.615,241.6c1.776,0,3.376,0.297,4.8,0.889c1.424,0.592,2.64,1.432,3.648,2.52
			c1.008,1.088,1.78,2.404,2.316,3.948c0.536,1.544,0.804,3.268,0.804,5.172c0,1.92-0.269,3.648-0.804,5.184
			c-0.536,1.536-1.308,2.849-2.316,3.937c-1.008,1.088-2.224,1.924-3.648,2.508c-1.424,0.584-3.024,0.876-4.8,0.876
			c-1.792,0-3.404-0.292-4.836-0.876c-1.432-0.584-2.652-1.42-3.66-2.508c-1.008-1.088-1.78-2.4-2.316-3.937
			c-0.536-1.535-0.804-3.264-0.804-5.184c0-1.904,0.268-3.628,0.804-5.172s1.308-2.86,2.316-3.948
			c1.008-1.088,2.228-1.928,3.66-2.52C647.21,241.896,648.823,241.6,650.615,241.6z M650.615,263.296c2.4,0,4.192-0.804,5.376-2.412
			c1.184-1.607,1.776-3.852,1.776-6.731c0-2.896-0.592-5.152-1.776-6.769s-2.976-2.424-5.376-2.424c-1.216,0-2.276,0.208-3.18,0.624
			c-0.904,0.416-1.656,1.017-2.256,1.8c-0.6,0.784-1.048,1.748-1.344,2.893c-0.296,1.144-0.444,2.436-0.444,3.876
			c0,2.88,0.596,5.124,1.788,6.731C646.371,262.492,648.183,263.296,650.615,263.296z"/>
		<path fill="#FFFFFF" d="M689.71,266.296h-4.272V245.56h-12.528v14.593c0,1.023,0.248,1.784,0.744,2.279
			c0.496,0.496,1.136,0.744,1.92,0.744c0.448,0,0.836-0.06,1.164-0.18c0.328-0.12,0.612-0.252,0.852-0.396
			c0.24-0.144,0.444-0.275,0.612-0.396s0.316-0.181,0.444-0.181c0.224,0,0.424,0.137,0.6,0.408l1.248,2.04
			c-0.736,0.688-1.624,1.229-2.664,1.62s-2.112,0.588-3.216,0.588c-1.92,0-3.396-0.536-4.428-1.607
			c-1.032-1.072-1.548-2.616-1.548-4.633v-14.88h-2.928c-0.256,0-0.472-0.075-0.648-0.228c-0.176-0.152-0.264-0.388-0.264-0.708
			v-1.704l3.984-0.528l0.984-7.487c0.048-0.24,0.156-0.437,0.324-0.589c0.168-0.151,0.388-0.228,0.66-0.228h2.16v8.376h16.8V266.296
			z M690.767,234.184c0,0.417-0.084,0.805-0.252,1.164c-0.168,0.36-0.392,0.677-0.672,0.948c-0.28,0.272-0.604,0.488-0.972,0.648
			c-0.368,0.16-0.76,0.239-1.176,0.239c-0.417,0-0.804-0.079-1.164-0.239c-0.36-0.16-0.676-0.376-0.948-0.648
			c-0.272-0.271-0.488-0.588-0.648-0.948c-0.16-0.359-0.24-0.747-0.24-1.164c0-0.416,0.08-0.812,0.24-1.188
			c0.16-0.376,0.376-0.704,0.648-0.984c0.272-0.279,0.588-0.5,0.948-0.66c0.36-0.159,0.748-0.239,1.164-0.239
			c0.416,0,0.808,0.08,1.176,0.239c0.368,0.16,0.692,0.381,0.972,0.66c0.28,0.28,0.504,0.608,0.672,0.984
			S690.767,233.768,690.767,234.184z"/>
		<path fill="#FFFFFF" d="M717.55,241.984l-9.911,24.312h-3.841l-9.912-24.312h3.48c0.352,0,0.64,0.088,0.864,0.264
			s0.376,0.384,0.456,0.624l6.168,15.647c0.191,0.593,0.359,1.169,0.504,1.729c0.144,0.561,0.279,1.12,0.408,1.68
			c0.128-0.56,0.264-1.119,0.407-1.68c0.145-0.56,0.32-1.136,0.528-1.729l6.24-15.647c0.096-0.256,0.256-0.468,0.479-0.636
			c0.225-0.168,0.488-0.252,0.792-0.252H717.55z"/>
		<path fill="#FFFFFF" d="M720.334,245.416c1.345-1.296,2.792-2.264,4.345-2.904c1.552-0.64,3.271-0.96,5.16-0.96
			c1.359,0,2.567,0.225,3.624,0.672c1.056,0.448,1.943,1.072,2.663,1.872c0.721,0.801,1.265,1.769,1.633,2.904
			c0.367,1.136,0.552,2.384,0.552,3.744v15.552h-1.896c-0.416,0-0.735-0.068-0.96-0.204c-0.224-0.136-0.399-0.403-0.527-0.804
			l-0.48-2.304c-0.64,0.592-1.264,1.115-1.872,1.571s-1.248,0.84-1.92,1.152c-0.672,0.312-1.388,0.552-2.147,0.72
			c-0.761,0.168-1.604,0.252-2.532,0.252c-0.944,0-1.832-0.132-2.664-0.396c-0.832-0.265-1.557-0.66-2.172-1.188
			c-0.616-0.527-1.104-1.195-1.464-2.004c-0.36-0.808-0.54-1.764-0.54-2.868c0-0.96,0.264-1.884,0.792-2.771
			c0.527-0.889,1.384-1.676,2.567-2.364c1.185-0.688,2.729-1.252,4.632-1.692c1.904-0.439,4.24-0.691,7.009-0.756v-1.896
			c0-1.888-0.408-3.316-1.225-4.284c-0.815-0.968-2.008-1.452-3.576-1.452c-1.056,0-1.939,0.132-2.651,0.396
			c-0.712,0.264-1.328,0.56-1.849,0.888c-0.52,0.328-0.968,0.624-1.344,0.888c-0.376,0.265-0.748,0.396-1.116,0.396
			c-0.287,0-0.536-0.076-0.743-0.229c-0.209-0.151-0.385-0.34-0.528-0.563L720.334,245.416z M734.135,255.352
			c-1.969,0.064-3.645,0.221-5.028,0.469s-2.512,0.572-3.384,0.972c-0.872,0.4-1.504,0.872-1.896,1.416
			c-0.392,0.544-0.588,1.152-0.588,1.824c0,0.64,0.104,1.191,0.313,1.655c0.207,0.465,0.491,0.845,0.852,1.141
			s0.784,0.512,1.272,0.647c0.487,0.137,1.012,0.204,1.571,0.204c0.752,0,1.44-0.075,2.064-0.228s1.212-0.372,1.764-0.66
			s1.08-0.632,1.584-1.032c0.504-0.399,0.996-0.855,1.477-1.368V255.352z"/>
		<path fill="#FFFFFF" d="M767.063,266.296h-4.272V245.56h-12.527v14.593c0,1.023,0.248,1.784,0.744,2.279
			c0.495,0.496,1.136,0.744,1.92,0.744c0.447,0,0.836-0.06,1.164-0.18c0.327-0.12,0.611-0.252,0.852-0.396
			c0.24-0.144,0.444-0.275,0.612-0.396s0.315-0.181,0.443-0.181c0.225,0,0.424,0.137,0.601,0.408l1.248,2.04
			c-0.736,0.688-1.624,1.229-2.664,1.62s-2.112,0.588-3.216,0.588c-1.92,0-3.396-0.536-4.429-1.607
			c-1.031-1.072-1.548-2.616-1.548-4.633v-14.88h-2.928c-0.256,0-0.473-0.075-0.648-0.228s-0.264-0.388-0.264-0.708v-1.704
			l3.984-0.528l0.983-7.487c0.048-0.24,0.156-0.437,0.324-0.589c0.168-0.151,0.388-0.228,0.66-0.228h2.16v8.376h16.8V266.296z
			 M768.118,234.184c0,0.417-0.084,0.805-0.252,1.164c-0.168,0.36-0.392,0.677-0.672,0.948c-0.28,0.272-0.604,0.488-0.972,0.648
			c-0.368,0.16-0.761,0.239-1.176,0.239c-0.417,0-0.805-0.079-1.164-0.239c-0.36-0.16-0.677-0.376-0.948-0.648
			c-0.272-0.271-0.488-0.588-0.648-0.948c-0.16-0.359-0.239-0.747-0.239-1.164c0-0.416,0.079-0.812,0.239-1.188
			s0.376-0.704,0.648-0.984c0.271-0.279,0.588-0.5,0.948-0.66c0.359-0.159,0.747-0.239,1.164-0.239c0.415,0,0.808,0.08,1.176,0.239
			c0.367,0.16,0.691,0.381,0.972,0.66c0.28,0.28,0.504,0.608,0.672,0.984S768.118,233.768,768.118,234.184z"/>
		<path fill="#FFFFFF" d="M784.318,241.6c1.776,0,3.376,0.297,4.801,0.889c1.424,0.592,2.64,1.432,3.647,2.52
			s1.78,2.404,2.316,3.948c0.535,1.544,0.804,3.268,0.804,5.172c0,1.92-0.269,3.648-0.804,5.184
			c-0.536,1.536-1.309,2.849-2.316,3.937s-2.224,1.924-3.647,2.508c-1.425,0.584-3.024,0.876-4.801,0.876
			c-1.792,0-3.404-0.292-4.836-0.876s-2.651-1.42-3.659-2.508c-1.009-1.088-1.78-2.4-2.316-3.937
			c-0.536-1.535-0.804-3.264-0.804-5.184c0-1.904,0.268-3.628,0.804-5.172s1.308-2.86,2.316-3.948
			c1.008-1.088,2.228-1.928,3.659-2.52S782.526,241.6,784.318,241.6z M784.318,263.296c2.4,0,4.192-0.804,5.376-2.412
			c1.185-1.607,1.776-3.852,1.776-6.731c0-2.896-0.592-5.152-1.776-6.769c-1.184-1.616-2.976-2.424-5.376-2.424
			c-1.216,0-2.275,0.208-3.18,0.624s-1.656,1.017-2.256,1.8c-0.6,0.784-1.048,1.748-1.344,2.893
			c-0.297,1.144-0.444,2.436-0.444,3.876c0,2.88,0.596,5.124,1.788,6.731C780.074,262.492,781.887,263.296,784.318,263.296z"/>
		<path fill="#FFFFFF" d="M805.317,245.512c0.528-0.592,1.088-1.128,1.681-1.607c0.592-0.48,1.22-0.893,1.884-1.236
			c0.663-0.344,1.368-0.608,2.111-0.792c0.744-0.184,1.549-0.276,2.412-0.276c1.328,0,2.5,0.221,3.517,0.66
			c1.016,0.44,1.863,1.064,2.544,1.872c0.68,0.809,1.195,1.78,1.548,2.916c0.352,1.137,0.528,2.393,0.528,3.768v15.48h-4.296v-15.48
			c0-1.839-0.421-3.268-1.261-4.283c-0.84-1.017-2.116-1.524-3.828-1.524c-1.264,0-2.444,0.305-3.54,0.912
			c-1.096,0.608-2.107,1.432-3.035,2.472v17.904h-4.297v-24.312h2.568c0.608,0,0.984,0.296,1.128,0.888L805.317,245.512z"/>
	</g>
	<g>
		<path fill="#FFFFFF" d="M328.853,704.71c0,2.576-0.408,4.939-1.224,7.092s-1.968,4.004-3.456,5.556
			c-1.488,1.553-3.276,2.757-5.364,3.612s-4.396,1.284-6.924,1.284c-2.528,0-4.833-0.429-6.912-1.284
			c-2.08-0.855-3.864-2.06-5.352-3.612c-1.488-1.552-2.64-3.403-3.456-5.556s-1.224-4.516-1.224-7.092s0.408-4.94,1.224-7.093
			c0.816-2.151,1.968-4.008,3.456-5.567c1.488-1.561,3.272-2.772,5.352-3.637c2.08-0.863,4.384-1.296,6.912-1.296
			c2.528,0,4.836,0.433,6.924,1.296c2.088,0.864,3.876,2.076,5.364,3.637c1.488,1.56,2.64,3.416,3.456,5.567
			C328.444,699.77,328.853,702.134,328.853,704.71z M324.077,704.71c0-2.112-0.288-4.009-0.864-5.688
			c-0.576-1.68-1.392-3.1-2.448-4.26s-2.336-2.052-3.84-2.676c-1.504-0.624-3.185-0.937-5.04-0.937c-1.84,0-3.512,0.313-5.016,0.937
			c-1.504,0.624-2.788,1.516-3.852,2.676c-1.064,1.16-1.884,2.58-2.46,4.26s-0.864,3.576-0.864,5.688
			c0,2.111,0.288,4.004,0.864,5.676s1.396,3.088,2.46,4.248c1.064,1.16,2.348,2.048,3.852,2.664
			c1.504,0.616,3.176,0.924,5.016,0.924c1.855,0,3.536-0.308,5.04-0.924c1.503-0.616,2.784-1.504,3.84-2.664
			s1.872-2.576,2.448-4.248C323.789,708.714,324.077,706.821,324.077,704.71z"/>
		<path fill="#FFFFFF" d="M338.069,702.453c0.768-1.663,1.712-2.964,2.832-3.899c1.12-0.937,2.488-1.404,4.104-1.404
			c0.512,0,1.004,0.057,1.476,0.168c0.472,0.112,0.892,0.288,1.26,0.528l-0.312,3.191c-0.096,0.4-0.336,0.601-0.72,0.601
			c-0.224,0-0.552-0.048-0.984-0.145c-0.432-0.096-0.92-0.144-1.464-0.144c-0.768,0-1.452,0.112-2.052,0.336
			c-0.6,0.225-1.136,0.556-1.608,0.996c-0.472,0.44-0.896,0.984-1.272,1.632c-0.376,0.648-0.716,1.389-1.02,2.22v15.36h-4.296
			v-24.312h2.448c0.464,0,0.784,0.088,0.96,0.264c0.176,0.176,0.296,0.479,0.36,0.912L338.069,702.453z"/>
		<path fill="#FFFFFF" d="M371.453,698.542v1.584c0,0.527-0.336,0.863-1.008,1.008l-2.76,0.359c0.543,1.057,0.816,2.225,0.816,3.504
			c0,1.185-0.228,2.261-0.684,3.229s-1.084,1.796-1.884,2.484c-0.8,0.688-1.76,1.216-2.88,1.584
			c-1.12,0.368-2.336,0.552-3.648,0.552c-1.136,0-2.208-0.136-3.216-0.408c-0.512,0.32-0.904,0.66-1.176,1.021
			c-0.272,0.359-0.408,0.724-0.408,1.092c0,0.576,0.236,1.012,0.708,1.308c0.472,0.296,1.092,0.508,1.86,0.636
			c0.768,0.129,1.644,0.209,2.628,0.24c0.984,0.032,1.992,0.084,3.024,0.156c1.032,0.072,2.04,0.196,3.024,0.372
			c0.984,0.176,1.86,0.464,2.628,0.864c0.768,0.399,1.388,0.952,1.86,1.655c0.472,0.704,0.708,1.616,0.708,2.736
			c0,1.04-0.26,2.048-0.78,3.024c-0.52,0.976-1.268,1.844-2.244,2.604c-0.976,0.76-2.172,1.368-3.588,1.824
			s-3.012,0.684-4.788,0.684c-1.776,0-3.328-0.176-4.656-0.527c-1.328-0.353-2.432-0.824-3.312-1.416
			c-0.88-0.593-1.54-1.276-1.98-2.053c-0.44-0.776-0.66-1.588-0.66-2.436c0-1.2,0.376-2.217,1.128-3.048
			c0.751-0.832,1.784-1.496,3.096-1.992c-0.72-0.32-1.292-0.748-1.716-1.284c-0.424-0.536-0.636-1.26-0.636-2.172
			c0-0.352,0.064-0.716,0.192-1.092s0.324-0.752,0.588-1.128c0.264-0.376,0.588-0.732,0.972-1.068
			c0.384-0.336,0.832-0.632,1.344-0.888c-1.2-0.672-2.136-1.564-2.808-2.676c-0.672-1.112-1.008-2.404-1.008-3.877
			c0-1.184,0.228-2.259,0.684-3.228c0.456-0.968,1.092-1.792,1.908-2.472s1.788-1.204,2.916-1.572s2.364-0.552,3.708-0.552
			c1.056,0,2.04,0.116,2.952,0.348c0.912,0.232,1.744,0.572,2.496,1.021H371.453z M367.109,723.214c0-0.593-0.168-1.072-0.504-1.44
			s-0.789-0.655-1.356-0.864c-0.568-0.207-1.229-0.355-1.98-0.443c-0.752-0.088-1.548-0.156-2.388-0.204s-1.692-0.096-2.556-0.145
			c-0.864-0.048-1.696-0.128-2.496-0.239c-0.896,0.416-1.628,0.939-2.196,1.571s-0.852,1.372-0.852,2.221
			c0,0.543,0.14,1.052,0.42,1.523s0.708,0.88,1.284,1.225c0.576,0.344,1.3,0.615,2.172,0.815s1.9,0.3,3.084,0.3
			c1.152,0,2.184-0.104,3.096-0.312s1.684-0.504,2.316-0.888c0.632-0.385,1.116-0.841,1.452-1.368
			C366.941,724.438,367.109,723.854,367.109,723.214z M359.405,710.014c0.864,0,1.624-0.12,2.28-0.36
			c0.656-0.24,1.208-0.576,1.656-1.008c0.448-0.432,0.784-0.948,1.008-1.548c0.224-0.601,0.336-1.26,0.336-1.98
			c0-1.487-0.453-2.672-1.356-3.552s-2.212-1.32-3.924-1.32c-1.728,0-3.044,0.44-3.948,1.32c-0.904,0.88-1.356,2.064-1.356,3.552
			c0,0.721,0.116,1.38,0.348,1.98c0.232,0.6,0.572,1.116,1.02,1.548c0.448,0.432,1,0.768,1.656,1.008
			C357.781,709.894,358.541,710.014,359.405,710.014z"/>
		<path fill="#FFFFFF" d="M375.268,701.014c1.344-1.296,2.792-2.264,4.344-2.904c1.552-0.64,3.272-0.96,5.16-0.96
			c1.359,0,2.568,0.225,3.624,0.672c1.056,0.448,1.944,1.072,2.664,1.872c0.72,0.801,1.264,1.769,1.632,2.904
			c0.368,1.136,0.552,2.384,0.552,3.744v15.552h-1.896c-0.416,0-0.736-0.068-0.96-0.204s-0.4-0.403-0.528-0.804l-0.48-2.304
			c-0.64,0.592-1.264,1.115-1.872,1.571c-0.608,0.456-1.248,0.84-1.92,1.152c-0.672,0.312-1.388,0.552-2.148,0.72
			c-0.76,0.168-1.604,0.252-2.532,0.252c-0.944,0-1.832-0.132-2.664-0.396c-0.832-0.265-1.556-0.66-2.172-1.188
			c-0.616-0.527-1.104-1.195-1.464-2.004c-0.36-0.808-0.54-1.764-0.54-2.868c0-0.96,0.264-1.884,0.792-2.771
			c0.528-0.889,1.384-1.676,2.568-2.364c1.184-0.688,2.728-1.252,4.632-1.692c1.904-0.439,4.24-0.691,7.008-0.756v-1.896
			c0-1.888-0.408-3.316-1.224-4.284s-2.008-1.452-3.576-1.452c-1.056,0-1.94,0.132-2.652,0.396c-0.712,0.264-1.328,0.56-1.848,0.888
			s-0.968,0.624-1.344,0.888c-0.376,0.265-0.748,0.396-1.116,0.396c-0.288,0-0.536-0.076-0.744-0.229
			c-0.208-0.151-0.384-0.34-0.528-0.563L375.268,701.014z M389.068,710.949c-1.968,0.064-3.645,0.221-5.028,0.469
			c-1.384,0.248-2.512,0.572-3.384,0.972c-0.872,0.4-1.504,0.872-1.896,1.416s-0.588,1.152-0.588,1.824
			c0,0.64,0.104,1.191,0.312,1.655c0.208,0.465,0.492,0.845,0.852,1.141c0.36,0.296,0.784,0.512,1.272,0.647
			c0.488,0.137,1.012,0.204,1.572,0.204c0.752,0,1.44-0.075,2.064-0.228s1.212-0.372,1.764-0.66s1.08-0.632,1.584-1.032
			c0.504-0.399,0.996-0.855,1.476-1.368V710.949z"/>
		<path fill="#FFFFFF" d="M403.78,701.109c0.528-0.592,1.088-1.128,1.68-1.607c0.592-0.48,1.22-0.893,1.884-1.236
			c0.664-0.344,1.368-0.608,2.112-0.792c0.744-0.184,1.548-0.276,2.412-0.276c1.328,0,2.5,0.221,3.516,0.66
			c1.016,0.44,1.864,1.064,2.544,1.872c0.68,0.809,1.196,1.78,1.548,2.916c0.352,1.137,0.528,2.393,0.528,3.768v15.48h-4.296v-15.48
			c0-1.839-0.42-3.268-1.26-4.283c-0.84-1.017-2.116-1.524-3.828-1.524c-1.264,0-2.444,0.305-3.54,0.912
			c-1.096,0.608-2.108,1.432-3.036,2.472v17.904h-4.296v-24.312h2.568c0.608,0,0.984,0.296,1.128,0.888L403.78,701.109z"/>
		<path fill="#FFFFFF" d="M431.957,689.949c0,0.417-0.084,0.805-0.252,1.164c-0.168,0.36-0.393,0.681-0.672,0.96
			c-0.28,0.28-0.608,0.501-0.984,0.66c-0.376,0.16-0.772,0.24-1.188,0.24s-0.804-0.08-1.164-0.24c-0.36-0.159-0.676-0.38-0.948-0.66
			c-0.272-0.279-0.488-0.6-0.648-0.96c-0.16-0.359-0.24-0.747-0.24-1.164c0-0.416,0.08-0.812,0.24-1.188
			c0.16-0.376,0.375-0.704,0.648-0.984c0.272-0.279,0.588-0.5,0.948-0.66c0.36-0.159,0.748-0.239,1.164-0.239
			s0.812,0.08,1.188,0.239c0.376,0.16,0.704,0.381,0.984,0.66c0.28,0.28,0.504,0.608,0.672,0.984S431.957,689.533,431.957,689.949z
			 M431.044,697.582v24.312h-4.272v-24.312H431.044z"/>
		<path fill="#FFFFFF" d="M452.212,701.59c-0.192,0.352-0.488,0.527-0.888,0.527c-0.24,0-0.512-0.087-0.816-0.264
			c-0.304-0.176-0.676-0.372-1.116-0.588c-0.44-0.216-0.964-0.416-1.572-0.6c-0.608-0.185-1.328-0.276-2.16-0.276
			c-0.72,0-1.368,0.092-1.944,0.276c-0.576,0.184-1.068,0.436-1.476,0.756c-0.408,0.32-0.72,0.692-0.936,1.115
			c-0.216,0.425-0.324,0.885-0.324,1.381c0,0.624,0.18,1.144,0.54,1.56s0.836,0.776,1.428,1.08s1.264,0.572,2.016,0.804
			c0.752,0.232,1.524,0.48,2.316,0.744s1.564,0.557,2.316,0.876c0.751,0.32,1.424,0.72,2.016,1.2
			c0.592,0.479,1.068,1.068,1.428,1.764c0.36,0.696,0.54,1.532,0.54,2.508c0,1.12-0.2,2.156-0.6,3.108s-0.992,1.776-1.776,2.472
			c-0.784,0.696-1.744,1.244-2.88,1.645c-1.136,0.399-2.448,0.6-3.936,0.6c-1.696,0-3.232-0.275-4.608-0.828
			c-1.376-0.552-2.544-1.26-3.504-2.124l1.008-1.632c0.127-0.208,0.279-0.368,0.456-0.479c0.176-0.112,0.4-0.168,0.672-0.168
			c0.288,0,0.592,0.111,0.912,0.336c0.32,0.224,0.708,0.472,1.164,0.744c0.456,0.271,1.012,0.52,1.668,0.743
			c0.656,0.225,1.472,0.336,2.448,0.336c0.832,0,1.56-0.107,2.184-0.323s1.144-0.508,1.56-0.876
			c0.416-0.368,0.724-0.792,0.924-1.272c0.2-0.479,0.3-0.992,0.3-1.536c0-0.672-0.18-1.228-0.54-1.668
			c-0.36-0.439-0.836-0.815-1.428-1.128c-0.592-0.312-1.268-0.584-2.028-0.815c-0.76-0.232-1.536-0.477-2.328-0.732
			s-1.568-0.548-2.328-0.876c-0.76-0.328-1.436-0.74-2.028-1.236c-0.592-0.495-1.068-1.107-1.428-1.836
			c-0.36-0.728-0.54-1.611-0.54-2.651c0-0.928,0.192-1.82,0.576-2.677c0.384-0.855,0.944-1.607,1.68-2.256
			c0.735-0.647,1.64-1.164,2.712-1.548c1.072-0.384,2.295-0.576,3.672-0.576c1.6,0,3.036,0.252,4.308,0.756
			c1.272,0.505,2.372,1.196,3.3,2.076L452.212,701.59z"/>
		<path fill="#FFFFFF" d="M458.212,701.014c1.344-1.296,2.792-2.264,4.344-2.904c1.552-0.64,3.272-0.96,5.16-0.96
			c1.359,0,2.568,0.225,3.624,0.672c1.056,0.448,1.944,1.072,2.664,1.872c0.72,0.801,1.264,1.769,1.632,2.904
			c0.368,1.136,0.552,2.384,0.552,3.744v15.552h-1.896c-0.416,0-0.736-0.068-0.96-0.204s-0.4-0.403-0.528-0.804l-0.48-2.304
			c-0.64,0.592-1.264,1.115-1.872,1.571c-0.608,0.456-1.248,0.84-1.92,1.152c-0.672,0.312-1.388,0.552-2.148,0.72
			c-0.76,0.168-1.604,0.252-2.532,0.252c-0.944,0-1.832-0.132-2.664-0.396c-0.832-0.265-1.556-0.66-2.172-1.188
			c-0.616-0.527-1.104-1.195-1.464-2.004c-0.36-0.808-0.54-1.764-0.54-2.868c0-0.96,0.264-1.884,0.792-2.771
			c0.528-0.889,1.384-1.676,2.568-2.364c1.184-0.688,2.728-1.252,4.632-1.692c1.904-0.439,4.24-0.691,7.008-0.756v-1.896
			c0-1.888-0.408-3.316-1.224-4.284s-2.008-1.452-3.576-1.452c-1.056,0-1.94,0.132-2.652,0.396c-0.712,0.264-1.328,0.56-1.848,0.888
			s-0.968,0.624-1.344,0.888c-0.376,0.265-0.748,0.396-1.116,0.396c-0.288,0-0.536-0.076-0.744-0.229
			c-0.208-0.151-0.384-0.34-0.528-0.563L458.212,701.014z M472.012,710.949c-1.968,0.064-3.645,0.221-5.028,0.469
			c-1.384,0.248-2.512,0.572-3.384,0.972c-0.872,0.4-1.504,0.872-1.896,1.416s-0.588,1.152-0.588,1.824
			c0,0.64,0.104,1.191,0.312,1.655c0.208,0.465,0.492,0.845,0.852,1.141c0.36,0.296,0.784,0.512,1.272,0.647
			c0.488,0.137,1.012,0.204,1.572,0.204c0.752,0,1.44-0.075,2.064-0.228s1.212-0.372,1.764-0.66s1.08-0.632,1.584-1.032
			c0.504-0.399,0.996-0.855,1.476-1.368V710.949z"/>
		<path fill="#FFFFFF" d="M504.94,721.894h-4.272v-20.736H488.14v14.593c0,1.023,0.248,1.784,0.744,2.279
			c0.496,0.496,1.136,0.744,1.92,0.744c0.448,0,0.836-0.06,1.164-0.18c0.328-0.12,0.612-0.252,0.852-0.396
			c0.24-0.144,0.444-0.275,0.612-0.396s0.316-0.181,0.444-0.181c0.224,0,0.424,0.137,0.6,0.408l1.248,2.04
			c-0.736,0.688-1.624,1.229-2.664,1.62s-2.112,0.588-3.216,0.588c-1.92,0-3.396-0.536-4.428-1.607
			c-1.032-1.072-1.548-2.616-1.548-4.633v-14.88h-2.928c-0.256,0-0.472-0.075-0.648-0.228c-0.176-0.152-0.264-0.388-0.264-0.708
			v-1.704l3.984-0.528l0.984-7.487c0.048-0.24,0.156-0.437,0.324-0.589c0.168-0.151,0.388-0.228,0.66-0.228h2.16v8.376h16.8V721.894
			z M505.996,689.781c0,0.417-0.084,0.805-0.252,1.164c-0.168,0.36-0.392,0.677-0.672,0.948c-0.28,0.272-0.604,0.488-0.972,0.648
			c-0.368,0.16-0.76,0.239-1.176,0.239c-0.417,0-0.804-0.079-1.164-0.239c-0.36-0.16-0.676-0.376-0.948-0.648
			c-0.272-0.271-0.488-0.588-0.648-0.948c-0.16-0.359-0.24-0.747-0.24-1.164c0-0.416,0.08-0.812,0.24-1.188
			c0.16-0.376,0.376-0.704,0.648-0.984c0.272-0.279,0.588-0.5,0.948-0.66c0.36-0.159,0.748-0.239,1.164-0.239
			c0.416,0,0.808,0.08,1.176,0.239c0.368,0.16,0.692,0.381,0.972,0.66c0.28,0.28,0.504,0.608,0.672,0.984
			S505.996,689.365,505.996,689.781z"/>
		<path fill="#FFFFFF" d="M522.196,697.197c1.776,0,3.376,0.297,4.8,0.889c1.424,0.592,2.64,1.432,3.648,2.52
			c1.008,1.088,1.78,2.404,2.316,3.948c0.536,1.544,0.804,3.268,0.804,5.172c0,1.92-0.269,3.648-0.804,5.184
			c-0.536,1.536-1.308,2.849-2.316,3.937c-1.008,1.088-2.224,1.924-3.648,2.508c-1.424,0.584-3.024,0.876-4.8,0.876
			c-1.792,0-3.404-0.292-4.836-0.876c-1.432-0.584-2.652-1.42-3.66-2.508c-1.008-1.088-1.78-2.4-2.316-3.937
			c-0.536-1.535-0.804-3.264-0.804-5.184c0-1.904,0.268-3.628,0.804-5.172s1.308-2.86,2.316-3.948
			c1.008-1.088,2.228-1.928,3.66-2.52C518.792,697.494,520.404,697.197,522.196,697.197z M522.196,718.894
			c2.4,0,4.192-0.804,5.376-2.412c1.184-1.607,1.776-3.852,1.776-6.731c0-2.896-0.592-5.152-1.776-6.769s-2.976-2.424-5.376-2.424
			c-1.216,0-2.276,0.208-3.18,0.624c-0.904,0.416-1.656,1.017-2.256,1.8c-0.6,0.784-1.048,1.748-1.344,2.893
			c-0.296,1.144-0.444,2.436-0.444,3.876c0,2.88,0.596,5.124,1.788,6.731C517.952,718.09,519.764,718.894,522.196,718.894z"/>
		<path fill="#FFFFFF" d="M543.195,701.109c0.528-0.592,1.088-1.128,1.68-1.607c0.592-0.48,1.22-0.893,1.884-1.236
			c0.664-0.344,1.368-0.608,2.112-0.792c0.744-0.184,1.548-0.276,2.412-0.276c1.328,0,2.5,0.221,3.516,0.66
			c1.016,0.44,1.864,1.064,2.544,1.872c0.68,0.809,1.196,1.78,1.548,2.916c0.352,1.137,0.528,2.393,0.528,3.768v15.48h-4.296v-15.48
			c0-1.839-0.42-3.268-1.26-4.283c-0.84-1.017-2.116-1.524-3.828-1.524c-1.264,0-2.444,0.305-3.54,0.912
			c-1.096,0.608-2.108,1.432-3.036,2.472v17.904h-4.296v-24.312h2.568c0.608,0,0.984,0.296,1.128,0.888L543.195,701.109z"/>
		<path fill="#FFFFFF" d="M387.101,779.493h-3.6c-0.416,0-0.752-0.104-1.008-0.312c-0.256-0.208-0.448-0.473-0.576-0.792
			l-3.216-8.305h-15.432l-3.216,8.305c-0.096,0.287-0.28,0.544-0.552,0.768c-0.272,0.225-0.608,0.336-1.008,0.336h-3.6
			l13.752-34.392h4.704L387.101,779.493z M377.405,766.726l-5.4-13.992c-0.16-0.416-0.328-0.9-0.504-1.452
			c-0.176-0.552-0.344-1.14-0.504-1.764c-0.336,1.296-0.68,2.376-1.032,3.239l-5.4,13.969H377.405z"/>
		<path fill="#FFFFFF" d="M394.829,758.686c1.023-1.185,2.18-2.128,3.468-2.832c1.288-0.704,2.772-1.057,4.452-1.057
			c1.424,0,2.708,0.272,3.852,0.816c1.144,0.544,2.116,1.332,2.916,2.364c0.8,1.031,1.412,2.284,1.836,3.756
			c0.424,1.472,0.636,3.128,0.636,4.968c0,1.968-0.24,3.76-0.72,5.376s-1.172,2.996-2.076,4.14c-0.904,1.145-2.004,2.032-3.3,2.664
			s-2.752,0.948-4.368,0.948c-1.6,0-2.948-0.3-4.044-0.9c-1.096-0.6-2.052-1.451-2.868-2.556l-0.216,2.208
			c-0.128,0.608-0.496,0.912-1.104,0.912h-2.76v-35.352h4.296V758.686z M394.829,773.637c0.784,1.057,1.644,1.801,2.58,2.232
			c0.936,0.432,1.964,0.648,3.084,0.648c2.288,0,4.04-0.809,5.256-2.425c1.216-1.615,1.824-4.023,1.824-7.224
			c0-2.976-0.54-5.164-1.62-6.564c-1.08-1.399-2.62-2.1-4.62-2.1c-1.392,0-2.604,0.32-3.636,0.96
			c-1.032,0.641-1.988,1.544-2.868,2.712V773.637z"/>
		<path fill="#FFFFFF" d="M422.836,747.549c0,0.417-0.084,0.805-0.252,1.164c-0.168,0.36-0.393,0.681-0.672,0.96
			c-0.28,0.28-0.608,0.501-0.984,0.66c-0.376,0.16-0.772,0.24-1.188,0.24s-0.804-0.08-1.164-0.24c-0.36-0.159-0.676-0.38-0.948-0.66
			c-0.272-0.279-0.488-0.6-0.648-0.96c-0.16-0.359-0.24-0.747-0.24-1.164c0-0.416,0.08-0.812,0.24-1.188
			c0.16-0.376,0.375-0.704,0.648-0.984c0.272-0.279,0.588-0.5,0.948-0.66c0.36-0.159,0.748-0.239,1.164-0.239
			s0.812,0.08,1.188,0.239c0.376,0.16,0.704,0.381,0.984,0.66c0.28,0.28,0.504,0.608,0.672,0.984S422.836,747.133,422.836,747.549z
			 M421.924,755.182v24.312h-4.272v-24.312H421.924z"/>
		<path fill="#FFFFFF" d="M433.348,744.142v35.352h-4.272v-35.352H433.348z"/>
		<path fill="#FFFFFF" d="M445.683,747.549c0,0.417-0.084,0.805-0.252,1.164c-0.168,0.36-0.393,0.681-0.672,0.96
			c-0.28,0.28-0.608,0.501-0.984,0.66c-0.376,0.16-0.772,0.24-1.188,0.24s-0.804-0.08-1.164-0.24c-0.36-0.159-0.676-0.38-0.948-0.66
			c-0.272-0.279-0.488-0.6-0.648-0.96c-0.16-0.359-0.24-0.747-0.24-1.164c0-0.416,0.08-0.812,0.24-1.188
			c0.16-0.376,0.375-0.704,0.648-0.984c0.272-0.279,0.588-0.5,0.948-0.66c0.36-0.159,0.748-0.239,1.164-0.239
			s0.812,0.08,1.188,0.239c0.376,0.16,0.704,0.381,0.984,0.66c0.28,0.28,0.504,0.608,0.672,0.984S445.683,747.133,445.683,747.549z
			 M444.771,755.182v24.312h-4.272v-24.312H444.771z"/>
		<path fill="#FFFFFF" d="M456.194,744.142v35.352h-4.272v-35.352H456.194z"/>
		<path fill="#FFFFFF" d="M470.571,779.877c-1.92,0-3.396-0.536-4.428-1.607c-1.032-1.072-1.548-2.616-1.548-4.633v-14.88h-2.928
			c-0.256,0-0.472-0.075-0.648-0.228c-0.176-0.152-0.264-0.388-0.264-0.708v-1.704l3.984-0.504l0.984-7.512
			c0.048-0.24,0.156-0.437,0.324-0.589c0.168-0.151,0.388-0.228,0.66-0.228h2.16v8.376h7.032v3.096h-7.032v14.593
			c0,1.023,0.248,1.784,0.744,2.279c0.496,0.496,1.136,0.744,1.92,0.744c0.448,0,0.836-0.06,1.164-0.18
			c0.328-0.12,0.612-0.252,0.852-0.396c0.24-0.144,0.444-0.275,0.612-0.396s0.316-0.181,0.444-0.181c0.224,0,0.424,0.137,0.6,0.408
			l1.248,2.04c-0.736,0.688-1.624,1.229-2.664,1.62S471.675,779.877,470.571,779.877z"/>
		<path fill="#FFFFFF" d="M501.29,755.182l-13.56,31.487c-0.144,0.32-0.324,0.576-0.54,0.769c-0.216,0.191-0.548,0.288-0.996,0.288
			h-3.168l4.44-9.648l-10.032-22.896h3.696c0.368,0,0.66,0.092,0.876,0.275c0.216,0.185,0.364,0.389,0.444,0.612l6.504,15.312
			c0.256,0.672,0.472,1.377,0.648,2.112c0.224-0.752,0.464-1.464,0.72-2.136l6.312-15.288c0.096-0.256,0.26-0.468,0.492-0.636
			s0.492-0.252,0.78-0.252H501.29z"/>
	</g>
	<g>
		<path fill="#FFFFFF" d="M664.527,708.669c1.32,0,2.458,0.13,3.413,0.39c0.955,0.261,1.74,0.631,2.355,1.11
			c0.615,0.48,1.067,1.067,1.357,1.763s0.435,1.478,0.435,2.348c0,0.53-0.083,1.037-0.248,1.522s-0.413,0.938-0.743,1.357
			s-0.748,0.798-1.252,1.133s-1.098,0.607-1.777,0.817c1.58,0.3,2.768,0.862,3.563,1.688c0.795,0.824,1.192,1.907,1.192,3.247
			c0,0.91-0.167,1.74-0.502,2.49c-0.335,0.75-0.825,1.395-1.47,1.935s-1.438,0.958-2.377,1.253s-2.01,0.442-3.21,0.442h-7.59
			v-21.495H664.527z M660.567,710.964v7.335h3.84c0.82,0,1.532-0.09,2.138-0.27c0.605-0.181,1.104-0.43,1.5-0.75
			c0.395-0.32,0.687-0.708,0.877-1.163c0.19-0.454,0.285-0.952,0.285-1.492c0-1.27-0.38-2.197-1.14-2.782
			c-0.76-0.585-1.94-0.878-3.54-0.878H660.567z M665.217,727.854c0.83,0,1.545-0.096,2.145-0.285c0.6-0.19,1.092-0.458,1.478-0.803
			c0.385-0.345,0.667-0.755,0.847-1.23c0.18-0.475,0.27-0.997,0.27-1.567c0-1.109-0.395-1.987-1.185-2.632
			c-0.791-0.646-1.975-0.968-3.555-0.968h-4.65v7.485H665.217z"/>
		<path fill="#FFFFFF" d="M688.617,714.969v15.195h-1.59c-0.38,0-0.62-0.185-0.72-0.555l-0.21-1.636
			c-0.66,0.73-1.4,1.318-2.22,1.763c-0.82,0.445-1.76,0.668-2.82,0.668c-0.83,0-1.563-0.138-2.197-0.413
			c-0.635-0.274-1.167-0.662-1.598-1.162s-0.752-1.104-0.967-1.815c-0.215-0.71-0.323-1.494-0.323-2.354v-9.69h2.67v9.69
			c0,1.15,0.263,2.04,0.788,2.67s1.328,0.945,2.408,0.945c0.79,0,1.527-0.188,2.212-0.563s1.317-0.893,1.897-1.553v-11.19H688.617z"
			/>
		<path fill="#FFFFFF" d="M701.697,717.474c-0.12,0.221-0.306,0.33-0.555,0.33c-0.151,0-0.321-0.055-0.511-0.165
			c-0.19-0.109-0.422-0.232-0.697-0.367c-0.275-0.135-0.603-0.26-0.982-0.375c-0.38-0.115-0.831-0.173-1.35-0.173
			c-0.45,0-0.855,0.058-1.215,0.173c-0.36,0.115-0.667,0.272-0.922,0.473s-0.45,0.433-0.585,0.697
			c-0.135,0.266-0.203,0.553-0.203,0.862c0,0.391,0.113,0.716,0.338,0.976c0.225,0.26,0.522,0.485,0.892,0.675
			c0.37,0.19,0.79,0.357,1.26,0.503c0.47,0.145,0.953,0.3,1.447,0.465c0.495,0.165,0.978,0.348,1.448,0.547
			c0.47,0.2,0.89,0.45,1.26,0.75c0.37,0.301,0.667,0.668,0.893,1.103c0.225,0.436,0.337,0.958,0.337,1.567
			c0,0.7-0.125,1.348-0.375,1.943c-0.25,0.595-0.62,1.109-1.109,1.545c-0.491,0.435-1.09,0.777-1.8,1.027
			c-0.71,0.25-1.53,0.375-2.46,0.375c-1.06,0-2.021-0.173-2.88-0.518s-1.59-0.788-2.19-1.328l0.63-1.02
			c0.08-0.13,0.175-0.229,0.285-0.3s0.25-0.105,0.42-0.105c0.18,0,0.37,0.07,0.57,0.21c0.2,0.141,0.442,0.295,0.728,0.465
			c0.285,0.171,0.632,0.325,1.042,0.466c0.41,0.14,0.92,0.21,1.53,0.21c0.52,0,0.975-0.067,1.365-0.203
			c0.39-0.135,0.715-0.317,0.975-0.547c0.26-0.23,0.453-0.495,0.578-0.795c0.125-0.301,0.188-0.62,0.188-0.96
			c0-0.421-0.112-0.768-0.337-1.043c-0.225-0.274-0.522-0.51-0.893-0.705s-0.792-0.365-1.268-0.51s-0.96-0.298-1.455-0.458
			c-0.495-0.159-0.98-0.342-1.455-0.547c-0.475-0.205-0.898-0.463-1.268-0.772c-0.37-0.311-0.667-0.692-0.893-1.147
			s-0.337-1.008-0.337-1.658c0-0.579,0.12-1.137,0.36-1.672c0.24-0.535,0.59-1.005,1.05-1.41s1.025-0.728,1.695-0.968
			c0.67-0.24,1.435-0.359,2.295-0.359c1,0,1.897,0.157,2.692,0.472c0.795,0.315,1.482,0.748,2.063,1.298L701.697,717.474z"/>
		<path fill="#FFFFFF" d="M709.227,710.199c0,0.26-0.052,0.502-0.157,0.728c-0.104,0.225-0.245,0.425-0.42,0.6
			s-0.38,0.313-0.615,0.413c-0.234,0.1-0.482,0.149-0.742,0.149s-0.503-0.05-0.728-0.149c-0.225-0.101-0.423-0.238-0.593-0.413
			s-0.305-0.375-0.404-0.6c-0.101-0.226-0.15-0.468-0.15-0.728s0.05-0.508,0.15-0.742c0.1-0.235,0.234-0.44,0.404-0.615
			s0.368-0.313,0.593-0.413c0.225-0.1,0.468-0.149,0.728-0.149s0.508,0.05,0.742,0.149c0.235,0.101,0.44,0.238,0.615,0.413
			s0.315,0.38,0.42,0.615C709.175,709.691,709.227,709.939,709.227,710.199z M708.657,714.969v15.195h-2.67v-15.195H708.657z"/>
		<path fill="#FFFFFF" d="M715.557,717.174c0.33-0.369,0.68-0.705,1.05-1.005s0.763-0.558,1.178-0.772s0.854-0.38,1.32-0.495
			c0.465-0.114,0.967-0.172,1.507-0.172c0.83,0,1.563,0.137,2.198,0.412c0.635,0.275,1.164,0.665,1.59,1.17
			c0.425,0.505,0.747,1.112,0.967,1.822c0.221,0.71,0.33,1.495,0.33,2.355v9.675h-2.685v-9.675c0-1.15-0.263-2.043-0.787-2.678
			c-0.525-0.635-1.323-0.952-2.393-0.952c-0.79,0-1.528,0.189-2.213,0.569c-0.686,0.381-1.317,0.896-1.897,1.545v11.19h-2.685
			v-15.195h1.604c0.38,0,0.615,0.186,0.705,0.556L715.557,717.174z"/>
		<path fill="#FFFFFF" d="M742.106,728.034c-0.33,0.4-0.726,0.747-1.186,1.042c-0.46,0.296-0.952,0.538-1.477,0.728
			c-0.525,0.19-1.068,0.333-1.628,0.428c-0.561,0.095-1.115,0.143-1.665,0.143c-1.05,0-2.018-0.178-2.902-0.532
			c-0.885-0.355-1.65-0.875-2.295-1.561c-0.646-0.685-1.147-1.532-1.508-2.542s-0.54-2.17-0.54-3.48c0-1.06,0.162-2.05,0.487-2.97
			s0.793-1.718,1.402-2.393c0.61-0.675,1.355-1.205,2.235-1.59s1.87-0.577,2.97-0.577c0.91,0,1.753,0.152,2.528,0.457
			c0.774,0.306,1.444,0.745,2.01,1.32c0.564,0.575,1.007,1.285,1.327,2.13s0.48,1.808,0.48,2.888c0,0.42-0.045,0.7-0.136,0.84
			c-0.09,0.14-0.26,0.21-0.51,0.21h-10.155c0.03,0.96,0.163,1.795,0.398,2.505c0.234,0.71,0.563,1.303,0.982,1.777
			c0.42,0.476,0.92,0.83,1.5,1.065c0.579,0.234,1.229,0.353,1.949,0.353c0.67,0,1.248-0.078,1.732-0.232
			c0.485-0.155,0.902-0.323,1.253-0.503c0.35-0.18,0.643-0.348,0.878-0.503c0.234-0.154,0.437-0.232,0.607-0.232
			c0.22,0,0.39,0.085,0.51,0.255L742.106,728.034z M739.946,720.909c0-0.62-0.088-1.188-0.263-1.702
			c-0.175-0.516-0.43-0.961-0.765-1.336s-0.742-0.664-1.223-0.869c-0.479-0.205-1.025-0.308-1.635-0.308
			c-1.28,0-2.293,0.372-3.038,1.117s-1.207,1.777-1.387,3.098H739.946z"/>
		<path fill="#FFFFFF" d="M754.466,717.474c-0.119,0.221-0.305,0.33-0.555,0.33c-0.15,0-0.32-0.055-0.51-0.165
			c-0.19-0.109-0.423-0.232-0.697-0.367c-0.275-0.135-0.603-0.26-0.982-0.375c-0.381-0.115-0.831-0.173-1.351-0.173
			c-0.45,0-0.854,0.058-1.215,0.173s-0.668,0.272-0.923,0.473s-0.449,0.433-0.585,0.697c-0.135,0.266-0.202,0.553-0.202,0.862
			c0,0.391,0.112,0.716,0.338,0.976c0.225,0.26,0.521,0.485,0.892,0.675c0.37,0.19,0.79,0.357,1.261,0.503
			c0.47,0.145,0.952,0.3,1.447,0.465s0.978,0.348,1.447,0.547c0.47,0.2,0.89,0.45,1.26,0.75c0.37,0.301,0.668,0.668,0.893,1.103
			c0.226,0.436,0.338,0.958,0.338,1.567c0,0.7-0.125,1.348-0.375,1.943c-0.25,0.595-0.62,1.109-1.11,1.545
			c-0.49,0.435-1.09,0.777-1.8,1.027s-1.53,0.375-2.46,0.375c-1.06,0-2.021-0.173-2.88-0.518c-0.86-0.345-1.59-0.788-2.19-1.328
			l0.63-1.02c0.08-0.13,0.176-0.229,0.285-0.3c0.11-0.07,0.25-0.105,0.42-0.105c0.181,0,0.37,0.07,0.57,0.21
			c0.2,0.141,0.442,0.295,0.728,0.465c0.285,0.171,0.633,0.325,1.043,0.466c0.409,0.14,0.92,0.21,1.529,0.21
			c0.521,0,0.976-0.067,1.365-0.203c0.39-0.135,0.715-0.317,0.975-0.547c0.261-0.23,0.453-0.495,0.578-0.795
			c0.125-0.301,0.188-0.62,0.188-0.96c0-0.421-0.112-0.768-0.338-1.043c-0.225-0.274-0.522-0.51-0.893-0.705
			s-0.792-0.365-1.268-0.51c-0.475-0.145-0.96-0.298-1.455-0.458c-0.494-0.159-0.979-0.342-1.454-0.547
			c-0.476-0.205-0.898-0.463-1.268-0.772c-0.37-0.311-0.668-0.692-0.893-1.147c-0.226-0.455-0.338-1.008-0.338-1.658
			c0-0.579,0.12-1.137,0.36-1.672c0.239-0.535,0.59-1.005,1.05-1.41s1.024-0.728,1.695-0.968c0.67-0.24,1.435-0.359,2.295-0.359
			c1,0,1.897,0.157,2.692,0.472c0.795,0.315,1.482,0.748,2.063,1.298L754.466,717.474z"/>
		<path fill="#FFFFFF" d="M767.456,717.474c-0.12,0.221-0.306,0.33-0.555,0.33c-0.15,0-0.32-0.055-0.511-0.165
			c-0.189-0.109-0.422-0.232-0.697-0.367s-0.603-0.26-0.982-0.375s-0.83-0.173-1.35-0.173c-0.45,0-0.855,0.058-1.216,0.173
			c-0.359,0.115-0.667,0.272-0.922,0.473s-0.45,0.433-0.585,0.697c-0.135,0.266-0.203,0.553-0.203,0.862
			c0,0.391,0.113,0.716,0.338,0.976s0.522,0.485,0.893,0.675c0.37,0.19,0.79,0.357,1.26,0.503c0.47,0.145,0.953,0.3,1.447,0.465
			c0.495,0.165,0.978,0.348,1.448,0.547c0.47,0.2,0.89,0.45,1.26,0.75c0.37,0.301,0.667,0.668,0.893,1.103
			c0.225,0.436,0.337,0.958,0.337,1.567c0,0.7-0.125,1.348-0.375,1.943c-0.25,0.595-0.62,1.109-1.109,1.545
			c-0.49,0.435-1.09,0.777-1.8,1.027c-0.711,0.25-1.53,0.375-2.46,0.375c-1.061,0-2.021-0.173-2.881-0.518
			c-0.859-0.345-1.59-0.788-2.189-1.328l0.63-1.02c0.08-0.13,0.175-0.229,0.285-0.3c0.109-0.07,0.25-0.105,0.42-0.105
			c0.18,0,0.37,0.07,0.57,0.21c0.199,0.141,0.442,0.295,0.728,0.465c0.284,0.171,0.632,0.325,1.042,0.466
			c0.41,0.14,0.92,0.21,1.53,0.21c0.52,0,0.975-0.067,1.365-0.203c0.39-0.135,0.715-0.317,0.975-0.547
			c0.26-0.23,0.452-0.495,0.577-0.795c0.125-0.301,0.188-0.62,0.188-0.96c0-0.421-0.112-0.768-0.337-1.043
			c-0.226-0.274-0.522-0.51-0.893-0.705s-0.793-0.365-1.268-0.51c-0.476-0.145-0.96-0.298-1.455-0.458
			c-0.495-0.159-0.98-0.342-1.455-0.547s-0.897-0.463-1.268-0.772c-0.37-0.311-0.667-0.692-0.893-1.147
			c-0.225-0.455-0.337-1.008-0.337-1.658c0-0.579,0.119-1.137,0.359-1.672s0.59-1.005,1.05-1.41s1.025-0.728,1.695-0.968
			s1.435-0.359,2.295-0.359c1,0,1.897,0.157,2.692,0.472c0.795,0.315,1.482,0.748,2.063,1.298L767.456,717.474z"/>
		<path fill="#FFFFFF" d="M661.925,753.114c0.84-0.811,1.745-1.415,2.715-1.815c0.97-0.399,2.045-0.6,3.225-0.6
			c0.85,0,1.605,0.14,2.265,0.42c0.66,0.28,1.215,0.67,1.665,1.17c0.45,0.5,0.79,1.105,1.02,1.815
			c0.229,0.71,0.345,1.489,0.345,2.34v9.72h-1.185c-0.26,0-0.46-0.042-0.6-0.128c-0.14-0.084-0.25-0.252-0.33-0.502l-0.3-1.44
			c-0.4,0.37-0.79,0.698-1.17,0.982c-0.38,0.285-0.78,0.525-1.2,0.721c-0.42,0.194-0.868,0.345-1.342,0.449
			c-0.475,0.105-1.002,0.158-1.583,0.158c-0.59,0-1.145-0.083-1.665-0.248s-0.973-0.412-1.357-0.742
			c-0.385-0.33-0.69-0.747-0.915-1.253c-0.225-0.505-0.337-1.103-0.337-1.792c0-0.6,0.165-1.178,0.495-1.732
			c0.33-0.555,0.865-1.048,1.605-1.478c0.74-0.43,1.705-0.782,2.895-1.058c1.19-0.275,2.649-0.433,4.38-0.473v-1.185
			c0-1.18-0.255-2.072-0.765-2.678c-0.51-0.604-1.255-0.907-2.235-0.907c-0.66,0-1.213,0.082-1.658,0.247s-0.83,0.351-1.155,0.555
			c-0.325,0.205-0.605,0.391-0.84,0.556s-0.467,0.247-0.697,0.247c-0.18,0-0.335-0.047-0.465-0.143
			c-0.13-0.095-0.24-0.212-0.33-0.353L661.925,753.114z M670.55,759.324c-1.23,0.04-2.278,0.138-3.143,0.292
			c-0.865,0.155-1.57,0.358-2.115,0.607c-0.545,0.251-0.94,0.546-1.185,0.886c-0.246,0.34-0.368,0.72-0.368,1.14
			c0,0.4,0.065,0.745,0.195,1.035s0.308,0.527,0.533,0.712c0.225,0.186,0.49,0.32,0.795,0.405c0.305,0.085,0.632,0.128,0.982,0.128
			c0.47,0,0.9-0.048,1.29-0.143s0.757-0.232,1.103-0.413c0.345-0.18,0.675-0.395,0.99-0.645c0.315-0.25,0.622-0.535,0.922-0.855
			V759.324z"/>
		<path fill="#FFFFFF" d="M686.074,753.474c-0.12,0.221-0.305,0.33-0.555,0.33c-0.15,0-0.32-0.055-0.51-0.165
			c-0.19-0.109-0.422-0.232-0.697-0.367c-0.275-0.135-0.603-0.26-0.982-0.375c-0.38-0.115-0.831-0.173-1.35-0.173
			c-0.45,0-0.855,0.058-1.215,0.173c-0.36,0.115-0.667,0.272-0.922,0.473s-0.45,0.433-0.585,0.697
			c-0.135,0.266-0.203,0.553-0.203,0.862c0,0.391,0.113,0.716,0.338,0.976c0.225,0.26,0.522,0.485,0.892,0.675
			c0.37,0.19,0.79,0.357,1.26,0.503c0.47,0.145,0.953,0.3,1.447,0.465c0.495,0.165,0.978,0.348,1.448,0.547
			c0.47,0.2,0.89,0.45,1.26,0.75c0.37,0.301,0.667,0.668,0.893,1.103c0.225,0.436,0.337,0.958,0.337,1.567
			c0,0.7-0.125,1.348-0.375,1.943c-0.25,0.595-0.62,1.109-1.11,1.545c-0.49,0.435-1.09,0.777-1.8,1.027
			c-0.71,0.25-1.53,0.375-2.46,0.375c-1.06,0-2.021-0.173-2.88-0.518s-1.59-0.788-2.19-1.328l0.63-1.02
			c0.08-0.13,0.175-0.229,0.285-0.3s0.25-0.105,0.42-0.105c0.18,0,0.37,0.07,0.57,0.21c0.2,0.141,0.442,0.295,0.728,0.465
			c0.285,0.171,0.632,0.325,1.042,0.466c0.41,0.14,0.92,0.21,1.53,0.21c0.52,0,0.975-0.067,1.365-0.203
			c0.39-0.135,0.715-0.317,0.975-0.547c0.26-0.23,0.453-0.495,0.578-0.795c0.125-0.301,0.188-0.62,0.188-0.96
			c0-0.421-0.112-0.768-0.337-1.043c-0.225-0.274-0.522-0.51-0.893-0.705s-0.792-0.365-1.268-0.51s-0.96-0.298-1.455-0.458
			c-0.495-0.159-0.98-0.342-1.455-0.547c-0.475-0.205-0.898-0.463-1.268-0.772c-0.37-0.311-0.667-0.692-0.893-1.147
			s-0.337-1.008-0.337-1.658c0-0.579,0.12-1.137,0.36-1.672c0.24-0.535,0.59-1.005,1.05-1.41s1.025-0.728,1.695-0.968
			c0.67-0.24,1.435-0.359,2.295-0.359c1,0,1.897,0.157,2.692,0.472c0.795,0.315,1.482,0.748,2.063,1.298L686.074,753.474z"/>
		<path fill="#FFFFFF" d="M710.389,750.969v15.195h-1.59c-0.38,0-0.62-0.185-0.72-0.555l-0.21-1.636
			c-0.66,0.73-1.4,1.318-2.22,1.763c-0.82,0.445-1.761,0.668-2.82,0.668c-0.83,0-1.563-0.138-2.198-0.413
			c-0.635-0.274-1.167-0.662-1.598-1.162s-0.752-1.104-0.967-1.815c-0.215-0.71-0.323-1.494-0.323-2.354v-9.69h2.67v9.69
			c0,1.15,0.263,2.04,0.788,2.67c0.525,0.63,1.328,0.945,2.408,0.945c0.789,0,1.527-0.188,2.212-0.563
			c0.686-0.375,1.317-0.893,1.897-1.553v-11.19H710.389z"/>
		<path fill="#FFFFFF" d="M723.469,753.474c-0.119,0.221-0.305,0.33-0.555,0.33c-0.15,0-0.32-0.055-0.51-0.165
			c-0.19-0.109-0.423-0.232-0.697-0.367c-0.275-0.135-0.603-0.26-0.982-0.375c-0.381-0.115-0.831-0.173-1.351-0.173
			c-0.45,0-0.854,0.058-1.215,0.173s-0.668,0.272-0.923,0.473s-0.449,0.433-0.585,0.697c-0.135,0.266-0.202,0.553-0.202,0.862
			c0,0.391,0.112,0.716,0.338,0.976c0.225,0.26,0.521,0.485,0.892,0.675c0.37,0.19,0.79,0.357,1.261,0.503
			c0.47,0.145,0.952,0.3,1.447,0.465s0.978,0.348,1.447,0.547c0.47,0.2,0.89,0.45,1.26,0.75c0.37,0.301,0.668,0.668,0.893,1.103
			c0.226,0.436,0.338,0.958,0.338,1.567c0,0.7-0.125,1.348-0.375,1.943c-0.25,0.595-0.62,1.109-1.11,1.545
			c-0.49,0.435-1.09,0.777-1.8,1.027s-1.53,0.375-2.46,0.375c-1.06,0-2.021-0.173-2.88-0.518c-0.86-0.345-1.59-0.788-2.19-1.328
			l0.63-1.02c0.08-0.13,0.176-0.229,0.285-0.3c0.11-0.07,0.25-0.105,0.42-0.105c0.181,0,0.37,0.07,0.57,0.21
			c0.2,0.141,0.442,0.295,0.728,0.465c0.285,0.171,0.633,0.325,1.043,0.466c0.409,0.14,0.92,0.21,1.529,0.21
			c0.521,0,0.976-0.067,1.365-0.203c0.39-0.135,0.715-0.317,0.975-0.547c0.261-0.23,0.453-0.495,0.578-0.795
			c0.125-0.301,0.188-0.62,0.188-0.96c0-0.421-0.112-0.768-0.338-1.043c-0.225-0.274-0.522-0.51-0.893-0.705
			s-0.792-0.365-1.268-0.51c-0.475-0.145-0.96-0.298-1.455-0.458c-0.494-0.159-0.979-0.342-1.454-0.547
			c-0.476-0.205-0.898-0.463-1.268-0.772c-0.37-0.311-0.668-0.692-0.893-1.147c-0.226-0.455-0.338-1.008-0.338-1.658
			c0-0.579,0.12-1.137,0.36-1.672c0.239-0.535,0.59-1.005,1.05-1.41s1.024-0.728,1.695-0.968c0.67-0.24,1.435-0.359,2.295-0.359
			c1,0,1.897,0.157,2.692,0.472c0.795,0.315,1.482,0.748,2.063,1.298L723.469,753.474z"/>
		<path fill="#FFFFFF" d="M740.104,750.969v15.195h-1.59c-0.38,0-0.62-0.185-0.72-0.555l-0.21-1.636
			c-0.66,0.73-1.4,1.318-2.22,1.763c-0.82,0.445-1.761,0.668-2.82,0.668c-0.83,0-1.563-0.138-2.197-0.413
			c-0.636-0.274-1.168-0.662-1.598-1.162c-0.431-0.5-0.753-1.104-0.968-1.815c-0.215-0.71-0.322-1.494-0.322-2.354v-9.69h2.67v9.69
			c0,1.15,0.263,2.04,0.787,2.67c0.525,0.63,1.328,0.945,2.408,0.945c0.789,0,1.527-0.188,2.212-0.563
			c0.686-0.375,1.317-0.893,1.897-1.553v-11.19H740.104z"/>
		<path fill="#FFFFFF" d="M743.944,753.114c0.84-0.811,1.744-1.415,2.715-1.815c0.97-0.399,2.045-0.6,3.225-0.6
			c0.85,0,1.605,0.14,2.266,0.42c0.659,0.28,1.215,0.67,1.665,1.17c0.449,0.5,0.789,1.105,1.02,1.815
			c0.229,0.71,0.345,1.489,0.345,2.34v9.72h-1.185c-0.261,0-0.46-0.042-0.601-0.128c-0.14-0.084-0.25-0.252-0.329-0.502l-0.301-1.44
			c-0.399,0.37-0.79,0.698-1.17,0.982c-0.38,0.285-0.779,0.525-1.2,0.721c-0.42,0.194-0.867,0.345-1.342,0.449
			c-0.476,0.105-1.003,0.158-1.583,0.158c-0.59,0-1.145-0.083-1.665-0.248c-0.52-0.165-0.973-0.412-1.357-0.742
			s-0.689-0.747-0.915-1.253c-0.225-0.505-0.337-1.103-0.337-1.792c0-0.6,0.165-1.178,0.495-1.732
			c0.329-0.555,0.864-1.048,1.604-1.478s1.705-0.782,2.896-1.058c1.189-0.275,2.649-0.433,4.38-0.473v-1.185
			c0-1.18-0.255-2.072-0.766-2.678c-0.51-0.604-1.255-0.907-2.234-0.907c-0.66,0-1.213,0.082-1.658,0.247
			c-0.444,0.165-0.83,0.351-1.154,0.555c-0.325,0.205-0.605,0.391-0.841,0.556c-0.234,0.165-0.467,0.247-0.697,0.247
			c-0.18,0-0.335-0.047-0.465-0.143c-0.13-0.095-0.24-0.212-0.33-0.353L743.944,753.114z M752.569,759.324
			c-1.23,0.04-2.278,0.138-3.143,0.292c-0.865,0.155-1.57,0.358-2.115,0.607c-0.545,0.251-0.94,0.546-1.185,0.886
			c-0.246,0.34-0.368,0.72-0.368,1.14c0,0.4,0.065,0.745,0.195,1.035s0.308,0.527,0.532,0.712c0.226,0.186,0.49,0.32,0.795,0.405
			s0.633,0.128,0.982,0.128c0.471,0,0.9-0.048,1.29-0.143c0.391-0.095,0.758-0.232,1.103-0.413c0.346-0.18,0.675-0.395,0.99-0.645
			s0.622-0.535,0.923-0.855V759.324z"/>
		<path fill="#FFFFFF" d="M762.004,744.069v22.095h-2.67v-22.095H762.004z"/>
	</g>
	<g>
		<path fill="#FFFFFF" d="M474.36,421.265h-6.96v19.05h-2.895v-19.05h-6.975v-2.445h16.83V421.265z"/>
		<path fill="#FFFFFF" d="M479.656,424.88c1.11,0,2.11,0.185,3,0.555s1.65,0.895,2.28,1.575c0.63,0.68,1.112,1.502,1.448,2.467
			c0.335,0.966,0.502,2.043,0.502,3.232c0,1.2-0.167,2.28-0.502,3.24c-0.335,0.96-0.817,1.78-1.448,2.46
			c-0.63,0.681-1.39,1.203-2.28,1.567c-0.89,0.365-1.89,0.548-3,0.548c-1.12,0-2.127-0.183-3.022-0.548
			c-0.895-0.364-1.658-0.887-2.288-1.567c-0.63-0.68-1.112-1.5-1.447-2.46c-0.335-0.96-0.503-2.04-0.503-3.24
			c0-1.189,0.167-2.267,0.503-3.232c0.335-0.965,0.817-1.787,1.447-2.467c0.63-0.681,1.393-1.205,2.288-1.575
			S478.536,424.88,479.656,424.88z M479.656,438.44c1.5,0,2.62-0.503,3.36-1.508s1.11-2.407,1.11-4.207c0-1.81-0.37-3.22-1.11-4.23
			c-0.74-1.01-1.86-1.515-3.36-1.515c-0.76,0-1.423,0.13-1.987,0.39c-0.565,0.261-1.035,0.636-1.41,1.125
			c-0.375,0.49-0.655,1.093-0.84,1.808c-0.186,0.715-0.278,1.522-0.278,2.423c0,1.8,0.373,3.202,1.118,4.207
			C477.003,437.937,478.136,438.44,479.656,438.44z"/>
		<path fill="#FFFFFF" d="M492.811,427.475c0.64-0.79,1.38-1.425,2.22-1.905c0.84-0.479,1.8-0.72,2.88-0.72
			c0.88,0,1.675,0.167,2.385,0.502c0.71,0.336,1.315,0.83,1.815,1.485s0.885,1.468,1.155,2.438s0.405,2.085,0.405,3.345
			c0,1.12-0.15,2.163-0.45,3.128c-0.3,0.965-0.733,1.8-1.298,2.505s-1.255,1.26-2.07,1.665s-1.732,0.607-2.752,0.607
			c-0.93,0-1.728-0.157-2.393-0.473c-0.665-0.314-1.252-0.752-1.763-1.313v6.72h-2.685v-20.34h1.605c0.38,0,0.615,0.186,0.705,0.556
			L492.811,427.475z M492.945,436.655c0.49,0.66,1.025,1.125,1.605,1.396c0.58,0.27,1.23,0.404,1.95,0.404
			c1.42,0,2.51-0.505,3.27-1.515c0.76-1.01,1.14-2.45,1.14-4.32c0-0.989-0.088-1.84-0.263-2.55s-0.427-1.292-0.757-1.747
			s-0.735-0.788-1.215-0.998s-1.025-0.314-1.635-0.314c-0.87,0-1.633,0.2-2.288,0.6c-0.655,0.4-1.258,0.965-1.808,1.695V436.655z"/>
		<path fill="#FFFFFF" d="M527.325,418.22v22.095h-1.59c-0.38,0-0.621-0.185-0.72-0.555l-0.24-1.846
			c-0.65,0.78-1.39,1.41-2.22,1.891c-0.83,0.479-1.79,0.72-2.88,0.72c-0.87,0-1.66-0.168-2.37-0.503
			c-0.71-0.334-1.315-0.827-1.815-1.477c-0.5-0.65-0.885-1.46-1.155-2.431c-0.27-0.97-0.405-2.085-0.405-3.345
			c0-1.12,0.15-2.162,0.45-3.128c0.3-0.965,0.729-1.802,1.29-2.512s1.248-1.268,2.063-1.673s1.733-0.607,2.753-0.607
			c0.93,0,1.727,0.157,2.392,0.473c0.665,0.314,1.258,0.752,1.778,1.313v-8.415H527.325z M524.655,428.735
			c-0.5-0.67-1.041-1.138-1.62-1.402c-0.58-0.265-1.23-0.397-1.95-0.397c-1.41,0-2.495,0.505-3.255,1.515
			c-0.76,1.011-1.14,2.45-1.14,4.32c0,0.99,0.085,1.838,0.255,2.542c0.17,0.705,0.42,1.285,0.75,1.74
			c0.33,0.455,0.735,0.788,1.215,0.998s1.025,0.314,1.635,0.314c0.88,0,1.647-0.2,2.303-0.6c0.655-0.4,1.257-0.965,1.808-1.695
			V428.735z"/>
		<path fill="#FFFFFF" d="M537.959,424.88c1.11,0,2.11,0.185,3,0.555s1.65,0.895,2.28,1.575c0.63,0.68,1.112,1.502,1.448,2.467
			c0.335,0.966,0.502,2.043,0.502,3.232c0,1.2-0.167,2.28-0.502,3.24c-0.335,0.96-0.817,1.78-1.448,2.46
			c-0.63,0.681-1.39,1.203-2.28,1.567c-0.89,0.365-1.89,0.548-3,0.548c-1.12,0-2.127-0.183-3.022-0.548
			c-0.895-0.364-1.658-0.887-2.288-1.567c-0.63-0.68-1.112-1.5-1.447-2.46c-0.335-0.96-0.503-2.04-0.503-3.24
			c0-1.189,0.167-2.267,0.503-3.232c0.335-0.965,0.817-1.787,1.447-2.467c0.63-0.681,1.393-1.205,2.288-1.575
			S536.839,424.88,537.959,424.88z M537.959,438.44c1.5,0,2.62-0.503,3.36-1.508s1.11-2.407,1.11-4.207c0-1.81-0.37-3.22-1.11-4.23
			c-0.74-1.01-1.86-1.515-3.36-1.515c-0.76,0-1.423,0.13-1.987,0.39c-0.565,0.261-1.035,0.636-1.41,1.125
			c-0.375,0.49-0.655,1.093-0.84,1.808c-0.186,0.715-0.278,1.522-0.278,2.423c0,1.8,0.373,3.202,1.118,4.207
			C535.307,437.937,536.439,438.44,537.959,438.44z"/>
		<path fill="#FFFFFF" d="M569.294,425.12l-4.92,15.195h-2.115c-0.26,0-0.44-0.17-0.54-0.51l-3.36-10.306
			c-0.08-0.229-0.145-0.462-0.195-0.697c-0.05-0.234-0.1-0.467-0.15-0.697c-0.05,0.23-0.1,0.463-0.15,0.697
			c-0.05,0.235-0.115,0.473-0.195,0.713l-3.42,10.29c-0.09,0.34-0.29,0.51-0.6,0.51h-2.01l-4.92-15.195h2.1
			c0.21,0,0.387,0.056,0.532,0.165c0.145,0.11,0.242,0.24,0.292,0.391l2.91,9.779c0.17,0.721,0.305,1.4,0.405,2.04
			c0.09-0.33,0.183-0.665,0.278-1.005c0.095-0.34,0.197-0.685,0.307-1.035l3.21-9.84c0.05-0.149,0.138-0.274,0.263-0.375
			c0.125-0.1,0.277-0.149,0.458-0.149h1.17c0.2,0,0.365,0.05,0.495,0.149c0.13,0.101,0.22,0.226,0.27,0.375l3.135,9.84
			c0.11,0.351,0.21,0.695,0.3,1.035c0.09,0.34,0.175,0.675,0.255,1.005c0.05-0.33,0.112-0.662,0.188-0.997s0.158-0.683,0.248-1.043
			l2.97-9.779c0.05-0.16,0.145-0.293,0.285-0.397c0.14-0.105,0.305-0.158,0.495-0.158H569.294z"/>
		<path fill="#FFFFFF" d="M574.424,427.325c0.33-0.369,0.68-0.705,1.05-1.005c0.37-0.3,0.762-0.558,1.177-0.772
			s0.855-0.38,1.32-0.495c0.465-0.114,0.967-0.172,1.507-0.172c0.83,0,1.563,0.137,2.198,0.412c0.635,0.275,1.165,0.665,1.59,1.17
			c0.425,0.505,0.748,1.112,0.967,1.822c0.22,0.71,0.33,1.495,0.33,2.355v9.675h-2.685v-9.675c0-1.15-0.262-2.043-0.787-2.678
			c-0.525-0.635-1.323-0.952-2.393-0.952c-0.79,0-1.528,0.189-2.213,0.569c-0.685,0.381-1.317,0.896-1.897,1.545v11.19h-2.685
			V425.12h1.605c0.38,0,0.615,0.186,0.705,0.556L574.424,427.325z"/>
	</g>
	<g>
		<path fill="#FFFFFF" d="M835.681,418.82c1.32,0,2.458,0.13,3.413,0.39c0.954,0.261,1.739,0.631,2.354,1.11
			c0.615,0.48,1.067,1.067,1.357,1.763s0.436,1.478,0.436,2.348c0,0.53-0.083,1.037-0.248,1.522s-0.412,0.938-0.742,1.357
			s-0.748,0.798-1.253,1.133s-1.098,0.607-1.777,0.817c1.58,0.3,2.768,0.862,3.563,1.688c0.795,0.824,1.192,1.907,1.192,3.247
			c0,0.91-0.167,1.74-0.502,2.49c-0.336,0.75-0.825,1.395-1.471,1.935c-0.645,0.54-1.438,0.958-2.377,1.253
			c-0.94,0.295-2.01,0.442-3.21,0.442h-7.59V418.82H835.681z M831.721,421.115v7.335h3.84c0.82,0,1.532-0.09,2.138-0.27
			c0.605-0.181,1.104-0.43,1.5-0.75c0.395-0.32,0.688-0.708,0.878-1.163c0.189-0.454,0.284-0.952,0.284-1.492
			c0-1.27-0.38-2.197-1.14-2.782s-1.94-0.878-3.54-0.878H831.721z M836.371,438.005c0.83,0,1.545-0.096,2.145-0.285
			c0.601-0.19,1.093-0.458,1.478-0.803s0.668-0.755,0.848-1.23c0.18-0.475,0.27-0.997,0.27-1.567c0-1.109-0.395-1.987-1.185-2.632
			c-0.79-0.646-1.975-0.968-3.555-0.968h-4.65v7.485H836.371z"/>
		<path fill="#FFFFFF" d="M853.771,424.88c1.109,0,2.109,0.185,3,0.555c0.89,0.37,1.649,0.895,2.279,1.575
			c0.631,0.68,1.112,1.502,1.448,2.467c0.335,0.966,0.502,2.043,0.502,3.232c0,1.2-0.167,2.28-0.502,3.24
			c-0.336,0.96-0.817,1.78-1.448,2.46c-0.63,0.681-1.39,1.203-2.279,1.567c-0.891,0.365-1.891,0.548-3,0.548
			c-1.12,0-2.128-0.183-3.022-0.548c-0.896-0.364-1.658-0.887-2.288-1.567c-0.63-0.68-1.112-1.5-1.447-2.46s-0.503-2.04-0.503-3.24
			c0-1.189,0.168-2.267,0.503-3.232c0.335-0.965,0.817-1.787,1.447-2.467c0.63-0.681,1.393-1.205,2.288-1.575
			C851.644,425.065,852.651,424.88,853.771,424.88z M853.771,438.44c1.5,0,2.619-0.503,3.359-1.508s1.11-2.407,1.11-4.207
			c0-1.81-0.37-3.22-1.11-4.23c-0.74-1.01-1.859-1.515-3.359-1.515c-0.761,0-1.423,0.13-1.987,0.39
			c-0.565,0.261-1.035,0.636-1.41,1.125c-0.375,0.49-0.655,1.093-0.84,1.808c-0.186,0.715-0.278,1.522-0.278,2.423
			c0,1.8,0.373,3.202,1.118,4.207C851.118,437.937,852.251,438.44,853.771,438.44z"/>
		<path fill="#FFFFFF" d="M868.771,440.555c-1.199,0-2.122-0.335-2.767-1.005c-0.646-0.67-0.968-1.636-0.968-2.896v-9.3h-1.83
			c-0.16,0-0.295-0.048-0.405-0.143s-0.165-0.242-0.165-0.442v-1.065l2.49-0.314l0.615-4.695c0.029-0.149,0.098-0.272,0.202-0.367
			c0.105-0.095,0.242-0.143,0.413-0.143h1.35v5.235h7.155l0.614-4.726c0.03-0.149,0.098-0.272,0.203-0.367
			c0.104-0.095,0.242-0.143,0.412-0.143h1.351v5.235h4.395v1.935h-4.395v9.12c0,0.64,0.157,1.115,0.472,1.425
			c0.315,0.311,0.713,0.465,1.193,0.465c0.279,0,0.521-0.037,0.727-0.112s0.383-0.157,0.533-0.247
			c0.149-0.091,0.277-0.173,0.382-0.248c0.105-0.075,0.198-0.112,0.278-0.112c0.149,0,0.274,0.085,0.375,0.255l0.795,1.275
			c-0.471,0.43-1.03,0.768-1.681,1.012c-0.649,0.245-1.319,0.368-2.01,0.368c-1.19,0-2.11-0.335-2.76-1.005
			c-0.65-0.67-0.976-1.636-0.976-2.896v-9.3h-7.064v9.12c0,0.64,0.155,1.115,0.465,1.425c0.31,0.311,0.71,0.465,1.2,0.465
			c0.279,0,0.522-0.037,0.728-0.112s0.383-0.157,0.532-0.247c0.15-0.091,0.277-0.173,0.383-0.248
			c0.104-0.075,0.197-0.112,0.277-0.112c0.14,0,0.265,0.085,0.375,0.255l0.78,1.275c-0.46,0.43-1.016,0.768-1.665,1.012
			C870.131,440.432,869.461,440.555,868.771,440.555z"/>
		<path fill="#FFFFFF" d="M890.927,424.88c1.109,0,2.109,0.185,3,0.555c0.89,0.37,1.649,0.895,2.279,1.575
			c0.631,0.68,1.112,1.502,1.448,2.467c0.335,0.966,0.502,2.043,0.502,3.232c0,1.2-0.167,2.28-0.502,3.24
			c-0.336,0.96-0.817,1.78-1.448,2.46c-0.63,0.681-1.39,1.203-2.279,1.567c-0.891,0.365-1.891,0.548-3,0.548
			c-1.12,0-2.128-0.183-3.022-0.548c-0.896-0.364-1.658-0.887-2.288-1.567c-0.63-0.68-1.112-1.5-1.447-2.46s-0.503-2.04-0.503-3.24
			c0-1.189,0.168-2.267,0.503-3.232c0.335-0.965,0.817-1.787,1.447-2.467c0.63-0.681,1.393-1.205,2.288-1.575
			C888.799,425.065,889.807,424.88,890.927,424.88z M890.927,438.44c1.5,0,2.619-0.503,3.359-1.508s1.11-2.407,1.11-4.207
			c0-1.81-0.37-3.22-1.11-4.23c-0.74-1.01-1.859-1.515-3.359-1.515c-0.761,0-1.423,0.13-1.987,0.39
			c-0.565,0.261-1.035,0.636-1.41,1.125c-0.375,0.49-0.655,1.093-0.84,1.808c-0.186,0.715-0.278,1.522-0.278,2.423
			c0,1.8,0.373,3.202,1.118,4.207C888.273,437.937,889.406,438.44,890.927,438.44z"/>
		<path fill="#FFFFFF" d="M901.531,440.315V425.12h1.605c0.38,0,0.614,0.186,0.704,0.556l0.195,1.56
			c0.56-0.689,1.19-1.255,1.89-1.695c0.7-0.439,1.511-0.659,2.431-0.659c1.02,0,1.847,0.284,2.482,0.854
			c0.635,0.57,1.093,1.34,1.372,2.311c0.22-0.551,0.503-1.025,0.848-1.426c0.345-0.399,0.732-0.729,1.163-0.989
			c0.43-0.261,0.887-0.45,1.372-0.57s0.978-0.18,1.478-0.18c0.8,0,1.513,0.127,2.138,0.382s1.154,0.628,1.59,1.118
			c0.435,0.489,0.768,1.092,0.997,1.807c0.23,0.716,0.346,1.533,0.346,2.453v9.675h-2.686v-9.675c0-1.19-0.26-2.093-0.78-2.708
			c-0.52-0.614-1.27-0.922-2.25-0.922c-0.439,0-0.857,0.077-1.252,0.232c-0.396,0.155-0.742,0.382-1.043,0.683
			c-0.3,0.3-0.537,0.677-0.712,1.132s-0.263,0.982-0.263,1.583v9.675h-2.685v-9.675c0-1.22-0.245-2.13-0.735-2.73
			c-0.49-0.6-1.205-0.899-2.146-0.899c-0.659,0-1.27,0.178-1.829,0.532c-0.561,0.355-1.075,0.838-1.546,1.447v11.325H901.531z"/>
		<path fill="#FFFFFF" d="M942.811,438.005c0.89,0,1.686-0.15,2.385-0.45c0.7-0.3,1.293-0.721,1.778-1.26
			c0.484-0.54,0.854-1.186,1.109-1.936s0.383-1.575,0.383-2.475V418.82h2.895v13.065c0,1.24-0.197,2.39-0.592,3.449
			c-0.396,1.061-0.96,1.979-1.695,2.753c-0.735,0.775-1.633,1.383-2.692,1.822c-1.061,0.44-2.25,0.66-3.57,0.66
			c-1.319,0-2.51-0.22-3.569-0.66c-1.061-0.439-1.961-1.047-2.7-1.822c-0.74-0.774-1.308-1.692-1.703-2.753
			c-0.395-1.06-0.592-2.209-0.592-3.449V418.82h2.895v13.05c0,0.9,0.128,1.726,0.383,2.476s0.625,1.395,1.109,1.935
			c0.485,0.54,1.08,0.963,1.785,1.268C941.123,437.853,941.921,438.005,942.811,438.005z"/>
		<path fill="#FFFFFF" d="M958.05,427.475c0.64-0.79,1.38-1.425,2.22-1.905c0.841-0.479,1.801-0.72,2.881-0.72
			c0.88,0,1.675,0.167,2.385,0.502c0.71,0.336,1.314,0.83,1.814,1.485s0.886,1.468,1.155,2.438c0.271,0.97,0.405,2.085,0.405,3.345
			c0,1.12-0.15,2.163-0.45,3.128s-0.732,1.8-1.298,2.505c-0.564,0.705-1.255,1.26-2.069,1.665c-0.815,0.405-1.732,0.607-2.753,0.607
			c-0.93,0-1.728-0.157-2.393-0.473c-0.665-0.314-1.252-0.752-1.763-1.313v6.72H955.5v-20.34h1.605c0.38,0,0.614,0.186,0.704,0.556
			L958.05,427.475z M958.185,436.655c0.49,0.66,1.025,1.125,1.605,1.396c0.58,0.27,1.229,0.404,1.95,0.404
			c1.42,0,2.51-0.505,3.27-1.515s1.141-2.45,1.141-4.32c0-0.989-0.088-1.84-0.263-2.55s-0.428-1.292-0.758-1.747
			s-0.735-0.788-1.215-0.998c-0.48-0.21-1.025-0.314-1.635-0.314c-0.87,0-1.633,0.2-2.288,0.6c-0.654,0.4-1.258,0.965-1.808,1.695
			V436.655z"/>
	</g>
</g>
</svg>
