<svg id="Layer_1" xmlns="http://www.w3.org/2000/svg" xmlns:xlink="http://www.w3.org/1999/xlink" viewBox="0 0 382.7 311.8"><style>.st0{font-family:&apos;ArialMT&apos;}.st1{font-size:10px}.st2{font-weight:700}</style><text transform="translate(199.3 24)" class="st0 st1">Freelance:</text><text transform="translate(246.6 24)" class="st2 st1">2%</text><text transform="translate(231.3 40)" class="st0 st1">Startup (2 - 10):</text><text transform="translate(301.4 40)" class="st2 st1">4%</text><text transform="translate(296.8 67)" class="st0 st1">Small</text><text transform="translate(296.8 79)" class="st0 st1">(11 - 50):</text><text transform="translate(337.3 79)" class="st2 st1">13%</text><g><text transform="translate(314.3 156)" class="st0 st1">Medium</text><text transform="translate(314.3 168)" class="st0 st1">(51 - 200):</text><text transform="translate(360.5 168)" class="st2 st1"></text><text transform="translate(314.3 180)" class="st2 st1">17%</text></g><g><text transform="translate(231.3 278.4)" class="st0 st1">Large</text><text transform="translate(231.3 290.4)" class="st0 st1">(201 - 1000):</text><text transform="translate(291.4 290.4)" class="st2 st1">19%</text></g><g><defs><path id="SVGID_1_" d="M172.1 32.6a38.2 38.2 0 0 1 38.4 0L286 76.1a38.3 38.3 0 0 1 19.2 33.2v87.1c0 13.7-7.3 26.4-19.2 33.2l-75.5 43.6a38.2 38.2 0 0 1-38.4 0l-75.5-43.6a38.3 38.3 0 0 1-19.2-33.2v-87.1c0-13.7 7.3-26.4 19.2-33.2l75.5-43.5z"/></defs><clipPath id="SVGID_2_"><use xlink:href="#SVGID_1_" overflow="visible"/></clipPath><g clip-path="url(#SVGID_2_)"><g stroke="#fff" stroke-linejoin="round"><path d="M181.7 17.4c6 0 11.9.4 17.8 1.2l-17.8 126.6V17.4z" fill="#686868" transform="translate(10 10)"/><path d="M199.7 18.7c11.5 1.6 22.8 4.8 33.5 9.5l-51.4 117.1 17.9-126.6z" fill="#44b0ce" transform="translate(10 10)"/><path d="M233.3 28.3a127.8 127.8 0 0 1 69.1 74.7l-120.7 42.3 51.6-117z" fill="#6e84c3" transform="translate(10 10)"/><path d="M302.4 103.1c14.6 41.7 6.6 88-21.2 122.5l-99.5-80.3 120.7-42.2z" fill="#3cc0c4" transform="translate(10 10)"/><path d="M281.2 225.7a128 128 0 0 1-138.4 41.4l39-121.8 99.4 80.4z" fill="#9169ad" transform="translate(10 10)"/><path d="M142.6 267a128 128 0 0 1 38.9-249.6l.2 127.9L142.6 267z" fill="#4b9fd8" transform="translate(10 10)"/></g></g></g><g><text transform="translate(22.3 143)" class="st0 st1">Enterprise</text><text transform="translate(22.3 155)" class="st0 st1">(1,000+):</text><text transform="translate(22.3 167)" class="st2 st1">45%</text></g></svg>