<svg id="Layer_1" data-name="Layer 1" xmlns="http://www.w3.org/2000/svg" viewBox="0 0 74.75 46.32"><defs><style>.cls-1{fill:#4d4d4f;}.cls-2{fill:#808285;}.cls-3{fill:#fdb913;}</style></defs><title>hmh-logo</title><polygon class="cls-1" points="30.19 16.5 31.59 16.5 31.59 19.32 34.39 19.32 34.39 16.5 35.79 16.5 35.79 23.49 34.39 23.49 34.39 20.43 31.59 20.43 31.59 23.49 30.19 23.49 30.19 16.5"/><path class="cls-1" d="M387.5,721.7c1,0,1.3-.92,1.3-1.78a1.31,1.31,0,1,0-2.59,0c0,0.85.27,1.78,1.29,1.78m0-4.35a2.58,2.58,0,0,1,2.7,2.73,2.7,2.7,0,0,1-5.4,0,2.58,2.58,0,0,1,2.69-2.73" transform="translate(-348.1 -699.14)"/><path class="cls-1" d="M395.79,722.63h-1.27v-0.7h0a2.15,2.15,0,0,1-1.69.82,1.73,1.73,0,0,1-1.75-2v-3.25h1.34v2.75c0,0.63,0,1.48.87,1.48s1.18-1.05,1.18-1.71v-2.52h1.34v5.16Z" transform="translate(-348.1 -699.14)"/><path class="cls-1" d="M400.37,720c0-.88-0.34-1.6-1.12-1.6s-1.2.84-1.2,1.63a1.4,1.4,0,0,0,1.14,1.56c0.84,0,1.18-.73,1.18-1.59m1.34-2.52v4.65a2.42,2.42,0,0,1-2.72,2.72,4.53,4.53,0,0,1-1.78-.35l0.11-1.14a3.88,3.88,0,0,0,1.5.45c1.48,0,1.55-1.11,1.55-2h0a1.84,1.84,0,0,1-1.6.82c-1.52,0-2.1-1.22-2.1-2.6s0.64-2.67,2.18-2.67a1.71,1.71,0,0,1,1.58.82h0v-0.7h1.28Z" transform="translate(-348.1 -699.14)"/><path class="cls-1" d="M402.89,715.12h1.34v3.05h0a1.92,1.92,0,0,1,1.62-.82,1.73,1.73,0,0,1,1.75,2v3.25h-1.34v-2.75c0-.63,0-1.48-0.87-1.48s-1.18,1.05-1.18,1.71v2.52h-1.34v-7.51Z" transform="translate(-348.1 -699.14)"/><path class="cls-1" d="M408.94,718.45h-0.68v-1h0.68v-1l1.34-.43v1.46h1.19v1h-1.19v2.4a0.68,0.68,0,0,0,.63.85,1.2,1.2,0,0,0,.61-0.14l0,1.06a3.49,3.49,0,0,1-1,.12,1.52,1.52,0,0,1-1.63-1.67v-2.62Z" transform="translate(-348.1 -699.14)"/><path class="cls-1" d="M414.55,721.7c1,0,1.3-.92,1.3-1.78a1.31,1.31,0,1,0-2.59,0c0,0.85.27,1.78,1.29,1.78m0-4.35a2.58,2.58,0,0,1,2.7,2.73,2.7,2.7,0,0,1-5.4,0,2.58,2.58,0,0,1,2.69-2.73" transform="translate(-348.1 -699.14)"/><path class="cls-1" d="M418.11,717.47h1.27v0.7h0a1.92,1.92,0,0,1,1.69-.82,1.73,1.73,0,0,1,1.75,2v3.25H421.5v-2.75c0-.63,0-1.48-0.87-1.48s-1.18,1.05-1.18,1.71v2.52h-1.34v-5.16Z" transform="translate(-348.1 -699.14)"/><path class="cls-1" d="M414.12,741.16h-0.68v-1h0.68v-1l1.34-.43v1.46h1.19v1h-1.19v2.4a0.68,0.68,0,0,0,.63.85,1.2,1.2,0,0,0,.61-0.14l0,1.06a3.5,3.5,0,0,1-1,.12,1.52,1.52,0,0,1-1.63-1.67v-2.62Z" transform="translate(-348.1 -699.14)"/><polygon class="cls-1" points="34.39 39.21 34.39 42.03 31.59 42.03 31.59 39.21 30.19 39.21 30.19 46.2 31.59 46.2 31.59 43.14 34.39 43.14 34.39 46.2 35.79 46.2 35.79 39.21 34.39 39.21"/><path class="cls-1" d="M386.83,744.48a1.14,1.14,0,0,0,.94-0.46,1.71,1.71,0,0,0,.28-1.06h-0.58c-0.6,0-1.49.1-1.49,0.89a0.7,0.7,0,0,0,.85.63m-1.57-4a4.61,4.61,0,0,1,1.79-.39c1.57,0,2.22.65,2.22,2.17v0.66c0,0.52,0,.91,0,1.29s0,0.75.06,1.15h-1.18a6.3,6.3,0,0,1-.06-0.77h0a1.84,1.84,0,0,1-1.59.89,1.65,1.65,0,0,1-1.8-1.53,1.51,1.51,0,0,1,.88-1.47,4.08,4.08,0,0,1,1.73-.3h0.74a1,1,0,0,0-1.16-1.11,2.7,2.7,0,0,0-1.59.56Z" transform="translate(-348.1 -699.14)"/><path class="cls-1" d="M390.41,740.18h1.19v1.17h0a1.58,1.58,0,0,1,1.41-1.29,1.47,1.47,0,0,1,.41,0v1.35a1.37,1.37,0,0,0-.6-0.11c-1.09,0-1.09,1.36-1.09,2.1v1.89h-1.34v-5.16Z" transform="translate(-348.1 -699.14)"/><path class="cls-1" d="M397.24,741.29a2,2,0,0,0-.91-0.19,1.69,1.69,0,0,0,0,3.31,2.84,2.84,0,0,0,1-.24l0.06,1.11a4.39,4.39,0,0,1-1.34.17,2.7,2.7,0,0,1-.05-5.4,4.38,4.38,0,0,1,1.3.17Z" transform="translate(-348.1 -699.14)"/><path class="cls-1" d="M400.5,744.42c1,0,1.3-.92,1.3-1.78a1.31,1.31,0,1,0-2.59,0c0,0.85.27,1.78,1.29,1.78m0-4.35a2.58,2.58,0,0,1,2.7,2.73,2.7,2.7,0,0,1-5.4,0,2.58,2.58,0,0,1,2.69-2.73" transform="translate(-348.1 -699.14)"/><path class="cls-1" d="M408.79,745.34h-1.27v-0.7h0a2.15,2.15,0,0,1-1.69.82,1.73,1.73,0,0,1-1.75-2v-3.25h1.34v2.75c0,0.63,0,1.48.87,1.48s1.18-1.05,1.18-1.71v-2.52h1.34v5.16Z" transform="translate(-348.1 -699.14)"/><path class="cls-1" d="M410,740.18h1.19v1.17h0a1.58,1.58,0,0,1,1.41-1.29,1.47,1.47,0,0,1,.41,0v1.35a1.37,1.37,0,0,0-.6-0.11c-1.09,0-1.09,1.36-1.09,2.1v1.89H410v-5.16Z" transform="translate(-348.1 -699.14)"/><polygon class="cls-1" points="30.19 28.35 32.43 28.35 34.09 33.65 34.11 33.65 35.77 28.35 38.01 28.35 38.01 35.34 36.67 35.34 36.67 29.57 36.65 29.57 34.77 35.34 33.43 35.34 31.55 29.57 31.53 29.59 31.53 35.34 30.19 35.34 30.19 28.35"/><path class="cls-1" d="M395.65,727.89a1,1,0,0,1,.58.18l0.11-1.11a4.74,4.74,0,0,0-1-.11,1.58,1.58,0,0,0-1.64,1.75v0.72h-2v-0.64a0.65,0.65,0,0,1,.59-0.79,1,1,0,0,1,.58.18L393,727a4.75,4.75,0,0,0-1-.11,1.58,1.58,0,0,0-1.64,1.75v0.72h-1v1h1v4.17h1.34V730.3h2v4.17h1.34V730.3h1.17v-1h-1.17v-0.64a0.65,0.65,0,0,1,.59-0.79" transform="translate(-348.1 -699.14)"/><polygon class="cls-1" points="48.86 31.11 48.86 27.83 50.2 27.83 50.2 35.34 48.86 35.34 48.86 31.11"/><path class="cls-1" d="M402.09,729.32h1.27V730h0a1.93,1.93,0,0,1,1.69-.82,1.73,1.73,0,0,1,1.75,2v3.25h-1.34v-2.75c0-.63,0-1.48-0.87-1.48s-1.18,1.05-1.18,1.71v2.52h-1.34v-5.16Z" transform="translate(-348.1 -699.14)"/><polygon class="cls-1" points="39.25 31.83 39.25 30.18 40.59 30.18 40.59 35.34 39.25 35.34 39.25 31.83"/><path class="cls-1" d="M388.77,727.94a0.75,0.75,0,1,1-.75-0.75,0.75,0.75,0,0,1,.75.75" transform="translate(-348.1 -699.14)"/><polygon class="cls-1" points="51.47 31.68 51.47 30.18 52.81 30.18 52.81 35.34 51.47 35.34 51.47 31.68"/><path class="cls-1" d="M401,727.94a0.75,0.75,0,1,1-.75-0.75,0.75,0.75,0,0,1,.75.75" transform="translate(-348.1 -699.14)"/><path class="cls-2" d="M375.76,699.18L364.22,701c1.7-.26,4.28.93,6.48,3.13s3.42,4.85,3.12,6.54h0Z" transform="translate(-348.1 -699.14)"/><path class="cls-3" d="M370.7,704.16c-2.21-2.21-4.78-3.39-6.48-3.13h-0.06a2.08,2.08,0,0,0-1.13.56c-1.41,1.41-.27,4.85,2.56,7.68s6.27,4,7.68,2.56a2.07,2.07,0,0,0,.56-1.14c0.3-1.7-.89-4.31-3.12-6.54" transform="translate(-348.1 -699.14)"/><path class="cls-3" d="M390.57,705.88a6.57,6.57,0,1,1-6.57-6.57,6.57,6.57,0,0,1,6.57,6.57" transform="translate(-348.1 -699.14)"/><polygon class="cls-2" points="7.56 0 0 13 15 13 7.56 0"/><polygon class="cls-2" points="69.57 45.18 69.57 45.34 69.85 45.34 69.85 46.17 70.05 46.17 70.05 45.34 70.33 45.34 70.33 45.18 69.57 45.18"/><polygon class="cls-2" points="71.29 45.18 71.05 45.93 71.05 45.93 70.81 45.18 70.5 45.18 70.5 46.17 70.69 46.17 70.69 45.36 70.69 45.36 70.96 46.17 71.15 46.17 71.41 45.36 71.42 45.36 71.42 46.17 71.61 46.17 71.61 45.18 71.29 45.18"/></svg>