<svg id="Layer_1" data-name="Layer 1" xmlns="http://www.w3.org/2000/svg" viewBox="0 0 1038.82 429.03"><defs><style>.cls-1{fill:#f46c63;}</style></defs><title>voi_logo_coral</title><path id="voi_black" data-name="voi black" class="cls-1" d="M331.35,134.37,208.85,424.7H122L0,134.37H86.88l80.41,197.51,83.1-197.51ZM522.91,429q-45.87,0-82.3-19.16a142.42,142.42,0,0,1-56.92-53.17q-20.52-34-20.51-77.17t20.51-77.17a142.35,142.35,0,0,1,56.93-53.16Q477,130,522.92,130t82,19.16a143,143,0,0,1,56.66,53.16q20.5,34,20.5,77.17t-20.5,77.18A142.89,142.89,0,0,1,605,409.87Q568.79,429,522.91,429Zm0-69.08q32.39,0,53.16-21.85t20.79-58.56q0-36.69-20.79-58.56t-53.16-21.84q-32.37,0-53.42,21.85t-21,58.56q0,36.7,21,58.56T522.91,359.94Zm242.3-225.57H849.4V424.7H765.21Zm42.1-40.47q-23.2,0-37.78-13.49A43.75,43.75,0,0,1,755,47a43.75,43.75,0,0,1,14.57-33.46Q784.1,0,807.31,0t37.77,13a41.51,41.51,0,0,1,14.57,32.38,45.83,45.83,0,0,1-14.57,34.81Q830.52,93.9,807.31,93.9ZM986.47,429a50.65,50.65,0,0,1-37.24-15.11,51.28,51.28,0,0,1-15.11-37.78q0-23.2,15.11-37.5a55.62,55.62,0,0,1,74.47,0q15.1,14.3,15.1,37.5a51.24,51.24,0,0,1-15.11,37.78A50.64,50.64,0,0,1,986.47,429Z"/></svg>