<?xml version="1.0" encoding="UTF-8"?>
<svg width="318px" height="281px" viewBox="0 0 318 281" version="1.1" xmlns="http://www.w3.org/2000/svg" xmlns:xlink="http://www.w3.org/1999/xlink">
    <!-- Generator: Sketch 54 (76480) - https://sketchapp.com -->
    <title>Desktop</title>
    <desc>Created with Sketch.</desc>
    <g id="Desktop" stroke="none" stroke-width="1" fill="none" fill-rule="evenodd">
        <g id="thinking" transform="translate(16.000000, 15.000000)" fill-rule="nonzero">
            <path d="M0.709924799,112.537819 C8.50913328,48.3525599 79.5505263,-1.87648253 138.043399,0.05382182 C236.264718,3.2952658 321.898217,154.364786 260.117863,216.112293 C223.664989,252.545189 131.105212,262.665809 65.9087592,226.135647 C20.471135,200.675972 -4.63186015,156.504072 0.709924799,112.537819 Z" id="Path-Copy" fill="#856CB0"></path>
            <path d="M87.7029104,136.565643 C86.3896238,135.877948 85.4297385,134.730008 85.0390698,133.379921 C84.7473682,131.628964 86.1416649,129.879707 87.4699161,128.378644 C90.6098249,124.630008 93.3016402,120.576834 95.4981299,116.29024 C95.6382819,116.058804 95.7432358,115.810527 95.8100121,115.552458 C95.8026737,115.08327 95.2100976,114.546083 94.3111431,113.782802 C92.9584563,112.858058 92.006625,111.516105 91.6271219,109.998695 C91.5371881,109.023721 91.7086041,108.043262 92.1261333,107.144465 C92.4563615,106.340384 92.8342893,105.566903 93.2012095,104.793422 C93.8561655,103.550152 94.3831923,102.252444 94.7752971,100.917517 C95.2353011,98.8359446 95.8389004,96.7838501 96.5823791,94.7738682 C98.1996122,90.6435308 100.703486,86.8597572 103.942798,83.6510412 C108.044966,79.6323398 114.056953,76.9447058 122.329169,75.4147433 C128.17377,74.2276018 134.104409,73.4389753 140.07343,73.0552012 C142.199419,72.95331 144.330552,72.9925092 146.450503,73.1724983 C147.104632,73.2289806 147.676552,73.6045346 147.950827,74.1576928 C148.225102,74.7108509 148.160063,75.3575753 147.780209,75.8542511 C147.400355,76.350927 146.763396,76.6220974 146.109267,76.5656151 C144.167148,76.395625 142.214242,76.3569903 140.266063,76.4500179 C134.475923,76.8268533 128.723213,77.5950109 123.053837,78.7483615 C115.642049,80.111728 110.1199,82.5460683 106.612143,85.9884838 C103.714776,88.8639622 101.475622,92.2531835 100.029594,95.9519393 C99.3503633,97.7918836 98.7988568,99.6702066 98.3784534,101.575401 C97.9319918,103.16377 97.3174812,104.707444 96.5438525,106.183988 C96.1989475,106.899671 95.8522079,107.613653 95.5531679,108.341235 C95.3735822,108.723414 95.2727782,109.133362 95.2559626,109.549906 C95.3348504,110.051393 96.0375026,110.646379 96.780516,111.278763 C98.2983043,112.268425 99.2797378,113.818196 99.4718756,115.528659 C99.4376102,116.33623 99.1947628,117.124399 98.7637196,117.827003 C96.4675354,122.308959 93.6532992,126.546823 90.3704202,130.466192 C88.9742888,132.042054 88.6752489,132.665938 88.6752489,132.924332 C89.0144224,133.230033 89.3828556,133.506562 89.7760095,133.750512 C90.2548704,134.060025 90.7604915,134.332377 91.2877207,134.564792 C92.8526353,135.305974 94.9972838,136.322549 95.4357535,138.396498 C95.6995905,139.68042 95.52916,141.008513 94.9477496,142.199304 C94.6285291,142.823189 94.2983009,143.373976 94.0102685,143.843164 C93.9167039,143.989361 93.8213046,144.152557 93.7332438,144.300453 C94.5037762,144.868239 95.5329873,145.589021 95.971457,145.888214 C96.3716752,146.161125 96.6353019,146.572795 96.70204,147.029066 C96.768778,147.485337 96.6329183,147.947178 96.325535,148.308955 C96.0523504,148.637652 95.8151304,148.990715 95.617379,149.362929 L96.0118182,149.572024 C97.6300782,150.219041 98.865694,151.484917 99.3984916,153.041638 C99.6685474,154.256666 99.6054703,155.515047 99.2150315,156.701649 C99.1306398,157.04844 99.0444136,157.405431 98.9912102,157.745423 C98.8948667,158.768355 99.0497904,159.798223 99.4443566,160.757749 C99.8537424,162.323589 101.51483,163.318078 103.223635,163.020394 C108.566513,161.829277 113.83078,160.353528 118.990195,158.600502 L119.003038,158.600502 C120.911023,158.000417 122.639217,157.43943 124.002325,156.999141 C125.270035,156.586051 126.238704,156.274959 126.737715,156.127063 C134.364152,153.876318 135.91072,151.32978 135.86669,149.590723 C135.843108,148.652414 136.644644,147.873937 137.65726,147.851666 C138.143857,147.83372 138.617568,147.999072 138.970449,148.310041 C139.323329,148.621011 139.525318,149.051107 139.530388,149.502325 C139.638629,153.726722 135.708914,157.04164 127.853153,159.362083 C127.372487,159.51168 126.442345,159.812572 125.209493,160.212062 L123.558352,160.744149 C126.587556,163.851913 128.79857,167.567701 130.017982,171.600083 L171.630401,171.484486 L171.507483,171.31449 C170.979021,170.609159 170.503944,169.870742 170.085667,169.104544 C169.173042,167.389583 168.411646,165.609019 167.808927,163.780275 C166.692851,160.297455 165.918561,156.728341 165.495495,153.116437 C164.772023,147.42927 165.70051,141.66625 168.18502,136.422846 C169.649781,133.585302 171.461394,130.913025 173.584251,128.458542 C174.650154,127.129174 175.750915,125.755608 176.703073,124.359942 C178.24325,122.145173 179.360333,119.701189 180.005355,117.13512 C180.247167,116.23414 181.224369,115.679574 182.200397,115.889424 C183.176424,116.099273 183.790229,116.995912 183.579157,117.903501 C182.841626,120.843667 181.563185,123.644188 179.799879,126.182298 C178.774337,127.679961 177.631381,129.106226 176.53062,130.483192 C174.575804,132.732478 172.904086,135.180926 171.547844,137.781113 C169.325348,142.469541 168.493171,147.622553 169.137178,152.708447 C169.534676,156.114147 170.261031,159.479949 171.307511,162.7654 C171.856551,164.427582 172.549213,166.046078 173.378776,167.605181 C173.729727,168.241404 174.126915,168.854801 174.567597,169.441136 C175.346766,170.432107 175.972325,171.519306 176.426048,172.671057 C176.601123,173.186898 176.500899,173.74915 176.156106,174.185426 C175.811313,174.621702 175.263085,174.879954 174.679508,174.881002 L128.631023,175 C127.788312,175.000565 127.053562,174.469086 126.849626,173.711431 C126.168989,171.146194 123.556517,164.312362 119.424996,162.065017 C114.363128,163.770987 109.198589,165.203064 103.957475,166.354012 C103.464456,166.449485 102.962273,166.498467 102.458606,166.500208 C99.4238399,166.452549 96.7819847,164.566308 95.9586148,161.859322 C95.3690411,160.398519 95.1566779,158.830119 95.3385196,157.279634 C95.4063999,156.827445 95.5109721,156.387156 95.6192136,155.945167 C95.8507512,155.281374 95.9196917,154.578104 95.8210197,153.886518 C95.6705824,153.361231 95.2486242,153.096037 94.1698788,152.526551 C93.7405822,152.297057 93.2984433,152.059063 92.8856581,151.787069 C92.2946521,151.39266 91.905115,150.790054 91.8087474,150.12111 C91.7387653,149.266401 91.9471046,148.411892 92.4068273,147.66807 C91.7812283,147.224381 91.0969222,146.733093 90.7006484,146.393102 C89.0054771,145.107933 90.1282529,143.266878 90.8015514,142.168705 C91.0473879,141.764115 91.3354203,141.296627 91.6087758,140.75264 C91.8653834,140.212232 91.9401882,139.612689 91.8234242,139.032282 C91.7298595,138.590293 90.4016084,137.961308 89.6072262,137.585618 C88.9434879,137.294333 88.3065901,136.953203 87.7029104,136.565643 Z M107.146884,98.3449031 C106.573715,99.9214109 106.105468,101.528226 105.744716,103.156522 L102.068966,102.411108 C102.464524,100.632732 102.980588,98.8785731 103.614174,97.1587832 C104.922056,93.8440455 106.950326,90.8059166 109.576682,88.2275927 C112.63322,85.2734827 117.645265,83.1456972 124.475424,81.9027674 C125.495132,81.717844 126.485664,82.3240357 126.687838,83.2567345 C126.890013,84.1894334 126.227271,85.0954453 125.207563,85.2803688 C119.158478,86.3804132 114.820226,88.1690614 112.31138,90.5981111 C110.036949,92.8358135 108.280301,95.4708034 107.146884,98.3449031 Z M145.45597,82.5200162 C145.803134,80.9361253 147.299813,79.7988789 149.035639,79.8000171 L153.343654,79.8000171 C153.584757,79.8027921 153.825006,79.8272726 154.061049,79.873117 L155.703936,78.3431175 C156.796329,77.324353 158.501461,77.1477553 159.807503,77.9181177 L163.372569,80.1451169 C164.058703,79.8257626 164.767393,79.5502922 165.493719,79.3206172 L166.320639,75.4565185 C166.630118,74.0238075 167.984246,72.9948622 169.553476,73.0000193 L172.985286,73.0000193 C174.559713,72.9953258 175.91644,74.0313689 176.219948,75.4701185 L177.045043,79.3172172 C177.77104,79.547038 178.479678,79.8219208 179.166193,80.1400169 L182.689274,77.9470177 C183.999643,77.1490751 185.730921,77.3142773 186.840303,78.3431175 L189.268125,80.6041168 C190.363367,81.6208614 190.553101,83.2097199 189.724483,84.4257155 L187.333169,87.7458144 C187.674219,88.3849364 187.968184,89.0449268 188.213026,89.7212138 L192.36223,90.4913135 C193.90065,90.7795275 195.005514,92.0406085 194.999977,93.5020125 L194.999977,96.6980115 C195.005893,98.1648943 193.893208,99.4293365 192.347626,99.7121105 L188.216677,100.47881 C187.969899,101.154921 187.674735,101.814867 187.333169,102.45421 L189.687974,105.735209 C190.544071,106.955701 190.36673,108.567559 189.262649,109.601007 L186.834826,111.862007 C186.217881,112.439988 185.378851,112.764899 184.503752,112.764706 C183.876423,112.76398 183.262049,112.598401 182.731259,112.287006 L179.980335,110.570007 C179.47511,111.485573 178.550138,112.137421 177.466717,112.341406 L172.012331,113.361406 C171.665616,114.344693 171.23843,115.301766 170.73453,116.224205 L173.823158,120.520104 C174.793423,121.878261 174.591185,123.686774 173.341245,124.829602 L170.312856,127.649901 C169.090607,128.791503 167.175526,128.97681 165.727374,128.093601 L161.092607,125.203602 C160.102108,125.672877 159.074419,126.070711 158.018582,126.393602 L156.923323,131.48 C156.576159,133.063891 155.07948,134.201137 153.343654,134.199999 L149.035639,134.199999 C147.296323,134.201128 145.797659,133.059397 145.454144,131.4715 L144.358886,126.391902 C143.303049,126.069011 142.27536,125.671177 141.284861,125.201902 L136.671998,128.078301 C135.213344,128.977232 133.275691,128.789945 132.046358,127.631201 L129.016143,124.809202 C127.790311,123.670938 127.591331,121.887448 128.539706,120.538804 L131.642938,116.222505 C131.139038,115.300066 130.711851,114.342993 130.365136,113.359706 L124.903448,112.339706 C123.202693,112.016396 121.981538,110.622559 121.98276,109.006007 L121.98276,104.994009 C121.981372,103.37473 123.206419,101.979227 124.91075,101.65861 L130.365136,100.63861 C130.711851,99.655323 131.139038,98.6982499 131.642938,97.7758111 L128.554309,93.4799126 C127.584044,92.121755 127.786283,90.3132427 129.036223,89.170414 L132.066437,86.3501149 C133.288686,85.2085132 135.203767,85.0232063 136.651919,85.906415 L141.286686,88.7964141 C142.277185,88.3271389 143.304874,87.9293056 144.360711,87.6064145 L145.45597,82.5200162 Z M173.36315,89.184014 L173.36315,89.189114 C174.589153,90.3291781 174.785914,92.1147076 173.834111,93.4629126 L170.730879,97.7792111 C171.234779,98.7016499 171.661965,99.658723 172.00868,100.64201 L174.779684,101.15201 C177.638331,99.828862 179.234261,96.9225967 178.712792,93.9896293 C178.191323,91.056662 175.674702,88.7845576 172.510674,88.3901142 L173.36315,89.184014 Z M158.084297,80.9288167 L156.799194,82.1256163 C156.850769,82.256575 156.892848,82.3906095 156.925149,82.5268162 L158.020407,87.6064145 C159.076244,87.9293056 160.103933,88.3271389 161.094432,88.7964141 L165.703644,85.920015 C166.458663,85.461571 167.36734,85.2753985 168.259246,85.3964152 C169.307235,85.0739755 170.403008,84.9064768 171.506687,84.9000154 C175.969057,84.8882013 179.990778,87.4045403 181.665782,91.2564304 C183.340785,95.1083206 182.332475,99.5217128 179.118732,102.40491 C179.929976,103.052923 180.396731,103.998668 180.396533,104.994009 L180.396533,106.731408 L184.465418,109.266107 L186.491645,107.379108 L183.691435,103.492909 C183.299028,102.947939 183.278424,102.241309 183.638498,101.67731 C184.253488,100.704164 184.723291,99.6575455 185.034952,98.5663109 C185.215769,97.9427771 185.760378,97.4685238 186.440533,97.3423113 L191.360068,96.4294116 L191.360068,93.7706125 L186.431406,92.8577128 C185.751251,92.7315002 185.206641,92.2572469 185.025825,91.6337132 C184.714164,90.5424786 184.244361,89.49586 183.62937,88.5227142 C183.269297,87.9587154 183.2899,87.252085 183.682308,86.7071148 L186.480693,82.8192161 L184.454465,80.9322167 L180.281531,83.5400158 C179.698489,83.908644 178.939678,83.9318026 178.331971,83.5995158 C177.287024,83.0267832 176.163183,82.5892623 174.991434,82.2990162 C174.321894,82.130624 173.812649,81.6234366 173.677124,80.9900167 L172.696868,76.4000182 L169.841894,76.4000182 L168.861638,80.9798167 C168.726113,81.6132366 168.216868,82.120424 167.547328,82.2888162 C166.375579,82.5790623 165.251738,83.0165832 164.206791,83.5893158 C163.601179,83.9246474 162.842411,83.9054598 162.257231,83.5400158 L158.084297,80.9288167 Z M147.721329,89.2809139 C147.586076,89.9108064 147.081133,90.4159106 146.416146,90.5865135 C144.907931,90.9651619 143.459122,91.5252093 142.106305,92.252513 C141.503469,92.5781584 140.75414,92.5557325 140.174999,92.194713 L134.645771,88.7437141 L131.602778,91.5929132 L135.297449,96.7371115 C135.685106,97.2764576 135.709186,97.9742981 135.359514,98.5357109 C134.578548,99.7955721 133.977178,101.144829 133.570592,102.54941 C133.389769,103.171342 132.846937,103.64462 132.168662,103.771709 L125.633621,104.994009 L125.633621,109.006007 L132.163185,110.223207 C132.841461,110.350296 133.384293,110.823574 133.565116,111.445507 C133.971702,112.850087 134.573071,114.199344 135.354038,115.459205 C135.70371,116.020618 135.67963,116.718459 135.291973,117.257805 L131.586349,122.407103 L134.645771,125.241002 L140.169523,121.800203 C140.748664,121.439184 141.497993,121.416758 142.100828,121.742403 C143.453646,122.469707 144.902455,123.029754 146.41067,123.408403 C147.07849,123.576801 147.586688,124.082333 147.723154,124.714002 L149.035639,130.8 L153.343654,130.8 L154.650663,124.719102 C154.787128,124.087433 155.295327,123.581901 155.963147,123.413503 C157.471362,123.034854 158.920171,122.474807 160.272988,121.747503 C160.875824,121.421858 161.625153,121.444284 162.204294,121.805303 L167.733522,125.256302 L170.776515,122.407103 L167.081844,117.262905 C166.694187,116.723559 166.670107,116.025718 167.019779,115.464305 C167.800745,114.204444 168.402115,112.855187 168.808701,111.450607 C168.989524,110.828674 169.532356,110.355396 170.210631,110.228307 L176.745672,109.006007 L176.745672,104.992309 L170.216108,103.776809 C169.537832,103.64972 168.995,103.176442 168.814177,102.55451 C168.407591,101.149929 167.806222,99.8006721 167.025255,98.5408109 C166.675583,97.9793981 166.699663,97.2815576 167.08732,96.7422115 L170.792944,91.5929132 L167.733522,88.7590141 L162.20977,92.199813 C161.630629,92.5608325 160.8813,92.5832584 160.278465,92.257613 C158.925647,91.5303093 157.476838,90.9702619 155.968623,90.5916135 C155.300803,90.4232156 154.792605,89.9176831 154.656139,89.2860139 L153.343654,83.2000159 L149.035639,83.2000159 L147.721329,89.2809139 Z M150.905172,119.121739 C143.838318,119.114198 138.111511,113.75771 138.103448,107.147826 C138.103448,100.534817 143.834975,95.173913 150.905172,95.173913 C157.975369,95.173913 163.706897,100.534817 163.706897,107.147826 C163.706897,113.760836 157.975369,119.121739 150.905172,119.121739 Z M150.905172,98.5950311 C145.857538,98.6006863 141.76713,102.426592 141.761084,107.147826 C141.761084,111.871404 145.855032,115.700621 150.905172,115.700621 C155.955313,115.700621 160.049261,111.871404 160.049261,107.147826 C160.049261,102.424248 155.955313,98.5950311 150.905172,98.5950311 Z M151.37931,109.365217 C150.331874,109.365217 149.482759,108.571009 149.482759,107.591304 C149.482759,106.611599 150.331874,105.817391 151.37931,105.817391 C152.426747,105.817391 153.275862,106.611599 153.275862,107.591304 C153.275862,108.571009 152.426747,109.365217 151.37931,109.365217 Z M101.12069,110.252174 C100.073253,110.252174 99.2241379,109.457966 99.2241379,108.478261 C99.2241379,107.498556 100.073253,106.704348 101.12069,106.704348 C102.168126,106.704348 103.017241,107.498556 103.017241,108.478261 C103.017241,109.457966 102.168126,110.252174 101.12069,110.252174 Z" id="Combined-Shape" stroke="#FFFFFF" fill="#FFFFFF"></path>
        </g>
    </g>
</svg>