<?xml version="1.0" encoding="UTF-8"?>
<svg width="296px" height="281px" viewBox="0 0 296 281" version="1.1" xmlns="http://www.w3.org/2000/svg" xmlns:xlink="http://www.w3.org/1999/xlink">
    <!-- Generator: Sketch 54 (76480) - https://sketchapp.com -->
    <title>support</title>
    <desc>Created with Sketch.</desc>
    <g id="Page-1" stroke="none" stroke-width="1" fill="none" fill-rule="evenodd">
        <g id="Desktop" transform="translate(-11.000000, 0.000000)" fill-rule="nonzero">
            <g id="support" transform="translate(11.000000, 0.000000)">
                <path d="M0.74782114,127.000511 C8.96335748,54.5665435 83.7969957,-2.11763691 145.412264,0.0607386804 C248.876714,3.71875378 339.081396,174.20283 274.003158,243.88576 C235.604401,285.000796 138.103711,296.422057 69.4270203,255.197256 C21.5639003,226.465655 -4.87911247,176.617045 0.74782114,127.000511 Z" id="Path" fill="#856CB0"></path>
                <path d="M214.20069,166.357951 C215.260373,167.413703 215.267398,169.132487 214.215821,170.196923 C213.687601,170.732127 212.992404,171 212.297206,171 C211.609304,171 210.921132,170.737826 210.394262,170.212665 L203.79948,163.642038 C202.739797,162.586287 202.732502,160.867502 203.783809,159.803066 C204.834846,158.73863 206.545685,158.731302 207.605638,159.787325 L214.20069,166.357951 Z M201.122099,152.878433 C202.292684,154.049976 202.292684,155.948974 201.121799,157.120218 C200.535757,157.706439 199.766558,158 198.997958,158 C198.231158,158 197.464057,157.707639 196.879514,157.122617 C195.708629,155.951373 195.705931,154.054774 196.876816,152.88353 L196.881912,152.878433 C198.053397,151.707189 199.951214,151.707189 201.122099,152.878433 Z M179.010471,165.735814 C172.014457,172.762478 162.794546,176.929877 152.946712,177.539975 L151.281574,179.21833 C154.553824,181.060071 158.301679,181.894175 162.093313,181.581972 L162.914743,181.514328 C163.672966,181.451887 164.420569,181.727927 164.958604,182.268039 L179.169784,196.542512 C180.181611,197.558995 180.181611,199.20665 179.169784,200.222873 C178.66387,200.730984 178.000975,200.98517 177.337821,200.98517 C176.674926,200.98517 176.011773,200.730724 175.505859,200.222873 L162.139682,186.798375 C156.952316,187.14284 151.850695,185.813893 147.512736,183.018889 L130.434711,200.23432 C129.928797,200.744773 129.26383,201 128.599381,201 C127.937781,201 127.276182,200.746855 126.770786,200.241085 C125.756886,199.226683 125.754036,197.579028 126.764051,196.560984 L149.982725,173.155074 C150.445896,172.687809 151.068639,172.414891 151.724281,172.390956 C160.643959,172.065743 169.032078,168.396049 175.343438,162.057014 L200.478005,136.813525 C202.264635,135.019134 202.264635,132.09977 200.478005,130.305639 C198.692411,128.512289 195.787487,128.512029 194.000857,130.303298 L190.81461,133.503385 C190.308696,134.011497 189.645542,134.265683 188.982647,134.265683 C188.319753,134.265683 187.656599,134.011237 187.150685,133.503385 C186.138857,132.486902 186.138857,130.839247 187.150685,129.823024 L190.3346,126.625278 L193.815381,123.129377 C194.681108,122.260411 195.15749,121.104737 195.15749,119.875695 C195.15749,118.646393 194.681108,117.491239 193.81564,116.622012 C192.950173,115.752525 191.799756,115.274073 190.575771,115.274073 C189.352045,115.274073 188.201628,115.752525 187.336161,116.622012 L180.671465,123.315659 C180.165551,123.82377 179.502397,124.077956 178.839502,124.077956 C178.176607,124.077956 177.513453,123.82351 177.007539,123.315659 C175.995712,122.299176 175.995712,120.651521 177.007539,119.635298 L183.672236,112.941651 L186.208281,110.394589 C187.994652,108.600199 187.994652,105.681094 186.208281,103.886704 C184.421651,102.092573 181.514913,102.092833 179.728802,103.886964 L170.52806,113.127672 C170.022146,113.635784 169.358992,113.88997 168.696098,113.88997 C168.033203,113.88997 167.370049,113.635524 166.864135,113.127672 C165.852307,112.111189 165.852307,110.463534 166.864135,109.447311 L176.064877,100.206603 L178.600663,97.6598012 C179.46639,96.7908343 179.942772,95.6351603 179.942772,94.4061185 C179.942772,93.1768165 179.46639,92.0216629 178.600922,91.1524358 C177.735454,90.2829486 176.585038,89.8044964 175.361053,89.8044964 C174.137068,89.8044964 172.98691,90.2829486 172.121443,91.1524358 L154.922444,108.426145 C158.066985,112.274316 157.851719,117.98322 154.274833,121.575644 C152.371633,123.487111 149.871336,124.442974 147.371038,124.442974 C147.240998,124.442974 147.111217,124.438812 146.981436,124.433608 C146.986616,124.565254 146.99102,124.6969 146.99102,124.829327 C146.99102,127.448455 145.975307,129.910962 144.131428,131.76311 C142.228229,133.674577 139.727672,134.630441 137.227634,134.630441 C137.097594,134.630441 136.967812,134.626278 136.838031,134.621075 C136.843212,134.75272 136.847616,134.884366 136.847616,135.016793 C136.847616,137.635921 135.831902,140.098428 133.988024,141.950576 C132.085083,143.861783 129.584009,144.817647 127.08423,144.817907 C126.952894,144.817907 126.821559,144.814004 126.690223,144.808541 C126.795654,147.449784 125.848069,150.12615 123.844619,152.138043 C122.000482,153.990191 119.548626,155.010316 116.940825,155.010316 C115.220511,155.010316 113.569879,154.564386 112.115345,153.730802 L86.4227958,179.534956 C85.916882,180.043068 85.2537281,180.297254 84.5908333,180.297254 C83.9279385,180.297254 83.2647846,180.042808 82.7588708,179.534956 C81.7470431,178.518473 81.7470431,176.870818 82.7588708,175.854595 L108.205846,150.297602 L103.036872,145.106435 C99.2302136,141.282981 99.2302136,135.061802 103.036872,131.238608 C104.3523,129.917726 105.977545,129.022742 107.747078,128.616617 C106.075982,124.990111 106.726961,120.541209 109.700014,117.555241 C111.144964,116.103754 112.963974,115.166102 114.937893,114.827101 C114.617455,113.848603 114.448299,112.814688 114.448299,111.754236 C114.448299,109.135108 115.464013,106.672601 117.307891,104.820453 C118.788589,103.333583 120.631173,102.427672 122.553024,102.097516 C121.437837,98.6918945 122.223519,94.7898689 124.915509,92.086185 C126.759647,90.2342968 129.211503,89.2141713 131.819563,89.2141713 C133.126701,89.2141713 134.394724,89.4709588 135.566641,89.9598178 C135.126783,88.7097022 134.896752,87.3802348 134.896752,86.0146039 L134.896752,82.6022177 C134.896752,81.1653002 136.057012,80 137.487715,80 L157.833068,80 C162.601817,80 167.200634,82.0108519 170.44957,85.5174195 L170.699548,85.7872156 C172.114189,85.0124301 173.706536,84.5998009 175.362607,84.5998009 C177.970408,84.5998009 180.422264,85.6199264 182.266401,87.4718146 C184.11028,89.3237028 185.125993,91.7862093 185.125993,94.4055982 C185.125993,95.4681314 184.956319,96.5036069 184.634586,97.4841866 C186.554883,97.8151225 188.394875,98.7205132 189.874278,100.206082 C192.564973,102.908205 193.351432,106.807369 192.238836,110.21195 C194.215087,110.549911 196.03591,111.488083 197.482156,112.940871 C199.326034,114.792759 200.341748,117.255265 200.341748,119.874654 C200.341748,121.326661 200.028304,122.729757 199.436128,124.008231 C201.162919,124.40551 202.802411,125.276038 204.144779,126.624237 C207.951697,130.447692 207.951697,136.668871 204.145038,140.492325 L179.010471,165.735814 Z M120.180694,148.458202 C121.967065,146.663811 121.967065,143.744447 120.180953,141.950316 L113.180018,134.919229 C112.314809,134.049742 111.164133,133.57129 109.940407,133.57129 C108.716681,133.57129 107.566006,134.049742 106.700538,134.919229 C104.914167,136.71362 104.914167,139.632984 106.700538,141.427115 L113.701474,148.458202 C114.566683,149.327689 115.717099,149.806141 116.941084,149.806141 C118.164551,149.806141 119.315227,149.327689 120.180694,148.458202 Z M130.324617,138.270215 C131.189825,137.400988 131.666208,136.245314 131.666208,135.016272 C131.666208,133.787231 131.189825,132.631817 130.324099,131.76233 C130.32384,131.76233 130.32384,131.76233 130.32384,131.76233 L119.842123,121.235082 C118.976915,120.365594 117.826498,119.887142 116.602513,119.887142 C115.379046,119.887142 114.22837,120.365594 113.362903,121.235082 C111.576532,123.029212 111.576532,125.948577 113.362903,127.742707 L116.843943,131.238868 L123.844878,138.270215 C125.630731,140.064346 128.537987,140.064346 130.324617,138.270215 Z M140.468021,128.082489 C141.333489,127.213522 141.809872,126.057848 141.809354,124.828546 C141.809354,123.599244 141.332971,122.44409 140.467762,121.574863 L140.467503,121.574863 L133.381083,114.45766 L127.447928,108.498732 C126.555002,107.603228 125.382826,107.155216 124.21039,107.155216 C123.037437,107.155216 121.863965,107.603749 120.97078,108.500814 C120.105053,109.369781 119.628671,110.525455 119.628671,111.754497 C119.628671,112.983799 120.105053,114.138952 120.970521,115.008179 L133.988283,128.082489 C135.774395,129.876619 138.681392,129.876359 140.468021,128.082489 Z M150.611685,117.894762 C151.477411,117.025796 151.953535,115.869861 151.953276,114.640299 C151.953276,113.411257 151.476893,112.255844 150.611167,111.386617 L135.057878,95.7657655 C134.164951,94.8684401 132.99148,94.4199075 131.818267,94.4199075 C130.645055,94.4199075 129.471583,94.8684401 128.578398,95.7657655 C126.792027,97.5601562 126.792027,100.479261 128.578398,102.273651 L131.11004,104.81629 C131.111594,104.817851 131.113148,104.819152 131.114444,104.820453 L144.132205,117.894762 C145.918576,119.688893 148.825314,119.688893 150.611685,117.894762 Z M151.292972,104.711442 L166.761294,89.1764467 L166.655863,89.0627525 C164.383525,86.6103926 161.167488,85.2041752 157.83229,85.2041752 L140.0779,85.2041752 L140.0779,86.0143437 C140.0779,87.7860996 140.766182,89.4496249 142.01633,90.6994803 C143.258707,91.9412704 144.906489,92.624216 146.658407,92.624216 C146.669287,92.624216 146.679649,92.624216 146.690529,92.624216 L153.800781,92.5906541 C153.804926,92.5906541 153.809071,92.5906541 153.813215,92.5906541 C155.238478,92.5906541 156.397184,93.7476289 156.403919,95.1806438 C156.410654,96.6178214 155.255834,97.788325 153.825132,97.7950895 L146.714879,97.8286514 C146.69571,97.8286514 146.67654,97.8286514 146.65763,97.8286514 C145.813145,97.8289115 144.983426,97.7370716 144.176502,97.5640587 L151.292972,104.711442 Z" id="Combined-Shape" fill="#FFFFFF"></path>
            </g>
        </g>
    </g>
</svg>